<?xml version="1.0" encoding="utf-8"?>
<svg version="1.1" xmlns:xlink="http://www.w3.org/1999/xlink" width="11px" height="24px" xmlns="http://www.w3.org/2000/svg">
  <g transform="matrix(1 0 0 1 -152 -252 )">
    <path d="M 10.871428571428572 5.472222222222223  C 10.995238095238097 5.620370370370369  11.019047619047619 5.782407407407407  10.942857142857143 5.958333333333332  C 10.857142857142858 6.134259259259257  10.719047619047618 6.222222222222223  10.528571428571428 6.222222222222223  L 7.328571428571429 6.222222222222223  L 7.328571428571429 23.555555555555557  C 7.328571428571429 23.685185185185183  7.285714285714286 23.791666666666664  7.2 23.875  C 7.114285714285714 23.958333333333332  7.004761904761905 24  6.871428571428572 24  L 4.128571428571429 24  C 3.9952380952380957 24  3.8857142857142857 23.958333333333332  3.8 23.875  C 3.7142857142857144 23.791666666666664  3.6714285714285713 23.685185185185183  3.6714285714285713 23.555555555555557  L 3.6714285714285713 6.222222222222223  L 0.4714285714285714 6.222222222222223  C 0.27142857142857146 6.222222222222223  0.13333333333333333 6.134259259259257  0.05714285714285714 5.958333333333332  C -0.019047619047619056 5.782407407407407  0.004761904761904751 5.620370370370369  0.1285714285714286 5.472222222222223  L 5.128571428571428 0.13888888888889017  C 5.223809523809524 0.046296296296295836  5.333333333333334 0  5.457142857142857 0  C 5.590476190476191 0  5.704761904761905 0.046296296296295836  5.8 0.13888888888889017  L 10.871428571428572 5.472222222222223  Z " fill-rule="nonzero" fill="#797979" stroke="none" transform="matrix(1 0 0 1 152 252 )" />
  </g>
</svg>