<?xml version="1.0" encoding="utf-8"?>
<svg version="1.1" xmlns:xlink="http://www.w3.org/1999/xlink" width="20px" height="20px" viewBox="98 253  20 20" xmlns="http://www.w3.org/2000/svg">
  <path d="M 98.5 255  A 1.5 1.5 0 0 1 100 253.5 L 116 253.5  A 1.5 1.5 0 0 1 117.5 255 L 117.5 271  A 1.5 1.5 0 0 1 116 272.5 L 100 272.5  A 1.5 1.5 0 0 1 98.5 271 L 98.5 255  Z " fill-rule="nonzero" fill="#ffffff" stroke="none" />
  <path d="M 98.5 255  A 1.5 1.5 0 0 1 100 253.5 L 116 253.5  A 1.5 1.5 0 0 1 117.5 255 L 117.5 271  A 1.5 1.5 0 0 1 116 272.5 L 100 272.5  A 1.5 1.5 0 0 1 98.5 271 L 98.5 255  Z " stroke-width="1" stroke="#797979" fill="none" />
  <path d="M 102.28571428571429 263  L 106.57142857142857 267.2857142857143  L 113.71428571428571 257.2857142857143  " stroke-width="4.285714285714286" stroke="#797979" fill="none" />
</svg>