<?xml version="1.0" encoding="utf-8"?>
<svg version="1.1" xmlns:xlink="http://www.w3.org/1999/xlink" width="20px" height="20px" xmlns="http://www.w3.org/2000/svg">
  <g transform="matrix(1 0 0 1 -1208 -3 )">
    <path d="M 15.5859375 11.419270833333336  C 15.750868055555555 11.254340277777777  15.833333333333332 11.059027777777777  15.833333333333332 10.833333333333336  L 15.833333333333332 9.166666666666668  C 15.833333333333332 8.940972222222221  15.750868055555555 8.745659722222221  15.5859375 8.580729166666668  C 15.421006944444446 8.41579861111111  15.225694444444446 8.333333333333332  15 8.333333333333332  L 5 8.333333333333332  C 4.774305555555555 8.333333333333332  4.578993055555555 8.41579861111111  4.4140625 8.580729166666668  C 4.249131944444445 8.745659722222221  4.166666666666667 8.940972222222221  4.166666666666667 9.166666666666668  L 4.166666666666667 10.833333333333336  C 4.166666666666667 11.059027777777777  4.249131944444445 11.254340277777777  4.4140625 11.419270833333336  C 4.578993055555555 11.58420138888889  4.774305555555555 11.666666666666664  5 11.666666666666664  L 15 11.666666666666664  C 15.225694444444446 11.666666666666664  15.421006944444446 11.58420138888889  15.5859375 11.419270833333336  Z M 18.658854166666668 4.98046875  C 19.552951388888886 6.512586805555554  20 8.185763888888886  20 10  C 20 11.81423611111111  19.552951388888886 13.487413194444443  18.658854166666668 15.01953125  C 17.764756944444446 16.551649305555557  16.551649305555557 17.764756944444443  15.01953125 18.658854166666668  C 13.487413194444446 19.55295138888889  11.81423611111111 20  10 20  C 8.18576388888889 20  6.512586805555555 19.55295138888889  4.98046875 18.658854166666668  C 3.4483506944444446 17.764756944444443  2.235243055555556 16.551649305555557  1.3411458333333335 15.01953125  C 0.44704861111111105 13.487413194444443  0 11.81423611111111  0 10  C 0 8.185763888888886  0.44704861111111105 6.512586805555554  1.3411458333333335 4.98046875  C 2.235243055555556 3.448350694444444  3.4483506944444446 2.2352430555555536  4.98046875 1.3411458333333326  C 6.512586805555555 0.4470486111111094  8.18576388888889 0  10 0  C 11.81423611111111 0  13.487413194444446 0.4470486111111094  15.01953125 1.3411458333333326  C 16.551649305555557 2.2352430555555536  17.764756944444446 3.448350694444444  18.658854166666668 4.98046875  Z " fill-rule="nonzero" fill="#d9001b" stroke="none" transform="matrix(1 0 0 1 1208 3 )" />
  </g>
</svg>