<?xml version="1.0" encoding="utf-8"?>
<svg version="1.1" xmlns:xlink="http://www.w3.org/1999/xlink" width="19px" height="19px" viewBox="354 620  19 19" xmlns="http://www.w3.org/2000/svg">
  <path d="M 363.5 620  C 368.82 620  373 624.18  373 629.5  C 373 634.82  368.82 639  363.5 639  C 358.18 639  354 634.82  354 629.5  C 354 624.18  358.18 620  363.5 620  Z " fill-rule="nonzero" fill="#ffffff" stroke="none" />
  <path d="M 363.5 620.5  C 368.54 620.5  372.5 624.46  372.5 629.5  C 372.5 634.54  368.54 638.5  363.5 638.5  C 358.46 638.5  354.5 634.54  354.5 629.5  C 354.5 624.46  358.46 620.5  363.5 620.5  Z " stroke-width="1" stroke="#f59a23" fill="none" />
  <path d="M 363.5 634.25  C 360.84 634.25  358.75 632.16  358.75 629.5  C 358.75 626.84  360.84 624.75  363.5 624.75  C 366.16 624.75  368.25 626.84  368.25 629.5  C 368.25 632.16  366.16 634.25  363.5 634.25  " fill-rule="nonzero" fill="#f59a23" stroke="none" />
</svg>