<?xml version="1.0" encoding="utf-8"?>
<svg version="1.1" xmlns:xlink="http://www.w3.org/1999/xlink" width="19px" height="19px" viewBox="207 620  19 19" xmlns="http://www.w3.org/2000/svg">
  <path d="M 216.5 620  C 221.82 620  226 624.18  226 629.5  C 226 634.82  221.82 639  216.5 639  C 211.18 639  207 634.82  207 629.5  C 207 624.18  211.18 620  216.5 620  Z " fill-rule="nonzero" fill="#ffffff" stroke="none" />
  <path d="M 216.5 620.5  C 221.54 620.5  225.5 624.46  225.5 629.5  C 225.5 634.54  221.54 638.5  216.5 638.5  C 211.46 638.5  207.5 634.54  207.5 629.5  C 207.5 624.46  211.46 620.5  216.5 620.5  Z " stroke-width="1" stroke="#f59a23" fill="none" />
  <path d="M 216.5 634.25  C 213.84 634.25  211.75 632.16  211.75 629.5  C 211.75 626.84  213.84 624.75  216.5 624.75  C 219.16 624.75  221.25 626.84  221.25 629.5  C 221.25 632.16  219.16 634.25  216.5 634.25  " fill-rule="nonzero" fill="#f59a23" stroke="none" />
</svg>