<?xml version="1.0" encoding="utf-8"?>
<svg version="1.1" xmlns:xlink="http://www.w3.org/1999/xlink" width="19px" height="19px" viewBox="354 1043  19 19" xmlns="http://www.w3.org/2000/svg">
  <path d="M 363.5 1043  C 368.82 1043  373 1047.18  373 1052.5  C 373 1057.82  368.82 1062  363.5 1062  C 358.18 1062  354 1057.82  354 1052.5  C 354 1047.18  358.18 1043  363.5 1043  Z " fill-rule="nonzero" fill="#ffffff" stroke="none" />
  <path d="M 363.5 1043.5  C 368.54 1043.5  372.5 1047.46  372.5 1052.5  C 372.5 1057.54  368.54 1061.5  363.5 1061.5  C 358.46 1061.5  354.5 1057.54  354.5 1052.5  C 354.5 1047.46  358.46 1043.5  363.5 1043.5  Z " stroke-width="1" stroke="#f59a23" fill="none" />
  <path d="M 363.5 1057.25  C 360.84 1057.25  358.75 1055.16  358.75 1052.5  C 358.75 1049.84  360.84 1047.75  363.5 1047.75  C 366.16 1047.75  368.25 1049.84  368.25 1052.5  C 368.25 1055.16  366.16 1057.25  363.5 1057.25  " fill-rule="nonzero" fill="#f59a23" stroke="none" />
</svg>