<?xml version="1.0" encoding="utf-8"?>
<svg version="1.1" xmlns:xlink="http://www.w3.org/1999/xlink" width="19px" height="19px" viewBox="238 344.5  19 19" xmlns="http://www.w3.org/2000/svg">
  <path d="M 247.5 344.5  C 252.82 344.5  257 348.68  257 354  C 257 359.32  252.82 363.5  247.5 363.5  C 242.18 363.5  238 359.32  238 354  C 238 348.68  242.18 344.5  247.5 344.5  Z " fill-rule="nonzero" fill="#f0f0f0" stroke="none" />
  <path d="M 247.5 345  C 252.54 345  256.5 348.96  256.5 354  C 256.5 359.04  252.54 363  247.5 363  C 242.46 363  238.5 359.04  238.5 354  C 238.5 348.96  242.46 345  247.5 345  Z " stroke-width="1" stroke="#f59a23" fill="none" />
  <path d="M 247.5 358.75  C 244.84 358.75  242.75 356.66  242.75 354  C 242.75 351.34  244.84 349.25  247.5 349.25  C 250.16 349.25  252.25 351.34  252.25 354  C 252.25 356.66  250.16 358.75  247.5 358.75  " fill-rule="nonzero" fill="#f59a23" stroke="none" />
</svg>