<?xml version="1.0" encoding="utf-8"?>
<svg version="1.1" xmlns:xlink="http://www.w3.org/1999/xlink" width="19px" height="19px" viewBox="386 344.5  19 19" xmlns="http://www.w3.org/2000/svg">
  <path d="M 395.5 344.5  C 400.82 344.5  405 348.68  405 354  C 405 359.32  400.82 363.5  395.5 363.5  C 390.18 363.5  386 359.32  386 354  C 386 348.68  390.18 344.5  395.5 344.5  Z " fill-rule="nonzero" fill="#ffffff" stroke="none" />
  <path d="M 395.5 345  C 400.54 345  404.5 348.96  404.5 354  C 404.5 359.04  400.54 363  395.5 363  C 390.46 363  386.5 359.04  386.5 354  C 386.5 348.96  390.46 345  395.5 345  Z " stroke-width="1" stroke="#f59a23" fill="none" />
  <path d="M 395.5 358.75  C 392.84 358.75  390.75 356.66  390.75 354  C 390.75 351.34  392.84 349.25  395.5 349.25  C 398.16 349.25  400.25 351.34  400.25 354  C 400.25 356.66  398.16 358.75  395.5 358.75  " fill-rule="nonzero" fill="#f59a23" stroke="none" />
</svg>