<?xml version="1.0" encoding="utf-8"?>
<svg version="1.1" xmlns:xlink="http://www.w3.org/1999/xlink" width="110px" height="63px" xmlns="http://www.w3.org/2000/svg">
  <defs>
    <mask fill="white" id="clip58">
      <path d="M 24.04885826678723 63  C 24.04885826678723 63  0 33.12063485577183  0 33.12063485577183  C 15.31989649258322 20.782686221258686  32.91918333719702 11.583944652353193  51.79301652351667 6.049619574242081  C 70.66684970983631 0.515294496130971  90.44560063367594 -1.2462307255805416  110 0.8656186968351935  C 110 0.8656186968351935  105.88363299874482 39.003799965676876  105.88363299874482 39.003799965676876  C 91.33609022350811 37.432684296703194  76.62163627026365 38.74317557307928  62.58040164881447 42.86045030759943  C 48.539167027365316 46.97772504211958  35.44613363471196 53.82115303043666  24.04885826678723 63  Z " fill-rule="evenodd" />
    </mask>
  </defs>
  <g transform="matrix(1 0 0 1 -363 -605 )">
    <path d="M 24.04885826678723 63  C 24.04885826678723 63  0 33.12063485577183  0 33.12063485577183  C 15.31989649258322 20.782686221258686  32.91918333719702 11.583944652353193  51.79301652351667 6.049619574242081  C 70.66684970983631 0.515294496130971  90.44560063367594 -1.2462307255805416  110 0.8656186968351935  C 110 0.8656186968351935  105.88363299874482 39.003799965676876  105.88363299874482 39.003799965676876  C 91.33609022350811 37.432684296703194  76.62163627026365 38.74317557307928  62.58040164881447 42.86045030759943  C 48.539167027365316 46.97772504211958  35.44613363471196 53.82115303043666  24.04885826678723 63  Z " fill-rule="nonzero" fill="#fc9a8d" stroke="none" transform="matrix(1 0 0 1 363 605 )" />
    <path d="M 24.04885826678723 63  C 24.04885826678723 63  0 33.12063485577183  0 33.12063485577183  C 15.31989649258322 20.782686221258686  32.91918333719702 11.583944652353193  51.79301652351667 6.049619574242081  C 70.66684970983631 0.515294496130971  90.44560063367594 -1.2462307255805416  110 0.8656186968351935  C 110 0.8656186968351935  105.88363299874482 39.003799965676876  105.88363299874482 39.003799965676876  C 91.33609022350811 37.432684296703194  76.62163627026365 38.74317557307928  62.58040164881447 42.86045030759943  C 48.539167027365316 46.97772504211958  35.44613363471196 53.82115303043666  24.04885826678723 63  Z " stroke-width="4" stroke="#ffffff" fill="none" transform="matrix(1 0 0 1 363 605 )" mask="url(#clip58)" />
  </g>
</svg>