<?xml version="1.0" encoding="utf-8"?>
<svg version="1.1" xmlns:xlink="http://www.w3.org/1999/xlink" width="267px" height="279px" xmlns="http://www.w3.org/2000/svg">
  <defs>
    <mask fill="white" id="clip62">
      <path d="M 174.35130680146148 32.731237041267015  C 174.35130680146148 32.731237041267015  193.95848425429602 0  193.95848425429602 0  C 212.78801137955028 11.272000458808272  228.91799736557672 26.531763192517154  241.21359540289933 44.705674877947686  C 253.5091934402219 62.879586563378226  261.67170740655126 83.52614541238268  265.12685773713616 105.19274308215131  C 268.58200806772106 126.85934075191996  267.2458724607077 149.01962465459349  261.2124268182368 170.11449237354438  C 255.1789811757659 191.20936009249533  244.59479394431173 210.72634243166195  230.2045602329592 227.29231446872137  C 215.81432652160663 243.85828650578082  197.96761976318805 257.070819865878  177.92004743930644 266.00030298865954  C 157.87247511542486 274.9297861114411  136.11106143445127 279.3592878674273  114.16685502098805 278.9772091645583  C 92.22264860752483 278.59513046168934  70.62874526977599 273.4107337763644  50.90439519233774 263.78876708143736  C 31.180045114899475 254.16680038651037  13.804421204921297 240.34103201611194  0 223.28415195204306  C 0 223.28415195204306  29.66973783075799 199.28801431832207  29.66973783075799 199.28801431832207  C 39.96702069471926 212.0114392796272  52.92821062040234 222.3246594029552  67.64140967514159 229.50207843431403  C 82.35460872988085 236.67949746567285  98.46238262932293 240.54675816266726  114.83146418352966 240.8317662859142  C 131.20054573773638 241.11677440916117  147.43327384581733 237.81260783431546  162.38757785175233 231.15174081603266  C 177.34188185768735 224.49087379774986  190.65447505358753 214.63511200697957  201.38873951155347 202.27787558630826  C 212.1230039695194 189.9206391656369  220.01816112137888 175.36212424122803  224.5187550427012 159.62659899883437  C 229.01934896402355 143.89107375644068  230.01603994710007 127.3608097801717  227.43870181398174 111.19880797450384  C 224.86136368086343 95.03680616883597  218.77261010515258 79.63569003764637  209.60082048733398 66.07902575513107  C 200.42903086951537 52.52236147261577  188.39702109847872 41.13948386670251  174.35130680146148 32.731237041267015  Z " fill-rule="evenodd" />
    </mask>
  </defs>
  <g transform="matrix(1 0 0 1 -340 -626 )">
    <path d="M 174.35130680146148 32.731237041267015  C 174.35130680146148 32.731237041267015  193.95848425429602 0  193.95848425429602 0  C 212.78801137955028 11.272000458808272  228.91799736557672 26.531763192517154  241.21359540289933 44.705674877947686  C 253.5091934402219 62.879586563378226  261.67170740655126 83.52614541238268  265.12685773713616 105.19274308215131  C 268.58200806772106 126.85934075191996  267.2458724607077 149.01962465459349  261.2124268182368 170.11449237354438  C 255.1789811757659 191.20936009249533  244.59479394431173 210.72634243166195  230.2045602329592 227.29231446872137  C 215.81432652160663 243.85828650578082  197.96761976318805 257.070819865878  177.92004743930644 266.00030298865954  C 157.87247511542486 274.9297861114411  136.11106143445127 279.3592878674273  114.16685502098805 278.9772091645583  C 92.22264860752483 278.59513046168934  70.62874526977599 273.4107337763644  50.90439519233774 263.78876708143736  C 31.180045114899475 254.16680038651037  13.804421204921297 240.34103201611194  0 223.28415195204306  C 0 223.28415195204306  29.66973783075799 199.28801431832207  29.66973783075799 199.28801431832207  C 39.96702069471926 212.0114392796272  52.92821062040234 222.3246594029552  67.64140967514159 229.50207843431403  C 82.35460872988085 236.67949746567285  98.46238262932293 240.54675816266726  114.83146418352966 240.8317662859142  C 131.20054573773638 241.11677440916117  147.43327384581733 237.81260783431546  162.38757785175233 231.15174081603266  C 177.34188185768735 224.49087379774986  190.65447505358753 214.63511200697957  201.38873951155347 202.27787558630826  C 212.1230039695194 189.9206391656369  220.01816112137888 175.36212424122803  224.5187550427012 159.62659899883437  C 229.01934896402355 143.89107375644068  230.01603994710007 127.3608097801717  227.43870181398174 111.19880797450384  C 224.86136368086343 95.03680616883597  218.77261010515258 79.63569003764637  209.60082048733398 66.07902575513107  C 200.42903086951537 52.52236147261577  188.39702109847872 41.13948386670251  174.35130680146148 32.731237041267015  Z " fill-rule="nonzero" fill="#6eae7d" stroke="none" transform="matrix(1 0 0 1 340 626 )" />
    <path d="M 174.35130680146148 32.731237041267015  C 174.35130680146148 32.731237041267015  193.95848425429602 0  193.95848425429602 0  C 212.78801137955028 11.272000458808272  228.91799736557672 26.531763192517154  241.21359540289933 44.705674877947686  C 253.5091934402219 62.879586563378226  261.67170740655126 83.52614541238268  265.12685773713616 105.19274308215131  C 268.58200806772106 126.85934075191996  267.2458724607077 149.01962465459349  261.2124268182368 170.11449237354438  C 255.1789811757659 191.20936009249533  244.59479394431173 210.72634243166195  230.2045602329592 227.29231446872137  C 215.81432652160663 243.85828650578082  197.96761976318805 257.070819865878  177.92004743930644 266.00030298865954  C 157.87247511542486 274.9297861114411  136.11106143445127 279.3592878674273  114.16685502098805 278.9772091645583  C 92.22264860752483 278.59513046168934  70.62874526977599 273.4107337763644  50.90439519233774 263.78876708143736  C 31.180045114899475 254.16680038651037  13.804421204921297 240.34103201611194  0 223.28415195204306  C 0 223.28415195204306  29.66973783075799 199.28801431832207  29.66973783075799 199.28801431832207  C 39.96702069471926 212.0114392796272  52.92821062040234 222.3246594029552  67.64140967514159 229.50207843431403  C 82.35460872988085 236.67949746567285  98.46238262932293 240.54675816266726  114.83146418352966 240.8317662859142  C 131.20054573773638 241.11677440916117  147.43327384581733 237.81260783431546  162.38757785175233 231.15174081603266  C 177.34188185768735 224.49087379774986  190.65447505358753 214.63511200697957  201.38873951155347 202.27787558630826  C 212.1230039695194 189.9206391656369  220.01816112137888 175.36212424122803  224.5187550427012 159.62659899883437  C 229.01934896402355 143.89107375644068  230.01603994710007 127.3608097801717  227.43870181398174 111.19880797450384  C 224.86136368086343 95.03680616883597  218.77261010515258 79.63569003764637  209.60082048733398 66.07902575513107  C 200.42903086951537 52.52236147261577  188.39702109847872 41.13948386670251  174.35130680146148 32.731237041267015  Z " stroke-width="4" stroke="#ffffff" fill="none" transform="matrix(1 0 0 1 340 626 )" mask="url(#clip62)" />
  </g>
</svg>