<?xml version="1.0" encoding="utf-8"?>
<svg version="1.1" xmlns:xlink="http://www.w3.org/1999/xlink" width="113px" height="57px" xmlns="http://www.w3.org/2000/svg">
  <defs>
    <mask fill="white" id="clip60">
      <path d="M 7.812082454545331 40.93411982812758  C 7.812082454545331 40.93411982812758  0 3.13876248519196  0 3.13876248519196  C 19.32642468468444 -0.8799483526225819  39.252776660157046 -1.0412436684515756  58.64135059600929 2.664084968685714  C 78.02992453186154 6.369413605823004  96.50101284050429 13.868800464230075  113 24.734065957485285  C 113 24.734065957485285  91.87871434019729 57  91.87871434019729 57  C 79.60425156170123 48.916759386739244  65.86263740536477 43.33757276536838  51.43845984274118 40.58098435573152  C 37.014282280117605 37.82439594609467  22.19002345003097 37.94439007901498  7.812082454545331 40.93411982812758  Z " fill-rule="evenodd" />
    </mask>
  </defs>
  <g transform="matrix(1 0 0 1 -427 -605 )">
    <path d="M 7.812082454545331 40.93411982812758  C 7.812082454545331 40.93411982812758  0 3.13876248519196  0 3.13876248519196  C 19.32642468468444 -0.8799483526225819  39.252776660157046 -1.0412436684515756  58.64135059600929 2.664084968685714  C 78.02992453186154 6.369413605823004  96.50101284050429 13.868800464230075  113 24.734065957485285  C 113 24.734065957485285  91.87871434019729 57  91.87871434019729 57  C 79.60425156170123 48.916759386739244  65.86263740536477 43.33757276536838  51.43845984274118 40.58098435573152  C 37.014282280117605 37.82439594609467  22.19002345003097 37.94439007901498  7.812082454545331 40.93411982812758  Z " fill-rule="nonzero" fill="#ec7b6b" stroke="none" transform="matrix(1 0 0 1 427 605 )" />
    <path d="M 7.812082454545331 40.93411982812758  C 7.812082454545331 40.93411982812758  0 3.13876248519196  0 3.13876248519196  C 19.32642468468444 -0.8799483526225819  39.252776660157046 -1.0412436684515756  58.64135059600929 2.664084968685714  C 78.02992453186154 6.369413605823004  96.50101284050429 13.868800464230075  113 24.734065957485285  C 113 24.734065957485285  91.87871434019729 57  91.87871434019729 57  C 79.60425156170123 48.916759386739244  65.86263740536477 43.33757276536838  51.43845984274118 40.58098435573152  C 37.014282280117605 37.82439594609467  22.19002345003097 37.94439007901498  7.812082454545331 40.93411982812758  Z " stroke-width="4" stroke="#ffffff" fill="none" transform="matrix(1 0 0 1 427 605 )" mask="url(#clip60)" />
  </g>
</svg>