<?xml version="1.0" encoding="utf-8"?>
<svg version="1.1" xmlns:xlink="http://www.w3.org/1999/xlink" width="149px" height="290px" xmlns="http://www.w3.org/2000/svg">
  <defs>
    <mask fill="white" id="clip62">
      <path d="M 0 38.95225704347419  C 0 38.95225704347419  0.49996899636097786 0  0.49996899636097786 0  C 35.36605315224705 0.44627359667976085  68.99401282225531 12.974226202496137  95.63332185999127 35.441526568265175  C 122.27263089772725 57.90882693403422  140.26855914875674 88.91989251933157  146.5437249305081 123.17169466106557  C 152.81889071225947 157.42349680279958  146.98349564622083 192.78845012334685  130.03543589426678 223.21899403454006  C 113.08737614231269 253.6495379457333  86.0793918228776 277.25544199032373  53.629959722512794 290  C 53.629959722512794 290  39.351985213247104 253.74762104755754  39.351985213247104 253.74762104755754  C 63.38642523134713 244.30806281324564  83.39052560806832 226.82378859480662  95.94350711836528 204.2846862511059  C 108.49648862866223 181.74558390740523  112.81860920818336 155.5516889074426  108.17075931008841 130.18228040031818  C 103.52290941199345 104.8128718931937  90.1937994011552 81.84379967068884  70.46276590830374 65.20286313845911  C 50.731732415452285 48.5619266062294  25.824389216481947 39.28280014071694  0 38.95225704347419  Z " fill-rule="evenodd" />
    </mask>
  </defs>
  <g transform="matrix(1 0 0 1 -458 -605 )">
    <path d="M 0 38.95225704347419  C 0 38.95225704347419  0.49996899636097786 0  0.49996899636097786 0  C 35.36605315224705 0.44627359667976085  68.99401282225531 12.974226202496137  95.63332185999127 35.441526568265175  C 122.27263089772725 57.90882693403422  140.26855914875674 88.91989251933157  146.5437249305081 123.17169466106557  C 152.81889071225947 157.42349680279958  146.98349564622083 192.78845012334685  130.03543589426678 223.21899403454006  C 113.08737614231269 253.6495379457333  86.0793918228776 277.25544199032373  53.629959722512794 290  C 53.629959722512794 290  39.351985213247104 253.74762104755754  39.351985213247104 253.74762104755754  C 63.38642523134713 244.30806281324564  83.39052560806832 226.82378859480662  95.94350711836528 204.2846862511059  C 108.49648862866223 181.74558390740523  112.81860920818336 155.5516889074426  108.17075931008841 130.18228040031818  C 103.52290941199345 104.8128718931937  90.1937994011552 81.84379967068884  70.46276590830374 65.20286313845911  C 50.731732415452285 48.5619266062294  25.824389216481947 39.28280014071694  0 38.95225704347419  Z " fill-rule="nonzero" fill="#4a8056" stroke="none" transform="matrix(1 0 0 1 458 605 )" />
    <path d="M 0 38.95225704347419  C 0 38.95225704347419  0.49996899636097786 0  0.49996899636097786 0  C 35.36605315224705 0.44627359667976085  68.99401282225531 12.974226202496137  95.63332185999127 35.441526568265175  C 122.27263089772725 57.90882693403422  140.26855914875674 88.91989251933157  146.5437249305081 123.17169466106557  C 152.81889071225947 157.42349680279958  146.98349564622083 192.78845012334685  130.03543589426678 223.21899403454006  C 113.08737614231269 253.6495379457333  86.0793918228776 277.25544199032373  53.629959722512794 290  C 53.629959722512794 290  39.351985213247104 253.74762104755754  39.351985213247104 253.74762104755754  C 63.38642523134713 244.30806281324564  83.39052560806832 226.82378859480662  95.94350711836528 204.2846862511059  C 108.49648862866223 181.74558390740523  112.81860920818336 155.5516889074426  108.17075931008841 130.18228040031818  C 103.52290941199345 104.8128718931937  90.1937994011552 81.84379967068884  70.46276590830374 65.20286313845911  C 50.731732415452285 48.5619266062294  25.824389216481947 39.28280014071694  0 38.95225704347419  Z " stroke-width="4" stroke="#ffffff" fill="none" transform="matrix(1 0 0 1 458 605 )" mask="url(#clip62)" />
  </g>
</svg>