<?xml version="1.0" encoding="utf-8"?>
<svg version="1.1" xmlns:xlink="http://www.w3.org/1999/xlink" width="300px" height="188px" xmlns="http://www.w3.org/2000/svg">
  <defs>
    <mask fill="white" id="clip60">
      <path d="M 261.2502274771203 27.918200209991326  C 261.2502274771203 27.918200209991326  299.3554552141418 24.380204954647997  299.3554552141418 24.380204954647997  C 301.3849010370261 46.16582597750575  298.60799308444126 68.13079511973541  291.2200799559826 88.72975341171086  C 283.83216682752396 109.32871170368634  272.01271743328704 128.0612512723371  256.59333723202076 143.60940964692838  C 241.1739570307545 159.15756802151967  222.529232272221 171.14362507254003  201.97089025262702 178.724319695673  C 181.412548233033 186.305014318806  159.44003219926557 189.29618148917447  137.59924945011315 187.48735700843224  C 115.75846670096074 185.67853252769  94.57999140749364 179.11365847498456  75.55385656241357 168.25463044815922  C 56.5277217173335 157.39560242133388  40.116136288523485 142.50622296612832  27.47374438478641 124.63402520706218  C 14.831352481049336 106.76182744799604  6.265282307752716 86.34100052327673  2.378206775735991 64.80826210055179  C -1.5088687562807335 43.275523677826826  -0.6225197809729744 21.153974342748047  4.974893627426198 0  C 4.974893627426198 0  41.97531162458183 9.75814536802852  41.97531162458183 9.75814536802852  C 37.80597262096061 25.515082410819723  37.1457589020736 41.992731817348705  40.04112033587982 58.03179825858557  C 42.93648176968605 74.07086469982244  49.31708196012089 89.28170378031388  58.73400628584513 102.59414678747137  C 68.15093061156938 115.90658979462887  80.37540673773752 126.99724058219358  94.54738232706475 135.0857925908616  C 108.71935791639197 143.1743445995296  124.4945417697837 148.06429319567243  140.7630607469957 149.4116301618074  C 157.03157972420772 150.75896712794238  173.39822062030632 148.53094774144265  188.71148922976576 142.88432440176052  C 204.0247578392252 137.2377010620784  217.91265373206414 128.30965911899256  229.39806985472694 116.72832019415529  C 240.8834859773897 105.146981269318  249.68740889471397 91.19370215214371  255.19043535128216 75.85017901444739  C 260.6934618078503 60.50665587675107  262.7618984123419 44.14563092281936  261.2502274771203 27.918200209991326  Z " fill-rule="evenodd" />
    </mask>
  </defs>
  <g transform="matrix(1 0 0 1 -307 -717 )">
    <path d="M 261.2502274771203 27.918200209991326  C 261.2502274771203 27.918200209991326  299.3554552141418 24.380204954647997  299.3554552141418 24.380204954647997  C 301.3849010370261 46.16582597750575  298.60799308444126 68.13079511973541  291.2200799559826 88.72975341171086  C 283.83216682752396 109.32871170368634  272.01271743328704 128.0612512723371  256.59333723202076 143.60940964692838  C 241.1739570307545 159.15756802151967  222.529232272221 171.14362507254003  201.97089025262702 178.724319695673  C 181.412548233033 186.305014318806  159.44003219926557 189.29618148917447  137.59924945011315 187.48735700843224  C 115.75846670096074 185.67853252769  94.57999140749364 179.11365847498456  75.55385656241357 168.25463044815922  C 56.5277217173335 157.39560242133388  40.116136288523485 142.50622296612832  27.47374438478641 124.63402520706218  C 14.831352481049336 106.76182744799604  6.265282307752716 86.34100052327673  2.378206775735991 64.80826210055179  C -1.5088687562807335 43.275523677826826  -0.6225197809729744 21.153974342748047  4.974893627426198 0  C 4.974893627426198 0  41.97531162458183 9.75814536802852  41.97531162458183 9.75814536802852  C 37.80597262096061 25.515082410819723  37.1457589020736 41.992731817348705  40.04112033587982 58.03179825858557  C 42.93648176968605 74.07086469982244  49.31708196012089 89.28170378031388  58.73400628584513 102.59414678747137  C 68.15093061156938 115.90658979462887  80.37540673773752 126.99724058219358  94.54738232706475 135.0857925908616  C 108.71935791639197 143.1743445995296  124.4945417697837 148.06429319567243  140.7630607469957 149.4116301618074  C 157.03157972420772 150.75896712794238  173.39822062030632 148.53094774144265  188.71148922976576 142.88432440176052  C 204.0247578392252 137.2377010620784  217.91265373206414 128.30965911899256  229.39806985472694 116.72832019415529  C 240.8834859773897 105.146981269318  249.68740889471397 91.19370215214371  255.19043535128216 75.85017901444739  C 260.6934618078503 60.50665587675107  262.7618984123419 44.14563092281936  261.2502274771203 27.918200209991326  Z " fill-rule="nonzero" fill="#8ed29d" stroke="none" transform="matrix(1 0 0 1 307 717 )" />
    <path d="M 261.2502274771203 27.918200209991326  C 261.2502274771203 27.918200209991326  299.3554552141418 24.380204954647997  299.3554552141418 24.380204954647997  C 301.3849010370261 46.16582597750575  298.60799308444126 68.13079511973541  291.2200799559826 88.72975341171086  C 283.83216682752396 109.32871170368634  272.01271743328704 128.0612512723371  256.59333723202076 143.60940964692838  C 241.1739570307545 159.15756802151967  222.529232272221 171.14362507254003  201.97089025262702 178.724319695673  C 181.412548233033 186.305014318806  159.44003219926557 189.29618148917447  137.59924945011315 187.48735700843224  C 115.75846670096074 185.67853252769  94.57999140749364 179.11365847498456  75.55385656241357 168.25463044815922  C 56.5277217173335 157.39560242133388  40.116136288523485 142.50622296612832  27.47374438478641 124.63402520706218  C 14.831352481049336 106.76182744799604  6.265282307752716 86.34100052327673  2.378206775735991 64.80826210055179  C -1.5088687562807335 43.275523677826826  -0.6225197809729744 21.153974342748047  4.974893627426198 0  C 4.974893627426198 0  41.97531162458183 9.75814536802852  41.97531162458183 9.75814536802852  C 37.80597262096061 25.515082410819723  37.1457589020736 41.992731817348705  40.04112033587982 58.03179825858557  C 42.93648176968605 74.07086469982244  49.31708196012089 89.28170378031388  58.73400628584513 102.59414678747137  C 68.15093061156938 115.90658979462887  80.37540673773752 126.99724058219358  94.54738232706475 135.0857925908616  C 108.71935791639197 143.1743445995296  124.4945417697837 148.06429319567243  140.7630607469957 149.4116301618074  C 157.03157972420772 150.75896712794238  173.39822062030632 148.53094774144265  188.71148922976576 142.88432440176052  C 204.0247578392252 137.2377010620784  217.91265373206414 128.30965911899256  229.39806985472694 116.72832019415529  C 240.8834859773897 105.146981269318  249.68740889471397 91.19370215214371  255.19043535128216 75.85017901444739  C 260.6934618078503 60.50665587675107  262.7618984123419 44.14563092281936  261.2502274771203 27.918200209991326  Z " stroke-width="4" stroke="#ffffff" fill="none" transform="matrix(1 0 0 1 307 717 )" mask="url(#clip60)" />
  </g>
</svg>