<?xml version="1.0" encoding="utf-8"?>
<svg version="1.1" xmlns:xlink="http://www.w3.org/1999/xlink" width="87px" height="102px" xmlns="http://www.w3.org/2000/svg">
  <defs>
    <mask fill="white" id="clip58">
      <path d="M 37.44596683539316 102  C 37.44596683539316 102  0 93.40562483498182  0 93.40562483498182  C 4.415357114858621 74.23278923878384  12.57024746127626 56.11588972723765  23.99906299844182 40.08932560879013  C 35.42787853560738 24.062761490342627  49.906802117003984 10.44039353027195  66.60914243081368 0  C 66.60914243081368 0  87 32.51065001929443  87 32.51065001929443  C 74.57425202980832 40.27780667358897  63.802627662269565 50.41220080935069  55.30013185237059 62.33520269309665  C 46.79763604247162 74.25820457684262  40.73078260577325 87.73632126246522  37.44596683539316 102  Z " fill-rule="evenodd" />
    </mask>
  </defs>
  <g transform="matrix(1 0 0 1 -311 -628 )">
    <path d="M 37.44596683539316 102  C 37.44596683539316 102  0 93.40562483498182  0 93.40562483498182  C 4.415357114858621 74.23278923878384  12.57024746127626 56.11588972723765  23.99906299844182 40.08932560879013  C 35.42787853560738 24.062761490342627  49.906802117003984 10.44039353027195  66.60914243081368 0  C 66.60914243081368 0  87 32.51065001929443  87 32.51065001929443  C 74.57425202980832 40.27780667358897  63.802627662269565 50.41220080935069  55.30013185237059 62.33520269309665  C 46.79763604247162 74.25820457684262  40.73078260577325 87.73632126246522  37.44596683539316 102  Z " fill-rule="nonzero" fill="#ffc8c0" stroke="none" transform="matrix(1 0 0 1 311 628 )" />
    <path d="M 37.44596683539316 102  C 37.44596683539316 102  0 93.40562483498182  0 93.40562483498182  C 4.415357114858621 74.23278923878384  12.57024746127626 56.11588972723765  23.99906299844182 40.08932560879013  C 35.42787853560738 24.062761490342627  49.906802117003984 10.44039353027195  66.60914243081368 0  C 66.60914243081368 0  87 32.51065001929443  87 32.51065001929443  C 74.57425202980832 40.27780667358897  63.802627662269565 50.41220080935069  55.30013185237059 62.33520269309665  C 46.79763604247162 74.25820457684262  40.73078260577325 87.73632126246522  37.44596683539316 102  Z " stroke-width="4" stroke="#ffffff" fill="none" transform="matrix(1 0 0 1 311 628 )" mask="url(#clip58)" />
  </g>
</svg>