<?xml version="1.0" encoding="utf-8"?>
<svg version="1.1" xmlns:xlink="http://www.w3.org/1999/xlink" width="4px" height="16px" xmlns="http://www.w3.org/2000/svg">
  <g transform="matrix(1 0 0 1 -1450 -410 )">
    <path d="M 3.7083333333333335 11.954545454545453  C 3.9027777777777772 12.166666666666664  4 12.424242424242424  4 12.727272727272727  L 4 14.90909090909091  C 4 15.212121212121213  3.9027777777777772 15.469696969696969  3.7083333333333335 15.681818181818182  C 3.5138888888888893 15.893939393939394  3.277777777777778 16  3 16  L 1 16  C 0.7222222222222223 16  0.48611111111111116 15.893939393939394  0.2916666666666667 15.681818181818182  C 0.09722222222222221 15.469696969696969  0 15.212121212121213  0 14.90909090909091  L 0 12.727272727272727  C 0 12.424242424242424  0.09722222222222221 12.166666666666664  0.2916666666666667 11.954545454545453  C 0.48611111111111116 11.742424242424244  0.7222222222222223 11.636363636363637  1 11.636363636363637  L 3 11.636363636363637  C 3.277777777777778 11.636363636363637  3.5138888888888893 11.742424242424244  3.7083333333333335 11.954545454545453  Z M 3.7083333333333335 6.136363636363637  C 3.9027777777777772 6.348484848484846  4 6.6060606060606055  4 6.909090909090908  L 4 9.09090909090909  C 4 9.393939393939394  3.9027777777777772 9.65151515151515  3.7083333333333335 9.863636363636363  C 3.5138888888888893 10.075757575757574  3.277777777777778 10.181818181818182  3 10.181818181818182  L 1 10.181818181818182  C 0.7222222222222223 10.181818181818182  0.48611111111111116 10.075757575757574  0.2916666666666667 9.863636363636363  C 0.09722222222222221 9.65151515151515  0 9.393939393939394  0 9.09090909090909  L 0 6.909090909090908  C 0 6.6060606060606055  0.09722222222222221 6.348484848484846  0.2916666666666667 6.136363636363637  C 0.48611111111111116 5.924242424242424  0.7222222222222223 5.818181818181818  1 5.818181818181818  L 3 5.818181818181818  C 3.277777777777778 5.818181818181818  3.5138888888888893 5.924242424242424  3.7083333333333335 6.136363636363637  Z M 3.7083333333333335 0.31818181818181834  C 3.9027777777777772 0.5303030303030294  4 0.7878787878787872  4 1.0909090909090917  L 4 3.2727272727272734  C 4 3.5757575757575744  3.9027777777777772 3.833333333333332  3.7083333333333335 4.045454545454545  C 3.5138888888888893 4.257575757575756  3.277777777777778 4.363636363636363  3 4.363636363636363  L 1 4.363636363636363  C 0.7222222222222223 4.363636363636363  0.48611111111111116 4.257575757575756  0.2916666666666667 4.045454545454545  C 0.09722222222222221 3.833333333333332  0 3.5757575757575744  0 3.2727272727272734  L 0 1.0909090909090917  C 0 0.7878787878787872  0.09722222222222221 0.5303030303030294  0.2916666666666667 0.31818181818181834  C 0.48611111111111116 0.10606060606060552  0.7222222222222223 0  1 0  L 3 0  C 3.277777777777778 0  3.5138888888888893 0.10606060606060552  3.7083333333333335 0.31818181818181834  Z " fill-rule="nonzero" fill="#aaaaaa" stroke="none" transform="matrix(1 0 0 1 1450 410 )" />
  </g>
</svg>