<?xml version="1.0" encoding="utf-8"?>
<svg version="1.1" xmlns:xlink="http://www.w3.org/1999/xlink" width="19px" height="19px" viewBox="299 310  19 19" xmlns="http://www.w3.org/2000/svg">
  <path d="M 308.5 310  C 313.82 310  318 314.18  318 319.5  C 318 324.82  313.82 329  308.5 329  C 303.18 329  299 324.82  299 319.5  C 299 314.18  303.18 310  308.5 310  Z " fill-rule="nonzero" fill="#f0f0f0" stroke="none" />
  <path d="M 308.5 310.5  C 313.54 310.5  317.5 314.46  317.5 319.5  C 317.5 324.54  313.54 328.5  308.5 328.5  C 303.46 328.5  299.5 324.54  299.5 319.5  C 299.5 314.46  303.46 310.5  308.5 310.5  Z " stroke-width="1" stroke="#f59a23" fill="none" />
  <path d="M 308.5 324.25  C 305.84 324.25  303.75 322.16  303.75 319.5  C 303.75 316.84  305.84 314.75  308.5 314.75  C 311.16 314.75  313.25 316.84  313.25 319.5  C 313.25 322.16  311.16 324.25  308.5 324.25  " fill-rule="nonzero" fill="#f59a23" stroke="none" />
</svg>