<?xml version="1.0" encoding="utf-8"?>
<svg version="1.1" xmlns:xlink="http://www.w3.org/1999/xlink" width="19px" height="19px" viewBox="396 310  19 19" xmlns="http://www.w3.org/2000/svg">
  <path d="M 405.5 310  C 410.82 310  415 314.18  415 319.5  C 415 324.82  410.82 329  405.5 329  C 400.18 329  396 324.82  396 319.5  C 396 314.18  400.18 310  405.5 310  Z " fill-rule="nonzero" fill="#f0f0f0" stroke="none" />
  <path d="M 405.5 310.5  C 410.54 310.5  414.5 314.46  414.5 319.5  C 414.5 324.54  410.54 328.5  405.5 328.5  C 400.46 328.5  396.5 324.54  396.5 319.5  C 396.5 314.46  400.46 310.5  405.5 310.5  Z " stroke-width="1" stroke="#f59a23" fill="none" />
  <path d="M 405.5 324.25  C 402.84 324.25  400.75 322.16  400.75 319.5  C 400.75 316.84  402.84 314.75  405.5 314.75  C 408.16 314.75  410.25 316.84  410.25 319.5  C 410.25 322.16  408.16 324.25  405.5 324.25  " fill-rule="nonzero" fill="#f59a23" stroke="none" />
</svg>