<?xml version="1.0" encoding="utf-8"?>
<svg version="1.1" xmlns:xlink="http://www.w3.org/1999/xlink" width="19px" height="19px" viewBox="515 310  19 19" xmlns="http://www.w3.org/2000/svg">
  <path d="M 524.5 310  C 529.82 310  534 314.18  534 319.5  C 534 324.82  529.82 329  524.5 329  C 519.18 329  515 324.82  515 319.5  C 515 314.18  519.18 310  524.5 310  Z " fill-rule="nonzero" fill="#ffffff" stroke="none" />
  <path d="M 524.5 310.5  C 529.54 310.5  533.5 314.46  533.5 319.5  C 533.5 324.54  529.54 328.5  524.5 328.5  C 519.46 328.5  515.5 324.54  515.5 319.5  C 515.5 314.46  519.46 310.5  524.5 310.5  Z " stroke-width="1" stroke="#f59a23" fill="none" />
  <path d="M 524.5 324.25  C 521.84 324.25  519.75 322.16  519.75 319.5  C 519.75 316.84  521.84 314.75  524.5 314.75  C 527.16 314.75  529.25 316.84  529.25 319.5  C 529.25 322.16  527.16 324.25  524.5 324.25  " fill-rule="nonzero" fill="#f59a23" stroke="none" />
</svg>