<?xml version="1.0" encoding="utf-8"?>
<svg version="1.1" xmlns:xlink="http://www.w3.org/1999/xlink" width="100px" height="100px" xmlns="http://www.w3.org/2000/svg">
  <g transform="matrix(1 0 0 1 -1231 -753 )">
    <path d="M 67.7734375 19.3359375  C 62.34809027777778 16.16753472222222  56.423611111111114 14.583333333333337  50 14.583333333333337  C 43.57638888888889 14.583333333333337  37.65190972222223 16.16753472222222  32.2265625 19.3359375  C 26.80121527777778 22.504340277777768  22.50434027777778 26.801215277777768  19.3359375 32.2265625  C 16.167534722222225 37.65190972222222  14.583333333333334 43.576388888888886  14.583333333333334 50  C 14.583333333333334 56.423611111111114  16.167534722222225 62.34809027777777  19.3359375 67.7734375  C 22.50434027777778 73.19878472222221  26.80121527777778 77.49565972222221  32.2265625 80.6640625  C 37.65190972222223 83.83246527777779  43.57638888888889 85.41666666666666  50 85.41666666666666  C 56.423611111111114 85.41666666666666  62.34809027777778 83.83246527777779  67.7734375 80.6640625  C 73.19878472222223 77.49565972222221  77.49565972222223 73.19878472222221  80.6640625 67.7734375  C 83.83246527777779 62.34809027777777  85.41666666666666 56.423611111111114  85.41666666666666 50  C 85.41666666666666 43.576388888888886  83.83246527777779 37.65190972222222  80.6640625 32.2265625  C 77.49565972222223 26.801215277777768  73.19878472222223 22.504340277777768  67.7734375 19.3359375  Z M 93.29427083333334 24.90234375  C 97.76475694444443 32.56293402777777  100 40.92881944444443  100 50  C 100 59.07118055555556  97.76475694444443 67.43706597222221  93.29427083333334 75.09765625  C 88.82378472222223 82.75824652777779  82.75824652777779 88.82378472222221  75.09765625 93.29427083333334  C 67.43706597222223 97.76475694444446  59.07118055555556 100  50 100  C 40.92881944444445 100  32.56293402777778 97.76475694444446  24.90234375 93.29427083333334  C 17.241753472222225 88.82378472222221  11.176215277777779 82.75824652777779  6.705729166666667 75.09765625  C 2.2352430555555554 67.43706597222221  0 59.07118055555556  0 50  C 0 40.92881944444443  2.2352430555555554 32.56293402777777  6.705729166666667 24.90234375  C 11.176215277777779 17.24175347222222  17.241753472222225 11.176215277777768  24.90234375 6.7057291666666625  C 32.56293402777778 2.235243055555547  40.92881944444445 0  50 0  C 59.07118055555556 0  67.43706597222223 2.235243055555547  75.09765625 6.7057291666666625  C 82.75824652777779 11.176215277777768  88.82378472222223 17.24175347222222  93.29427083333334 24.90234375  Z " fill-rule="nonzero" fill="#000000" stroke="none" transform="matrix(1 0 0 1 1231 753 )" />
  </g>
</svg>