<?xml version="1.0" encoding="utf-8"?>
<svg version="1.1" xmlns:xlink="http://www.w3.org/1999/xlink" width="32px" height="32px" xmlns="http://www.w3.org/2000/svg">
  <g transform="matrix(1 0 0 1 -937 -614 )">
    <path d="M 24.9375 18.270833333333336  C 25.20138888888889 18.006944444444443  25.333333333333332 17.694444444444443  25.333333333333332 17.333333333333336  L 25.333333333333332 14.666666666666668  C 25.333333333333332 14.305555555555554  25.20138888888889 13.993055555555554  24.9375 13.729166666666668  C 24.673611111111114 13.465277777777779  24.361111111111114 13.333333333333332  24 13.333333333333332  L 8 13.333333333333332  C 7.638888888888889 13.333333333333332  7.326388888888889 13.465277777777779  7.0625 13.729166666666668  C 6.798611111111112 13.993055555555554  6.666666666666667 14.305555555555554  6.666666666666667 14.666666666666668  L 6.666666666666667 17.333333333333336  C 6.666666666666667 17.694444444444443  6.798611111111112 18.006944444444443  7.0625 18.270833333333336  C 7.326388888888889 18.53472222222222  7.638888888888889 18.666666666666664  8 18.666666666666664  L 24 18.666666666666664  C 24.361111111111114 18.666666666666664  24.673611111111114 18.53472222222222  24.9375 18.270833333333336  Z M 29.854166666666668 7.96875  C 31.284722222222218 10.420138888888886  32 13.097222222222218  32 16  C 32 18.90277777777778  31.284722222222218 21.579861111111107  29.854166666666668 24.03125  C 28.423611111111114 26.48263888888889  26.48263888888889 28.42361111111111  24.03125 29.854166666666668  C 21.579861111111114 31.284722222222225  18.90277777777778 32  16 32  C 13.097222222222223 32  10.42013888888889 31.284722222222225  7.96875 29.854166666666668  C 5.517361111111112 28.42361111111111  3.5763888888888893 26.48263888888889  2.1458333333333335 24.03125  C 0.7152777777777777 21.579861111111107  0 18.90277777777778  0 16  C 0 13.097222222222218  0.7152777777777777 10.420138888888886  2.1458333333333335 7.96875  C 3.5763888888888893 5.517361111111111  5.517361111111112 3.5763888888888857  7.96875 2.145833333333332  C 10.42013888888889 0.715277777777775  13.097222222222223 0  16 0  C 18.90277777777778 0  21.579861111111114 0.715277777777775  24.03125 2.145833333333332  C 26.48263888888889 3.5763888888888857  28.423611111111114 5.517361111111111  29.854166666666668 7.96875  Z " fill-rule="nonzero" fill="#d9001b" stroke="none" transform="matrix(1 0 0 1 937 614 )" />
  </g>
</svg>