<?xml version="1.0" encoding="utf-8"?>
<svg version="1.1" xmlns:xlink="http://www.w3.org/1999/xlink" width="18px" height="17px" xmlns="http://www.w3.org/2000/svg">
  <g transform="matrix(1 0 0 1 -944 -579 )">
    <path d="M 17.575757575757574 12.707070707070706  C 17.858585858585858 12.974186307519638  18 13.29854096520763  18 13.68013468013468  C 18 14.061728395061731  17.858585858585858 14.386083052749719  17.575757575757574 14.653198653198652  L 15.515151515151514 16.5993265993266  C 15.232323232323235 16.866442199775534  14.88888888888889 17  14.484848484848484 17  C 14.080808080808083 17  13.737373737373739 16.866442199775534  13.454545454545455 16.5993265993266  L 9 12.392255892255893  L 4.545454545454546 16.5993265993266  C 4.262626262626263 16.866442199775534  3.9191919191919196 17  3.515151515151515 17  C 3.1111111111111116 17  2.767676767676768 16.866442199775534  2.484848484848485 16.5993265993266  L 0.42424242424242425 14.653198653198652  C 0.14141414141414155 14.386083052749719  0 14.061728395061731  0 13.68013468013468  C 0 13.29854096520763  0.14141414141414155 12.974186307519638  0.42424242424242425 12.707070707070706  L 4.878787878787879 8.5  L 0.42424242424242425 4.292929292929292  C 0.14141414141414155 4.025813692480358  0 3.7014590347923684  0 3.31986531986532  C 0 2.9382716049382713  0.14141414141414155 2.613916947250278  0.42424242424242425 2.3468013468013473  L 2.484848484848485 0.40067340067340074  C 2.767676767676768 0.13355780022446628  3.1111111111111116 0  3.515151515151515 0  C 3.9191919191919196 0  4.262626262626263 0.13355780022446628  4.545454545454546 0.40067340067340074  L 9 4.607744107744108  L 13.454545454545455 0.40067340067340074  C 13.737373737373739 0.13355780022446628  14.080808080808083 0  14.484848484848484 0  C 14.88888888888889 0  15.232323232323235 0.13355780022446628  15.515151515151514 0.40067340067340074  L 17.575757575757574 2.3468013468013473  C 17.858585858585858 2.613916947250278  18 2.9382716049382713  18 3.31986531986532  C 18 3.7014590347923684  17.858585858585858 4.025813692480358  17.575757575757574 4.292929292929292  L 13.121212121212121 8.5  L 17.575757575757574 12.707070707070706  Z " fill-rule="nonzero" fill="#ffffff" stroke="none" transform="matrix(1 0 0 1 944 579 )" />
  </g>
</svg>