<?xml version="1.0" encoding="utf-8"?>
<svg version="1.1" xmlns:xlink="http://www.w3.org/1999/xlink" width="32px" height="32px" xmlns="http://www.w3.org/2000/svg">
  <g transform="matrix(1 0 0 1 -983 -571 )">
    <path d="M 23.145833333333332 16.1875  C 23.270833333333332 16.3125  23.333333333333332 16.47222222222222  23.333333333333332 16.666666666666664  C 23.333333333333332 16.833333333333336  23.26388888888889 17  23.125 17.166666666666664  L 16.479166666666668 23.8125  C 16.32638888888889 23.9375  16.166666666666668 24  16 24  C 15.833333333333334 24  15.673611111111112 23.9375  15.520833333333334 23.8125  L 8.854166666666666 17.145833333333336  C 8.645833333333334 16.923611111111107  8.597222222222223 16.680555555555557  8.708333333333334 16.416666666666664  C 8.819444444444445 16.138888888888886  9.027777777777779 16  9.333333333333334 16  L 13.333333333333334 16  L 13.333333333333334 8.666666666666668  C 13.333333333333334 8.472222222222218  13.395833333333334 8.3125  13.520833333333334 8.1875  C 13.645833333333334 8.0625  13.805555555555557 8  14 8  L 18 8  C 18.194444444444446 8  18.354166666666668 8.0625  18.479166666666668 8.1875  C 18.604166666666668 8.3125  18.666666666666668 8.472222222222218  18.666666666666668 8.666666666666668  L 18.666666666666668 16  L 22.666666666666668 16  C 22.861111111111114 16  23.020833333333332 16.0625  23.145833333333332 16.1875  Z M 21.6875 6.1875  C 19.95138888888889 5.173611111111111  18.055555555555557 4.666666666666668  16 4.666666666666668  C 13.944444444444445 4.666666666666668  12.048611111111112 5.173611111111111  10.3125 6.1875  C 8.57638888888889 7.201388888888886  7.201388888888889 8.576388888888886  6.1875 10.3125  C 5.173611111111112 12.04861111111111  4.666666666666667 13.944444444444443  4.666666666666667 16  C 4.666666666666667 18.055555555555557  5.173611111111112 19.951388888888886  6.1875 21.6875  C 7.201388888888889 23.423611111111107  8.57638888888889 24.79861111111111  10.3125 25.8125  C 12.048611111111112 26.82638888888889  13.944444444444445 27.333333333333332  16 27.333333333333332  C 18.055555555555557 27.333333333333332  19.95138888888889 26.82638888888889  21.6875 25.8125  C 23.423611111111114 24.79861111111111  24.798611111111114 23.423611111111107  25.8125 21.6875  C 26.82638888888889 19.951388888888886  27.333333333333332 18.055555555555557  27.333333333333332 16  C 27.333333333333332 13.944444444444443  26.82638888888889 12.04861111111111  25.8125 10.3125  C 24.798611111111114 8.576388888888886  23.423611111111114 7.201388888888886  21.6875 6.1875  Z M 29.854166666666668 7.96875  C 31.284722222222218 10.420138888888886  32 13.097222222222218  32 16  C 32 18.90277777777778  31.284722222222218 21.579861111111107  29.854166666666668 24.03125  C 28.423611111111114 26.48263888888889  26.48263888888889 28.42361111111111  24.03125 29.854166666666668  C 21.579861111111114 31.284722222222225  18.90277777777778 32  16 32  C 13.097222222222223 32  10.42013888888889 31.284722222222225  7.96875 29.854166666666668  C 5.517361111111112 28.42361111111111  3.5763888888888893 26.48263888888889  2.1458333333333335 24.03125  C 0.7152777777777777 21.579861111111107  0 18.90277777777778  0 16  C 0 13.097222222222218  0.7152777777777777 10.420138888888886  2.1458333333333335 7.96875  C 3.5763888888888893 5.517361111111111  5.517361111111112 3.5763888888888857  7.96875 2.145833333333332  C 10.42013888888889 0.715277777777775  13.097222222222223 0  16 0  C 18.90277777777778 0  21.579861111111114 0.715277777777775  24.03125 2.145833333333332  C 26.48263888888889 3.5763888888888857  28.423611111111114 5.517361111111111  29.854166666666668 7.96875  Z " fill-rule="nonzero" fill="#63a103" stroke="none" transform="matrix(1 0 0 1 983 571 )" />
  </g>
</svg>