<?xml version="1.0" encoding="utf-8"?>
<svg version="1.1" xmlns:xlink="http://www.w3.org/1999/xlink" width="14px" height="13px" xmlns="http://www.w3.org/2000/svg">
  <g transform="matrix(1 0 0 1 -960 -699 )">
    <path d="M 13.67003367003367 9.717171717171716  C 13.890011223344557 9.921436588103253  14 10.169472502805835  14 10.461279461279462  C 14 10.753086419753089  13.890011223344557 11.001122334455667  13.67003367003367 11.205387205387204  L 12.067340067340067 12.693602693602694  C 11.847362514029182 12.897867564534232  11.580246913580247 13  11.265993265993266 13  C 10.951739618406286 13  10.684624017957352 12.897867564534232  10.464646464646465 12.693602693602694  L 7 9.476430976430978  L 3.5353535353535355 12.693602693602694  C 3.3153759820426494 12.897867564534232  3.048260381593715 13  2.734006734006734 13  C 2.419753086419753 13  2.1526374859708195 12.897867564534232  1.9326599326599327 12.693602693602694  L 0.32996632996632996 11.205387205387204  C 0.10998877665544343 11.001122334455667  0 10.753086419753089  0 10.461279461279462  C 0 10.169472502805835  0.10998877665544343 9.921436588103253  0.32996632996632996 9.717171717171716  L 3.7946127946127945 6.5  L 0.32996632996632996 3.2828282828282824  C 0.10998877665544343 3.078563411896744  0 2.830527497194164  0 2.538720538720539  C 0 2.2469135802469133  0.10998877665544343 1.9988776655443303  0.32996632996632996 1.794612794612795  L 1.9326599326599327 0.30639730639730645  C 2.1526374859708195 0.10213243546576833  2.419753086419753 0  2.734006734006734 0  C 3.048260381593715 0  3.3153759820426494 0.10213243546576833  3.5353535353535355 0.30639730639730645  L 7 3.5235690235690242  L 10.464646464646465 0.30639730639730645  C 10.684624017957352 0.10213243546576833  10.951739618406286 0  11.265993265993266 0  C 11.580246913580247 0  11.847362514029182 0.10213243546576833  12.067340067340067 0.30639730639730645  L 13.67003367003367 1.794612794612795  C 13.890011223344557 1.9988776655443303  14 2.2469135802469133  14 2.538720538720539  C 14 2.830527497194164  13.890011223344557 3.078563411896744  13.67003367003367 3.2828282828282824  L 10.205387205387204 6.5  L 13.67003367003367 9.717171717171716  Z " fill-rule="nonzero" fill="#ffffff" stroke="none" transform="matrix(1 0 0 1 960 699 )" />
  </g>
</svg>