<?xml version="1.0" encoding="utf-8"?>
<svg version="1.1" xmlns:xlink="http://www.w3.org/1999/xlink" width="25px" height="25px" xmlns="http://www.w3.org/2000/svg">
  <g transform="matrix(1 0 0 1 -1001 -693 )">
    <path d="M 18.082682291666664 12.646484375  C 18.180338541666664 12.744140625  18.229166666666664 12.86892361111111  18.229166666666664 13.020833333333332  C 18.229166666666664 13.151041666666668  18.174913194444446 13.28125  18.06640625 13.411458333333332  L 12.874348958333334 18.603515625  C 12.754991319444445 18.701171875  12.630208333333334 18.75  12.5 18.75  C 12.369791666666668 18.75  12.245008680555557 18.701171875  12.125651041666668 18.603515625  L 6.917317708333333 13.395182291666668  C 6.754557291666667 13.221571180555552  6.716579861111112 13.031684027777779  6.803385416666667 12.825520833333332  C 6.890190972222222 12.608506944444443  7.052951388888889 12.5  7.291666666666667 12.5  L 10.416666666666668 12.5  L 10.416666666666668 6.770833333333334  C 10.416666666666668 6.618923611111108  10.465494791666668 6.494140625  10.563151041666668 6.396484375  C 10.660807291666668 6.298828125  10.785590277777779 6.25  10.9375 6.25  L 14.0625 6.25  C 14.214409722222223 6.25  14.339192708333334 6.298828125  14.436848958333334 6.396484375  C 14.534505208333334 6.494140625  14.583333333333334 6.618923611111108  14.583333333333334 6.770833333333334  L 14.583333333333334 12.5  L 17.708333333333336 12.5  C 17.860243055555557 12.5  17.985026041666664 12.548828125  18.082682291666664 12.646484375  Z M 16.943359375 4.833984375  C 15.587022569444445 4.041883680555555  14.105902777777779 3.6458333333333344  12.5 3.6458333333333344  C 10.894097222222223 3.6458333333333344  9.412977430555557 4.041883680555555  8.056640625 4.833984375  C 6.700303819444445 5.626085069444442  5.626085069444445 6.700303819444442  4.833984375 8.056640625  C 4.041883680555556 9.412977430555555  3.6458333333333335 10.894097222222221  3.6458333333333335 12.5  C 3.6458333333333335 14.105902777777779  4.041883680555556 15.587022569444443  4.833984375 16.943359375  C 5.626085069444445 18.299696180555554  6.700303819444445 19.373914930555554  8.056640625 20.166015625  C 9.412977430555557 20.958116319444446  10.894097222222223 21.354166666666664  12.5 21.354166666666664  C 14.105902777777779 21.354166666666664  15.587022569444445 20.958116319444446  16.943359375 20.166015625  C 18.299696180555557 19.373914930555554  19.373914930555557 18.299696180555554  20.166015625 16.943359375  C 20.958116319444446 15.587022569444443  21.354166666666664 14.105902777777779  21.354166666666664 12.5  C 21.354166666666664 10.894097222222221  20.958116319444446 9.412977430555555  20.166015625 8.056640625  C 19.373914930555557 6.700303819444442  18.299696180555557 5.626085069444442  16.943359375 4.833984375  Z M 23.323567708333336 6.2255859375  C 24.441189236111107 8.140733506944443  25 10.232204861111107  25 12.5  C 25 14.76779513888889  24.441189236111107 16.859266493055554  23.323567708333336 18.7744140625  C 22.205946180555557 20.689561631944446  20.689561631944446 22.205946180555554  18.7744140625 23.323567708333336  C 16.859266493055557 24.441189236111114  14.76779513888889 25  12.5 25  C 10.232204861111112 25  8.140733506944445 24.441189236111114  6.2255859375 23.323567708333336  C 4.310438368055556 22.205946180555554  2.7940538194444446 20.689561631944446  1.6764322916666667 18.7744140625  C 0.5588107638888888 16.859266493055554  0 14.76779513888889  0 12.5  C 0 10.232204861111107  0.5588107638888888 8.140733506944443  1.6764322916666667 6.2255859375  C 2.7940538194444446 4.310438368055555  4.310438368055556 2.794053819444442  6.2255859375 1.6764322916666656  C 8.140733506944445 0.5588107638888867  10.232204861111112 0  12.5 0  C 14.76779513888889 0  16.859266493055557 0.5588107638888867  18.7744140625 1.6764322916666656  C 20.689561631944446 2.794053819444442  22.205946180555557 4.310438368055555  23.323567708333336 6.2255859375  Z " fill-rule="nonzero" fill="#63a103" stroke="none" transform="matrix(1 0 0 1 1001 693 )" />
  </g>
</svg>