<?xml version="1.0" encoding="utf-8"?>
<svg version="1.1" xmlns:xlink="http://www.w3.org/1999/xlink" width="25px" height="25px" xmlns="http://www.w3.org/2000/svg">
  <g transform="matrix(1 0 0 1 -1045 -693 )">
    <path d="M 18.082682291666664 11.604817708333334  C 18.245442708333336 11.778428819444445  18.283420138888893 11.968315972222221  18.196614583333336 12.174479166666666  C 18.10980902777778 12.391493055555555  17.947048611111114 12.5  17.708333333333336 12.5  L 14.583333333333334 12.5  L 14.583333333333334 18.229166666666668  C 14.583333333333334 18.38107638888889  14.534505208333334 18.505859375  14.436848958333334 18.603515625  C 14.339192708333334 18.701171875  14.214409722222223 18.75  14.0625 18.75  L 10.9375 18.75  C 10.785590277777779 18.75  10.660807291666668 18.701171875  10.563151041666668 18.603515625  C 10.465494791666668 18.505859375  10.416666666666668 18.38107638888889  10.416666666666668 18.229166666666668  L 10.416666666666668 12.5  L 7.291666666666667 12.5  C 7.139756944444445 12.5  7.014973958333333 12.451171875  6.917317708333333 12.353515625  C 6.819661458333333 12.255859375  6.770833333333333 12.131076388888888  6.770833333333333 11.979166666666666  C 6.770833333333333 11.848958333333334  6.825086805555556 11.71875  6.93359375 11.588541666666666  L 12.125651041666668 6.396484375  C 12.245008680555557 6.298828125  12.369791666666668 6.25  12.5 6.25  C 12.630208333333334 6.25  12.754991319444445 6.298828125  12.874348958333334 6.396484375  L 18.082682291666664 11.604817708333334  Z M 16.943359375 4.833984375  C 15.587022569444445 4.041883680555555  14.105902777777779 3.6458333333333344  12.5 3.6458333333333344  C 10.894097222222223 3.6458333333333344  9.412977430555557 4.041883680555555  8.056640625 4.833984375  C 6.700303819444445 5.626085069444442  5.626085069444445 6.700303819444442  4.833984375 8.056640625  C 4.041883680555556 9.412977430555555  3.6458333333333335 10.894097222222221  3.6458333333333335 12.5  C 3.6458333333333335 14.105902777777779  4.041883680555556 15.587022569444443  4.833984375 16.943359375  C 5.626085069444445 18.299696180555554  6.700303819444445 19.373914930555554  8.056640625 20.166015625  C 9.412977430555557 20.958116319444446  10.894097222222223 21.354166666666664  12.5 21.354166666666664  C 14.105902777777779 21.354166666666664  15.587022569444445 20.958116319444446  16.943359375 20.166015625  C 18.299696180555557 19.373914930555554  19.373914930555557 18.299696180555554  20.166015625 16.943359375  C 20.958116319444446 15.587022569444443  21.354166666666664 14.105902777777779  21.354166666666664 12.5  C 21.354166666666664 10.894097222222221  20.958116319444446 9.412977430555555  20.166015625 8.056640625  C 19.373914930555557 6.700303819444442  18.299696180555557 5.626085069444442  16.943359375 4.833984375  Z M 23.323567708333336 6.2255859375  C 24.441189236111107 8.140733506944443  25 10.232204861111107  25 12.5  C 25 14.76779513888889  24.441189236111107 16.859266493055554  23.323567708333336 18.7744140625  C 22.205946180555557 20.689561631944446  20.689561631944446 22.205946180555554  18.7744140625 23.323567708333336  C 16.859266493055557 24.441189236111114  14.76779513888889 25  12.5 25  C 10.232204861111112 25  8.140733506944445 24.441189236111114  6.2255859375 23.323567708333336  C 4.310438368055556 22.205946180555554  2.7940538194444446 20.689561631944446  1.6764322916666667 18.7744140625  C 0.5588107638888888 16.859266493055554  0 14.76779513888889  0 12.5  C 0 10.232204861111107  0.5588107638888888 8.140733506944443  1.6764322916666667 6.2255859375  C 2.7940538194444446 4.310438368055555  4.310438368055556 2.794053819444442  6.2255859375 1.6764322916666656  C 8.140733506944445 0.5588107638888867  10.232204861111112 0  12.5 0  C 14.76779513888889 0  16.859266493055557 0.5588107638888867  18.7744140625 1.6764322916666656  C 20.689561631944446 2.794053819444442  22.205946180555557 4.310438368055555  23.323567708333336 6.2255859375  Z " fill-rule="nonzero" fill="#63a103" stroke="none" transform="matrix(1 0 0 1 1045 693 )" />
  </g>
</svg>