<?xml version="1.0" encoding="utf-8"?>
<svg version="1.1" xmlns:xlink="http://www.w3.org/1999/xlink" width="24px" height="23px" xmlns="http://www.w3.org/2000/svg">
  <g transform="matrix(1 0 0 1 -85 -197 )">
    <path d="M 97 200  C 102.04 200  106 203.74  106 208.5  C 106 213.26  102.04 217  97 217  C 91.96 217  88 213.26  88 208.5  C 88 203.74  91.96 200  97 200  Z " fill-rule="nonzero" fill="#ffffff" stroke="none" />
    <path d="M 97 199  C 102.6 199  107 203.18  107 208.5  C 107 213.82  102.6 218  97 218  C 91.4 218  87 213.82  87 208.5  C 87 203.18  91.4 199  97 199  Z " stroke-width="4" stroke="#797979" fill="none" />
  </g>
</svg>