<?xml version="1.0" encoding="utf-8"?>
<svg version="1.1" xmlns:xlink="http://www.w3.org/1999/xlink" width="7px" height="73px" xmlns="http://www.w3.org/2000/svg">
  <g transform="matrix(1 0 0 1 -2444 -264 )">
    <path d="M 6.7921875 11.202566964285712  C 6.9307291666666675 11.718563988095232  7 12.329613095238088  7 13.035714285714288  C 7 13.741815476190473  6.9307291666666675 14.352864583333329  6.7921875 14.868861607142856  C 6.653645833333334 15.384858630952376  6.489583333333334 15.642857142857144  6.3 15.642857142857144  L 4.8999999999999995 15.642857142857144  L 4.8999999999999995 57.357142857142854  L 6.3 57.357142857142854  C 6.489583333333334 57.357142857142854  6.653645833333334 57.61514136904761  6.7921875 58.131138392857146  C 6.9307291666666675 58.64713541666667  7 59.258184523809526  7 59.964285714285715  C 7 60.670386904761905  6.9307291666666675 61.28143601190476  6.7921875 61.797433035714285  L 3.9921875 72.22600446428571  C 3.853645833333333 72.74200148809524  3.689583333333333 73  3.5 73  C 3.310416666666667 73  3.146354166666667 72.74200148809524  3.0078125 72.22600446428571  L 0.20781249999999998 61.797433035714285  C 0.06927083333333343 61.28143601190476  0 60.670386904761905  0 59.964285714285715  C 0 59.258184523809526  0.06927083333333343 58.64713541666667  0.20781249999999998 58.131138392857146  C 0.3463541666666669 57.61514136904761  0.5104166666666669 57.357142857142854  0.7000000000000001 57.357142857142854  L 2.1 57.357142857142854  L 2.1 15.642857142857144  L 0.7000000000000001 15.642857142857144  C 0.5104166666666669 15.642857142857144  0.3463541666666669 15.384858630952376  0.20781249999999998 14.868861607142856  C 0.06927083333333343 14.352864583333329  0 13.741815476190473  0 13.035714285714288  C 0 12.329613095238088  0.06927083333333343 11.718563988095232  0.20781249999999998 11.202566964285712  L 3.0078125 0.773995535714288  C 3.146354166666667 0.2579985119047681  3.310416666666667 0  3.5 0  C 3.689583333333333 0  3.853645833333333 0.2579985119047681  3.9921875 0.773995535714288  L 6.7921875 11.202566964285712  Z " fill-rule="nonzero" fill="#d9001b" stroke="none" transform="matrix(1 0 0 1 2444 264 )" />
  </g>
</svg>