<?xml version="1.0" encoding="utf-8"?>
<svg version="1.1" xmlns:xlink="http://www.w3.org/1999/xlink" width="37px" height="18px" xmlns="http://www.w3.org/2000/svg">
  <g transform="matrix(1 0 0 1 -3956 -512 )">
    <path d="M 36.60770089285714 7.734375  C 36.86923363095238 8.090625  37 8.5125  37 9  C 37 9.487499999999999  36.86923363095238 9.909374999999999  36.60770089285714 10.265625  L 31.321986607142858 17.465625  C 31.06045386904762 17.821874999999995  30.75074404761905 18  30.392857142857142 18  C 30.03497023809524 18  29.725260416666668 17.821874999999995  29.46372767857143 17.465625  C 29.202194940476193 17.109375  29.07142857142857 16.6875  29.07142857142857 16.2  L 29.07142857142857 12.6  L 7.928571428571428 12.6  L 7.928571428571428 16.2  C 7.928571428571428 16.6875  7.797805059523809 17.109375  7.536272321428572 17.465625  C 7.274739583333334 17.821874999999995  6.965029761904763 18  6.607142857142858 18  C 6.2492559523809526 18  5.9395461309523805 17.821874999999995  5.678013392857142 17.465625  L 0.39229910714285715 10.265625  C 0.13076636904761904 9.909374999999999  0 9.487499999999999  0 9  C 0 8.5125  0.13076636904761904 8.090625  0.39229910714285715 7.734375  L 5.678013392857142 0.5343749999999996  C 5.9395461309523805 0.17812499999999787  6.2492559523809526 0  6.607142857142858 0  C 6.965029761904763 0  7.274739583333334 0.17812499999999787  7.536272321428572 0.5343749999999996  C 7.797805059523809 0.8906249999999993  7.928571428571428 1.3124999999999993  7.928571428571428 1.7999999999999996  L 7.928571428571428 5.4  L 29.07142857142857 5.4  L 29.07142857142857 1.7999999999999996  C 29.07142857142857 1.3124999999999993  29.202194940476193 0.8906249999999993  29.46372767857143 0.5343749999999996  C 29.725260416666668 0.17812499999999787  30.03497023809524 0  30.392857142857142 0  C 30.75074404761905 0  31.06045386904762 0.17812499999999787  31.321986607142858 0.5343749999999996  L 36.60770089285714 7.734375  Z " fill-rule="nonzero" fill="#d9001b" stroke="none" transform="matrix(1 0 0 1 3956 512 )" />
  </g>
</svg>