<?xml version="1.0" encoding="utf-8"?>
<svg version="1.1" xmlns:xlink="http://www.w3.org/1999/xlink" width="6px" height="10px" xmlns="http://www.w3.org/2000/svg">
  <g transform="matrix(1 0 0 1 -22 -143 )">
    <path d="M 1.5512283643086753 0.2541353926062584  C 1.2049810091654458 -0.08619006723165512  0.6218276421229044 -0.08618984371423721  0.26646852493286133 0.2630915492773056  C 0.18199915687243143 0.3459461685270071  0.11498430867989856 0.4443617258220911  0.06926010052363077 0.5527046322822571  C 0.02353589236736297 0.6610475387424231  0 0.7771903090178967  0 0.894484743475914  C 0 1.0117791779339314  0.02353589236736297 1.127921948209405  0.06926010052363077 1.236264854669571  C 0.11498430867989856 1.344607761129737  0.18199915687243143 1.4430233929306269  0.26646852493286133 1.5258780121803284  C 0.26646852493286133 1.5258780121803284  3.801835695902506 5.00078022480011  3.801835695902506 5.00078022480011  C 3.801835695902506 5.00078022480011  0.26646852493286133 8.475682139396667  0.26646852493286133 8.475682139396667  C 0.09609876076380412 8.64313805475831  0.00038582109846174717 8.87025572359562  0.00038582109846174717 9.10707414150238  C 0.00038582109846174717 9.343892559409142  0.09609876076380412 9.57101320847869  0.26646852493286133 9.738469123840332  C 0.4368382891019186 9.905925039201975  0.6679092248280842 9.999999999999996  0.9088484446207683 10  C 1.1497876644134521 10  1.380858600139618 9.905925039201975  1.5512283643086753 9.738469123840332  C 1.5512283643086753 9.738469123840332  3.6423803965250654 7.683082222938538  3.6423803965250654 7.683082222938538  C 3.6423803965250654 7.683082222938538  5.733532587687175 5.627695322036743  5.733532587687175 5.627695322036743  C 5.818001955747605 5.544840702787042  5.885016148289045 5.446425219997764  5.9307403564453125 5.338082313537598  C 5.97646456460158 5.229739407077432  6 5.113596264272928  6 4.996301829814911  C 6 4.8790073953568935  5.97646456460158 4.762864848598838  5.9307403564453125 4.654521942138672  C 5.885016148289045 4.546179035678506  5.818001955747605 4.447763552889228  5.733532587687175 4.364908933639526  C 5.733532587687175 4.364908933639526  1.5512283643086753 0.2541353926062584  1.5512283643086753 0.2541353926062584  Z " fill-rule="nonzero" fill="#727272" stroke="none" transform="matrix(1 0 0 1 22 143 )" />
  </g>
</svg>