<?xml version="1.0" encoding="utf-8"?>
<svg version="1.1" xmlns:xlink="http://www.w3.org/1999/xlink" width="18px" height="18px" xmlns="http://www.w3.org/2000/svg">
  <g transform="matrix(1 0 0 1 -1289 -439 )">
    <path d="M 0.14997973717124555 14.100530647727147  C 0.049993307803493474 14.200517077094899  0 14.320499491641385  0 14.460480491266322  C 0 14.460480491266322  0 17.50006786061081  0 17.50006786061081  C 0 17.780029859860687  0.2199701401393129 18  0.49993213938919095 18  C 0.49993213938919095 18  3.5395195087336764 18  3.5395195087336764 18  C 3.669501860207142 18  3.7994841222857745 17.95000716896895  3.889471910951622 17.850020739601195  C 3.889471910951622 17.850020739601195  14.807989434722701 6.941501610696231  14.807989434722701 6.941501610696231  L 11.058499342848652 3.1920108036635195  C 11.058499342848652 3.1920108036635195  0.14997973717124555 14.100530647727147  0.14997973717124555 14.100530647727147  Z M 15.877843907881207 5.871647137537725  C 15.877843907881207 5.871647137537725  17.707595461762054 4.041895583656876  17.707595461762054 4.041895583656876  C 17.80028643097686 3.9493944741676743  17.873824009733706 3.83952044737942  17.923998658680198 3.7185635323116633  C 17.974173307626693 3.5976066172439056  18 3.467941751518918  18 3.3369911050154872  C 18 3.2060404585120565  17.974173307626693 3.0763755927870684  17.923998658680198 2.955418677719311  C 17.873824009733706 2.834461762651554  17.80028643097686 2.7245879742495203  17.707595461762054 2.6320868647603186  C 17.707595461762054 2.6320868647603186  15.367914803943226 0.2924042998517238  15.367914803943226 0.2924042998517238  C 15.275413694454024 0.19971333063692032  15.16553990605199 0.12617575188007266  15.044582990984233 0.07600110293358084  C 14.923626075916475 0.025826453987089  14.793961210191487 0  14.663010563688058 0  C 14.532059917184625 0  14.402393144369873 0.025826453987089  14.281436229302116 0.07600110293358084  C 14.160479314234358 0.12617575188007266  14.050605525832326 0.19971333063692032  13.958104416343122 0.2924042998517238  C 13.958104416343122 0.2924042998517238  12.128353816007158 2.122155853732572  12.128353816007158 2.122155853732572  L 15.877843907881207 5.871647137537725  Z " fill-rule="nonzero" fill="#767676" stroke="none" transform="matrix(1 0 0 1 1289 439 )" />
  </g>
</svg>