<?xml version="1.0" encoding="utf-8"?>
<svg version="1.1" xmlns:xlink="http://www.w3.org/1999/xlink" width="14px" height="14px" xmlns="http://www.w3.org/2000/svg">
  <g transform="matrix(1 0 0 1 -1289 -484 )">
    <path d="M 3.4999996662140207 9.51999935913092  L 4.479999305725164 10.499998998642063  L 6.999999332428041 7.979998971939185  L 9.51999935913092 10.499998998642063  L 10.499998998642063 9.51999935913092  L 7.979998971939185 6.999999332428041  L 10.499998998642063 4.479999305725164  L 9.51999935913092 3.4999996662140207  L 6.999999332428041 6.019999692916899  L 4.479999305725164 3.4999996662140207  L 3.4999996662140207 4.479999305725164  L 6.019999692916899 6.999999332428041  L 3.4999996662140207 9.51999935913092  Z M 9.729998805046195 13.44909825810449  C 8.878332197348385 13.816831564490169  7.968332567850821 14.000465331473247  6.999999332428041 13.999998664856083  C 6.031666097005262 13.999998664856083  5.121666467507699 13.816131949078374  4.2699998598098885 13.448398642692695  C 3.4183332521120784 13.080665336307016  2.6774998614788186 12.582032684609157  2.0474999382495938 11.952499394178448  C 1.417500015020369 11.322499470949223  0.9188666540273043 10.581665412744005  0.551600022163389 9.729998805046195  C 0.18433339029947376 8.878332197348385  0.00046666661716377215 7.968332567850821  0 6.999999332428041  C 0 6.031666097005262  0.18386671577771035 5.121666467507699  0.551600022163389 4.2699998598098885  C 0.9193333285490678 3.4183332521120784  1.417966647818885 2.6774998614788186  2.0474999382495938 2.0474999382495938  C 2.6774998614788186 1.417500015020369  3.4183332521120784 0.9188666540273043  4.2699998598098885 0.551600022163389  C 5.121666467507699 0.18433339029947376  6.031666097005262 0.00046666661716377215  6.999999332428041 0  C 7.968332567850821 0  8.878332197348385 0.18386671577771035  9.729998805046195 0.551600022163389  C 10.581665412744005 0.9193333285490678  11.322499470949223 1.417966647818885  11.952499394178448 2.0474999382495938  C 12.582499317407672 2.6774998614788186  13.081364951718811 3.4183332521120784  13.44909825810449 4.2699998598098885  C 13.816831564490169 5.121666467507699  14.000465331473247 6.031666097005262  13.999998664856083 6.999999332428041  C 13.999998664856083 7.968332567850821  13.816131949078374 8.878332197348385  13.448398642692695 9.729998805046195  C 13.080665336307016 10.581665412744005  12.582032684609157 11.322499470949223  11.952499394178448 11.952499394178448  C 11.322499470949223 12.582499317407672  10.581665412744005 13.081364951718811  9.729998805046195 13.44909825810449  Z " fill-rule="nonzero" fill="#767676" stroke="none" transform="matrix(1 0 0 1 1289 484 )" />
  </g>
</svg>