<?xml version="1.0" encoding="utf-8"?>
<svg version="1.1" xmlns:xlink="http://www.w3.org/1999/xlink" width="19px" height="19px" viewBox="1046 1330  19 19" xmlns="http://www.w3.org/2000/svg">
  <path d="M 1055.5 1330  C 1060.82 1330  1065 1334.18  1065 1339.5  C 1065 1344.82  1060.82 1349  1055.5 1349  C 1050.18 1349  1046 1344.82  1046 1339.5  C 1046 1334.18  1050.18 1330  1055.5 1330  Z " fill-rule="nonzero" fill="#ffffff" stroke="none" />
  <path d="M 1055.5 1330.5  C 1060.54 1330.5  1064.5 1334.46  1064.5 1339.5  C 1064.5 1344.54  1060.54 1348.5  1055.5 1348.5  C 1050.46 1348.5  1046.5 1344.54  1046.5 1339.5  C 1046.5 1334.46  1050.46 1330.5  1055.5 1330.5  Z " stroke-width="1" stroke="#f59a23" fill="none" />
  <path d="M 1055.5 1344.25  C 1052.84 1344.25  1050.75 1342.16  1050.75 1339.5  C 1050.75 1336.84  1052.84 1334.75  1055.5 1334.75  C 1058.16 1334.75  1060.25 1336.84  1060.25 1339.5  C 1060.25 1342.16  1058.16 1344.25  1055.5 1344.25  " fill-rule="nonzero" fill="#f59a23" stroke="none" />
</svg>