<?xml version="1.0" encoding="utf-8"?>
<svg version="1.1" xmlns:xlink="http://www.w3.org/1999/xlink" width="19px" height="19px" viewBox="1046 1372  19 19" xmlns="http://www.w3.org/2000/svg">
  <path d="M 1055.5 1372  C 1060.82 1372  1065 1376.18  1065 1381.5  C 1065 1386.82  1060.82 1391  1055.5 1391  C 1050.18 1391  1046 1386.82  1046 1381.5  C 1046 1376.18  1050.18 1372  1055.5 1372  Z " fill-rule="nonzero" fill="#ffffff" stroke="none" />
  <path d="M 1055.5 1372.5  C 1060.54 1372.5  1064.5 1376.46  1064.5 1381.5  C 1064.5 1386.54  1060.54 1390.5  1055.5 1390.5  C 1050.46 1390.5  1046.5 1386.54  1046.5 1381.5  C 1046.5 1376.46  1050.46 1372.5  1055.5 1372.5  Z " stroke-width="1" stroke="#f59a23" fill="none" />
  <path d="M 1055.5 1386.25  C 1052.84 1386.25  1050.75 1384.16  1050.75 1381.5  C 1050.75 1378.84  1052.84 1376.75  1055.5 1376.75  C 1058.16 1376.75  1060.25 1378.84  1060.25 1381.5  C 1060.25 1384.16  1058.16 1386.25  1055.5 1386.25  " fill-rule="nonzero" fill="#f59a23" stroke="none" />
</svg>