<?xml version="1.0" encoding="utf-8"?>
<svg version="1.1" xmlns:xlink="http://www.w3.org/1999/xlink" width="19px" height="19px" viewBox="1044 1288  19 19" xmlns="http://www.w3.org/2000/svg">
  <path d="M 1053.5 1288  C 1058.82 1288  1063 1292.18  1063 1297.5  C 1063 1302.82  1058.82 1307  1053.5 1307  C 1048.18 1307  1044 1302.82  1044 1297.5  C 1044 1292.18  1048.18 1288  1053.5 1288  Z " fill-rule="nonzero" fill="#f0f0f0" stroke="none" />
  <path d="M 1053.5 1288.5  C 1058.54 1288.5  1062.5 1292.46  1062.5 1297.5  C 1062.5 1302.54  1058.54 1306.5  1053.5 1306.5  C 1048.46 1306.5  1044.5 1302.54  1044.5 1297.5  C 1044.5 1292.46  1048.46 1288.5  1053.5 1288.5  Z " stroke-width="1" stroke="#f59a23" fill="none" />
  <path d="M 1053.5 1302.25  C 1050.84 1302.25  1048.75 1300.16  1048.75 1297.5  C 1048.75 1294.84  1050.84 1292.75  1053.5 1292.75  C 1056.16 1292.75  1058.25 1294.84  1058.25 1297.5  C 1058.25 1300.16  1056.16 1302.25  1053.5 1302.25  " fill-rule="nonzero" fill="#f59a23" stroke="none" />
</svg>