<?xml version="1.0" encoding="utf-8"?>
<svg version="1.1" xmlns:xlink="http://www.w3.org/1999/xlink" width="19px" height="19px" viewBox="869 201  19 19" xmlns="http://www.w3.org/2000/svg">
  <path d="M 878.5 201  C 883.82 201  888 205.18  888 210.5  C 888 215.82  883.82 220  878.5 220  C 873.18 220  869 215.82  869 210.5  C 869 205.18  873.18 201  878.5 201  Z " fill-rule="nonzero" fill="#f0f0f0" stroke="none" />
  <path d="M 878.5 201.5  C 883.54 201.5  887.5 205.46  887.5 210.5  C 887.5 215.54  883.54 219.5  878.5 219.5  C 873.46 219.5  869.5 215.54  869.5 210.5  C 869.5 205.46  873.46 201.5  878.5 201.5  Z " stroke-width="1" stroke="#f59a23" fill="none" />
  <path d="M 878.5 215.25  C 875.84 215.25  873.75 213.16  873.75 210.5  C 873.75 207.84  875.84 205.75  878.5 205.75  C 881.16 205.75  883.25 207.84  883.25 210.5  C 883.25 213.16  881.16 215.25  878.5 215.25  " fill-rule="nonzero" fill="#f59a23" stroke="none" />
</svg>