<?xml version="1.0" encoding="utf-8"?>
<svg version="1.1" xmlns:xlink="http://www.w3.org/1999/xlink" width="19px" height="19px" viewBox="1012 201  19 19" xmlns="http://www.w3.org/2000/svg">
  <path d="M 1021.5 201  C 1026.82 201  1031 205.18  1031 210.5  C 1031 215.82  1026.82 220  1021.5 220  C 1016.18 220  1012 215.82  1012 210.5  C 1012 205.18  1016.18 201  1021.5 201  Z " fill-rule="nonzero" fill="#f0f0f0" stroke="none" />
  <path d="M 1021.5 201.5  C 1026.54 201.5  1030.5 205.46  1030.5 210.5  C 1030.5 215.54  1026.54 219.5  1021.5 219.5  C 1016.46 219.5  1012.5 215.54  1012.5 210.5  C 1012.5 205.46  1016.46 201.5  1021.5 201.5  Z " stroke-width="1" stroke="#f59a23" fill="none" />
  <path d="M 1021.5 215.25  C 1018.84 215.25  1016.75 213.16  1016.75 210.5  C 1016.75 207.84  1018.84 205.75  1021.5 205.75  C 1024.16 205.75  1026.25 207.84  1026.25 210.5  C 1026.25 213.16  1024.16 215.25  1021.5 215.25  " fill-rule="nonzero" fill="#f59a23" stroke="none" />
</svg>