<?xml version="1.0" encoding="utf-8"?>
<svg version="1.1" xmlns:xlink="http://www.w3.org/1999/xlink" width="19px" height="19px" viewBox="399 271.5  19 19" xmlns="http://www.w3.org/2000/svg">
  <path d="M 408.5 271.5  C 413.82 271.5  418 275.68  418 281  C 418 286.32  413.82 290.5  408.5 290.5  C 403.18 290.5  399 286.32  399 281  C 399 275.68  403.18 271.5  408.5 271.5  Z " fill-rule="nonzero" fill="#ffffff" stroke="none" />
  <path d="M 408.5 272  C 413.54 272  417.5 275.96  417.5 281  C 417.5 286.04  413.54 290  408.5 290  C 403.46 290  399.5 286.04  399.5 281  C 399.5 275.96  403.46 272  408.5 272  Z " stroke-width="1" stroke="#f59a23" fill="none" />
  <path d="M 408.5 285.75  C 405.84 285.75  403.75 283.66  403.75 281  C 403.75 278.34  405.84 276.25  408.5 276.25  C 411.16 276.25  413.25 278.34  413.25 281  C 413.25 283.66  411.16 285.75  408.5 285.75  " fill-rule="nonzero" fill="#f59a23" stroke="none" />
</svg>