<?xml version="1.0" encoding="utf-8"?>
<svg version="1.1" xmlns:xlink="http://www.w3.org/1999/xlink" width="19px" height="19px" viewBox="296 271.5  19 19" xmlns="http://www.w3.org/2000/svg">
  <path d="M 305.5 271.5  C 310.82 271.5  315 275.68  315 281  C 315 286.32  310.82 290.5  305.5 290.5  C 300.18 290.5  296 286.32  296 281  C 296 275.68  300.18 271.5  305.5 271.5  Z " fill-rule="nonzero" fill="#ffffff" stroke="none" />
  <path d="M 305.5 272  C 310.54 272  314.5 275.96  314.5 281  C 314.5 286.04  310.54 290  305.5 290  C 300.46 290  296.5 286.04  296.5 281  C 296.5 275.96  300.46 272  305.5 272  Z " stroke-width="1" stroke="#f59a23" fill="none" />
  <path d="M 305.5 285.75  C 302.84 285.75  300.75 283.66  300.75 281  C 300.75 278.34  302.84 276.25  305.5 276.25  C 308.16 276.25  310.25 278.34  310.25 281  C 310.25 283.66  308.16 285.75  305.5 285.75  " fill-rule="nonzero" fill="#f59a23" stroke="none" />
</svg>