<?xml version="1.0" encoding="utf-8"?>
<svg version="1.1" xmlns:xlink="http://www.w3.org/1999/xlink" width="19px" height="19px" viewBox="332 812.5  19 19" xmlns="http://www.w3.org/2000/svg">
  <path d="M 341.5 812.5  C 346.82 812.5  351 816.68  351 822  C 351 827.32  346.82 831.5  341.5 831.5  C 336.18 831.5  332 827.32  332 822  C 332 816.68  336.18 812.5  341.5 812.5  Z " fill-rule="nonzero" fill="#f0f0f0" stroke="none" />
  <path d="M 341.5 813  C 346.54 813  350.5 816.96  350.5 822  C 350.5 827.04  346.54 831  341.5 831  C 336.46 831  332.5 827.04  332.5 822  C 332.5 816.96  336.46 813  341.5 813  Z " stroke-width="1" stroke="#f59a23" fill="none" />
  <path d="M 341.5 826.75  C 338.84 826.75  336.75 824.66  336.75 822  C 336.75 819.34  338.84 817.25  341.5 817.25  C 344.16 817.25  346.25 819.34  346.25 822  C 346.25 824.66  344.16 826.75  341.5 826.75  " fill-rule="nonzero" fill="#f59a23" stroke="none" />
</svg>