<?xml version="1.0" encoding="utf-8"?>
<svg version="1.1" xmlns:xlink="http://www.w3.org/1999/xlink" width="19px" height="19px" viewBox="47 4729  19 19" xmlns="http://www.w3.org/2000/svg">
  <path d="M 56.5 4729  C 61.82 4729  66 4733.18  66 4738.5  C 66 4743.82  61.82 4748  56.5 4748  C 51.18 4748  47 4743.82  47 4738.5  C 47 4733.18  51.18 4729  56.5 4729  Z " fill-rule="nonzero" fill="#ffffff" stroke="none" />
  <path d="M 56.5 4729.5  C 61.54 4729.5  65.5 4733.46  65.5 4738.5  C 65.5 4743.54  61.54 4747.5  56.5 4747.5  C 51.46 4747.5  47.5 4743.54  47.5 4738.5  C 47.5 4733.46  51.46 4729.5  56.5 4729.5  Z " stroke-width="1" stroke="#f59a23" fill="none" />
  <path d="M 56.5 4743.25  C 53.84 4743.25  51.75 4741.16  51.75 4738.5  C 51.75 4735.84  53.84 4733.75  56.5 4733.75  C 59.16 4733.75  61.25 4735.84  61.25 4738.5  C 61.25 4741.16  59.16 4743.25  56.5 4743.25  " fill-rule="nonzero" fill="#f59a23" stroke="none" />
</svg>