<?xml version="1.0" encoding="utf-8"?>
<svg version="1.1" xmlns:xlink="http://www.w3.org/1999/xlink" width="19px" height="19px" viewBox="245 812.5  19 19" xmlns="http://www.w3.org/2000/svg">
  <path d="M 254.5 812.5  C 259.82 812.5  264 816.68  264 822  C 264 827.32  259.82 831.5  254.5 831.5  C 249.18 831.5  245 827.32  245 822  C 245 816.68  249.18 812.5  254.5 812.5  Z " fill-rule="nonzero" fill="#ffffff" stroke="none" />
  <path d="M 254.5 813  C 259.54 813  263.5 816.96  263.5 822  C 263.5 827.04  259.54 831  254.5 831  C 249.46 831  245.5 827.04  245.5 822  C 245.5 816.96  249.46 813  254.5 813  Z " stroke-width="1" stroke="#f59a23" fill="none" />
  <path d="M 254.5 826.75  C 251.84 826.75  249.75 824.66  249.75 822  C 249.75 819.34  251.84 817.25  254.5 817.25  C 257.16 817.25  259.25 819.34  259.25 822  C 259.25 824.66  257.16 826.75  254.5 826.75  " fill-rule="nonzero" fill="#f59a23" stroke="none" />
</svg>