<?xml version="1.0" encoding="utf-8"?>
<svg version="1.1" xmlns:xlink="http://www.w3.org/1999/xlink" width="19px" height="19px" viewBox="198 4729  19 19" xmlns="http://www.w3.org/2000/svg">
  <path d="M 207.5 4729  C 212.82 4729  217 4733.18  217 4738.5  C 217 4743.82  212.82 4748  207.5 4748  C 202.18 4748  198 4743.82  198 4738.5  C 198 4733.18  202.18 4729  207.5 4729  Z " fill-rule="nonzero" fill="#f0f0f0" stroke="none" />
  <path d="M 207.5 4729.5  C 212.54 4729.5  216.5 4733.46  216.5 4738.5  C 216.5 4743.54  212.54 4747.5  207.5 4747.5  C 202.46 4747.5  198.5 4743.54  198.5 4738.5  C 198.5 4733.46  202.46 4729.5  207.5 4729.5  Z " stroke-width="1" stroke="#f59a23" fill="none" />
  <path d="M 207.5 4743.25  C 204.84 4743.25  202.75 4741.16  202.75 4738.5  C 202.75 4735.84  204.84 4733.75  207.5 4733.75  C 210.16 4733.75  212.25 4735.84  212.25 4738.5  C 212.25 4741.16  210.16 4743.25  207.5 4743.25  " fill-rule="nonzero" fill="#f59a23" stroke="none" />
</svg>