<?xml version="1.0" encoding="utf-8"?>
<svg version="1.1" xmlns:xlink="http://www.w3.org/1999/xlink" width="19px" height="19px" viewBox="421 918  19 19" xmlns="http://www.w3.org/2000/svg">
  <path d="M 430.5 918  C 435.82 918  440 922.18  440 927.5  C 440 932.82  435.82 937  430.5 937  C 425.18 937  421 932.82  421 927.5  C 421 922.18  425.18 918  430.5 918  Z " fill-rule="nonzero" fill="#ffffff" stroke="none" />
  <path d="M 430.5 918.5  C 435.54 918.5  439.5 922.46  439.5 927.5  C 439.5 932.54  435.54 936.5  430.5 936.5  C 425.46 936.5  421.5 932.54  421.5 927.5  C 421.5 922.46  425.46 918.5  430.5 918.5  Z " stroke-width="1" stroke="#f59a23" fill="none" />
  <path d="M 430.5 932.25  C 427.84 932.25  425.75 930.16  425.75 927.5  C 425.75 924.84  427.84 922.75  430.5 922.75  C 433.16 922.75  435.25 924.84  435.25 927.5  C 435.25 930.16  433.16 932.25  430.5 932.25  " fill-rule="nonzero" fill="#f59a23" stroke="none" />
</svg>