<?xml version="1.0" encoding="utf-8"?>
<svg version="1.1" xmlns:xlink="http://www.w3.org/1999/xlink" width="19px" height="19px" viewBox="238 918  19 19" xmlns="http://www.w3.org/2000/svg">
  <path d="M 247.5 918  C 252.82 918  257 922.18  257 927.5  C 257 932.82  252.82 937  247.5 937  C 242.18 937  238 932.82  238 927.5  C 238 922.18  242.18 918  247.5 918  Z " fill-rule="nonzero" fill="#ffffff" stroke="none" />
  <path d="M 247.5 918.5  C 252.54 918.5  256.5 922.46  256.5 927.5  C 256.5 932.54  252.54 936.5  247.5 936.5  C 242.46 936.5  238.5 932.54  238.5 927.5  C 238.5 922.46  242.46 918.5  247.5 918.5  Z " stroke-width="1" stroke="#f59a23" fill="none" />
  <path d="M 247.5 932.25  C 244.84 932.25  242.75 930.16  242.75 927.5  C 242.75 924.84  244.84 922.75  247.5 922.75  C 250.16 922.75  252.25 924.84  252.25 927.5  C 252.25 930.16  250.16 932.25  247.5 932.25  " fill-rule="nonzero" fill="#f59a23" stroke="none" />
</svg>