<?xml version="1.0" encoding="utf-8"?>
<svg version="1.1" xmlns:xlink="http://www.w3.org/1999/xlink" width="12px" height="11px" xmlns="http://www.w3.org/2000/svg">
  <g transform="matrix(1 0 0 1 -132 -194 )">
    <path d="M 0 9  L 2.75 9  L 2.75 10  L 0 10  L 0 9  Z M 3.5 8  L 5.5 8  C 5.635416666666667 8  5.752604166666667 8.049479166666666  5.8515625 8.1484375  C 5.950520833333333 8.247395833333334  6 8.364583333333334  6 8.5  L 6 10.5  C 6 10.635416666666666  5.950520833333333 10.752604166666666  5.8515625 10.8515625  C 5.752604166666667 10.950520833333334  5.635416666666667 11  5.5 11  L 3.5 11  C 3.364583333333334 11  3.247395833333334 10.950520833333334  3.1484375 10.8515625  C 3.049479166666667 10.752604166666666  3 10.635416666666666  3 10.5  L 3 8.5  C 3 8.364583333333334  3.049479166666667 8.247395833333334  3.1484375 8.1484375  C 3.247395833333334 8.049479166666666  3.364583333333334 8  3.5 8  Z M 0 5  L 6.75 5  L 6.75 6  L 0 6  L 0 5  Z M 0 1.0000000000000004  L 1.75 1.0000000000000004  L 1.75 1.9999999999999996  L 0 1.9999999999999996  L 0 1.0000000000000004  Z M 6.25 9  L 12 9  L 12 10  L 6.25 10  L 6.25 9  Z M 2.5 0  L 4.5 0  C 4.635416666666667 0  4.752604166666667 0.04947916666666563  4.8515625 0.14843750000000056  C 4.950520833333334 0.24739583333333182  5 0.3645833333333327  5 0.49999999999999956  L 5 2.5  C 5 2.635416666666666  4.950520833333334 2.7526041666666656  4.8515625 2.8515625000000004  C 4.752604166666667 2.9505208333333317  4.635416666666667 3  4.5 3  L 2.5 3  C 2.3645833333333335 3  2.2473958333333335 2.9505208333333317  2.1484375 2.8515625000000004  C 2.049479166666667 2.7526041666666656  2 2.635416666666666  2 2.5  L 2 0.49999999999999956  C 2 0.3645833333333327  2.049479166666667 0.24739583333333182  2.1484375 0.14843750000000056  C 2.2473958333333335 0.04947916666666563  2.3645833333333335 0  2.5 0  Z M 7.5 4  L 9.5 4  C 9.635416666666668 4  9.752604166666668 4.049479166666667  9.8515625 4.148437499999999  C 9.950520833333334 4.247395833333333  10 4.364583333333333  10 4.5  L 10 6.499999999999999  C 10 6.635416666666666  9.950520833333334 6.752604166666666  9.8515625 6.851562499999999  C 9.752604166666668 6.950520833333333  9.635416666666668 7  9.5 7  L 7.5 7  C 7.364583333333334 7  7.247395833333334 6.950520833333333  7.1484375 6.851562499999999  C 7.049479166666666 6.752604166666666  7 6.635416666666666  7 6.499999999999999  L 7 4.5  C 7 4.364583333333333  7.049479166666666 4.247395833333333  7.1484375 4.148437499999999  C 7.247395833333334 4.049479166666667  7.364583333333334 4  7.5 4  Z M 10.25 5  L 12 5  L 12 6  L 10.25 6  L 10.25 5  Z M 5.25 1.0000000000000004  L 12 1.0000000000000004  L 12 1.9999999999999996  L 5.25 1.9999999999999996  L 5.25 1.0000000000000004  Z " fill-rule="nonzero" fill="#7f7f7f" stroke="none" transform="matrix(1 0 0 1 132 194 )" />
  </g>
</svg>