<?xml version="1.0" encoding="utf-8"?>
<svg version="1.1" xmlns:xlink="http://www.w3.org/1999/xlink" width="19px" height="19px" viewBox="266 209.5  19 19" xmlns="http://www.w3.org/2000/svg">
  <path d="M 275.5 209.5  C 280.82 209.5  285 213.68  285 219  C 285 224.32  280.82 228.5  275.5 228.5  C 270.18 228.5  266 224.32  266 219  C 266 213.68  270.18 209.5  275.5 209.5  Z " fill-rule="nonzero" fill="#ffffff" stroke="none" />
  <path d="M 275.5 210  C 280.54 210  284.5 213.96  284.5 219  C 284.5 224.04  280.54 228  275.5 228  C 270.46 228  266.5 224.04  266.5 219  C 266.5 213.96  270.46 210  275.5 210  Z " stroke-width="1" stroke="#f59a23" fill="none" />
  <path d="M 275.5 223.75  C 272.84 223.75  270.75 221.66  270.75 219  C 270.75 216.34  272.84 214.25  275.5 214.25  C 278.16 214.25  280.25 216.34  280.25 219  C 280.25 221.66  278.16 223.75  275.5 223.75  " fill-rule="nonzero" fill="#f59a23" stroke="none" />
</svg>