<?xml version="1.0" encoding="utf-8"?>
<svg version="1.1" xmlns:xlink="http://www.w3.org/1999/xlink" width="21px" height="21px" xmlns="http://www.w3.org/2000/svg">
  <g transform="matrix(1 0 0 1 -928 -215 )">
    <path d="M 12.87890625 12.87890625  C 13.985276442307693 11.772536057692307  14.538461538461538 10.441105769230768  14.538461538461538 8.884615384615385  C 14.538461538461538 7.328124999999998  13.985276442307693 5.99669471153846  12.87890625 4.890324519230769  C 11.772536057692308 3.7839543269230753  10.44110576923077 3.230769230769231  8.884615384615385 3.230769230769231  C 7.328125000000001 3.230769230769231  5.996694711538463 3.7839543269230753  4.890324519230769 4.890324519230769  C 3.783954326923077 5.99669471153846  3.230769230769231 7.328124999999998  3.230769230769231 8.884615384615385  C 3.230769230769231 10.441105769230768  3.783954326923077 11.772536057692307  4.890324519230769 12.87890625  C 5.996694711538463 13.98527644230769  7.328125000000001 14.538461538461538  8.884615384615385 14.538461538461538  C 10.44110576923077 14.538461538461538  11.772536057692308 13.98527644230769  12.87890625 12.87890625  Z M 20.533052884615387 18.248798076923077  C 20.844350961538463 18.560096153846157  21 18.938701923076923  21 19.384615384615387  C 21 19.822115384615387  20.840144230769234 20.200721153846157  20.520432692307693 20.520432692307693  C 20.200721153846157 20.84014423076923  19.822115384615387 21  19.384615384615387 21  C 18.930288461538463 21  18.551682692307693 20.84014423076923  18.248798076923077 20.520432692307693  L 13.920072115384615 16.204326923076923  C 12.4140625 17.247596153846157  10.735576923076925 17.76923076923077  8.884615384615385 17.76923076923077  C 7.681490384615385 17.76923076923077  6.530949519230769 17.535757211538463  5.432992788461538 17.068810096153847  C 4.3350360576923075 16.60186298076923  3.3885216346153846 15.970853365384615  2.593449519230769 15.17578125  C 1.798377403846154 14.380709134615385  1.1673677884615388 13.434194711538462  0.700420673076923 12.336237980769232  C 0.2334735576923077 11.23828125  0 10.087740384615383  0 8.884615384615385  C 0 7.6814903846153815  0.2334735576923077 6.530949519230769  0.700420673076923 5.432992788461538  C 1.1673677884615388 4.3350360576923075  1.798377403846154 3.388521634615386  2.593449519230769 2.593449519230769  C 3.3885216346153846 1.7983774038461546  4.3350360576923075 1.167367788461538  5.432992788461538 0.7004206730769238  C 6.530949519230769 0.23347355769230715  7.681490384615385 0  8.884615384615385 0  C 10.087740384615385 0  11.23828125 0.23347355769230715  12.336237980769232 0.7004206730769238  C 13.434194711538462 1.167367788461538  14.380709134615385 1.7983774038461546  15.17578125 2.593449519230769  C 15.970853365384615 3.388521634615386  16.60186298076923 4.3350360576923075  17.068810096153847 5.432992788461538  C 17.535757211538463 6.530949519230769  17.76923076923077 7.6814903846153815  17.76923076923077 8.884615384615385  C 17.76923076923077 10.735576923076922  17.247596153846157 12.414062499999998  16.204326923076923 13.920072115384615  L 20.533052884615387 18.248798076923077  Z " fill-rule="nonzero" fill="#ffffff" stroke="none" transform="matrix(1 0 0 1 928 215 )" />
  </g>
</svg>