<?xml version="1.0" encoding="utf-8"?>
<svg version="1.1" xmlns:xlink="http://www.w3.org/1999/xlink" width="19px" height="19px" viewBox="380 209.5  19 19" xmlns="http://www.w3.org/2000/svg">
  <path d="M 389.5 209.5  C 394.82 209.5  399 213.68  399 219  C 399 224.32  394.82 228.5  389.5 228.5  C 384.18 228.5  380 224.32  380 219  C 380 213.68  384.18 209.5  389.5 209.5  Z " fill-rule="nonzero" fill="#ffffff" stroke="none" />
  <path d="M 389.5 210  C 394.54 210  398.5 213.96  398.5 219  C 398.5 224.04  394.54 228  389.5 228  C 384.46 228  380.5 224.04  380.5 219  C 380.5 213.96  384.46 210  389.5 210  Z " stroke-width="1" stroke="#f59a23" fill="none" />
  <path d="M 389.5 223.75  C 386.84 223.75  384.75 221.66  384.75 219  C 384.75 216.34  386.84 214.25  389.5 214.25  C 392.16 214.25  394.25 216.34  394.25 219  C 394.25 221.66  392.16 223.75  389.5 223.75  " fill-rule="nonzero" fill="#f59a23" stroke="none" />
</svg>