<?xml version="1.0" encoding="utf-8"?>
<svg version="1.1" xmlns:xlink="http://www.w3.org/1999/xlink" width="19px" height="19px" viewBox="380 105  19 19" xmlns="http://www.w3.org/2000/svg">
  <path d="M 389.5 105  C 394.82 105  399 109.18  399 114.5  C 399 119.82  394.82 124  389.5 124  C 384.18 124  380 119.82  380 114.5  C 380 109.18  384.18 105  389.5 105  Z " fill-rule="nonzero" fill="#f0f0f0" stroke="none" />
  <path d="M 389.5 105.5  C 394.54 105.5  398.5 109.46  398.5 114.5  C 398.5 119.54  394.54 123.5  389.5 123.5  C 384.46 123.5  380.5 119.54  380.5 114.5  C 380.5 109.46  384.46 105.5  389.5 105.5  Z " stroke-width="1" stroke="#f59a23" fill="none" />
  <path d="M 389.5 119.25  C 386.84 119.25  384.75 117.16  384.75 114.5  C 384.75 111.84  386.84 109.75  389.5 109.75  C 392.16 109.75  394.25 111.84  394.25 114.5  C 394.25 117.16  392.16 119.25  389.5 119.25  " fill-rule="nonzero" fill="#f59a23" stroke="none" />
</svg>