<?xml version="1.0" encoding="utf-8"?>
<svg version="1.1" xmlns:xlink="http://www.w3.org/1999/xlink" width="19px" height="19px" viewBox="299 964  19 19" xmlns="http://www.w3.org/2000/svg">
  <path d="M 308.5 964  C 313.82 964  318 968.18  318 973.5  C 318 978.82  313.82 983  308.5 983  C 303.18 983  299 978.82  299 973.5  C 299 968.18  303.18 964  308.5 964  Z " fill-rule="nonzero" fill="#f0f0f0" stroke="none" />
  <path d="M 308.5 964.5  C 313.54 964.5  317.5 968.46  317.5 973.5  C 317.5 978.54  313.54 982.5  308.5 982.5  C 303.46 982.5  299.5 978.54  299.5 973.5  C 299.5 968.46  303.46 964.5  308.5 964.5  Z " stroke-width="1" stroke="#f59a23" fill="none" />
  <path d="M 308.5 978.25  C 305.84 978.25  303.75 976.16  303.75 973.5  C 303.75 970.84  305.84 968.75  308.5 968.75  C 311.16 968.75  313.25 970.84  313.25 973.5  C 313.25 976.16  311.16 978.25  308.5 978.25  " fill-rule="nonzero" fill="#f59a23" stroke="none" />
</svg>