<?xml version="1.0" encoding="utf-8"?>
<svg version="1.1" xmlns:xlink="http://www.w3.org/1999/xlink" width="19px" height="19px" viewBox="561 964  19 19" xmlns="http://www.w3.org/2000/svg">
  <path d="M 570.5 964  C 575.82 964  580 968.18  580 973.5  C 580 978.82  575.82 983  570.5 983  C 565.18 983  561 978.82  561 973.5  C 561 968.18  565.18 964  570.5 964  Z " fill-rule="nonzero" fill="#f0f0f0" stroke="none" />
  <path d="M 570.5 964.5  C 575.54 964.5  579.5 968.46  579.5 973.5  C 579.5 978.54  575.54 982.5  570.5 982.5  C 565.46 982.5  561.5 978.54  561.5 973.5  C 561.5 968.46  565.46 964.5  570.5 964.5  Z " stroke-width="1" stroke="#f59a23" fill="none" />
  <path d="M 570.5 978.25  C 567.84 978.25  565.75 976.16  565.75 973.5  C 565.75 970.84  567.84 968.75  570.5 968.75  C 573.16 968.75  575.25 970.84  575.25 973.5  C 575.25 976.16  573.16 978.25  570.5 978.25  " fill-rule="nonzero" fill="#f59a23" stroke="none" />
</svg>