<?xml version="1.0" encoding="utf-8"?>
<svg version="1.1" xmlns:xlink="http://www.w3.org/1999/xlink" width="19px" height="19px" viewBox="243 1999.5  19 19" xmlns="http://www.w3.org/2000/svg">
  <path d="M 252.5 1999.5  C 257.82 1999.5  262 2003.68  262 2009  C 262 2014.32  257.82 2018.5  252.5 2018.5  C 247.18 2018.5  243 2014.32  243 2009  C 243 2003.68  247.18 1999.5  252.5 1999.5  Z " fill-rule="nonzero" fill="#f0f0f0" stroke="none" />
  <path d="M 252.5 2000  C 257.54 2000  261.5 2003.96  261.5 2009  C 261.5 2014.04  257.54 2018  252.5 2018  C 247.46 2018  243.5 2014.04  243.5 2009  C 243.5 2003.96  247.46 2000  252.5 2000  Z " stroke-width="1" stroke="#f59a23" fill="none" />
  <path d="M 252.5 2013.75  C 249.84 2013.75  247.75 2011.66  247.75 2009  C 247.75 2006.34  249.84 2004.25  252.5 2004.25  C 255.16 2004.25  257.25 2006.34  257.25 2009  C 257.25 2011.66  255.16 2013.75  252.5 2013.75  " fill-rule="nonzero" fill="#f59a23" stroke="none" />
</svg>