<?xml version="1.0" encoding="utf-8"?>
<svg version="1.1" xmlns:xlink="http://www.w3.org/1999/xlink" width="19px" height="19px" viewBox="498 1999.5  19 19" xmlns="http://www.w3.org/2000/svg">
  <path d="M 507.5 1999.5  C 512.82 1999.5  517 2003.68  517 2009  C 517 2014.32  512.82 2018.5  507.5 2018.5  C 502.18 2018.5  498 2014.32  498 2009  C 498 2003.68  502.18 1999.5  507.5 1999.5  Z " fill-rule="nonzero" fill="#ffffff" stroke="none" />
  <path d="M 507.5 2000  C 512.54 2000  516.5 2003.96  516.5 2009  C 516.5 2014.04  512.54 2018  507.5 2018  C 502.46 2018  498.5 2014.04  498.5 2009  C 498.5 2003.96  502.46 2000  507.5 2000  Z " stroke-width="1" stroke="#f59a23" fill="none" />
  <path d="M 507.5 2013.75  C 504.84 2013.75  502.75 2011.66  502.75 2009  C 502.75 2006.34  504.84 2004.25  507.5 2004.25  C 510.16 2004.25  512.25 2006.34  512.25 2009  C 512.25 2011.66  510.16 2013.75  507.5 2013.75  " fill-rule="nonzero" fill="#f59a23" stroke="none" />
</svg>