<?xml version="1.0" encoding="utf-8"?>
<svg version="1.1" xmlns:xlink="http://www.w3.org/1999/xlink" width="19px" height="19px" viewBox="729 1471.5  19 19" xmlns="http://www.w3.org/2000/svg">
  <path d="M 738.5 1471.5  C 743.82 1471.5  748 1475.68  748 1481  C 748 1486.32  743.82 1490.5  738.5 1490.5  C 733.18 1490.5  729 1486.32  729 1481  C 729 1475.68  733.18 1471.5  738.5 1471.5  Z " fill-rule="nonzero" fill="#f0f0f0" stroke="none" />
  <path d="M 738.5 1472  C 743.54 1472  747.5 1475.96  747.5 1481  C 747.5 1486.04  743.54 1490  738.5 1490  C 733.46 1490  729.5 1486.04  729.5 1481  C 729.5 1475.96  733.46 1472  738.5 1472  Z " stroke-width="1" stroke="#f59a23" fill="none" />
  <path d="M 738.5 1485.75  C 735.84 1485.75  733.75 1483.66  733.75 1481  C 733.75 1478.34  735.84 1476.25  738.5 1476.25  C 741.16 1476.25  743.25 1478.34  743.25 1481  C 743.25 1483.66  741.16 1485.75  738.5 1485.75  " fill-rule="nonzero" fill="#f59a23" stroke="none" />
</svg>