<?xml version="1.0" encoding="utf-8"?>
<svg version="1.1" xmlns:xlink="http://www.w3.org/1999/xlink" width="19px" height="19px" viewBox="274 394.5  19 19" xmlns="http://www.w3.org/2000/svg">
  <path d="M 283.5 394.5  C 288.82 394.5  293 398.68  293 404  C 293 409.32  288.82 413.5  283.5 413.5  C 278.18 413.5  274 409.32  274 404  C 274 398.68  278.18 394.5  283.5 394.5  Z " fill-rule="nonzero" fill="#ffffff" stroke="none" />
  <path d="M 283.5 395  C 288.54 395  292.5 398.96  292.5 404  C 292.5 409.04  288.54 413  283.5 413  C 278.46 413  274.5 409.04  274.5 404  C 274.5 398.96  278.46 395  283.5 395  Z " stroke-width="1" stroke="#f59a23" fill="none" />
  <path d="M 283.5 408.75  C 280.84 408.75  278.75 406.66  278.75 404  C 278.75 401.34  280.84 399.25  283.5 399.25  C 286.16 399.25  288.25 401.34  288.25 404  C 288.25 406.66  286.16 408.75  283.5 408.75  " fill-rule="nonzero" fill="#f59a23" stroke="none" />
</svg>