<?xml version="1.0" encoding="utf-8"?>
<svg version="1.1" xmlns:xlink="http://www.w3.org/1999/xlink" width="19px" height="19px" viewBox="274 1224.5  19 19" xmlns="http://www.w3.org/2000/svg">
  <path d="M 283.5 1224.5  C 288.82 1224.5  293 1228.68  293 1234  C 293 1239.32  288.82 1243.5  283.5 1243.5  C 278.18 1243.5  274 1239.32  274 1234  C 274 1228.68  278.18 1224.5  283.5 1224.5  Z " fill-rule="nonzero" fill="#ffffff" stroke="none" />
  <path d="M 283.5 1225  C 288.54 1225  292.5 1228.96  292.5 1234  C 292.5 1239.04  288.54 1243  283.5 1243  C 278.46 1243  274.5 1239.04  274.5 1234  C 274.5 1228.96  278.46 1225  283.5 1225  Z " stroke-width="1" stroke="#f59a23" fill="none" />
  <path d="M 283.5 1238.75  C 280.84 1238.75  278.75 1236.66  278.75 1234  C 278.75 1231.34  280.84 1229.25  283.5 1229.25  C 286.16 1229.25  288.25 1231.34  288.25 1234  C 288.25 1236.66  286.16 1238.75  283.5 1238.75  " fill-rule="nonzero" fill="#f59a23" stroke="none" />
</svg>