<?xml version="1.0" encoding="utf-8"?>
<svg version="1.1" xmlns:xlink="http://www.w3.org/1999/xlink" width="19px" height="19px" viewBox="459 394.5  19 19" xmlns="http://www.w3.org/2000/svg">
  <path d="M 468.5 394.5  C 473.82 394.5  478 398.68  478 404  C 478 409.32  473.82 413.5  468.5 413.5  C 463.18 413.5  459 409.32  459 404  C 459 398.68  463.18 394.5  468.5 394.5  Z " fill-rule="nonzero" fill="#ffffff" stroke="none" />
  <path d="M 468.5 395  C 473.54 395  477.5 398.96  477.5 404  C 477.5 409.04  473.54 413  468.5 413  C 463.46 413  459.5 409.04  459.5 404  C 459.5 398.96  463.46 395  468.5 395  Z " stroke-width="1" stroke="#f59a23" fill="none" />
  <path d="M 468.5 408.75  C 465.84 408.75  463.75 406.66  463.75 404  C 463.75 401.34  465.84 399.25  468.5 399.25  C 471.16 399.25  473.25 401.34  473.25 404  C 473.25 406.66  471.16 408.75  468.5 408.75  " fill-rule="nonzero" fill="#f59a23" stroke="none" />
</svg>