<?xml version="1.0" encoding="utf-8"?>
<svg version="1.1" xmlns:xlink="http://www.w3.org/1999/xlink" width="19px" height="19px" viewBox="459 718.5  19 19" xmlns="http://www.w3.org/2000/svg">
  <path d="M 468.5 718.5  C 473.82 718.5  478 722.68  478 728  C 478 733.32  473.82 737.5  468.5 737.5  C 463.18 737.5  459 733.32  459 728  C 459 722.68  463.18 718.5  468.5 718.5  Z " fill-rule="nonzero" fill="#ffffff" stroke="none" />
  <path d="M 468.5 719  C 473.54 719  477.5 722.96  477.5 728  C 477.5 733.04  473.54 737  468.5 737  C 463.46 737  459.5 733.04  459.5 728  C 459.5 722.96  463.46 719  468.5 719  Z " stroke-width="1" stroke="#f59a23" fill="none" />
  <path d="M 468.5 732.75  C 465.84 732.75  463.75 730.66  463.75 728  C 463.75 725.34  465.84 723.25  468.5 723.25  C 471.16 723.25  473.25 725.34  473.25 728  C 473.25 730.66  471.16 732.75  468.5 732.75  " fill-rule="nonzero" fill="#f59a23" stroke="none" />
</svg>