<?xml version="1.0" encoding="utf-8"?>
<svg version="1.1" xmlns:xlink="http://www.w3.org/1999/xlink" width="19px" height="19px" viewBox="459 1224.5  19 19" xmlns="http://www.w3.org/2000/svg">
  <path d="M 468.5 1224.5  C 473.82 1224.5  478 1228.68  478 1234  C 478 1239.32  473.82 1243.5  468.5 1243.5  C 463.18 1243.5  459 1239.32  459 1234  C 459 1228.68  463.18 1224.5  468.5 1224.5  Z " fill-rule="nonzero" fill="#f0f0f0" stroke="none" />
  <path d="M 468.5 1225  C 473.54 1225  477.5 1228.96  477.5 1234  C 477.5 1239.04  473.54 1243  468.5 1243  C 463.46 1243  459.5 1239.04  459.5 1234  C 459.5 1228.96  463.46 1225  468.5 1225  Z " stroke-width="1" stroke="#f59a23" fill="none" />
  <path d="M 468.5 1238.75  C 465.84 1238.75  463.75 1236.66  463.75 1234  C 463.75 1231.34  465.84 1229.25  468.5 1229.25  C 471.16 1229.25  473.25 1231.34  473.25 1234  C 473.25 1236.66  471.16 1238.75  468.5 1238.75  " fill-rule="nonzero" fill="#f59a23" stroke="none" />
</svg>