<?xml version="1.0" encoding="utf-8"?>
<svg version="1.1" xmlns:xlink="http://www.w3.org/1999/xlink" width="5px" height="22px" xmlns="http://www.w3.org/2000/svg">
  <g transform="matrix(1 0 0 1 -1677 -27 )">
    <path d="M 4.635416666666667 16.4375  C 4.878472222222221 16.729166666666664  5 17.083333333333332  5 17.5  L 5 20.5  C 5 20.916666666666668  4.878472222222221 21.270833333333332  4.635416666666667 21.5625  C 4.392361111111112 21.854166666666668  4.097222222222222 22  3.75 22  L 1.25 22  C 0.9027777777777779 22  0.607638888888889 21.854166666666668  0.36458333333333337 21.5625  C 0.12152777777777776 21.270833333333332  0 20.916666666666668  0 20.5  L 0 17.5  C 0 17.083333333333332  0.12152777777777776 16.729166666666664  0.36458333333333337 16.4375  C 0.607638888888889 16.145833333333336  0.9027777777777779 16  1.25 16  L 3.75 16  C 4.097222222222222 16  4.392361111111112 16.145833333333336  4.635416666666667 16.4375  Z M 4.635416666666667 8.4375  C 4.878472222222221 8.729166666666663  5 9.083333333333332  5 9.499999999999998  L 5 12.499999999999998  C 5 12.916666666666668  4.878472222222221 13.270833333333332  4.635416666666667 13.5625  C 4.392361111111112 13.854166666666664  4.097222222222222 14  3.75 14  L 1.25 14  C 0.9027777777777779 14  0.607638888888889 13.854166666666664  0.36458333333333337 13.5625  C 0.12152777777777776 13.270833333333332  0 12.916666666666668  0 12.499999999999998  L 0 9.499999999999998  C 0 9.083333333333332  0.12152777777777776 8.729166666666663  0.36458333333333337 8.4375  C 0.607638888888889 8.145833333333332  0.9027777777777779 8  1.25 8  L 3.75 8  C 4.097222222222222 8  4.392361111111112 8.145833333333332  4.635416666666667 8.4375  Z M 4.635416666666667 0.4375000000000002  C 4.878472222222221 0.7291666666666654  5 1.0833333333333324  5 1.500000000000001  L 5 4.500000000000001  C 5 4.916666666666664  4.878472222222221 5.270833333333332  4.635416666666667 5.562499999999999  C 4.392361111111112 5.854166666666664  4.097222222222222 6  3.75 6  L 1.25 6  C 0.9027777777777779 6  0.607638888888889 5.854166666666664  0.36458333333333337 5.562499999999999  C 0.12152777777777776 5.270833333333332  0 4.916666666666664  0 4.500000000000001  L 0 1.500000000000001  C 0 1.0833333333333324  0.12152777777777776 0.7291666666666654  0.36458333333333337 0.4375000000000002  C 0.607638888888889 0.1458333333333326  0.9027777777777779 0  1.25 0  L 3.75 0  C 4.097222222222222 0  4.392361111111112 0.1458333333333326  4.635416666666667 0.4375000000000002  Z " fill-rule="nonzero" fill="#797979" stroke="none" transform="matrix(1 0 0 1 1677 27 )" />
  </g>
</svg>