<?xml version="1.0" encoding="utf-8"?>
<svg version="1.1" xmlns:xlink="http://www.w3.org/1999/xlink" width="20px" height="20px" viewBox="26 30  20 20" xmlns="http://www.w3.org/2000/svg">
  <path d="M 26.5 32  A 1.5 1.5 0 0 1 28 30.5 L 44 30.5  A 1.5 1.5 0 0 1 45.5 32 L 45.5 48  A 1.5 1.5 0 0 1 44 49.5 L 28 49.5  A 1.5 1.5 0 0 1 26.5 48 L 26.5 32  Z " fill-rule="nonzero" fill="#ffffff" stroke="none" />
  <path d="M 26.5 32  A 1.5 1.5 0 0 1 28 30.5 L 44 30.5  A 1.5 1.5 0 0 1 45.5 32 L 45.5 48  A 1.5 1.5 0 0 1 44 49.5 L 28 49.5  A 1.5 1.5 0 0 1 26.5 48 L 26.5 32  Z " stroke-width="1" stroke="#797979" fill="none" />
  <path d="M 30.285714285714285 40  L 34.57142857142857 44.285714285714285  L 41.714285714285715 34.285714285714285  " stroke-width="4.285714285714286" stroke="#797979" fill="none" />
</svg>