<?xml version="1.0" encoding="utf-8"?>
<svg version="1.1" xmlns:xlink="http://www.w3.org/1999/xlink" width="48px" height="48px" xmlns="http://www.w3.org/2000/svg">
  <g transform="matrix(1 0 0 1 -1763 -18 )">
    <path d="M 1787 18  C 1800.44 18  1811 28.56  1811 42  C 1811 55.44  1800.44 66  1787 66  C 1773.56 66  1763 55.44  1763 42  C 1763 28.56  1773.56 18  1787 18  Z " fill-rule="nonzero" fill="#ffffff" stroke="none" />
    <path d="M 1787 18.5  C 1800.16 18.5  1810.5 28.839999999999996  1810.5 42  C 1810.5 55.160000000000004  1800.16 65.5  1787 65.5  C 1773.84 65.5  1763.5 55.160000000000004  1763.5 42  C 1763.5 28.839999999999996  1773.84 18.5  1787 18.5  Z " stroke-width="1" stroke="#d7d7d7" fill="none" />
  </g>
</svg>