<?xml version="1.0" encoding="utf-8"?>
<svg version="1.1" xmlns:xlink="http://www.w3.org/1999/xlink" width="11px" height="7px" xmlns="http://www.w3.org/2000/svg">
  <g transform="matrix(1 0 0 1 -245 -193 )">
    <path d="M 10.7958984375 0.23090277777777812  C 10.931966145833334 0.38483796296296224  11 0.5671296296296279  11 0.7777777777777781  C 11 0.9884259259259253  10.931966145833334 1.1707175925925917  10.7958984375 1.3246527777777781  L 5.9833984375 6.769097222222221  C 5.847330729166667 6.923032407407408  5.686197916666667 7  5.5 7  C 5.313802083333334 7  5.152669270833334 6.923032407407408  5.0166015625 6.769097222222221  L 0.2041015625 1.3246527777777781  C 0.06803385416666666 1.1707175925925917  0 0.9884259259259253  0 0.7777777777777781  C 0 0.5671296296296279  0.06803385416666666 0.38483796296296224  0.2041015625 0.23090277777777812  C 0.34016927083333337 0.07696759259259167  0.5013020833333334 0  0.6875 0  L 10.3125 0  C 10.498697916666668 0  10.659830729166668 0.07696759259259167  10.7958984375 0.23090277777777812  Z " fill-rule="nonzero" fill="#797979" stroke="none" transform="matrix(1 0 0 1 245 193 )" />
  </g>
</svg>