<?xml version="1.0" encoding="utf-8"?>
<svg version="1.1" xmlns:xlink="http://www.w3.org/1999/xlink" width="20px" height="20px" viewBox="109 185  20 20" xmlns="http://www.w3.org/2000/svg">
  <path d="M 109.5 187  A 1.5 1.5 0 0 1 111 185.5 L 127 185.5  A 1.5 1.5 0 0 1 128.5 187 L 128.5 203  A 1.5 1.5 0 0 1 127 204.5 L 111 204.5  A 1.5 1.5 0 0 1 109.5 203 L 109.5 187  Z " fill-rule="nonzero" fill="#f0f0f0" stroke="none" />
  <path d="M 109.5 187  A 1.5 1.5 0 0 1 111 185.5 L 127 185.5  A 1.5 1.5 0 0 1 128.5 187 L 128.5 203  A 1.5 1.5 0 0 1 127 204.5 L 111 204.5  A 1.5 1.5 0 0 1 109.5 203 L 109.5 187  Z " stroke-width="1" stroke="#797979" fill="none" />
</svg>