<?xml version="1.0" encoding="utf-8"?>
<svg version="1.1" xmlns:xlink="http://www.w3.org/1999/xlink" width="10px" height="7px" xmlns="http://www.w3.org/2000/svg">
  <g transform="matrix(1 0 0 1 -241 -191 )">
    <path d="M 9.814453125 0.23090277777777812  C 9.938151041666668 0.38483796296296224  10 0.5671296296296279  10 0.7777777777777781  C 10 0.9884259259259253  9.938151041666668 1.1707175925925917  9.814453125 1.3246527777777781  L 5.439453125 6.769097222222221  C 5.315755208333334 6.923032407407408  5.169270833333334 7  5 7  C 4.830729166666668 7  4.684244791666668 6.923032407407408  4.560546875 6.769097222222221  L 0.185546875 1.3246527777777781  C 0.06184895833333333 1.1707175925925917  0 0.9884259259259253  0 0.7777777777777781  C 0 0.5671296296296279  0.06184895833333333 0.38483796296296224  0.185546875 0.23090277777777812  C 0.3092447916666667 0.07696759259259167  0.45572916666666674 0  0.625 0  L 9.375 0  C 9.544270833333334 0  9.690755208333334 0.07696759259259167  9.814453125 0.23090277777777812  Z " fill-rule="nonzero" fill="#797979" stroke="none" transform="matrix(1 0 0 1 241 191 )" />
  </g>
</svg>