<?xml version="1.0" encoding="utf-8"?>
<svg version="1.1" xmlns:xlink="http://www.w3.org/1999/xlink" width="17px" height="18px" xmlns="http://www.w3.org/2000/svg">
  <g transform="matrix(1 0 0 1 -1780 -33 )">
    <path d="M 16.887109375 13.013671874999998  C 16.962369791666667 13.603515624999998  17 14.23046875  17 14.89453125  C 17 15.74609375  16.723307291666668 16.4765625  16.169921875 17.0859375  C 15.616536458333334 17.6953125  14.950260416666667 18  14.17109375 18  L 2.82890625 18  C 2.0497395833333334 18  1.3834635416666667 17.6953125  0.8300781250000001 17.0859375  C 0.2766927083333334 16.4765625  0 15.74609375  0 14.89453125  C 0 14.23046875  0.03763020833333342 13.603515624999998  0.1128906250000001 13.013671874999998  C 0.18815104166666677 12.423828124999996  0.32760416666666675 11.830078125  0.5312500000000001 11.232421875  C 0.7348958333333335 10.634765625  0.9938802083333335 10.123046875  1.308203125 9.697265625000002  C 1.622526041666667 9.271484374999998  2.038671875 8.923828125  2.556640625 8.654296875  C 3.0746093749999996 8.384765625  3.6700520833333337 8.25  4.342968750000001 8.25  C 5.502864583333334 9.25  6.888541666666668 9.750000000000002  8.5 9.750000000000002  C 10.111458333333337 9.750000000000002  11.497135416666667 9.25  12.65703125 8.25  C 13.329947916666669 8.25  13.925390624999999 8.384765625  14.443359375 8.654296875  C 14.961328125000001 8.923828125  15.377473958333335 9.271484374999998  15.691796875000001 9.697265625000002  C 16.00611979166667 10.123046875  16.265104166666667 10.634765625  16.46875 11.232421875  C 16.672395833333336 11.830078125  16.811848958333336 12.423828124999996  16.887109375 13.013671874999998  Z M 12.105859375000001 1.318359375  C 13.101953125000001 2.197265625  13.600000000000001 3.257812500000001  13.600000000000001 4.5  C 13.600000000000001 5.742187499999999  13.101953125000001 6.802734375  12.105859375000001 7.681640625  C 11.109765625000001 8.560546875  9.907812499999999 9  8.5 9  C 7.0921875 9  5.890234375 8.560546875  4.894140625 7.681640625  C 3.8980468750000004 6.802734375  3.4000000000000004 5.742187499999999  3.4000000000000004 4.5  C 3.4000000000000004 3.257812500000001  3.8980468750000004 2.197265625  4.894140625 1.318359375  C 5.890234375 0.439453125  7.0921875 0  8.5 0  C 9.907812499999999 0  11.109765625000001 0.439453125  12.105859375000001 1.318359375  Z " fill-rule="nonzero" fill="#e87523" stroke="none" transform="matrix(1 0 0 1 1780 33 )" />
  </g>
</svg>