<?xml version="1.0" encoding="utf-8"?>
<svg version="1.1" xmlns:xlink="http://www.w3.org/1999/xlink" width="24px" height="24px" viewBox="730 24  24 24" xmlns="http://www.w3.org/2000/svg">
  <path d="M 730.5 26  A 1.5 1.5 0 0 1 732 24.5 L 752 24.5  A 1.5 1.5 0 0 1 753.5 26 L 753.5 46  A 1.5 1.5 0 0 1 752 47.5 L 732 47.5  A 1.5 1.5 0 0 1 730.5 46 L 730.5 26  Z " fill-rule="nonzero" fill="#ffffff" stroke="none" />
  <path d="M 730.5 26  A 1.5 1.5 0 0 1 732 24.5 L 752 24.5  A 1.5 1.5 0 0 1 753.5 26 L 753.5 46  A 1.5 1.5 0 0 1 752 47.5 L 732 47.5  A 1.5 1.5 0 0 1 730.5 46 L 730.5 26  Z " stroke-width="1" stroke="#797979" fill="none" />
  <path d="M 735.1428571428571 36  L 740.2857142857143 41.142857142857146  L 748.8571428571429 29.142857142857142  " stroke-width="5.142857142857142" stroke="#797979" fill="none" />
</svg>