<?xml version="1.0" encoding="utf-8"?>
<svg version="1.1" xmlns:xlink="http://www.w3.org/1999/xlink" width="24px" height="24px" viewBox="530 24  24 24" xmlns="http://www.w3.org/2000/svg">
  <path d="M 530.5 26  A 1.5 1.5 0 0 1 532 24.5 L 552 24.5  A 1.5 1.5 0 0 1 553.5 26 L 553.5 46  A 1.5 1.5 0 0 1 552 47.5 L 532 47.5  A 1.5 1.5 0 0 1 530.5 46 L 530.5 26  Z " fill-rule="nonzero" fill="#ffffff" stroke="none" />
  <path d="M 530.5 26  A 1.5 1.5 0 0 1 532 24.5 L 552 24.5  A 1.5 1.5 0 0 1 553.5 26 L 553.5 46  A 1.5 1.5 0 0 1 552 47.5 L 532 47.5  A 1.5 1.5 0 0 1 530.5 46 L 530.5 26  Z " stroke-width="1" stroke="#797979" fill="none" />
  <path d="M 535.1428571428571 36  L 540.2857142857143 41.142857142857146  L 548.8571428571429 29.142857142857142  " stroke-width="5.142857142857142" stroke="#797979" fill="none" />
</svg>