<?xml version="1.0" encoding="utf-8"?>
<svg version="1.1" xmlns:xlink="http://www.w3.org/1999/xlink" width="24px" height="24px" viewBox="1618 24  24 24" xmlns="http://www.w3.org/2000/svg">
  <path d="M 1618.5 26  A 1.5 1.5 0 0 1 1620 24.5 L 1640 24.5  A 1.5 1.5 0 0 1 1641.5 26 L 1641.5 46  A 1.5 1.5 0 0 1 1640 47.5 L 1620 47.5  A 1.5 1.5 0 0 1 1618.5 46 L 1618.5 26  Z " fill-rule="nonzero" fill="#ffffff" stroke="none" />
  <path d="M 1618.5 26  A 1.5 1.5 0 0 1 1620 24.5 L 1640 24.5  A 1.5 1.5 0 0 1 1641.5 26 L 1641.5 46  A 1.5 1.5 0 0 1 1640 47.5 L 1620 47.5  A 1.5 1.5 0 0 1 1618.5 46 L 1618.5 26  Z " stroke-width="1" stroke="#797979" fill="none" />
  <path d="M 1623.142857142857 36  L 1628.2857142857142 41.142857142857146  L 1636.857142857143 29.142857142857142  " stroke-width="5.142857142857142" stroke="#797979" fill="none" />
</svg>