<?xml version="1.0" encoding="utf-8"?>
<svg version="1.1" xmlns:xlink="http://www.w3.org/1999/xlink" width="13px" height="8px" xmlns="http://www.w3.org/2000/svg">
  <g transform="matrix(1 0 0 1 -289 -239 )">
    <path d="M 12.7587890625 0.2638888888888893  C 12.919596354166668 0.439814814814814  13 0.6481481481481461  13 0.8888888888888893  C 13 1.1296296296296289  12.919596354166668 1.337962962962962  12.7587890625 1.5138888888888893  L 7.0712890625 7.736111111111111  C 6.910481770833334 7.912037037037038  6.720052083333334 8  6.5 8  C 6.279947916666668 8  6.089518229166668 7.912037037037038  5.9287109375 7.736111111111111  L 0.2412109375 1.5138888888888893  C 0.08040364583333333 1.337962962962962  0 1.1296296296296289  0 0.8888888888888893  C 0 0.6481481481481461  0.08040364583333333 0.439814814814814  0.2412109375 0.2638888888888893  C 0.4020182291666667 0.08796296296296191  0.5924479166666667 0  0.8125 0  L 12.1875 0  C 12.407552083333334 0  12.597981770833334 0.08796296296296191  12.7587890625 0.2638888888888893  Z " fill-rule="nonzero" fill="#797979" stroke="none" transform="matrix(1 0 0 1 289 239 )" />
  </g>
</svg>