<?xml version="1.0" encoding="utf-8"?>
<svg version="1.1" xmlns:xlink="http://www.w3.org/1999/xlink" width="9px" height="19px" xmlns="http://www.w3.org/2000/svg">
  <g transform="matrix(1 0 0 1 -155 -187 )">
    <path d="M 8.894805194805196 4.3321759259259265  C 8.996103896103897 4.449459876543209  9.015584415584417 4.577739197530864  8.953246753246754 4.7170138888888875  C 8.883116883116884 4.856288580246912  8.770129870129871 4.9259259259259265  8.614285714285714 4.9259259259259265  L 6 4.9259259259259265  L 6 18.64814814814815  C 5.996103896103897 18.750771604938272  5.961038961038961 18.835069444444443  5.890909090909091 18.901041666666664  C 5.820779220779221 18.96701388888889  5.731168831168831 19  5.6220779220779225 19  L 3.377922077922078 19  C 3.268831168831169 19  3.1792207792207794 18.96701388888889  3.1090909090909093 18.901041666666664  C 3.038961038961039 18.835069444444443  3.003896103896104 18.750771604938272  3 18.64814814814815  L 3 4.9259259259259265  L 0.38571428571428573 4.9259259259259265  C 0.2220779220779221 4.9259259259259265  0.10909090909090909 4.856288580246912  0.046753246753246755 4.7170138888888875  C -0.015584415584415593 4.577739197530864  0.0038961038961038874 4.449459876543209  0.1051948051948052 4.3321759259259265  L 4.196103896103896 0.10995370370370472  C 4.2740259740259745 0.03665123456790087  4.363636363636364 0  4.464935064935065 0  C 4.574025974025974 0  4.667532467532467 0.03665123456790087  4.745454545454545 0.10995370370370472  L 8.894805194805196 4.3321759259259265  Z " fill-rule="nonzero" fill="#797979" stroke="none" transform="matrix(1 0 0 1 155 187 )" />
  </g>
</svg>