<?xml version="1.0" encoding="utf-8"?>
<svg version="1.1" xmlns:xlink="http://www.w3.org/1999/xlink" width="22px" height="23px" xmlns="http://www.w3.org/2000/svg">
  <g transform="matrix(1 0 0 1 -1537 -180 )">
    <path d="M 13.4921875 14.10546875  C 14.651241987179489 12.893729967948717  15.23076923076923 11.435496794871794  15.23076923076923 9.730769230769232  C 15.23076923076923 8.026041666666664  14.651241987179489 6.567808493589743  13.4921875 5.356069711538462  C 12.333133012820515 4.144330929487178  10.938301282051283 3.5384615384615388  9.307692307692308 3.5384615384615388  C 7.677083333333334 3.5384615384615388  6.282251602564104 4.144330929487178  5.123197115384615 5.356069711538462  C 3.9641426282051286 6.567808493589743  3.384615384615385 8.026041666666664  3.384615384615385 9.730769230769232  C 3.384615384615385 11.435496794871794  3.9641426282051286 12.893729967948717  5.123197115384615 14.10546875  C 6.282251602564104 15.317207532051277  7.677083333333334 15.923076923076923  9.307692307692308 15.923076923076923  C 10.938301282051283 15.923076923076923  12.333133012820515 15.317207532051277  13.4921875 14.10546875  Z M 21.51081730769231 19.986778846153847  C 21.836939102564102 20.32772435897436  22 20.74238782051282  22 21.230769230769234  C 22 21.709935897435898  21.832532051282055 22.12459935897436  21.497596153846153 22.474759615384617  C 21.16266025641026 22.824919871794872  20.766025641025642 23  20.30769230769231 23  C 19.83173076923077 23  19.435096153846153 22.824919871794872  19.11778846153846 22.474759615384617  L 14.582932692307692 17.747596153846153  C 13.005208333333334 18.89022435897436  11.246794871794874 19.46153846153846  9.307692307692308 19.46153846153846  C 8.047275641025642 19.46153846153846  6.841947115384615 19.205829326923077  5.69170673076923 18.69441105769231  C 4.541466346153846 18.18299278846154  3.5498798076923075 17.491887019230766  2.7169471153846154 16.62109375  C 1.8840144230769231 15.750300480769232  1.222956730769231 14.713641826923077  0.7337740384615384 13.511117788461538  C 0.24459134615384617 12.30859375  0 11.048477564102562  0 9.730769230769232  C 0 8.413060897435894  0.24459134615384617 7.152944711538462  0.7337740384615384 5.9504206730769225  C 1.222956730769231 4.747896634615384  1.8840144230769231 3.7112379807692317  2.7169471153846154 2.8404447115384612  C 3.5498798076923075 1.9696514423076934  4.541466346153846 1.2785456730769227  5.69170673076923 0.7671274038461546  C 6.841947115384615 0.255709134615384  8.047275641025642 0  9.307692307692308 0  C 10.568108974358974 0  11.7734375 0.255709134615384  12.923677884615385 0.7671274038461546  C 14.07391826923077 1.2785456730769227  15.065504807692308 1.9696514423076934  15.8984375 2.8404447115384612  C 16.73137019230769 3.7112379807692317  17.392427884615383 4.747896634615384  17.881610576923077 5.9504206730769225  C 18.37079326923077 7.152944711538462  18.615384615384617 8.413060897435894  18.615384615384617 9.730769230769232  C 18.615384615384617 11.75801282051282  18.06891025641026 13.596354166666664  16.97596153846154 15.245793269230768  L 21.51081730769231 19.986778846153847  Z " fill-rule="nonzero" fill="#797979" stroke="none" transform="matrix(1 0 0 1 1537 180 )" />
  </g>
</svg>