<?xml version="1.0" encoding="utf-8"?>
<svg version="1.1" xmlns:xlink="http://www.w3.org/1999/xlink" width="5px" height="20px" xmlns="http://www.w3.org/2000/svg">
  <g transform="matrix(1 0 0 1 -1646 -33 )">
    <path d="M 4.635416666666667 14.943181818181817  C 4.878472222222221 15.20833333333333  5 15.53030303030303  5 15.909090909090908  L 5 18.636363636363637  C 5 19.015151515151516  4.878472222222221 19.33712121212121  4.635416666666667 19.602272727272727  C 4.392361111111112 19.867424242424242  4.097222222222222 20  3.75 20  L 1.25 20  C 0.9027777777777779 20  0.607638888888889 19.867424242424242  0.36458333333333337 19.602272727272727  C 0.12152777777777776 19.33712121212121  0 19.015151515151516  0 18.636363636363637  L 0 15.909090909090908  C 0 15.53030303030303  0.12152777777777776 15.20833333333333  0.36458333333333337 14.943181818181817  C 0.607638888888889 14.678030303030305  0.9027777777777779 14.545454545454547  1.25 14.545454545454547  L 3.75 14.545454545454547  C 4.097222222222222 14.545454545454547  4.392361111111112 14.678030303030305  4.635416666666667 14.943181818181817  Z M 4.635416666666667 7.670454545454546  C 4.878472222222221 7.935606060606057  5 8.257575757575758  5 8.636363636363635  L 5 11.363636363636363  C 5 11.742424242424242  4.878472222222221 12.064393939393938  4.635416666666667 12.329545454545453  C 4.392361111111112 12.594696969696969  4.097222222222222 12.727272727272727  3.75 12.727272727272727  L 1.25 12.727272727272727  C 0.9027777777777779 12.727272727272727  0.607638888888889 12.594696969696969  0.36458333333333337 12.329545454545453  C 0.12152777777777776 12.064393939393938  0 11.742424242424242  0 11.363636363636363  L 0 8.636363636363635  C 0 8.257575757575758  0.12152777777777776 7.935606060606057  0.36458333333333337 7.670454545454546  C 0.607638888888889 7.405303030303029  0.9027777777777779 7.272727272727273  1.25 7.272727272727273  L 3.75 7.272727272727273  C 4.097222222222222 7.272727272727273  4.392361111111112 7.405303030303029  4.635416666666667 7.670454545454546  Z M 4.635416666666667 0.39772727272727293  C 4.878472222222221 0.6628787878787867  5 0.984848484848484  5 1.3636363636363646  L 5 4.090909090909092  C 5 4.469696969696968  4.878472222222221 4.791666666666665  4.635416666666667 5.056818181818182  C 4.392361111111112 5.3219696969696955  4.097222222222222 5.454545454545454  3.75 5.454545454545454  L 1.25 5.454545454545454  C 0.9027777777777779 5.454545454545454  0.607638888888889 5.3219696969696955  0.36458333333333337 5.056818181818182  C 0.12152777777777776 4.791666666666665  0 4.469696969696968  0 4.090909090909092  L 0 1.3636363636363646  C 0 0.984848484848484  0.12152777777777776 0.6628787878787867  0.36458333333333337 0.39772727272727293  C 0.607638888888889 0.1325757575757569  0.9027777777777779 0  1.25 0  L 3.75 0  C 4.097222222222222 0  4.392361111111112 0.1325757575757569  4.635416666666667 0.39772727272727293  Z " fill-rule="nonzero" fill="#797979" stroke="none" transform="matrix(1 0 0 1 1646 33 )" />
  </g>
</svg>