<?xml version="1.0" encoding="utf-8"?>
<svg version="1.1" xmlns:xlink="http://www.w3.org/1999/xlink" width="25px" height="23px" xmlns="http://www.w3.org/2000/svg">
  <g transform="matrix(1 0 0 1 -1531 -180 )">
    <path d="M 15.33203125 14.10546875  C 16.649138621794872 12.893729967948717  17.307692307692307 11.435496794871794  17.307692307692307 9.730769230769232  C 17.307692307692307 8.026041666666664  16.649138621794872 6.567808493589743  15.33203125 5.356069711538462  C 14.01492387820513 4.144330929487178  12.429887820512821 3.5384615384615388  10.576923076923077 3.5384615384615388  C 8.723958333333334 3.5384615384615388  7.138922275641027 4.144330929487178  5.821814903846153 5.356069711538462  C 4.504707532051282 6.567808493589743  3.8461538461538463 8.026041666666664  3.8461538461538463 9.730769230769232  C 3.8461538461538463 11.435496794871794  4.504707532051282 12.893729967948717  5.821814903846153 14.10546875  C 7.138922275641027 15.317207532051277  8.723958333333334 15.923076923076923  10.576923076923077 15.923076923076923  C 12.429887820512821 15.923076923076923  14.01492387820513 15.317207532051277  15.33203125 14.10546875  Z M 24.444110576923077 19.986778846153847  C 24.814703525641026 20.32772435897436  25 20.74238782051282  25 21.230769230769234  C 25 21.709935897435898  24.809695512820515 22.12459935897436  24.42908653846154 22.474759615384617  C 24.048477564102566 22.824919871794872  23.597756410256412 23  23.076923076923077 23  C 22.536057692307693 23  22.08533653846154 22.824919871794872  21.724759615384613 22.474759615384617  L 16.571514423076923 17.747596153846153  C 14.778645833333334 18.89022435897436  12.780448717948719 19.46153846153846  10.576923076923077 19.46153846153846  C 9.14463141025641 19.46153846153846  7.774939903846153 19.205829326923077  6.4678485576923075 18.69441105769231  C 5.160757211538462 18.18299278846154  4.033954326923077 17.491887019230766  3.087439903846154 16.62109375  C 2.140925480769231 15.750300480769232  1.389723557692308 14.713641826923077  0.8338341346153846 13.511117788461538  C 0.27794471153846156 12.30859375  0 11.048477564102562  0 9.730769230769232  C 0 8.413060897435894  0.27794471153846156 7.152944711538462  0.8338341346153846 5.9504206730769225  C 1.389723557692308 4.747896634615384  2.140925480769231 3.7112379807692317  3.087439903846154 2.8404447115384612  C 4.033954326923077 1.9696514423076934  5.160757211538462 1.2785456730769227  6.4678485576923075 0.7671274038461546  C 7.774939903846153 0.255709134615384  9.14463141025641 0  10.576923076923077 0  C 12.009214743589745 0  13.37890625 0.255709134615384  14.685997596153847 0.7671274038461546  C 15.993088942307693 1.2785456730769227  17.119891826923077 1.9696514423076934  18.06640625 2.8404447115384612  C 19.012920673076923 3.7112379807692317  19.764122596153847 4.747896634615384  20.320012019230766 5.9504206730769225  C 20.875901442307693 7.152944711538462  21.153846153846153 8.413060897435894  21.153846153846153 9.730769230769232  C 21.153846153846153 11.75801282051282  20.532852564102566 13.596354166666664  19.290865384615387 15.245793269230768  L 24.444110576923077 19.986778846153847  Z " fill-rule="nonzero" fill="#797979" stroke="none" transform="matrix(1 0 0 1 1531 180 )" />
  </g>
</svg>