<?xml version="1.0" encoding="utf-8"?>
<svg version="1.1" xmlns:xlink="http://www.w3.org/1999/xlink" width="9px" height="6px" xmlns="http://www.w3.org/2000/svg">
  <g transform="matrix(1 0 0 1 -1648 -184 )">
    <path d="M 8.8330078125 0.19791666666666696  C 8.9443359375 0.3298611111111105  9 0.4861111111111096  9 0.666666666666667  C 9 0.8472222222222217  8.9443359375 1.0034722222222214  8.8330078125 1.135416666666667  L 4.8955078125 5.802083333333333  C 4.7841796875 5.934027777777779  4.65234375 6  4.5 6  C 4.347656250000001 6  4.215820312500001 5.934027777777779  4.1044921875 5.802083333333333  L 0.1669921875 1.135416666666667  C 0.0556640625 1.0034722222222214  0 0.8472222222222217  0 0.666666666666667  C 0 0.4861111111111096  0.0556640625 0.3298611111111105  0.1669921875 0.19791666666666696  C 0.2783203125 0.06597222222222143  0.41015625000000006 0  0.5625 0  L 8.4375 0  C 8.58984375 0  8.7216796875 0.06597222222222143  8.8330078125 0.19791666666666696  Z " fill-rule="nonzero" fill="#797979" stroke="none" transform="matrix(1 0 0 1 1648 184 )" />
  </g>
</svg>