<?xml version="1.0" encoding="utf-8"?>
<svg version="1.1" xmlns:xlink="http://www.w3.org/1999/xlink" width="10px" height="22px" xmlns="http://www.w3.org/2000/svg">
  <g transform="matrix(1 0 0 1 -183 -232 )">
    <path d="M 9.883116883116884 5.016203703703704  C 9.995670995670997 5.1520061728395055  10.017316017316018 5.30054012345679  9.948051948051948 5.4618055555555545  C 9.87012987012987 5.623070987654319  9.744588744588745 5.703703703703704  9.571428571428571 5.703703703703704  L 6.662337662337663 5.703703703703704  L 6.662337662337663 21.59259259259259  C 6.662337662337663 21.71141975308642  6.623376623376624 21.80902777777778  6.545454545454545 21.885416666666664  C 6.467532467532467 21.961805555555554  6.367965367965368 22  6.246753246753247 22  L 3.7532467532467533 22  C 3.6320346320346326 22  3.5324675324675328 21.961805555555554  3.4545454545454546 21.885416666666664  C 3.3766233766233764 21.80902777777778  3.3376623376623376 21.71141975308642  3.3376623376623376 21.59259259259259  L 3.3376623376623376 5.703703703703704  L 0.4285714285714286 5.703703703703704  C 0.24675324675324678 5.703703703703704  0.12121212121212122 5.623070987654319  0.05194805194805195 5.4618055555555545  C -0.017316017316017326 5.30054012345679  0.0043290043290043195 5.1520061728395055  0.1168831168831169 5.016203703703704  L 4.662337662337662 0.127314814814816  C 4.74891774891775 0.04243827160493785  4.8484848484848495 0  4.961038961038961 0  C 5.082251082251083 0  5.186147186147187 0.04243827160493785  5.2727272727272725 0.127314814814816  L 9.883116883116884 5.016203703703704  Z " fill-rule="nonzero" fill="#797979" stroke="none" transform="matrix(1 0 0 1 183 232 )" />
  </g>
</svg>