<?xml version="1.0" encoding="utf-8"?>
<svg version="1.1" xmlns:xlink="http://www.w3.org/1999/xlink" width="24px" height="24px" viewBox="1461 24  24 24" xmlns="http://www.w3.org/2000/svg">
  <path d="M 1461.5 26  A 1.5 1.5 0 0 1 1463 24.5 L 1483 24.5  A 1.5 1.5 0 0 1 1484.5 26 L 1484.5 46  A 1.5 1.5 0 0 1 1483 47.5 L 1463 47.5  A 1.5 1.5 0 0 1 1461.5 46 L 1461.5 26  Z " fill-rule="nonzero" fill="#ffffff" stroke="none" />
  <path d="M 1461.5 26  A 1.5 1.5 0 0 1 1463 24.5 L 1483 24.5  A 1.5 1.5 0 0 1 1484.5 26 L 1484.5 46  A 1.5 1.5 0 0 1 1483 47.5 L 1463 47.5  A 1.5 1.5 0 0 1 1461.5 46 L 1461.5 26  Z " stroke-width="1" stroke="#797979" fill="none" />
</svg>