<?xml version="1.0" encoding="utf-8"?>
<svg version="1.1" xmlns:xlink="http://www.w3.org/1999/xlink" width="14px" height="22px" xmlns="http://www.w3.org/2000/svg">
  <g transform="matrix(1 0 0 1 -12 -20 )">
    <path d="M 13.907031250000001 15.905598958333332  C 13.969010416666666 16.62651909722222  14 17.39279513888889  14 18.204427083333336  C 14 19.245225694444446  13.772135416666668 20.138020833333336  13.31640625 20.8828125  C 12.860677083333334 21.627604166666664  12.311979166666667 22  11.6703125 22  L 2.3296875 22  C 1.6880208333333333 22  1.1393229166666667 21.627604166666664  0.6835937500000001 20.8828125  C 0.2278645833333334 20.138020833333336  0 19.245225694444446  0 18.204427083333336  C 0 17.39279513888889  0.030989583333333404 16.62651909722222  0.09296875000000009 15.905598958333332  C 0.15494791666666674 15.184678819444441  0.2697916666666667 14.458984375  0.4375000000000001 13.728515625  C 0.6052083333333336 12.998046875  0.8184895833333334 12.372612847222223  1.07734375 11.852213541666668  C 1.3361979166666669 11.331814236111109  1.67890625 10.906901041666666  2.10546875 10.577473958333334  C 2.5320312499999997 10.248046875  3.022395833333334 10.083333333333334  3.5765625000000005 10.083333333333334  C 4.531770833333334 11.305555555555554  5.6729166666666675 11.916666666666668  7 11.916666666666668  C 8.327083333333336 11.916666666666668  9.468229166666667 11.305555555555554  10.4234375 10.083333333333334  C 10.977604166666667 10.083333333333334  11.467968749999999 10.248046875  11.89453125 10.577473958333334  C 12.321093750000001 10.906901041666666  12.663802083333335 11.331814236111109  12.922656250000001 11.852213541666668  C 13.181510416666669 12.372612847222223  13.394791666666666 12.998046875  13.5625 13.728515625  C 13.730208333333335 14.458984375  13.845052083333334 15.184678819444441  13.907031250000001 15.905598958333332  Z M 9.969531250000001 1.611328125  C 10.789843750000001 2.685546875  11.200000000000001 3.981770833333334  11.200000000000001 5.5  C 11.200000000000001 7.018229166666666  10.789843750000001 8.314453125  9.969531250000001 9.388671875  C 9.149218750000001 10.462890625  8.159374999999999 11  7 11  C 5.840625 11  4.85078125 10.462890625  4.03046875 9.388671875  C 3.2101562500000003 8.314453125  2.8000000000000003 7.018229166666666  2.8000000000000003 5.5  C 2.8000000000000003 3.981770833333334  3.2101562500000003 2.685546875  4.03046875 1.611328125  C 4.85078125 0.537109375  5.840625 0  7 0  C 8.159374999999999 0  9.149218750000001 0.537109375  9.969531250000001 1.611328125  Z " fill-rule="nonzero" fill="#6b6c7e" stroke="none" transform="matrix(1 0 0 1 12 20 )" />
  </g>
</svg>