<?xml version="1.0" encoding="utf-8"?>
<svg version="1.1" xmlns:xlink="http://www.w3.org/1999/xlink" width="20px" height="20px" viewBox="122 232  20 20" xmlns="http://www.w3.org/2000/svg">
  <path d="M 122.5 234  A 1.5 1.5 0 0 1 124 232.5 L 140 232.5  A 1.5 1.5 0 0 1 141.5 234 L 141.5 250  A 1.5 1.5 0 0 1 140 251.5 L 124 251.5  A 1.5 1.5 0 0 1 122.5 250 L 122.5 234  Z " fill-rule="nonzero" fill="#f0f0f0" stroke="none" />
  <path d="M 122.5 234  A 1.5 1.5 0 0 1 124 232.5 L 140 232.5  A 1.5 1.5 0 0 1 141.5 234 L 141.5 250  A 1.5 1.5 0 0 1 140 251.5 L 124 251.5  A 1.5 1.5 0 0 1 122.5 250 L 122.5 234  Z " stroke-width="1" stroke="#797979" fill="none" />
</svg>