<?xml version="1.0" encoding="utf-8"?>
<svg version="1.1" xmlns:xlink="http://www.w3.org/1999/xlink" width="19px" height="19px" viewBox="669 375.5  19 19" xmlns="http://www.w3.org/2000/svg">
  <path d="M 678.5 375.5  C 683.82 375.5  688 379.68  688 385  C 688 390.32  683.82 394.5  678.5 394.5  C 673.18 394.5  669 390.32  669 385  C 669 379.68  673.18 375.5  678.5 375.5  Z " fill-rule="nonzero" fill="#f0f0f0" stroke="none" />
  <path d="M 678.5 376  C 683.54 376  687.5 379.96  687.5 385  C 687.5 390.04  683.54 394  678.5 394  C 673.46 394  669.5 390.04  669.5 385  C 669.5 379.96  673.46 376  678.5 376  Z " stroke-width="1" stroke="#f59a23" fill="none" />
  <path d="M 678.5 389.75  C 675.84 389.75  673.75 387.66  673.75 385  C 673.75 382.34  675.84 380.25  678.5 380.25  C 681.16 380.25  683.25 382.34  683.25 385  C 683.25 387.66  681.16 389.75  678.5 389.75  " fill-rule="nonzero" fill="#f59a23" stroke="none" />
</svg>