<?xml version="1.0" encoding="utf-8"?>
<svg version="1.1" xmlns:xlink="http://www.w3.org/1999/xlink" width="19px" height="19px" viewBox="504 373.5  19 19" xmlns="http://www.w3.org/2000/svg">
  <path d="M 513.5 373.5  C 518.82 373.5  523 377.68  523 383  C 523 388.32  518.82 392.5  513.5 392.5  C 508.18 392.5  504 388.32  504 383  C 504 377.68  508.18 373.5  513.5 373.5  Z " fill-rule="nonzero" fill="#f0f0f0" stroke="none" />
  <path d="M 513.5 374  C 518.54 374  522.5 377.96  522.5 383  C 522.5 388.04  518.54 392  513.5 392  C 508.46 392  504.5 388.04  504.5 383  C 504.5 377.96  508.46 374  513.5 374  Z " stroke-width="1" stroke="#f59a23" fill="none" />
  <path d="M 513.5 387.75  C 510.84 387.75  508.75 385.66  508.75 383  C 508.75 380.34  510.84 378.25  513.5 378.25  C 516.16 378.25  518.25 380.34  518.25 383  C 518.25 385.66  516.16 387.75  513.5 387.75  " fill-rule="nonzero" fill="#f59a23" stroke="none" />
</svg>