<?xml version="1.0" encoding="utf-8"?>
<svg version="1.1" xmlns:xlink="http://www.w3.org/1999/xlink" width="11px" height="8px" xmlns="http://www.w3.org/2000/svg">
  <g transform="matrix(1 0 0 1 -8 -11 )">
    <path d="M 11 1.7739130434782613  C 11 1.9104669887278583  10.956782464846981 2.0276972624798706  10.870347394540943 2.125603864734299  L 5.807071960297766 7.8531400966183575  C 5.720636889991729 7.951046698872786  5.618279569892473 8  5.5 8  C 5.381720430107528 8  5.279363110008272 7.951046698872786  5.192928039702233 7.8531400966183575  L 0.12965260545905707 2.125603864734299  C 0.043217535153019085 2.0276972624798706  0 1.9104669887278583  0 1.7739130434782613  C 0 1.6373590982286625  0.043217535153019085 1.5201288244766502  0.12965260545905707 1.4222222222222225  L 1.2624069478908189 0.14685990338164245  C 1.348842018196857 0.048953301127213855  1.4511993382961128 0  1.5694789081885854 0  C 1.687758478081059 0  1.7901157981803146 0.048953301127213855  1.8765508684863523 0.14685990338164245  L 5.5 4.251207729468598  L 9.123449131513647 0.14685990338164245  C 9.209884201819687 0.048953301127213855  9.312241521918942 0  9.430521091811414 0  C 9.54880066170389 0  9.651157981803145 0.048953301127213855  9.737593052109181 0.14685990338164245  L 10.870347394540943 1.4222222222222225  C 10.956782464846981 1.5201288244766502  11 1.6373590982286625  11 1.7739130434782613  Z " fill-rule="nonzero" fill="#aaaaaa" stroke="none" transform="matrix(1 0 0 1 8 11 )" />
  </g>
</svg>