<?xml version="1.0" encoding="utf-8"?>
<svg version="1.1" xmlns:xlink="http://www.w3.org/1999/xlink" width="16px" height="16px" xmlns="http://www.w3.org/2000/svg">
  <g transform="matrix(1 0 0 1 -1258 -39 )">
    <path d="M 0.13331532192999604 12.533805020201909  C 0.04443849582532753 12.622681846306577  0 12.729332881459008  0 12.853760436681176  C 0 12.853760436681176  0 15.555615876098496  0 15.555615876098496  C 0 15.804470986542833  0.19552901345716703 16  0.44438412390150306 16  C 0.44438412390150306 16  3.1462395633188236 16  3.1462395633188236 16  C 3.261779431295237 16  3.377319219809577 15.955561927972399  3.4573083652903307 15.866685101867729  C 3.4573083652903307 15.866685101867729  13.162657275309067 6.170223653952205  13.162657275309067 6.170223653952205  L 9.829777193643245 2.837342936589795  C 9.829777193643245 2.837342936589795  0.13331532192999604 12.533805020201909  0.13331532192999604 12.533805020201909  Z M 14.11363902922774 5.219241900033533  C 14.11363902922774 5.219241900033533  15.740084854899605 3.592796074361668  15.740084854899605 3.592796074361668  C 15.822476827534986 3.5105728659268216  15.887843564207738 3.4129070643372623  15.932443252160176 3.305389806499256  C 15.977042940112614 3.1978725486612496  16 3.082614890239038  16 2.966214315569322  C 16 2.849813740899606  15.977042940112614 2.7345560824773942  15.932443252160176 2.6270388246393876  C 15.887843564207738 2.5195215668013815  15.822476827534986 2.4218559771106847  15.740084854899605 2.339632768675839  C 15.740084854899605 2.339632768675839  13.660368714616201 0.25991493320153225  13.660368714616201 0.25991493320153225  C 13.578145506181354 0.17752296056615138  13.480479916490658 0.11215622389339792  13.372962658652652 0.06755653594096074  C 13.265445400814645 0.022956847988523557  13.150187742392433 0  13.033787167722718 0  C 12.917386593053001 0  12.802127239439887 0.022956847988523557  12.69460998160188 0.06755653594096074  C 12.587092723763874 0.11215622389339792  12.489427134073178 0.17752296056615138  12.407203925638331 0.25991493320153225  C 12.407203925638331 0.25991493320153225  10.780758947561917 1.8863607588733973  10.780758947561917 1.8863607588733973  L 14.11363902922774 5.219241900033533  Z " fill-rule="nonzero" fill="#767676" stroke="none" transform="matrix(1 0 0 1 1258 39 )" />
  </g>
</svg>