<?xml version="1.0" encoding="utf-8"?>
<svg version="1.1" xmlns:xlink="http://www.w3.org/1999/xlink" width="16px" height="16px" xmlns="http://www.w3.org/2000/svg">
  <g transform="matrix(1 0 0 1 -1259 -68 )">
    <path d="M 3.9999996185303095 10.879999267578196  L 5.119999206543044 11.99999885559093  L 7.999999237060619 9.119998825073354  L 10.879999267578196 11.99999885559093  L 11.99999885559093 10.879999267578196  L 9.119998825073354 7.999999237060619  L 11.99999885559093 5.119999206543044  L 10.879999267578196 3.9999996185303095  L 7.999999237060619 6.8799996490478845  L 5.119999206543044 3.9999996185303095  L 3.9999996185303095 5.119999206543044  L 6.8799996490478845 7.999999237060619  L 3.9999996185303095 10.879999267578196  Z M 11.11999863433851 15.370398009262274  C 10.146665368398155 15.790664645131622  9.10666579182951 16.000531807397998  7.999999237060619 15.999998474121238  C 6.893332682291728 15.999998474121238  5.853333105723084 15.789865084660999  4.879999839782729 15.36959844879165  C 3.9066665738423754 14.949331812922305  3.0599998416900784 14.379465925267608  2.339999929428107 13.659999307632512  C 1.620000017166136 12.93999939537054  1.0501333188883477 12.093331900278864  0.6304000253295874 11.11999863433851  C 0.21066673177082715 10.146665368398155  0.0005333332767585967 9.10666579182951  0 7.999999237060619  C 0 6.893332682291728  0.2101333894602404 5.853333105723084  0.6304000253295874 4.879999839782729  C 1.0506666611989346 3.9066665738423754  1.6205333117930114 3.0599998416900784  2.339999929428107 2.339999929428107  C 3.0599998416900784 1.620000017166136  3.9066665738423754 1.0501333188883477  4.879999839782729 0.6304000253295874  C 5.853333105723084 0.21066673177082715  6.893332682291728 0.0005333332767585967  7.999999237060619 0  C 9.10666579182951 0  10.146665368398155 0.2101333894602404  11.11999863433851 0.6304000253295874  C 12.093331900278864 1.0506666611989346  12.93999939537054 1.6205333117930114  13.659999307632512 2.339999929428107  C 14.379999219894483 3.0599998416900784  14.950131373392926 3.9066665738423754  15.370398009262274 4.879999839782729  C 15.790664645131622 5.853333105723084  16.000531807397998 6.893332682291728  15.999998474121238 7.999999237060619  C 15.999998474121238 9.10666579182951  15.789865084660999 10.146665368398155  15.36959844879165 11.11999863433851  C 14.949331812922305 12.093331900278864  14.379465925267608 12.93999939537054  13.659999307632512 13.659999307632512  C 12.93999939537054 14.379999219894483  12.093331900278864 14.950131373392926  11.11999863433851 15.370398009262274  Z " fill-rule="nonzero" fill="#767676" stroke="none" transform="matrix(1 0 0 1 1259 68 )" />
  </g>
</svg>