<?xml version="1.0" encoding="utf-8"?>
<svg version="1.1" xmlns:xlink="http://www.w3.org/1999/xlink" width="19px" height="19px" viewBox="726 1481  19 19" xmlns="http://www.w3.org/2000/svg">
  <path d="M 735.5 1481  C 740.82 1481  745 1485.18  745 1490.5  C 745 1495.82  740.82 1500  735.5 1500  C 730.18 1500  726 1495.82  726 1490.5  C 726 1485.18  730.18 1481  735.5 1481  Z " fill-rule="nonzero" fill="#ffffff" stroke="none" />
  <path d="M 735.5 1481.5  C 740.54 1481.5  744.5 1485.46  744.5 1490.5  C 744.5 1495.54  740.54 1499.5  735.5 1499.5  C 730.46 1499.5  726.5 1495.54  726.5 1490.5  C 726.5 1485.46  730.46 1481.5  735.5 1481.5  Z " stroke-width="1" stroke="#f59a23" fill="none" />
  <path d="M 735.5 1495.25  C 732.84 1495.25  730.75 1493.16  730.75 1490.5  C 730.75 1487.84  732.84 1485.75  735.5 1485.75  C 738.16 1485.75  740.25 1487.84  740.25 1490.5  C 740.25 1493.16  738.16 1495.25  735.5 1495.25  " fill-rule="nonzero" fill="#f59a23" stroke="none" />
</svg>