<?xml version="1.0" encoding="utf-8"?>
<svg version="1.1" xmlns:xlink="http://www.w3.org/1999/xlink" width="19px" height="19px" viewBox="942 1481  19 19" xmlns="http://www.w3.org/2000/svg">
  <path d="M 951.5 1481  C 956.82 1481  961 1485.18  961 1490.5  C 961 1495.82  956.82 1500  951.5 1500  C 946.18 1500  942 1495.82  942 1490.5  C 942 1485.18  946.18 1481  951.5 1481  Z " fill-rule="nonzero" fill="#ffffff" stroke="none" />
  <path d="M 951.5 1481.5  C 956.54 1481.5  960.5 1485.46  960.5 1490.5  C 960.5 1495.54  956.54 1499.5  951.5 1499.5  C 946.46 1499.5  942.5 1495.54  942.5 1490.5  C 942.5 1485.46  946.46 1481.5  951.5 1481.5  Z " stroke-width="1" stroke="#f59a23" fill="none" />
  <path d="M 951.5 1495.25  C 948.84 1495.25  946.75 1493.16  946.75 1490.5  C 946.75 1487.84  948.84 1485.75  951.5 1485.75  C 954.16 1485.75  956.25 1487.84  956.25 1490.5  C 956.25 1493.16  954.16 1495.25  951.5 1495.25  " fill-rule="nonzero" fill="#f59a23" stroke="none" />
</svg>