<?xml version="1.0" encoding="utf-8"?>
<svg version="1.1" xmlns:xlink="http://www.w3.org/1999/xlink" width="19px" height="19px" viewBox="823 1481  19 19" xmlns="http://www.w3.org/2000/svg">
  <path d="M 832.5 1481  C 837.82 1481  842 1485.18  842 1490.5  C 842 1495.82  837.82 1500  832.5 1500  C 827.18 1500  823 1495.82  823 1490.5  C 823 1485.18  827.18 1481  832.5 1481  Z " fill-rule="nonzero" fill="#ffffff" stroke="none" />
  <path d="M 832.5 1481.5  C 837.54 1481.5  841.5 1485.46  841.5 1490.5  C 841.5 1495.54  837.54 1499.5  832.5 1499.5  C 827.46 1499.5  823.5 1495.54  823.5 1490.5  C 823.5 1485.46  827.46 1481.5  832.5 1481.5  Z " stroke-width="1" stroke="#f59a23" fill="none" />
  <path d="M 832.5 1495.25  C 829.84 1495.25  827.75 1493.16  827.75 1490.5  C 827.75 1487.84  829.84 1485.75  832.5 1485.75  C 835.16 1485.75  837.25 1487.84  837.25 1490.5  C 837.25 1493.16  835.16 1495.25  832.5 1495.25  " fill-rule="nonzero" fill="#f59a23" stroke="none" />
</svg>