<?xml version="1.0" encoding="utf-8"?>
<svg version="1.1" xmlns:xlink="http://www.w3.org/1999/xlink" width="19px" height="19px" viewBox="456 428.5  19 19" xmlns="http://www.w3.org/2000/svg">
  <path d="M 465.5 428.5  C 470.82 428.5  475 432.68  475 438  C 475 443.32  470.82 447.5  465.5 447.5  C 460.18 447.5  456 443.32  456 438  C 456 432.68  460.18 428.5  465.5 428.5  Z " fill-rule="nonzero" fill="#ffffff" stroke="none" />
  <path d="M 465.5 429  C 470.54 429  474.5 432.96  474.5 438  C 474.5 443.04  470.54 447  465.5 447  C 460.46 447  456.5 443.04  456.5 438  C 456.5 432.96  460.46 429  465.5 429  Z " stroke-width="1" stroke="#f59a23" fill="none" />
  <path d="M 465.5 442.75  C 462.84 442.75  460.75 440.66  460.75 438  C 460.75 435.34  462.84 433.25  465.5 433.25  C 468.16 433.25  470.25 435.34  470.25 438  C 470.25 440.66  468.16 442.75  465.5 442.75  " fill-rule="nonzero" fill="#f59a23" stroke="none" />
</svg>