<?xml version="1.0" encoding="utf-8"?>
<svg version="1.1" xmlns:xlink="http://www.w3.org/1999/xlink" width="16px" height="14px" xmlns="http://www.w3.org/2000/svg">
  <g transform="matrix(1 0 0 1 -1243 -39 )">
    <path d="M 15.830357142857142 11.643465909090908  C 15.943452380952381 11.769412878787879  16 11.918560606060606  16 12.090909090909092  L 16 13.363636363636363  C 16 13.535984848484848  15.943452380952381 13.685132575757574  15.830357142857142 13.811079545454545  C 15.717261904761907 13.937026515151516  15.583333333333334 14  15.428571428571429 14  L 0.5714285714285714 14  C 0.4166666666666667 14  0.28273809523809523 13.937026515151516  0.16964285714285715 13.811079545454545  C 0.05654761904761905 13.685132575757574  0 13.535984848484848  0 13.363636363636363  L 0 12.090909090909092  C 0 11.918560606060606  0.05654761904761905 11.769412878787879  0.16964285714285715 11.643465909090908  C 0.28273809523809523 11.51751893939394  0.4166666666666667 11.454545454545453  0.5714285714285714 11.454545454545453  L 15.428571428571429 11.454545454545453  C 15.583333333333334 11.454545454545453  15.717261904761907 11.51751893939394  15.830357142857142 11.643465909090908  Z M 15.830357142857142 7.825284090909091  C 15.943452380952381 7.95123106060606  16 8.100378787878789  16 8.272727272727272  L 16 9.545454545454547  C 16 9.71780303030303  15.943452380952381 9.866950757575756  15.830357142857142 9.992897727272728  C 15.717261904761907 10.118844696969699  15.583333333333334 10.181818181818182  15.428571428571429 10  L 0.5714285714285714 10  C 0.4166666666666667 10.181818181818182  0.28273809523809523 10.118844696969699  0.16964285714285715 9.992897727272728  C 0.05654761904761905 9.866950757575756  0 9.71780303030303  0 9.545454545454547  L 0 8.272727272727272  C 0 8.100378787878789  0.05654761904761905 7.95123106060606  0.16964285714285715 7.825284090909091  C 0.28273809523809523 7.699337121212119  0.4166666666666667 7.636363636363636  0.5714285714285714 7.636363636363636  L 15.428571428571429 7.636363636363636  C 15.583333333333334 7.636363636363636  15.717261904761907 7.699337121212119  15.830357142857142 7.825284090909091  Z M 15.830357142857142 4.007102272727273  C 15.943452380952381 4.133049242424242  16 4.282196969696969  16 4.454545454545455  L 16 5.727272727272727  C 16 5.899621212121212  15.943452380952381 6.048768939393939  15.830357142857142 6.174715909090909  C 15.717261904761907 6.300662878787879  15.583333333333334 6.363636363636364  15.428571428571429 6.363636363636364  L 0.5714285714285714 6.363636363636364  C 0.4166666666666667 6.363636363636364  0.28273809523809523 6.300662878787879  0.16964285714285715 6.174715909090909  C 0.05654761904761905 6.048768939393939  0 5.899621212121212  0 5.727272727272727  L 0 4.454545454545455  C 0 4.282196969696969  0.05654761904761905 4.133049242424242  0.16964285714285715 4.007102272727273  C 0.28273809523809523 3.8811553030303028  0.4166666666666667 3.818181818181818  0.5714285714285714 4  L 15.428571428571429 4  C 15.583333333333334 3.818181818181818  15.717261904761907 3.8811553030303028  15.830357142857142 4.007102272727273  Z M 15.830357142857142 0.18892045454545525  C 15.943452380952381 0.3148674242424223  16 0.4640151515151507  16 0.6363636363636358  L 16 1.909090909090909  C 16 2.0814393939393927  15.943452380952381 2.230587121212121  15.830357142857142 2.356534090909091  C 15.717261904761907 2.4824810606060597  15.583333333333334 2.545454545454545  15.428571428571429 2.545454545454545  L 0.5714285714285714 2.545454545454545  C 0.4166666666666667 2.545454545454545  0.28273809523809523 2.4824810606060597  0.16964285714285715 2.356534090909091  C 0.05654761904761905 2.230587121212121  0 2.0814393939393927  0 1.909090909090909  L 0 0.6363636363636358  C 0 0.4640151515151507  0.05654761904761905 0.3148674242424223  0.16964285714285715 0.18892045454545525  C 0.28273809523809523 0.06297348484848353  0.4166666666666667 0  0.5714285714285714 0  L 15.428571428571429 0  C 15.583333333333334 0  15.717261904761907 0.06297348484848353  15.830357142857142 0.18892045454545525  Z " fill-rule="nonzero" fill="#000000" stroke="none" transform="matrix(1 0 0 1 1243 39 )" />
  </g>
</svg>