<?xml version="1.0" encoding="utf-8"?>
<svg version="1.1" xmlns:xlink="http://www.w3.org/1999/xlink" width="19px" height="19px" viewBox="314 428.5  19 19" xmlns="http://www.w3.org/2000/svg">
  <path d="M 323.5 428.5  C 328.82 428.5  333 432.68  333 438  C 333 443.32  328.82 447.5  323.5 447.5  C 318.18 447.5  314 443.32  314 438  C 314 432.68  318.18 428.5  323.5 428.5  Z " fill-rule="nonzero" fill="#ffffff" stroke="none" />
  <path d="M 323.5 429  C 328.54 429  332.5 432.96  332.5 438  C 332.5 443.04  328.54 447  323.5 447  C 318.46 447  314.5 443.04  314.5 438  C 314.5 432.96  318.46 429  323.5 429  Z " stroke-width="1" stroke="#f59a23" fill="none" />
  <path d="M 323.5 442.75  C 320.84 442.75  318.75 440.66  318.75 438  C 318.75 435.34  320.84 433.25  323.5 433.25  C 326.16 433.25  328.25 435.34  328.25 438  C 328.25 440.66  326.16 442.75  323.5 442.75  " fill-rule="nonzero" fill="#f59a23" stroke="none" />
</svg>