<?xml version="1.0" encoding="utf-8"?>
<svg version="1.1" xmlns:xlink="http://www.w3.org/1999/xlink" width="19px" height="19px" viewBox="729 144  19 19" xmlns="http://www.w3.org/2000/svg">
  <path d="M 738.5 144  C 743.82 144  748 148.18  748 153.5  C 748 158.82  743.82 163  738.5 163  C 733.18 163  729 158.82  729 153.5  C 729 148.18  733.18 144  738.5 144  Z " fill-rule="nonzero" fill="#f0f0f0" stroke="none" />
  <path d="M 738.5 144.5  C 743.54 144.5  747.5 148.46  747.5 153.5  C 747.5 158.54  743.54 162.5  738.5 162.5  C 733.46 162.5  729.5 158.54  729.5 153.5  C 729.5 148.46  733.46 144.5  738.5 144.5  Z " stroke-width="1" stroke="#f59a23" fill="none" />
  <path d="M 738.5 158.25  C 735.84 158.25  733.75 156.16  733.75 153.5  C 733.75 150.84  735.84 148.75  738.5 148.75  C 741.16 148.75  743.25 150.84  743.25 153.5  C 743.25 156.16  741.16 158.25  738.5 158.25  " fill-rule="nonzero" fill="#f59a23" stroke="none" />
</svg>