<?xml version="1.0" encoding="utf-8"?>
<svg version="1.1" xmlns:xlink="http://www.w3.org/1999/xlink" width="19px" height="19px" viewBox="729 139  19 19" xmlns="http://www.w3.org/2000/svg">
  <path d="M 738.5 139  C 743.82 139  748 143.18  748 148.5  C 748 153.82  743.82 158  738.5 158  C 733.18 158  729 153.82  729 148.5  C 729 143.18  733.18 139  738.5 139  Z " fill-rule="nonzero" fill="#f0f0f0" stroke="none" />
  <path d="M 738.5 139.5  C 743.54 139.5  747.5 143.46  747.5 148.5  C 747.5 153.54  743.54 157.5  738.5 157.5  C 733.46 157.5  729.5 153.54  729.5 148.5  C 729.5 143.46  733.46 139.5  738.5 139.5  Z " stroke-width="1" stroke="#f59a23" fill="none" />
  <path d="M 738.5 153.25  C 735.84 153.25  733.75 151.16  733.75 148.5  C 733.75 145.84  735.84 143.75  738.5 143.75  C 741.16 143.75  743.25 145.84  743.25 148.5  C 743.25 151.16  741.16 153.25  738.5 153.25  " fill-rule="nonzero" fill="#f59a23" stroke="none" />
</svg>