<?xml version="1.0" encoding="utf-8"?>
<svg version="1.1" xmlns:xlink="http://www.w3.org/1999/xlink" width="19px" height="19px" viewBox="855 144  19 19" xmlns="http://www.w3.org/2000/svg">
  <path d="M 864.5 144  C 869.82 144  874 148.18  874 153.5  C 874 158.82  869.82 163  864.5 163  C 859.18 163  855 158.82  855 153.5  C 855 148.18  859.18 144  864.5 144  Z " fill-rule="nonzero" fill="#f0f0f0" stroke="none" />
  <path d="M 864.5 144.5  C 869.54 144.5  873.5 148.46  873.5 153.5  C 873.5 158.54  869.54 162.5  864.5 162.5  C 859.46 162.5  855.5 158.54  855.5 153.5  C 855.5 148.46  859.46 144.5  864.5 144.5  Z " stroke-width="1" stroke="#f59a23" fill="none" />
  <path d="M 864.5 158.25  C 861.84 158.25  859.75 156.16  859.75 153.5  C 859.75 150.84  861.84 148.75  864.5 148.75  C 867.16 148.75  869.25 150.84  869.25 153.5  C 869.25 156.16  867.16 158.25  864.5 158.25  " fill-rule="nonzero" fill="#f59a23" stroke="none" />
</svg>