<?xml version="1.0" encoding="utf-8"?>
<svg version="1.1" xmlns:xlink="http://www.w3.org/1999/xlink" width="19px" height="19px" viewBox="855 139  19 19" xmlns="http://www.w3.org/2000/svg">
  <path d="M 864.5 139  C 869.82 139  874 143.18  874 148.5  C 874 153.82  869.82 158  864.5 158  C 859.18 158  855 153.82  855 148.5  C 855 143.18  859.18 139  864.5 139  Z " fill-rule="nonzero" fill="#f0f0f0" stroke="none" />
  <path d="M 864.5 139.5  C 869.54 139.5  873.5 143.46  873.5 148.5  C 873.5 153.54  869.54 157.5  864.5 157.5  C 859.46 157.5  855.5 153.54  855.5 148.5  C 855.5 143.46  859.46 139.5  864.5 139.5  Z " stroke-width="1" stroke="#f59a23" fill="none" />
  <path d="M 864.5 153.25  C 861.84 153.25  859.75 151.16  859.75 148.5  C 859.75 145.84  861.84 143.75  864.5 143.75  C 867.16 143.75  869.25 145.84  869.25 148.5  C 869.25 151.16  867.16 153.25  864.5 153.25  " fill-rule="nonzero" fill="#f59a23" stroke="none" />
</svg>