<?xml version="1.0" encoding="utf-8"?>
<svg version="1.1" xmlns:xlink="http://www.w3.org/1999/xlink" width="20px" height="20px" viewBox="120 442  20 20" xmlns="http://www.w3.org/2000/svg">
  <path d="M 120.5 444  A 1.5 1.5 0 0 1 122 442.5 L 138 442.5  A 1.5 1.5 0 0 1 139.5 444 L 139.5 460  A 1.5 1.5 0 0 1 138 461.5 L 122 461.5  A 1.5 1.5 0 0 1 120.5 460 L 120.5 444  Z " fill-rule="nonzero" fill="#f0f0f0" stroke="none" />
  <path d="M 120.5 444  A 1.5 1.5 0 0 1 122 442.5 L 138 442.5  A 1.5 1.5 0 0 1 139.5 444 L 139.5 460  A 1.5 1.5 0 0 1 138 461.5 L 122 461.5  A 1.5 1.5 0 0 1 120.5 460 L 120.5 444  Z " stroke-width="1" stroke="#797979" fill="none" />
  <path d="M 124.28571428571429 452  L 128.57142857142858 456.2857142857143  L 135.71428571428572 446.2857142857143  " stroke-width="4.285714285714286" stroke="#797979" fill="none" />
</svg>