<?xml version="1.0" encoding="utf-8"?>
<svg version="1.1" xmlns:xlink="http://www.w3.org/1999/xlink" width="20px" height="20px" viewBox="121 302  20 20" xmlns="http://www.w3.org/2000/svg">
  <path d="M 121.5 304  A 1.5 1.5 0 0 1 123 302.5 L 139 302.5  A 1.5 1.5 0 0 1 140.5 304 L 140.5 320  A 1.5 1.5 0 0 1 139 321.5 L 123 321.5  A 1.5 1.5 0 0 1 121.5 320 L 121.5 304  Z " fill-rule="nonzero" fill="#f0f0f0" stroke="none" />
  <path d="M 121.5 304  A 1.5 1.5 0 0 1 123 302.5 L 139 302.5  A 1.5 1.5 0 0 1 140.5 304 L 140.5 320  A 1.5 1.5 0 0 1 139 321.5 L 123 321.5  A 1.5 1.5 0 0 1 121.5 320 L 121.5 304  Z " stroke-width="1" stroke="#797979" fill="none" />
</svg>