<?xml version="1.0" encoding="utf-8"?>
<svg version="1.1" xmlns:xlink="http://www.w3.org/1999/xlink" width="27px" height="23px" xmlns="http://www.w3.org/2000/svg">
  <g transform="matrix(1 0 0 1 -1528 -180 )">
    <path d="M 16.55859375 14.10546875  C 17.981069711538463 12.893729967948717  18.692307692307693 11.435496794871794  18.692307692307693 9.730769230769232  C 18.692307692307693 8.026041666666664  17.981069711538463 6.567808493589743  16.55859375 5.356069711538462  C 15.13611778846154 4.144330929487178  13.424278846153847 3.5384615384615388  11.423076923076923 3.5384615384615388  C 9.421875000000002 3.5384615384615388  7.710036057692309 4.144330929487178  6.287560096153846 5.356069711538462  C 4.865084134615385 6.567808493589743  4.153846153846154 8.026041666666664  4.153846153846154 9.730769230769232  C 4.153846153846154 11.435496794871794  4.865084134615385 12.893729967948717  6.287560096153846 14.10546875  C 7.710036057692309 15.317207532051277  9.421875000000002 15.923076923076923  11.423076923076923 15.923076923076923  C 13.424278846153847 15.923076923076923  15.13611778846154 15.317207532051277  16.55859375 14.10546875  Z M 26.399639423076923 19.986778846153847  C 26.79987980769231 20.32772435897436  27 20.74238782051282  27 21.230769230769234  C 27 21.709935897435898  26.794471153846157 22.12459935897436  26.383413461538463 22.474759615384617  C 25.97235576923077 22.824919871794872  25.485576923076927 23  24.923076923076923 23  C 24.338942307692307 23  23.852163461538463 22.824919871794872  23.462740384615383 22.474759615384617  L 17.897235576923077 17.747596153846153  C 15.960937500000002 18.89022435897436  13.802884615384617 19.46153846153846  11.423076923076923 19.46153846153846  C 9.876201923076923 19.46153846153846  8.396935096153847 19.205829326923077  6.985276442307692 18.69441105769231  C 5.573617788461538 18.18299278846154  4.356670673076923 17.491887019230766  3.3344350961538463 16.62109375  C 2.312199519230769 15.750300480769232  1.5009014423076925 14.713641826923077  0.9005408653846154 13.511117788461538  C 0.3001802884615385 12.30859375  0 11.048477564102562  0 9.730769230769232  C 0 8.413060897435894  0.3001802884615385 7.152944711538462  0.9005408653846154 5.9504206730769225  C 1.5009014423076925 4.747896634615384  2.312199519230769 3.7112379807692317  3.3344350961538463 2.8404447115384612  C 4.356670673076923 1.9696514423076934  5.573617788461538 1.2785456730769227  6.985276442307692 0.7671274038461546  C 8.396935096153847 0.255709134615384  9.876201923076923 0  11.423076923076923 0  C 12.969951923076923 0  14.44921875 0.255709134615384  15.860877403846153 0.7671274038461546  C 17.272536057692307 1.2785456730769227  18.489483173076923 1.9696514423076934  19.51171875 2.8404447115384612  C 20.533954326923077 3.7112379807692317  21.345252403846153 4.747896634615384  21.94561298076923 5.9504206730769225  C 22.545973557692307 7.152944711538462  22.846153846153847 8.413060897435894  22.846153846153847 9.730769230769232  C 22.846153846153847 11.75801282051282  22.17548076923077 13.596354166666664  20.834134615384617 15.245793269230768  L 26.399639423076923 19.986778846153847  Z " fill-rule="nonzero" fill="#797979" stroke="none" transform="matrix(1 0 0 1 1528 180 )" />
  </g>
</svg>