<?xml version="1.0" encoding="utf-8"?>
<svg version="1.1" xmlns:xlink="http://www.w3.org/1999/xlink" width="20px" height="20px" viewBox="2000 302  20 20" xmlns="http://www.w3.org/2000/svg">
  <path d="M 2000.5 304  A 1.5 1.5 0 0 1 2002 302.5 L 2018 302.5  A 1.5 1.5 0 0 1 2019.5 304 L 2019.5 320  A 1.5 1.5 0 0 1 2018 321.5 L 2002 321.5  A 1.5 1.5 0 0 1 2000.5 320 L 2000.5 304  Z " fill-rule="nonzero" fill="#f0f0f0" stroke="none" />
  <path d="M 2000.5 304  A 1.5 1.5 0 0 1 2002 302.5 L 2018 302.5  A 1.5 1.5 0 0 1 2019.5 304 L 2019.5 320  A 1.5 1.5 0 0 1 2018 321.5 L 2002 321.5  A 1.5 1.5 0 0 1 2000.5 320 L 2000.5 304  Z " stroke-width="1" stroke="#797979" fill="none" />
</svg>