<?xml version="1.0" encoding="utf-8"?>
<svg version="1.1" xmlns:xlink="http://www.w3.org/1999/xlink" width="20px" height="20px" viewBox="1999 442  20 20" xmlns="http://www.w3.org/2000/svg">
  <path d="M 1999.5 444  A 1.5 1.5 0 0 1 2001 442.5 L 2017 442.5  A 1.5 1.5 0 0 1 2018.5 444 L 2018.5 460  A 1.5 1.5 0 0 1 2017 461.5 L 2001 461.5  A 1.5 1.5 0 0 1 1999.5 460 L 1999.5 444  Z " fill-rule="nonzero" fill="#f2f2f2" stroke="none" fill-opacity="0" />
  <path d="M 1999.5 444  A 1.5 1.5 0 0 1 2001 442.5 L 2017 442.5  A 1.5 1.5 0 0 1 2018.5 444 L 2018.5 460  A 1.5 1.5 0 0 1 2017 461.5 L 2001 461.5  A 1.5 1.5 0 0 1 1999.5 460 L 1999.5 444  Z " stroke-width="1" stroke="#797979" fill="none" />
  <path d="M 2003.2857142857142 452  L 2007.5714285714287 456.2857142857143  L 2014.7142857142858 446.2857142857143  " stroke-width="4.285714285714286" stroke="#797979" fill="none" />
</svg>