<?xml version="1.0" encoding="utf-8"?>
<svg version="1.1" xmlns:xlink="http://www.w3.org/1999/xlink" width="20px" height="20px" viewBox="2000 581  20 20" xmlns="http://www.w3.org/2000/svg">
  <path d="M 2000.5 583  A 1.5 1.5 0 0 1 2002 581.5 L 2018 581.5  A 1.5 1.5 0 0 1 2019.5 583 L 2019.5 599  A 1.5 1.5 0 0 1 2018 600.5 L 2002 600.5  A 1.5 1.5 0 0 1 2000.5 599 L 2000.5 583  Z " fill-rule="nonzero" fill="#f2f2f2" stroke="none" fill-opacity="0" />
  <path d="M 2000.5 583  A 1.5 1.5 0 0 1 2002 581.5 L 2018 581.5  A 1.5 1.5 0 0 1 2019.5 583 L 2019.5 599  A 1.5 1.5 0 0 1 2018 600.5 L 2002 600.5  A 1.5 1.5 0 0 1 2000.5 599 L 2000.5 583  Z " stroke-width="1" stroke="#797979" fill="none" />
</svg>