<?xml version="1.0" encoding="utf-8"?>
<svg version="1.1" xmlns:xlink="http://www.w3.org/1999/xlink" width="7px" height="11px" xmlns="http://www.w3.org/2000/svg">
  <g transform="matrix(1 0 0 1 -192 -1698 )">
    <path d="M 6.8701171875 6.648437500000001  C 6.956705729166667 6.747395833333332  7 6.864583333333333  7 7  C 7 7.135416666666667  6.956705729166667 7.252604166666665  6.8701171875 7.3515625  L 3.8076171875 10.8515625  C 3.7210286458333335 10.950520833333334  3.6184895833333335 11  3.5 11  C 3.381510416666667 11  3.278971354166667 10.950520833333334  3.1923828125 10.8515625  L 0.1298828125 7.3515625  C 0.04329427083333333 7.252604166666665  0 7.135416666666667  0 7  C 0 6.864583333333333  0.04329427083333333 6.747395833333332  0.1298828125 6.648437500000001  C 0.21647135416666669 6.549479166666666  0.3190104166666667 6.499999999999999  0.4375 6.499999999999999  L 6.5625 6.499999999999999  C 6.680989583333334 6.499999999999999  6.783528645833334 6.549479166666666  6.8701171875 6.648437500000001  Z M 6.8701171875 3.6484375  C 6.956705729166667 3.747395833333332  7 3.864583333333332  7 4  C 7 4.135416666666666  6.956705729166667 4.252604166666667  6.8701171875 4.3515625  C 6.783528645833334 4.450520833333334  6.680989583333334 4.5  6.5625 4.5  L 0.4375 4.5  C 0.3190104166666667 4.5  0.21647135416666669 4.450520833333334  0.1298828125 4.3515625  C 0.04329427083333333 4.252604166666667  0 4.135416666666666  0 4  C 0 3.864583333333332  0.04329427083333333 3.747395833333332  0.1298828125 3.6484375  L 3.1923828125 0.14843750000000056  C 3.278971354166667 0.04947916666666563  3.381510416666667 0  3.5 0  C 3.6184895833333335 0  3.7210286458333335 0.04947916666666563  3.8076171875 0.14843750000000056  L 6.8701171875 3.6484375  Z " fill-rule="nonzero" fill="#7f7f7f" stroke="none" transform="matrix(1 0 0 1 192 1698 )" />
  </g>
</svg>