<?xml version="1.0" encoding="utf-8"?>
<svg version="1.1" xmlns:xlink="http://www.w3.org/1999/xlink" width="16px" height="16px" xmlns="http://www.w3.org/2000/svg">
  <g transform="matrix(1 0 0 1 -2052 -304 )">
    <path d="M 3.984375 1.072916666666666  C 5.210069444444445 0.3576388888888875  6.548611111111112 0  8 0  C 9.45138888888889 0  10.789930555555557 0.3576388888888875  12.015625 1.072916666666666  C 13.241319444444445 1.7881944444444429  14.211805555555557 2.7586805555555554  14.927083333333334 3.984375  C 15.642361111111109 5.210069444444443  16 6.548611111111109  16 8  C 16 9.45138888888889  15.642361111111109 10.789930555555554  14.927083333333334 12.015625  C 14.211805555555557 13.241319444444445  13.241319444444445 14.211805555555555  12.015625 14.927083333333334  C 10.789930555555557 15.642361111111112  9.45138888888889 16  8 16  C 6.548611111111112 16  5.210069444444445 15.642361111111112  3.984375 14.927083333333334  C 2.758680555555556 14.211805555555555  1.7881944444444446 13.241319444444445  1.0729166666666667 12.015625  C 0.35763888888888884 10.789930555555554  0 9.45138888888889  0 8  C 0 6.548611111111109  0.35763888888888884 5.210069444444443  1.0729166666666667 3.984375  C 1.7881944444444446 2.7586805555555554  2.758680555555556 1.7881944444444429  3.984375 1.072916666666666  Z M 11.302083333333334 5.302083333333334  C 11.184027777777779 5.267361111111109  11.034722222222223 5.309027777777777  10.854166666666666 5.427083333333334  C 10.840277777777779 5.434027777777777  10.807291666666666 5.4670138888888875  10.755208333333334 5.526041666666666  C 10.703125 5.585069444444445  10.65625 5.618055555555555  10.614583333333334 5.625  C 10.628472222222223 5.625  10.644097222222223 5.6076388888888875  10.661458333333334 5.572916666666666  C 10.678819444444445 5.538194444444445  10.696180555555557 5.5  10.713541666666666 5.458333333333334  C 10.730902777777779 5.416666666666666  10.743055555555557 5.392361111111111  10.75 5.385416666666666  C 10.791666666666666 5.336805555555555  10.868055555555557 5.284722222222221  10.979166666666666 5.229166666666666  C 11.076388888888891 5.1875  11.256944444444445 5.145833333333334  11.520833333333334 5.104166666666666  C 11.756944444444445 5.048611111111109  11.934027777777779 5.086805555555555  12.052083333333334 5.21875  C 12.038194444444445 5.204861111111109  12.071180555555557 5.159722222222221  12.151041666666666 5.083333333333334  C 12.230902777777779 5.006944444444443  12.28125 4.965277777777777  12.302083333333334 4.958333333333334  C 12.322916666666666 4.944444444444443  12.375 4.928819444444443  12.458333333333334 4.911458333333334  C 12.541666666666666 4.894097222222221  12.59375 4.868055555555555  12.614583333333334 4.833333333333334  L 12.635416666666666 4.604166666666666  C 12.552083333333334 4.611111111111109  12.491319444444445 4.586805555555555  12.453125 4.53125  C 12.414930555555557 4.475694444444443  12.392361111111112 4.402777777777777  12.385416666666666 4.3125  C 12.385416666666666 4.3263888888888875  12.364583333333334 4.354166666666666  12.322916666666666 4.395833333333334  C 12.322916666666666 4.347222222222221  12.307291666666666 4.319444444444443  12.276041666666666 4.3125  C 12.244791666666666 4.305555555555555  12.204861111111112 4.309027777777777  12.15625 4.322916666666666  C 12.107638888888891 4.336805555555555  12.076388888888891 4.340277777777777  12.0625 4.333333333333334  C 11.993055555555557 4.3125  11.940972222222223 4.286458333333334  11.90625 4.255208333333334  C 11.871527777777779 4.223958333333334  11.84375 4.166666666666666  11.822916666666666 4.083333333333334  C 11.802083333333334 4  11.788194444444445 3.947916666666666  11.78125 3.927083333333334  C 11.767361111111112 3.892361111111109  11.734375 3.854166666666666  11.682291666666666 3.8125  C 11.630208333333334 3.770833333333334  11.597222222222223 3.736111111111109  11.583333333333334 3.708333333333334  C 11.576388888888891 3.694444444444443  11.567708333333334 3.6753472222222214  11.557291666666666 3.651041666666666  C 11.546875 3.626736111111109  11.536458333333334 3.604166666666666  11.526041666666666 3.583333333333334  C 11.515625 3.5625  11.501736111111112 3.543402777777777  11.484375 3.526041666666666  C 11.467013888888891 3.5086805555555554  11.447916666666666 3.5  11.427083333333334 3.5  C 11.40625 3.5  11.381944444444445 3.517361111111109  11.354166666666666 3.552083333333334  C 11.326388888888891 3.5868055555555554  11.300347222222223 3.621527777777777  11.276041666666666 3.65625  C 11.251736111111112 3.6909722222222214  11.236111111111112 3.708333333333334  11.229166666666666 3.708333333333334  C 11.208333333333334 3.694444444444443  11.1875 3.689236111111109  11.166666666666666 3.692708333333334  C 11.145833333333334 3.6961805555555554  11.130208333333334 3.699652777777777  11.119791666666666 3.703125  C 11.109375 3.7065972222222214  11.09375 3.7170138888888875  11.072916666666666 3.734375  C 11.052083333333334 3.751736111111109  11.034722222222223 3.7638888888888875  11.020833333333334 3.770833333333334  C 11 3.7847222222222214  10.970486111111112 3.7951388888888875  10.932291666666666 3.802083333333334  C 10.894097222222223 3.809027777777777  10.864583333333334 3.8159722222222214  10.84375 3.822916666666666  C 10.947916666666666 3.788194444444443  10.944444444444445 3.75  10.833333333333334 3.708333333333334  C 10.763888888888891 3.6805555555555554  10.708333333333334 3.6701388888888875  10.666666666666666 3.677083333333334  C 10.729166666666666 3.6493055555555554  10.755208333333334 3.6076388888888875  10.744791666666666 3.552083333333334  C 10.734375 3.496527777777777  10.704861111111112 3.447916666666666  10.65625 3.40625  L 10.708333333333334 3.40625  C 10.701388888888891 3.3784722222222214  10.671875 3.348958333333334  10.619791666666666 3.317708333333334  C 10.567708333333334 3.286458333333334  10.506944444444445 3.256944444444443  10.4375 3.229166666666666  C 10.368055555555555 3.2013888888888875  10.322916666666666 3.1805555555555554  10.302083333333334 3.166666666666666  C 10.246527777777779 3.131944444444443  10.128472222222223 3.098958333333334  9.947916666666666 3.067708333333334  C 9.767361111111112 3.036458333333334  9.652777777777779 3.0347222222222214  9.604166666666666 3.0625  C 9.569444444444445 3.104166666666666  9.553819444444445 3.140625  9.557291666666666 3.171875  C 9.560763888888891 3.203125  9.574652777777779 3.251736111111109  9.598958333333334 3.317708333333334  C 9.62326388888889 3.3836805555555554  9.635416666666666 3.427083333333334  9.635416666666666 3.447916666666666  C 9.642361111111112 3.489583333333334  9.62326388888889 3.5347222222222214  9.578125 3.583333333333334  C 9.532986111111112 3.631944444444443  9.510416666666666 3.673611111111109  9.510416666666666 3.708333333333334  C 9.510416666666666 3.756944444444443  9.559027777777779 3.8107638888888875  9.65625 3.869791666666666  C 9.753472222222223 3.928819444444443  9.788194444444445 4.003472222222221  9.760416666666666 4.09375  C 9.739583333333334 4.149305555555555  9.684027777777779 4.204861111111109  9.59375 4.260416666666666  C 9.503472222222223 4.315972222222221  9.447916666666666 4.3576388888888875  9.427083333333334 4.385416666666666  C 9.392361111111112 4.440972222222221  9.387152777777779 4.505208333333334  9.411458333333334 4.578125  C 9.43576388888889 4.651041666666666  9.472222222222223 4.708333333333334  9.520833333333334 4.75  C 9.534722222222223 4.7638888888888875  9.539930555555555 4.777777777777777  9.536458333333334 4.791666666666666  C 9.532986111111112 4.805555555555555  9.520833333333334 4.821180555555555  9.5 4.838541666666666  C 9.479166666666668 4.855902777777777  9.460069444444445 4.869791666666666  9.442708333333334 4.880208333333334  C 9.425347222222223 4.890625  9.402777777777779 4.902777777777777  9.375 4.916666666666666  L 9.34375 4.9375  C 9.267361111111112 4.972222222222221  9.196180555555555 4.9513888888888875  9.130208333333334 4.875  C 9.064236111111112 4.798611111111109  9.017361111111112 4.708333333333334  8.989583333333334 4.604166666666666  C 8.940972222222223 4.430555555555555  8.885416666666666 4.3263888888888875  8.822916666666666 4.291666666666666  C 8.663194444444445 4.236111111111109  8.5625 4.239583333333334  8.520833333333334 4.302083333333334  C 8.486111111111112 4.211805555555555  8.343750000000002 4.121527777777777  8.09375 4.03125  C 7.920138888888889 3.96875  7.71875 3.954861111111109  7.489583333333333 3.989583333333334  C 7.53125 3.9826388888888875  7.53125 3.9305555555555554  7.489583333333333 3.833333333333334  C 7.440972222222222 3.729166666666666  7.375 3.6875  7.291666666666667 3.708333333333334  C 7.3125 3.666666666666666  7.326388888888889 3.605902777777777  7.333333333333333 3.526041666666666  C 7.340277777777779 3.4461805555555554  7.34375 3.3993055555555554  7.34375 3.385416666666666  C 7.364583333333333 3.2951388888888875  7.40625 3.215277777777777  7.46875 3.145833333333334  C 7.4756944444444455 3.1388888888888875  7.5 3.109375  7.541666666666667 3.057291666666666  C 7.583333333333333 3.005208333333334  7.6163194444444455 2.958333333333334  7.640625 2.916666666666666  C 7.664930555555556 2.875  7.666666666666667 2.854166666666666  7.645833333333333 2.854166666666666  C 7.888888888888889 2.881944444444443  8.0625 2.84375  8.166666666666666 2.739583333333334  C 8.201388888888891 2.704861111111109  8.241319444444445 2.645833333333334  8.286458333333334 2.5625  C 8.331597222222223 2.479166666666666  8.368055555555555 2.4201388888888875  8.395833333333334 2.385416666666666  C 8.458333333333334 2.34375  8.506944444444445 2.324652777777777  8.541666666666666 2.328125  C 8.576388888888891 2.3315972222222214  8.626736111111112 2.350694444444443  8.692708333333334 2.385416666666666  C 8.758680555555555 2.4201388888888875  8.809027777777779 2.4375  8.84375 2.4375  C 8.940972222222223 2.444444444444443  8.994791666666666 2.40625  9.005208333333334 2.322916666666666  C 9.015625 2.239583333333334  8.989583333333334 2.1701388888888875  8.927083333333334 2.114583333333334  C 9.010416666666666 2.121527777777777  9.020833333333334 2.0625  8.958333333333334 1.9375  C 8.930555555555555 1.8888888888888875  8.902777777777779 1.8576388888888875  8.875 1.84375  C 8.791666666666668 1.8159722222222214  8.697916666666668 1.833333333333334  8.59375 1.895833333333334  C 8.538194444444445 1.923611111111109  8.54513888888889 1.9513888888888875  8.614583333333334 1.979166666666666  C 8.60763888888889 1.9722222222222214  8.574652777777779 2.0086805555555554  8.515625 2.088541666666666  C 8.456597222222223 2.168402777777777  8.399305555555555 2.229166666666666  8.34375 2.270833333333334  C 8.288194444444445 2.3125  8.23263888888889 2.2951388888888875  8.177083333333334 2.21875  C 8.17013888888889 2.2118055555555554  8.151041666666666 2.1649305555555554  8.119791666666666 2.078125  C 8.088541666666666 1.9913194444444429  8.055555555555555 1.9444444444444429  8.020833333333334 1.9375  C 7.965277777777779 1.9375  7.909722222222222 1.989583333333334  7.854166666666667 2.09375  C 7.875 2.038194444444443  7.836805555555556 1.986111111111109  7.739583333333333 1.9375  C 7.642361111111112 1.8888888888888875  7.559027777777779 1.861111111111109  7.489583333333333 1.854166666666666  C 7.621527777777779 1.770833333333334  7.59375 1.677083333333334  7.40625 1.572916666666666  C 7.357638888888889 1.5451388888888875  7.286458333333333 1.5277777777777768  7.192708333333333 1.520833333333334  C 7.098958333333333 1.5138888888888875  7.03125 1.5277777777777768  6.989583333333333 1.5625  C 6.954861111111112 1.611111111111109  6.935763888888889 1.651041666666666  6.932291666666667 1.682291666666666  C 6.9288194444444455 1.713541666666666  6.946180555555556 1.7413194444444429  6.984375 1.765625  C 7.0225694444444455 1.7899305555555554  7.059027777777779 1.8090277777777768  7.09375 1.822916666666666  C 7.128472222222222 1.8368055555555554  7.168402777777779 1.8506944444444429  7.213541666666667 1.864583333333334  C 7.258680555555556 1.8784722222222214  7.2881944444444455 1.8888888888888875  7.302083333333333 1.895833333333334  C 7.399305555555556 1.9652777777777768  7.427083333333333 2.0138888888888875  7.385416666666667 2.041666666666666  C 7.371527777777779 2.048611111111109  7.342013888888889 2.0607638888888875  7.296875 2.078125  C 7.251736111111112 2.095486111111109  7.211805555555556 2.111111111111109  7.177083333333333 2.125  C 7.142361111111112 2.1388888888888875  7.121527777777779 2.152777777777777  7.114583333333333 2.166666666666666  C 7.09375 2.194444444444443  7.09375 2.2430555555555554  7.114583333333333 2.3125  C 7.135416666666667 2.381944444444443  7.128472222222222 2.4305555555555554  7.09375 2.458333333333334  C 7.059027777777779 2.423611111111109  7.027777777777779 2.3628472222222214  7 2.276041666666666  C 6.972222222222222 2.189236111111109  6.947916666666667 2.131944444444443  6.927083333333333 2.104166666666666  C 6.9756944444444455 2.166666666666666  6.888888888888889 2.1875  6.666666666666667 2.166666666666666  L 6.5625 2.15625  C 6.534722222222222 2.15625  6.479166666666667 2.163194444444443  6.395833333333333 2.177083333333334  C 6.3125 2.1909722222222214  6.2413194444444455 2.194444444444443  6.182291666666667 2.1875  C 6.123263888888889 2.1805555555555554  6.076388888888889 2.152777777777777  6.041666666666667 2.104166666666666  C 6.013888888888889 2.048611111111109  6.013888888888889 1.979166666666666  6.041666666666667 1.895833333333334  C 6.048611111111112 1.8680555555555554  6.0625 1.861111111111109  6.083333333333333 1.875  C 6.055555555555556 1.854166666666666  6.017361111111112 1.8211805555555554  5.96875 1.776041666666666  C 5.920138888888889 1.7309027777777768  5.885416666666667 1.7013888888888875  5.864583333333333 1.6875  C 5.545138888888889 1.791666666666666  5.21875 1.9340277777777768  4.885416666666667 2.114583333333334  C 4.927083333333333 2.121527777777777  4.96875 2.1180555555555554  5.010416666666667 2.104166666666666  C 5.045138888888889 2.090277777777777  5.090277777777779 2.067708333333334  5.145833333333333 2.036458333333334  C 5.201388888888889 2.005208333333334  5.236111111111112 1.986111111111109  5.25 1.979166666666666  C 5.486111111111112 1.8819444444444429  5.6319444444444455 1.8576388888888875  5.6875 1.90625  L 5.739583333333333 1.854166666666666  C 5.836805555555556 1.9652777777777768  5.90625 2.052083333333334  5.947916666666667 2.114583333333334  C 5.899305555555556 2.0868055555555554  5.795138888888889 2.083333333333334  5.635416666666667 2.104166666666666  C 5.496527777777779 2.145833333333334  5.420138888888889 2.1875  5.40625 2.229166666666666  C 5.454861111111112 2.3125  5.472222222222222 2.375  5.458333333333333 2.416666666666666  C 5.430555555555556 2.395833333333334  5.390625 2.361111111111109  5.338541666666667 2.3125  C 5.286458333333333 2.2638888888888875  5.236111111111112 2.225694444444443  5.1875 2.197916666666666  C 5.138888888888889 2.1701388888888875  5.086805555555556 2.152777777777777  5.03125 2.145833333333334  C 4.920138888888889 2.145833333333334  4.84375 2.1493055555555554  4.802083333333333 2.15625  C 3.7881944444444446 2.7118055555555554  2.9722222222222228 3.4826388888888875  2.3541666666666665 4.46875  C 2.402777777777778 4.517361111111109  2.4444444444444446 4.5451388888888875  2.4791666666666665 4.552083333333334  C 2.5069444444444446 4.559027777777777  2.524305555555556 4.590277777777777  2.53125 4.645833333333334  C 2.5381944444444446 4.7013888888888875  2.546875 4.739583333333334  2.5572916666666665 4.760416666666666  C 2.5677083333333335 4.78125  2.607638888888889 4.770833333333334  2.6770833333333335 4.729166666666666  C 2.7395833333333335 4.784722222222221  2.75 4.850694444444443  2.7083333333333335 4.927083333333334  C 2.715277777777778 4.9201388888888875  2.868055555555556 5.0138888888888875  3.1666666666666665 5.208333333333334  C 3.298611111111111 5.3263888888888875  3.371527777777778 5.399305555555555  3.3854166666666665 5.427083333333334  C 3.40625 5.503472222222221  3.371527777777778 5.565972222222221  3.28125 5.614583333333334  C 3.274305555555556 5.600694444444445  3.243055555555556 5.569444444444445  3.1875 5.520833333333334  C 3.1319444444444446 5.472222222222221  3.1006944444444446 5.458333333333332  3.09375 5.479166666666666  C 3.0729166666666665 5.5138888888888875  3.074652777777778 5.578125  3.0989583333333335 5.671875  C 3.1232638888888893 5.765625  3.1597222222222228 5.809027777777777  3.2083333333333335 5.802083333333334  C 3.1597222222222228 5.802083333333334  3.126736111111111 5.8576388888888875  3.109375 5.96875  C 3.0920138888888893 6.079861111111109  3.0833333333333335 6.203124999999998  3.0833333333333335 6.338541666666666  C 3.0833333333333335 6.473958333333332  3.079861111111111 6.555555555555555  3.0729166666666665 6.583333333333334  L 3.09375 6.59375  C 3.0729166666666665 6.677083333333334  3.0920138888888893 6.796875  3.1510416666666665 6.953125  C 3.2100694444444446 7.109375  3.2847222222222228 7.177083333333334  3.375 7.15625  C 3.2847222222222228 7.177083333333334  3.3541666666666665 7.3263888888888875  3.5833333333333335 7.604166666666666  C 3.625 7.659722222222221  3.652777777777778 7.690972222222221  3.6666666666666665 7.697916666666666  C 3.6875 7.711805555555555  3.7291666666666665 7.737847222222221  3.7916666666666665 7.776041666666666  C 3.8541666666666665 7.814236111111111  3.90625 7.848958333333334  3.9479166666666665 7.880208333333334  C 3.9895833333333335 7.911458333333334  4.024305555555556 7.947916666666666  4.052083333333333 7.989583333333334  C 4.079861111111112 8.024305555555554  4.114583333333334 8.102430555555554  4.15625 8.223958333333332  C 4.197916666666667 8.34548611111111  4.246527777777779 8.427083333333332  4.302083333333333 8.46875  C 4.2881944444444455 8.510416666666668  4.321180555555556 8.57986111111111  4.401041666666667 8.677083333333332  C 4.480902777777778 8.774305555555554  4.517361111111112 8.854166666666668  4.510416666666667 8.916666666666668  C 4.503472222222222 8.916666666666668  4.494791666666667 8.92013888888889  4.484375 8.927083333333332  C 4.473958333333334 8.934027777777779  4.465277777777779 8.9375  4.458333333333333 8.9375  C 4.479166666666667 8.98611111111111  4.532986111111112 9.034722222222221  4.619791666666667 9.083333333333332  C 4.706597222222222 9.131944444444443  4.760416666666667 9.177083333333332  4.78125 9.21875  C 4.788194444444445 9.239583333333332  4.795138888888889 9.274305555555554  4.802083333333333 9.322916666666668  C 4.809027777777779 9.371527777777779  4.8194444444444455 9.409722222222221  4.833333333333333 9.4375  C 4.847222222222222 9.465277777777779  4.875 9.472222222222221  4.916666666666667 9.458333333333332  C 4.930555555555556 9.319444444444443  4.847222222222222 9.104166666666668  4.666666666666667 8.8125  C 4.5625 8.63888888888889  4.503472222222222 8.538194444444443  4.489583333333333 8.510416666666668  C 4.46875 8.475694444444443  4.449652777777778 8.421875  4.432291666666667 8.348958333333332  C 4.414930555555556 8.276041666666668  4.399305555555556 8.225694444444443  4.385416666666667 8.197916666666668  C 4.399305555555556 8.197916666666668  4.420138888888889 8.203125  4.447916666666667 8.213541666666668  C 4.475694444444445 8.223958333333332  4.505208333333333 8.23611111111111  4.536458333333333 8.25  C 4.567708333333333 8.26388888888889  4.59375 8.277777777777779  4.614583333333333 8.291666666666668  C 4.635416666666667 8.305555555555554  4.642361111111112 8.315972222222221  4.635416666666667 8.322916666666668  C 4.614583333333333 8.371527777777779  4.621527777777778 8.432291666666668  4.65625 8.505208333333332  C 4.690972222222222 8.578125  4.732638888888889 8.64236111111111  4.78125 8.697916666666668  C 4.829861111111112 8.753472222222221  4.888888888888889 8.819444444444443  4.958333333333333 8.895833333333332  C 5.027777777777779 8.972222222222221  5.0694444444444455 9.01736111111111  5.083333333333333 9.03125  C 5.125 9.072916666666668  5.173611111111112 9.140625  5.229166666666667 9.234375  C 5.284722222222222 9.328125  5.284722222222222 9.375  5.229166666666667 9.375  C 5.291666666666667 9.375  5.361111111111112 9.411458333333332  5.4375 9.484375  C 5.513888888888889 9.557291666666668  5.572916666666667 9.625  5.614583333333333 9.6875  C 5.649305555555556 9.743055555555554  5.677083333333333 9.833333333333332  5.697916666666667 9.958333333333332  C 5.71875 10.083333333333332  5.736111111111112 10.166666666666668  5.75 10.208333333333332  C 5.763888888888889 10.256944444444443  5.793402777777779 10.303819444444443  5.838541666666667 10.348958333333332  C 5.883680555555556 10.394097222222221  5.927083333333333 10.427083333333332  5.96875 10.447916666666668  L 6.135416666666667 10.53125  C 6.135416666666667 10.53125  6.180555555555556 10.555555555555554  6.270833333333333 10.604166666666668  C 6.305555555555556 10.618055555555554  6.369791666666667 10.65451388888889  6.463541666666667 10.713541666666668  C 6.557291666666667 10.772569444444443  6.6319444444444455 10.8125  6.6875 10.833333333333332  C 6.7569444444444455 10.86111111111111  6.8125 10.875  6.854166666666667 10.875  C 6.895833333333333 10.875  6.946180555555556 10.866319444444443  7.005208333333333 10.848958333333332  C 7.064236111111112 10.831597222222221  7.111111111111112 10.819444444444443  7.145833333333333 10.8125  C 7.25 10.79861111111111  7.3506944444444455 10.850694444444443  7.447916666666667 10.96875  C 7.545138888888889 11.086805555555554  7.618055555555556 11.159722222222221  7.666666666666667 11.1875  C 7.916666666666667 11.319444444444443  8.10763888888889 11.35763888888889  8.239583333333334 11.302083333333332  C 8.225694444444445 11.309027777777775  8.227430555555557 11.335069444444443  8.244791666666666 11.380208333333332  C 8.262152777777779 11.425347222222221  8.289930555555555 11.479166666666668  8.328125 11.541666666666668  C 8.366319444444445 11.604166666666668  8.397569444444445 11.65451388888889  8.421875 11.692708333333332  C 8.446180555555555 11.730902777777775  8.465277777777779 11.760416666666668  8.479166666666666 11.78125  C 8.513888888888891 11.822916666666668  8.576388888888891 11.875  8.666666666666666 11.9375  C 8.756944444444445 12  8.819444444444445 12.052083333333334  8.854166666666666 12.09375  C 8.895833333333334 12.065972222222221  8.92013888888889 12.034722222222221  8.927083333333334 12  C 8.90625 12.055555555555555  8.930555555555555 12.125  9 12.208333333333334  C 9.069444444444445 12.291666666666666  9.131944444444445 12.326388888888888  9.1875 12.3125  C 9.284722222222223 12.291666666666666  9.333333333333334 12.180555555555555  9.333333333333334 11.979166666666668  C 9.118055555555555 12.083333333333334  8.947916666666666 12.020833333333334  8.822916666666666 11.791666666666668  C 8.822916666666666 11.784722222222221  8.814236111111112 11.765625  8.796875 11.734375  C 8.77951388888889 11.703125  8.765625 11.67361111111111  8.755208333333334 11.645833333333332  C 8.744791666666666 11.618055555555554  8.736111111111112 11.588541666666668  8.729166666666666 11.557291666666668  C 8.722222222222223 11.526041666666668  8.722222222222223 11.5  8.729166666666666 11.479166666666668  C 8.736111111111112 11.458333333333332  8.753472222222223 11.447916666666668  8.78125 11.447916666666668  C 8.843750000000002 11.447916666666668  8.878472222222223 11.43576388888889  8.885416666666666 11.411458333333332  C 8.892361111111112 11.387152777777775  8.885416666666666 11.34375  8.864583333333334 11.28125  C 8.84375 11.21875  8.829861111111112 11.17361111111111  8.822916666666666 11.145833333333332  C 8.815972222222223 11.090277777777775  8.777777777777779 11.020833333333332  8.708333333333334 10.9375  C 8.63888888888889 10.854166666666668  8.597222222222223 10.802083333333332  8.583333333333334 10.78125  C 8.548611111111112 10.84375  8.493055555555557 10.871527777777775  8.416666666666666 10.864583333333332  C 8.340277777777779 10.85763888888889  8.284722222222223 10.82638888888889  8.25 10.770833333333332  C 8.250000000000002 10.777777777777775  8.244791666666668 10.796875  8.234375 10.828125  C 8.223958333333334 10.859375  8.218750000000002 10.881944444444443  8.21875 10.895833333333332  C 8.128472222222223 10.895833333333332  8.07638888888889 10.89236111111111  8.0625 10.885416666666668  C 8.069444444444445 10.864583333333332  8.078125 10.803819444444443  8.088541666666666 10.703125  C 8.098958333333334 10.602430555555554  8.111111111111112 10.524305555555554  8.125 10.46875  C 8.131944444444445 10.440972222222221  8.151041666666666 10.399305555555554  8.182291666666666 10.34375  C 8.213541666666666 10.288194444444443  8.239583333333334 10.237847222222221  8.260416666666666 10.192708333333332  C 8.28125 10.147569444444443  8.29513888888889 10.104166666666668  8.302083333333334 10.0625  C 8.309027777777779 10.020833333333332  8.293402777777779 9.987847222222221  8.255208333333334 9.963541666666668  C 8.21701388888889 9.93923611111111  8.15625 9.930555555555554  8.072916666666666 9.9375  C 7.940972222222222 9.944444444444443  7.8506944444444455 10.01388888888889  7.802083333333333 10.145833333333332  C 7.795138888888889 10.166666666666668  7.784722222222222 10.203125  7.770833333333333 10.255208333333332  C 7.7569444444444455 10.307291666666668  7.739583333333333 10.347222222222221  7.71875 10.375  C 7.697916666666667 10.402777777777775  7.666666666666667 10.427083333333332  7.625 10.447916666666668  C 7.576388888888889 10.46875  7.493055555555556 10.475694444444443  7.375 10.46875  C 7.2569444444444455 10.461805555555554  7.173611111111112 10.444444444444443  7.125 10.416666666666668  C 7.034722222222222 10.36111111111111  6.956597222222222 10.260416666666668  6.890625 10.114583333333332  C 6.824652777777779 9.96875  6.791666666666667 9.840277777777775  6.791666666666667 9.729166666666668  C 6.791666666666667 9.659722222222221  6.800347222222222 9.567708333333332  6.817708333333333 9.453125  C 6.8350694444444455 9.338541666666668  6.845486111111112 9.25173611111111  6.848958333333333 9.192708333333332  C 6.852430555555556 9.133680555555554  6.833333333333333 9.04861111111111  6.791666666666667 8.9375  C 6.8125 8.92361111111111  6.84375 8.890625  6.885416666666667 8.838541666666668  C 6.927083333333333 8.786458333333332  6.961805555555556 8.75  6.989583333333333 8.729166666666668  C 7.003472222222222 8.722222222222221  7.019097222222222 8.71701388888889  7.036458333333333 8.713541666666668  C 7.0538194444444455 8.710069444444443  7.0694444444444455 8.710069444444443  7.083333333333333 8.713541666666668  C 7.097222222222222 8.71701388888889  7.111111111111112 8.711805555555554  7.125 8.697916666666668  C 7.138888888888889 8.684027777777779  7.149305555555556 8.663194444444443  7.15625 8.635416666666668  C 7.149305555555556 8.628472222222221  7.135416666666667 8.618055555555554  7.114583333333333 8.604166666666668  C 7.09375 8.583333333333332  7.079861111111112 8.572916666666668  7.072916666666667 8.572916666666668  C 7.121527777777779 8.59375  7.220486111111112 8.588541666666668  7.369791666666667 8.557291666666668  C 7.519097222222222 8.526041666666668  7.614583333333333 8.53125  7.65625 8.572916666666668  C 7.760416666666667 8.649305555555554  7.836805555555556 8.64236111111111  7.885416666666667 8.552083333333332  C 7.885416666666667 8.54513888888889  7.876736111111112 8.512152777777779  7.859375 8.453125  C 7.842013888888889 8.394097222222221  7.840277777777779 8.347222222222221  7.854166666666667 8.3125  C 7.888888888888889 8.5  7.989583333333333 8.53125  8.15625 8.40625  C 8.177083333333334 8.427083333333332  8.230902777777779 8.444444444444443  8.317708333333334 8.458333333333332  C 8.40451388888889 8.472222222222221  8.465277777777779 8.489583333333332  8.5 8.510416666666668  C 8.520833333333334 8.524305555555554  8.545138888888891 8.543402777777779  8.572916666666666 8.567708333333332  C 8.600694444444445 8.59201388888889  8.619791666666666 8.60763888888889  8.630208333333334 8.614583333333332  C 8.640625 8.621527777777779  8.657986111111112 8.619791666666668  8.682291666666666 8.609375  C 8.706597222222223 8.598958333333332  8.736111111111112 8.57638888888889  8.770833333333334 8.541666666666668  C 8.840277777777779 8.63888888888889  8.881944444444445 8.722222222222221  8.895833333333334 8.791666666666668  C 8.972222222222223 9.069444444444443  9.038194444444445 9.222222222222221  9.09375 9.25  C 9.142361111111112 9.270833333333332  9.180555555555555 9.277777777777779  9.208333333333334 9.270833333333332  C 9.236111111111112 9.26388888888889  9.251736111111112 9.230902777777779  9.255208333333334 9.171875  C 9.258680555555555 9.112847222222221  9.258680555555555 9.06423611111111  9.255208333333334 9.026041666666668  C 9.251736111111112 8.987847222222221  9.246527777777779 8.944444444444443  9.239583333333334 8.895833333333332  L 9.229166666666666 8.8125  L 9.229166666666666 8.625  L 9.21875 8.541666666666668  C 9.114583333333334 8.520833333333332  9.050347222222223 8.479166666666668  9.026041666666666 8.416666666666668  C 9.001736111111112 8.354166666666668  9.006944444444445 8.289930555555554  9.041666666666666 8.223958333333332  C 9.076388888888891 8.15798611111111  9.128472222222223 8.09375  9.197916666666666 8.03125  C 9.204861111111112 8.024305555555554  9.23263888888889 8.012152777777779  9.28125 7.994791666666666  C 9.329861111111112 7.977430555555555  9.383680555555555 7.954861111111111  9.442708333333334 7.927083333333334  C 9.501736111111112 7.899305555555555  9.545138888888891 7.871527777777777  9.572916666666666 7.84375  C 9.71875 7.711805555555555  9.770833333333334 7.590277777777777  9.729166666666666 7.479166666666666  C 9.777777777777779 7.479166666666666  9.815972222222223 7.447916666666666  9.84375 7.385416666666666  C 9.836805555555555 7.385416666666666  9.819444444444445 7.375  9.791666666666666 7.354166666666666  C 9.763888888888891 7.333333333333334  9.737847222222223 7.315972222222221  9.713541666666666 7.302083333333334  C 9.689236111111112 7.288194444444445  9.673611111111112 7.28125  9.666666666666666 7.28125  C 9.729166666666666 7.246527777777777  9.736111111111112 7.190972222222221  9.6875 7.114583333333334  C 9.722222222222223 7.09375  9.74826388888889 7.055555555555555  9.765625 7  C 9.782986111111112 6.944444444444445  9.809027777777779 6.909722222222221  9.84375 6.895833333333334  C 9.906250000000002 6.979166666666666  9.979166666666668 6.986111111111111  10.0625 6.916666666666666  C 10.118055555555555 6.861111111111111  10.121527777777779 6.805555555555555  10.072916666666666 6.75  C 10.107638888888891 6.7013888888888875  10.178819444444445 6.664930555555555  10.286458333333334 6.640625  C 10.394097222222223 6.616319444444443  10.458333333333334 6.583333333333332  10.479166666666666 6.541666666666666  C 10.527777777777779 6.555555555555555  10.555555555555555 6.548611111111111  10.5625 6.520833333333334  C 10.569444444444445 6.493055555555555  10.572916666666666 6.4513888888888875  10.572916666666666 6.395833333333334  C 10.572916666666666 6.340277777777777  10.583333333333334 6.298611111111111  10.604166666666666 6.270833333333334  C 10.631944444444445 6.236111111111111  10.684027777777779 6.204861111111111  10.760416666666666 6.177083333333334  C 10.836805555555557 6.149305555555555  10.881944444444445 6.131944444444443  10.895833333333334 6.125  L 11.072916666666666 6.010416666666666  C 11.09375 5.9826388888888875  11.09375 5.96875  11.072916666666666 5.96875  C 11.197916666666666 5.9826388888888875  11.305555555555557 5.944444444444445  11.395833333333334 5.854166666666666  C 11.465277777777779 5.777777777777777  11.444444444444445 5.708333333333334  11.333333333333334 5.645833333333334  C 11.354166666666666 5.604166666666666  11.34375 5.571180555555555  11.302083333333334 5.546875  C 11.260416666666666 5.522569444444443  11.208333333333334 5.503472222222221  11.145833333333334 5.489583333333334  C 11.166666666666666 5.4826388888888875  11.206597222222223 5.480902777777777  11.265625 5.484375  C 11.324652777777779 5.487847222222221  11.361111111111112 5.4826388888888875  11.375 5.46875  C 11.479166666666666 5.399305555555555  11.454861111111112 5.34375  11.302083333333334 5.302083333333334  Z M 9.135416666666666 14.395833333333334  C 9.135416666666666 14.4375  9.142361111111112 14.493055555555555  9.15625 14.5625  C 10.586805555555555 14.3125  11.805555555555557 13.65625  12.8125 12.59375  C 12.791666666666666 12.572916666666666  12.748263888888891 12.557291666666666  12.682291666666666 12.546875  C 12.616319444444445 12.536458333333334  12.572916666666666 12.524305555555555  12.552083333333334 12.510416666666666  C 12.427083333333334 12.461805555555555  12.34375 12.434027777777779  12.302083333333334 12.427083333333334  C 12.309027777777779 12.378472222222221  12.300347222222223 12.333333333333334  12.276041666666666 12.291666666666666  C 12.251736111111112 12.25  12.223958333333334 12.21875  12.192708333333334 12.197916666666666  C 12.161458333333334 12.177083333333334  12.118055555555557 12.149305555555555  12.0625 12.114583333333334  C 12.006944444444445 12.079861111111112  11.96875 12.055555555555555  11.947916666666666 12.041666666666666  C 11.934027777777779 12.027777777777779  11.909722222222223 12.006944444444445  11.875 11.979166666666668  C 11.840277777777779 11.95138888888889  11.815972222222223 11.932291666666668  11.802083333333334 11.921875  C 11.788194444444445 11.911458333333332  11.762152777777779 11.895833333333332  11.723958333333334 11.875  C 11.685763888888891 11.854166666666668  11.65625 11.847222222222221  11.635416666666666 11.854166666666668  C 11.614583333333334 11.86111111111111  11.579861111111112 11.864583333333332  11.53125 11.864583333333332  L 11.5 11.875  C 11.479166666666666 11.881944444444443  11.460069444444445 11.890625  11.442708333333334 11.901041666666668  C 11.425347222222223 11.911458333333332  11.40625 11.921875  11.385416666666666 11.932291666666668  C 11.364583333333334 11.942708333333332  11.350694444444445 11.953125  11.34375 11.963541666666668  C 11.336805555555557 11.973958333333332  11.336805555555557 11.98263888888889  11.34375 11.989583333333332  C 11.197916666666666 11.871527777777775  11.072916666666666 11.79513888888889  10.96875 11.760416666666668  C 10.934027777777779 11.753472222222221  10.895833333333334 11.734375  10.854166666666666 11.703125  C 10.8125 11.671875  10.776041666666666 11.647569444444443  10.744791666666666 11.630208333333332  C 10.713541666666666 11.612847222222221  10.678819444444445 11.60763888888889  10.640625 11.614583333333332  C 10.602430555555555 11.621527777777775  10.5625 11.645833333333332  10.520833333333334 11.6875  C 10.486111111111112 11.722222222222221  10.465277777777779 11.774305555555554  10.458333333333334 11.84375  C 10.45138888888889 11.913194444444443  10.444444444444445 11.958333333333332  10.4375 11.979166666666668  C 10.38888888888889 11.944444444444443  10.38888888888889 11.883680555555554  10.4375 11.796875  C 10.486111111111112 11.710069444444443  10.493055555555555 11.645833333333332  10.458333333333334 11.604166666666668  C 10.4375 11.5625  10.401041666666666 11.546875  10.348958333333334 11.557291666666668  C 10.296875 11.567708333333332  10.255208333333334 11.583333333333332  10.223958333333334 11.604166666666668  C 10.192708333333334 11.625  10.152777777777779 11.65451388888889  10.104166666666666 11.692708333333332  C 10.055555555555557 11.730902777777775  10.024305555555557 11.753472222222221  10.010416666666666 11.760416666666668  C 9.996527777777779 11.76736111111111  9.96701388888889 11.786458333333332  9.921875 11.817708333333332  C 9.876736111111112 11.848958333333332  9.847222222222223 11.875  9.833333333333334 11.895833333333332  C 9.8125 11.92361111111111  9.791666666666666 11.965277777777775  9.770833333333334 12.020833333333334  C 9.75 12.076388888888888  9.73263888888889 12.114583333333334  9.71875 12.135416666666666  C 9.704861111111112 12.107638888888888  9.664930555555555 12.085069444444445  9.598958333333334 12.067708333333334  C 9.532986111111112 12.050347222222221  9.500000000000002 12.03125  9.5 12.010416666666666  C 9.51388888888889 12.079861111111112  9.527777777777779 12.201388888888888  9.541666666666666 12.375  C 9.555555555555557 12.548611111111109  9.572916666666668 12.680555555555555  9.59375 12.770833333333334  C 9.642361111111112 12.986111111111112  9.600694444444445 13.152777777777779  9.46875 13.270833333333334  C 9.281250000000002 13.444444444444445  9.180555555555557 13.583333333333334  9.166666666666666 13.6875  C 9.138888888888891 13.840277777777779  9.180555555555557 13.930555555555555  9.291666666666666 13.958333333333334  C 9.291666666666666 14.006944444444445  9.26388888888889 14.078125  9.208333333333334 14.171875  C 9.152777777777779 14.265625  9.128472222222223 14.340277777777779  9.135416666666666 14.395833333333334  Z " fill-rule="nonzero" fill="#7f7f7f" stroke="none" transform="matrix(1 0 0 1 2052 304 )" />
  </g>
</svg>