<?xml version="1.0" encoding="utf-8"?>
<svg version="1.1" xmlns:xlink="http://www.w3.org/1999/xlink" width="20px" height="20px" viewBox="1999 1104  20 20" xmlns="http://www.w3.org/2000/svg">
  <path d="M 1999.5 1106  A 1.5 1.5 0 0 1 2001 1104.5 L 2017 1104.5  A 1.5 1.5 0 0 1 2018.5 1106 L 2018.5 1122  A 1.5 1.5 0 0 1 2017 1123.5 L 2001 1123.5  A 1.5 1.5 0 0 1 1999.5 1122 L 1999.5 1106  Z " fill-rule="nonzero" fill="#f0f0f0" stroke="none" />
  <path d="M 1999.5 1106  A 1.5 1.5 0 0 1 2001 1104.5 L 2017 1104.5  A 1.5 1.5 0 0 1 2018.5 1106 L 2018.5 1122  A 1.5 1.5 0 0 1 2017 1123.5 L 2001 1123.5  A 1.5 1.5 0 0 1 1999.5 1122 L 1999.5 1106  Z " stroke-width="1" stroke="#797979" fill="none" />
</svg>