<?xml version="1.0" encoding="utf-8"?>
<svg version="1.1" xmlns:xlink="http://www.w3.org/1999/xlink" width="20px" height="20px" viewBox="1996 720  20 20" xmlns="http://www.w3.org/2000/svg">
  <path d="M 1996.5 722  A 1.5 1.5 0 0 1 1998 720.5 L 2014 720.5  A 1.5 1.5 0 0 1 2015.5 722 L 2015.5 738  A 1.5 1.5 0 0 1 2014 739.5 L 1998 739.5  A 1.5 1.5 0 0 1 1996.5 738 L 1996.5 722  Z " fill-rule="nonzero" fill="#f2f2f2" stroke="none" fill-opacity="0" />
  <path d="M 1996.5 722  A 1.5 1.5 0 0 1 1998 720.5 L 2014 720.5  A 1.5 1.5 0 0 1 2015.5 722 L 2015.5 738  A 1.5 1.5 0 0 1 2014 739.5 L 1998 739.5  A 1.5 1.5 0 0 1 1996.5 738 L 1996.5 722  Z " stroke-width="1" stroke="#797979" fill="none" />
</svg>