<?xml version="1.0" encoding="utf-8"?>
<svg version="1.1" xmlns:xlink="http://www.w3.org/1999/xlink" width="20px" height="20px" viewBox="1995 1383  20 20" xmlns="http://www.w3.org/2000/svg">
  <path d="M 1995.5 1385  A 1.5 1.5 0 0 1 1997 1383.5 L 2013 1383.5  A 1.5 1.5 0 0 1 2014.5 1385 L 2014.5 1401  A 1.5 1.5 0 0 1 2013 1402.5 L 1997 1402.5  A 1.5 1.5 0 0 1 1995.5 1401 L 1995.5 1385  Z " fill-rule="nonzero" fill="#f0f0f0" stroke="none" />
  <path d="M 1995.5 1385  A 1.5 1.5 0 0 1 1997 1383.5 L 2013 1383.5  A 1.5 1.5 0 0 1 2014.5 1385 L 2014.5 1401  A 1.5 1.5 0 0 1 2013 1402.5 L 1997 1402.5  A 1.5 1.5 0 0 1 1995.5 1401 L 1995.5 1385  Z " stroke-width="1" stroke="#797979" fill="none" />
</svg>