<?xml version="1.0" encoding="utf-8"?>
<svg version="1.1" xmlns:xlink="http://www.w3.org/1999/xlink" width="20px" height="20px" viewBox="2000 2526  20 20" xmlns="http://www.w3.org/2000/svg">
  <path d="M 2000.5 2528  A 1.5 1.5 0 0 1 2002 2526.5 L 2018 2526.5  A 1.5 1.5 0 0 1 2019.5 2528 L 2019.5 2544  A 1.5 1.5 0 0 1 2018 2545.5 L 2002 2545.5  A 1.5 1.5 0 0 1 2000.5 2544 L 2000.5 2528  Z " fill-rule="nonzero" fill="#f0f0f0" stroke="none" />
  <path d="M 2000.5 2528  A 1.5 1.5 0 0 1 2002 2526.5 L 2018 2526.5  A 1.5 1.5 0 0 1 2019.5 2528 L 2019.5 2544  A 1.5 1.5 0 0 1 2018 2545.5 L 2002 2545.5  A 1.5 1.5 0 0 1 2000.5 2544 L 2000.5 2528  Z " stroke-width="1" stroke="#797979" fill="none" />
  <path d="M 2004.2857142857142 2536  L 2008.5714285714287 2540.285714285714  L 2015.7142857142858 2530.285714285714  " stroke-width="4.285714285714286" stroke="#797979" fill="none" />
</svg>