<?xml version="1.0" encoding="utf-8"?>
<svg version="1.1" xmlns:xlink="http://www.w3.org/1999/xlink" width="16px" height="14px" xmlns="http://www.w3.org/2000/svg">
  <g transform="matrix(1 0 0 1 -2052 -2529 )">
    <path d="M 5.714285714285714 1.1666666666666672  L 5.714285714285714 2.333333333333333  L 10.285714285714286 2.333333333333333  L 10.285714285714286 1.1666666666666672  L 5.714285714285714 1.1666666666666672  Z M 10 8.166666666666666  L 16 8.166666666666666  L 16 12.541666666666668  C 16 12.942708333333332  15.86011904761905 13.286024305555557  15.580357142857142 13.571614583333332  C 15.30059523809524 13.85720486111111  14.964285714285717 14  14.571428571428571 14  L 1.4285714285714286 14  C 1.0357142857142858 14  0.699404761904762 13.85720486111111  0.41964285714285715 13.571614583333332  C 0.13988095238095238 13.286024305555557  0 12.942708333333332  0 12.541666666666668  L 0 8.166666666666666  L 6 8.166666666666666  L 6 9.625  C 6 9.782986111111109  6.0565476190476195 9.919704861111109  6.169642857142857 10.03515625  C 6.282738095238096 10.150607638888888  6.416666666666667 10.208333333333334  6.571428571428571 10.208333333333334  L 9.428571428571429 10.208333333333334  C 9.583333333333334 10.208333333333334  9.717261904761907 10.150607638888888  9.830357142857142 10.03515625  C 9.943452380952381 9.919704861111109  10 9.782986111111109  10 9.625  L 10 8.166666666666666  Z M 6.857142857142857 8.166666666666666  L 9.142857142857142 8.166666666666666  L 9.142857142857142 9.333333333333334  L 6.857142857142857 9.333333333333334  L 6.857142857142857 8.166666666666666  Z M 15.580357142857142 2.76171875  C 15.86011904761905 3.047309027777777  16 3.390625  16 3.791666666666667  L 16 7.291666666666666  L 0 7.291666666666666  L 0 3.791666666666667  C 0 3.390625  0.13988095238095238 3.047309027777777  0.41964285714285715 2.76171875  C 0.699404761904762 2.4761284722222205  1.0357142857142858 2.333333333333333  1.4285714285714286 2.333333333333333  L 4.571428571428571 2.333333333333333  L 4.571428571428571 0.875  C 4.571428571428571 0.6319444444444438  4.654761904761905 0.4253472222222203  4.821428571428571 0.2552083333333328  C 4.988095238095239 0.08506944444444531  5.190476190476191 0  5.428571428571429 0  L 10.571428571428571 0  C 10.80952380952381 0  11.011904761904763 0.08506944444444531  11.178571428571429 0.2552083333333328  C 11.345238095238097 0.4253472222222203  11.428571428571429 0.6319444444444438  11.428571428571429 0.875  L 11.428571428571429 2.333333333333333  L 14.571428571428571 2.333333333333333  C 14.964285714285717 2.333333333333333  15.30059523809524 2.4761284722222205  15.580357142857142 2.76171875  Z " fill-rule="nonzero" fill="#7f7f7f" stroke="none" transform="matrix(1 0 0 1 2052 2529 )" />
  </g>
</svg>