<?xml version="1.0" encoding="utf-8"?>
<svg version="1.1" xmlns:xlink="http://www.w3.org/1999/xlink" width="20px" height="20px" viewBox="1996 3092  20 20" xmlns="http://www.w3.org/2000/svg">
  <path d="M 1996.5 3094  A 1.5 1.5 0 0 1 1998 3092.5 L 2014 3092.5  A 1.5 1.5 0 0 1 2015.5 3094 L 2015.5 3110  A 1.5 1.5 0 0 1 2014 3111.5 L 1998 3111.5  A 1.5 1.5 0 0 1 1996.5 3110 L 1996.5 3094  Z " fill-rule="nonzero" fill="#f0f0f0" stroke="none" />
  <path d="M 1996.5 3094  A 1.5 1.5 0 0 1 1998 3092.5 L 2014 3092.5  A 1.5 1.5 0 0 1 2015.5 3094 L 2015.5 3110  A 1.5 1.5 0 0 1 2014 3111.5 L 1998 3111.5  A 1.5 1.5 0 0 1 1996.5 3110 L 1996.5 3094  Z " stroke-width="1" stroke="#797979" fill="none" />
</svg>