<?xml version="1.0" encoding="utf-8"?>
<svg version="1.1" xmlns:xlink="http://www.w3.org/1999/xlink" width="24px" height="24px" viewBox="362 24  24 24" xmlns="http://www.w3.org/2000/svg">
  <path d="M 362.5 26  A 1.5 1.5 0 0 1 364 24.5 L 384 24.5  A 1.5 1.5 0 0 1 385.5 26 L 385.5 46  A 1.5 1.5 0 0 1 384 47.5 L 364 47.5  A 1.5 1.5 0 0 1 362.5 46 L 362.5 26  Z " fill-rule="nonzero" fill="#0b5fff" stroke="none" />
  <path d="M 362.5 26  A 1.5 1.5 0 0 1 364 24.5 L 384 24.5  A 1.5 1.5 0 0 1 385.5 26 L 385.5 46  A 1.5 1.5 0 0 1 384 47.5 L 364 47.5  A 1.5 1.5 0 0 1 362.5 46 L 362.5 26  Z " stroke-width="1" stroke="#ffffff" fill="none" />
  <path d="M 367.14285714285717 36  L 372.2857142857143 41.142857142857146  L 380.85714285714283 29.142857142857142  " stroke-width="5.142857142857142" stroke="#ffffff" fill="none" />
</svg>