<?xml version="1.0" encoding="utf-8"?>
<svg version="1.1" xmlns:xlink="http://www.w3.org/1999/xlink" width="16px" height="20px" xmlns="http://www.w3.org/2000/svg">
  <g transform="matrix(1 0 0 1 -174 -302 )">
    <path d="M 15.89375 14.459635416666664  C 15.964583333333334 15.115017361111109  16 15.811631944444445  16 16.549479166666668  C 16 17.49565972222222  15.739583333333334 18.307291666666668  15.21875 18.984375  C 14.697916666666668 19.661458333333332  14.070833333333335 20  13.3375 20  L 2.6625 20  C 1.9291666666666667 20  1.3020833333333335 19.661458333333332  0.7812500000000001 18.984375  C 0.26041666666666674 18.307291666666668  0 17.49565972222222  0 16.549479166666668  C 0 15.811631944444445  0.03541666666666675 15.115017361111109  0.1062500000000001 14.459635416666664  C 0.17708333333333343 13.804253472222218  0.3083333333333334 13.14453125  0.5000000000000001 12.48046875  C 0.6916666666666669 11.81640625  0.9354166666666668 11.24782986111111  1.23125 10.774739583333336  C 1.5270833333333336 10.301649305555554  1.91875 9.915364583333332  2.40625 9.615885416666668  C 2.89375 9.31640625  3.454166666666667 9.166666666666668  4.0875 9.166666666666668  C 5.179166666666667 10.277777777777777  6.483333333333334 10.833333333333336  8 10.833333333333336  C 9.51666666666667 10.833333333333336  10.820833333333335 10.277777777777777  11.9125 9.166666666666668  C 12.545833333333334 9.166666666666668  13.10625 9.31640625  13.59375 9.615885416666668  C 14.08125 9.915364583333332  14.472916666666668 10.301649305555554  14.76875 10.774739583333336  C 15.064583333333335 11.24782986111111  15.308333333333334 11.81640625  15.5 12.48046875  C 15.691666666666668 13.14453125  15.822916666666668 13.804253472222218  15.89375 14.459635416666664  Z M 11.39375 1.46484375  C 12.33125 2.44140625  12.8 3.6197916666666674  12.8 5  C 12.8 6.380208333333332  12.33125 7.55859375  11.39375 8.53515625  C 10.45625 9.51171875  9.325 10  8 10  C 6.675 10  5.54375 9.51171875  4.60625 8.53515625  C 3.66875 7.55859375  3.2 6.380208333333332  3.2 5  C 3.2 3.6197916666666674  3.66875 2.44140625  4.60625 1.46484375  C 5.54375 0.48828125  6.675 0  8 0  C 9.325 0  10.45625 0.48828125  11.39375 1.46484375  Z " fill-rule="nonzero" fill="#6b6c7e" stroke="none" transform="matrix(1 0 0 1 174 302 )" />
  </g>
</svg>