<?xml version="1.0" encoding="utf-8"?>
<svg version="1.1" xmlns:xlink="http://www.w3.org/1999/xlink" width="20px" height="20px" viewBox="116 721  20 20" xmlns="http://www.w3.org/2000/svg">
  <path d="M 116.5 723  A 1.5 1.5 0 0 1 118 721.5 L 134 721.5  A 1.5 1.5 0 0 1 135.5 723 L 135.5 739  A 1.5 1.5 0 0 1 134 740.5 L 118 740.5  A 1.5 1.5 0 0 1 116.5 739 L 116.5 723  Z " fill-rule="nonzero" fill="#f2f2f2" stroke="none" fill-opacity="0" />
  <path d="M 116.5 723  A 1.5 1.5 0 0 1 118 721.5 L 134 721.5  A 1.5 1.5 0 0 1 135.5 723 L 135.5 739  A 1.5 1.5 0 0 1 134 740.5 L 118 740.5  A 1.5 1.5 0 0 1 116.5 739 L 116.5 723  Z " stroke-width="1" stroke="#797979" fill="none" />
  <path d="M 120.28571428571429 731  L 124.57142857142857 735.2857142857142  L 131.71428571428572 725.2857142857143  " stroke-width="4.285714285714286" stroke="#797979" fill="none" />
</svg>