<?xml version="1.0" encoding="utf-8"?>
<svg version="1.1" xmlns:xlink="http://www.w3.org/1999/xlink" width="20px" height="20px" viewBox="121 581  20 20" xmlns="http://www.w3.org/2000/svg">
  <path d="M 121.5 583  A 1.5 1.5 0 0 1 123 581.5 L 139 581.5  A 1.5 1.5 0 0 1 140.5 583 L 140.5 599  A 1.5 1.5 0 0 1 139 600.5 L 123 600.5  A 1.5 1.5 0 0 1 121.5 599 L 121.5 583  Z " fill-rule="nonzero" fill="#f2f2f2" stroke="none" fill-opacity="0" />
  <path d="M 121.5 583  A 1.5 1.5 0 0 1 123 581.5 L 139 581.5  A 1.5 1.5 0 0 1 140.5 583 L 140.5 599  A 1.5 1.5 0 0 1 139 600.5 L 123 600.5  A 1.5 1.5 0 0 1 121.5 599 L 121.5 583  Z " stroke-width="1" stroke="#797979" fill="none" />
</svg>