<?xml version="1.0" encoding="utf-8"?>
<svg version="1.1" xmlns:xlink="http://www.w3.org/1999/xlink" width="20px" height="20px" viewBox="117 1402  20 20" xmlns="http://www.w3.org/2000/svg">
  <path d="M 117.5 1404  A 1.5 1.5 0 0 1 119 1402.5 L 135 1402.5  A 1.5 1.5 0 0 1 136.5 1404 L 136.5 1420  A 1.5 1.5 0 0 1 135 1421.5 L 119 1421.5  A 1.5 1.5 0 0 1 117.5 1420 L 117.5 1404  Z " fill-rule="nonzero" fill="#f0f0f0" stroke="none" />
  <path d="M 117.5 1404  A 1.5 1.5 0 0 1 119 1402.5 L 135 1402.5  A 1.5 1.5 0 0 1 136.5 1404 L 136.5 1420  A 1.5 1.5 0 0 1 135 1421.5 L 119 1421.5  A 1.5 1.5 0 0 1 117.5 1420 L 117.5 1404  Z " stroke-width="1" stroke="#797979" fill="none" />
  <path d="M 121.28571428571429 1412  L 125.57142857142857 1416.2857142857144  L 132.71428571428572 1406.2857142857142  " stroke-width="4.285714285714286" stroke="#797979" fill="none" />
</svg>