<?xml version="1.0" encoding="utf-8"?>
<svg version="1.1" xmlns:xlink="http://www.w3.org/1999/xlink" width="20px" height="20px" viewBox="117 861  20 20" xmlns="http://www.w3.org/2000/svg">
  <path d="M 117.5 863  A 1.5 1.5 0 0 1 119 861.5 L 135 861.5  A 1.5 1.5 0 0 1 136.5 863 L 136.5 879  A 1.5 1.5 0 0 1 135 880.5 L 119 880.5  A 1.5 1.5 0 0 1 117.5 879 L 117.5 863  Z " fill-rule="nonzero" fill="#f2f2f2" stroke="none" fill-opacity="0" />
  <path d="M 117.5 863  A 1.5 1.5 0 0 1 119 861.5 L 135 861.5  A 1.5 1.5 0 0 1 136.5 863 L 136.5 879  A 1.5 1.5 0 0 1 135 880.5 L 119 880.5  A 1.5 1.5 0 0 1 117.5 879 L 117.5 863  Z " stroke-width="1" stroke="#797979" fill="none" />
</svg>