<?xml version="1.0" encoding="utf-8"?>
<svg version="1.1" xmlns:xlink="http://www.w3.org/1999/xlink" width="20px" height="20px" viewBox="117 1281  20 20" xmlns="http://www.w3.org/2000/svg">
  <path d="M 117.5 1283  A 1.5 1.5 0 0 1 119 1281.5 L 135 1281.5  A 1.5 1.5 0 0 1 136.5 1283 L 136.5 1299  A 1.5 1.5 0 0 1 135 1300.5 L 119 1300.5  A 1.5 1.5 0 0 1 117.5 1299 L 117.5 1283  Z " fill-rule="nonzero" fill="#f2f2f2" stroke="none" fill-opacity="0" />
  <path d="M 117.5 1283  A 1.5 1.5 0 0 1 119 1281.5 L 135 1281.5  A 1.5 1.5 0 0 1 136.5 1283 L 136.5 1299  A 1.5 1.5 0 0 1 135 1300.5 L 119 1300.5  A 1.5 1.5 0 0 1 117.5 1299 L 117.5 1283  Z " stroke-width="1" stroke="#797979" fill="none" />
  <path d="M 121.28571428571429 1291  L 125.57142857142857 1295.2857142857144  L 132.71428571428572 1285.2857142857142  " stroke-width="4.285714285714286" stroke="#797979" fill="none" />
</svg>