<?xml version="1.0" encoding="utf-8"?>
<svg version="1.1" xmlns:xlink="http://www.w3.org/1999/xlink" width="20px" height="20px" viewBox="117 1141  20 20" xmlns="http://www.w3.org/2000/svg">
  <path d="M 117.5 1143  A 1.5 1.5 0 0 1 119 1141.5 L 135 1141.5  A 1.5 1.5 0 0 1 136.5 1143 L 136.5 1159  A 1.5 1.5 0 0 1 135 1160.5 L 119 1160.5  A 1.5 1.5 0 0 1 117.5 1159 L 117.5 1143  Z " fill-rule="nonzero" fill="#f0f0f0" stroke="none" />
  <path d="M 117.5 1143  A 1.5 1.5 0 0 1 119 1141.5 L 135 1141.5  A 1.5 1.5 0 0 1 136.5 1143 L 136.5 1159  A 1.5 1.5 0 0 1 135 1160.5 L 119 1160.5  A 1.5 1.5 0 0 1 117.5 1159 L 117.5 1143  Z " stroke-width="1" stroke="#797979" fill="none" />
</svg>