<?xml version="1.0" encoding="utf-8"?>
<svg version="1.1" xmlns:xlink="http://www.w3.org/1999/xlink" width="20px" height="20px" viewBox="2000 1243  20 20" xmlns="http://www.w3.org/2000/svg">
  <path d="M 2000.5 1245  A 1.5 1.5 0 0 1 2002 1243.5 L 2018 1243.5  A 1.5 1.5 0 0 1 2019.5 1245 L 2019.5 1261  A 1.5 1.5 0 0 1 2018 1262.5 L 2002 1262.5  A 1.5 1.5 0 0 1 2000.5 1261 L 2000.5 1245  Z " fill-rule="nonzero" fill="#f2f2f2" stroke="none" fill-opacity="0" />
  <path d="M 2000.5 1245  A 1.5 1.5 0 0 1 2002 1243.5 L 2018 1243.5  A 1.5 1.5 0 0 1 2019.5 1245 L 2019.5 1261  A 1.5 1.5 0 0 1 2018 1262.5 L 2002 1262.5  A 1.5 1.5 0 0 1 2000.5 1261 L 2000.5 1245  Z " stroke-width="1" stroke="#797979" fill="none" />
  <path d="M 2004.2857142857142 1253  L 2008.5714285714287 1257.2857142857144  L 2015.7142857142858 1247.2857142857142  " stroke-width="4.285714285714286" stroke="#797979" fill="none" />
</svg>