<?xml version="1.0" encoding="utf-8"?>
<svg version="1.1" xmlns:xlink="http://www.w3.org/1999/xlink" width="20px" height="20px" viewBox="1995 2161  20 20" xmlns="http://www.w3.org/2000/svg">
  <path d="M 1995.5 2163  A 1.5 1.5 0 0 1 1997 2161.5 L 2013 2161.5  A 1.5 1.5 0 0 1 2014.5 2163 L 2014.5 2179  A 1.5 1.5 0 0 1 2013 2180.5 L 1997 2180.5  A 1.5 1.5 0 0 1 1995.5 2179 L 1995.5 2163  Z " fill-rule="nonzero" fill="#f2f2f2" stroke="none" fill-opacity="0" />
  <path d="M 1995.5 2163  A 1.5 1.5 0 0 1 1997 2161.5 L 2013 2161.5  A 1.5 1.5 0 0 1 2014.5 2163 L 2014.5 2179  A 1.5 1.5 0 0 1 2013 2180.5 L 1997 2180.5  A 1.5 1.5 0 0 1 1995.5 2179 L 1995.5 2163  Z " stroke-width="1" stroke="#797979" fill="none" />
  <path d="M 1999.2857142857142 2171  L 2003.5714285714287 2175.285714285714  L 2010.7142857142858 2165.285714285714  " stroke-width="4.285714285714286" stroke="#797979" fill="none" />
</svg>