<?xml version="1.0" encoding="utf-8"?>
<svg version="1.1" xmlns:xlink="http://www.w3.org/1999/xlink" width="20px" height="20px" viewBox="1996 2301  20 20" xmlns="http://www.w3.org/2000/svg">
  <path d="M 1996.5 2303  A 1.5 1.5 0 0 1 1998 2301.5 L 2014 2301.5  A 1.5 1.5 0 0 1 2015.5 2303 L 2015.5 2319  A 1.5 1.5 0 0 1 2014 2320.5 L 1998 2320.5  A 1.5 1.5 0 0 1 1996.5 2319 L 1996.5 2303  Z " fill-rule="nonzero" fill="#f0f0f0" stroke="none" />
  <path d="M 1996.5 2303  A 1.5 1.5 0 0 1 1998 2301.5 L 2014 2301.5  A 1.5 1.5 0 0 1 2015.5 2303 L 2015.5 2319  A 1.5 1.5 0 0 1 2014 2320.5 L 1998 2320.5  A 1.5 1.5 0 0 1 1996.5 2319 L 1996.5 2303  Z " stroke-width="1" stroke="#797979" fill="none" />
  <path d="M 2000.2857142857142 2311  L 2004.5714285714287 2315.285714285714  L 2011.7142857142858 2305.285714285714  " stroke-width="4.285714285714286" stroke="#797979" fill="none" />
</svg>