<?xml version="1.0" encoding="utf-8"?>
<svg version="1.1" xmlns:xlink="http://www.w3.org/1999/xlink" width="20px" height="20px" viewBox="1999 1914  20 20" xmlns="http://www.w3.org/2000/svg">
  <path d="M 1999.5 1916  A 1.5 1.5 0 0 1 2001 1914.5 L 2017 1914.5  A 1.5 1.5 0 0 1 2018.5 1916 L 2018.5 1932  A 1.5 1.5 0 0 1 2017 1933.5 L 2001 1933.5  A 1.5 1.5 0 0 1 1999.5 1932 L 1999.5 1916  Z " fill-rule="nonzero" fill="#f2f2f2" stroke="none" fill-opacity="0" />
  <path d="M 1999.5 1916  A 1.5 1.5 0 0 1 2001 1914.5 L 2017 1914.5  A 1.5 1.5 0 0 1 2018.5 1916 L 2018.5 1932  A 1.5 1.5 0 0 1 2017 1933.5 L 2001 1933.5  A 1.5 1.5 0 0 1 1999.5 1932 L 1999.5 1916  Z " stroke-width="1" stroke="#797979" fill="none" />
</svg>