<?xml version="1.0" encoding="utf-8"?>
<svg version="1.1" xmlns:xlink="http://www.w3.org/1999/xlink" width="20px" height="20px" viewBox="1999 2666  20 20" xmlns="http://www.w3.org/2000/svg">
  <path d="M 1999.5 2668  A 1.5 1.5 0 0 1 2001 2666.5 L 2017 2666.5  A 1.5 1.5 0 0 1 2018.5 2668 L 2018.5 2684  A 1.5 1.5 0 0 1 2017 2685.5 L 2001 2685.5  A 1.5 1.5 0 0 1 1999.5 2684 L 1999.5 2668  Z " fill-rule="nonzero" fill="#f0f0f0" stroke="none" />
  <path d="M 1999.5 2668  A 1.5 1.5 0 0 1 2001 2666.5 L 2017 2666.5  A 1.5 1.5 0 0 1 2018.5 2668 L 2018.5 2684  A 1.5 1.5 0 0 1 2017 2685.5 L 2001 2685.5  A 1.5 1.5 0 0 1 1999.5 2684 L 1999.5 2668  Z " stroke-width="1" stroke="#797979" fill="none" />
  <path d="M 2003.2857142857142 2676  L 2007.5714285714287 2680.285714285714  L 2014.7142857142858 2670.285714285714  " stroke-width="4.285714285714286" stroke="#797979" fill="none" />
</svg>