<?xml version="1.0" encoding="utf-8"?>
<svg version="1.1" xmlns:xlink="http://www.w3.org/1999/xlink" width="20px" height="20px" viewBox="1995 2818  20 20" xmlns="http://www.w3.org/2000/svg">
  <path d="M 1995.5 2820  A 1.5 1.5 0 0 1 1997 2818.5 L 2013 2818.5  A 1.5 1.5 0 0 1 2014.5 2820 L 2014.5 2836  A 1.5 1.5 0 0 1 2013 2837.5 L 1997 2837.5  A 1.5 1.5 0 0 1 1995.5 2836 L 1995.5 2820  Z " fill-rule="nonzero" fill="#f2f2f2" stroke="none" fill-opacity="0" />
  <path d="M 1995.5 2820  A 1.5 1.5 0 0 1 1997 2818.5 L 2013 2818.5  A 1.5 1.5 0 0 1 2014.5 2820 L 2014.5 2836  A 1.5 1.5 0 0 1 2013 2837.5 L 1997 2837.5  A 1.5 1.5 0 0 1 1995.5 2836 L 1995.5 2820  Z " stroke-width="1" stroke="#797979" fill="none" />
</svg>