<?xml version="1.0" encoding="utf-8"?>
<svg version="1.1" xmlns:xlink="http://www.w3.org/1999/xlink" width="19px" height="19px" viewBox="378 332  19 19" xmlns="http://www.w3.org/2000/svg">
  <path d="M 387.5 332  C 392.82 332  397 336.18  397 341.5  C 397 346.82  392.82 351  387.5 351  C 382.18 351  378 346.82  378 341.5  C 378 336.18  382.18 332  387.5 332  Z " fill-rule="nonzero" fill="#ffffff" stroke="none" />
  <path d="M 387.5 332.5  C 392.54 332.5  396.5 336.46  396.5 341.5  C 396.5 346.54  392.54 350.5  387.5 350.5  C 382.46 350.5  378.5 346.54  378.5 341.5  C 378.5 336.46  382.46 332.5  387.5 332.5  Z " stroke-width="1" stroke="#f59a23" fill="none" />
  <path d="M 387.5 346.25  C 384.84 346.25  382.75 344.16  382.75 341.5  C 382.75 338.84  384.84 336.75  387.5 336.75  C 390.16 336.75  392.25 338.84  392.25 341.5  C 392.25 344.16  390.16 346.25  387.5 346.25  " fill-rule="nonzero" fill="#f59a23" stroke="none" />
</svg>