<?xml version="1.0" encoding="utf-8"?>
<svg version="1.1" xmlns:xlink="http://www.w3.org/1999/xlink" width="19px" height="19px" viewBox="171 1521  19 19" xmlns="http://www.w3.org/2000/svg">
  <path d="M 180.5 1521  C 185.82 1521  190 1525.18  190 1530.5  C 190 1535.82  185.82 1540  180.5 1540  C 175.18 1540  171 1535.82  171 1530.5  C 171 1525.18  175.18 1521  180.5 1521  Z " fill-rule="nonzero" fill="#ffffff" stroke="none" />
  <path d="M 180.5 1521.5  C 185.54 1521.5  189.5 1525.46  189.5 1530.5  C 189.5 1535.54  185.54 1539.5  180.5 1539.5  C 175.46 1539.5  171.5 1535.54  171.5 1530.5  C 171.5 1525.46  175.46 1521.5  180.5 1521.5  Z " stroke-width="1" stroke="#f59a23" fill="none" />
  <path d="M 180.5 1535.25  C 177.84 1535.25  175.75 1533.16  175.75 1530.5  C 175.75 1527.84  177.84 1525.75  180.5 1525.75  C 183.16 1525.75  185.25 1527.84  185.25 1530.5  C 185.25 1533.16  183.16 1535.25  180.5 1535.25  " fill-rule="nonzero" fill="#f59a23" stroke="none" />
</svg>