<?xml version="1.0" encoding="utf-8"?>
<svg version="1.1" xmlns:xlink="http://www.w3.org/1999/xlink" width="19px" height="19px" viewBox="682 852  19 19" xmlns="http://www.w3.org/2000/svg">
  <path d="M 691.5 852  C 696.82 852  701 856.18  701 861.5  C 701 866.82  696.82 871  691.5 871  C 686.18 871  682 866.82  682 861.5  C 682 856.18  686.18 852  691.5 852  Z " fill-rule="nonzero" fill="#f0f0f0" stroke="none" />
  <path d="M 691.5 852.5  C 696.54 852.5  700.5 856.46  700.5 861.5  C 700.5 866.54  696.54 870.5  691.5 870.5  C 686.46 870.5  682.5 866.54  682.5 861.5  C 682.5 856.46  686.46 852.5  691.5 852.5  Z " stroke-width="1" stroke="#f59a23" fill="none" />
  <path d="M 691.5 866.25  C 688.84 866.25  686.75 864.16  686.75 861.5  C 686.75 858.84  688.84 856.75  691.5 856.75  C 694.16 856.75  696.25 858.84  696.25 861.5  C 696.25 864.16  694.16 866.25  691.5 866.25  " fill-rule="nonzero" fill="#f59a23" stroke="none" />
</svg>