<?xml version="1.0" encoding="utf-8"?>
<svg version="1.1" xmlns:xlink="http://www.w3.org/1999/xlink" width="19px" height="19px" viewBox="682 937  19 19" xmlns="http://www.w3.org/2000/svg">
  <path d="M 691.5 937  C 696.82 937  701 941.18  701 946.5  C 701 951.82  696.82 956  691.5 956  C 686.18 956  682 951.82  682 946.5  C 682 941.18  686.18 937  691.5 937  Z " fill-rule="nonzero" fill="#ffffff" stroke="none" />
  <path d="M 691.5 937.5  C 696.54 937.5  700.5 941.46  700.5 946.5  C 700.5 951.54  696.54 955.5  691.5 955.5  C 686.46 955.5  682.5 951.54  682.5 946.5  C 682.5 941.46  686.46 937.5  691.5 937.5  Z " stroke-width="1" stroke="#f59a23" fill="none" />
  <path d="M 691.5 951.25  C 688.84 951.25  686.75 949.16  686.75 946.5  C 686.75 943.84  688.84 941.75  691.5 941.75  C 694.16 941.75  696.25 943.84  696.25 946.5  C 696.25 949.16  694.16 951.25  691.5 951.25  " fill-rule="nonzero" fill="#f59a23" stroke="none" />
</svg>