<?xml version="1.0" encoding="utf-8"?>
<svg version="1.1" xmlns:xlink="http://www.w3.org/1999/xlink" width="19px" height="19px" viewBox="539 210.5  19 19" xmlns="http://www.w3.org/2000/svg">
  <path d="M 548.5 210.5  C 553.82 210.5  558 214.68  558 220  C 558 225.32  553.82 229.5  548.5 229.5  C 543.18 229.5  539 225.32  539 220  C 539 214.68  543.18 210.5  548.5 210.5  Z " fill-rule="nonzero" fill="#ffffff" stroke="none" />
  <path d="M 548.5 211  C 553.54 211  557.5 214.96  557.5 220  C 557.5 225.04  553.54 229  548.5 229  C 543.46 229  539.5 225.04  539.5 220  C 539.5 214.96  543.46 211  548.5 211  Z " stroke-width="1" stroke="#f59a23" fill="none" />
  <path d="M 548.5 224.75  C 545.84 224.75  543.75 222.66  543.75 220  C 543.75 217.34  545.84 215.25  548.5 215.25  C 551.16 215.25  553.25 217.34  553.25 220  C 553.25 222.66  551.16 224.75  548.5 224.75  " fill-rule="nonzero" fill="#f59a23" stroke="none" />
</svg>