<?xml version="1.0" encoding="utf-8"?>
<svg version="1.1" xmlns:xlink="http://www.w3.org/1999/xlink" width="19px" height="19px" viewBox="295 210.5  19 19" xmlns="http://www.w3.org/2000/svg">
  <path d="M 304.5 210.5  C 309.82 210.5  314 214.68  314 220  C 314 225.32  309.82 229.5  304.5 229.5  C 299.18 229.5  295 225.32  295 220  C 295 214.68  299.18 210.5  304.5 210.5  Z " fill-rule="nonzero" fill="#f0f0f0" stroke="none" />
  <path d="M 304.5 211  C 309.54 211  313.5 214.96  313.5 220  C 313.5 225.04  309.54 229  304.5 229  C 299.46 229  295.5 225.04  295.5 220  C 295.5 214.96  299.46 211  304.5 211  Z " stroke-width="1" stroke="#f59a23" fill="none" />
  <path d="M 304.5 224.75  C 301.84 224.75  299.75 222.66  299.75 220  C 299.75 217.34  301.84 215.25  304.5 215.25  C 307.16 215.25  309.25 217.34  309.25 220  C 309.25 222.66  307.16 224.75  304.5 224.75  " fill-rule="nonzero" fill="#f59a23" stroke="none" />
</svg>