<?xml version="1.0" encoding="utf-8"?>
<svg version="1.1" xmlns:xlink="http://www.w3.org/1999/xlink" width="19px" height="19px" viewBox="412 210.5  19 19" xmlns="http://www.w3.org/2000/svg">
  <path d="M 421.5 210.5  C 426.82 210.5  431 214.68  431 220  C 431 225.32  426.82 229.5  421.5 229.5  C 416.18 229.5  412 225.32  412 220  C 412 214.68  416.18 210.5  421.5 210.5  Z " fill-rule="nonzero" fill="#ffffff" stroke="none" />
  <path d="M 421.5 211  C 426.54 211  430.5 214.96  430.5 220  C 430.5 225.04  426.54 229  421.5 229  C 416.46 229  412.5 225.04  412.5 220  C 412.5 214.96  416.46 211  421.5 211  Z " stroke-width="1" stroke="#f59a23" fill="none" />
  <path d="M 421.5 224.75  C 418.84 224.75  416.75 222.66  416.75 220  C 416.75 217.34  418.84 215.25  421.5 215.25  C 424.16 215.25  426.25 217.34  426.25 220  C 426.25 222.66  424.16 224.75  421.5 224.75  " fill-rule="nonzero" fill="#f59a23" stroke="none" />
</svg>