<?xml version="1.0" encoding="utf-8"?>
<svg version="1.1" xmlns:xlink="http://www.w3.org/1999/xlink" width="19px" height="19px" viewBox="500 630  19 19" xmlns="http://www.w3.org/2000/svg">
  <path d="M 509.5 630  C 514.82 630  519 634.18  519 639.5  C 519 644.82  514.82 649  509.5 649  C 504.18 649  500 644.82  500 639.5  C 500 634.18  504.18 630  509.5 630  Z " fill-rule="nonzero" fill="#ffffff" stroke="none" />
  <path d="M 509.5 630.5  C 514.54 630.5  518.5 634.46  518.5 639.5  C 518.5 644.54  514.54 648.5  509.5 648.5  C 504.46 648.5  500.5 644.54  500.5 639.5  C 500.5 634.46  504.46 630.5  509.5 630.5  Z " stroke-width="1" stroke="#f59a23" fill="none" />
  <path d="M 509.5 644.25  C 506.84 644.25  504.75 642.16  504.75 639.5  C 504.75 636.84  506.84 634.75  509.5 634.75  C 512.16 634.75  514.25 636.84  514.25 639.5  C 514.25 642.16  512.16 644.25  509.5 644.25  " fill-rule="nonzero" fill="#f59a23" stroke="none" />
</svg>