<?xml version="1.0" encoding="utf-8"?>
<svg version="1.1" xmlns:xlink="http://www.w3.org/1999/xlink" width="19px" height="19px" viewBox="653 630  19 19" xmlns="http://www.w3.org/2000/svg">
  <path d="M 662.5 630  C 667.82 630  672 634.18  672 639.5  C 672 644.82  667.82 649  662.5 649  C 657.18 649  653 644.82  653 639.5  C 653 634.18  657.18 630  662.5 630  Z " fill-rule="nonzero" fill="#f0f0f0" stroke="none" />
  <path d="M 662.5 630.5  C 667.54 630.5  671.5 634.46  671.5 639.5  C 671.5 644.54  667.54 648.5  662.5 648.5  C 657.46 648.5  653.5 644.54  653.5 639.5  C 653.5 634.46  657.46 630.5  662.5 630.5  Z " stroke-width="1" stroke="#f59a23" fill="none" />
  <path d="M 662.5 644.25  C 659.84 644.25  657.75 642.16  657.75 639.5  C 657.75 636.84  659.84 634.75  662.5 634.75  C 665.16 634.75  667.25 636.84  667.25 639.5  C 667.25 642.16  665.16 644.25  662.5 644.25  " fill-rule="nonzero" fill="#f59a23" stroke="none" />
</svg>