<?xml version="1.0" encoding="utf-8"?>
<svg version="1.1" xmlns:xlink="http://www.w3.org/1999/xlink" width="19px" height="19px" viewBox="466 389.5  19 19" xmlns="http://www.w3.org/2000/svg">
  <path d="M 475.5 389.5  C 480.82 389.5  485 393.68  485 399  C 485 404.32  480.82 408.5  475.5 408.5  C 470.18 408.5  466 404.32  466 399  C 466 393.68  470.18 389.5  475.5 389.5  Z " fill-rule="nonzero" fill="#ffffff" stroke="none" />
  <path d="M 475.5 390  C 480.54 390  484.5 393.96  484.5 399  C 484.5 404.04  480.54 408  475.5 408  C 470.46 408  466.5 404.04  466.5 399  C 466.5 393.96  470.46 390  475.5 390  Z " stroke-width="1" stroke="#f59a23" fill="none" />
  <path d="M 475.5 403.75  C 472.84 403.75  470.75 401.66  470.75 399  C 470.75 396.34  472.84 394.25  475.5 394.25  C 478.16 394.25  480.25 396.34  480.25 399  C 480.25 401.66  478.16 403.75  475.5 403.75  " fill-rule="nonzero" fill="#f59a23" stroke="none" />
</svg>