<?xml version="1.0" encoding="utf-8"?>
<svg version="1.1" xmlns:xlink="http://www.w3.org/1999/xlink" width="19px" height="19px" viewBox="314 389.5  19 19" xmlns="http://www.w3.org/2000/svg">
  <path d="M 323.5 389.5  C 328.82 389.5  333 393.68  333 399  C 333 404.32  328.82 408.5  323.5 408.5  C 318.18 408.5  314 404.32  314 399  C 314 393.68  318.18 389.5  323.5 389.5  Z " fill-rule="nonzero" fill="#ffffff" stroke="none" />
  <path d="M 323.5 390  C 328.54 390  332.5 393.96  332.5 399  C 332.5 404.04  328.54 408  323.5 408  C 318.46 408  314.5 404.04  314.5 399  C 314.5 393.96  318.46 390  323.5 390  Z " stroke-width="1" stroke="#f59a23" fill="none" />
  <path d="M 323.5 403.75  C 320.84 403.75  318.75 401.66  318.75 399  C 318.75 396.34  320.84 394.25  323.5 394.25  C 326.16 394.25  328.25 396.34  328.25 399  C 328.25 401.66  326.16 403.75  323.5 403.75  " fill-rule="nonzero" fill="#f59a23" stroke="none" />
</svg>