<?xml version="1.0" encoding="utf-8"?>
<svg version="1.1" xmlns:xlink="http://www.w3.org/1999/xlink" width="19px" height="19px" viewBox="425 475  19 19" xmlns="http://www.w3.org/2000/svg">
  <path d="M 434.5 475  C 439.82 475  444 479.18  444 484.5  C 444 489.82  439.82 494  434.5 494  C 429.18 494  425 489.82  425 484.5  C 425 479.18  429.18 475  434.5 475  Z " fill-rule="nonzero" fill="#ffffff" stroke="none" />
  <path d="M 434.5 475.5  C 439.54 475.5  443.5 479.46  443.5 484.5  C 443.5 489.54  439.54 493.5  434.5 493.5  C 429.46 493.5  425.5 489.54  425.5 484.5  C 425.5 479.46  429.46 475.5  434.5 475.5  Z " stroke-width="1" stroke="#f59a23" fill="none" />
  <path d="M 434.5 489.25  C 431.84 489.25  429.75 487.16  429.75 484.5  C 429.75 481.84  431.84 479.75  434.5 479.75  C 437.16 479.75  439.25 481.84  439.25 484.5  C 439.25 487.16  437.16 489.25  434.5 489.25  " fill-rule="nonzero" fill="#f59a23" stroke="none" />
</svg>