<?xml version="1.0" encoding="utf-8"?>
<svg version="1.1" xmlns:xlink="http://www.w3.org/1999/xlink" width="19px" height="19px" viewBox="219 475  19 19" xmlns="http://www.w3.org/2000/svg">
  <path d="M 228.5 475  C 233.82 475  238 479.18  238 484.5  C 238 489.82  233.82 494  228.5 494  C 223.18 494  219 489.82  219 484.5  C 219 479.18  223.18 475  228.5 475  Z " fill-rule="nonzero" fill="#f0f0f0" stroke="none" />
  <path d="M 228.5 475.5  C 233.54 475.5  237.5 479.46  237.5 484.5  C 237.5 489.54  233.54 493.5  228.5 493.5  C 223.46 493.5  219.5 489.54  219.5 484.5  C 219.5 479.46  223.46 475.5  228.5 475.5  Z " stroke-width="1" stroke="#f59a23" fill="none" />
  <path d="M 228.5 489.25  C 225.84 489.25  223.75 487.16  223.75 484.5  C 223.75 481.84  225.84 479.75  228.5 479.75  C 231.16 479.75  233.25 481.84  233.25 484.5  C 233.25 487.16  231.16 489.25  228.5 489.25  " fill-rule="nonzero" fill="#f59a23" stroke="none" />
</svg>