<?xml version="1.0" encoding="utf-8"?>
<svg version="1.1" xmlns:xlink="http://www.w3.org/1999/xlink" width="19px" height="19px" viewBox="313 211.5  19 19" xmlns="http://www.w3.org/2000/svg">
  <path d="M 322.5 211.5  C 327.82 211.5  332 215.68  332 221  C 332 226.32  327.82 230.5  322.5 230.5  C 317.18 230.5  313 226.32  313 221  C 313 215.68  317.18 211.5  322.5 211.5  Z " fill-rule="nonzero" fill="#ffffff" stroke="none" />
  <path d="M 322.5 212  C 327.54 212  331.5 215.96  331.5 221  C 331.5 226.04  327.54 230  322.5 230  C 317.46 230  313.5 226.04  313.5 221  C 313.5 215.96  317.46 212  322.5 212  Z " stroke-width="1" stroke="#f59a23" fill="none" />
  <path d="M 322.5 225.75  C 319.84 225.75  317.75 223.66  317.75 221  C 317.75 218.34  319.84 216.25  322.5 216.25  C 325.16 216.25  327.25 218.34  327.25 221  C 327.25 223.66  325.16 225.75  322.5 225.75  " fill-rule="nonzero" fill="#f59a23" stroke="none" />
</svg>