<?xml version="1.0" encoding="utf-8"?>
<svg version="1.1" xmlns:xlink="http://www.w3.org/1999/xlink" width="19px" height="19px" viewBox="430 211.5  19 19" xmlns="http://www.w3.org/2000/svg">
  <path d="M 439.5 211.5  C 444.82 211.5  449 215.68  449 221  C 449 226.32  444.82 230.5  439.5 230.5  C 434.18 230.5  430 226.32  430 221  C 430 215.68  434.18 211.5  439.5 211.5  Z " fill-rule="nonzero" fill="#ffffff" stroke="none" />
  <path d="M 439.5 212  C 444.54 212  448.5 215.96  448.5 221  C 448.5 226.04  444.54 230  439.5 230  C 434.46 230  430.5 226.04  430.5 221  C 430.5 215.96  434.46 212  439.5 212  Z " stroke-width="1" stroke="#f59a23" fill="none" />
  <path d="M 439.5 225.75  C 436.84 225.75  434.75 223.66  434.75 221  C 434.75 218.34  436.84 216.25  439.5 216.25  C 442.16 216.25  444.25 218.34  444.25 221  C 444.25 223.66  442.16 225.75  439.5 225.75  " fill-rule="nonzero" fill="#f59a23" stroke="none" />
</svg>