<?xml version="1.0" encoding="utf-8"?>
<svg version="1.1" xmlns:xlink="http://www.w3.org/1999/xlink" width="19px" height="19px" viewBox="953 1431  19 19" xmlns="http://www.w3.org/2000/svg">
  <path d="M 962.5 1431  C 967.82 1431  972 1435.18  972 1440.5  C 972 1445.82  967.82 1450  962.5 1450  C 957.18 1450  953 1445.82  953 1440.5  C 953 1435.18  957.18 1431  962.5 1431  Z " fill-rule="nonzero" fill="#ffffff" stroke="none" />
  <path d="M 962.5 1431.5  C 967.54 1431.5  971.5 1435.46  971.5 1440.5  C 971.5 1445.54  967.54 1449.5  962.5 1449.5  C 957.46 1449.5  953.5 1445.54  953.5 1440.5  C 953.5 1435.46  957.46 1431.5  962.5 1431.5  Z " stroke-width="1" stroke="#f59a23" fill="none" />
  <path d="M 962.5 1445.25  C 959.84 1445.25  957.75 1443.16  957.75 1440.5  C 957.75 1437.84  959.84 1435.75  962.5 1435.75  C 965.16 1435.75  967.25 1437.84  967.25 1440.5  C 967.25 1443.16  965.16 1445.25  962.5 1445.25  " fill-rule="nonzero" fill="#f59a23" stroke="none" />
</svg>