<?xml version="1.0" encoding="utf-8"?>
<svg version="1.1" xmlns:xlink="http://www.w3.org/1999/xlink" width="19px" height="19px" viewBox="737 1431  19 19" xmlns="http://www.w3.org/2000/svg">
  <path d="M 746.5 1431  C 751.82 1431  756 1435.18  756 1440.5  C 756 1445.82  751.82 1450  746.5 1450  C 741.18 1450  737 1445.82  737 1440.5  C 737 1435.18  741.18 1431  746.5 1431  Z " fill-rule="nonzero" fill="#ffffff" stroke="none" />
  <path d="M 746.5 1431.5  C 751.54 1431.5  755.5 1435.46  755.5 1440.5  C 755.5 1445.54  751.54 1449.5  746.5 1449.5  C 741.46 1449.5  737.5 1445.54  737.5 1440.5  C 737.5 1435.46  741.46 1431.5  746.5 1431.5  Z " stroke-width="1" stroke="#f59a23" fill="none" />
  <path d="M 746.5 1445.25  C 743.84 1445.25  741.75 1443.16  741.75 1440.5  C 741.75 1437.84  743.84 1435.75  746.5 1435.75  C 749.16 1435.75  751.25 1437.84  751.25 1440.5  C 751.25 1443.16  749.16 1445.25  746.5 1445.25  " fill-rule="nonzero" fill="#f59a23" stroke="none" />
</svg>