<?xml version="1.0" encoding="utf-8"?>
<svg version="1.1" xmlns:xlink="http://www.w3.org/1999/xlink" width="19px" height="19px" viewBox="1117 597  19 19" xmlns="http://www.w3.org/2000/svg">
  <path d="M 1126.5 597  C 1131.82 597  1136 601.18  1136 606.5  C 1136 611.82  1131.82 616  1126.5 616  C 1121.18 616  1117 611.82  1117 606.5  C 1117 601.18  1121.18 597  1126.5 597  Z " fill-rule="nonzero" fill="#ffffff" stroke="none" />
  <path d="M 1126.5 597.5  C 1131.54 597.5  1135.5 601.46  1135.5 606.5  C 1135.5 611.54  1131.54 615.5  1126.5 615.5  C 1121.46 615.5  1117.5 611.54  1117.5 606.5  C 1117.5 601.46  1121.46 597.5  1126.5 597.5  Z " stroke-width="1" stroke="#f59a23" fill="none" />
  <path d="M 1126.5 611.25  C 1123.84 611.25  1121.75 609.16  1121.75 606.5  C 1121.75 603.84  1123.84 601.75  1126.5 601.75  C 1129.16 601.75  1131.25 603.84  1131.25 606.5  C 1131.25 609.16  1129.16 611.25  1126.5 611.25  " fill-rule="nonzero" fill="#f59a23" stroke="none" />
</svg>