<?xml version="1.0" encoding="utf-8"?>
<svg version="1.1" xmlns:xlink="http://www.w3.org/1999/xlink" width="19px" height="19px" viewBox="1019 597  19 19" xmlns="http://www.w3.org/2000/svg">
  <path d="M 1028.5 597  C 1033.82 597  1038 601.18  1038 606.5  C 1038 611.82  1033.82 616  1028.5 616  C 1023.18 616  1019 611.82  1019 606.5  C 1019 601.18  1023.18 597  1028.5 597  Z " fill-rule="nonzero" fill="#ffffff" stroke="none" />
  <path d="M 1028.5 597.5  C 1033.54 597.5  1037.5 601.46  1037.5 606.5  C 1037.5 611.54  1033.54 615.5  1028.5 615.5  C 1023.46 615.5  1019.5 611.54  1019.5 606.5  C 1019.5 601.46  1023.46 597.5  1028.5 597.5  Z " stroke-width="1" stroke="#f59a23" fill="none" />
  <path d="M 1028.5 611.25  C 1025.84 611.25  1023.75 609.16  1023.75 606.5  C 1023.75 603.84  1025.84 601.75  1028.5 601.75  C 1031.16 601.75  1033.25 603.84  1033.25 606.5  C 1033.25 609.16  1031.16 611.25  1028.5 611.25  " fill-rule="nonzero" fill="#f59a23" stroke="none" />
</svg>