<?xml version="1.0" encoding="utf-8"?>
<svg version="1.1" xmlns:xlink="http://www.w3.org/1999/xlink" width="19px" height="19px" viewBox="922 597  19 19" xmlns="http://www.w3.org/2000/svg">
  <path d="M 931.5 597  C 936.82 597  941 601.18  941 606.5  C 941 611.82  936.82 616  931.5 616  C 926.18 616  922 611.82  922 606.5  C 922 601.18  926.18 597  931.5 597  Z " fill-rule="nonzero" fill="#ffffff" stroke="none" />
  <path d="M 931.5 597.5  C 936.54 597.5  940.5 601.46  940.5 606.5  C 940.5 611.54  936.54 615.5  931.5 615.5  C 926.46 615.5  922.5 611.54  922.5 606.5  C 922.5 601.46  926.46 597.5  931.5 597.5  Z " stroke-width="1" stroke="#f59a23" fill="none" />
  <path d="M 931.5 611.25  C 928.84 611.25  926.75 609.16  926.75 606.5  C 926.75 603.84  928.84 601.75  931.5 601.75  C 934.16 601.75  936.25 603.84  936.25 606.5  C 936.25 609.16  934.16 611.25  931.5 611.25  " fill-rule="nonzero" fill="#f59a23" stroke="none" />
</svg>