<?xml version="1.0" encoding="utf-8"?>
<svg version="1.1" xmlns:xlink="http://www.w3.org/1999/xlink" width="25px" height="25px" viewBox="380 31  25 25" xmlns="http://www.w3.org/2000/svg">
  <path d="M 392.5 31  C 399.5 31  405 36.5  405 43.5  C 405 50.5  399.5 56  392.5 56  C 385.5 56  380 50.5  380 43.5  C 380 36.5  385.5 31  392.5 31  Z " fill-rule="nonzero" fill="#ffffff" stroke="none" />
  <path d="M 392.5 31.5  C 399.22 31.5  404.5 36.78  404.5 43.5  C 404.5 50.22  399.22 55.5  392.5 55.5  C 385.78 55.5  380.5 50.22  380.5 43.5  C 380.5 36.78  385.78 31.5  392.5 31.5  Z " stroke-width="1" stroke="#f4a820" fill="none" />
  <path d="M 392.5 49.75  C 389 49.75  386.25 47  386.25 43.5  C 386.25 40  389 37.25  392.5 37.25  C 396 37.25  398.75 40  398.75 43.5  C 398.75 47  396 49.75  392.5 49.75  " fill-rule="nonzero" fill="#f4a820" stroke="none" />
</svg>