<?xml version="1.0" encoding="utf-8"?>
<svg version="1.1" xmlns:xlink="http://www.w3.org/1999/xlink" width="25px" height="25px" viewBox="796 27  25 25" xmlns="http://www.w3.org/2000/svg">
  <path d="M 808.5 27  C 815.5 27  821 32.5  821 39.5  C 821 46.5  815.5 52  808.5 52  C 801.5 52  796 46.5  796 39.5  C 796 32.5  801.5 27  808.5 27  Z " fill-rule="nonzero" fill="#ffffff" stroke="none" />
  <path d="M 808.5 27.5  C 815.22 27.5  820.5 32.78  820.5 39.5  C 820.5 46.22  815.22 51.5  808.5 51.5  C 801.78 51.5  796.5 46.22  796.5 39.5  C 796.5 32.78  801.78 27.5  808.5 27.5  Z " stroke-width="1" stroke="#f59a23" fill="none" />
  <path d="M 808.5 45.75  C 805 45.75  802.25 43  802.25 39.5  C 802.25 36  805 33.25  808.5 33.25  C 812 33.25  814.75 36  814.75 39.5  C 814.75 43  812 45.75  808.5 45.75  " fill-rule="nonzero" fill="#f59a23" stroke="none" />
</svg>