<?xml version="1.0" encoding="utf-8"?>
<svg version="1.1" xmlns:xlink="http://www.w3.org/1999/xlink" width="25px" height="25px" viewBox="220 31  25 25" xmlns="http://www.w3.org/2000/svg">
  <path d="M 232.5 31  C 239.5 31  245 36.5  245 43.5  C 245 50.5  239.5 56  232.5 56  C 225.5 56  220 50.5  220 43.5  C 220 36.5  225.5 31  232.5 31  Z " fill-rule="nonzero" fill="#ffffff" stroke="none" />
  <path d="M 232.5 31.5  C 239.22 31.5  244.5 36.78  244.5 43.5  C 244.5 50.22  239.22 55.5  232.5 55.5  C 225.78 55.5  220.5 50.22  220.5 43.5  C 220.5 36.78  225.78 31.5  232.5 31.5  Z " stroke-width="1" stroke="#f59a23" fill="none" />
  <path d="M 232.5 49.75  C 229 49.75  226.25 47  226.25 43.5  C 226.25 40  229 37.25  232.5 37.25  C 236 37.25  238.75 40  238.75 43.5  C 238.75 47  236 49.75  232.5 49.75  " fill-rule="nonzero" fill="#f59a23" stroke="none" />
</svg>