<?xml version="1.0" encoding="utf-8"?>
<svg version="1.1" xmlns:xlink="http://www.w3.org/1999/xlink" width="19px" height="19px" viewBox="331 775  19 19" xmlns="http://www.w3.org/2000/svg">
  <path d="M 340.5 775  C 345.82 775  350 779.18  350 784.5  C 350 789.82  345.82 794  340.5 794  C 335.18 794  331 789.82  331 784.5  C 331 779.18  335.18 775  340.5 775  Z " fill-rule="nonzero" fill="#f0f0f0" stroke="none" />
  <path d="M 340.5 775.5  C 345.54 775.5  349.5 779.46  349.5 784.5  C 349.5 789.54  345.54 793.5  340.5 793.5  C 335.46 793.5  331.5 789.54  331.5 784.5  C 331.5 779.46  335.46 775.5  340.5 775.5  Z " stroke-width="1" stroke="#f59a23" fill="none" />
  <path d="M 340.5 789.25  C 337.84 789.25  335.75 787.16  335.75 784.5  C 335.75 781.84  337.84 779.75  340.5 779.75  C 343.16 779.75  345.25 781.84  345.25 784.5  C 345.25 787.16  343.16 789.25  340.5 789.25  " fill-rule="nonzero" fill="#f59a23" stroke="none" />
</svg>