<?xml version="1.0" encoding="utf-8"?>
<svg version="1.1" xmlns:xlink="http://www.w3.org/1999/xlink" width="19px" height="19px" viewBox="280 511  19 19" xmlns="http://www.w3.org/2000/svg">
  <path d="M 289.5 511  C 294.82 511  299 515.18  299 520.5  C 299 525.82  294.82 530  289.5 530  C 284.18 530  280 525.82  280 520.5  C 280 515.18  284.18 511  289.5 511  Z " fill-rule="nonzero" fill="#f0f0f0" stroke="none" />
  <path d="M 289.5 511.5  C 294.54 511.5  298.5 515.46  298.5 520.5  C 298.5 525.54  294.54 529.5  289.5 529.5  C 284.46 529.5  280.5 525.54  280.5 520.5  C 280.5 515.46  284.46 511.5  289.5 511.5  Z " stroke-width="1" stroke="#f59a23" fill="none" />
  <path d="M 289.5 525.25  C 286.84 525.25  284.75 523.16  284.75 520.5  C 284.75 517.84  286.84 515.75  289.5 515.75  C 292.16 515.75  294.25 517.84  294.25 520.5  C 294.25 523.16  292.16 525.25  289.5 525.25  " fill-rule="nonzero" fill="#f59a23" stroke="none" />
</svg>