<?xml version="1.0" encoding="utf-8"?>
<svg version="1.1" xmlns:xlink="http://www.w3.org/1999/xlink" width="19px" height="19px" viewBox="429 511  19 19" xmlns="http://www.w3.org/2000/svg">
  <path d="M 438.5 511  C 443.82 511  448 515.18  448 520.5  C 448 525.82  443.82 530  438.5 530  C 433.18 530  429 525.82  429 520.5  C 429 515.18  433.18 511  438.5 511  Z " fill-rule="nonzero" fill="#f0f0f0" stroke="none" />
  <path d="M 438.5 511.5  C 443.54 511.5  447.5 515.46  447.5 520.5  C 447.5 525.54  443.54 529.5  438.5 529.5  C 433.46 529.5  429.5 525.54  429.5 520.5  C 429.5 515.46  433.46 511.5  438.5 511.5  Z " stroke-width="1" stroke="#f59a23" fill="none" />
  <path d="M 438.5 525.25  C 435.84 525.25  433.75 523.16  433.75 520.5  C 433.75 517.84  435.84 515.75  438.5 515.75  C 441.16 515.75  443.25 517.84  443.25 520.5  C 443.25 523.16  441.16 525.25  438.5 525.25  " fill-rule="nonzero" fill="#f59a23" stroke="none" />
</svg>