<?xml version="1.0" encoding="utf-8"?>
<svg version="1.1" xmlns:xlink="http://www.w3.org/1999/xlink" width="19px" height="19px" viewBox="280 1453  19 19" xmlns="http://www.w3.org/2000/svg">
  <path d="M 289.5 1453  C 294.82 1453  299 1457.18  299 1462.5  C 299 1467.82  294.82 1472  289.5 1472  C 284.18 1472  280 1467.82  280 1462.5  C 280 1457.18  284.18 1453  289.5 1453  Z " fill-rule="nonzero" fill="#f0f0f0" stroke="none" />
  <path d="M 289.5 1453.5  C 294.54 1453.5  298.5 1457.46  298.5 1462.5  C 298.5 1467.54  294.54 1471.5  289.5 1471.5  C 284.46 1471.5  280.5 1467.54  280.5 1462.5  C 280.5 1457.46  284.46 1453.5  289.5 1453.5  Z " stroke-width="1" stroke="#f59a23" fill="none" />
  <path d="M 289.5 1467.25  C 286.84 1467.25  284.75 1465.16  284.75 1462.5  C 284.75 1459.84  286.84 1457.75  289.5 1457.75  C 292.16 1457.75  294.25 1459.84  294.25 1462.5  C 294.25 1465.16  292.16 1467.25  289.5 1467.25  " fill-rule="nonzero" fill="#f59a23" stroke="none" />
</svg>