<?xml version="1.0" encoding="utf-8"?>
<svg version="1.1" xmlns:xlink="http://www.w3.org/1999/xlink" width="19px" height="19px" viewBox="244 775  19 19" xmlns="http://www.w3.org/2000/svg">
  <path d="M 253.5 775  C 258.82 775  263 779.18  263 784.5  C 263 789.82  258.82 794  253.5 794  C 248.18 794  244 789.82  244 784.5  C 244 779.18  248.18 775  253.5 775  Z " fill-rule="nonzero" fill="#ffffff" stroke="none" />
  <path d="M 253.5 775.5  C 258.54 775.5  262.5 779.46  262.5 784.5  C 262.5 789.54  258.54 793.5  253.5 793.5  C 248.46 793.5  244.5 789.54  244.5 784.5  C 244.5 779.46  248.46 775.5  253.5 775.5  Z " stroke-width="1" stroke="#f59a23" fill="none" />
  <path d="M 253.5 789.25  C 250.84 789.25  248.75 787.16  248.75 784.5  C 248.75 781.84  250.84 779.75  253.5 779.75  C 256.16 779.75  258.25 781.84  258.25 784.5  C 258.25 787.16  256.16 789.25  253.5 789.25  " fill-rule="nonzero" fill="#f59a23" stroke="none" />
</svg>