<?xml version="1.0" encoding="utf-8"?>
<svg version="1.1" xmlns:xlink="http://www.w3.org/1999/xlink" width="19px" height="19px" viewBox="429 2194  19 19" xmlns="http://www.w3.org/2000/svg">
  <path d="M 438.5 2194  C 443.82 2194  448 2198.18  448 2203.5  C 448 2208.82  443.82 2213  438.5 2213  C 433.18 2213  429 2208.82  429 2203.5  C 429 2198.18  433.18 2194  438.5 2194  Z " fill-rule="nonzero" fill="#ffffff" stroke="none" />
  <path d="M 438.5 2194.5  C 443.54 2194.5  447.5 2198.46  447.5 2203.5  C 447.5 2208.54  443.54 2212.5  438.5 2212.5  C 433.46 2212.5  429.5 2208.54  429.5 2203.5  C 429.5 2198.46  433.46 2194.5  438.5 2194.5  Z " stroke-width="1" stroke="#f59a23" fill="none" />
  <path d="M 438.5 2208.25  C 435.84 2208.25  433.75 2206.16  433.75 2203.5  C 433.75 2200.84  435.84 2198.75  438.5 2198.75  C 441.16 2198.75  443.25 2200.84  443.25 2203.5  C 443.25 2206.16  441.16 2208.25  438.5 2208.25  " fill-rule="nonzero" fill="#f59a23" stroke="none" />
</svg>