<?xml version="1.0" encoding="utf-8"?>
<svg version="1.1" xmlns:xlink="http://www.w3.org/1999/xlink" width="19px" height="19px" viewBox="457 1708  19 19" xmlns="http://www.w3.org/2000/svg">
  <path d="M 466.5 1708  C 471.82 1708  476 1712.18  476 1717.5  C 476 1722.82  471.82 1727  466.5 1727  C 461.18 1727  457 1722.82  457 1717.5  C 457 1712.18  461.18 1708  466.5 1708  Z " fill-rule="nonzero" fill="#f0f0f0" stroke="none" />
  <path d="M 466.5 1708.5  C 471.54 1708.5  475.5 1712.46  475.5 1717.5  C 475.5 1722.54  471.54 1726.5  466.5 1726.5  C 461.46 1726.5  457.5 1722.54  457.5 1717.5  C 457.5 1712.46  461.46 1708.5  466.5 1708.5  Z " stroke-width="1" stroke="#f59a23" fill="none" />
  <path d="M 466.5 1722.25  C 463.84 1722.25  461.75 1720.16  461.75 1717.5  C 461.75 1714.84  463.84 1712.75  466.5 1712.75  C 469.16 1712.75  471.25 1714.84  471.25 1717.5  C 471.25 1720.16  469.16 1722.25  466.5 1722.25  " fill-rule="nonzero" fill="#f59a23" stroke="none" />
</svg>