<?xml version="1.0" encoding="utf-8"?>
<svg version="1.1" xmlns:xlink="http://www.w3.org/1999/xlink" width="19px" height="19px" viewBox="342 951  19 19" xmlns="http://www.w3.org/2000/svg">
  <path d="M 351.5 951  C 356.82 951  361 955.18  361 960.5  C 361 965.82  356.82 970  351.5 970  C 346.18 970  342 965.82  342 960.5  C 342 955.18  346.18 951  351.5 951  Z " fill-rule="nonzero" fill="#f0f0f0" stroke="none" />
  <path d="M 351.5 951.5  C 356.54 951.5  360.5 955.46  360.5 960.5  C 360.5 965.54  356.54 969.5  351.5 969.5  C 346.46 969.5  342.5 965.54  342.5 960.5  C 342.5 955.46  346.46 951.5  351.5 951.5  Z " stroke-width="1" stroke="#f59a23" fill="none" />
  <path d="M 351.5 965.25  C 348.84 965.25  346.75 963.16  346.75 960.5  C 346.75 957.84  348.84 955.75  351.5 955.75  C 354.16 955.75  356.25 957.84  356.25 960.5  C 356.25 963.16  354.16 965.25  351.5 965.25  " fill-rule="nonzero" fill="#f59a23" stroke="none" />
</svg>