<?xml version="1.0" encoding="utf-8"?>
<svg version="1.1" xmlns:xlink="http://www.w3.org/1999/xlink" width="19px" height="19px" viewBox="366 1215  19 19" xmlns="http://www.w3.org/2000/svg">
  <path d="M 375.5 1215  C 380.82 1215  385 1219.18  385 1224.5  C 385 1229.82  380.82 1234  375.5 1234  C 370.18 1234  366 1229.82  366 1224.5  C 366 1219.18  370.18 1215  375.5 1215  Z " fill-rule="nonzero" fill="#f0f0f0" stroke="none" />
  <path d="M 375.5 1215.5  C 380.54 1215.5  384.5 1219.46  384.5 1224.5  C 384.5 1229.54  380.54 1233.5  375.5 1233.5  C 370.46 1233.5  366.5 1229.54  366.5 1224.5  C 366.5 1219.46  370.46 1215.5  375.5 1215.5  Z " stroke-width="1" stroke="#f59a23" fill="none" />
  <path d="M 375.5 1229.25  C 372.84 1229.25  370.75 1227.16  370.75 1224.5  C 370.75 1221.84  372.84 1219.75  375.5 1219.75  C 378.16 1219.75  380.25 1221.84  380.25 1224.5  C 380.25 1227.16  378.16 1229.25  375.5 1229.25  " fill-rule="nonzero" fill="#f59a23" stroke="none" />
</svg>