<?xml version="1.0" encoding="utf-8"?>
<svg version="1.1" xmlns:xlink="http://www.w3.org/1999/xlink" width="19px" height="19px" viewBox="314 720  19 19" xmlns="http://www.w3.org/2000/svg">
  <path d="M 323.5 720  C 328.82 720  333 724.18  333 729.5  C 333 734.82  328.82 739  323.5 739  C 318.18 739  314 734.82  314 729.5  C 314 724.18  318.18 720  323.5 720  Z " fill-rule="nonzero" fill="#f0f0f0" stroke="none" />
  <path d="M 323.5 720.5  C 328.54 720.5  332.5 724.46  332.5 729.5  C 332.5 734.54  328.54 738.5  323.5 738.5  C 318.46 738.5  314.5 734.54  314.5 729.5  C 314.5 724.46  318.46 720.5  323.5 720.5  Z " stroke-width="1" stroke="#f59a23" fill="none" />
  <path d="M 323.5 734.25  C 320.84 734.25  318.75 732.16  318.75 729.5  C 318.75 726.84  320.84 724.75  323.5 724.75  C 326.16 724.75  328.25 726.84  328.25 729.5  C 328.25 732.16  326.16 734.25  323.5 734.25  " fill-rule="nonzero" fill="#f59a23" stroke="none" />
</svg>