<?xml version="1.0" encoding="utf-8"?>
<svg version="1.1" xmlns:xlink="http://www.w3.org/1999/xlink" width="19px" height="19px" viewBox="314 682  19 19" xmlns="http://www.w3.org/2000/svg">
  <path d="M 323.5 682  C 328.82 682  333 686.18  333 691.5  C 333 696.82  328.82 701  323.5 701  C 318.18 701  314 696.82  314 691.5  C 314 686.18  318.18 682  323.5 682  Z " fill-rule="nonzero" fill="#ffffff" stroke="none" />
  <path d="M 323.5 682.5  C 328.54 682.5  332.5 686.46  332.5 691.5  C 332.5 696.54  328.54 700.5  323.5 700.5  C 318.46 700.5  314.5 696.54  314.5 691.5  C 314.5 686.46  318.46 682.5  323.5 682.5  Z " stroke-width="1" stroke="#f59a23" fill="none" />
  <path d="M 323.5 696.25  C 320.84 696.25  318.75 694.16  318.75 691.5  C 318.75 688.84  320.84 686.75  323.5 686.75  C 326.16 686.75  328.25 688.84  328.25 691.5  C 328.25 694.16  326.16 696.25  323.5 696.25  " fill-rule="nonzero" fill="#f59a23" stroke="none" />
</svg>