<?xml version="1.0" encoding="utf-8"?>
<svg version="1.1" xmlns:xlink="http://www.w3.org/1999/xlink" width="19px" height="19px" viewBox="217 1215  19 19" xmlns="http://www.w3.org/2000/svg">
  <path d="M 226.5 1215  C 231.82 1215  236 1219.18  236 1224.5  C 236 1229.82  231.82 1234  226.5 1234  C 221.18 1234  217 1229.82  217 1224.5  C 217 1219.18  221.18 1215  226.5 1215  Z " fill-rule="nonzero" fill="#f0f0f0" stroke="none" />
  <path d="M 226.5 1215.5  C 231.54 1215.5  235.5 1219.46  235.5 1224.5  C 235.5 1229.54  231.54 1233.5  226.5 1233.5  C 221.46 1233.5  217.5 1229.54  217.5 1224.5  C 217.5 1219.46  221.46 1215.5  226.5 1215.5  Z " stroke-width="1" stroke="#f59a23" fill="none" />
  <path d="M 226.5 1229.25  C 223.84 1229.25  221.75 1227.16  221.75 1224.5  C 221.75 1221.84  223.84 1219.75  226.5 1219.75  C 229.16 1219.75  231.25 1221.84  231.25 1224.5  C 231.25 1227.16  229.16 1229.25  226.5 1229.25  " fill-rule="nonzero" fill="#f59a23" stroke="none" />
</svg>