<?xml version="1.0" encoding="utf-8"?>
<svg version="1.1" xmlns:xlink="http://www.w3.org/1999/xlink" width="19px" height="19px" viewBox="280 2194  19 19" xmlns="http://www.w3.org/2000/svg">
  <path d="M 289.5 2194  C 294.82 2194  299 2198.18  299 2203.5  C 299 2208.82  294.82 2213  289.5 2213  C 284.18 2213  280 2208.82  280 2203.5  C 280 2198.18  284.18 2194  289.5 2194  Z " fill-rule="nonzero" fill="#f0f0f0" stroke="none" />
  <path d="M 289.5 2194.5  C 294.54 2194.5  298.5 2198.46  298.5 2203.5  C 298.5 2208.54  294.54 2212.5  289.5 2212.5  C 284.46 2212.5  280.5 2208.54  280.5 2203.5  C 280.5 2198.46  284.46 2194.5  289.5 2194.5  Z " stroke-width="1" stroke="#f59a23" fill="none" />
  <path d="M 289.5 2208.25  C 286.84 2208.25  284.75 2206.16  284.75 2203.5  C 284.75 2200.84  286.84 2198.75  289.5 2198.75  C 292.16 2198.75  294.25 2200.84  294.25 2203.5  C 294.25 2206.16  292.16 2208.25  289.5 2208.25  " fill-rule="nonzero" fill="#f59a23" stroke="none" />
</svg>