<?xml version="1.0" encoding="utf-8"?>
<svg version="1.1" xmlns:xlink="http://www.w3.org/1999/xlink" width="19px" height="19px" viewBox="193 951  19 19" xmlns="http://www.w3.org/2000/svg">
  <path d="M 202.5 951  C 207.82 951  212 955.18  212 960.5  C 212 965.82  207.82 970  202.5 970  C 197.18 970  193 965.82  193 960.5  C 193 955.18  197.18 951  202.5 951  Z " fill-rule="nonzero" fill="#ffffff" stroke="none" />
  <path d="M 202.5 951.5  C 207.54 951.5  211.5 955.46  211.5 960.5  C 211.5 965.54  207.54 969.5  202.5 969.5  C 197.46 969.5  193.5 965.54  193.5 960.5  C 193.5 955.46  197.46 951.5  202.5 951.5  Z " stroke-width="1" stroke="#f59a23" fill="none" />
  <path d="M 202.5 965.25  C 199.84 965.25  197.75 963.16  197.75 960.5  C 197.75 957.84  199.84 955.75  202.5 955.75  C 205.16 955.75  207.25 957.84  207.25 960.5  C 207.25 963.16  205.16 965.25  202.5 965.25  " fill-rule="nonzero" fill="#f59a23" stroke="none" />
</svg>