<?xml version="1.0" encoding="utf-8"?>
<svg version="1.1" xmlns:xlink="http://www.w3.org/1999/xlink" width="7px" height="10px" xmlns="http://www.w3.org/2000/svg">
  <g transform="matrix(1 0 0 1 -204 -1018 )">
    <path d="M 6.8701171875 6.044034090909092  C 6.956705729166667 6.133996212121211  7 6.240530303030303  7 6.363636363636363  C 7 6.486742424242424  6.956705729166667 6.593276515151514  6.8701171875 6.683238636363637  L 3.8076171875 9.865056818181818  C 3.7210286458333335 9.955018939393941  3.6184895833333335 10  3.5 10  C 3.381510416666667 10  3.278971354166667 9.955018939393941  3.1923828125 9.865056818181818  L 0.1298828125 6.683238636363637  C 0.04329427083333333 6.593276515151514  0 6.486742424242424  0 6.363636363636363  C 0 6.240530303030303  0.04329427083333333 6.133996212121211  0.1298828125 6.044034090909092  C 0.21647135416666669 5.954071969696969  0.3190104166666667 5.909090909090908  0.4375 5.909090909090908  L 6.5625 5.909090909090908  C 6.680989583333334 5.909090909090908  6.783528645833334 5.954071969696969  6.8701171875 6.044034090909092  Z M 6.8701171875 3.3167613636363633  C 6.956705729166667 3.406723484848484  7 3.5132575757575744  7 3.6363636363636367  C 7 3.7594696969696964  6.956705729166667 3.866003787878788  6.8701171875 3.955965909090909  C 6.783528645833334 4.045928030303031  6.680989583333334 4.090909090909091  6.5625 4.090909090909091  L 0.4375 4.090909090909091  C 0.3190104166666667 4.090909090909091  0.21647135416666669 4.045928030303031  0.1298828125 3.955965909090909  C 0.04329427083333333 3.866003787878788  0 3.7594696969696964  0 3.6363636363636367  C 0 3.5132575757575744  0.04329427083333333 3.406723484848484  0.1298828125 3.3167613636363633  L 3.1923828125 0.13494318181818232  C 3.278971354166667 0.044981060606059664  3.381510416666667 0  3.5 0  C 3.6184895833333335 0  3.7210286458333335 0.044981060606059664  3.8076171875 0.13494318181818232  L 6.8701171875 3.3167613636363633  Z " fill-rule="nonzero" fill="#aaaaaa" stroke="none" transform="matrix(1 0 0 1 204 1018 )" />
  </g>
</svg>