<?xml version="1.0" encoding="utf-8"?>
<svg version="1.1" xmlns:xlink="http://www.w3.org/1999/xlink" width="20px" height="20px" viewBox="32 30  20 20" xmlns="http://www.w3.org/2000/svg">
  <path d="M 32.5 32  A 1.5 1.5 0 0 1 34 30.5 L 50 30.5  A 1.5 1.5 0 0 1 51.5 32 L 51.5 48  A 1.5 1.5 0 0 1 50 49.5 L 34 49.5  A 1.5 1.5 0 0 1 32.5 48 L 32.5 32  Z " fill-rule="nonzero" fill="#f0f0f0" stroke="none" />
  <path d="M 32.5 32  A 1.5 1.5 0 0 1 34 30.5 L 50 30.5  A 1.5 1.5 0 0 1 51.5 32 L 51.5 48  A 1.5 1.5 0 0 1 50 49.5 L 34 49.5  A 1.5 1.5 0 0 1 32.5 48 L 32.5 32  Z " stroke-width="1" stroke="#797979" fill="none" />
</svg>