<?xml version="1.0" encoding="utf-8"?>
<svg version="1.1" xmlns:xlink="http://www.w3.org/1999/xlink" width="20px" height="20px" viewBox="109 124  20 20" xmlns="http://www.w3.org/2000/svg">
  <path d="M 109.5 126  A 1.5 1.5 0 0 1 111 124.5 L 127 124.5  A 1.5 1.5 0 0 1 128.5 126 L 128.5 142  A 1.5 1.5 0 0 1 127 143.5 L 111 143.5  A 1.5 1.5 0 0 1 109.5 142 L 109.5 126  Z " fill-rule="nonzero" fill="#ffffff" stroke="none" />
  <path d="M 109.5 126  A 1.5 1.5 0 0 1 111 124.5 L 127 124.5  A 1.5 1.5 0 0 1 128.5 126 L 128.5 142  A 1.5 1.5 0 0 1 127 143.5 L 111 143.5  A 1.5 1.5 0 0 1 109.5 142 L 109.5 126  Z " stroke-width="1" stroke="#797979" fill="none" />
  <path d="M 113.28571428571429 134  L 117.57142857142857 138.2857142857143  L 124.71428571428571 128.28571428571428  " stroke-width="4.285714285714286" stroke="#797979" fill="none" />
</svg>