<?xml version="1.0" encoding="utf-8"?>
<svg version="1.1" xmlns:xlink="http://www.w3.org/1999/xlink" width="16px" height="16px" xmlns="http://www.w3.org/2000/svg">
  <g transform="matrix(1 0 0 1 -12 -24 )">
    <path d="M 20 24  C 24.48 24  28 27.52  28 32  C 28 36.480000000000004  24.48 40  20 40  C 15.52 40  12 36.480000000000004  12 32  C 12 27.52  15.52 24  20 24  Z " fill-rule="nonzero" fill="#ffffff" stroke="none" />
    <path d="M 20 24.5  C 24.200000000000003 24.5  27.5 27.8  27.5 32  C 27.5 36.2  24.200000000000003 39.5  20 39.5  C 15.8 39.5  12.5 36.2  12.5 32  C 12.5 27.8  15.8 24.5  20 24.5  Z " stroke-width="1" stroke="#797979" fill="none" />
  </g>
</svg>