<?xml version="1.0" encoding="utf-8"?>
<svg version="1.1" xmlns:xlink="http://www.w3.org/1999/xlink" width="12px" height="11px" xmlns="http://www.w3.org/2000/svg">
  <g transform="matrix(1 0 0 1 -14 -27 )">
    <path d="M 3.2 3.928571428571428  C 3.2 4.497395833333333  3.3687499999999995 5.021205357142858  3.70625 5.5  C 3.03125 5.52046130952381  2.479166666666667 5.782366071428571  2.05 6.285714285714286  L 1.2125 6.285714285714286  C 0.8708333333333332 6.285714285714286  0.5833333333333335 6.202845982142858  0.35 6.037109375  C 0.11666666666666664 5.871372767857142  0 5.62890625  0 5.309709821428572  C 0 3.865141369047618  0.2583333333333333 3.142857142857143  0.7750000000000001 3.142857142857143  C 0.8 3.142857142857143  0.890625 3.185825892857143  1.046875 3.271763392857143  C 1.203125 3.357700892857143  1.40625 3.444661458333333  1.65625 3.5326450892857144  C 1.90625 3.620628720238095  2.154166666666667 3.6646205357142856  2.4000000000000004 3.6646205357142856  C 2.6791666666666667 3.6646205357142856  2.9562500000000003 3.6175595238095233  3.23125 3.5234375  C 3.210416666666667 3.674851190476189  3.2 3.809895833333333  3.2 3.928571428571428  Z M 10.378125 8.774832589285715  C 10.392708333333335 8.98149181547619  10.4 9.19326636904762  10.4 9.41015625  C 10.4 9.901227678571429  10.247916666666667 10.28896949404762  9.94375 10.573381696428571  C 9.639583333333334 10.857793898809524  9.235416666666667 11  8.731250000000001 11  L 3.26875 11  C 2.7645833333333334 11  2.3604166666666675 10.857793898809524  2.05625 10.573381696428571  C 1.7520833333333334 10.28896949404762  1.6 9.901227678571429  1.6 9.41015625  C 1.6 9.19326636904762  1.6072916666666668 8.98149181547619  1.6218750000000002 8.774832589285715  C 1.6364583333333336 8.568173363095237  1.665625 8.345145089285715  1.709375 8.105747767857142  C 1.7531249999999998 7.866350446428571  1.8083333333333336 7.644345238095238  1.875 7.439732142857142  C 1.9416666666666669 7.235119047619047  2.03125 7.035621279761903  2.14375 6.841238839285714  C 2.25625 6.646856398809523  2.385416666666667 6.481119791666666  2.53125 6.344029017857142  C 2.6770833333333335 6.2069382440476195  2.8552083333333336 6.097470238095238  3.0656250000000003 6.015625  C 3.276041666666667 5.933779761904761  3.5083333333333337 5.892857142857142  3.7625 5.892857142857142  C 3.804166666666667 5.892857142857142  3.89375 5.936848958333333  4.03125 6.024832589285714  C 4.16875 6.112816220238095  4.320833333333333 6.2110305059523805  4.4875 6.319475446428571  C 4.654166666666668 6.427920386904761  4.877083333333333 6.526134672619047  5.15625 6.614118303571429  C 5.435416666666667 6.70210193452381  5.716666666666667 6.74609375  6 6.74609375  C 6.283333333333333 6.74609375  6.564583333333333 6.70210193452381  6.84375 6.614118303571429  C 7.122916666666668 6.526134672619047  7.345833333333335 6.427920386904761  7.512500000000001 6.319475446428571  C 7.679166666666667 6.2110305059523805  7.83125 6.112816220238095  7.96875 6.024832589285714  C 8.10625 5.936848958333333  8.195833333333335 5.892857142857142  8.237499999999999 5.892857142857142  C 8.491666666666667 5.892857142857142  8.723958333333336 5.933779761904761  8.934375 6.015625  C 9.144791666666666 6.097470238095238  9.322916666666666 6.2069382440476195  9.46875 6.344029017857142  C 9.614583333333336 6.481119791666666  9.74375 6.646856398809523  9.856250000000001 6.841238839285714  C 9.96875 7.035621279761903  10.058333333333335 7.235119047619047  10.125 7.439732142857142  C 10.191666666666668 7.644345238095238  10.246875 7.866350446428571  10.290625 8.105747767857142  C 10.334375 8.345145089285715  10.363541666666666 8.568173363095237  10.378125 8.774832589285715  Z M 3.53125 0.46037946428571463  C 3.84375 0.7672991071428573  4 1.1376488095238084  4 1.571428571428572  C 4 2.005208333333333  3.84375 2.3755580357142856  3.53125 2.682477678571428  C 3.21875 2.989397321428572  2.841666666666667 3.142857142857143  2.4000000000000004 3.142857142857143  C 1.9583333333333337 3.142857142857143  1.58125 2.989397321428572  1.26875 2.682477678571428  C 0.9562499999999999 2.3755580357142856  0.8 2.005208333333333  0.8 1.571428571428572  C 0.8 1.1376488095238084  0.9562499999999999 0.7672991071428573  1.26875 0.46037946428571463  C 1.58125 0.15345982142857195  1.9583333333333337 0  2.4000000000000004 0  C 2.841666666666667 0  3.21875 0.15345982142857195  3.53125 0.46037946428571463  Z M 7.6968749999999995 2.261997767857143  C 8.165624999999999 2.722377232142857  8.399999999999999 3.2779017857142856  8.399999999999999 3.928571428571428  C 8.399999999999999 4.579241071428572  8.165624999999999 5.134765625  7.6968749999999995 5.595145089285714  C 7.2281249999999995 6.055524553571429  6.6625 6.285714285714286  6 6.285714285714286  C 5.337500000000001 6.285714285714286  4.7718750000000005 6.055524553571429  4.303125 5.595145089285714  C 3.8343749999999996 5.134765625  3.5999999999999996 4.579241071428572  3.5999999999999996 3.928571428571428  C 3.5999999999999996 3.2779017857142856  3.8343749999999996 2.722377232142857  4.303125 2.261997767857143  C 4.7718750000000005 1.801618303571428  5.337500000000001 1.571428571428572  6 1.571428571428572  C 6.6625 1.571428571428572  7.2281249999999995 1.801618303571428  7.6968749999999995 2.261997767857143  Z M 11.225 3.142857142857143  C 11.741666666666669 3.142857142857143  12.000000000000004 3.865141369047618  12 5.309709821428572  C 12.000000000000004 5.62890625  11.883333333333333 5.871372767857142  11.65 6.037109375  C 11.416666666666668 6.202845982142858  11.129166666666668 6.285714285714286  10.7875 6.285714285714286  L 9.950000000000001 6.285714285714286  C 9.520833333333336 5.782366071428571  8.96875 5.52046130952381  8.29375 5.5  C 8.63125 5.021205357142858  8.799999999999999 4.497395833333333  8.799999999999999 3.928571428571428  C 8.799999999999999 3.809895833333333  8.789583333333333 3.674851190476189  8.76875 3.5234375  C 9.04375 3.6175595238095233  9.320833333333335 3.6646205357142856  9.600000000000001 3.6646205357142856  C 9.845833333333333 3.6646205357142856  10.09375 3.620628720238095  10.34375 3.5326450892857144  C 10.59375 3.444661458333333  10.796875 3.357700892857143  10.953125 3.271763392857143  C 11.109375 3.185825892857143  11.2 3.142857142857143  11.225 3.142857142857143  Z M 10.73125 0.46037946428571463  C 11.04375 0.7672991071428573  11.2 1.1376488095238084  11.2 1.571428571428572  C 11.2 2.005208333333333  11.04375 2.3755580357142856  10.73125 2.682477678571428  C 10.418750000000001 2.989397321428572  10.041666666666668 3.142857142857143  9.600000000000001 3.142857142857143  C 9.158333333333335 3.142857142857143  8.78125 2.989397321428572  8.46875 2.682477678571428  C 8.15625 2.3755580357142856  8 2.005208333333333  8 1.571428571428572  C 8 1.1376488095238084  8.15625 0.7672991071428573  8.46875 0.46037946428571463  C 8.78125 0.15345982142857195  9.158333333333335 0  9.600000000000001 0  C 10.041666666666668 0  10.418750000000001 0.15345982142857195  10.73125 0.46037946428571463  Z " fill-rule="nonzero" fill="#7f7f7f" stroke="none" transform="matrix(1 0 0 1 14 27 )" />
  </g>
</svg>