<?xml version="1.0" encoding="utf-8"?>
<svg version="1.1" xmlns:xlink="http://www.w3.org/1999/xlink" width="14px" height="15px" xmlns="http://www.w3.org/2000/svg">
  <g transform="matrix(1 0 0 1 -1177 -40 )">
    <path d="M 3.4999996662140207 10.199999313354558  L 4.479999305725164 11.249998927116497  L 6.999999332428041 8.549998898506269  L 9.51999935913092 11.249998927116497  L 10.499998998642063 10.199999313354558  L 7.979998971939185 7.49999928474433  L 10.499998998642063 4.799999256134104  L 9.51999935913092 3.749999642372165  L 6.999999332428041 6.4499996709823915  L 4.479999305725164 3.749999642372165  L 3.4999996662140207 4.799999256134104  L 6.019999692916899 7.49999928474433  L 3.4999996662140207 10.199999313354558  Z M 9.729998805046195 14.409748133683383  C 8.878332197348385 14.803748104810897  7.968332567850821 15.000498569435623  6.999999332428041 14.99999856948866  C 6.031666097005262 14.99999856948866  5.121666467507699 14.802998516869687  4.2699998598098885 14.408998545742172  C 3.4183332521120784 14.01499857461466  2.6774998614788186 13.480749304938383  2.0474999382495938 12.80624935090548  C 1.417500015020369 12.131249433159882  0.9188666540273043 11.337498656511436  0.551600022163389 10.424998719692352  C 0.18433339029947376 9.512498782873271  0.00046666661716377215 8.537499179840166  0 7.49999928474433  C 0 6.462499389648495  0.18386671577771035 5.487499786615391  0.551600022163389 4.574999849796309  C 0.9193333285490678 3.662499912977227  1.417966647818885 2.8687498515844485  2.0474999382495938 2.19374993383885  C 2.6774998614788186 1.5187500160932526  3.4183332521120784 0.984499986457826  4.2699998598098885 0.5910000237464882  C 5.121666467507699 0.19750006103515044  6.031666097005262 0.0004999999469611844  6.999999332428041 0  C 7.968332567850821 0  8.878332197348385 0.19700005261897538  9.729998805046195 0.5910000237464882  C 10.581665412744005 0.9849999948740011  11.322499470949223 1.5192499798059482  11.952499394178448 2.19374993383885  C 12.582499317407672 2.8687498515844485  13.081364951718811 3.662499912977227  13.44909825810449 4.574999849796309  C 13.816831564490169 5.487499786615391  14.000465331473247 6.462499389648495  13.999998664856083 7.49999928474433  C 13.999998664856083 8.537499179840166  13.816131949078374 9.512498782873271  13.448398642692695 10.424998719692352  C 13.080665336307016 11.337498656511436  12.582032684609157 12.131249433159882  11.952499394178448 12.80624935090548  C 11.322499470949223 13.481249268651078  10.581665412744005 14.015748162555868  9.729998805046195 14.409748133683383  Z " fill-rule="nonzero" fill="#767676" stroke="none" transform="matrix(1 0 0 1 1177 40 )" />
  </g>
</svg>