<?xml version="1.0" encoding="utf-8"?>
<svg version="1.1" xmlns:xlink="http://www.w3.org/1999/xlink" width="19px" height="19px" viewBox="313 1593  19 19" xmlns="http://www.w3.org/2000/svg">
  <path d="M 322.5 1593  C 327.82 1593  332 1597.18  332 1602.5  C 332 1607.82  327.82 1612  322.5 1612  C 317.18 1612  313 1607.82  313 1602.5  C 313 1597.18  317.18 1593  322.5 1593  Z " fill-rule="nonzero" fill="#ffffff" stroke="none" />
  <path d="M 322.5 1593.5  C 327.54 1593.5  331.5 1597.46  331.5 1602.5  C 331.5 1607.54  327.54 1611.5  322.5 1611.5  C 317.46 1611.5  313.5 1607.54  313.5 1602.5  C 313.5 1597.46  317.46 1593.5  322.5 1593.5  Z " stroke-width="1" stroke="#f59a23" fill="none" />
  <path d="M 322.5 1607.25  C 319.84 1607.25  317.75 1605.16  317.75 1602.5  C 317.75 1599.84  319.84 1597.75  322.5 1597.75  C 325.16 1597.75  327.25 1599.84  327.25 1602.5  C 327.25 1605.16  325.16 1607.25  322.5 1607.25  " fill-rule="nonzero" fill="#f59a23" stroke="none" />
</svg>