<?xml version="1.0" encoding="utf-8"?>
<svg version="1.1" xmlns:xlink="http://www.w3.org/1999/xlink" width="19px" height="19px" viewBox="457 1593  19 19" xmlns="http://www.w3.org/2000/svg">
  <path d="M 466.5 1593  C 471.82 1593  476 1597.18  476 1602.5  C 476 1607.82  471.82 1612  466.5 1612  C 461.18 1612  457 1607.82  457 1602.5  C 457 1597.18  461.18 1593  466.5 1593  Z " fill-rule="nonzero" fill="#ffffff" stroke="none" />
  <path d="M 466.5 1593.5  C 471.54 1593.5  475.5 1597.46  475.5 1602.5  C 475.5 1607.54  471.54 1611.5  466.5 1611.5  C 461.46 1611.5  457.5 1607.54  457.5 1602.5  C 457.5 1597.46  461.46 1593.5  466.5 1593.5  Z " stroke-width="1" stroke="#f59a23" fill="none" />
  <path d="M 466.5 1607.25  C 463.84 1607.25  461.75 1605.16  461.75 1602.5  C 461.75 1599.84  463.84 1597.75  466.5 1597.75  C 469.16 1597.75  471.25 1599.84  471.25 1602.5  C 471.25 1605.16  469.16 1607.25  466.5 1607.25  " fill-rule="nonzero" fill="#f59a23" stroke="none" />
</svg>