<?xml version="1.0" encoding="utf-8"?>
<svg version="1.1" xmlns:xlink="http://www.w3.org/1999/xlink" width="19px" height="19px" viewBox="385 395.5  19 19" xmlns="http://www.w3.org/2000/svg">
  <path d="M 394.5 395.5  C 399.82 395.5  404 399.68  404 405  C 404 410.32  399.82 414.5  394.5 414.5  C 389.18 414.5  385 410.32  385 405  C 385 399.68  389.18 395.5  394.5 395.5  Z " fill-rule="nonzero" fill="#ffffff" stroke="none" />
  <path d="M 394.5 396  C 399.54 396  403.5 399.96  403.5 405  C 403.5 410.04  399.54 414  394.5 414  C 389.46 414  385.5 410.04  385.5 405  C 385.5 399.96  389.46 396  394.5 396  Z " stroke-width="1" stroke="#f59a23" fill="none" />
  <path d="M 394.5 409.75  C 391.84 409.75  389.75 407.66  389.75 405  C 389.75 402.34  391.84 400.25  394.5 400.25  C 397.16 400.25  399.25 402.34  399.25 405  C 399.25 407.66  397.16 409.75  394.5 409.75  " fill-rule="nonzero" fill="#f59a23" stroke="none" />
</svg>