<?xml version="1.0" encoding="utf-8"?>
<svg version="1.1" xmlns:xlink="http://www.w3.org/1999/xlink" width="19px" height="19px" viewBox="238 396.5  19 19" xmlns="http://www.w3.org/2000/svg">
  <path d="M 247.5 396.5  C 252.82 396.5  257 400.68  257 406  C 257 411.32  252.82 415.5  247.5 415.5  C 242.18 415.5  238 411.32  238 406  C 238 400.68  242.18 396.5  247.5 396.5  Z " fill-rule="nonzero" fill="#ffffff" stroke="none" />
  <path d="M 247.5 397  C 252.54 397  256.5 400.96  256.5 406  C 256.5 411.04  252.54 415  247.5 415  C 242.46 415  238.5 411.04  238.5 406  C 238.5 400.96  242.46 397  247.5 397  Z " stroke-width="1" stroke="#f59a23" fill="none" />
  <path d="M 247.5 410.75  C 244.84 410.75  242.75 408.66  242.75 406  C 242.75 403.34  244.84 401.25  247.5 401.25  C 250.16 401.25  252.25 403.34  252.25 406  C 252.25 408.66  250.16 410.75  247.5 410.75  " fill-rule="nonzero" fill="#f59a23" stroke="none" />
</svg>