<?xml version="1.0" encoding="utf-8"?>
<svg version="1.1" xmlns:xlink="http://www.w3.org/1999/xlink" width="19px" height="19px" viewBox="386 396.5  19 19" xmlns="http://www.w3.org/2000/svg">
  <path d="M 395.5 396.5  C 400.82 396.5  405 400.68  405 406  C 405 411.32  400.82 415.5  395.5 415.5  C 390.18 415.5  386 411.32  386 406  C 386 400.68  390.18 396.5  395.5 396.5  Z " fill-rule="nonzero" fill="#f0f0f0" stroke="none" />
  <path d="M 395.5 397  C 400.54 397  404.5 400.96  404.5 406  C 404.5 411.04  400.54 415  395.5 415  C 390.46 415  386.5 411.04  386.5 406  C 386.5 400.96  390.46 397  395.5 397  Z " stroke-width="1" stroke="#f59a23" fill="none" />
  <path d="M 395.5 410.75  C 392.84 410.75  390.75 408.66  390.75 406  C 390.75 403.34  392.84 401.25  395.5 401.25  C 398.16 401.25  400.25 403.34  400.25 406  C 400.25 408.66  398.16 410.75  395.5 410.75  " fill-rule="nonzero" fill="#f59a23" stroke="none" />
</svg>