<?xml version="1.0" encoding="utf-8"?>
<svg version="1.1" xmlns:xlink="http://www.w3.org/1999/xlink" width="19px" height="19px" viewBox="310 310.5  19 19" xmlns="http://www.w3.org/2000/svg">
  <path d="M 319.5 310.5  C 324.82 310.5  329 314.68  329 320  C 329 325.32  324.82 329.5  319.5 329.5  C 314.18 329.5  310 325.32  310 320  C 310 314.68  314.18 310.5  319.5 310.5  Z " fill-rule="nonzero" fill="#ffffff" stroke="none" />
  <path d="M 319.5 311  C 324.54 311  328.5 314.96  328.5 320  C 328.5 325.04  324.54 329  319.5 329  C 314.46 329  310.5 325.04  310.5 320  C 310.5 314.96  314.46 311  319.5 311  Z " stroke-width="1" stroke="#f59a23" fill="none" />
  <path d="M 319.5 324.75  C 316.84 324.75  314.75 322.66  314.75 320  C 314.75 317.34  316.84 315.25  319.5 315.25  C 322.16 315.25  324.25 317.34  324.25 320  C 324.25 322.66  322.16 324.75  319.5 324.75  " fill-rule="nonzero" fill="#f59a23" stroke="none" />
</svg>