<?xml version="1.0" encoding="utf-8"?>
<svg version="1.1" xmlns:xlink="http://www.w3.org/1999/xlink" width="19px" height="19px" viewBox="416 310.5  19 19" xmlns="http://www.w3.org/2000/svg">
  <path d="M 425.5 310.5  C 430.82 310.5  435 314.68  435 320  C 435 325.32  430.82 329.5  425.5 329.5  C 420.18 329.5  416 325.32  416 320  C 416 314.68  420.18 310.5  425.5 310.5  Z " fill-rule="nonzero" fill="#ffffff" stroke="none" />
  <path d="M 425.5 311  C 430.54 311  434.5 314.96  434.5 320  C 434.5 325.04  430.54 329  425.5 329  C 420.46 329  416.5 325.04  416.5 320  C 416.5 314.96  420.46 311  425.5 311  Z " stroke-width="1" stroke="#f59a23" fill="none" />
  <path d="M 425.5 324.75  C 422.84 324.75  420.75 322.66  420.75 320  C 420.75 317.34  422.84 315.25  425.5 315.25  C 428.16 315.25  430.25 317.34  430.25 320  C 430.25 322.66  428.16 324.75  425.5 324.75  " fill-rule="nonzero" fill="#f59a23" stroke="none" />
</svg>