<?xml version="1.0" encoding="utf-8"?>
<svg version="1.1" xmlns:xlink="http://www.w3.org/1999/xlink" width="19px" height="19px" viewBox="310 312.5  19 19" xmlns="http://www.w3.org/2000/svg">
  <path d="M 319.5 312.5  C 324.82 312.5  329 316.68  329 322  C 329 327.32  324.82 331.5  319.5 331.5  C 314.18 331.5  310 327.32  310 322  C 310 316.68  314.18 312.5  319.5 312.5  Z " fill-rule="nonzero" fill="#f0f0f0" stroke="none" />
  <path d="M 319.5 313  C 324.54 313  328.5 316.96  328.5 322  C 328.5 327.04  324.54 331  319.5 331  C 314.46 331  310.5 327.04  310.5 322  C 310.5 316.96  314.46 313  319.5 313  Z " stroke-width="1" stroke="#f59a23" fill="none" />
  <path d="M 319.5 326.75  C 316.84 326.75  314.75 324.66  314.75 322  C 314.75 319.34  316.84 317.25  319.5 317.25  C 322.16 317.25  324.25 319.34  324.25 322  C 324.25 324.66  322.16 326.75  319.5 326.75  " fill-rule="nonzero" fill="#f59a23" stroke="none" />
</svg>