<?xml version="1.0" encoding="utf-8"?>
<svg version="1.1" xmlns:xlink="http://www.w3.org/1999/xlink" width="19px" height="19px" viewBox="416 312.5  19 19" xmlns="http://www.w3.org/2000/svg">
  <path d="M 425.5 312.5  C 430.82 312.5  435 316.68  435 322  C 435 327.32  430.82 331.5  425.5 331.5  C 420.18 331.5  416 327.32  416 322  C 416 316.68  420.18 312.5  425.5 312.5  Z " fill-rule="nonzero" fill="#f0f0f0" stroke="none" />
  <path d="M 425.5 313  C 430.54 313  434.5 316.96  434.5 322  C 434.5 327.04  430.54 331  425.5 331  C 420.46 331  416.5 327.04  416.5 322  C 416.5 316.96  420.46 313  425.5 313  Z " stroke-width="1" stroke="#f59a23" fill="none" />
  <path d="M 425.5 326.75  C 422.84 326.75  420.75 324.66  420.75 322  C 420.75 319.34  422.84 317.25  425.5 317.25  C 428.16 317.25  430.25 319.34  430.25 322  C 430.25 324.66  428.16 326.75  425.5 326.75  " fill-rule="nonzero" fill="#f59a23" stroke="none" />
</svg>