<?xml version="1.0" encoding="utf-8"?>
<svg version="1.1" xmlns:xlink="http://www.w3.org/1999/xlink" width="19px" height="19px" viewBox="210 312.5  19 19" xmlns="http://www.w3.org/2000/svg">
  <path d="M 219.5 312.5  C 224.82 312.5  229 316.68  229 322  C 229 327.32  224.82 331.5  219.5 331.5  C 214.18 331.5  210 327.32  210 322  C 210 316.68  214.18 312.5  219.5 312.5  Z " fill-rule="nonzero" fill="#f0f0f0" stroke="none" />
  <path d="M 219.5 313  C 224.54 313  228.5 316.96  228.5 322  C 228.5 327.04  224.54 331  219.5 331  C 214.46 331  210.5 327.04  210.5 322  C 210.5 316.96  214.46 313  219.5 313  Z " stroke-width="1" stroke="#f59a23" fill="none" />
  <path d="M 219.5 326.75  C 216.84 326.75  214.75 324.66  214.75 322  C 214.75 319.34  216.84 317.25  219.5 317.25  C 222.16 317.25  224.25 319.34  224.25 322  C 224.25 324.66  222.16 326.75  219.5 326.75  " fill-rule="nonzero" fill="#f59a23" stroke="none" />
</svg>