<?xml version="1.0" encoding="utf-8"?>
<svg version="1.1" xmlns:xlink="http://www.w3.org/1999/xlink" width="19px" height="19px" viewBox="327 504  19 19" xmlns="http://www.w3.org/2000/svg">
  <path d="M 336.5 504  C 341.82 504  346 508.18  346 513.5  C 346 518.82  341.82 523  336.5 523  C 331.18 523  327 518.82  327 513.5  C 327 508.18  331.18 504  336.5 504  Z " fill-rule="nonzero" fill="#f0f0f0" stroke="none" />
  <path d="M 336.5 504.5  C 341.54 504.5  345.5 508.46  345.5 513.5  C 345.5 518.54  341.54 522.5  336.5 522.5  C 331.46 522.5  327.5 518.54  327.5 513.5  C 327.5 508.46  331.46 504.5  336.5 504.5  Z " stroke-width="1" stroke="#f59a23" fill="none" />
  <path d="M 336.5 518.25  C 333.84 518.25  331.75 516.16  331.75 513.5  C 331.75 510.84  333.84 508.75  336.5 508.75  C 339.16 508.75  341.25 510.84  341.25 513.5  C 341.25 516.16  339.16 518.25  336.5 518.25  " fill-rule="nonzero" fill="#f59a23" stroke="none" />
</svg>