<?xml version="1.0" encoding="utf-8"?>
<svg version="1.1" xmlns:xlink="http://www.w3.org/1999/xlink" width="50px" height="45px" xmlns="http://www.w3.org/2000/svg">
  <g transform="matrix(1 0 0 1 -108 -1558 )">
    <path d="M 42.51243781094527 41.1328125  L 44.5771144278607 39.048549107142854  C 44.8922056384743 38.73046875  45.265339966832514 38.57142857142858  45.69651741293532 38.57142857142858  C 46.12769485903815 38.57142857142858  46.500829187396356 38.73046875  46.81592039800995 39.048549107142854  L 50 42.26283482142857  L 47.76119402985074 44.522879464285715  L 45.69651741293532 42.43861607142857  L 43.6318407960199 44.522879464285715  C 43.33333333333334 44.84095982142857  42.96019900497513 45  42.51243781094527 45  C 42.06467661691543 45  41.69154228855722 44.84095982142857  41.39303482587064 44.522879464285715  L 39.32835820895522 42.43861607142857  L 37.2636815920398 44.522879464285715  C 36.94859038142621 44.84095982142857  36.575456053067995 45  36.14427860696517 45  C 35.71310116086236 45  35.339966832504146 44.84095982142857  35.02487562189055 44.522879464285715  L 32.960199004975124 42.43861607142857  L 30.895522388059703 44.522879464285715  C 30.580431177446105 44.84095982142857  30.2072968490879 45  29.776119402985074 45  C 29.34494195688226 45  28.971807628524047 44.84095982142857  28.65671641791045 44.522879464285715  L 26.592039800995025 42.43861607142857  L 24.5273631840796 44.522879464285715  C 24.212271973466002 44.84095982142857  23.839137645107794 45  23.407960199004975 45  C 22.97678275290216 45  22.603648424543948 44.84095982142857  22.28855721393035 44.522879464285715  L 20.223880597014926 42.43861607142857  L 18.1592039800995 44.522879464285715  C 17.844112769485903 44.84095982142857  17.470978441127695 45  17.039800995024876 45  C 16.608623548922058 45  16.23548922056385 44.84095982142857  15.92039800995025 44.522879464285715  L 13.855721393034825 42.43861607142857  L 11.791044776119403 44.522879464285715  C 11.475953565505806 44.84095982142857  11.102819237147596 45  10.671641791044777 45  C 10.240464344941957 45  9.867330016583749 44.84095982142857  9.55223880597015 44.522879464285715  L 7.487562189054726 42.43861607142857  L 5.422885572139304 44.522879464285715  C 5.107794361525705 44.84095982142857  4.734660033167496 45  4.303482587064677 45  C 3.8723051409618576 45  3.499170812603649 44.84095982142857  3.1840796019900495 44.522879464285715  L 0 41.30859375  L 2.2388059701492535 39.048549107142854  L 4.303482587064677 41.1328125  L 6.368159203980099 39.048549107142854  C 6.683250414593698 38.73046875  7.0563847429519075 38.57142857142858  7.487562189054726 38.57142857142858  C 7.918739635157547 38.57142857142858  8.291873963515755 38.73046875  8.606965174129353 39.048549107142854  L 10.671641791044777 41.1328125  L 12.736318407960198 39.048549107142854  C 13.0514096185738 38.73046875  13.424543946932008 38.57142857142858  13.855721393034825 38.57142857142858  C 14.286898839137645 38.57142857142858  14.660033167495856 38.73046875  14.975124378109452 39.048549107142854  L 17.039800995024876 41.1328125  L 19.1044776119403 39.048549107142854  C 19.4195688225539 38.73046875  19.792703150912107 38.57142857142858  20.223880597014926 38.57142857142858  C 20.655058043117748 38.57142857142858  21.028192371475956 38.73046875  21.343283582089555 39.048549107142854  L 23.407960199004975 41.1328125  L 25.472636815920396 39.048549107142854  C 25.787728026533998 38.73046875  26.160862354892206 38.57142857142858  26.592039800995025 38.57142857142858  C 27.023217247097847 38.57142857142858  27.39635157545606 38.73046875  27.71144278606965 39.048549107142854  L 29.776119402985074 41.1328125  L 31.8407960199005 39.048549107142854  C 32.1558872305141 38.73046875  32.52902155887231 38.57142857142858  32.960199004975124 38.57142857142858  C 33.391376451077946 38.57142857142858  33.76451077943616 38.73046875  34.07960199004975 39.048549107142854  L 36.14427860696517 41.1328125  L 38.2089552238806 39.048549107142854  C 38.524046434494196 38.73046875  38.89718076285241 38.57142857142858  39.32835820895522 38.57142857142858  C 39.759535655058045 38.57142857142858  40.13266998341626 38.73046875  40.44776119402985 39.048549107142854  L 42.51243781094527 41.1328125  Z M 7.487562189054726 36.010044642857146  L 5.422885572139304 38.094308035714285  C 5.107794361525705 38.41238839285714  4.734660033167496 38.57142857142858  4.303482587064677 38.57142857142858  C 3.8723051409618576 38.57142857142858  3.499170812603649 38.41238839285714  3.1840796019900495 38.094308035714285  L 0 34.88002232142858  L 2.2388059701492535 32.61997767857142  L 4.303482587064677 34.679129464285715  L 6.368159203980099 32.61997767857142  C 6.683250414593698 32.30189732142857  7.0563847429519075 32.142857142857146  7.487562189054726 32.142857142857146  C 7.918739635157547 32.142857142857146  8.291873963515755 32.30189732142857  8.606965174129353 32.61997767857142  L 10.671641791044777 34.679129464285715  L 12.2636815920398 33.071986607142854  L 12.2636815920398 25.71428571428571  L 7.039800995024875 17.82924107142857  C 6.757877280265341 17.39397321428571  6.69983416252073 16.92103794642857  6.865671641791045 16.410435267857142  C 7.031509121061361 15.899832589285712  7.36318407960199 15.560825892857137  7.860696517412935 15.39341517857143  L 12.2636815920398 13.936941964285714  L 12.2636815920398 6.428571428571431  L 15.447761194029852 6.428571428571431  L 15.447761194029852 3.2142857142857126  L 21.81592039800995 3.2142857142857126  L 21.81592039800995 0  L 28.184079601990046 0  L 28.184079601990046 3.2142857142857126  L 34.55223880597015 3.2142857142857126  L 34.55223880597015 6.428571428571431  L 37.7363184079602 6.428571428571431  L 37.7363184079602 13.936941964285714  L 42.13930348258707 15.39341517857143  C 42.636815920398014 15.560825892857137  42.968490878938645 15.899832589285712  43.134328358208954 16.410435267857142  C 43.30016583747927 16.92103794642857  43.24212271973467 17.39397321428571  42.960199004975124 17.82924107142857  L 37.7363184079602 25.71428571428571  L 37.7363184079602 33.071986607142854  L 38.2089552238806 32.61997767857142  C 38.524046434494196 32.30189732142857  38.89718076285241 32.142857142857146  39.32835820895522 32.142857142857146  C 39.759535655058045 32.142857142857146  40.13266998341626 32.30189732142857  40.44776119402985 32.61997767857142  L 42.51243781094527 34.679129464285715  L 44.5771144278607 32.61997767857142  C 44.8922056384743 32.30189732142857  45.265339966832514 32.142857142857146  45.69651741293532 32.142857142857146  C 46.12769485903815 32.142857142857146  46.500829187396356 32.30189732142857  46.81592039800995 32.61997767857142  L 50 35.834263392857146  L 47.76119402985074 38.094308035714285  L 45.69651741293532 36.010044642857146  L 43.6318407960199 38.094308035714285  C 43.33333333333334 38.41238839285714  42.96019900497513 38.57142857142858  42.51243781094527 38.57142857142858  C 42.06467661691543 38.57142857142858  41.69154228855722 38.41238839285714  41.39303482587064 38.094308035714285  L 39.32835820895522 36.010044642857146  L 37.2636815920398 38.094308035714285  C 36.94859038142621 38.41238839285714  36.575456053067995 38.57142857142858  36.14427860696517 38.57142857142858  C 35.71310116086236 38.57142857142858  35.339966832504146 38.41238839285714  35.02487562189055 38.094308035714285  L 32.960199004975124 36.010044642857146  L 30.895522388059703 38.094308035714285  C 30.580431177446105 38.41238839285714  30.2072968490879 38.57142857142858  29.776119402985074 38.57142857142858  C 29.34494195688226 38.57142857142858  28.971807628524047 38.41238839285714  28.65671641791045 38.094308035714285  L 26.592039800995025 36.010044642857146  L 24.5273631840796 38.094308035714285  C 24.212271973466002 38.41238839285714  23.839137645107794 38.57142857142858  23.407960199004975 38.57142857142858  C 22.97678275290216 38.57142857142858  22.603648424543948 38.41238839285714  22.28855721393035 38.094308035714285  L 20.223880597014926 36.010044642857146  L 18.1592039800995 38.094308035714285  C 17.844112769485903 38.41238839285714  17.470978441127695 38.57142857142858  17.039800995024876 38.57142857142858  C 16.608623548922058 38.57142857142858  16.23548922056385 38.41238839285714  15.92039800995025 38.094308035714285  L 13.855721393034825 36.010044642857146  L 11.791044776119403 38.094308035714285  C 11.475953565505806 38.41238839285714  11.102819237147596 38.57142857142858  10.671641791044777 38.57142857142858  C 10.240464344941957 38.57142857142858  9.867330016583749 38.41238839285714  9.55223880597015 38.094308035714285  L 7.487562189054726 36.010044642857146  Z M 18.6318407960199 9.642857142857144  L 15.447761194029852 9.642857142857144  L 15.447761194029852 12.857142857142856  L 25 9.642857142857144  L 34.55223880597015 12.857142857142856  L 34.55223880597015 9.642857142857144  L 31.3681592039801 9.642857142857144  L 31.3681592039801 7  L 18.6318407960199 7  L 18.6318407960199 9.642857142857144  Z " fill-rule="nonzero" fill="#504f5c" stroke="none" transform="matrix(1 0 0 1 108 1558 )" />
  </g>
</svg>