<?xml version="1.0" encoding="utf-8"?>
<svg version="1.1" xmlns:xlink="http://www.w3.org/1999/xlink" width="22px" height="24px" xmlns="http://www.w3.org/2000/svg">
  <g transform="matrix(1 0 0 1 -122 -1727 )">
    <path d="M 7.859375 19.859375  C 7.953125 19.765625  8 19.645833333333332  8 19.5  L 8 8.5  C 8 8.354166666666668  7.953125 8.234375  7.859375 8.140625  C 7.765625 8.046875  7.645833333333335 8  7.499999999999999 8  L 6.5 8  C 6.354166666666668 8  6.234375000000002 8.046875  6.140625 8.140625  C 6.046875 8.234375  6 8.354166666666668  6 8.5  L 6 19.5  C 6 19.645833333333332  6.046875 19.765625  6.140625 19.859375  C 6.234375000000002 19.953125  6.354166666666668 20  6.5 20  L 7.499999999999999 20  C 7.645833333333335 20  7.765625 19.953125  7.859375 19.859375  Z M 11.859375 19.859375  C 11.953125 19.765625  12 19.645833333333332  12 19.5  L 12 8.5  C 12 8.354166666666668  11.953125 8.234375  11.859375 8.140625  C 11.765625 8.046875  11.645833333333334 8  11.5 8  L 10.5 8  C 10.354166666666668 8  10.234375 8.046875  10.140625 8.140625  C 10.046875 8.234375  10 8.354166666666668  10 8.5  L 10 19.5  C 10 19.645833333333332  10.046875 19.765625  10.140625 19.859375  C 10.234375 19.953125  10.354166666666668 20  10.5 20  L 11.5 20  C 11.645833333333334 20  11.765625 19.953125  11.859375 19.859375  Z M 15.859374999999998 19.859375  C 15.953125 19.765625  16 19.645833333333332  16 19.5  L 16 8.5  C 16 8.354166666666668  15.953125 8.234375  15.859374999999998 8.140625  C 15.765625000000002 8.046875  15.645833333333334 8  15.5 8  L 14.5 8  C 14.354166666666666 8  14.234375 8.046875  14.140624999999998 8.140625  C 14.046875000000002 8.234375  14 8.354166666666668  14 8.5  L 14 19.5  C 14 19.645833333333332  14.046875000000002 19.765625  14.140624999999998 19.859375  C 14.234375 19.953125  14.354166666666666 20  14.5 20  L 15.5 20  C 15.645833333333334 20  15.765625000000002 19.953125  15.859374999999998 19.859375  Z M 8.265625 2.171874999999999  L 7.499999999999999 3.999999999999999  L 14.5 3.999999999999999  L 13.75 2.171874999999999  C 13.677083333333336 2.078124999999999  13.588541666666668 2.020833333333332  13.484375 2.000000000000001  L 8.53125 2.000000000000001  C 8.427083333333334 2.020833333333332  8.338541666666668 2.078124999999999  8.265625 2.171874999999999  Z M 21.859375 4.140624999999999  C 21.953125 4.234374999999999  22 4.354166666666665  22 4.5  L 22 5.499999999999999  C 22 5.645833333333331  21.953125 5.765625  21.859375 5.859375  C 21.765625 5.953125  21.645833333333336 6  21.5 6  L 20 6  L 20 20.8125  C 20 21.677083333333332  19.755208333333336 22.424479166666668  19.265625 23.0546875  C 18.776041666666668 23.684895833333332  18.1875 24  17.5 24  L 4.5 24  C 3.8125000000000004 24  3.223958333333334 23.6953125  2.734375 23.0859375  C 2.244791666666667 22.4765625  2 21.739583333333332  2 20.875  L 2 6  L 0.5 6  C 0.35416666666666663 6  0.23437500000000003 5.953125  0.140625 5.859375  C 0.046875 5.765625  0 5.645833333333331  0 5.499999999999999  L 0 4.5  C 0 4.354166666666665  0.046875 4.234374999999999  0.140625 4.140624999999999  C 0.23437500000000003 4.046874999999999  0.35416666666666663 3.999999999999999  0.5 3.999999999999999  L 5.328125 3.999999999999999  L 6.421875000000001 1.3906250000000009  C 6.578125000000002 1.0052083333333313  6.859375000000001 0.6770833333333313  7.265625 0.4062500000000009  C 7.671875000000001 0.1354166666666652  8.083333333333334 0  8.5 0  L 13.5 0  C 13.91666666666667 0  14.328125 0.1354166666666652  14.734375000000002 0.4062500000000009  C 15.140625 0.6770833333333313  15.421875000000002 1.0052083333333313  15.578125 1.3906250000000009  L 16.671875 3.999999999999999  L 21.5 3.999999999999999  C 21.645833333333336 3.999999999999999  21.765625 4.046874999999999  21.859375 4.140624999999999  Z " fill-rule="nonzero" fill="#504f5c" stroke="none" transform="matrix(1 0 0 1 122 1727 )" />
  </g>
</svg>