<?xml version="1.0" encoding="utf-8"?>
<svg version="1.1" xmlns:xlink="http://www.w3.org/1999/xlink" width="42px" height="42px" xmlns="http://www.w3.org/2000/svg">
  <g transform="matrix(1 0 0 1 -112 -1717 )">
    <path d="M 27.794921875 4.894531250000002  C 25.634765625 3.9648437499999982  23.369791666666668 3.5000000000000018  21 3.5000000000000018  C 18.630208333333332 3.5000000000000018  16.365234375 3.9648437499999982  14.205078125 4.894531250000002  C 12.044921875 5.82421875  10.185546875 7.068359375000002  8.626953125 8.626953125000002  C 7.068359375 10.185546875000002  5.82421875 12.044921874999998  4.89453125 14.205078125000002  C 3.96484375 16.365234375  3.5 18.630208333333332  3.5 21  C 3.5 23.369791666666668  3.96484375 25.634765625  4.89453125 27.794921875000004  C 5.82421875 29.955078124999996  7.068359375 31.814453125  8.626953125 33.373046875  C 10.185546875 34.931640625  12.044921875 36.17578125  14.205078125 37.10546875  C 16.365234375 38.03515625  18.630208333333332 38.5  21 38.5  C 23.369791666666668 38.5  25.634765625 38.03515625  27.794921875 37.10546875  C 29.955078125 36.17578125  31.814453125 34.931640625  33.373046875 33.373046875  C 34.931640625 31.814453125  36.17578125 29.955078124999996  37.10546875 27.794921875000004  C 38.03515625 25.634765625  38.5 23.369791666666668  38.5 21  C 38.5 18.630208333333332  38.03515625 16.365234375  37.10546875 14.205078125000002  C 36.17578125 12.044921874999998  34.931640625 10.185546875000002  33.373046875 8.626953125000002  C 31.814453125 7.068359375000002  29.955078125 5.82421875  27.794921875 4.894531250000002  Z M 39.18359375 10.458984375  C 41.061197916666664 13.676432291666663  42 17.19010416666666  42 21  C 42 24.809895833333336  41.061197916666664 28.32356770833333  39.18359375 31.541015625  C 37.305989583333336 34.758463541666664  34.758463541666664 37.305989583333336  31.541015625 39.18359375  C 28.323567708333336 41.06119791666667  24.809895833333336 42  21 42  C 17.190104166666668 42  13.676432291666668 41.06119791666667  10.458984375 39.18359375  C 7.241536458333334 37.305989583333336  4.694010416666667 34.758463541666664  2.81640625 31.541015625  C 0.9388020833333333 28.32356770833333  0 24.809895833333336  0 21  C 0 17.19010416666666  0.9388020833333333 13.676432291666663  2.81640625 10.458984375  C 4.694010416666667 7.241536458333333  7.241536458333334 4.6940104166666625  10.458984375 2.8164062499999982  C 13.676432291666668 0.9388020833333297  17.190104166666668 0  21 0  C 24.809895833333336 0  28.323567708333336 0.9388020833333297  31.541015625 2.8164062499999982  C 34.758463541666664 4.6940104166666625  37.305989583333336 7.241536458333333  39.18359375 10.458984375  Z " fill-rule="nonzero" fill="#504f5c" stroke="none" transform="matrix(1 0 0 1 112 1717 )" />
  </g>
</svg>