<?xml version="1.0" encoding="utf-8"?>
<svg version="1.1" xmlns:xlink="http://www.w3.org/1999/xlink" width="18px" height="16px" xmlns="http://www.w3.org/2000/svg">
  <g transform="matrix(1 0 0 1 -1276 -88 )">
    <path d="M 0.14997973717124555 12.533805020201909  C 0.049993307803493474 12.622681846306577  0 12.729332881459008  0 12.853760436681176  C 0 12.853760436681176  0 15.555615876098496  0 15.555615876098496  C 0 15.804470986542833  0.2199701401393129 16  0.49993213938919095 16  C 0.49993213938919095 16  3.5395195087336764 16  3.5395195087336764 16  C 3.669501860207142 16  3.7994841222857745 15.955561927972399  3.889471910951622 15.866685101867729  C 3.889471910951622 15.866685101867729  14.807989434722701 6.170223653952205  14.807989434722701 6.170223653952205  L 11.058499342848652 2.837342936589795  C 11.058499342848652 2.837342936589795  0.14997973717124555 12.533805020201909  0.14997973717124555 12.533805020201909  Z M 15.877843907881207 5.219241900033533  C 15.877843907881207 5.219241900033533  17.707595461762054 3.592796074361668  17.707595461762054 3.592796074361668  C 17.80028643097686 3.5105728659268216  17.873824009733706 3.4129070643372623  17.923998658680198 3.305389806499256  C 17.974173307626693 3.1978725486612496  18 3.082614890239038  18 2.966214315569322  C 18 2.849813740899606  17.974173307626693 2.7345560824773942  17.923998658680198 2.6270388246393876  C 17.873824009733706 2.5195215668013815  17.80028643097686 2.4218559771106847  17.707595461762054 2.339632768675839  C 17.707595461762054 2.339632768675839  15.367914803943226 0.25991493320153225  15.367914803943226 0.25991493320153225  C 15.275413694454024 0.17752296056615138  15.16553990605199 0.11215622389339792  15.044582990984233 0.06755653594096074  C 14.923626075916475 0.022956847988523557  14.793961210191487 0  14.663010563688058 0  C 14.532059917184625 0  14.402393144369873 0.022956847988523557  14.281436229302116 0.06755653594096074  C 14.160479314234358 0.11215622389339792  14.050605525832326 0.17752296056615138  13.958104416343122 0.25991493320153225  C 13.958104416343122 0.25991493320153225  12.128353816007158 1.8863607588733973  12.128353816007158 1.8863607588733973  L 15.877843907881207 5.219241900033533  Z " fill-rule="nonzero" fill="#767676" stroke="none" transform="matrix(1 0 0 1 1276 88 )" />
  </g>
</svg>