<?xml version="1.0" encoding="utf-8"?>
<svg version="1.1" xmlns:xlink="http://www.w3.org/1999/xlink" width="19px" height="19px" viewBox="290 1428  19 19" xmlns="http://www.w3.org/2000/svg">
  <path d="M 299.5 1428  C 304.82 1428  309 1432.18  309 1437.5  C 309 1442.82  304.82 1447  299.5 1447  C 294.18 1447  290 1442.82  290 1437.5  C 290 1432.18  294.18 1428  299.5 1428  Z " fill-rule="nonzero" fill="#f0f0f0" stroke="none" />
  <path d="M 299.5 1428.5  C 304.54 1428.5  308.5 1432.46  308.5 1437.5  C 308.5 1442.54  304.54 1446.5  299.5 1446.5  C 294.46 1446.5  290.5 1442.54  290.5 1437.5  C 290.5 1432.46  294.46 1428.5  299.5 1428.5  Z " stroke-width="1" stroke="#f59a23" fill="none" />
  <path d="M 299.5 1442.25  C 296.84 1442.25  294.75 1440.16  294.75 1437.5  C 294.75 1434.84  296.84 1432.75  299.5 1432.75  C 302.16 1432.75  304.25 1434.84  304.25 1437.5  C 304.25 1440.16  302.16 1442.25  299.5 1442.25  " fill-rule="nonzero" fill="#f59a23" stroke="none" />
</svg>