<?xml version="1.0" encoding="utf-8"?>
<svg version="1.1" xmlns:xlink="http://www.w3.org/1999/xlink" width="19px" height="19px" viewBox="156 1428  19 19" xmlns="http://www.w3.org/2000/svg">
  <path d="M 165.5 1428  C 170.82 1428  175 1432.18  175 1437.5  C 175 1442.82  170.82 1447  165.5 1447  C 160.18 1447  156 1442.82  156 1437.5  C 156 1432.18  160.18 1428  165.5 1428  Z " fill-rule="nonzero" fill="#ffffff" stroke="none" />
  <path d="M 165.5 1428.5  C 170.54 1428.5  174.5 1432.46  174.5 1437.5  C 174.5 1442.54  170.54 1446.5  165.5 1446.5  C 160.46 1446.5  156.5 1442.54  156.5 1437.5  C 156.5 1432.46  160.46 1428.5  165.5 1428.5  Z " stroke-width="1" stroke="#f59a23" fill="none" />
  <path d="M 165.5 1442.25  C 162.84 1442.25  160.75 1440.16  160.75 1437.5  C 160.75 1434.84  162.84 1432.75  165.5 1432.75  C 168.16 1432.75  170.25 1434.84  170.25 1437.5  C 170.25 1440.16  168.16 1442.25  165.5 1442.25  " fill-rule="nonzero" fill="#f59a23" stroke="none" />
</svg>