<?xml version="1.0" encoding="utf-8"?>
<svg version="1.1" xmlns:xlink="http://www.w3.org/1999/xlink" width="17px" height="16px" xmlns="http://www.w3.org/2000/svg">
  <g transform="matrix(1 0 0 1 -1291 -151 )">
    <path d="M 4.249999594688454 10.879999267578196  L 5.439999156951984 11.99999885559093  L 8.499999189376908 9.119998825073354  L 11.559999221801833 11.99999885559093  L 12.749998784065362 10.879999267578196  L 9.68999875164044 7.999999237060619  L 12.749998784065362 5.119999206543044  L 11.559999221801833 3.9999996185303095  L 8.499999189376908 6.8799996490478845  L 5.439999156951984 3.9999996185303095  L 4.249999594688454 5.119999206543044  L 7.309999627113378 7.999999237060619  L 4.249999594688454 10.879999267578196  Z M 11.814998548984667 15.370398009262274  C 10.78083195392304 15.790664645131622  9.675832403818854 16.000531807397998  8.499999189376908 15.999998474121238  C 7.324165974934961 15.999998474121238  6.219166424830776 15.789865084660999  5.18499982976915 15.36959844879165  C 4.150833234707524 14.949331812922305  3.2512498317957084 14.379465925267608  2.486249925017364 13.659999307632512  C 1.7212500182390194 12.93999939537054  1.1157666513188695 12.093331900278864  0.6698000269126866 11.11999863433851  C 0.22383340250650385 10.146665368398155  0.000566666606556009 9.10666579182951  0 7.999999237060619  C 0 6.893332682291728  0.22326672630150543 5.853333105723084  0.6698000269126866 4.879999839782729  C 1.116333327523868 3.9066665738423754  1.7218166437800746 3.0599998416900784  2.486249925017364 2.339999929428107  C 3.2512498317957084 1.620000017166136  4.150833234707524 1.0501333188883477  5.18499982976915 0.6304000253295874  C 6.219166424830776 0.21066673177082715  7.324165974934961 0.0005333332767585967  8.499999189376908 0  C 9.675832403818854 0  10.78083195392304 0.2101333894602404  11.814998548984667 0.6304000253295874  C 12.849165144046292 1.0506666611989346  13.748749357581199 1.6205333117930114  14.513749264359545 2.339999929428107  C 15.278749171137887 3.0599998416900784  15.884514584229985 3.9066665738423754  16.331047884841166 4.879999839782729  C 16.777581185452348 5.853333105723084  17.00056504536037 6.893332682291728  16.999998378753816 7.999999237060619  C 16.999998378753816 9.10666579182951  16.776731652452312 10.146665368398155  16.33019835184113 11.11999863433851  C 15.883665051229949 12.093331900278864  15.278182545596833 12.93999939537054  14.513749264359545 13.659999307632512  C 13.748749357581199 14.379999219894483  12.849165144046292 14.950131373392926  11.814998548984667 15.370398009262274  Z " fill-rule="nonzero" fill="#767676" stroke="none" transform="matrix(1 0 0 1 1291 151 )" />
  </g>
</svg>