<?xml version="1.0" encoding="utf-8"?>
<svg version="1.1" xmlns:xlink="http://www.w3.org/1999/xlink" width="18px" height="16px" xmlns="http://www.w3.org/2000/svg">
  <g transform="matrix(1 0 0 1 -1290 -109 )">
    <path d="M 4.499999570846598 10.879999267578196  L 5.759999107360924 11.99999885559093  L 8.999999141693197 9.119998825073354  L 12.23999917602547 11.99999885559093  L 13.499998712539796 10.879999267578196  L 10.259998678207523 7.999999237060619  L 13.499998712539796 5.119999206543044  L 12.23999917602547 3.9999996185303095  L 8.999999141693197 6.8799996490478845  L 5.759999107360924 3.9999996185303095  L 4.499999570846598 5.119999206543044  L 7.73999960517887 7.999999237060619  L 4.499999570846598 10.879999267578196  Z M 12.509998463630824 15.370398009262274  C 11.414998539447925 15.790664645131622  10.2449990158082 16.000531807397998  8.999999141693197 15.999998474121238  C 7.754999267578194 15.999998474121238  6.584999743938469 15.789865084660999  5.48999981975557 15.36959844879165  C 4.394999895572672 14.949331812922305  3.4424998219013383 14.379465925267608  2.6324999206066204 13.659999307632512  C 1.822500019311903 12.93999939537054  1.1813999837493911 12.093331900278864  0.7092000284957858 11.11999863433851  C 0.23700007324218053 10.146665368398155  0.0005999999363534213 9.10666579182951  0 7.999999237060619  C 0 6.893332682291728  0.23640006314277046 5.853333105723084  0.7092000284957858 4.879999839782729  C 1.1819999938488015 3.9066665738423754  1.8230999757671378 3.0599998416900784  2.6324999206066204 2.339999929428107  C 3.4424998219013383 1.620000017166136  4.394999895572672 1.0501333188883477  5.48999981975557 0.6304000253295874  C 6.584999743938469 0.21066673177082715  7.754999267578194 0.0005333332767585967  8.999999141693197 0  C 10.2449990158082 0  11.414998539447925 0.2101333894602404  12.509998463630824 0.6304000253295874  C 13.604998387813723 1.0506666611989346  14.557499319791857 1.6205333117930114  15.367499221086577 2.339999929428107  C 16.177499122381292 3.0599998416900784  16.81889779506704 3.9066665738423754  17.291697760420057 4.879999839782729  C 17.764497725773076 5.853333105723084  18.00059828332275 6.893332682291728  17.999998283386393 7.999999237060619  C 17.999998283386393 9.10666579182951  17.763598220243622 10.146665368398155  17.290798254890607 11.11999863433851  C 16.81799828953759 12.093331900278864  16.17689916592606 12.93999939537054  15.367499221086577 13.659999307632512  C 14.557499319791857 14.379999219894483  13.604998387813723 14.950131373392926  12.509998463630824 15.370398009262274  Z " fill-rule="nonzero" fill="#767676" stroke="none" transform="matrix(1 0 0 1 1290 109 )" />
  </g>
</svg>