<?xml version="1.0" encoding="utf-8"?>
<svg version="1.1" xmlns:xlink="http://www.w3.org/1999/xlink" width="25px" height="25px" viewBox="847 143  25 25" xmlns="http://www.w3.org/2000/svg">
  <path d="M 859.5 143  C 866.5 143  872 148.5  872 155.5  C 872 162.5  866.5 168  859.5 168  C 852.5 168  847 162.5  847 155.5  C 847 148.5  852.5 143  859.5 143  Z " fill-rule="nonzero" fill="#ffffff" stroke="none" />
  <path d="M 859.5 143.5  C 866.22 143.5  871.5 148.78  871.5 155.5  C 871.5 162.22  866.22 167.5  859.5 167.5  C 852.78 167.5  847.5 162.22  847.5 155.5  C 847.5 148.78  852.78 143.5  859.5 143.5  Z " stroke-width="1" stroke="#f59a23" fill="none" />
  <path d="M 859.5 161.75  C 856 161.75  853.25 159  853.25 155.5  C 853.25 152  856 149.25  859.5 149.25  C 863 149.25  865.75 152  865.75 155.5  C 865.75 159  863 161.75  859.5 161.75  " fill-rule="nonzero" fill="#f59a23" stroke="none" />
</svg>