<?xml version="1.0" encoding="utf-8"?>
<svg version="1.1" xmlns:xlink="http://www.w3.org/1999/xlink" width="25px" height="25px" viewBox="1082 143  25 25" xmlns="http://www.w3.org/2000/svg">
  <path d="M 1094.5 143  C 1101.5 143  1107 148.5  1107 155.5  C 1107 162.5  1101.5 168  1094.5 168  C 1087.5 168  1082 162.5  1082 155.5  C 1082 148.5  1087.5 143  1094.5 143  Z " fill-rule="nonzero" fill="#ffffff" stroke="none" />
  <path d="M 1094.5 143.5  C 1101.22 143.5  1106.5 148.78  1106.5 155.5  C 1106.5 162.22  1101.22 167.5  1094.5 167.5  C 1087.78 167.5  1082.5 162.22  1082.5 155.5  C 1082.5 148.78  1087.78 143.5  1094.5 143.5  Z " stroke-width="1" stroke="#f4a820" fill="none" />
  <path d="M 1094.5 161.75  C 1091 161.75  1088.25 159  1088.25 155.5  C 1088.25 152  1091 149.25  1094.5 149.25  C 1098 149.25  1100.75 152  1100.75 155.5  C 1100.75 159  1098 161.75  1094.5 161.75  " fill-rule="nonzero" fill="#f4a820" stroke="none" />
</svg>