<?xml version="1.0" encoding="utf-8"?>
<svg version="1.1" xmlns:xlink="http://www.w3.org/1999/xlink" width="25px" height="25px" viewBox="404 179  25 25" xmlns="http://www.w3.org/2000/svg">
  <path d="M 416.5 179  C 423.5 179  429 184.5  429 191.5  C 429 198.5  423.5 204  416.5 204  C 409.5 204  404 198.5  404 191.5  C 404 184.5  409.5 179  416.5 179  Z " fill-rule="nonzero" fill="#ffffff" stroke="none" />
  <path d="M 416.5 179.5  C 423.22 179.5  428.5 184.78  428.5 191.5  C 428.5 198.22  423.22 203.5  416.5 203.5  C 409.78 203.5  404.5 198.22  404.5 191.5  C 404.5 184.78  409.78 179.5  416.5 179.5  Z " stroke-width="1" stroke="#f4a820" fill="none" />
  <path d="M 416.5 197.75  C 413 197.75  410.25 195  410.25 191.5  C 410.25 188  413 185.25  416.5 185.25  C 420 185.25  422.75 188  422.75 191.5  C 422.75 195  420 197.75  416.5 197.75  " fill-rule="nonzero" fill="#f4a820" stroke="none" />
</svg>