<?xml version="1.0" encoding="utf-8"?>
<svg version="1.1" xmlns:xlink="http://www.w3.org/1999/xlink" width="25px" height="25px" viewBox="949 49  25 25" xmlns="http://www.w3.org/2000/svg">
  <path d="M 961.5 49  C 968.5 49  974 54.5  974 61.5  C 974 68.5  968.5 74  961.5 74  C 954.5 74  949 68.5  949 61.5  C 949 54.5  954.5 49  961.5 49  Z " fill-rule="nonzero" fill="#ffffff" stroke="none" />
  <path d="M 961.5 49.5  C 968.22 49.5  973.5 54.78  973.5 61.5  C 973.5 68.22  968.22 73.5  961.5 73.5  C 954.78 73.5  949.5 68.22  949.5 61.5  C 949.5 54.78  954.78 49.5  961.5 49.5  Z " stroke-width="1" stroke="#f4a820" fill="none" />
  <path d="M 961.5 67.75  C 958 67.75  955.25 65  955.25 61.5  C 955.25 58  958 55.25  961.5 55.25  C 965 55.25  967.75 58  967.75 61.5  C 967.75 65  965 67.75  961.5 67.75  " fill-rule="nonzero" fill="#f4a820" stroke="none" />
</svg>