<?xml version="1.0" encoding="utf-8"?>
<svg version="1.1" xmlns:xlink="http://www.w3.org/1999/xlink" width="25px" height="25px" viewBox="525 179  25 25" xmlns="http://www.w3.org/2000/svg">
  <path d="M 537.5 179  C 544.5 179  550 184.5  550 191.5  C 550 198.5  544.5 204  537.5 204  C 530.5 204  525 198.5  525 191.5  C 525 184.5  530.5 179  537.5 179  Z " fill-rule="nonzero" fill="#ffffff" stroke="none" />
  <path d="M 537.5 179.5  C 544.22 179.5  549.5 184.78  549.5 191.5  C 549.5 198.22  544.22 203.5  537.5 203.5  C 530.78 203.5  525.5 198.22  525.5 191.5  C 525.5 184.78  530.78 179.5  537.5 179.5  Z " stroke-width="1" stroke="#f4a820" fill="none" />
  <path d="M 537.5 197.75  C 534 197.75  531.25 195  531.25 191.5  C 531.25 188  534 185.25  537.5 185.25  C 541 185.25  543.75 188  543.75 191.5  C 543.75 195  541 197.75  537.5 197.75  " fill-rule="nonzero" fill="#f4a820" stroke="none" />
</svg>