<?xml version="1.0" encoding="utf-8"?>
<svg version="1.1" xmlns:xlink="http://www.w3.org/1999/xlink" width="25px" height="25px" viewBox="1070 49  25 25" xmlns="http://www.w3.org/2000/svg">
  <path d="M 1082.5 49  C 1089.5 49  1095 54.5  1095 61.5  C 1095 68.5  1089.5 74  1082.5 74  C 1075.5 74  1070 68.5  1070 61.5  C 1070 54.5  1075.5 49  1082.5 49  Z " fill-rule="nonzero" fill="#ffffff" stroke="none" />
  <path d="M 1082.5 49.5  C 1089.22 49.5  1094.5 54.78  1094.5 61.5  C 1094.5 68.22  1089.22 73.5  1082.5 73.5  C 1075.78 73.5  1070.5 68.22  1070.5 61.5  C 1070.5 54.78  1075.78 49.5  1082.5 49.5  Z " stroke-width="1" stroke="#f4a820" fill="none" />
  <path d="M 1082.5 67.75  C 1079 67.75  1076.25 65  1076.25 61.5  C 1076.25 58  1079 55.25  1082.5 55.25  C 1086 55.25  1088.75 58  1088.75 61.5  C 1088.75 65  1086 67.75  1082.5 67.75  " fill-rule="nonzero" fill="#f4a820" stroke="none" />
</svg>