<?xml version="1.0" encoding="utf-8"?>
<svg version="1.1" xmlns:xlink="http://www.w3.org/1999/xlink" width="25px" height="25px" viewBox="435 140  25 25" xmlns="http://www.w3.org/2000/svg">
  <path d="M 447.5 140  C 454.5 140  460 145.5  460 152.5  C 460 159.5  454.5 165  447.5 165  C 440.5 165  435 159.5  435 152.5  C 435 145.5  440.5 140  447.5 140  Z " fill-rule="nonzero" fill="#ffffff" stroke="none" />
  <path d="M 447.5 140.5  C 454.22 140.5  459.5 145.78  459.5 152.5  C 459.5 159.22  454.22 164.5  447.5 164.5  C 440.78 164.5  435.5 159.22  435.5 152.5  C 435.5 145.78  440.78 140.5  447.5 140.5  Z " stroke-width="1" stroke="#f59a23" fill="none" />
  <path d="M 447.5 158.75  C 444 158.75  441.25 156  441.25 152.5  C 441.25 149  444 146.25  447.5 146.25  C 451 146.25  453.75 149  453.75 152.5  C 453.75 156  451 158.75  447.5 158.75  " fill-rule="nonzero" fill="#f59a23" stroke="none" />
</svg>