<?xml version="1.0" encoding="utf-8"?>
<svg version="1.1" xmlns:xlink="http://www.w3.org/1999/xlink" width="25px" height="25px" viewBox="290 179  25 25" xmlns="http://www.w3.org/2000/svg">
  <path d="M 302.5 179  C 309.5 179  315 184.5  315 191.5  C 315 198.5  309.5 204  302.5 204  C 295.5 204  290 198.5  290 191.5  C 290 184.5  295.5 179  302.5 179  Z " fill-rule="nonzero" fill="#ffffff" stroke="none" />
  <path d="M 302.5 179.5  C 309.22 179.5  314.5 184.78  314.5 191.5  C 314.5 198.22  309.22 203.5  302.5 203.5  C 295.78 203.5  290.5 198.22  290.5 191.5  C 290.5 184.78  295.78 179.5  302.5 179.5  Z " stroke-width="1" stroke="#f59a23" fill="none" />
  <path d="M 302.5 197.75  C 299 197.75  296.25 195  296.25 191.5  C 296.25 188  299 185.25  302.5 185.25  C 306 185.25  308.75 188  308.75 191.5  C 308.75 195  306 197.75  302.5 197.75  " fill-rule="nonzero" fill="#f59a23" stroke="none" />
</svg>