<?xml version="1.0" encoding="utf-8"?>
<svg version="1.1" xmlns:xlink="http://www.w3.org/1999/xlink" width="25px" height="25px" viewBox="835 49  25 25" xmlns="http://www.w3.org/2000/svg">
  <path d="M 847.5 49  C 854.5 49  860 54.5  860 61.5  C 860 68.5  854.5 74  847.5 74  C 840.5 74  835 68.5  835 61.5  C 835 54.5  840.5 49  847.5 49  Z " fill-rule="nonzero" fill="#ffffff" stroke="none" />
  <path d="M 847.5 49.5  C 854.22 49.5  859.5 54.78  859.5 61.5  C 859.5 68.22  854.22 73.5  847.5 73.5  C 840.78 73.5  835.5 68.22  835.5 61.5  C 835.5 54.78  840.78 49.5  847.5 49.5  Z " stroke-width="1" stroke="#f59a23" fill="none" />
  <path d="M 847.5 67.75  C 844 67.75  841.25 65  841.25 61.5  C 841.25 58  844 55.25  847.5 55.25  C 851 55.25  853.75 58  853.75 61.5  C 853.75 65  851 67.75  847.5 67.75  " fill-rule="nonzero" fill="#f59a23" stroke="none" />
</svg>