<?xml version="1.0" encoding="utf-8"?>
<svg version="1.1" xmlns:xlink="http://www.w3.org/1999/xlink" width="25px" height="25px" viewBox="670 140  25 25" xmlns="http://www.w3.org/2000/svg">
  <path d="M 682.5 140  C 689.5 140  695 145.5  695 152.5  C 695 159.5  689.5 165  682.5 165  C 675.5 165  670 159.5  670 152.5  C 670 145.5  675.5 140  682.5 140  Z " fill-rule="nonzero" fill="#ffffff" stroke="none" />
  <path d="M 682.5 140.5  C 689.22 140.5  694.5 145.78  694.5 152.5  C 694.5 159.22  689.22 164.5  682.5 164.5  C 675.78 164.5  670.5 159.22  670.5 152.5  C 670.5 145.78  675.78 140.5  682.5 140.5  Z " stroke-width="1" stroke="#f4a820" fill="none" />
  <path d="M 682.5 158.75  C 679 158.75  676.25 156  676.25 152.5  C 676.25 149  679 146.25  682.5 146.25  C 686 146.25  688.75 149  688.75 152.5  C 688.75 156  686 158.75  682.5 158.75  " fill-rule="nonzero" fill="#f4a820" stroke="none" />
</svg>