<?xml version="1.0" encoding="utf-8"?>
<svg version="1.1" xmlns:xlink="http://www.w3.org/1999/xlink" width="25px" height="25px" viewBox="549 140  25 25" xmlns="http://www.w3.org/2000/svg">
  <path d="M 561.5 140  C 568.5 140  574 145.5  574 152.5  C 574 159.5  568.5 165  561.5 165  C 554.5 165  549 159.5  549 152.5  C 549 145.5  554.5 140  561.5 140  Z " fill-rule="nonzero" fill="#ffffff" stroke="none" />
  <path d="M 561.5 140.5  C 568.22 140.5  573.5 145.78  573.5 152.5  C 573.5 159.22  568.22 164.5  561.5 164.5  C 554.78 164.5  549.5 159.22  549.5 152.5  C 549.5 145.78  554.78 140.5  561.5 140.5  Z " stroke-width="1" stroke="#f4a820" fill="none" />
  <path d="M 561.5 158.75  C 558 158.75  555.25 156  555.25 152.5  C 555.25 149  558 146.25  561.5 146.25  C 565 146.25  567.75 149  567.75 152.5  C 567.75 156  565 158.75  561.5 158.75  " fill-rule="nonzero" fill="#f4a820" stroke="none" />
</svg>