<?xml version="1.0" encoding="utf-8"?>
<svg version="1.1" xmlns:xlink="http://www.w3.org/1999/xlink" width="25px" height="25px" viewBox="961 143  25 25" xmlns="http://www.w3.org/2000/svg">
  <path d="M 973.5 143  C 980.5 143  986 148.5  986 155.5  C 986 162.5  980.5 168  973.5 168  C 966.5 168  961 162.5  961 155.5  C 961 148.5  966.5 143  973.5 143  Z " fill-rule="nonzero" fill="#ffffff" stroke="none" />
  <path d="M 973.5 143.5  C 980.22 143.5  985.5 148.78  985.5 155.5  C 985.5 162.22  980.22 167.5  973.5 167.5  C 966.78 167.5  961.5 162.22  961.5 155.5  C 961.5 148.78  966.78 143.5  973.5 143.5  Z " stroke-width="1" stroke="#f4a820" fill="none" />
  <path d="M 973.5 161.75  C 970 161.75  967.25 159  967.25 155.5  C 967.25 152  970 149.25  973.5 149.25  C 977 149.25  979.75 152  979.75 155.5  C 979.75 159  977 161.75  973.5 161.75  " fill-rule="nonzero" fill="#f4a820" stroke="none" />
</svg>