<?xml version="1.0" encoding="utf-8"?>
<svg version="1.1" xmlns:xlink="http://www.w3.org/1999/xlink" width="17px" height="17px" xmlns="http://www.w3.org/2000/svg">
  <g transform="matrix(1 0 0 1 -1228 -90 )">
    <path d="M 11.233723958333332 14.067057291666668  C 11.300130208333332 14.000651041666668  11.333333333333332 13.91579861111111  11.333333333333332 13.8125  L 11.333333333333332 12.041666666666666  C 11.333333333333332 11.938368055555555  11.300130208333332 11.853515625  11.233723958333332 11.787109375  C 11.167317708333332 11.720703125  11.082465277777777 11.6875  10.979166666666668 11.6875  L 9.916666666666668 11.6875  L 9.916666666666668 6.020833333333333  C 9.916666666666668 5.917534722222222  9.883463541666668 5.832682291666667  9.817057291666668 5.766276041666667  C 9.750651041666668 5.699869791666667  9.665798611111112 5.666666666666667  9.5625 5.666666666666667  L 6.020833333333334 5.666666666666667  C 5.917534722222223 5.666666666666667  5.832682291666666 5.699869791666667  5.766276041666666 5.766276041666667  C 5.699869791666666 5.832682291666667  5.666666666666666 5.917534722222222  5.666666666666666 6.020833333333333  L 5.666666666666666 7.791666666666667  C 5.666666666666666 7.894965277777778  5.699869791666666 7.979817708333333  5.766276041666666 8.046223958333332  C 5.832682291666666 8.112630208333332  5.917534722222223 8.145833333333332  6.020833333333334 8.145833333333332  L 7.083333333333334 8.145833333333332  L 7.083333333333334 11.6875  L 6.020833333333334 11.6875  C 5.917534722222223 11.6875  5.832682291666666 11.720703125  5.766276041666666 11.787109375  C 5.699869791666666 11.853515625  5.666666666666666 11.938368055555555  5.666666666666666 12.041666666666666  L 5.666666666666666 13.8125  C 5.666666666666666 13.91579861111111  5.699869791666666 14.000651041666668  5.766276041666666 14.067057291666668  C 5.832682291666666 14.133463541666668  5.917534722222223 14.166666666666668  6.020833333333334 14.166666666666668  L 10.979166666666668 14.166666666666668  C 11.082465277777777 14.166666666666668  11.167317708333332 14.133463541666668  11.233723958333332 14.067057291666668  Z M 9.817057291666668 4.150390625  C 9.883463541666668 4.083984375  9.916666666666668 3.999131944444443  9.916666666666668 3.8958333333333326  L 9.916666666666668 2.125  C 9.916666666666668 2.021701388888888  9.883463541666668 1.9368489583333326  9.817057291666668 1.8704427083333326  C 9.750651041666668 1.8040364583333326  9.665798611111112 1.7708333333333326  9.5625 1.7708333333333326  L 7.4375 1.7708333333333326  C 7.334201388888889 1.7708333333333326  7.249348958333334 1.8040364583333326  7.182942708333334 1.8704427083333326  C 7.116536458333334 1.9368489583333326  7.083333333333334 2.021701388888888  7.083333333333334 2.125  L 7.083333333333334 3.8958333333333326  C 7.083333333333334 3.999131944444443  7.116536458333334 4.083984375  7.182942708333334 4.150390625  C 7.249348958333334 4.216796875  7.334201388888889 4.25  7.4375 4.25  L 9.5625 4.25  C 9.665798611111112 4.25  9.750651041666668 4.216796875  9.817057291666668 4.150390625  Z M 15.860026041666668 4.2333984375  C 16.620008680555554 5.5356987847222205  17 6.957899305555554  17 8.5  C 17 10.042100694444445  16.620008680555554 11.464301215277775  15.860026041666668 12.7666015625  C 15.100043402777779 14.068901909722223  14.068901909722223 15.100043402777777  12.7666015625 15.860026041666668  C 11.464301215277779 16.620008680555557  10.042100694444445 17  8.5 17  C 6.957899305555556 17  5.535698784722222 16.620008680555557  4.2333984375 15.860026041666668  C 2.931098090277778 15.100043402777777  1.8999565972222223 14.068901909722223  1.1399739583333335 12.7666015625  C 0.3799913194444444 11.464301215277775  0 10.042100694444445  0 8.5  C 0 6.957899305555554  0.3799913194444444 5.5356987847222205  1.1399739583333335 4.2333984375  C 1.8999565972222223 2.9310980902777777  2.931098090277778 1.8999565972222205  4.2333984375 1.1399739583333326  C 5.535698784722222 0.379991319444443  6.957899305555556 0  8.5 0  C 10.042100694444445 0  11.464301215277779 0.379991319444443  12.7666015625 1.1399739583333326  C 14.068901909722223 1.8999565972222205  15.100043402777779 2.9310980902777777  15.860026041666668 4.2333984375  Z " fill-rule="nonzero" fill="#000000" stroke="none" transform="matrix(1 0 0 1 1228 90 )" />
  </g>
</svg>