<?xml version="1.0" encoding="utf-8"?>
<svg version="1.1" xmlns:xlink="http://www.w3.org/1999/xlink" width="21px" height="18px" xmlns="http://www.w3.org/2000/svg">
  <g transform="matrix(1 0 0 1 -1214 -42 )">
    <path d="M 15.9140625 16.27734375  C 16.07391826923077 16.12890625  16.153846153846153 15.953125  16.153846153846153 15.75  C 16.153846153846153 15.546875  16.07391826923077 15.37109375  15.9140625 15.22265625  C 15.754206730769232 15.07421875  15.564903846153848 15  15.346153846153845 15  C 15.127403846153847 15  14.938100961538463 15.07421875  14.778245192307693 15.22265625  C 14.618389423076925 15.37109375  14.538461538461538 15.546875  14.538461538461538 15.75  C 14.538461538461538 15.953125  14.618389423076925 16.12890625  14.778245192307693 16.27734375  C 14.938100961538463 16.42578125  15.127403846153847 16.5  15.346153846153845 16.5  C 15.564903846153848 16.5  15.754206730769232 16.42578125  15.9140625 16.27734375  Z M 19.14483173076923 16.27734375  C 19.3046875 16.12890625  19.384615384615387 15.953125  19.384615384615387 15.75  C 19.384615384615387 15.546875  19.3046875 15.37109375  19.14483173076923 15.22265625  C 18.984975961538463 15.07421875  18.795673076923077 15  18.576923076923077 15  C 18.358173076923077 15  18.168870192307693 15.07421875  18.009014423076923 15.22265625  C 17.849158653846157 15.37109375  17.76923076923077 15.546875  17.76923076923077 15.75  C 17.76923076923077 15.953125  17.849158653846157 16.12890625  18.009014423076923 16.27734375  C 18.168870192307693 16.42578125  18.358173076923077 16.5  18.576923076923077 16.5  C 18.795673076923077 16.5  18.984975961538463 16.42578125  19.14483173076923 16.27734375  Z M 20.646634615384613 12.328124999999998  C 20.88221153846154 12.546874999999996  21 12.8125  21 13.125000000000002  L 21 16.875  C 21 17.1875  20.88221153846154 17.453125  20.646634615384613 17.671875  C 20.411057692307693 17.890625  20.125000000000004 18  19.788461538461537 18  L 1.2115384615384617 18  C 0.8750000000000001 18  0.5889423076923078 17.890625  0.3533653846153846 17.671875  C 0.11778846153846152 17.453125  0 17.1875  0 16.875  L 0 13.125000000000002  C 0 12.8125  0.11778846153846152 12.546874999999996  0.3533653846153846 12.328124999999998  C 0.5889423076923078 12.109375  0.8750000000000001 12.000000000000002  1.2115384615384617 12.000000000000002  L 7.079927884615384 12.000000000000002  L 8.783653846153847 13.59375  C 9.271634615384617 14.03125  9.84375 14.25  10.5 14.25  C 11.15625 14.25  11.728365384615385 14.03125  12.216346153846155 13.59375  L 13.932692307692307 12.000000000000002  L 19.788461538461537 12.000000000000002  C 20.125000000000004 12.000000000000002  20.411057692307693 12.109375  20.646634615384613 12.328124999999998  Z M 16.153846153846153 6.000000000000001  C 16.507211538461537 6.000000000000001  16.755408653846157 6.15234375  16.8984375 6.457031250000001  C 17.04146634615385 6.77734375  16.982572115384617 7.05078125  16.721754807692307 7.27734375  L 11.067908653846155 12.527343750000002  C 10.916466346153845 12.67578125  10.727163461538462 12.749999999999998  10.5 12.749999999999998  C 10.272836538461538 12.749999999999998  10.083533653846153 12.67578125  9.932091346153847 12.527343750000002  L 4.2782451923076925 7.27734375  C 4.017427884615385 7.05078125  3.958533653846154 6.77734375  4.1015625 6.457031250000001  C 4.244591346153847 6.15234375  4.492788461538462 6.000000000000001  4.846153846153847 6.000000000000001  L 8.076923076923077 6.000000000000001  L 8.076923076923077 0.7499999999999993  C 8.076923076923077 0.5468749999999976  8.156850961538462 0.37109374999999756  8.316706730769232 0.22265624999999933  C 8.4765625 0.07421875000000111  8.665865384615385 0  8.884615384615385 0  L 12.115384615384615 0  C 12.334134615384617 0  12.523437500000002 0.07421875000000111  12.683293269230768 0.22265624999999933  C 12.843149038461538 0.37109374999999756  12.923076923076923 0.5468749999999976  12.923076923076923 0.7499999999999993  L 12.923076923076923 6.000000000000001  L 16.153846153846153 6.000000000000001  Z " fill-rule="nonzero" fill="#7f7f7f" stroke="none" transform="matrix(1 0 0 1 1214 42 )" />
  </g>
</svg>