<?xml version="1.0" encoding="utf-8"?>
<svg version="1.1" xmlns:xlink="http://www.w3.org/1999/xlink" width="19px" height="19px" viewBox="410 136.5  19 19" xmlns="http://www.w3.org/2000/svg">
  <path d="M 419.5 136.5  C 424.82 136.5  429 140.68  429 146  C 429 151.32  424.82 155.5  419.5 155.5  C 414.18 155.5  410 151.32  410 146  C 410 140.68  414.18 136.5  419.5 136.5  Z " fill-rule="nonzero" fill="#ffffff" stroke="none" />
  <path d="M 419.5 137  C 424.54 137  428.5 140.96  428.5 146  C 428.5 151.04  424.54 155  419.5 155  C 414.46 155  410.5 151.04  410.5 146  C 410.5 140.96  414.46 137  419.5 137  Z " stroke-width="1" stroke="#f59a23" fill="none" />
  <path d="M 419.5 150.75  C 416.84 150.75  414.75 148.66  414.75 146  C 414.75 143.34  416.84 141.25  419.5 141.25  C 422.16 141.25  424.25 143.34  424.25 146  C 424.25 148.66  422.16 150.75  419.5 150.75  " fill-rule="nonzero" fill="#f59a23" stroke="none" />
</svg>