<?xml version="1.0" encoding="utf-8"?>
<svg version="1.1" xmlns:xlink="http://www.w3.org/1999/xlink" width="5px" height="16px" xmlns="http://www.w3.org/2000/svg">
  <g transform="matrix(1 0 0 1 -1411 -14 )">
    <path d="M 4.635416666666667 11.954545454545453  C 4.878472222222221 12.166666666666664  5 12.424242424242424  5 12.727272727272727  L 5 14.90909090909091  C 5 15.212121212121213  4.878472222222221 15.469696969696969  4.635416666666667 15.681818181818182  C 4.392361111111112 15.893939393939394  4.097222222222222 16  3.75 16  L 1.25 16  C 0.9027777777777779 16  0.607638888888889 15.893939393939394  0.36458333333333337 15.681818181818182  C 0.12152777777777776 15.469696969696969  0 15.212121212121213  0 14.90909090909091  L 0 12.727272727272727  C 0 12.424242424242424  0.12152777777777776 12.166666666666664  0.36458333333333337 11.954545454545453  C 0.607638888888889 11.742424242424244  0.9027777777777779 11.636363636363637  1.25 11.636363636363637  L 3.75 11.636363636363637  C 4.097222222222222 11.636363636363637  4.392361111111112 11.742424242424244  4.635416666666667 11.954545454545453  Z M 4.635416666666667 6.136363636363637  C 4.878472222222221 6.348484848484846  5 6.6060606060606055  5 6.909090909090908  L 5 9.09090909090909  C 5 9.393939393939394  4.878472222222221 9.65151515151515  4.635416666666667 9.863636363636363  C 4.392361111111112 10.075757575757574  4.097222222222222 10.181818181818182  3.75 10.181818181818182  L 1.25 10.181818181818182  C 0.9027777777777779 10.181818181818182  0.607638888888889 10.075757575757574  0.36458333333333337 9.863636363636363  C 0.12152777777777776 9.65151515151515  0 9.393939393939394  0 9.09090909090909  L 0 6.909090909090908  C 0 6.6060606060606055  0.12152777777777776 6.348484848484846  0.36458333333333337 6.136363636363637  C 0.607638888888889 5.924242424242424  0.9027777777777779 5.818181818181818  1.25 5.818181818181818  L 3.75 5.818181818181818  C 4.097222222222222 5.818181818181818  4.392361111111112 5.924242424242424  4.635416666666667 6.136363636363637  Z M 4.635416666666667 0.31818181818181834  C 4.878472222222221 0.5303030303030294  5 0.7878787878787872  5 1.0909090909090917  L 5 3.2727272727272734  C 5 3.5757575757575744  4.878472222222221 3.833333333333332  4.635416666666667 4.045454545454545  C 4.392361111111112 4.257575757575756  4.097222222222222 4.363636363636363  3.75 4.363636363636363  L 1.25 4.363636363636363  C 0.9027777777777779 4.363636363636363  0.607638888888889 4.257575757575756  0.36458333333333337 4.045454545454545  C 0.12152777777777776 3.833333333333332  0 3.5757575757575744  0 3.2727272727272734  L 0 1.0909090909090917  C 0 0.7878787878787872  0.12152777777777776 0.5303030303030294  0.36458333333333337 0.31818181818181834  C 0.607638888888889 0.10606060606060552  0.9027777777777779 0  1.25 0  L 3.75 0  C 4.097222222222222 0  4.392361111111112 0.10606060606060552  4.635416666666667 0.31818181818181834  Z " fill-rule="nonzero" fill="#aaaaaa" stroke="none" transform="matrix(1 0 0 1 1411 14 )" />
  </g>
</svg>