<?xml version="1.0" encoding="utf-8"?>
<svg version="1.1" xmlns:xlink="http://www.w3.org/1999/xlink" width="20px" height="20px" viewBox="122 223  20 20" xmlns="http://www.w3.org/2000/svg">
  <path d="M 122.5 225  A 1.5 1.5 0 0 1 124 223.5 L 140 223.5  A 1.5 1.5 0 0 1 141.5 225 L 141.5 241  A 1.5 1.5 0 0 1 140 242.5 L 124 242.5  A 1.5 1.5 0 0 1 122.5 241 L 122.5 225  Z " fill-rule="nonzero" fill="#ffffff" stroke="none" />
  <path d="M 122.5 225  A 1.5 1.5 0 0 1 124 223.5 L 140 223.5  A 1.5 1.5 0 0 1 141.5 225 L 141.5 241  A 1.5 1.5 0 0 1 140 242.5 L 124 242.5  A 1.5 1.5 0 0 1 122.5 241 L 122.5 225  Z " stroke-width="1" stroke="#797979" fill="none" />
  <path d="M 126.28571428571429 233  L 130.57142857142858 237.2857142857143  L 137.71428571428572 227.28571428571428  " stroke-width="4.285714285714286" stroke="#797979" fill="none" />
</svg>