<?xml version="1.0" encoding="utf-8"?>
<svg version="1.1" xmlns:xlink="http://www.w3.org/1999/xlink" width="19px" height="19px" viewBox="219 477.5  19 19" xmlns="http://www.w3.org/2000/svg">
  <path d="M 228.5 477.5  C 233.82 477.5  238 481.68  238 487  C 238 492.32  233.82 496.5  228.5 496.5  C 223.18 496.5  219 492.32  219 487  C 219 481.68  223.18 477.5  228.5 477.5  Z " fill-rule="nonzero" fill="#f0f0f0" stroke="none" />
  <path d="M 228.5 478  C 233.54 478  237.5 481.96  237.5 487  C 237.5 492.04  233.54 496  228.5 496  C 223.46 496  219.5 492.04  219.5 487  C 219.5 481.96  223.46 478  228.5 478  Z " stroke-width="1" stroke="#f59a23" fill="none" />
  <path d="M 228.5 491.75  C 225.84 491.75  223.75 489.66  223.75 487  C 223.75 484.34  225.84 482.25  228.5 482.25  C 231.16 482.25  233.25 484.34  233.25 487  C 233.25 489.66  231.16 491.75  228.5 491.75  " fill-rule="nonzero" fill="#f59a23" stroke="none" />
</svg>