<?xml version="1.0" encoding="utf-8"?>
<svg version="1.1" xmlns:xlink="http://www.w3.org/1999/xlink" width="25px" height="25px" viewBox="197 273  25 25" xmlns="http://www.w3.org/2000/svg">
  <path d="M 209.5 273  C 216.5 273  222 278.5  222 285.5  C 222 292.5  216.5 298  209.5 298  C 202.5 298  197 292.5  197 285.5  C 197 278.5  202.5 273  209.5 273  Z " fill-rule="nonzero" fill="#ffffff" stroke="none" />
  <path d="M 209.5 273.5  C 216.22 273.5  221.5 278.78  221.5 285.5  C 221.5 292.22  216.22 297.5  209.5 297.5  C 202.78 297.5  197.5 292.22  197.5 285.5  C 197.5 278.78  202.78 273.5  209.5 273.5  Z " stroke-width="1" stroke="#f59a23" fill="none" />
  <path d="M 209.5 291.75  C 206 291.75  203.25 289  203.25 285.5  C 203.25 282  206 279.25  209.5 279.25  C 213 279.25  215.75 282  215.75 285.5  C 215.75 289  213 291.75  209.5 291.75  " fill-rule="nonzero" fill="#f59a23" stroke="none" />
</svg>