<?xml version="1.0" encoding="utf-8"?>
<svg version="1.1" xmlns:xlink="http://www.w3.org/1999/xlink" width="25px" height="25px" viewBox="877 271  25 25" xmlns="http://www.w3.org/2000/svg">
  <path d="M 889.5 271  C 896.5 271  902 276.5  902 283.5  C 902 290.5  896.5 296  889.5 296  C 882.5 296  877 290.5  877 283.5  C 877 276.5  882.5 271  889.5 271  Z " fill-rule="nonzero" fill="#ffffff" stroke="none" />
  <path d="M 889.5 271.5  C 896.22 271.5  901.5 276.78  901.5 283.5  C 901.5 290.22  896.22 295.5  889.5 295.5  C 882.78 295.5  877.5 290.22  877.5 283.5  C 877.5 276.78  882.78 271.5  889.5 271.5  Z " stroke-width="1" stroke="#f59a23" fill="none" />
  <path d="M 889.5 289.75  C 886 289.75  883.25 287  883.25 283.5  C 883.25 280  886 277.25  889.5 277.25  C 893 277.25  895.75 280  895.75 283.5  C 895.75 287  893 289.75  889.5 289.75  " fill-rule="nonzero" fill="#f59a23" stroke="none" />
</svg>