<?xml version="1.0" encoding="utf-8"?>
<svg version="1.1" xmlns:xlink="http://www.w3.org/1999/xlink" width="25px" height="25px" viewBox="1079 271  25 25" xmlns="http://www.w3.org/2000/svg">
  <path d="M 1091.5 271  C 1098.5 271  1104 276.5  1104 283.5  C 1104 290.5  1098.5 296  1091.5 296  C 1084.5 296  1079 290.5  1079 283.5  C 1079 276.5  1084.5 271  1091.5 271  Z " fill-rule="nonzero" fill="#ffffff" stroke="none" />
  <path d="M 1091.5 271.5  C 1098.22 271.5  1103.5 276.78  1103.5 283.5  C 1103.5 290.22  1098.22 295.5  1091.5 295.5  C 1084.78 295.5  1079.5 290.22  1079.5 283.5  C 1079.5 276.78  1084.78 271.5  1091.5 271.5  Z " stroke-width="1" stroke="#f4a820" fill="none" />
  <path d="M 1091.5 289.75  C 1088 289.75  1085.25 287  1085.25 283.5  C 1085.25 280  1088 277.25  1091.5 277.25  C 1095 277.25  1097.75 280  1097.75 283.5  C 1097.75 287  1095 289.75  1091.5 289.75  " fill-rule="nonzero" fill="#f4a820" stroke="none" />
</svg>