<?xml version="1.0" encoding="utf-8"?>
<svg version="1.1" xmlns:xlink="http://www.w3.org/1999/xlink" width="25px" height="25px" viewBox="207 275  25 25" xmlns="http://www.w3.org/2000/svg">
  <path d="M 219.5 275  C 226.5 275  232 280.5  232 287.5  C 232 294.5  226.5 300  219.5 300  C 212.5 300  207 294.5  207 287.5  C 207 280.5  212.5 275  219.5 275  Z " fill-rule="nonzero" fill="#ffffff" stroke="none" />
  <path d="M 219.5 275.5  C 226.22 275.5  231.5 280.78  231.5 287.5  C 231.5 294.22  226.22 299.5  219.5 299.5  C 212.78 299.5  207.5 294.22  207.5 287.5  C 207.5 280.78  212.78 275.5  219.5 275.5  Z " stroke-width="1" stroke="#f59a23" fill="none" />
  <path d="M 219.5 293.75  C 216 293.75  213.25 291  213.25 287.5  C 213.25 284  216 281.25  219.5 281.25  C 223 281.25  225.75 284  225.75 287.5  C 225.75 291  223 293.75  219.5 293.75  " fill-rule="nonzero" fill="#f59a23" stroke="none" />
</svg>