<?xml version="1.0" encoding="utf-8"?>
<svg version="1.1" xmlns:xlink="http://www.w3.org/1999/xlink" width="25px" height="25px" viewBox="352 275  25 25" xmlns="http://www.w3.org/2000/svg">
  <path d="M 364.5 275  C 371.5 275  377 280.5  377 287.5  C 377 294.5  371.5 300  364.5 300  C 357.5 300  352 294.5  352 287.5  C 352 280.5  357.5 275  364.5 275  Z " fill-rule="nonzero" fill="#ffffff" stroke="none" />
  <path d="M 364.5 275.5  C 371.22 275.5  376.5 280.78  376.5 287.5  C 376.5 294.22  371.22 299.5  364.5 299.5  C 357.78 299.5  352.5 294.22  352.5 287.5  C 352.5 280.78  357.78 275.5  364.5 275.5  Z " stroke-width="1" stroke="#f4a820" fill="none" />
  <path d="M 364.5 293.75  C 361 293.75  358.25 291  358.25 287.5  C 358.25 284  361 281.25  364.5 281.25  C 368 281.25  370.75 284  370.75 287.5  C 370.75 291  368 293.75  364.5 293.75  " fill-rule="nonzero" fill="#f4a820" stroke="none" />
</svg>