<?xml version="1.0" encoding="utf-8"?>
<svg version="1.1" xmlns:xlink="http://www.w3.org/1999/xlink" width="25px" height="25px" viewBox="342 273  25 25" xmlns="http://www.w3.org/2000/svg">
  <path d="M 354.5 273  C 361.5 273  367 278.5  367 285.5  C 367 292.5  361.5 298  354.5 298  C 347.5 298  342 292.5  342 285.5  C 342 278.5  347.5 273  354.5 273  Z " fill-rule="nonzero" fill="#ffffff" stroke="none" />
  <path d="M 354.5 273.5  C 361.22 273.5  366.5 278.78  366.5 285.5  C 366.5 292.22  361.22 297.5  354.5 297.5  C 347.78 297.5  342.5 292.22  342.5 285.5  C 342.5 278.78  347.78 273.5  354.5 273.5  Z " stroke-width="1" stroke="#f4a820" fill="none" />
  <path d="M 354.5 291.75  C 351 291.75  348.25 289  348.25 285.5  C 348.25 282  351 279.25  354.5 279.25  C 358 279.25  360.75 282  360.75 285.5  C 360.75 289  358 291.75  354.5 291.75  " fill-rule="nonzero" fill="#f4a820" stroke="none" />
</svg>