<?xml version="1.0" encoding="utf-8"?>
<svg version="1.1" xmlns:xlink="http://www.w3.org/1999/xlink" width="17px" height="18px" xmlns="http://www.w3.org/2000/svg">
  <g transform="matrix(1 0 0 1 -1281 -47 )">
    <path d="M 12.8828125 16.27734375  C 13.012219551282051 16.12890625  13.076923076923078 15.953125  13.076923076923078 15.75  C 13.076923076923078 15.546875  13.012219551282051 15.37109375  12.8828125 15.22265625  C 12.75340544871795 15.07421875  12.600160256410259 15  12.423076923076922 15  C 12.24599358974359 15  12.092748397435898 15.07421875  11.963341346153847 15.22265625  C 11.833934294871797 15.37109375  11.769230769230768 15.546875  11.769230769230768 15.75  C 11.769230769230768 15.953125  11.833934294871797 16.12890625  11.963341346153847 16.27734375  C 12.092748397435898 16.42578125  12.24599358974359 16.5  12.423076923076922 16.5  C 12.600160256410259 16.5  12.75340544871795 16.42578125  12.8828125 16.27734375  Z M 15.498197115384615 16.27734375  C 15.627604166666666 16.12890625  15.692307692307693 15.953125  15.692307692307693 15.75  C 15.692307692307693 15.546875  15.627604166666666 15.37109375  15.498197115384615 15.22265625  C 15.368790064102566 15.07421875  15.215544871794872 15  15.038461538461538 15  C 14.861378205128204 15  14.708133012820515 15.07421875  14.578725961538462 15.22265625  C 14.449318910256412 15.37109375  14.384615384615385 15.546875  14.384615384615385 15.75  C 14.384615384615385 15.953125  14.449318910256412 16.12890625  14.578725961538462 16.27734375  C 14.708133012820515 16.42578125  14.861378205128204 16.5  15.038461538461538 16.5  C 15.215544871794872 16.5  15.368790064102566 16.42578125  15.498197115384615 16.27734375  Z M 16.713942307692307 12.328124999999998  C 16.904647435897438 12.546874999999996  17 12.8125  17 13.125000000000002  L 17 16.875  C 17 17.1875  16.904647435897438 17.453125  16.713942307692307 17.671875  C 16.523237179487182 17.890625  16.291666666666668 18  16.01923076923077 18  L 0.9807692307692308 18  C 0.7083333333333334 18  0.4767628205128206 17.890625  0.2860576923076923 17.671875  C 0.09535256410256408 17.453125  0 17.1875  0 16.875  L 0 13.125000000000002  C 0 12.8125  0.09535256410256408 12.546874999999996  0.2860576923076923 12.328124999999998  C 0.4767628205128206 12.109375  0.7083333333333334 12.000000000000002  0.9807692307692308 12.000000000000002  L 5.7313701923076925 12.000000000000002  L 7.110576923076923 13.59375  C 7.505608974358975 14.03125  7.96875 14.25  8.5 14.25  C 9.03125 14.25  9.494391025641026 14.03125  9.889423076923078 13.59375  L 11.278846153846153 12.000000000000002  L 16.01923076923077 12.000000000000002  C 16.291666666666668 12.000000000000002  16.523237179487182 12.109375  16.713942307692307 12.328124999999998  Z M 13.076923076923078 6.000000000000001  C 13.362980769230768 6.000000000000001  13.563902243589745 6.15234375  13.6796875 6.457031250000001  C 13.795472756410259 6.77734375  13.747796474358976 7.05078125  13.536658653846153 7.27734375  L 8.959735576923078 12.527343750000002  C 8.837139423076922 12.67578125  8.683894230769232 12.749999999999998  8.5 12.749999999999998  C 8.316105769230768 12.749999999999998  8.162860576923077 12.67578125  8.040264423076923 12.527343750000002  L 3.4633413461538463 7.27734375  C 3.252203525641026 7.05078125  3.204527243589744 6.77734375  3.3203125 6.457031250000001  C 3.436097756410257 6.15234375  3.6370192307692304 6.000000000000001  3.9230769230769234 6.000000000000001  L 6.538461538461539 6.000000000000001  L 6.538461538461539 0.7499999999999993  C 6.538461538461539 0.5468749999999976  6.603165064102565 0.37109374999999756  6.732572115384616 0.22265624999999933  C 6.861979166666667 0.07421875000000111  7.0152243589743595 0  7.1923076923076925 0  L 9.807692307692307 0  C 9.984775641025642 0  10.138020833333334 0.07421875000000111  10.267427884615385 0.22265624999999933  C 10.396834935897436 0.37109374999999756  10.461538461538462 0.5468749999999976  10.461538461538462 0.7499999999999993  L 10.461538461538462 6.000000000000001  L 13.076923076923078 6.000000000000001  Z " fill-rule="nonzero" fill="#7f7f7f" stroke="none" transform="matrix(1 0 0 1 1281 47 )" />
  </g>
</svg>