<?xml version="1.0" encoding="utf-8"?>
<svg version="1.1" xmlns:xlink="http://www.w3.org/1999/xlink" width="19px" height="19px" viewBox="835 1473  19 19" xmlns="http://www.w3.org/2000/svg">
  <path d="M 844.5 1473  C 849.82 1473  854 1477.18  854 1482.5  C 854 1487.82  849.82 1492  844.5 1492  C 839.18 1492  835 1487.82  835 1482.5  C 835 1477.18  839.18 1473  844.5 1473  Z " fill-rule="nonzero" fill="#ffffff" stroke="none" />
  <path d="M 844.5 1473.5  C 849.54 1473.5  853.5 1477.46  853.5 1482.5  C 853.5 1487.54  849.54 1491.5  844.5 1491.5  C 839.46 1491.5  835.5 1487.54  835.5 1482.5  C 835.5 1477.46  839.46 1473.5  844.5 1473.5  Z " stroke-width="1" stroke="#f59a23" fill="none" />
  <path d="M 844.5 1487.25  C 841.84 1487.25  839.75 1485.16  839.75 1482.5  C 839.75 1479.84  841.84 1477.75  844.5 1477.75  C 847.16 1477.75  849.25 1479.84  849.25 1482.5  C 849.25 1485.16  847.16 1487.25  844.5 1487.25  " fill-rule="nonzero" fill="#f59a23" stroke="none" />
</svg>