<?xml version="1.0" encoding="utf-8"?>
<svg version="1.1" xmlns:xlink="http://www.w3.org/1999/xlink" width="19px" height="19px" viewBox="237 593.5  19 19" xmlns="http://www.w3.org/2000/svg">
  <path d="M 246.5 593.5  C 251.82 593.5  256 597.68  256 603  C 256 608.32  251.82 612.5  246.5 612.5  C 241.18 612.5  237 608.32  237 603  C 237 597.68  241.18 593.5  246.5 593.5  Z " fill-rule="nonzero" fill="#ffffff" stroke="none" />
  <path d="M 246.5 594  C 251.54 594  255.5 597.96  255.5 603  C 255.5 608.04  251.54 612  246.5 612  C 241.46 612  237.5 608.04  237.5 603  C 237.5 597.96  241.46 594  246.5 594  Z " stroke-width="1" stroke="#f59a23" fill="none" />
  <path d="M 246.5 607.75  C 243.84 607.75  241.75 605.66  241.75 603  C 241.75 600.34  243.84 598.25  246.5 598.25  C 249.16 598.25  251.25 600.34  251.25 603  C 251.25 605.66  249.16 607.75  246.5 607.75  " fill-rule="nonzero" fill="#f59a23" stroke="none" />
</svg>