<?xml version="1.0" encoding="utf-8"?>
<svg version="1.1" xmlns:xlink="http://www.w3.org/1999/xlink" width="19px" height="19px" viewBox="316 593.5  19 19" xmlns="http://www.w3.org/2000/svg">
  <path d="M 325.5 593.5  C 330.82 593.5  335 597.68  335 603  C 335 608.32  330.82 612.5  325.5 612.5  C 320.18 612.5  316 608.32  316 603  C 316 597.68  320.18 593.5  325.5 593.5  Z " fill-rule="nonzero" fill="#ffffff" stroke="none" />
  <path d="M 325.5 594  C 330.54 594  334.5 597.96  334.5 603  C 334.5 608.04  330.54 612  325.5 612  C 320.46 612  316.5 608.04  316.5 603  C 316.5 597.96  320.46 594  325.5 594  Z " stroke-width="1" stroke="#f59a23" fill="none" />
  <path d="M 325.5 607.75  C 322.84 607.75  320.75 605.66  320.75 603  C 320.75 600.34  322.84 598.25  325.5 598.25  C 328.16 598.25  330.25 600.34  330.25 603  C 330.25 605.66  328.16 607.75  325.5 607.75  " fill-rule="nonzero" fill="#f59a23" stroke="none" />
</svg>