<?xml version="1.0" encoding="utf-8"?>
<svg version="1.1" xmlns:xlink="http://www.w3.org/1999/xlink" width="12px" height="7px" xmlns="http://www.w3.org/2000/svg">
  <g transform="matrix(1 0 0 1 -328 -1059 )">
    <path d="M 11.77734375 5.675347222222221  C 11.92578125 5.829282407407405  12 6.011574074074073  12 6.222222222222221  C 12 6.43287037037037  11.92578125 6.615162037037036  11.77734375 6.769097222222221  C 11.62890625 6.923032407407408  11.453125 7  11.25 7  L 0.75 7  C 0.546875 7  0.37109375 6.923032407407408  0.22265625 6.769097222222221  C 0.07421875 6.615162037037036  0 6.43287037037037  0 6.222222222222221  C 0 6.011574074074073  0.07421875 5.829282407407405  0.22265625 5.675347222222221  L 5.47265625 0.23090277777777812  C 5.621093750000001 0.07696759259259167  5.796875000000001 0  6 0  C 6.203125 0  6.37890625 0.07696759259259167  6.52734375 0.23090277777777812  L 11.77734375 5.675347222222221  Z " fill-rule="nonzero" fill="#7f7f7f" stroke="none" transform="matrix(1 0 0 1 328 1059 )" />
  </g>
</svg>