<?xml version="1.0" encoding="utf-8"?>
<svg version="1.1" xmlns:xlink="http://www.w3.org/1999/xlink" width="27px" height="27px" xmlns="http://www.w3.org/2000/svg">
  <g transform="matrix(1 0 0 1 -711 -981 )">
    <path d="M 724.5 981  C 732.06 981  738 986.94  738 994.5  C 738 1002.06  732.06 1008  724.5 1008  C 716.94 1008  711 1002.06  711 994.5  C 711 986.94  716.94 981  724.5 981  Z " fill-rule="nonzero" fill="#d9001b" stroke="none" />
    <path d="M 724.5 981.5  C 731.78 981.5  737.5 987.22  737.5 994.5  C 737.5 1001.78  731.78 1007.5  724.5 1007.5  C 717.22 1007.5  711.5 1001.78  711.5 994.5  C 711.5 987.22  717.22 981.5  724.5 981.5  Z " stroke-width="1" stroke="#d9001b" fill="none" />
  </g>
</svg>