<?xml version="1.0" encoding="utf-8"?>
<svg version="1.1" xmlns:xlink="http://www.w3.org/1999/xlink" width="27px" height="27px" xmlns="http://www.w3.org/2000/svg">
  <g transform="matrix(1 0 0 1 -619 -361 )">
    <path d="M 632.5 361.5  C 639.78 361.5  645.5 367.22  645.5 374.5  C 645.5 381.78  639.78 387.5  632.5 387.5  C 625.22 387.5  619.5 381.78  619.5 374.5  C 619.5 367.22  625.22 361.5  632.5 361.5  Z " fill-rule="nonzero" fill="#f4a820" stroke="none" fill-opacity="0.996078431372549" />
    <path d="M 632.5 361.5  C 639.78 361.5  645.5 367.22  645.5 374.5  C 645.5 381.78  639.78 387.5  632.5 387.5  C 625.22 387.5  619.5 381.78  619.5 374.5  C 619.5 367.22  625.22 361.5  632.5 361.5  Z " stroke-width="1" stroke="#f4a820" fill="none" stroke-opacity="0.996078431372549" />
  </g>
</svg>