<?xml version="1.0" encoding="utf-8"?>
<svg version="1.1" xmlns:xlink="http://www.w3.org/1999/xlink" width="27px" height="27px" xmlns="http://www.w3.org/2000/svg">
  <g transform="matrix(1 0 0 1 -477 -509 )">
    <path d="M 490.5 509  C 498.06 509  504 514.94  504 522.5  C 504 530.06  498.06 536  490.5 536  C 482.94 536  477 530.06  477 522.5  C 477 514.94  482.94 509  490.5 509  Z " fill-rule="nonzero" fill="#aaaaaa" stroke="none" />
    <path d="M 490.5 509.5  C 497.78 509.5  503.5 515.22  503.5 522.5  C 503.5 529.78  497.78 535.5  490.5 535.5  C 483.22 535.5  477.5 529.78  477.5 522.5  C 477.5 515.22  483.22 509.5  490.5 509.5  Z " stroke-width="1" stroke="#aaaaaa" fill="none" />
  </g>
</svg>