<?xml version="1.0" encoding="utf-8"?>
<svg version="1.1" xmlns:xlink="http://www.w3.org/1999/xlink" width="19px" height="19px" viewBox="151 319  19 19" xmlns="http://www.w3.org/2000/svg">
  <path d="M 160.5 319  C 165.82 319  170 323.18  170 328.5  C 170 333.82  165.82 338  160.5 338  C 155.18 338  151 333.82  151 328.5  C 151 323.18  155.18 319  160.5 319  Z " fill-rule="nonzero" fill="#ffffff" stroke="none" />
  <path d="M 160.5 319.5  C 165.54 319.5  169.5 323.46  169.5 328.5  C 169.5 333.54  165.54 337.5  160.5 337.5  C 155.46 337.5  151.5 333.54  151.5 328.5  C 151.5 323.46  155.46 319.5  160.5 319.5  Z " stroke-width="1" stroke="#f59a23" fill="none" />
  <path d="M 160.5 333.25  C 157.84 333.25  155.75 331.16  155.75 328.5  C 155.75 325.84  157.84 323.75  160.5 323.75  C 163.16 323.75  165.25 325.84  165.25 328.5  C 165.25 331.16  163.16 333.25  160.5 333.25  " fill-rule="nonzero" fill="#f59a23" stroke="none" />
</svg>