<?xml version="1.0" encoding="utf-8"?>
<svg version="1.1" xmlns:xlink="http://www.w3.org/1999/xlink" width="19px" height="19px" viewBox="290 319  19 19" xmlns="http://www.w3.org/2000/svg">
  <path d="M 299.5 319  C 304.82 319  309 323.18  309 328.5  C 309 333.82  304.82 338  299.5 338  C 294.18 338  290 333.82  290 328.5  C 290 323.18  294.18 319  299.5 319  Z " fill-rule="nonzero" fill="#f0f0f0" stroke="none" />
  <path d="M 299.5 319.5  C 304.54 319.5  308.5 323.46  308.5 328.5  C 308.5 333.54  304.54 337.5  299.5 337.5  C 294.46 337.5  290.5 333.54  290.5 328.5  C 290.5 323.46  294.46 319.5  299.5 319.5  Z " stroke-width="1" stroke="#f59a23" fill="none" />
  <path d="M 299.5 333.25  C 296.84 333.25  294.75 331.16  294.75 328.5  C 294.75 325.84  296.84 323.75  299.5 323.75  C 302.16 323.75  304.25 325.84  304.25 328.5  C 304.25 331.16  302.16 333.25  299.5 333.25  " fill-rule="nonzero" fill="#f59a23" stroke="none" />
</svg>