<?xml version="1.0" encoding="utf-8"?>
<svg version="1.1" xmlns:xlink="http://www.w3.org/1999/xlink" width="19px" height="19px" viewBox="306 329  19 19" xmlns="http://www.w3.org/2000/svg">
  <path d="M 315.5 329  C 320.82 329  325 333.18  325 338.5  C 325 343.82  320.82 348  315.5 348  C 310.18 348  306 343.82  306 338.5  C 306 333.18  310.18 329  315.5 329  Z " fill-rule="nonzero" fill="#f0f0f0" stroke="none" />
  <path d="M 315.5 329.5  C 320.54 329.5  324.5 333.46  324.5 338.5  C 324.5 343.54  320.54 347.5  315.5 347.5  C 310.46 347.5  306.5 343.54  306.5 338.5  C 306.5 333.46  310.46 329.5  315.5 329.5  Z " stroke-width="1" stroke="#f59a23" fill="none" />
  <path d="M 315.5 343.25  C 312.84 343.25  310.75 341.16  310.75 338.5  C 310.75 335.84  312.84 333.75  315.5 333.75  C 318.16 333.75  320.25 335.84  320.25 338.5  C 320.25 341.16  318.16 343.25  315.5 343.25  " fill-rule="nonzero" fill="#f59a23" stroke="none" />
</svg>