<?xml version="1.0" encoding="utf-8"?>
<svg version="1.1" xmlns:xlink="http://www.w3.org/1999/xlink" width="27px" height="27px" xmlns="http://www.w3.org/2000/svg">
  <g transform="matrix(1 0 0 1 -711 -224 )">
    <path d="M 724.5 224  C 732.06 224  738 229.94  738 237.5  C 738 245.06  732.06 251  724.5 251  C 716.94 251  711 245.06  711 237.5  C 711 229.94  716.94 224  724.5 224  Z " fill-rule="nonzero" fill="#63a103" stroke="none" />
    <path d="M 724.5 224.5  C 731.78 224.5  737.5 230.22  737.5 237.5  C 737.5 244.78  731.78 250.5  724.5 250.5  C 717.22 250.5  711.5 244.78  711.5 237.5  C 711.5 230.22  717.22 224.5  724.5 224.5  Z " stroke-width="1" stroke="#63a103" fill="none" />
  </g>
</svg>