<?xml version="1.0" encoding="utf-8"?>
<svg version="1.1" xmlns:xlink="http://www.w3.org/1999/xlink" width="27px" height="27px" xmlns="http://www.w3.org/2000/svg">
  <g transform="matrix(1 0 0 1 -711 -679 )">
    <path d="M 724.5 679  C 732.06 679  738 684.94  738 692.5  C 738 700.06  732.06 706  724.5 706  C 716.94 706  711 700.06  711 692.5  C 711 684.94  716.94 679  724.5 679  Z " fill-rule="nonzero" fill="#ffff00" stroke="none" />
    <path d="M 724.5 679.5  C 731.78 679.5  737.5 685.22  737.5 692.5  C 737.5 699.78  731.78 705.5  724.5 705.5  C 717.22 705.5  711.5 699.78  711.5 692.5  C 711.5 685.22  717.22 679.5  724.5 679.5  Z " stroke-width="1" stroke="#ffff00" fill="none" />
  </g>
</svg>