<?xml version="1.0" encoding="utf-8"?>
<svg version="1.1" xmlns:xlink="http://www.w3.org/1999/xlink" width="27px" height="27px" xmlns="http://www.w3.org/2000/svg">
  <g transform="matrix(1 0 0 1 -619 -328 )">
    <path d="M 632.5 328  C 640.06 328  646 333.94  646 341.5  C 646 349.06  640.06 355  632.5 355  C 624.94 355  619 349.06  619 341.5  C 619 333.94  624.94 328  632.5 328  Z " fill-rule="nonzero" fill="#d7d7d7" stroke="none" />
    <path d="M 632.5 328.5  C 639.78 328.5  645.5 334.22  645.5 341.5  C 645.5 348.78  639.78 354.5  632.5 354.5  C 625.22 354.5  619.5 348.78  619.5 341.5  C 619.5 334.22  625.22 328.5  632.5 328.5  Z " stroke-width="1" stroke="#d7d7d7" fill="none" />
  </g>
</svg>