<?xml version="1.0" encoding="utf-8"?>
<svg version="1.1" xmlns:xlink="http://www.w3.org/1999/xlink" width="25px" height="25px" xmlns="http://www.w3.org/2000/svg">
  <g transform="matrix(1 0 0 1 -910 -1131 )">
    <path d="M 922.5 1131  C 929.5 1131  935 1136.5  935 1143.5  C 935 1150.5  929.5 1156  922.5 1156  C 915.5 1156  910 1150.5  910 1143.5  C 910 1136.5  915.5 1131  922.5 1131  Z " fill-rule="nonzero" fill="#aaaaaa" stroke="none" />
    <path d="M 922.5 1131.5  C 929.22 1131.5  934.5 1136.78  934.5 1143.5  C 934.5 1150.22  929.22 1155.5  922.5 1155.5  C 915.78 1155.5  910.5 1150.22  910.5 1143.5  C 910.5 1136.78  915.78 1131.5  922.5 1131.5  Z " stroke-width="1" stroke="#aaaaaa" fill="none" />
  </g>
</svg>