<?xml version="1.0" encoding="utf-8"?>
<svg version="1.1" xmlns:xlink="http://www.w3.org/1999/xlink" width="19px" height="19px" viewBox="461 629  19 19" xmlns="http://www.w3.org/2000/svg">
  <path d="M 470.5 629  C 475.82 629  480 633.18  480 638.5  C 480 643.82  475.82 648  470.5 648  C 465.18 648  461 643.82  461 638.5  C 461 633.18  465.18 629  470.5 629  Z " fill-rule="nonzero" fill="#ffffff" stroke="none" />
  <path d="M 470.5 629.5  C 475.54 629.5  479.5 633.46  479.5 638.5  C 479.5 643.54  475.54 647.5  470.5 647.5  C 465.46 647.5  461.5 643.54  461.5 638.5  C 461.5 633.46  465.46 629.5  470.5 629.5  Z " stroke-width="1" stroke="#f59a23" fill="none" />
  <path d="M 470.5 643.25  C 467.84 643.25  465.75 641.16  465.75 638.5  C 465.75 635.84  467.84 633.75  470.5 633.75  C 473.16 633.75  475.25 635.84  475.25 638.5  C 475.25 641.16  473.16 643.25  470.5 643.25  " fill-rule="nonzero" fill="#f59a23" stroke="none" />
</svg>