<?xml version="1.0" encoding="utf-8"?>
<svg version="1.1" xmlns:xlink="http://www.w3.org/1999/xlink" width="19px" height="19px" viewBox="324 629  19 19" xmlns="http://www.w3.org/2000/svg">
  <path d="M 333.5 629  C 338.82 629  343 633.18  343 638.5  C 343 643.82  338.82 648  333.5 648  C 328.18 648  324 643.82  324 638.5  C 324 633.18  328.18 629  333.5 629  Z " fill-rule="nonzero" fill="#ffffff" stroke="none" />
  <path d="M 333.5 629.5  C 338.54 629.5  342.5 633.46  342.5 638.5  C 342.5 643.54  338.54 647.5  333.5 647.5  C 328.46 647.5  324.5 643.54  324.5 638.5  C 324.5 633.46  328.46 629.5  333.5 629.5  Z " stroke-width="1" stroke="#f59a23" fill="none" />
  <path d="M 333.5 643.25  C 330.84 643.25  328.75 641.16  328.75 638.5  C 328.75 635.84  330.84 633.75  333.5 633.75  C 336.16 633.75  338.25 635.84  338.25 638.5  C 338.25 641.16  336.16 643.25  333.5 643.25  " fill-rule="nonzero" fill="#f59a23" stroke="none" />
</svg>