<?xml version="1.0" encoding="utf-8"?>
<svg version="1.1" xmlns:xlink="http://www.w3.org/1999/xlink" width="19px" height="19px" viewBox="547 694  19 19" xmlns="http://www.w3.org/2000/svg">
  <path d="M 556.5 694  C 561.82 694  566 698.18  566 703.5  C 566 708.82  561.82 713  556.5 713  C 551.18 713  547 708.82  547 703.5  C 547 698.18  551.18 694  556.5 694  Z " fill-rule="nonzero" fill="#f0f0f0" stroke="none" />
  <path d="M 556.5 694.5  C 561.54 694.5  565.5 698.46  565.5 703.5  C 565.5 708.54  561.54 712.5  556.5 712.5  C 551.46 712.5  547.5 708.54  547.5 703.5  C 547.5 698.46  551.46 694.5  556.5 694.5  Z " stroke-width="1" stroke="#f59a23" fill="none" />
  <path d="M 556.5 708.25  C 553.84 708.25  551.75 706.16  551.75 703.5  C 551.75 700.84  553.84 698.75  556.5 698.75  C 559.16 698.75  561.25 700.84  561.25 703.5  C 561.25 706.16  559.16 708.25  556.5 708.25  " fill-rule="nonzero" fill="#f59a23" stroke="none" />
</svg>