<?xml version="1.0" encoding="utf-8"?>
<svg version="1.1" xmlns:xlink="http://www.w3.org/1999/xlink" width="19px" height="19px" viewBox="219 315.5  19 19" xmlns="http://www.w3.org/2000/svg">
  <path d="M 228.5 315.5  C 233.82 315.5  238 319.68  238 325  C 238 330.32  233.82 334.5  228.5 334.5  C 223.18 334.5  219 330.32  219 325  C 219 319.68  223.18 315.5  228.5 315.5  Z " fill-rule="nonzero" fill="#f0f0f0" stroke="none" />
  <path d="M 228.5 316  C 233.54 316  237.5 319.96  237.5 325  C 237.5 330.04  233.54 334  228.5 334  C 223.46 334  219.5 330.04  219.5 325  C 219.5 319.96  223.46 316  228.5 316  Z " stroke-width="1" stroke="#f59a23" fill="none" />
  <path d="M 228.5 329.75  C 225.84 329.75  223.75 327.66  223.75 325  C 223.75 322.34  225.84 320.25  228.5 320.25  C 231.16 320.25  233.25 322.34  233.25 325  C 233.25 327.66  231.16 329.75  228.5 329.75  " fill-rule="nonzero" fill="#f59a23" stroke="none" />
</svg>