<?xml version="1.0" encoding="utf-8"?>
<svg version="1.1" xmlns:xlink="http://www.w3.org/1999/xlink" width="19px" height="19px" viewBox="402 315.5  19 19" xmlns="http://www.w3.org/2000/svg">
  <path d="M 411.5 315.5  C 416.82 315.5  421 319.68  421 325  C 421 330.32  416.82 334.5  411.5 334.5  C 406.18 334.5  402 330.32  402 325  C 402 319.68  406.18 315.5  411.5 315.5  Z " fill-rule="nonzero" fill="#f0f0f0" stroke="none" />
  <path d="M 411.5 316  C 416.54 316  420.5 319.96  420.5 325  C 420.5 330.04  416.54 334  411.5 334  C 406.46 334  402.5 330.04  402.5 325  C 402.5 319.96  406.46 316  411.5 316  Z " stroke-width="1" stroke="#f59a23" fill="none" />
  <path d="M 411.5 329.75  C 408.84 329.75  406.75 327.66  406.75 325  C 406.75 322.34  408.84 320.25  411.5 320.25  C 414.16 320.25  416.25 322.34  416.25 325  C 416.25 327.66  414.16 329.75  411.5 329.75  " fill-rule="nonzero" fill="#f59a23" stroke="none" />
</svg>