<?xml version="1.0" encoding="utf-8"?>
<svg version="1.1" xmlns:xlink="http://www.w3.org/1999/xlink" width="19px" height="19px" viewBox="391 314.5  19 19" xmlns="http://www.w3.org/2000/svg">
  <path d="M 400.5 314.5  C 405.82 314.5  410 318.68  410 324  C 410 329.32  405.82 333.5  400.5 333.5  C 395.18 333.5  391 329.32  391 324  C 391 318.68  395.18 314.5  400.5 314.5  Z " fill-rule="nonzero" fill="#ffffff" stroke="none" />
  <path d="M 400.5 315  C 405.54 315  409.5 318.96  409.5 324  C 409.5 329.04  405.54 333  400.5 333  C 395.46 333  391.5 329.04  391.5 324  C 391.5 318.96  395.46 315  400.5 315  Z " stroke-width="1" stroke="#f59a23" fill="none" />
  <path d="M 400.5 328.75  C 397.84 328.75  395.75 326.66  395.75 324  C 395.75 321.34  397.84 319.25  400.5 319.25  C 403.16 319.25  405.25 321.34  405.25 324  C 405.25 326.66  403.16 328.75  400.5 328.75  " fill-rule="nonzero" fill="#f59a23" stroke="none" />
</svg>