<?xml version="1.0" encoding="utf-8"?>
<svg version="1.1" xmlns:xlink="http://www.w3.org/1999/xlink" width="19px" height="19px" viewBox="190 293.5  19 19" xmlns="http://www.w3.org/2000/svg">
  <path d="M 199.5 293.5  C 204.82 293.5  209 297.68  209 303  C 209 308.32  204.82 312.5  199.5 312.5  C 194.18 312.5  190 308.32  190 303  C 190 297.68  194.18 293.5  199.5 293.5  Z " fill-rule="nonzero" fill="#ffffff" stroke="none" />
  <path d="M 199.5 294  C 204.54 294  208.5 297.96  208.5 303  C 208.5 308.04  204.54 312  199.5 312  C 194.46 312  190.5 308.04  190.5 303  C 190.5 297.96  194.46 294  199.5 294  Z " stroke-width="1" stroke="#f59a23" fill="none" />
  <path d="M 199.5 307.75  C 196.84 307.75  194.75 305.66  194.75 303  C 194.75 300.34  196.84 298.25  199.5 298.25  C 202.16 298.25  204.25 300.34  204.25 303  C 204.25 305.66  202.16 307.75  199.5 307.75  " fill-rule="nonzero" fill="#f59a23" stroke="none" />
</svg>