<?xml version="1.0" encoding="utf-8"?>
<svg version="1.1" xmlns:xlink="http://www.w3.org/1999/xlink" width="19px" height="19px" viewBox="208 314.5  19 19" xmlns="http://www.w3.org/2000/svg">
  <path d="M 217.5 314.5  C 222.82 314.5  227 318.68  227 324  C 227 329.32  222.82 333.5  217.5 333.5  C 212.18 333.5  208 329.32  208 324  C 208 318.68  212.18 314.5  217.5 314.5  Z " fill-rule="nonzero" fill="#ffffff" stroke="none" />
  <path d="M 217.5 315  C 222.54 315  226.5 318.96  226.5 324  C 226.5 329.04  222.54 333  217.5 333  C 212.46 333  208.5 329.04  208.5 324  C 208.5 318.96  212.46 315  217.5 315  Z " stroke-width="1" stroke="#f59a23" fill="none" />
  <path d="M 217.5 328.75  C 214.84 328.75  212.75 326.66  212.75 324  C 212.75 321.34  214.84 319.25  217.5 319.25  C 220.16 319.25  222.25 321.34  222.25 324  C 222.25 326.66  220.16 328.75  217.5 328.75  " fill-rule="nonzero" fill="#f59a23" stroke="none" />
</svg>