<?xml version="1.0" encoding="utf-8"?>
<svg version="1.1" xmlns:xlink="http://www.w3.org/1999/xlink" width="19px" height="19px" viewBox="918 429.5  19 19" xmlns="http://www.w3.org/2000/svg">
  <path d="M 927.5 429.5  C 932.82 429.5  937 433.68  937 439  C 937 444.32  932.82 448.5  927.5 448.5  C 922.18 448.5  918 444.32  918 439  C 918 433.68  922.18 429.5  927.5 429.5  Z " fill-rule="nonzero" fill="#f0f0f0" stroke="none" />
  <path d="M 927.5 430  C 932.54 430  936.5 433.96  936.5 439  C 936.5 444.04  932.54 448  927.5 448  C 922.46 448  918.5 444.04  918.5 439  C 918.5 433.96  922.46 430  927.5 430  Z " stroke-width="1" stroke="#f59a23" fill="none" />
  <path d="M 927.5 443.75  C 924.84 443.75  922.75 441.66  922.75 439  C 922.75 436.34  924.84 434.25  927.5 434.25  C 930.16 434.25  932.25 436.34  932.25 439  C 932.25 441.66  930.16 443.75  927.5 443.75  " fill-rule="nonzero" fill="#f59a23" stroke="none" />
</svg>