<?xml version="1.0" encoding="utf-8"?>
<svg version="1.1" xmlns:xlink="http://www.w3.org/1999/xlink" width="22px" height="19px" xmlns="http://www.w3.org/2000/svg">
  <g transform="matrix(1 0 0 1 -1212 -45 )">
    <path d="M 0.18330856765374456 14.883893461489766  C 0.061102931759825355 14.98943469248906  0 15.116082796732572  0 15.263840518558897  C 0 15.263840518558897  0 18.472293852866965  0 18.472293852866965  C 0 18.767809296519616  0.2688523935036047 19  0.6110281703645667 19  C 0.6110281703645667 19  4.326079399563382 19  4.326079399563382 19  C 4.484946718030951 19  4.643813927238169 18.947229789467222  4.753799002274205 18.84168855846793  C 4.753799002274205 18.84168855846793  18.098653753549968 7.327140589068244  18.098653753549968 7.327140589068244  L 13.515943641259462 3.3693447372003815  C 13.515943641259462 3.3693447372003815  0.18330856765374456 14.883893461489766  0.18330856765374456 14.883893461489766  Z M 19.406253665188142 6.197849756289821  C 19.406253665188142 6.197849756289821  21.642616675486956 4.2664453383044805  21.642616675486956 4.2664453383044805  C 21.755905637860607 4.168805278288101  21.84578490078564 4.052827138900499  21.907109471720243 3.925150395217867  C 21.968434042654845 3.797473651535234  22 3.6606051821588577  22 3.52237949973857  C 22 3.384153817318282  21.968434042654845 3.2472853479419057  21.907109471720243 3.1196086042592728  C 21.84578490078564 2.9919318605766407  21.755905637860607 2.8759539728189383  21.642616675486956 2.7783139128025587  C 21.642616675486956 2.7783139128025587  18.783006982597275 0.30864898317681955  18.783006982597275 0.30864898317681955  C 18.669950070999363 0.21080851567230477  18.535659885174656 0.13318551587341004  18.387823655647395 0.08022338642989088  C 18.239987426120138 0.027261256986371725  18.081508145789595 0  17.921457355618738 0  C 17.761406565447878 0  17.602924954229845 0.027261256986371725  17.455088724702584 0.08022338642989088  C 17.307252495175327 0.13318551587341004  17.17296230935062 0.21080851567230477  17.059905397752704 0.30864898317681955  C 17.059905397752704 0.30864898317681955  14.823543552897636 2.240053401162159  14.823543552897636 2.240053401162159  L 19.406253665188142 6.197849756289821  Z " fill-rule="nonzero" fill="#767676" stroke="none" transform="matrix(1 0 0 1 1212 45 )" />
  </g>
</svg>