<?xml version="1.0" encoding="utf-8"?>
<svg version="1.1" xmlns:xlink="http://www.w3.org/1999/xlink" width="22px" height="21px" xmlns="http://www.w3.org/2000/svg">
  <g transform="matrix(1 0 0 1 -1211 -50 )">
    <path d="M 16.671875 18.990234375  C 16.83934294871795 18.817057291666668  16.923076923076923 18.611979166666668  16.923076923076923 18.375  C 16.923076923076923 18.138020833333332  16.83934294871795 17.932942708333332  16.671875 17.759765625  C 16.504407051282055 17.586588541666668  16.306089743589748 17.5  16.076923076923077 17.5  C 15.84775641025641 17.5  15.649439102564104 17.586588541666668  15.481971153846155 17.759765625  C 15.314503205128208 17.932942708333332  15.23076923076923 18.138020833333332  15.23076923076923 18.375  C 15.23076923076923 18.611979166666668  15.314503205128208 18.817057291666668  15.481971153846155 18.990234375  C 15.649439102564104 19.163411458333332  15.84775641025641 19.25  16.076923076923077 19.25  C 16.306089743589748 19.25  16.504407051282055 19.163411458333332  16.671875 18.990234375  Z M 20.056490384615383 18.990234375  C 20.223958333333332 18.817057291666668  20.30769230769231 18.611979166666668  20.30769230769231 18.375  C 20.30769230769231 18.138020833333332  20.223958333333332 17.932942708333332  20.056490384615383 17.759765625  C 19.889022435897438 17.586588541666668  19.690705128205128 17.5  19.46153846153846 17.5  C 19.232371794871796 17.5  19.03405448717949 17.586588541666668  18.86658653846154 17.759765625  C 18.69911858974359 17.932942708333332  18.615384615384617 18.138020833333332  18.615384615384617 18.375  C 18.615384615384617 18.611979166666668  18.69911858974359 18.817057291666668  18.86658653846154 18.990234375  C 19.03405448717949 19.163411458333332  19.232371794871796 19.25  19.46153846153846 19.25  C 19.690705128205128 19.25  19.889022435897438 19.163411458333332  20.056490384615383 18.990234375  Z M 21.62980769230769 14.382812499999998  C 21.876602564102566 14.63802083333333  22 14.947916666666668  22 15.312500000000002  L 22 19.6875  C 22 20.052083333333336  21.876602564102566 20.361979166666664  21.62980769230769 20.6171875  C 21.38301282051282 20.872395833333336  21.083333333333336 21  20.73076923076923 21  L 1.2692307692307694 21  C 0.9166666666666667 21  0.6169871794871796 20.872395833333336  0.37019230769230765 20.6171875  C 0.12339743589743588 20.361979166666664  0 20.052083333333336  0 19.6875  L 0 15.312500000000002  C 0 14.947916666666668  0.12339743589743588 14.63802083333333  0.37019230769230765 14.382812499999998  C 0.6169871794871796 14.127604166666668  0.9166666666666667 14.000000000000002  1.2692307692307694 14.000000000000002  L 7.4170673076923075 14.000000000000002  L 9.201923076923077 15.859375  C 9.713141025641027 16.369791666666664  10.3125 16.625  11 16.625  C 11.6875 16.625  12.286858974358974 16.369791666666664  12.798076923076923 15.859375  L 14.596153846153845 14.000000000000002  L 20.73076923076923 14.000000000000002  C 21.083333333333336 14.000000000000002  21.38301282051282 14.127604166666668  21.62980769230769 14.382812499999998  Z M 16.923076923076923 7.000000000000001  C 17.29326923076923 7.000000000000001  17.55328525641026 7.177734375  17.703125 7.533203125000001  C 17.852964743589748 7.906901041666666  17.79126602564103 8.225911458333332  17.518028846153847 8.490234375  L 11.594951923076923 14.615234375000002  C 11.436298076923077 14.788411458333332  11.23798076923077 14.874999999999998  11 14.874999999999998  C 10.76201923076923 14.874999999999998  10.563701923076923 14.788411458333332  10.405048076923077 14.615234375000002  L 4.481971153846154 8.490234375  C 4.2087339743589745 8.225911458333332  4.147035256410257 7.906901041666666  4.296875 7.533203125000001  C 4.4467147435897445 7.177734375  4.706730769230769 7.000000000000001  5.0769230769230775 7.000000000000001  L 8.461538461538462 7.000000000000001  L 8.461538461538462 0.8749999999999992  C 8.461538461538462 0.6380208333333305  8.545272435897436 0.4329427083333305  8.712740384615385 0.2597656249999992  C 8.880208333333334 0.08658854166666796  9.078525641025642 0  9.307692307692308 0  L 12.692307692307692 0  C 12.92147435897436 0  13.119791666666668 0.08658854166666796  13.287259615384615 0.2597656249999992  C 13.454727564102564 0.4329427083333305  13.53846153846154 0.6380208333333305  13.53846153846154 0.8749999999999992  L 13.53846153846154 7.000000000000001  L 16.923076923076923 7.000000000000001  Z " fill-rule="nonzero" fill="#7f7f7f" stroke="none" transform="matrix(1 0 0 1 1211 50 )" />
  </g>
</svg>