<?xml version="1.0" encoding="utf-8"?>
<svg version="1.1" xmlns:xlink="http://www.w3.org/1999/xlink" width="19px" height="19px" viewBox="237 346.5  19 19" xmlns="http://www.w3.org/2000/svg">
  <path d="M 246.5 346.5  C 251.82 346.5  256 350.68  256 356  C 256 361.32  251.82 365.5  246.5 365.5  C 241.18 365.5  237 361.32  237 356  C 237 350.68  241.18 346.5  246.5 346.5  Z " fill-rule="nonzero" fill="#f0f0f0" stroke="none" />
  <path d="M 246.5 347  C 251.54 347  255.5 350.96  255.5 356  C 255.5 361.04  251.54 365  246.5 365  C 241.46 365  237.5 361.04  237.5 356  C 237.5 350.96  241.46 347  246.5 347  Z " stroke-width="1" stroke="#f59a23" fill="none" />
  <path d="M 246.5 360.75  C 243.84 360.75  241.75 358.66  241.75 356  C 241.75 353.34  243.84 351.25  246.5 351.25  C 249.16 351.25  251.25 353.34  251.25 356  C 251.25 358.66  249.16 360.75  246.5 360.75  " fill-rule="nonzero" fill="#f59a23" stroke="none" />
</svg>