<?xml version="1.0" encoding="utf-8"?>
<svg version="1.1" xmlns:xlink="http://www.w3.org/1999/xlink" width="19px" height="19px" viewBox="385 346.5  19 19" xmlns="http://www.w3.org/2000/svg">
  <path d="M 394.5 346.5  C 399.82 346.5  404 350.68  404 356  C 404 361.32  399.82 365.5  394.5 365.5  C 389.18 365.5  385 361.32  385 356  C 385 350.68  389.18 346.5  394.5 346.5  Z " fill-rule="nonzero" fill="#ffffff" stroke="none" />
  <path d="M 394.5 347  C 399.54 347  403.5 350.96  403.5 356  C 403.5 361.04  399.54 365  394.5 365  C 389.46 365  385.5 361.04  385.5 356  C 385.5 350.96  389.46 347  394.5 347  Z " stroke-width="1" stroke="#f59a23" fill="none" />
  <path d="M 394.5 360.75  C 391.84 360.75  389.75 358.66  389.75 356  C 389.75 353.34  391.84 351.25  394.5 351.25  C 397.16 351.25  399.25 353.34  399.25 356  C 399.25 358.66  397.16 360.75  394.5 360.75  " fill-rule="nonzero" fill="#f59a23" stroke="none" />
</svg>