<?xml version="1.0" encoding="utf-8"?>
<svg version="1.1" xmlns:xlink="http://www.w3.org/1999/xlink" width="32px" height="32px" xmlns="http://www.w3.org/2000/svg">
  <g transform="matrix(1 0 0 1 -687 -705 )">
    <path d="M 26.270833333333332 18.270833333333336  C 26.534722222222225 18.006944444444443  26.666666666666668 17.694444444444443  26.666666666666668 17.333333333333336  L 26.666666666666668 14.666666666666668  C 26.666666666666668 14.305555555555554  26.534722222222225 13.993055555555554  26.270833333333332 13.729166666666668  C 26.006944444444446 13.465277777777779  25.694444444444446 13.333333333333332  25.333333333333332 13.333333333333332  L 18.666666666666668 13.333333333333332  L 18.666666666666668 6.666666666666668  C 18.666666666666668 6.305555555555554  18.534722222222225 5.993055555555554  18.270833333333332 5.729166666666668  C 18.006944444444446 5.465277777777775  17.694444444444446 5.333333333333332  17.333333333333332 5.333333333333332  L 14.666666666666666 5.333333333333332  C 14.305555555555557 5.333333333333332  13.993055555555557 5.465277777777775  13.729166666666666 5.729166666666668  C 13.465277777777779 5.993055555555554  13.333333333333334 6.305555555555554  13.333333333333334 6.666666666666668  L 13.333333333333334 13.333333333333332  L 6.666666666666667 13.333333333333332  C 6.305555555555556 13.333333333333332  5.993055555555556 13.465277777777779  5.729166666666667 13.729166666666668  C 5.465277777777779 13.993055555555554  5.333333333333333 14.305555555555554  5.333333333333333 14.666666666666668  L 5.333333333333333 17.333333333333336  C 5.333333333333333 17.694444444444443  5.465277777777779 18.006944444444443  5.729166666666667 18.270833333333336  C 5.993055555555556 18.53472222222222  6.305555555555556 18.666666666666664  6.666666666666667 18.666666666666664  L 13.333333333333334 18.666666666666664  L 13.333333333333334 25.333333333333332  C 13.333333333333334 25.694444444444443  13.465277777777779 26.006944444444443  13.729166666666666 26.270833333333332  C 13.993055555555557 26.534722222222225  14.305555555555557 26.666666666666668  14.666666666666666 26.666666666666668  L 17.333333333333332 26.666666666666668  C 17.694444444444446 26.666666666666668  18.006944444444446 26.534722222222225  18.270833333333332 26.270833333333332  C 18.534722222222225 26.006944444444443  18.666666666666668 25.694444444444443  18.666666666666668 25.333333333333332  L 18.666666666666668 18.666666666666664  L 25.333333333333332 18.666666666666664  C 25.694444444444446 18.666666666666664  26.006944444444446 18.53472222222222  26.270833333333332 18.270833333333336  Z M 30.239583333333332 1.7604166666666679  C 31.413194444444443 2.934027777777775  32 4.347222222222218  32 6  L 32 26  C 32 27.652777777777775  31.413194444444443 29.065972222222225  30.239583333333332 30.239583333333332  C 29.065972222222225 31.413194444444443  27.652777777777782 32  26 32  L 6 32  C 4.347222222222222 32  2.934027777777778 31.413194444444443  1.7604166666666667 30.239583333333332  C 0.5868055555555555 29.065972222222225  0 27.652777777777775  0 26  L 0 6  C 0 4.347222222222218  0.5868055555555555 2.934027777777775  1.7604166666666667 1.7604166666666679  C 2.934027777777778 0.5868055555555536  4.347222222222222 0  6 0  L 26 0  C 27.652777777777782 0  29.065972222222225 0.5868055555555536  30.239583333333332 1.7604166666666679  Z " fill-rule="nonzero" fill="#f59a23" stroke="none" transform="matrix(1 0 0 1 687 705 )" />
  </g>
</svg>