<?xml version="1.0" encoding="utf-8"?>
<svg version="1.1" xmlns:xlink="http://www.w3.org/1999/xlink" width="19px" height="19px" viewBox="377 660.5  19 19" xmlns="http://www.w3.org/2000/svg">
  <path d="M 386.5 660.5  C 391.82 660.5  396 664.68  396 670  C 396 675.32  391.82 679.5  386.5 679.5  C 381.18 679.5  377 675.32  377 670  C 377 664.68  381.18 660.5  386.5 660.5  Z " fill-rule="nonzero" fill="#ffffff" stroke="none" />
  <path d="M 386.5 661  C 391.54 661  395.5 664.96  395.5 670  C 395.5 675.04  391.54 679  386.5 679  C 381.46 679  377.5 675.04  377.5 670  C 377.5 664.96  381.46 661  386.5 661  Z " stroke-width="1" stroke="#f59a23" fill="none" />
  <path d="M 386.5 674.75  C 383.84 674.75  381.75 672.66  381.75 670  C 381.75 667.34  383.84 665.25  386.5 665.25  C 389.16 665.25  391.25 667.34  391.25 670  C 391.25 672.66  389.16 674.75  386.5 674.75  " fill-rule="nonzero" fill="#f59a23" stroke="none" />
</svg>