<?xml version="1.0" encoding="utf-8"?>
<svg version="1.1" xmlns:xlink="http://www.w3.org/1999/xlink" width="25px" height="25px" xmlns="http://www.w3.org/2000/svg">
  <g transform="matrix(1 0 0 1 -1000 -800 )">
    <path d="M 18.391927083333336 16.927083333333332  C 18.59809027777778 16.72092013888889  18.701171875 16.471354166666668  18.701171875 16.178385416666668  C 18.701171875 15.89626736111111  18.59809027777778 15.65212673611111  18.391927083333336 15.445963541666668  L 15.445963541666666 12.5  L 18.391927083333336 9.554036458333334  C 18.59809027777778 9.347873263888888  18.701171875 9.103732638888888  18.701171875 8.821614583333334  C 18.701171875 8.528645833333334  18.59809027777778 8.279079861111107  18.391927083333336 8.072916666666666  L 16.927083333333336 6.608072916666666  C 16.720920138888893 6.401909722222221  16.471354166666664 6.298828125  16.178385416666664 6.298828125  C 15.896267361111112 6.298828125  15.652126736111112 6.401909722222221  15.445963541666666 6.608072916666666  L 12.5 9.554036458333334  L 9.554036458333332 6.608072916666666  C 9.34787326388889 6.401909722222221  9.10373263888889 6.298828125  8.821614583333332 6.298828125  C 8.528645833333332 6.298828125  8.279079861111112 6.401909722222221  8.072916666666668 6.608072916666666  L 6.608072916666667 8.072916666666666  C 6.401909722222222 8.279079861111107  6.298828125000002 8.528645833333334  6.298828125 8.821614583333334  C 6.298828125000002 9.103732638888888  6.401909722222222 9.347873263888888  6.608072916666667 9.554036458333334  L 9.554036458333332 12.5  L 6.608072916666667 15.445963541666668  C 6.401909722222222 15.65212673611111  6.298828125000002 15.89626736111111  6.298828125 16.178385416666668  C 6.298828125000002 16.471354166666668  6.401909722222222 16.72092013888889  6.608072916666667 16.927083333333332  L 8.072916666666668 18.391927083333332  C 8.279079861111112 18.598090277777775  8.528645833333332 18.701171875  8.821614583333332 18.701171875  C 9.10373263888889 18.701171875  9.34787326388889 18.598090277777775  9.554036458333332 18.391927083333332  L 12.5 15.445963541666668  L 15.445963541666666 18.391927083333332  C 15.652126736111112 18.598090277777775  15.896267361111112 18.701171875  16.178385416666664 18.701171875  C 16.471354166666664 18.701171875  16.720920138888893 18.598090277777775  16.927083333333336 18.391927083333332  L 18.391927083333336 16.927083333333332  Z M 23.323567708333336 6.2255859375  C 24.441189236111107 8.140733506944443  25 10.232204861111107  25 12.5  C 25 14.76779513888889  24.441189236111107 16.859266493055554  23.323567708333336 18.7744140625  C 22.205946180555557 20.689561631944446  20.689561631944446 22.205946180555554  18.7744140625 23.323567708333336  C 16.859266493055557 24.441189236111114  14.76779513888889 25  12.5 25  C 10.232204861111112 25  8.140733506944445 24.441189236111114  6.2255859375 23.323567708333336  C 4.310438368055556 22.205946180555554  2.7940538194444446 20.689561631944446  1.6764322916666667 18.7744140625  C 0.5588107638888888 16.859266493055554  0 14.76779513888889  0 12.5  C 0 10.232204861111107  0.5588107638888888 8.140733506944443  1.6764322916666667 6.2255859375  C 2.7940538194444446 4.310438368055555  4.310438368055556 2.794053819444442  6.2255859375 1.6764322916666656  C 8.140733506944445 0.5588107638888867  10.232204861111112 0  12.5 0  C 14.76779513888889 0  16.859266493055557 0.5588107638888867  18.7744140625 1.6764322916666656  C 20.689561631944446 2.794053819444442  22.205946180555557 4.310438368055555  23.323567708333336 6.2255859375  Z " fill-rule="nonzero" fill="#d9001b" stroke="none" transform="matrix(1 0 0 1 1000 800 )" />
  </g>
</svg>