<?xml version="1.0" encoding="utf-8"?>
<svg version="1.1" xmlns:xlink="http://www.w3.org/1999/xlink" width="19px" height="19px" viewBox="208 1042.5  19 19" xmlns="http://www.w3.org/2000/svg">
  <path d="M 217.5 1042.5  C 222.82 1042.5  227 1046.68  227 1052  C 227 1057.32  222.82 1061.5  217.5 1061.5  C 212.18 1061.5  208 1057.32  208 1052  C 208 1046.68  212.18 1042.5  217.5 1042.5  Z " fill-rule="nonzero" fill="#ffffff" stroke="none" />
  <path d="M 217.5 1043  C 222.54 1043  226.5 1046.96  226.5 1052  C 226.5 1057.04  222.54 1061  217.5 1061  C 212.46 1061  208.5 1057.04  208.5 1052  C 208.5 1046.96  212.46 1043  217.5 1043  Z " stroke-width="1" stroke="#333333" fill="none" />
  <path d="M 217.5 1056.75  C 214.84 1056.75  212.75 1054.66  212.75 1052  C 212.75 1049.34  214.84 1047.25  217.5 1047.25  C 220.16 1047.25  222.25 1049.34  222.25 1052  C 222.25 1054.66  220.16 1056.75  217.5 1056.75  " fill-rule="nonzero" fill="#333333" stroke="none" />
</svg>