<?xml version="1.0" encoding="utf-8"?>
<svg version="1.1" xmlns:xlink="http://www.w3.org/1999/xlink" width="19px" height="19px" viewBox="382 1042.5  19 19" xmlns="http://www.w3.org/2000/svg">
  <path d="M 391.5 1042.5  C 396.82 1042.5  401 1046.68  401 1052  C 401 1057.32  396.82 1061.5  391.5 1061.5  C 386.18 1061.5  382 1057.32  382 1052  C 382 1046.68  386.18 1042.5  391.5 1042.5  Z " fill-rule="nonzero" fill="#ffffff" stroke="none" />
  <path d="M 391.5 1043  C 396.54 1043  400.5 1046.96  400.5 1052  C 400.5 1057.04  396.54 1061  391.5 1061  C 386.46 1061  382.5 1057.04  382.5 1052  C 382.5 1046.96  386.46 1043  391.5 1043  Z " stroke-width="1" stroke="#f59a23" fill="none" />
  <path d="M 391.5 1056.75  C 388.84 1056.75  386.75 1054.66  386.75 1052  C 386.75 1049.34  388.84 1047.25  391.5 1047.25  C 394.16 1047.25  396.25 1049.34  396.25 1052  C 396.25 1054.66  394.16 1056.75  391.5 1056.75  " fill-rule="nonzero" fill="#f59a23" stroke="none" />
</svg>