<?xml version="1.0" encoding="utf-8"?>
<svg version="1.1" xmlns:xlink="http://www.w3.org/1999/xlink" width="19px" height="19px" viewBox="203 660.5  19 19" xmlns="http://www.w3.org/2000/svg">
  <path d="M 212.5 660.5  C 217.82 660.5  222 664.68  222 670  C 222 675.32  217.82 679.5  212.5 679.5  C 207.18 679.5  203 675.32  203 670  C 203 664.68  207.18 660.5  212.5 660.5  Z " fill-rule="nonzero" fill="#ffffff" stroke="none" />
  <path d="M 212.5 661  C 217.54 661  221.5 664.96  221.5 670  C 221.5 675.04  217.54 679  212.5 679  C 207.46 679  203.5 675.04  203.5 670  C 203.5 664.96  207.46 661  212.5 661  Z " stroke-width="1" stroke="#f59a23" fill="none" />
  <path d="M 212.5 674.75  C 209.84 674.75  207.75 672.66  207.75 670  C 207.75 667.34  209.84 665.25  212.5 665.25  C 215.16 665.25  217.25 667.34  217.25 670  C 217.25 672.66  215.16 674.75  212.5 674.75  " fill-rule="nonzero" fill="#f59a23" stroke="none" />
</svg>