<?xml version="1.0" encoding="utf-8"?>
<svg version="1.1" xmlns:xlink="http://www.w3.org/1999/xlink" width="9px" height="16px" xmlns="http://www.w3.org/2000/svg">
  <g transform="matrix(1 0 0 1 -713 -765 )">
    <path d="M 2.3268425464630127 0.4066166281700134  C 1.807471513748169 -0.1379041075706482  0.9327414631843567 -0.13790374994277954  0.399702787399292 0.42094647884368896  C 0.27299873530864716 0.5535138696432114  0.17247646301984784 0.7109787613153458  0.10389015078544615 0.8843274116516113  C 0.03530383855104446 1.057676061987877  0 1.2435044944286346  0 1.4311755895614624  C 0 1.6188466846942902  0.03530383855104446 1.804675117135048  0.10389015078544615 1.9780237674713135  C 0.17247646301984784 2.151372417807579  0.27299873530864716 2.308837428689003  0.399702787399292 2.4414048194885254  C 0.399702787399292 2.4414048194885254  5.702753543853759 8.001248359680176  5.702753543853759 8.001248359680176  C 5.702753543853759 8.001248359680176  0.399702787399292 13.561091423034668  0.399702787399292 13.561091423034668  C 0.14414814114570618 13.829020887613297  0.0005787316476926208 14.19240915775299  0.0005787316476926208 14.571318626403809  C 0.0005787316476926208 14.950228095054626  0.14414814114570618 15.313621133565903  0.399702787399292 15.581550598144531  C 0.6552574336528778 15.84948006272316  1.0018638372421265 15.999999999999995  1.3632726669311523 16  C 1.724681496620178 16  2.071287900209427 15.84948006272316  2.3268425464630127 15.581550598144531  C 2.3268425464630127 15.581550598144531  5.463570594787598 12.29293155670166  5.463570594787598 12.29293155670166  C 5.463570594787598 12.29293155670166  8.600298881530762 9.004312515258789  8.600298881530762 9.004312515258789  C 8.727002933621408 8.871745124459267  8.827524222433567 8.714280351996422  8.896110534667969 8.540931701660156  C 8.96469684690237 8.36758305132389  9 8.181754022836685  9 7.994082927703857  C 9 7.80641183257103  8.96469684690237 7.620583757758141  8.896110534667969 7.447235107421875  C 8.827524222433567 7.273886457085609  8.727002933621408 7.116421684622765  8.600298881530762 6.983854293823242  C 8.600298881530762 6.983854293823242  2.3268425464630127 0.4066166281700134  2.3268425464630127 0.4066166281700134  Z " fill-rule="nonzero" fill="#ffffff" stroke="none" transform="matrix(1 0 0 1 713 765 )" />
  </g>
</svg>