<?xml version="1.0" encoding="utf-8"?>
<svg version="1.1" xmlns:xlink="http://www.w3.org/1999/xlink" width="19px" height="19px" viewBox="237 363.5  19 19" xmlns="http://www.w3.org/2000/svg">
  <path d="M 246.5 363.5  C 251.82 363.5  256 367.68  256 373  C 256 378.32  251.82 382.5  246.5 382.5  C 241.18 382.5  237 378.32  237 373  C 237 367.68  241.18 363.5  246.5 363.5  Z " fill-rule="nonzero" fill="#f0f0f0" stroke="none" />
  <path d="M 246.5 364  C 251.54 364  255.5 367.96  255.5 373  C 255.5 378.04  251.54 382  246.5 382  C 241.46 382  237.5 378.04  237.5 373  C 237.5 367.96  241.46 364  246.5 364  Z " stroke-width="1" stroke="#f59a23" fill="none" />
  <path d="M 246.5 377.75  C 243.84 377.75  241.75 375.66  241.75 373  C 241.75 370.34  243.84 368.25  246.5 368.25  C 249.16 368.25  251.25 370.34  251.25 373  C 251.25 375.66  249.16 377.75  246.5 377.75  " fill-rule="nonzero" fill="#f59a23" stroke="none" />
</svg>