<?xml version="1.0" encoding="utf-8"?>
<svg version="1.1" xmlns:xlink="http://www.w3.org/1999/xlink" width="19px" height="19px" viewBox="430 363.5  19 19" xmlns="http://www.w3.org/2000/svg">
  <path d="M 439.5 363.5  C 444.82 363.5  449 367.68  449 373  C 449 378.32  444.82 382.5  439.5 382.5  C 434.18 382.5  430 378.32  430 373  C 430 367.68  434.18 363.5  439.5 363.5  Z " fill-rule="nonzero" fill="#ffffff" stroke="none" />
  <path d="M 439.5 364  C 444.54 364  448.5 367.96  448.5 373  C 448.5 378.04  444.54 382  439.5 382  C 434.46 382  430.5 378.04  430.5 373  C 430.5 367.96  434.46 364  439.5 364  Z " stroke-width="1" stroke="#f59a23" fill="none" />
  <path d="M 439.5 377.75  C 436.84 377.75  434.75 375.66  434.75 373  C 434.75 370.34  436.84 368.25  439.5 368.25  C 442.16 368.25  444.25 370.34  444.25 373  C 444.25 375.66  442.16 377.75  439.5 377.75  " fill-rule="nonzero" fill="#f59a23" stroke="none" />
</svg>