<?xml version="1.0" encoding="utf-8"?>
<svg version="1.1" xmlns:xlink="http://www.w3.org/1999/xlink" width="19px" height="19px" viewBox="237 295.5  19 19" xmlns="http://www.w3.org/2000/svg">
  <path d="M 246.5 295.5  C 251.82 295.5  256 299.68  256 305  C 256 310.32  251.82 314.5  246.5 314.5  C 241.18 314.5  237 310.32  237 305  C 237 299.68  241.18 295.5  246.5 295.5  Z " fill-rule="nonzero" fill="#f0f0f0" stroke="none" />
  <path d="M 246.5 296  C 251.54 296  255.5 299.96  255.5 305  C 255.5 310.04  251.54 314  246.5 314  C 241.46 314  237.5 310.04  237.5 305  C 237.5 299.96  241.46 296  246.5 296  Z " stroke-width="1" stroke="#f59a23" fill="none" />
  <path d="M 246.5 309.75  C 243.84 309.75  241.75 307.66  241.75 305  C 241.75 302.34  243.84 300.25  246.5 300.25  C 249.16 300.25  251.25 302.34  251.25 305  C 251.25 307.66  249.16 309.75  246.5 309.75  " fill-rule="nonzero" fill="#f59a23" stroke="none" />
</svg>