<?xml version="1.0" encoding="utf-8"?>
<svg version="1.1" xmlns:xlink="http://www.w3.org/1999/xlink" width="19px" height="19px" viewBox="643 182.5  19 19" xmlns="http://www.w3.org/2000/svg">
  <path d="M 652.5 182.5  C 657.82 182.5  662 186.68  662 192  C 662 197.32  657.82 201.5  652.5 201.5  C 647.18 201.5  643 197.32  643 192  C 643 186.68  647.18 182.5  652.5 182.5  Z " fill-rule="nonzero" fill="#ffffff" stroke="none" />
  <path d="M 652.5 183  C 657.54 183  661.5 186.96  661.5 192  C 661.5 197.04  657.54 201  652.5 201  C 647.46 201  643.5 197.04  643.5 192  C 643.5 186.96  647.46 183  652.5 183  Z " stroke-width="1" stroke="#f59a23" fill="none" />
  <path d="M 652.5 196.75  C 649.84 196.75  647.75 194.66  647.75 192  C 647.75 189.34  649.84 187.25  652.5 187.25  C 655.16 187.25  657.25 189.34  657.25 192  C 657.25 194.66  655.16 196.75  652.5 196.75  " fill-rule="nonzero" fill="#f59a23" stroke="none" />
</svg>