<?xml version="1.0" encoding="utf-8"?>
<svg version="1.1" xmlns:xlink="http://www.w3.org/1999/xlink" width="19px" height="19px" viewBox="247 182.5  19 19" xmlns="http://www.w3.org/2000/svg">
  <path d="M 256.5 182.5  C 261.82 182.5  266 186.68  266 192  C 266 197.32  261.82 201.5  256.5 201.5  C 251.18 201.5  247 197.32  247 192  C 247 186.68  251.18 182.5  256.5 182.5  Z " fill-rule="nonzero" fill="#ffffff" stroke="none" />
  <path d="M 256.5 183  C 261.54 183  265.5 186.96  265.5 192  C 265.5 197.04  261.54 201  256.5 201  C 251.46 201  247.5 197.04  247.5 192  C 247.5 186.96  251.46 183  256.5 183  Z " stroke-width="1" stroke="#f59a23" fill="none" />
  <path d="M 256.5 196.75  C 253.84 196.75  251.75 194.66  251.75 192  C 251.75 189.34  253.84 187.25  256.5 187.25  C 259.16 187.25  261.25 189.34  261.25 192  C 261.25 194.66  259.16 196.75  256.5 196.75  " fill-rule="nonzero" fill="#f59a23" stroke="none" />
</svg>