<?xml version="1.0" encoding="utf-8"?>
<svg version="1.1" xmlns:xlink="http://www.w3.org/1999/xlink" width="19px" height="19px" viewBox="385 296.5  19 19" xmlns="http://www.w3.org/2000/svg">
  <path d="M 394.5 296.5  C 399.82 296.5  404 300.68  404 306  C 404 311.32  399.82 315.5  394.5 315.5  C 389.18 315.5  385 311.32  385 306  C 385 300.68  389.18 296.5  394.5 296.5  Z " fill-rule="nonzero" fill="#ffffff" stroke="none" />
  <path d="M 394.5 297  C 399.54 297  403.5 300.96  403.5 306  C 403.5 311.04  399.54 315  394.5 315  C 389.46 315  385.5 311.04  385.5 306  C 385.5 300.96  389.46 297  394.5 297  Z " stroke-width="1" stroke="#f59a23" fill="none" />
  <path d="M 394.5 310.75  C 391.84 310.75  389.75 308.66  389.75 306  C 389.75 303.34  391.84 301.25  394.5 301.25  C 397.16 301.25  399.25 303.34  399.25 306  C 399.25 308.66  397.16 310.75  394.5 310.75  " fill-rule="nonzero" fill="#f59a23" stroke="none" />
</svg>