<?xml version="1.0" encoding="utf-8"?>
<svg version="1.1" xmlns:xlink="http://www.w3.org/1999/xlink" width="19px" height="19px" viewBox="511 182.5  19 19" xmlns="http://www.w3.org/2000/svg">
  <path d="M 520.5 182.5  C 525.82 182.5  530 186.68  530 192  C 530 197.32  525.82 201.5  520.5 201.5  C 515.18 201.5  511 197.32  511 192  C 511 186.68  515.18 182.5  520.5 182.5  Z " fill-rule="nonzero" fill="#ffffff" stroke="none" />
  <path d="M 520.5 183  C 525.54 183  529.5 186.96  529.5 192  C 529.5 197.04  525.54 201  520.5 201  C 515.46 201  511.5 197.04  511.5 192  C 511.5 186.96  515.46 183  520.5 183  Z " stroke-width="1" stroke="#f59a23" fill="none" />
  <path d="M 520.5 196.75  C 517.84 196.75  515.75 194.66  515.75 192  C 515.75 189.34  517.84 187.25  520.5 187.25  C 523.16 187.25  525.25 189.34  525.25 192  C 525.25 194.66  523.16 196.75  520.5 196.75  " fill-rule="nonzero" fill="#f59a23" stroke="none" />
</svg>