<?xml version="1.0" encoding="utf-8"?>
<svg version="1.1" xmlns:xlink="http://www.w3.org/1999/xlink" width="19px" height="19px" viewBox="247 253.5  19 19" xmlns="http://www.w3.org/2000/svg">
  <path d="M 256.5 253.5  C 261.82 253.5  266 257.68  266 263  C 266 268.32  261.82 272.5  256.5 272.5  C 251.18 272.5  247 268.32  247 263  C 247 257.68  251.18 253.5  256.5 253.5  Z " fill-rule="nonzero" fill="#f0f0f0" stroke="none" />
  <path d="M 256.5 254  C 261.54 254  265.5 257.96  265.5 263  C 265.5 268.04  261.54 272  256.5 272  C 251.46 272  247.5 268.04  247.5 263  C 247.5 257.96  251.46 254  256.5 254  Z " stroke-width="1" stroke="#f59a23" fill="none" />
  <path d="M 256.5 267.75  C 253.84 267.75  251.75 265.66  251.75 263  C 251.75 260.34  253.84 258.25  256.5 258.25  C 259.16 258.25  261.25 260.34  261.25 263  C 261.25 265.66  259.16 267.75  256.5 267.75  " fill-rule="nonzero" fill="#f59a23" stroke="none" />
</svg>