<?xml version="1.0" encoding="utf-8"?>
<svg version="1.1" xmlns:xlink="http://www.w3.org/1999/xlink" width="19px" height="19px" viewBox="920 234.5  19 19" xmlns="http://www.w3.org/2000/svg">
  <path d="M 929.5 234.5  C 934.82 234.5  939 238.68  939 244  C 939 249.32  934.82 253.5  929.5 253.5  C 924.18 253.5  920 249.32  920 244  C 920 238.68  924.18 234.5  929.5 234.5  Z " fill-rule="nonzero" fill="#f0f0f0" stroke="none" />
  <path d="M 929.5 235  C 934.54 235  938.5 238.96  938.5 244  C 938.5 249.04  934.54 253  929.5 253  C 924.46 253  920.5 249.04  920.5 244  C 920.5 238.96  924.46 235  929.5 235  Z " stroke-width="1" stroke="#f59a23" fill="none" />
  <path d="M 929.5 248.75  C 926.84 248.75  924.75 246.66  924.75 244  C 924.75 241.34  926.84 239.25  929.5 239.25  C 932.16 239.25  934.25 241.34  934.25 244  C 934.25 246.66  932.16 248.75  929.5 248.75  " fill-rule="nonzero" fill="#f59a23" stroke="none" />
</svg>