<?xml version="1.0" encoding="utf-8"?>
<svg version="1.1" xmlns:xlink="http://www.w3.org/1999/xlink" width="19px" height="19px" viewBox="324 363.5  19 19" xmlns="http://www.w3.org/2000/svg">
  <path d="M 333.5 363.5  C 338.82 363.5  343 367.68  343 373  C 343 378.32  338.82 382.5  333.5 382.5  C 328.18 382.5  324 378.32  324 373  C 324 367.68  328.18 363.5  333.5 363.5  Z " fill-rule="nonzero" fill="#ffffff" stroke="none" />
  <path d="M 333.5 364  C 338.54 364  342.5 367.96  342.5 373  C 342.5 378.04  338.54 382  333.5 382  C 328.46 382  324.5 378.04  324.5 373  C 324.5 367.96  328.46 364  333.5 364  Z " stroke-width="1" stroke="#f59a23" fill="none" />
  <path d="M 333.5 377.75  C 330.84 377.75  328.75 375.66  328.75 373  C 328.75 370.34  330.84 368.25  333.5 368.25  C 336.16 368.25  338.25 370.34  338.25 373  C 338.25 375.66  336.16 377.75  333.5 377.75  " fill-rule="nonzero" fill="#f59a23" stroke="none" />
</svg>