<?xml version="1.0" encoding="utf-8"?>
<svg version="1.1" xmlns:xlink="http://www.w3.org/1999/xlink" width="19px" height="19px" viewBox="237 296.5  19 19" xmlns="http://www.w3.org/2000/svg">
  <path d="M 246.5 296.5  C 251.82 296.5  256 300.68  256 306  C 256 311.32  251.82 315.5  246.5 315.5  C 241.18 315.5  237 311.32  237 306  C 237 300.68  241.18 296.5  246.5 296.5  Z " fill-rule="nonzero" fill="#ffffff" stroke="none" />
  <path d="M 246.5 297  C 251.54 297  255.5 300.96  255.5 306  C 255.5 311.04  251.54 315  246.5 315  C 241.46 315  237.5 311.04  237.5 306  C 237.5 300.96  241.46 297  246.5 297  Z " stroke-width="1" stroke="#f59a23" fill="none" />
  <path d="M 246.5 310.75  C 243.84 310.75  241.75 308.66  241.75 306  C 241.75 303.34  243.84 301.25  246.5 301.25  C 249.16 301.25  251.25 303.34  251.25 306  C 251.25 308.66  249.16 310.75  246.5 310.75  " fill-rule="nonzero" fill="#f59a23" stroke="none" />
</svg>