<?xml version="1.0" encoding="utf-8"?>
<svg version="1.1" xmlns:xlink="http://www.w3.org/1999/xlink" width="19px" height="19px" viewBox="442 253.5  19 19" xmlns="http://www.w3.org/2000/svg">
  <path d="M 451.5 253.5  C 456.82 253.5  461 257.68  461 263  C 461 268.32  456.82 272.5  451.5 272.5  C 446.18 272.5  442 268.32  442 263  C 442 257.68  446.18 253.5  451.5 253.5  Z " fill-rule="nonzero" fill="#ffffff" stroke="none" />
  <path d="M 451.5 254  C 456.54 254  460.5 257.96  460.5 263  C 460.5 268.04  456.54 272  451.5 272  C 446.46 272  442.5 268.04  442.5 263  C 442.5 257.96  446.46 254  451.5 254  Z " stroke-width="1" stroke="#f59a23" fill="none" />
  <path d="M 451.5 267.75  C 448.84 267.75  446.75 265.66  446.75 263  C 446.75 260.34  448.84 258.25  451.5 258.25  C 454.16 258.25  456.25 260.34  456.25 263  C 456.25 265.66  454.16 267.75  451.5 267.75  " fill-rule="nonzero" fill="#f59a23" stroke="none" />
</svg>