<?xml version="1.0" encoding="utf-8"?>
<svg version="1.1" xmlns:xlink="http://www.w3.org/1999/xlink" width="19px" height="19px" viewBox="379 182.5  19 19" xmlns="http://www.w3.org/2000/svg">
  <path d="M 388.5 182.5  C 393.82 182.5  398 186.68  398 192  C 398 197.32  393.82 201.5  388.5 201.5  C 383.18 201.5  379 197.32  379 192  C 379 186.68  383.18 182.5  388.5 182.5  Z " fill-rule="nonzero" fill="#ffffff" stroke="none" />
  <path d="M 388.5 183  C 393.54 183  397.5 186.96  397.5 192  C 397.5 197.04  393.54 201  388.5 201  C 383.46 201  379.5 197.04  379.5 192  C 379.5 186.96  383.46 183  388.5 183  Z " stroke-width="1" stroke="#f59a23" fill="none" />
  <path d="M 388.5 196.75  C 385.84 196.75  383.75 194.66  383.75 192  C 383.75 189.34  385.84 187.25  388.5 187.25  C 391.16 187.25  393.25 189.34  393.25 192  C 393.25 194.66  391.16 196.75  388.5 196.75  " fill-rule="nonzero" fill="#f59a23" stroke="none" />
</svg>