<?xml version="1.0" encoding="utf-8"?>
<svg version="1.1" xmlns:xlink="http://www.w3.org/1999/xlink" width="19px" height="19px" viewBox="725 234.5  19 19" xmlns="http://www.w3.org/2000/svg">
  <path d="M 734.5 234.5  C 739.82 234.5  744 238.68  744 244  C 744 249.32  739.82 253.5  734.5 253.5  C 729.18 253.5  725 249.32  725 244  C 725 238.68  729.18 234.5  734.5 234.5  Z " fill-rule="nonzero" fill="#ffffff" stroke="none" />
  <path d="M 734.5 235  C 739.54 235  743.5 238.96  743.5 244  C 743.5 249.04  739.54 253  734.5 253  C 729.46 253  725.5 249.04  725.5 244  C 725.5 238.96  729.46 235  734.5 235  Z " stroke-width="1" stroke="#333333" fill="none" />
  <path d="M 734.5 248.75  C 731.84 248.75  729.75 246.66  729.75 244  C 729.75 241.34  731.84 239.25  734.5 239.25  C 737.16 239.25  739.25 241.34  739.25 244  C 739.25 246.66  737.16 248.75  734.5 248.75  " fill-rule="nonzero" fill="#333333" stroke="none" />
</svg>