<?xml version="1.0" encoding="utf-8"?>
<svg version="1.1" xmlns:xlink="http://www.w3.org/1999/xlink" width="19px" height="19px" viewBox="814 234.5  19 19" xmlns="http://www.w3.org/2000/svg">
  <path d="M 823.5 234.5  C 828.82 234.5  833 238.68  833 244  C 833 249.32  828.82 253.5  823.5 253.5  C 818.18 253.5  814 249.32  814 244  C 814 238.68  818.18 234.5  823.5 234.5  Z " fill-rule="nonzero" fill="#ffffff" stroke="none" />
  <path d="M 823.5 235  C 828.54 235  832.5 238.96  832.5 244  C 832.5 249.04  828.54 253  823.5 253  C 818.46 253  814.5 249.04  814.5 244  C 814.5 238.96  818.46 235  823.5 235  Z " stroke-width="1" stroke="#f59a23" fill="none" />
  <path d="M 823.5 248.75  C 820.84 248.75  818.75 246.66  818.75 244  C 818.75 241.34  820.84 239.25  823.5 239.25  C 826.16 239.25  828.25 241.34  828.25 244  C 828.25 246.66  826.16 248.75  823.5 248.75  " fill-rule="nonzero" fill="#f59a23" stroke="none" />
</svg>