<?xml version="1.0" encoding="utf-8"?>
<svg version="1.1" xmlns:xlink="http://www.w3.org/1999/xlink" width="18px" height="24px" xmlns="http://www.w3.org/2000/svg">
  <g transform="matrix(1 0 0 1 -2325 -130 )">
    <path d="M 17.465625 3.6830357142857135  C 17.821875000000002 3.8526785714285694  18 4.053571428571426  18 4.2857142857142865  C 18 4.5178571428571415  17.821875000000002 4.718749999999998  17.465625 4.888392857142857  C 17.109375 5.058035714285713  16.6875 5.142857142857143  16.2 5.142857142857143  L 12.6 5.142857142857143  L 12.6 18.857142857142858  L 16.2 18.857142857142858  C 16.6875 18.857142857142858  17.109375 18.941964285714285  17.465625 19.111607142857142  C 17.821875000000002 19.28125  18 19.482142857142858  18 19.714285714285715  C 18 19.94642857142857  17.821875000000002 20.147321428571427  17.465625 20.316964285714285  L 10.265625 23.745535714285715  C 9.909375 23.915178571428573  9.4875 24  9 24  C 8.512500000000001 24  8.090625000000001 23.915178571428573  7.734375 23.745535714285715  L 0.5343749999999999 20.316964285714285  C 0.17812500000000028 20.147321428571427  0 19.94642857142857  0 19.714285714285715  C 0 19.482142857142858  0.17812500000000028 19.28125  0.5343749999999999 19.111607142857142  C 0.8906250000000006 18.941964285714285  1.3125000000000007 18.857142857142858  1.8 18.857142857142858  L 5.3999999999999995 18.857142857142858  L 5.3999999999999995 5.142857142857143  L 1.8 5.142857142857143  C 1.3125000000000007 5.142857142857143  0.8906250000000006 5.058035714285713  0.5343749999999999 4.888392857142857  C 0.17812500000000028 4.718749999999998  0 4.5178571428571415  0 4.2857142857142865  C 0 4.053571428571426  0.17812500000000028 3.8526785714285694  0.5343749999999999 3.6830357142857135  L 7.734375 0.2544642857142865  C 8.090625000000001 0.0848214285714306  8.512500000000001 0  9 0  C 9.4875 0  9.909375 0.0848214285714306  10.265625 0.2544642857142865  L 17.465625 3.6830357142857135  Z " fill-rule="nonzero" fill="#d9001b" stroke="none" transform="matrix(1 0 0 1 2325 130 )" />
  </g>
</svg>