<?xml version="1.0" encoding="utf-8"?>
<svg version="1.1" xmlns:xlink="http://www.w3.org/1999/xlink" width="27px" height="18px" xmlns="http://www.w3.org/2000/svg">
  <g transform="matrix(1 0 0 1 -2305 -164 )">
    <path d="M 26.713727678571427 7.734375  C 26.904575892857142 8.090625  27 8.5125  27 9  C 27 9.487499999999999  26.904575892857142 9.909374999999999  26.713727678571427 10.265625  L 22.856584821428573 17.465625  C 22.66573660714286 17.821874999999995  22.439732142857146 18  22.178571428571427 18  C 21.917410714285715 18  21.691406250000004 17.821874999999995  21.500558035714285 17.465625  C 21.309709821428573 17.109375  21.214285714285715 16.6875  21.214285714285715 16.2  L 21.214285714285715 12.6  L 5.785714285714286 12.6  L 5.785714285714286 16.2  C 5.785714285714286 16.6875  5.690290178571428 17.109375  5.499441964285714 17.465625  C 5.30859375 17.821874999999995  5.0825892857142865 18  4.821428571428571 18  C 4.560267857142858 18  4.334263392857143 17.821874999999995  4.143415178571429 17.465625  L 0.28627232142857145 10.265625  C 0.09542410714285714 9.909374999999999  0 9.487499999999999  0 9  C 0 8.5125  0.09542410714285714 8.090625  0.28627232142857145 7.734375  L 4.143415178571429 0.5343749999999996  C 4.334263392857143 0.17812499999999787  4.560267857142858 0  4.821428571428571 0  C 5.0825892857142865 0  5.30859375 0.17812499999999787  5.499441964285714 0.5343749999999996  C 5.690290178571428 0.8906249999999993  5.785714285714286 1.3124999999999993  5.785714285714286 1.7999999999999996  L 5.785714285714286 5.4  L 21.214285714285715 5.4  L 21.214285714285715 1.7999999999999996  C 21.214285714285715 1.3124999999999993  21.309709821428573 0.8906249999999993  21.500558035714285 0.5343749999999996  C 21.691406250000004 0.17812499999999787  21.917410714285715 0  22.178571428571427 0  C 22.439732142857146 0  22.66573660714286 0.17812499999999787  22.856584821428573 0.5343749999999996  L 26.713727678571427 7.734375  Z " fill-rule="nonzero" fill="#d9001b" stroke="none" transform="matrix(1 0 0 1 2305 164 )" />
  </g>
</svg>