<?xml version="1.0" encoding="utf-8"?>
<svg version="1.1" xmlns:xlink="http://www.w3.org/1999/xlink" width="18px" height="56px" xmlns="http://www.w3.org/2000/svg">
  <g transform="matrix(1 0 0 1 -2724 -130 )">
    <path d="M 17.465625 8.593749999999998  C 17.821875000000002 8.989583333333329  18 9.458333333333329  18 10.000000000000002  C 18 10.541666666666664  17.821875000000002 11.010416666666663  17.465625 11.40625  C 17.109375 11.802083333333329  16.6875 12  16.2 12  L 12.6 12  L 12.6 44  L 16.2 44  C 16.6875 44  17.109375 44.197916666666664  17.465625 44.59375  C 17.821875000000002 44.989583333333336  18 45.458333333333336  18 46  C 18 46.541666666666664  17.821875000000002 47.010416666666664  17.465625 47.40625  L 10.265625 55.40625  C 9.909375 55.802083333333336  9.4875 56  9 56  C 8.512500000000001 56  8.090625000000001 55.802083333333336  7.734375 55.40625  L 0.5343749999999999 47.40625  C 0.17812500000000028 47.010416666666664  0 46.541666666666664  0 46  C 0 45.458333333333336  0.17812500000000028 44.989583333333336  0.5343749999999999 44.59375  C 0.8906250000000006 44.197916666666664  1.3125000000000007 44  1.8 44  L 5.3999999999999995 44  L 5.3999999999999995 12  L 1.8 12  C 1.3125000000000007 12  0.8906250000000006 11.802083333333329  0.5343749999999999 11.40625  C 0.17812500000000028 11.010416666666663  0 10.541666666666664  0 10.000000000000002  C 0 9.458333333333329  0.17812500000000028 8.989583333333329  0.5343749999999999 8.593749999999998  L 7.734375 0.5937500000000018  C 8.090625000000001 0.1979166666666714  8.512500000000001 0  9 0  C 9.4875 0  9.909375 0.1979166666666714  10.265625 0.5937500000000018  L 17.465625 8.593749999999998  Z " fill-rule="nonzero" fill="#d9001b" stroke="none" transform="matrix(1 0 0 1 2724 130 )" />
  </g>
</svg>