<?xml version="1.0" encoding="utf-8"?>
<svg version="1.1" xmlns:xlink="http://www.w3.org/1999/xlink" width="7px" height="23px" xmlns="http://www.w3.org/2000/svg">
  <g transform="matrix(1 0 0 1 -2773 -272 )">
    <path d="M 6.7921875 3.5295758928571423  C 6.9307291666666675 3.6921502976190457  7 3.884672619047617  7 4.107142857142858  C 7 4.329613095238094  6.9307291666666675 4.522135416666665  6.7921875 4.684709821428571  C 6.653645833333334 4.8472842261904745  6.489583333333334 4.928571428571429  6.3 4.928571428571429  L 4.8999999999999995 4.928571428571429  L 4.8999999999999995 18.07142857142857  L 6.3 18.07142857142857  C 6.489583333333334 18.07142857142857  6.653645833333334 18.152715773809522  6.7921875 18.31529017857143  C 6.9307291666666675 18.477864583333336  7 18.670386904761905  7 18.892857142857142  C 7 19.11532738095238  6.9307291666666675 19.307849702380953  6.7921875 19.470424107142858  L 3.9921875 22.756138392857142  C 3.853645833333333 22.918712797619047  3.689583333333333 23  3.5 23  C 3.310416666666667 23  3.146354166666667 22.918712797619047  3.0078125 22.756138392857142  L 0.20781249999999998 19.470424107142858  C 0.06927083333333343 19.307849702380953  0 19.11532738095238  0 18.892857142857142  C 0 18.670386904761905  0.06927083333333343 18.477864583333336  0.20781249999999998 18.31529017857143  C 0.3463541666666669 18.152715773809522  0.5104166666666669 18.07142857142857  0.7000000000000001 18.07142857142857  L 2.1 18.07142857142857  L 2.1 4.928571428571429  L 0.7000000000000001 4.928571428571429  C 0.5104166666666669 4.928571428571429  0.3463541666666669 4.8472842261904745  0.20781249999999998 4.684709821428571  C 0.06927083333333343 4.522135416666665  0 4.329613095238094  0 4.107142857142858  C 0 3.884672619047617  0.06927083333333343 3.6921502976190457  0.20781249999999998 3.5295758928571423  L 3.0078125 0.24386160714285787  C 3.146354166666667 0.08128720238095433  3.310416666666667 0  3.5 0  C 3.689583333333333 0  3.853645833333333 0.08128720238095433  3.9921875 0.24386160714285787  L 6.7921875 3.5295758928571423  Z " fill-rule="nonzero" fill="#d9001b" stroke="none" transform="matrix(1 0 0 1 2773 272 )" />
  </g>
</svg>