<?xml version="1.0" encoding="utf-8"?>
<svg version="1.1" xmlns:xlink="http://www.w3.org/1999/xlink" width="7px" height="32px" xmlns="http://www.w3.org/2000/svg">
  <g transform="matrix(1 0 0 1 -2501 -186 )">
    <path d="M 6.7921875 4.910714285714285  C 6.9307291666666675 5.136904761904759  7 5.4047619047619015  7 5.714285714285715  C 7 6.023809523809522  6.9307291666666675 6.291666666666664  6.7921875 6.517857142857142  C 6.653645833333334 6.744047619047617  6.489583333333334 6.857142857142858  6.3 6.857142857142858  L 4.8999999999999995 6.857142857142858  L 4.8999999999999995 25.142857142857142  L 6.3 25.142857142857142  C 6.489583333333334 25.142857142857142  6.653645833333334 25.25595238095238  6.7921875 25.482142857142858  C 6.9307291666666675 25.708333333333336  7 25.976190476190478  7 26.285714285714285  C 7 26.595238095238095  6.9307291666666675 26.863095238095237  6.7921875 27.089285714285715  L 3.9921875 31.660714285714285  C 3.853645833333333 31.886904761904763  3.689583333333333 32  3.5 32  C 3.310416666666667 32  3.146354166666667 31.886904761904763  3.0078125 31.660714285714285  L 0.20781249999999998 27.089285714285715  C 0.06927083333333343 26.863095238095237  0 26.595238095238095  0 26.285714285714285  C 0 25.976190476190478  0.06927083333333343 25.708333333333336  0.20781249999999998 25.482142857142858  C 0.3463541666666669 25.25595238095238  0.5104166666666669 25.142857142857142  0.7000000000000001 25.142857142857142  L 2.1 25.142857142857142  L 2.1 6.857142857142858  L 0.7000000000000001 6.857142857142858  C 0.5104166666666669 6.857142857142858  0.3463541666666669 6.744047619047617  0.20781249999999998 6.517857142857142  C 0.06927083333333343 6.291666666666664  0 6.023809523809522  0 5.714285714285715  C 0 5.4047619047619015  0.06927083333333343 5.136904761904759  0.20781249999999998 4.910714285714285  L 3.0078125 0.3392857142857153  C 3.146354166666667 0.1130952380952408  3.310416666666667 0  3.5 0  C 3.689583333333333 0  3.853645833333333 0.1130952380952408  3.9921875 0.3392857142857153  L 6.7921875 4.910714285714285  Z " fill-rule="nonzero" fill="#d9001b" stroke="none" transform="matrix(1 0 0 1 2501 186 )" />
  </g>
</svg>