<?xml version="1.0" encoding="utf-8"?>
<svg version="1.1" xmlns:xlink="http://www.w3.org/1999/xlink" width="7px" height="28px" xmlns="http://www.w3.org/2000/svg">
  <g transform="matrix(1 0 0 1 -2788 -444 )">
    <path d="M 6.7921875 4.296874999999999  C 6.9307291666666675 4.494791666666664  7 4.729166666666664  7 5.000000000000001  C 7 5.270833333333332  6.9307291666666675 5.505208333333331  6.7921875 5.703125  C 6.653645833333334 5.901041666666664  6.489583333333334 6  6.3 6  L 4.8999999999999995 6  L 4.8999999999999995 22  L 6.3 22  C 6.489583333333334 22  6.653645833333334 22.098958333333332  6.7921875 22.296875  C 6.9307291666666675 22.494791666666668  7 22.729166666666668  7 23  C 7 23.270833333333332  6.9307291666666675 23.505208333333332  6.7921875 23.703125  L 3.9921875 27.703125  C 3.853645833333333 27.901041666666668  3.689583333333333 28  3.5 28  C 3.310416666666667 28  3.146354166666667 27.901041666666668  3.0078125 27.703125  L 0.20781249999999998 23.703125  C 0.06927083333333343 23.505208333333332  0 23.270833333333332  0 23  C 0 22.729166666666668  0.06927083333333343 22.494791666666668  0.20781249999999998 22.296875  C 0.3463541666666669 22.098958333333332  0.5104166666666669 22  0.7000000000000001 22  L 2.1 22  L 2.1 6  L 0.7000000000000001 6  C 0.5104166666666669 6  0.3463541666666669 5.901041666666664  0.20781249999999998 5.703125  C 0.06927083333333343 5.505208333333331  0 5.270833333333332  0 5.000000000000001  C 0 4.729166666666664  0.06927083333333343 4.494791666666664  0.20781249999999998 4.296874999999999  L 3.0078125 0.2968750000000009  C 3.146354166666667 0.0989583333333357  3.310416666666667 0  3.5 0  C 3.689583333333333 0  3.853645833333333 0.0989583333333357  3.9921875 0.2968750000000009  L 6.7921875 4.296874999999999  Z " fill-rule="nonzero" fill="#d9001b" stroke="none" transform="matrix(1 0 0 1 2788 444 )" />
  </g>
</svg>