<?xml version="1.0" encoding="utf-8"?>
<svg version="1.1" xmlns:xlink="http://www.w3.org/1999/xlink" width="7px" height="10px" xmlns="http://www.w3.org/2000/svg">
  <g transform="matrix(1 0 0 1 -2314 -295 )">
    <path d="M 6.7921875 1.534598214285714  C 6.9307291666666675 1.6052827380952372  7 1.6889880952380942  7 1.785714285714286  C 7 1.8824404761904756  6.9307291666666675 1.9661458333333326  6.7921875 2.0368303571428568  C 6.653645833333334 2.1075148809523805  6.489583333333334 2.1428571428571432  6.3 2.1428571428571432  L 4.8999999999999995 2.1428571428571432  L 4.8999999999999995 7.857142857142857  L 6.3 7.857142857142857  C 6.489583333333334 7.857142857142857  6.653645833333334 7.892485119047619  6.7921875 7.963169642857143  C 6.9307291666666675 8.033854166666668  7 8.117559523809524  7 8.214285714285714  C 7 8.311011904761905  6.9307291666666675 8.394717261904761  6.7921875 8.465401785714286  L 3.9921875 9.893973214285714  C 3.853645833333333 9.964657738095239  3.689583333333333 10  3.5 10  C 3.310416666666667 10  3.146354166666667 9.964657738095239  3.0078125 9.893973214285714  L 0.20781249999999998 8.465401785714286  C 0.06927083333333343 8.394717261904761  0 8.311011904761905  0 8.214285714285714  C 0 8.117559523809524  0.06927083333333343 8.033854166666668  0.20781249999999998 7.963169642857143  C 0.3463541666666669 7.892485119047619  0.5104166666666669 7.857142857142857  0.7000000000000001 7.857142857142857  L 2.1 7.857142857142857  L 2.1 2.1428571428571432  L 0.7000000000000001 2.1428571428571432  C 0.5104166666666669 2.1428571428571432  0.3463541666666669 2.1075148809523805  0.20781249999999998 2.0368303571428568  C 0.06927083333333343 1.9661458333333326  0 1.8824404761904756  0 1.785714285714286  C 0 1.6889880952380942  0.06927083333333343 1.6052827380952372  0.20781249999999998 1.534598214285714  L 3.0078125 0.10602678571428603  C 3.146354166666667 0.03534226190476275  3.310416666666667 0  3.5 0  C 3.689583333333333 0  3.853645833333333 0.03534226190476275  3.9921875 0.10602678571428603  L 6.7921875 1.534598214285714  Z " fill-rule="nonzero" fill="#d9001b" stroke="none" transform="matrix(1 0 0 1 2314 295 )" />
  </g>
</svg>