<?xml version="1.0" encoding="utf-8"?>
<svg version="1.1" xmlns:xlink="http://www.w3.org/1999/xlink" width="18px" height="45px" xmlns="http://www.w3.org/2000/svg">
  <g transform="matrix(1 0 0 1 -184 -154 )">
    <path d="M 17.465625 6.905691964285713  C 17.821875000000002 7.223772321428568  18 7.600446428571424  18 8.035714285714286  C 18 8.47098214285714  17.821875000000002 8.847656249999996  17.465625 9.165736607142856  C 17.109375 9.483816964285712  16.6875 9.642857142857144  16.2 9.642857142857144  L 12.6 9.642857142857144  L 12.6 35.357142857142854  L 16.2 35.357142857142854  C 16.6875 35.357142857142854  17.109375 35.516183035714285  17.465625 35.834263392857146  C 17.821875000000002 36.15234375  18 36.52901785714286  18 36.964285714285715  C 18 37.39955357142857  17.821875000000002 37.77622767857143  17.465625 38.094308035714285  L 10.265625 44.522879464285715  C 9.909375 44.84095982142857  9.4875 45  9 45  C 8.512500000000001 45  8.090625000000001 44.84095982142857  7.734375 44.522879464285715  L 0.5343749999999999 38.094308035714285  C 0.17812500000000028 37.77622767857143  0 37.39955357142857  0 36.964285714285715  C 0 36.52901785714286  0.17812500000000028 36.15234375  0.5343749999999999 35.834263392857146  C 0.8906250000000006 35.516183035714285  1.3125000000000007 35.357142857142854  1.8 35.357142857142854  L 5.3999999999999995 35.357142857142854  L 5.3999999999999995 9.642857142857144  L 1.8 9.642857142857144  C 1.3125000000000007 9.642857142857144  0.8906250000000006 9.483816964285712  0.5343749999999999 9.165736607142856  C 0.17812500000000028 8.847656249999996  0 8.47098214285714  0 8.035714285714286  C 0 7.600446428571424  0.17812500000000028 7.223772321428568  0.5343749999999999 6.905691964285713  L 7.734375 0.47712053571428714  C 8.090625000000001 0.15904017857143238  8.512500000000001 0  9 0  C 9.4875 0  9.909375 0.15904017857143238  10.265625 0.47712053571428714  L 17.465625 6.905691964285713  Z " fill-rule="nonzero" fill="#d9001b" stroke="none" transform="matrix(1 0 0 1 184 154 )" />
  </g>
</svg>