<?xml version="1.0" encoding="utf-8"?>
<svg version="1.1" xmlns:xlink="http://www.w3.org/1999/xlink" width="46px" height="18px" xmlns="http://www.w3.org/2000/svg">
  <g transform="matrix(1 0 0 1 -88 -210 )">
    <path d="M 45.512276785714285 7.734375  C 45.837425595238095 8.090625  46 8.5125  46 9  C 46 9.487499999999999  45.837425595238095 9.909374999999999  45.512276785714285 10.265625  L 38.940848214285715 17.465625  C 38.61569940476191 17.821874999999995  38.230654761904766 18  37.785714285714285 18  C 37.34077380952381 18  36.95572916666667 17.821874999999995  36.63058035714286 17.465625  C 36.30543154761905 17.109375  36.14285714285714 16.6875  36.14285714285714 16.2  L 36.14285714285714 12.6  L 9.857142857142856 12.6  L 9.857142857142856 16.2  C 9.857142857142856 16.6875  9.694568452380953 17.109375  9.369419642857144 17.465625  C 9.044270833333334 17.821874999999995  8.659226190476192 18  8.214285714285715 18  C 7.769345238095239 18  7.384300595238095 17.821874999999995  7.059151785714286 17.465625  L 0.4877232142857143 10.265625  C 0.16257440476190477 9.909374999999999  0 9.487499999999999  0 9  C 0 8.5125  0.16257440476190477 8.090625  0.4877232142857143 7.734375  L 7.059151785714286 0.5343749999999996  C 7.384300595238095 0.17812499999999787  7.769345238095239 0  8.214285714285715 0  C 8.659226190476192 0  9.044270833333334 0.17812499999999787  9.369419642857144 0.5343749999999996  C 9.694568452380953 0.8906249999999993  9.857142857142856 1.3124999999999993  9.857142857142856 1.7999999999999996  L 9.857142857142856 5.4  L 36.14285714285714 5.4  L 36.14285714285714 1.7999999999999996  C 36.14285714285714 1.3124999999999993  36.30543154761905 0.8906249999999993  36.63058035714286 0.5343749999999996  C 36.95572916666667 0.17812499999999787  37.34077380952381 0  37.785714285714285 0  C 38.230654761904766 0  38.61569940476191 0.17812499999999787  38.940848214285715 0.5343749999999996  L 45.512276785714285 7.734375  Z " fill-rule="nonzero" fill="#d9001b" stroke="none" transform="matrix(1 0 0 1 88 210 )" />
  </g>
</svg>