<?xml version="1.0" encoding="utf-8"?>
<svg version="1.1" xmlns:xlink="http://www.w3.org/1999/xlink" width="18px" height="122px" xmlns="http://www.w3.org/2000/svg">
  <g transform="matrix(1 0 0 1 -625 -149 )">
    <path d="M 17.465625 18.72209821428571  C 17.821875000000002 19.584449404761894  18 20.60565476190475  18 21.78571428571429  C 18 22.965773809523803  17.821875000000002 23.986979166666657  17.465625 24.849330357142854  C 17.109375 25.71168154761904  16.6875 26.142857142857146  16.2 26.142857142857146  L 12.6 26.142857142857146  L 12.6 95.85714285714286  L 16.2 95.85714285714286  C 16.6875 95.85714285714286  17.109375 96.28831845238095  17.465625 97.15066964285714  C 17.821875000000002 98.01302083333334  18 99.0342261904762  18 100.21428571428571  C 18 101.39434523809524  17.821875000000002 102.41555059523809  17.465625 103.27790178571429  L 10.265625 120.70647321428571  C 9.909375 121.56882440476191  9.4875 122  9 122  C 8.512500000000001 122  8.090625000000001 121.56882440476191  7.734375 120.70647321428571  L 0.5343749999999999 103.27790178571429  C 0.17812500000000028 102.41555059523809  0 101.39434523809524  0 100.21428571428571  C 0 99.0342261904762  0.17812500000000028 98.01302083333334  0.5343749999999999 97.15066964285714  C 0.8906250000000006 96.28831845238095  1.3125000000000007 95.85714285714286  1.8 95.85714285714286  L 5.3999999999999995 95.85714285714286  L 5.3999999999999995 26.142857142857146  L 1.8 26.142857142857146  C 1.3125000000000007 26.142857142857146  0.8906250000000006 25.71168154761904  0.5343749999999999 24.849330357142854  C 0.17812500000000028 23.986979166666657  0 22.965773809523803  0 21.78571428571429  C 0 20.60565476190475  0.17812500000000028 19.584449404761894  0.5343749999999999 18.72209821428571  L 7.734375 1.2935267857142896  C 8.090625000000001 0.43117559523810556  8.512500000000001 0  9 0  C 9.4875 0  9.909375 0.43117559523810556  10.265625 1.2935267857142896  L 17.465625 18.72209821428571  Z " fill-rule="nonzero" fill="#d9001b" stroke="none" transform="matrix(1 0 0 1 625 149 )" />
  </g>
</svg>