<?xml version="1.0" encoding="utf-8"?>
<svg version="1.1" xmlns:xlink="http://www.w3.org/1999/xlink" width="22px" height="34px" xmlns="http://www.w3.org/2000/svg">
  <g transform="matrix(1 0 0 1 -1821 -827 )">
    <path d="M 21.346875 5.217633928571427  C 21.78229166666667 5.457961309523807  22 5.74255952380952  22 6.071428571428573  C 22 6.400297619047617  21.78229166666667 6.68489583333333  21.346875 6.9252232142857135  C 20.911458333333336 7.165550595238093  20.395833333333336 7.2857142857142865  19.8 7.2857142857142865  L 15 7.2857142857142865  L 15 26.714285714285715  L 19.8 26.714285714285715  C 20.395833333333336 26.714285714285715  20.911458333333336 26.834449404761905  21.346875 27.074776785714285  C 21.78229166666667 27.315104166666668  22 27.599702380952383  22 27.928571428571427  C 22 28.257440476190474  21.78229166666667 28.54203869047619  21.346875 28.782366071428573  L 12.546875 33.63950892857143  C 12.111458333333333 33.87983630952381  11.595833333333333 34  11 34  C 10.404166666666667 34  9.888541666666667 33.87983630952381  9.453125 33.63950892857143  L 0.653125 28.782366071428573  C 0.21770833333333367 28.54203869047619  0 28.257440476190474  0 27.928571428571427  C 0 27.599702380952383  0.21770833333333367 27.315104166666668  0.653125 27.074776785714285  C 1.0885416666666674 26.834449404761905  1.6041666666666674 26.714285714285715  2.2 26.714285714285715  L 7 26.714285714285715  L 7 7.2857142857142865  L 2.2 7.2857142857142865  C 1.6041666666666674 7.2857142857142865  1.0885416666666674 7.165550595238093  0.653125 6.9252232142857135  C 0.21770833333333367 6.68489583333333  0 6.400297619047617  0 6.071428571428573  C 0 5.74255952380952  0.21770833333333367 5.457961309523807  0.653125 5.217633928571427  L 9.453125 0.3604910714285725  C 9.888541666666667 0.12016369047619335  10.404166666666667 0  11 0  C 11.595833333333333 0  12.111458333333333 0.12016369047619335  12.546875 0.3604910714285725  L 21.346875 5.217633928571427  Z " fill-rule="nonzero" fill="#d9001b" stroke="none" transform="matrix(1 0 0 1 1821 827 )" />
  </g>
</svg>