<?xml version="1.0" encoding="utf-8"?>
<svg version="1.1" xmlns:xlink="http://www.w3.org/1999/xlink" width="7px" height="69px" xmlns="http://www.w3.org/2000/svg">
  <g transform="matrix(1 0 0 1 -445 -268 )">
    <path d="M 6.7921875 10.588727678571427  C 6.9307291666666675 11.076450892857137  7 11.65401785714285  7 12.321428571428573  C 7 12.988839285714281  6.9307291666666675 13.566406249999995  6.7921875 14.054129464285714  C 6.653645833333334 14.541852678571423  6.489583333333334 14.785714285714286  6.3 14.785714285714286  L 4.8999999999999995 14.785714285714286  L 4.8999999999999995 54.214285714285715  L 6.3 54.214285714285715  C 6.489583333333334 54.214285714285715  6.653645833333334 54.45814732142857  6.7921875 54.945870535714285  C 6.9307291666666675 55.43359375000001  7 56.011160714285715  7 56.67857142857142  C 7 57.34598214285714  6.9307291666666675 57.923549107142854  6.7921875 58.41127232142858  L 3.9921875 68.26841517857143  C 3.853645833333333 68.75613839285714  3.689583333333333 69  3.5 69  C 3.310416666666667 69  3.146354166666667 68.75613839285714  3.0078125 68.26841517857143  L 0.20781249999999998 58.41127232142858  C 0.06927083333333343 57.923549107142854  0 57.34598214285714  0 56.67857142857142  C 0 56.011160714285715  0.06927083333333343 55.43359375000001  0.20781249999999998 54.945870535714285  C 0.3463541666666669 54.45814732142857  0.5104166666666669 54.214285714285715  0.7000000000000001 54.214285714285715  L 2.1 54.214285714285715  L 2.1 14.785714285714286  L 0.7000000000000001 14.785714285714286  C 0.5104166666666669 14.785714285714286  0.3463541666666669 14.541852678571423  0.20781249999999998 14.054129464285714  C 0.06927083333333343 13.566406249999995  0 12.988839285714281  0 12.321428571428573  C 0 11.65401785714285  0.06927083333333343 11.076450892857137  0.20781249999999998 10.588727678571427  L 3.0078125 0.7315848214285736  C 3.146354166666667 0.24386160714286298  3.310416666666667 0  3.5 0  C 3.689583333333333 0  3.853645833333333 0.24386160714286298  3.9921875 0.7315848214285736  L 6.7921875 10.588727678571427  Z " fill-rule="nonzero" fill="#d9001b" stroke="none" transform="matrix(1 0 0 1 445 268 )" />
  </g>
</svg>