<?xml version="1.0" encoding="utf-8"?>
<svg version="1.1" xmlns:xlink="http://www.w3.org/1999/xlink" width="7px" height="24px" xmlns="http://www.w3.org/2000/svg">
  <g transform="matrix(1 0 0 1 -129 -475 )">
    <path d="M 6.7921875 3.6830357142857135  C 6.9307291666666675 3.8526785714285694  7 4.053571428571426  7 4.2857142857142865  C 7 4.5178571428571415  6.9307291666666675 4.718749999999998  6.7921875 4.888392857142857  C 6.653645833333334 5.058035714285713  6.489583333333334 5.142857142857143  6.3 5.142857142857143  L 4.8999999999999995 5.142857142857143  L 4.8999999999999995 18.857142857142858  L 6.3 18.857142857142858  C 6.489583333333334 18.857142857142858  6.653645833333334 18.941964285714285  6.7921875 19.111607142857142  C 6.9307291666666675 19.28125  7 19.482142857142858  7 19.714285714285715  C 7 19.94642857142857  6.9307291666666675 20.147321428571427  6.7921875 20.316964285714285  L 3.9921875 23.745535714285715  C 3.853645833333333 23.915178571428573  3.689583333333333 24  3.5 24  C 3.310416666666667 24  3.146354166666667 23.915178571428573  3.0078125 23.745535714285715  L 0.20781249999999998 20.316964285714285  C 0.06927083333333343 20.147321428571427  0 19.94642857142857  0 19.714285714285715  C 0 19.482142857142858  0.06927083333333343 19.28125  0.20781249999999998 19.111607142857142  C 0.3463541666666669 18.941964285714285  0.5104166666666669 18.857142857142858  0.7000000000000001 18.857142857142858  L 2.1 18.857142857142858  L 2.1 5.142857142857143  L 0.7000000000000001 5.142857142857143  C 0.5104166666666669 5.142857142857143  0.3463541666666669 5.058035714285713  0.20781249999999998 4.888392857142857  C 0.06927083333333343 4.718749999999998  0 4.5178571428571415  0 4.2857142857142865  C 0 4.053571428571426  0.06927083333333343 3.8526785714285694  0.20781249999999998 3.6830357142857135  L 3.0078125 0.2544642857142865  C 3.146354166666667 0.0848214285714306  3.310416666666667 0  3.5 0  C 3.689583333333333 0  3.853645833333333 0.0848214285714306  3.9921875 0.2544642857142865  L 6.7921875 3.6830357142857135  Z " fill-rule="nonzero" fill="#d9001b" stroke="none" transform="matrix(1 0 0 1 129 475 )" />
  </g>
</svg>