<?xml version="1.0" encoding="utf-8"?>
<svg version="1.1" xmlns:xlink="http://www.w3.org/1999/xlink" width="34px" height="13px" xmlns="http://www.w3.org/2000/svg">
  <g transform="matrix(1 0 0 1 -102 -495 )">
    <path d="M 33.63950892857143 5.5859375  C 33.87983630952381 5.843229166666666  34 6.147916666666666  34 6.5  C 34 6.852083333333332  33.87983630952381 7.156770833333332  33.63950892857143 7.4140625  L 28.782366071428573 12.614062500000001  C 28.542038690476193 12.871354166666665  28.257440476190478 13  27.928571428571427 13  C 27.599702380952383 13  27.315104166666668 12.871354166666665  27.074776785714285 12.614062500000001  C 26.83444940476191 12.356770833333332  26.714285714285715 12.052083333333332  26.714285714285715 11.700000000000001  L 26.714285714285715 9  L 7.285714285714286 9  L 7.285714285714286 11.700000000000001  C 7.285714285714286 12.052083333333332  7.165550595238095 12.356770833333332  6.925223214285714 12.614062500000001  C 6.684895833333334 12.871354166666665  6.4002976190476195 13  6.071428571428571 13  C 5.742559523809524 13  5.457961309523809 12.871354166666665  5.217633928571429 12.614062500000001  L 0.36049107142857145 7.4140625  C 0.12016369047619048 7.156770833333332  0 6.852083333333332  0 6.5  C 0 6.147916666666666  0.12016369047619048 5.843229166666666  0.36049107142857145 5.5859375  L 5.217633928571429 0.3859374999999997  C 5.457961309523809 0.1286458333333318  5.742559523809524 0  6.071428571428571 0  C 6.4002976190476195 0  6.684895833333334 0.1286458333333318  6.925223214285714 0.3859374999999997  C 7.165550595238095 0.6432291666666662  7.285714285714286 0.9479166666666662  7.285714285714286 1.2999999999999998  L 7.285714285714286 4  L 26.714285714285715 4  L 26.714285714285715 1.2999999999999998  C 26.714285714285715 0.9479166666666662  26.83444940476191 0.6432291666666662  27.074776785714285 0.3859374999999997  C 27.315104166666668 0.1286458333333318  27.599702380952383 0  27.928571428571427 0  C 28.257440476190478 0  28.542038690476193 0.1286458333333318  28.782366071428573 0.3859374999999997  L 33.63950892857143 5.5859375  Z " fill-rule="nonzero" fill="#d9001b" stroke="none" transform="matrix(1 0 0 1 102 495 )" />
  </g>
</svg>