<?xml version="1.0" encoding="utf-8"?>
<svg version="1.1" xmlns:xlink="http://www.w3.org/1999/xlink" width="32px" height="16px" xmlns="http://www.w3.org/2000/svg">
  <g transform="matrix(1 0 0 1 -1829 -521 )">
    <path d="M 31.660714285714285 6.875  C 31.886904761904763 7.191666666666666  32 7.566666666666666  32 8  C 32 8.433333333333332  31.886904761904763 8.808333333333332  31.660714285714285 9.125  L 27.089285714285715 15.525  C 26.86309523809524 15.841666666666663  26.5952380952381 16  26.285714285714285 16  C 25.976190476190478 16  25.708333333333336 15.841666666666663  25.482142857142858 15.525  C 25.255952380952383 15.208333333333332  25.142857142857142 14.833333333333332  25.142857142857142 14.4  L 25.142857142857142 11  L 6.857142857142857 11  L 6.857142857142857 14.4  C 6.857142857142857 14.833333333333332  6.744047619047619 15.208333333333332  6.517857142857143 15.525  C 6.291666666666667 15.841666666666663  6.023809523809525 16  5.714285714285714 16  C 5.404761904761905 16  5.136904761904762 15.841666666666663  4.910714285714286 15.525  L 0.3392857142857143 9.125  C 0.1130952380952381 8.808333333333332  0 8.433333333333332  0 8  C 0 7.566666666666666  0.1130952380952381 7.191666666666666  0.3392857142857143 6.875  L 4.910714285714286 0.47499999999999964  C 5.136904761904762 0.15833333333333144  5.404761904761905 0  5.714285714285714 0  C 6.023809523809525 0  6.291666666666667 0.15833333333333144  6.517857142857143 0.47499999999999964  C 6.744047619047619 0.7916666666666661  6.857142857142857 1.166666666666666  6.857142857142857 1.5999999999999996  L 6.857142857142857 5  L 25.142857142857142 5  L 25.142857142857142 1.5999999999999996  C 25.142857142857142 1.166666666666666  25.255952380952383 0.7916666666666661  25.482142857142858 0.47499999999999964  C 25.708333333333336 0.15833333333333144  25.976190476190478 0  26.285714285714285 0  C 26.5952380952381 0  26.86309523809524 0.15833333333333144  27.089285714285715 0.47499999999999964  L 31.660714285714285 6.875  Z " fill-rule="nonzero" fill="#d9001b" stroke="none" transform="matrix(1 0 0 1 1829 521 )" />
  </g>
</svg>