<?xml version="1.0" encoding="utf-8"?>
<svg version="1.1" xmlns:xlink="http://www.w3.org/1999/xlink" width="45px" height="16px" xmlns="http://www.w3.org/2000/svg">
  <g transform="matrix(1 0 0 1 -1755 -849 )">
    <path d="M 44.522879464285715 6.875  C 44.84095982142857 7.191666666666666  45 7.566666666666666  45 8  C 45 8.433333333333332  44.84095982142857 8.808333333333332  44.522879464285715 9.125  L 38.094308035714285 15.525  C 37.77622767857143 15.841666666666663  37.39955357142858 16  36.964285714285715 16  C 36.52901785714286 16  36.15234375 15.841666666666663  35.834263392857146 15.525  C 35.51618303571429 15.208333333333332  35.357142857142854 14.833333333333332  35.357142857142854 14.4  L 35.357142857142854 11  L 9.642857142857142 11  L 9.642857142857142 14.4  C 9.642857142857142 14.833333333333332  9.483816964285714 15.208333333333332  9.165736607142858 15.525  C 8.84765625 15.841666666666663  8.470982142857144 16  8.035714285714286 16  C 7.600446428571429 16  7.223772321428571 15.841666666666663  6.905691964285714 15.525  L 0.47712053571428575 9.125  C 0.15904017857142858 8.808333333333332  0 8.433333333333332  0 8  C 0 7.566666666666666  0.15904017857142858 7.191666666666666  0.47712053571428575 6.875  L 6.905691964285714 0.47499999999999964  C 7.223772321428571 0.15833333333333144  7.600446428571429 0  8.035714285714286 0  C 8.470982142857144 0  8.84765625 0.15833333333333144  9.165736607142858 0.47499999999999964  C 9.483816964285714 0.7916666666666661  9.642857142857142 1.166666666666666  9.642857142857142 1.5999999999999996  L 9.642857142857142 5  L 35.357142857142854 5  L 35.357142857142854 1.5999999999999996  C 35.357142857142854 1.166666666666666  35.51618303571429 0.7916666666666661  35.834263392857146 0.47499999999999964  C 36.15234375 0.15833333333333144  36.52901785714286 0  36.964285714285715 0  C 37.39955357142858 0  37.77622767857143 0.15833333333333144  38.094308035714285 0.47499999999999964  L 44.522879464285715 6.875  Z " fill-rule="nonzero" fill="#d9001b" stroke="none" transform="matrix(1 0 0 1 1755 849 )" />
  </g>
</svg>