<?xml version="1.0" encoding="utf-8"?>
<svg version="1.1" xmlns:xlink="http://www.w3.org/1999/xlink" width="18px" height="18px" xmlns="http://www.w3.org/2000/svg">
  <g transform="matrix(1 0 0 1 -1114 -43 )">
    <path d="M 13.640625 16.27734375  C 13.777644230769232 16.12890625  13.846153846153847 15.953125  13.846153846153847 15.75  C 13.846153846153847 15.546875  13.777644230769232 15.37109375  13.640625 15.22265625  C 13.50360576923077 15.07421875  13.341346153846157 15  13.153846153846153 15  C 12.966346153846153 15  12.80408653846154 15.07421875  12.667067307692308 15.22265625  C 12.530048076923078 15.37109375  12.461538461538462 15.546875  12.461538461538462 15.75  C 12.461538461538462 15.953125  12.530048076923078 16.12890625  12.667067307692308 16.27734375  C 12.80408653846154 16.42578125  12.966346153846153 16.5  13.153846153846153 16.5  C 13.341346153846157 16.5  13.50360576923077 16.42578125  13.640625 16.27734375  Z M 16.40985576923077 16.27734375  C 16.546875 16.12890625  16.615384615384617 15.953125  16.615384615384617 15.75  C 16.615384615384617 15.546875  16.546875 15.37109375  16.40985576923077 15.22265625  C 16.27283653846154 15.07421875  16.110576923076923 15  15.923076923076923 15  C 15.735576923076923 15  15.573317307692308 15.07421875  15.436298076923077 15.22265625  C 15.299278846153848 15.37109375  15.23076923076923 15.546875  15.23076923076923 15.75  C 15.23076923076923 15.953125  15.299278846153848 16.12890625  15.436298076923077 16.27734375  C 15.573317307692308 16.42578125  15.735576923076923 16.5  15.923076923076923 16.5  C 16.110576923076923 16.5  16.27283653846154 16.42578125  16.40985576923077 16.27734375  Z M 17.697115384615383 12.328124999999998  C 17.899038461538463 12.546874999999996  18 12.8125  18 13.125000000000002  L 18 16.875  C 18 17.1875  17.899038461538463 17.453125  17.697115384615383 17.671875  C 17.49519230769231 17.890625  17.250000000000004 18  16.96153846153846 18  L 1.0384615384615385 18  C 0.7500000000000001 18  0.5048076923076924 17.890625  0.30288461538461536 17.671875  C 0.10096153846153845 17.453125  0 17.1875  0 16.875  L 0 13.125000000000002  C 0 12.8125  0.10096153846153845 12.546874999999996  0.30288461538461536 12.328124999999998  C 0.5048076923076924 12.109375  0.7500000000000001 12.000000000000002  1.0384615384615385 12.000000000000002  L 6.068509615384615 12.000000000000002  L 7.528846153846154 13.59375  C 7.947115384615385 14.03125  8.4375 14.25  9 14.25  C 9.5625 14.25  10.052884615384615 14.03125  10.471153846153847 13.59375  L 11.942307692307692 12.000000000000002  L 16.96153846153846 12.000000000000002  C 17.250000000000004 12.000000000000002  17.49519230769231 12.109375  17.697115384615383 12.328124999999998  Z M 13.846153846153847 6.000000000000001  C 14.149038461538462 6.000000000000001  14.361778846153847 6.15234375  14.484375 6.457031250000001  C 14.606971153846157 6.77734375  14.556490384615387 7.05078125  14.332932692307692 7.27734375  L 9.486778846153847 12.527343750000002  C 9.356971153846153 12.67578125  9.194711538461538 12.749999999999998  9 12.749999999999998  C 8.805288461538462 12.749999999999998  8.643028846153847 12.67578125  8.513221153846153 12.527343750000002  L 3.6670673076923075 7.27734375  C 3.443509615384616 7.05078125  3.3930288461538467 6.77734375  3.515625 6.457031250000001  C 3.638221153846154 6.15234375  3.8509615384615383 6.000000000000001  4.153846153846154 6.000000000000001  L 6.923076923076923 6.000000000000001  L 6.923076923076923 0.7499999999999993  C 6.923076923076923 0.5468749999999976  6.991586538461539 0.37109374999999756  7.128605769230769 0.22265624999999933  C 7.265625000000001 0.07421875000000111  7.427884615384616 0  7.615384615384615 0  L 10.384615384615383 0  C 10.572115384615385 0  10.734375000000002 0.07421875000000111  10.87139423076923 0.22265624999999933  C 11.008413461538462 0.37109374999999756  11.076923076923077 0.5468749999999976  11.076923076923077 0.7499999999999993  L 11.076923076923077 6.000000000000001  L 13.846153846153847 6.000000000000001  Z " fill-rule="nonzero" fill="#7f7f7f" stroke="none" transform="matrix(1 0 0 1 1114 43 )" />
  </g>
</svg>