<?xml version="1.0" encoding="utf-8"?>
<svg version="1.1" xmlns:xlink="http://www.w3.org/1999/xlink" width="19px" height="19px" viewBox="208 626  19 19" xmlns="http://www.w3.org/2000/svg">
  <path d="M 217.5 626  C 222.82 626  227 630.18  227 635.5  C 227 640.82  222.82 645  217.5 645  C 212.18 645  208 640.82  208 635.5  C 208 630.18  212.18 626  217.5 626  Z " fill-rule="nonzero" fill="#f0f0f0" stroke="none" />
  <path d="M 217.5 626.5  C 222.54 626.5  226.5 630.46  226.5 635.5  C 226.5 640.54  222.54 644.5  217.5 644.5  C 212.46 644.5  208.5 640.54  208.5 635.5  C 208.5 630.46  212.46 626.5  217.5 626.5  Z " stroke-width="1" stroke="#f59a23" fill="none" />
  <path d="M 217.5 640.25  C 214.84 640.25  212.75 638.16  212.75 635.5  C 212.75 632.84  214.84 630.75  217.5 630.75  C 220.16 630.75  222.25 632.84  222.25 635.5  C 222.25 638.16  220.16 640.25  217.5 640.25  " fill-rule="nonzero" fill="#f59a23" stroke="none" />
</svg>