<?xml version="1.0" encoding="utf-8"?>
<svg version="1.1" xmlns:xlink="http://www.w3.org/1999/xlink" width="19px" height="19px" viewBox="328 626  19 19" xmlns="http://www.w3.org/2000/svg">
  <path d="M 337.5 626  C 342.82 626  347 630.18  347 635.5  C 347 640.82  342.82 645  337.5 645  C 332.18 645  328 640.82  328 635.5  C 328 630.18  332.18 626  337.5 626  Z " fill-rule="nonzero" fill="#ffffff" stroke="none" />
  <path d="M 337.5 626.5  C 342.54 626.5  346.5 630.46  346.5 635.5  C 346.5 640.54  342.54 644.5  337.5 644.5  C 332.46 644.5  328.5 640.54  328.5 635.5  C 328.5 630.46  332.46 626.5  337.5 626.5  Z " stroke-width="1" stroke="#f59a23" fill="none" />
  <path d="M 337.5 640.25  C 334.84 640.25  332.75 638.16  332.75 635.5  C 332.75 632.84  334.84 630.75  337.5 630.75  C 340.16 630.75  342.25 632.84  342.25 635.5  C 342.25 638.16  340.16 640.25  337.5 640.25  " fill-rule="nonzero" fill="#f59a23" stroke="none" />
</svg>