<?xml version="1.0" encoding="utf-8"?>
<svg version="1.1" xmlns:xlink="http://www.w3.org/1999/xlink" width="19px" height="19px" viewBox="383 196  19 19" xmlns="http://www.w3.org/2000/svg">
  <path d="M 392.5 196  C 397.82 196  402 200.18  402 205.5  C 402 210.82  397.82 215  392.5 215  C 387.18 215  383 210.82  383 205.5  C 383 200.18  387.18 196  392.5 196  Z " fill-rule="nonzero" fill="#ffffff" stroke="none" />
  <path d="M 392.5 196.5  C 397.54 196.5  401.5 200.46  401.5 205.5  C 401.5 210.54  397.54 214.5  392.5 214.5  C 387.46 214.5  383.5 210.54  383.5 205.5  C 383.5 200.46  387.46 196.5  392.5 196.5  Z " stroke-width="1" stroke="#f59a23" fill="none" />
  <path d="M 392.5 210.25  C 389.84 210.25  387.75 208.16  387.75 205.5  C 387.75 202.84  389.84 200.75  392.5 200.75  C 395.16 200.75  397.25 202.84  397.25 205.5  C 397.25 208.16  395.16 210.25  392.5 210.25  " fill-rule="nonzero" fill="#f59a23" stroke="none" />
</svg>