<?xml version="1.0" encoding="utf-8"?>
<svg version="1.1" xmlns:xlink="http://www.w3.org/1999/xlink" width="19px" height="19px" viewBox="242 196  19 19" xmlns="http://www.w3.org/2000/svg">
  <path d="M 251.5 196  C 256.82 196  261 200.18  261 205.5  C 261 210.82  256.82 215  251.5 215  C 246.18 215  242 210.82  242 205.5  C 242 200.18  246.18 196  251.5 196  Z " fill-rule="nonzero" fill="#ffffff" stroke="none" />
  <path d="M 251.5 196.5  C 256.54 196.5  260.5 200.46  260.5 205.5  C 260.5 210.54  256.54 214.5  251.5 214.5  C 246.46 214.5  242.5 210.54  242.5 205.5  C 242.5 200.46  246.46 196.5  251.5 196.5  Z " stroke-width="1" stroke="#f59a23" fill="none" />
  <path d="M 251.5 210.25  C 248.84 210.25  246.75 208.16  246.75 205.5  C 246.75 202.84  248.84 200.75  251.5 200.75  C 254.16 200.75  256.25 202.84  256.25 205.5  C 256.25 208.16  254.16 210.25  251.5 210.25  " fill-rule="nonzero" fill="#f59a23" stroke="none" />
</svg>