<?xml version="1.0" encoding="utf-8"?>
<svg version="1.1" xmlns:xlink="http://www.w3.org/1999/xlink" width="19px" height="19px" viewBox="249 216  19 19" xmlns="http://www.w3.org/2000/svg">
  <path d="M 258.5 216  C 263.82 216  268 220.18  268 225.5  C 268 230.82  263.82 235  258.5 235  C 253.18 235  249 230.82  249 225.5  C 249 220.18  253.18 216  258.5 216  Z " fill-rule="nonzero" fill="#ffffff" stroke="none" />
  <path d="M 258.5 216.5  C 263.54 216.5  267.5 220.46  267.5 225.5  C 267.5 230.54  263.54 234.5  258.5 234.5  C 253.46 234.5  249.5 230.54  249.5 225.5  C 249.5 220.46  253.46 216.5  258.5 216.5  Z " stroke-width="1" stroke="#f59a23" fill="none" />
  <path d="M 258.5 230.25  C 255.84 230.25  253.75 228.16  253.75 225.5  C 253.75 222.84  255.84 220.75  258.5 220.75  C 261.16 220.75  263.25 222.84  263.25 225.5  C 263.25 228.16  261.16 230.25  258.5 230.25  " fill-rule="nonzero" fill="#f59a23" stroke="none" />
</svg>