<?xml version="1.0" encoding="utf-8"?>
<svg version="1.1" xmlns:xlink="http://www.w3.org/1999/xlink" width="19px" height="19px" viewBox="390 215  19 19" xmlns="http://www.w3.org/2000/svg">
  <path d="M 399.5 215  C 404.82 215  409 219.18  409 224.5  C 409 229.82  404.82 234  399.5 234  C 394.18 234  390 229.82  390 224.5  C 390 219.18  394.18 215  399.5 215  Z " fill-rule="nonzero" fill="#ffffff" stroke="none" />
  <path d="M 399.5 215.5  C 404.54 215.5  408.5 219.46  408.5 224.5  C 408.5 229.54  404.54 233.5  399.5 233.5  C 394.46 233.5  390.5 229.54  390.5 224.5  C 390.5 219.46  394.46 215.5  399.5 215.5  Z " stroke-width="1" stroke="#f59a23" fill="none" />
  <path d="M 399.5 229.25  C 396.84 229.25  394.75 227.16  394.75 224.5  C 394.75 221.84  396.84 219.75  399.5 219.75  C 402.16 219.75  404.25 221.84  404.25 224.5  C 404.25 227.16  402.16 229.25  399.5 229.25  " fill-rule="nonzero" fill="#f59a23" stroke="none" />
</svg>