<?xml version="1.0" encoding="utf-8"?>
<svg version="1.1" xmlns:xlink="http://www.w3.org/1999/xlink" width="19px" height="19px" viewBox="348 212  19 19" xmlns="http://www.w3.org/2000/svg">
  <path d="M 357.5 212  C 362.82 212  367 216.18  367 221.5  C 367 226.82  362.82 231  357.5 231  C 352.18 231  348 226.82  348 221.5  C 348 216.18  352.18 212  357.5 212  Z " fill-rule="nonzero" fill="#f0f0f0" stroke="none" />
  <path d="M 357.5 212.5  C 362.54 212.5  366.5 216.46  366.5 221.5  C 366.5 226.54  362.54 230.5  357.5 230.5  C 352.46 230.5  348.5 226.54  348.5 221.5  C 348.5 216.46  352.46 212.5  357.5 212.5  Z " stroke-width="1" stroke="#f59a23" fill="none" />
  <path d="M 357.5 226.25  C 354.84 226.25  352.75 224.16  352.75 221.5  C 352.75 218.84  354.84 216.75  357.5 216.75  C 360.16 216.75  362.25 218.84  362.25 221.5  C 362.25 224.16  360.16 226.25  357.5 226.25  " fill-rule="nonzero" fill="#f59a23" stroke="none" />
</svg>