<?xml version="1.0" encoding="utf-8"?>
<svg version="1.1" xmlns:xlink="http://www.w3.org/1999/xlink" width="19px" height="19px" viewBox="206 213  19 19" xmlns="http://www.w3.org/2000/svg">
  <path d="M 215.5 213  C 220.82 213  225 217.18  225 222.5  C 225 227.82  220.82 232  215.5 232  C 210.18 232  206 227.82  206 222.5  C 206 217.18  210.18 213  215.5 213  Z " fill-rule="nonzero" fill="#ffffff" stroke="none" />
  <path d="M 215.5 213.5  C 220.54 213.5  224.5 217.46  224.5 222.5  C 224.5 227.54  220.54 231.5  215.5 231.5  C 210.46 231.5  206.5 227.54  206.5 222.5  C 206.5 217.46  210.46 213.5  215.5 213.5  Z " stroke-width="1" stroke="#f59a23" fill="none" />
  <path d="M 215.5 227.25  C 212.84 227.25  210.75 225.16  210.75 222.5  C 210.75 219.84  212.84 217.75  215.5 217.75  C 218.16 217.75  220.25 219.84  220.25 222.5  C 220.25 225.16  218.16 227.25  215.5 227.25  " fill-rule="nonzero" fill="#f59a23" stroke="none" />
</svg>