<?xml version="1.0" encoding="utf-8"?>
<svg version="1.1" xmlns:xlink="http://www.w3.org/1999/xlink" width="19px" height="19px" viewBox="507 410  19 19" xmlns="http://www.w3.org/2000/svg">
  <path d="M 516.5 410  C 521.82 410  526 414.18  526 419.5  C 526 424.82  521.82 429  516.5 429  C 511.18 429  507 424.82  507 419.5  C 507 414.18  511.18 410  516.5 410  Z " fill-rule="nonzero" fill="#ffffff" stroke="none" />
  <path d="M 516.5 410.5  C 521.54 410.5  525.5 414.46  525.5 419.5  C 525.5 424.54  521.54 428.5  516.5 428.5  C 511.46 428.5  507.5 424.54  507.5 419.5  C 507.5 414.46  511.46 410.5  516.5 410.5  Z " stroke-width="1" stroke="#f59a23" fill="none" />
  <path d="M 516.5 424.25  C 513.84 424.25  511.75 422.16  511.75 419.5  C 511.75 416.84  513.84 414.75  516.5 414.75  C 519.16 414.75  521.25 416.84  521.25 419.5  C 521.25 422.16  519.16 424.25  516.5 424.25  " fill-rule="nonzero" fill="#f59a23" stroke="none" />
</svg>