<?xml version="1.0" encoding="utf-8"?>
<svg version="1.1" xmlns:xlink="http://www.w3.org/1999/xlink" width="19px" height="19px" viewBox="233 410  19 19" xmlns="http://www.w3.org/2000/svg">
  <path d="M 242.5 410  C 247.82 410  252 414.18  252 419.5  C 252 424.82  247.82 429  242.5 429  C 237.18 429  233 424.82  233 419.5  C 233 414.18  237.18 410  242.5 410  Z " fill-rule="nonzero" fill="#ffffff" stroke="none" />
  <path d="M 242.5 410.5  C 247.54 410.5  251.5 414.46  251.5 419.5  C 251.5 424.54  247.54 428.5  242.5 428.5  C 237.46 428.5  233.5 424.54  233.5 419.5  C 233.5 414.46  237.46 410.5  242.5 410.5  Z " stroke-width="1" stroke="#333333" fill="none" />
  <path d="M 242.5 424.25  C 239.84 424.25  237.75 422.16  237.75 419.5  C 237.75 416.84  239.84 414.75  242.5 414.75  C 245.16 414.75  247.25 416.84  247.25 419.5  C 247.25 422.16  245.16 424.25  242.5 424.25  " fill-rule="nonzero" fill="#333333" stroke="none" />
</svg>