<?xml version="1.0" encoding="utf-8"?>
<svg version="1.1" xmlns:xlink="http://www.w3.org/1999/xlink" width="19px" height="19px" viewBox="336 410  19 19" xmlns="http://www.w3.org/2000/svg">
  <path d="M 345.5 410  C 350.82 410  355 414.18  355 419.5  C 355 424.82  350.82 429  345.5 429  C 340.18 429  336 424.82  336 419.5  C 336 414.18  340.18 410  345.5 410  Z " fill-rule="nonzero" fill="#ffffff" stroke="none" />
  <path d="M 345.5 410.5  C 350.54 410.5  354.5 414.46  354.5 419.5  C 354.5 424.54  350.54 428.5  345.5 428.5  C 340.46 428.5  336.5 424.54  336.5 419.5  C 336.5 414.46  340.46 410.5  345.5 410.5  Z " stroke-width="1" stroke="#f59a23" fill="none" />
  <path d="M 345.5 424.25  C 342.84 424.25  340.75 422.16  340.75 419.5  C 340.75 416.84  342.84 414.75  345.5 414.75  C 348.16 414.75  350.25 416.84  350.25 419.5  C 350.25 422.16  348.16 424.25  345.5 424.25  " fill-rule="nonzero" fill="#f59a23" stroke="none" />
</svg>