<?xml version="1.0" encoding="utf-8"?>
<svg version="1.1" xmlns:xlink="http://www.w3.org/1999/xlink" width="19px" height="19px" viewBox="232 137  19 19" xmlns="http://www.w3.org/2000/svg">
  <path d="M 241.5 137  C 246.82 137  251 141.18  251 146.5  C 251 151.82  246.82 156  241.5 156  C 236.18 156  232 151.82  232 146.5  C 232 141.18  236.18 137  241.5 137  Z " fill-rule="nonzero" fill="#ffffff" stroke="none" />
  <path d="M 241.5 137.5  C 246.54 137.5  250.5 141.46  250.5 146.5  C 250.5 151.54  246.54 155.5  241.5 155.5  C 236.46 155.5  232.5 151.54  232.5 146.5  C 232.5 141.46  236.46 137.5  241.5 137.5  Z " stroke-width="1" stroke="#f59a23" fill="none" />
  <path d="M 241.5 151.25  C 238.84 151.25  236.75 149.16  236.75 146.5  C 236.75 143.84  238.84 141.75  241.5 141.75  C 244.16 141.75  246.25 143.84  246.25 146.5  C 246.25 149.16  244.16 151.25  241.5 151.25  " fill-rule="nonzero" fill="#f59a23" stroke="none" />
</svg>