<?xml version="1.0" encoding="utf-8"?>
<svg version="1.1" xmlns:xlink="http://www.w3.org/1999/xlink" width="19px" height="19px" viewBox="389 137  19 19" xmlns="http://www.w3.org/2000/svg">
  <path d="M 398.5 137  C 403.82 137  408 141.18  408 146.5  C 408 151.82  403.82 156  398.5 156  C 393.18 156  389 151.82  389 146.5  C 389 141.18  393.18 137  398.5 137  Z " fill-rule="nonzero" fill="#f0f0f0" stroke="none" />
  <path d="M 398.5 137.5  C 403.54 137.5  407.5 141.46  407.5 146.5  C 407.5 151.54  403.54 155.5  398.5 155.5  C 393.46 155.5  389.5 151.54  389.5 146.5  C 389.5 141.46  393.46 137.5  398.5 137.5  Z " stroke-width="1" stroke="#f59a23" fill="none" />
  <path d="M 398.5 151.25  C 395.84 151.25  393.75 149.16  393.75 146.5  C 393.75 143.84  395.84 141.75  398.5 141.75  C 401.16 141.75  403.25 143.84  403.25 146.5  C 403.25 149.16  401.16 151.25  398.5 151.25  " fill-rule="nonzero" fill="#f59a23" stroke="none" />
</svg>