<?xml version="1.0" encoding="utf-8"?>
<svg version="1.1" xmlns:xlink="http://www.w3.org/1999/xlink" width="19px" height="19px" viewBox="208 300  19 19" xmlns="http://www.w3.org/2000/svg">
  <path d="M 217.5 300  C 222.82 300  227 304.18  227 309.5  C 227 314.82  222.82 319  217.5 319  C 212.18 319  208 314.82  208 309.5  C 208 304.18  212.18 300  217.5 300  Z " fill-rule="nonzero" fill="#ffffff" stroke="none" />
  <path d="M 217.5 300.5  C 222.54 300.5  226.5 304.46  226.5 309.5  C 226.5 314.54  222.54 318.5  217.5 318.5  C 212.46 318.5  208.5 314.54  208.5 309.5  C 208.5 304.46  212.46 300.5  217.5 300.5  Z " stroke-width="1" stroke="#f59a23" fill="none" />
  <path d="M 217.5 314.25  C 214.84 314.25  212.75 312.16  212.75 309.5  C 212.75 306.84  214.84 304.75  217.5 304.75  C 220.16 304.75  222.25 306.84  222.25 309.5  C 222.25 312.16  220.16 314.25  217.5 314.25  " fill-rule="nonzero" fill="#f59a23" stroke="none" />
</svg>