<?xml version="1.0" encoding="utf-8"?>
<svg version="1.1" xmlns:xlink="http://www.w3.org/1999/xlink" width="19px" height="19px" viewBox="624 261  19 19" xmlns="http://www.w3.org/2000/svg">
  <path d="M 633.5 261  C 638.82 261  643 265.18  643 270.5  C 643 275.82  638.82 280  633.5 280  C 628.18 280  624 275.82  624 270.5  C 624 265.18  628.18 261  633.5 261  Z " fill-rule="nonzero" fill="#ffffff" stroke="none" />
  <path d="M 633.5 261.5  C 638.54 261.5  642.5 265.46  642.5 270.5  C 642.5 275.54  638.54 279.5  633.5 279.5  C 628.46 279.5  624.5 275.54  624.5 270.5  C 624.5 265.46  628.46 261.5  633.5 261.5  Z " stroke-width="1" stroke="#f59a23" fill="none" />
  <path d="M 633.5 275.25  C 630.84 275.25  628.75 273.16  628.75 270.5  C 628.75 267.84  630.84 265.75  633.5 265.75  C 636.16 265.75  638.25 267.84  638.25 270.5  C 638.25 273.16  636.16 275.25  633.5 275.25  " fill-rule="nonzero" fill="#f59a23" stroke="none" />
</svg>