<?xml version="1.0" encoding="utf-8"?>
<svg version="1.1" xmlns:xlink="http://www.w3.org/1999/xlink" width="19px" height="19px" viewBox="438 261  19 19" xmlns="http://www.w3.org/2000/svg">
  <path d="M 447.5 261  C 452.82 261  457 265.18  457 270.5  C 457 275.82  452.82 280  447.5 280  C 442.18 280  438 275.82  438 270.5  C 438 265.18  442.18 261  447.5 261  Z " fill-rule="nonzero" fill="#ffffff" stroke="none" />
  <path d="M 447.5 261.5  C 452.54 261.5  456.5 265.46  456.5 270.5  C 456.5 275.54  452.54 279.5  447.5 279.5  C 442.46 279.5  438.5 275.54  438.5 270.5  C 438.5 265.46  442.46 261.5  447.5 261.5  Z " stroke-width="1" stroke="#f59a23" fill="none" />
  <path d="M 447.5 275.25  C 444.84 275.25  442.75 273.16  442.75 270.5  C 442.75 267.84  444.84 265.75  447.5 265.75  C 450.16 265.75  452.25 267.84  452.25 270.5  C 452.25 273.16  450.16 275.25  447.5 275.25  " fill-rule="nonzero" fill="#f59a23" stroke="none" />
</svg>