<?xml version="1.0" encoding="utf-8"?>
<svg version="1.1" xmlns:xlink="http://www.w3.org/1999/xlink" width="41px" height="32px" xmlns="http://www.w3.org/2000/svg">
  <g transform="matrix(1 0 0 1 -1118 -1599 )">
    <path d="M 19.121076233183857 24  L 20.408071748878925 24  L 23.073991031390133 21.363636363636363  L 19.580717488789237 17.909090909090907  L 16.91479820627803 20.545454545454547  L 16.91479820627803 21.81818181818182  L 19.121076233183857 21.81818181818182  L 19.121076233183857 24  Z M 30.49719730941704 8.386363636363637  C 30.75766068759343 8.128787878787875  30.765321375186847 7.878787878787875  30.520179372197312 7.636363636363637  C 30.275037369207777 7.393939393939391  30.022234678624816 7.401515151515149  29.76177130044843 7.65909090909091  L 21.71804932735426 15.613636363636363  C 21.457585949177876 15.871212121212121  21.449925261584454 16.121212121212118  21.69506726457399 16.363636363636363  C 21.94020926756353 16.606060606060606  22.19301195814649 16.598484848484844  22.45347533632287 16.340909090909093  L 30.49719730941704 8.386363636363637  Z M 31.899103139013455 20.477272727272727  C 32.205530642750375 20.598484848484844  32.35874439461883 20.81818181818182  32.35874439461883 21.136363636363637  L 32.35874439461883 25.454545454545453  C 32.35874439461883 27.257575757575758  31.71141629297459 28.799242424242426  30.416760089686097 30.079545454545453  C 29.12210388639761 31.359848484848484  27.563153961136024 32  25.739910313901348 32  L 6.618834080717488 32  C 4.79559043348281 32  3.236640508221226 31.359848484848484  1.9419843049327354 30.079545454545453  C 0.647328101644245 28.799242424242426  0 27.257575757575758  0 25.454545454545453  L 0 6.545454545454547  C 0 4.742424242424239  0.647328101644245 3.2007575757575744  1.9419843049327354 1.9204545454545467  C 3.236640508221226 0.640151515151512  4.79559043348281 0  6.618834080717488 0  L 25.739910313901348 0  C 26.70515695067265 0  27.601457399103136 0.18939393939393767  28.428811659192828 0.5681818181818166  C 28.658632286995516 0.6742424242424221  28.79652466367713 0.8484848484848477  28.842488789237667 1.09090909090909  C 28.888452914798204 1.3484848484848477  28.819506726457398 1.5681818181818166  28.635650224215244 1.75  L 27.50952914798206 2.8636363636363633  C 27.29502989536622 3.0757575757575744  27.049887892376685 3.1363636363636367  26.774103139013455 3.0454545454545467  C 26.421711509715994 2.9545454545454533  26.076980568011958 2.90909090909091  25.739910313901348 3  L 6.618834080717488 3  C 5.6076233183856505 2.90909090909091  4.74196562032885 3.265151515151512  4.021860986547085 3.9772727272727266  C 3.301756352765322 4.689393939393938  2.9417040358744395 5.545454545454547  3 6.545454545454547  L 3 25.454545454545453  C 2.9417040358744395 26.454545454545453  3.301756352765322 27.310606060606055  4.021860986547085 28.022727272727273  C 4.74196562032885 28.734848484848484  5.6076233183856505 29.09090909090909  6.618834080717488 29  L 25.739910313901348 29  C 26.751121076233183 29.09090909090909  27.616778774289983 28.734848484848484  28.33688340807175 28.022727272727273  C 29.056988041853515 27.310606060606055  29.417040358744394 26.454545454545453  29.417040358744394 25.454545454545453  L 29.417040358744394 22.590909090909093  C 29.417040358744394 22.39393939393939  29.485986547085204 22.227272727272727  29.623878923766817 22.090909090909093  L 31.094730941704036 20.636363636363637  C 31.324551569506724 20.409090909090907  31.592675635276535 20.356060606060606  31.899103139013455 20.477272727272727  Z M 14.708520179372197 19.636363636363637  L 30.152466367713004 4.363636363636363  L 36.771300448430495 10.90909090909091  L 21.327354260089685 26.18181818181818  L 14.708520179372197 26.18181818181818  L 14.708520179372197 19.636363636363637  Z M 41 5.818181818181817  C 41 6.424242424242422  40.785500747384155 6.939393939393938  40.356502242152466 7.363636363636363  L 38.24215246636771 9.454545454545453  L 31.623318385650226 2.90909090909091  L 33.73766816143498 0.8181818181818166  C 34.16666666666667 0.3939393939393909  34.687593423019436 0.18181818181818343  35.300448430493276 0.18181818181818343  C 35.913303437967116 0.18181818181818343  36.43423019431988 0.3939393939393909  36.86322869955157 0.8181818181818166  L 40.356502242152466 4.272727272727273  C 40.785500747384155 4.696969696969692  41 5.212121212121211  41 5.818181818181817  Z " fill-rule="nonzero" fill="#555555" stroke="none" transform="matrix(1 0 0 1 1118 1599 )" />
  </g>
</svg>