<?xml version="1.0" encoding="utf-8"?>
<svg version="1.1" xmlns:xlink="http://www.w3.org/1999/xlink" width="19px" height="19px" viewBox="961 957  19 19" xmlns="http://www.w3.org/2000/svg">
  <path d="M 970.5 957  C 975.82 957  980 961.18  980 966.5  C 980 971.82  975.82 976  970.5 976  C 965.18 976  961 971.82  961 966.5  C 961 961.18  965.18 957  970.5 957  Z " fill-rule="nonzero" fill="#ffffff" stroke="none" />
  <path d="M 970.5 957.5  C 975.54 957.5  979.5 961.46  979.5 966.5  C 979.5 971.54  975.54 975.5  970.5 975.5  C 965.46 975.5  961.5 971.54  961.5 966.5  C 961.5 961.46  965.46 957.5  970.5 957.5  Z " stroke-width="1" stroke="#333333" fill="none" />
  <path d="M 970.5 971.25  C 967.84 971.25  965.75 969.16  965.75 966.5  C 965.75 963.84  967.84 961.75  970.5 961.75  C 973.16 961.75  975.25 963.84  975.25 966.5  C 975.25 969.16  973.16 971.25  970.5 971.25  " fill-rule="nonzero" fill="#333333" stroke="none" />
</svg>