<?xml version="1.0" encoding="utf-8"?>
<svg version="1.1" xmlns:xlink="http://www.w3.org/1999/xlink" width="19px" height="19px" viewBox="391 4045  19 19" xmlns="http://www.w3.org/2000/svg">
  <path d="M 400.5 4045  C 405.82 4045  410 4049.18  410 4054.5  C 410 4059.82  405.82 4064  400.5 4064  C 395.18 4064  391 4059.82  391 4054.5  C 391 4049.18  395.18 4045  400.5 4045  Z " fill-rule="nonzero" fill="#ffffff" stroke="none" />
  <path d="M 400.5 4045.5  C 405.54 4045.5  409.5 4049.46  409.5 4054.5  C 409.5 4059.54  405.54 4063.5  400.5 4063.5  C 395.46 4063.5  391.5 4059.54  391.5 4054.5  C 391.5 4049.46  395.46 4045.5  400.5 4045.5  Z " stroke-width="1" stroke="#f59a23" fill="none" />
  <path d="M 400.5 4059.25  C 397.84 4059.25  395.75 4057.16  395.75 4054.5  C 395.75 4051.84  397.84 4049.75  400.5 4049.75  C 403.16 4049.75  405.25 4051.84  405.25 4054.5  C 405.25 4057.16  403.16 4059.25  400.5 4059.25  " fill-rule="nonzero" fill="#f59a23" stroke="none" />
</svg>