<?xml version="1.0" encoding="utf-8"?>
<svg version="1.1" xmlns:xlink="http://www.w3.org/1999/xlink" width="19px" height="19px" viewBox="391 4092  19 19" xmlns="http://www.w3.org/2000/svg">
  <path d="M 400.5 4092  C 405.82 4092  410 4096.18  410 4101.5  C 410 4106.82  405.82 4111  400.5 4111  C 395.18 4111  391 4106.82  391 4101.5  C 391 4096.18  395.18 4092  400.5 4092  Z " fill-rule="nonzero" fill="#ffffff" stroke="none" />
  <path d="M 400.5 4092.5  C 405.54 4092.5  409.5 4096.46  409.5 4101.5  C 409.5 4106.54  405.54 4110.5  400.5 4110.5  C 395.46 4110.5  391.5 4106.54  391.5 4101.5  C 391.5 4096.46  395.46 4092.5  400.5 4092.5  Z " stroke-width="1" stroke="#f59a23" fill="none" />
  <path d="M 400.5 4106.25  C 397.84 4106.25  395.75 4104.16  395.75 4101.5  C 395.75 4098.84  397.84 4096.75  400.5 4096.75  C 403.16 4096.75  405.25 4098.84  405.25 4101.5  C 405.25 4104.16  403.16 4106.25  400.5 4106.25  " fill-rule="nonzero" fill="#f59a23" stroke="none" />
</svg>