<?xml version="1.0" encoding="utf-8"?>
<svg version="1.1" xmlns:xlink="http://www.w3.org/1999/xlink" width="19px" height="19px" viewBox="368 1559  19 19" xmlns="http://www.w3.org/2000/svg">
  <path d="M 377.5 1559  C 382.82 1559  387 1563.18  387 1568.5  C 387 1573.82  382.82 1578  377.5 1578  C 372.18 1578  368 1573.82  368 1568.5  C 368 1563.18  372.18 1559  377.5 1559  Z " fill-rule="nonzero" fill="#ffffff" stroke="none" />
  <path d="M 377.5 1559.5  C 382.54 1559.5  386.5 1563.46  386.5 1568.5  C 386.5 1573.54  382.54 1577.5  377.5 1577.5  C 372.46 1577.5  368.5 1573.54  368.5 1568.5  C 368.5 1563.46  372.46 1559.5  377.5 1559.5  Z " stroke-width="1" stroke="#333333" fill="none" />
  <path d="M 377.5 1573.25  C 374.84 1573.25  372.75 1571.16  372.75 1568.5  C 372.75 1565.84  374.84 1563.75  377.5 1563.75  C 380.16 1563.75  382.25 1565.84  382.25 1568.5  C 382.25 1571.16  380.16 1573.25  377.5 1573.25  " fill-rule="nonzero" fill="#333333" stroke="none" />
</svg>