<?xml version="1.0" encoding="utf-8"?>
<svg version="1.1" xmlns:xlink="http://www.w3.org/1999/xlink" width="19px" height="19px" viewBox="961 862  19 19" xmlns="http://www.w3.org/2000/svg">
  <path d="M 970.5 862  C 975.82 862  980 866.18  980 871.5  C 980 876.82  975.82 881  970.5 881  C 965.18 881  961 876.82  961 871.5  C 961 866.18  965.18 862  970.5 862  Z " fill-rule="nonzero" fill="#ffffff" stroke="none" />
  <path d="M 970.5 862.5  C 975.54 862.5  979.5 866.46  979.5 871.5  C 979.5 876.54  975.54 880.5  970.5 880.5  C 965.46 880.5  961.5 876.54  961.5 871.5  C 961.5 866.46  965.46 862.5  970.5 862.5  Z " stroke-width="1" stroke="#333333" fill="none" />
  <path d="M 970.5 876.25  C 967.84 876.25  965.75 874.16  965.75 871.5  C 965.75 868.84  967.84 866.75  970.5 866.75  C 973.16 866.75  975.25 868.84  975.25 871.5  C 975.25 874.16  973.16 876.25  970.5 876.25  " fill-rule="nonzero" fill="#333333" stroke="none" />
</svg>