<?xml version="1.0" encoding="utf-8"?>
<svg version="1.1" xmlns:xlink="http://www.w3.org/1999/xlink" width="19px" height="19px" viewBox="368 1487  19 19" xmlns="http://www.w3.org/2000/svg">
  <path d="M 377.5 1487  C 382.82 1487  387 1491.18  387 1496.5  C 387 1501.82  382.82 1506  377.5 1506  C 372.18 1506  368 1501.82  368 1496.5  C 368 1491.18  372.18 1487  377.5 1487  Z " fill-rule="nonzero" fill="#ffffff" stroke="none" />
  <path d="M 377.5 1487.5  C 382.54 1487.5  386.5 1491.46  386.5 1496.5  C 386.5 1501.54  382.54 1505.5  377.5 1505.5  C 372.46 1505.5  368.5 1501.54  368.5 1496.5  C 368.5 1491.46  372.46 1487.5  377.5 1487.5  Z " stroke-width="1" stroke="#f59a23" fill="none" />
  <path d="M 377.5 1501.25  C 374.84 1501.25  372.75 1499.16  372.75 1496.5  C 372.75 1493.84  374.84 1491.75  377.5 1491.75  C 380.16 1491.75  382.25 1493.84  382.25 1496.5  C 382.25 1499.16  380.16 1501.25  377.5 1501.25  " fill-rule="nonzero" fill="#f59a23" stroke="none" />
</svg>