<?xml version="1.0" encoding="utf-8"?>
<svg version="1.1" xmlns:xlink="http://www.w3.org/1999/xlink" width="19px" height="19px" viewBox="961 909  19 19" xmlns="http://www.w3.org/2000/svg">
  <path d="M 970.5 909  C 975.82 909  980 913.18  980 918.5  C 980 923.82  975.82 928  970.5 928  C 965.18 928  961 923.82  961 918.5  C 961 913.18  965.18 909  970.5 909  Z " fill-rule="nonzero" fill="#ffffff" stroke="none" />
  <path d="M 970.5 909.5  C 975.54 909.5  979.5 913.46  979.5 918.5  C 979.5 923.54  975.54 927.5  970.5 927.5  C 965.46 927.5  961.5 923.54  961.5 918.5  C 961.5 913.46  965.46 909.5  970.5 909.5  Z " stroke-width="1" stroke="#f59a23" fill="none" />
  <path d="M 970.5 923.25  C 967.84 923.25  965.75 921.16  965.75 918.5  C 965.75 915.84  967.84 913.75  970.5 913.75  C 973.16 913.75  975.25 915.84  975.25 918.5  C 975.25 921.16  973.16 923.25  970.5 923.25  " fill-rule="nonzero" fill="#f59a23" stroke="none" />
</svg>