<?xml version="1.0" encoding="utf-8"?>
<svg version="1.1" xmlns:xlink="http://www.w3.org/1999/xlink" width="19px" height="19px" viewBox="1155 909  19 19" xmlns="http://www.w3.org/2000/svg">
  <path d="M 1164.5 909  C 1169.82 909  1174 913.18  1174 918.5  C 1174 923.82  1169.82 928  1164.5 928  C 1159.18 928  1155 923.82  1155 918.5  C 1155 913.18  1159.18 909  1164.5 909  Z " fill-rule="nonzero" fill="#ffffff" stroke="none" />
  <path d="M 1164.5 909.5  C 1169.54 909.5  1173.5 913.46  1173.5 918.5  C 1173.5 923.54  1169.54 927.5  1164.5 927.5  C 1159.46 927.5  1155.5 923.54  1155.5 918.5  C 1155.5 913.46  1159.46 909.5  1164.5 909.5  Z " stroke-width="1" stroke="#f59a23" fill="none" />
  <path d="M 1164.5 923.25  C 1161.84 923.25  1159.75 921.16  1159.75 918.5  C 1159.75 915.84  1161.84 913.75  1164.5 913.75  C 1167.16 913.75  1169.25 915.84  1169.25 918.5  C 1169.25 921.16  1167.16 923.25  1164.5 923.25  " fill-rule="nonzero" fill="#f59a23" stroke="none" />
</svg>