<?xml version="1.0" encoding="utf-8"?>
<svg version="1.1" xmlns:xlink="http://www.w3.org/1999/xlink" width="19px" height="19px" viewBox="368 1523  19 19" xmlns="http://www.w3.org/2000/svg">
  <path d="M 377.5 1523  C 382.82 1523  387 1527.18  387 1532.5  C 387 1537.82  382.82 1542  377.5 1542  C 372.18 1542  368 1537.82  368 1532.5  C 368 1527.18  372.18 1523  377.5 1523  Z " fill-rule="nonzero" fill="#ffffff" stroke="none" />
  <path d="M 377.5 1523.5  C 382.54 1523.5  386.5 1527.46  386.5 1532.5  C 386.5 1537.54  382.54 1541.5  377.5 1541.5  C 372.46 1541.5  368.5 1537.54  368.5 1532.5  C 368.5 1527.46  372.46 1523.5  377.5 1523.5  Z " stroke-width="1" stroke="#f59a23" fill="none" />
  <path d="M 377.5 1537.25  C 374.84 1537.25  372.75 1535.16  372.75 1532.5  C 372.75 1529.84  374.84 1527.75  377.5 1527.75  C 380.16 1527.75  382.25 1529.84  382.25 1532.5  C 382.25 1535.16  380.16 1537.25  377.5 1537.25  " fill-rule="nonzero" fill="#f59a23" stroke="none" />
</svg>