<?xml version="1.0" encoding="utf-8"?>
<svg version="1.1" xmlns:xlink="http://www.w3.org/1999/xlink" width="19px" height="19px" viewBox="267 4045  19 19" xmlns="http://www.w3.org/2000/svg">
  <path d="M 276.5 4045  C 281.82 4045  286 4049.18  286 4054.5  C 286 4059.82  281.82 4064  276.5 4064  C 271.18 4064  267 4059.82  267 4054.5  C 267 4049.18  271.18 4045  276.5 4045  Z " fill-rule="nonzero" fill="#ffffff" stroke="none" />
  <path d="M 276.5 4045.5  C 281.54 4045.5  285.5 4049.46  285.5 4054.5  C 285.5 4059.54  281.54 4063.5  276.5 4063.5  C 271.46 4063.5  267.5 4059.54  267.5 4054.5  C 267.5 4049.46  271.46 4045.5  276.5 4045.5  Z " stroke-width="1" stroke="#f59a23" fill="none" />
  <path d="M 276.5 4059.25  C 273.84 4059.25  271.75 4057.16  271.75 4054.5  C 271.75 4051.84  273.84 4049.75  276.5 4049.75  C 279.16 4049.75  281.25 4051.84  281.25 4054.5  C 281.25 4057.16  279.16 4059.25  276.5 4059.25  " fill-rule="nonzero" fill="#f59a23" stroke="none" />
</svg>