<?xml version="1.0" encoding="utf-8"?>
<svg version="1.1" xmlns:xlink="http://www.w3.org/1999/xlink" width="18px" height="15px" xmlns="http://www.w3.org/2000/svg">
  <g transform="matrix(1 0 0 1 -1251 -76 )">
    <path d="M 13.640625 13.564453125  C 13.777644230769232 13.440755208333334  13.846153846153847 13.294270833333334  13.846153846153847 13.125  C 13.846153846153847 12.955729166666666  13.777644230769232 12.809244791666666  13.640625 12.685546875  C 13.50360576923077 12.561848958333334  13.341346153846157 12.5  13.153846153846153 12.5  C 12.966346153846153 12.5  12.80408653846154 12.561848958333334  12.667067307692308 12.685546875  C 12.530048076923078 12.809244791666666  12.461538461538462 12.955729166666666  12.461538461538462 13.125  C 12.461538461538462 13.294270833333334  12.530048076923078 13.440755208333334  12.667067307692308 13.564453125  C 12.80408653846154 13.688151041666666  12.966346153846153 13.75  13.153846153846153 13.75  C 13.341346153846157 13.75  13.50360576923077 13.688151041666666  13.640625 13.564453125  Z M 16.40985576923077 13.564453125  C 16.546875 13.440755208333334  16.615384615384617 13.294270833333334  16.615384615384617 13.125  C 16.615384615384617 12.955729166666666  16.546875 12.809244791666666  16.40985576923077 12.685546875  C 16.27283653846154 12.561848958333334  16.110576923076923 12.5  15.923076923076923 12.5  C 15.735576923076923 12.5  15.573317307692308 12.561848958333334  15.436298076923077 12.685546875  C 15.299278846153848 12.809244791666666  15.23076923076923 12.955729166666666  15.23076923076923 13.125  C 15.23076923076923 13.294270833333334  15.299278846153848 13.440755208333334  15.436298076923077 13.564453125  C 15.573317307692308 13.688151041666666  15.735576923076923 13.75  15.923076923076923 13.75  C 16.110576923076923 13.75  16.27283653846154 13.688151041666666  16.40985576923077 13.564453125  Z M 17.697115384615383 10.273437499999998  C 17.899038461538463 10.455729166666664  18 10.677083333333334  18 10.937500000000002  L 18 14.0625  C 18 14.322916666666668  17.899038461538463 14.544270833333332  17.697115384615383 14.7265625  C 17.49519230769231 14.908854166666668  17.250000000000004 15  16.96153846153846 15  L 1.0384615384615385 15  C 0.7500000000000001 15  0.5048076923076924 14.908854166666668  0.30288461538461536 14.7265625  C 0.10096153846153845 14.544270833333332  0 14.322916666666668  0 14.0625  L 0 10.937500000000002  C 0 10.677083333333334  0.10096153846153845 10.455729166666664  0.30288461538461536 10.273437499999998  C 0.5048076923076924 10.091145833333334  0.7500000000000001 10.000000000000002  1.0384615384615385 10.000000000000002  L 6.068509615384615 10.000000000000002  L 7.528846153846154 11.328125  C 7.947115384615385 11.692708333333332  8.4375 11.875  9 11.875  C 9.5625 11.875  10.052884615384615 11.692708333333332  10.471153846153847 11.328125  L 11.942307692307692 10.000000000000002  L 16.96153846153846 10.000000000000002  C 17.250000000000004 10.000000000000002  17.49519230769231 10.091145833333334  17.697115384615383 10.273437499999998  Z M 13.846153846153847 5.000000000000001  C 14.149038461538462 5.000000000000001  14.361778846153847 5.126953125  14.484375 5.380859375000001  C 14.606971153846157 5.647786458333333  14.556490384615387 5.875651041666666  14.332932692307692 6.064453125  L 9.486778846153847 10.439453125000002  C 9.356971153846153 10.563151041666666  9.194711538461538 10.624999999999998  9 10.624999999999998  C 8.805288461538462 10.624999999999998  8.643028846153847 10.563151041666666  8.513221153846153 10.439453125000002  L 3.6670673076923075 6.064453125  C 3.443509615384616 5.875651041666666  3.3930288461538467 5.647786458333333  3.515625 5.380859375000001  C 3.638221153846154 5.126953125  3.8509615384615383 5.000000000000001  4.153846153846154 5.000000000000001  L 6.923076923076923 5.000000000000001  L 6.923076923076923 0.6249999999999994  C 6.923076923076923 0.45572916666666463  6.991586538461539 0.30924479166666463  7.128605769230769 0.18554687499999944  C 7.265625000000001 0.06184895833333426  7.427884615384616 0  7.615384615384615 0  L 10.384615384615383 0  C 10.572115384615385 0  10.734375000000002 0.06184895833333426  10.87139423076923 0.18554687499999944  C 11.008413461538462 0.30924479166666463  11.076923076923077 0.45572916666666463  11.076923076923077 0.6249999999999994  L 11.076923076923077 5.000000000000001  L 13.846153846153847 5.000000000000001  Z " fill-rule="nonzero" fill="#7f7f7f" stroke="none" transform="matrix(1 0 0 1 1251 76 )" />
  </g>
</svg>