<?xml version="1.0" encoding="utf-8"?>
<svg version="1.1" xmlns:xlink="http://www.w3.org/1999/xlink" width="10px" height="9px" xmlns="http://www.w3.org/2000/svg">
  <g transform="matrix(1 0 0 1 -1256 -43 )">
    <path d="M 9.764309764309765 6.727272727272727  C 9.921436588103255 6.868686868686868  10 7.04040404040404  10 7.242424242424242  C 10 7.4444444444444455  9.921436588103255 7.616161616161616  9.764309764309765 7.757575757575757  L 8.61952861952862 8.787878787878787  C 8.462401795735131 8.929292929292929  8.271604938271604 9  8.047138047138047 9  C 7.822671156004491 9  7.631874298540966 8.929292929292929  7.474747474747475 8.787878787878787  L 5 6.560606060606061  L 2.5252525252525255 8.787878787878787  C 2.368125701459035 8.929292929292929  2.177328843995511 9  1.9528619528619529 9  C 1.7283950617283952 9  1.5375982042648713 8.929292929292929  1.3804713804713806 8.787878787878787  L 0.2356902356902357 7.757575757575757  C 0.0785634118967453 7.616161616161616  0 7.4444444444444455  0 7.242424242424242  C 0 7.04040404040404  0.0785634118967453 6.868686868686868  0.2356902356902357 6.727272727272727  L 2.71043771043771 4.5  L 0.2356902356902357 2.2727272727272725  C 0.0785634118967453 2.1313131313131306  0 1.9595959595959598  0 1.7575757575757576  C 0 1.5555555555555554  0.0785634118967453 1.3838383838383825  0.2356902356902357 1.2424242424242427  L 1.3804713804713806 0.21212121212121215  C 1.5375982042648713 0.07070707070707039  1.7283950617283952 0  1.9528619528619529 0  C 2.177328843995511 0  2.368125701459035 0.07070707070707039  2.5252525252525255 0.21212121212121215  L 5 2.43939393939394  L 7.474747474747475 0.21212121212121215  C 7.631874298540966 0.07070707070707039  7.822671156004491 0  8.047138047138047 0  C 8.271604938271604 0  8.462401795735131 0.07070707070707039  8.61952861952862 0.21212121212121215  L 9.764309764309765 1.2424242424242427  C 9.921436588103255 1.3838383838383825  10 1.5555555555555554  10 1.7575757575757576  C 10 1.9595959595959598  9.921436588103255 2.1313131313131306  9.764309764309765 2.2727272727272725  L 7.289562289562289 4.5  L 9.764309764309765 6.727272727272727  Z " fill-rule="nonzero" fill="#ffffff" stroke="none" transform="matrix(1 0 0 1 1256 43 )" />
  </g>
</svg>