<?xml version="1.0" encoding="utf-8"?>
<svg version="1.1" xmlns:xlink="http://www.w3.org/1999/xlink" width="19px" height="19px" viewBox="501 2059  19 19" xmlns="http://www.w3.org/2000/svg">
  <path d="M 510.5 2059  C 515.82 2059  520 2063.18  520 2068.5  C 520 2073.82  515.82 2078  510.5 2078  C 505.18 2078  501 2073.82  501 2068.5  C 501 2063.18  505.18 2059  510.5 2059  Z " fill-rule="nonzero" fill="#ffffff" stroke="none" />
  <path d="M 510.5 2059.5  C 515.54 2059.5  519.5 2063.46  519.5 2068.5  C 519.5 2073.54  515.54 2077.5  510.5 2077.5  C 505.46 2077.5  501.5 2073.54  501.5 2068.5  C 501.5 2063.46  505.46 2059.5  510.5 2059.5  Z " stroke-width="1" stroke="#f59a23" fill="none" />
  <path d="M 510.5 2073.25  C 507.84 2073.25  505.75 2071.16  505.75 2068.5  C 505.75 2065.84  507.84 2063.75  510.5 2063.75  C 513.16 2063.75  515.25 2065.84  515.25 2068.5  C 515.25 2071.16  513.16 2073.25  510.5 2073.25  " fill-rule="nonzero" fill="#f59a23" stroke="none" />
</svg>