<?xml version="1.0" encoding="utf-8"?>
<svg version="1.1" xmlns:xlink="http://www.w3.org/1999/xlink" width="330px" height="224px" xmlns="http://www.w3.org/2000/svg">
  <g transform="matrix(1 0 0 1 -919 -774 )">
    <path d="M 919 774  L 1249 774  L 1249 998  L 919 998  L 919 774  " fill-rule="nonzero" fill="#cccccc" stroke="none" />
    <path d="M 935 790  L 1233 790  L 1233 982  L 935 982  L 935 790  " fill-rule="nonzero" fill="#ffffff" stroke="none" />
    <path d="M 1107.3999999999999 841.2  C 1097.992 841.2  1090.6 833.8080000000001  1090.6 824.4000000000001  C 1090.6 814.9920000000001  1097.992 807.6  1107.3999999999999 807.6  C 1116.8079999999998 807.6  1124.1999999999998 814.9920000000001  1124.1999999999998 824.4000000000001  C 1124.1999999999998 833.8080000000001  1116.8079999999998 841.2  1107.3999999999999 841.2  " fill-rule="nonzero" fill="#cccccc" stroke="none" />
    <path d="M 941 977  L 941 877.45  L 1012.75 832.2  L 1113.2 903.2836363636363  L 1170.6 859.35  L 1228 903.2836363636363  L 1228 977  L 941 977  " fill-rule="nonzero" fill="#169bd5" stroke="none" />
  </g>
</svg>