<?xml version="1.0" encoding="utf-8"?>
<svg version="1.1" xmlns:xlink="http://www.w3.org/1999/xlink" width="100px" height="100px" xmlns="http://www.w3.org/2000/svg">
  <g transform="matrix(1 0 0 1 -937 -1162 )">
    <path d="M 937 1162  L 1037 1162  L 1037 1262  L 937 1262  L 937 1162  " fill-rule="nonzero" fill="#cccccc" stroke="none" />
    <path d="M 944 1169  L 1030 1169  L 1030 1255  L 944 1255  L 944 1169  " fill-rule="nonzero" fill="#ffffff" stroke="none" />
    <path d="M 996.5 1192  C 992.3 1192  989 1188.7  989 1184.5  C 989 1180.3  992.3 1177  996.5 1177  C 1000.7 1177  1004 1180.3  1004 1184.5  C 1004 1188.7  1000.7 1192  996.5 1192  " fill-rule="nonzero" fill="#cccccc" stroke="none" />
    <path d="M 947 1253  L 947 1208.45  L 967.25 1188.2  L 995.6 1204.4  L 1011.8 1200.35  L 1028 1204.4  L 1028 1253  L 947 1253  " fill-rule="nonzero" fill="#169bd5" stroke="none" />
  </g>
</svg>