<?xml version="1.0" encoding="utf-8"?>
<svg version="1.1" xmlns:xlink="http://www.w3.org/1999/xlink" width="4px" height="15px" xmlns="http://www.w3.org/2000/svg">
  <g transform="matrix(1 0 0 1 -1418 -17 )">
    <path d="M 3.7083333333333335 11.207386363636363  C 3.9027777777777772 11.406249999999998  4 11.647727272727272  4 11.931818181818182  L 4 13.977272727272728  C 4 14.261363636363637  3.9027777777777772 14.502840909090908  3.7083333333333335 14.701704545454545  C 3.5138888888888893 14.900568181818182  3.277777777777778 15  3 15  L 1 15  C 0.7222222222222223 15  0.48611111111111116 14.900568181818182  0.2916666666666667 14.701704545454545  C 0.09722222222222221 14.502840909090908  0 14.261363636363637  0 13.977272727272728  L 0 11.931818181818182  C 0 11.647727272727272  0.09722222222222221 11.406249999999998  0.2916666666666667 11.207386363636363  C 0.48611111111111116 11.008522727272728  0.7222222222222223 10.90909090909091  1 10.90909090909091  L 3 10.90909090909091  C 3.277777777777778 10.90909090909091  3.5138888888888893 11.008522727272728  3.7083333333333335 11.207386363636363  Z M 3.7083333333333335 5.752840909090909  C 3.9027777777777772 5.951704545454543  4 6.1931818181818175  4 6.477272727272727  L 4 8.522727272727272  C 4 8.806818181818182  3.9027777777777772 9.048295454545453  3.7083333333333335 9.24715909090909  C 3.5138888888888893 9.446022727272727  3.277777777777778 9.545454545454545  3 9.545454545454545  L 1 9.545454545454545  C 0.7222222222222223 9.545454545454545  0.48611111111111116 9.446022727272727  0.2916666666666667 9.24715909090909  C 0.09722222222222221 9.048295454545453  0 8.806818181818182  0 8.522727272727272  L 0 6.477272727272727  C 0 6.1931818181818175  0.09722222222222221 5.951704545454543  0.2916666666666667 5.752840909090909  C 0.48611111111111116 5.5539772727272725  0.7222222222222223 5.454545454545455  1 5.454545454545455  L 3 5.454545454545455  C 3.277777777777778 5.454545454545455  3.5138888888888893 5.5539772727272725  3.7083333333333335 5.752840909090909  Z M 3.7083333333333335 0.2982954545454547  C 3.9027777777777772 0.49715909090909005  4 0.738636363636363  4 1.0227272727272734  L 4 3.068181818181819  C 4 3.3522727272727257  3.9027777777777772 3.593749999999999  3.7083333333333335 3.792613636363636  C 3.5138888888888893 3.991477272727271  3.277777777777778 4.090909090909091  3 4.090909090909091  L 1 4.090909090909091  C 0.7222222222222223 4.090909090909091  0.48611111111111116 3.991477272727271  0.2916666666666667 3.792613636363636  C 0.09722222222222221 3.593749999999999  0 3.3522727272727257  0 3.068181818181819  L 0 1.0227272727272734  C 0 0.738636363636363  0.09722222222222221 0.49715909090909005  0.2916666666666667 0.2982954545454547  C 0.48611111111111116 0.09943181818181768  0.7222222222222223 0  1 0  L 3 0  C 3.277777777777778 0  3.5138888888888893 0.09943181818181768  3.7083333333333335 0.2982954545454547  Z " fill-rule="nonzero" fill="#aaaaaa" stroke="none" transform="matrix(1 0 0 1 1418 17 )" />
  </g>
</svg>