<?xml version="1.0" encoding="utf-8"?>
<svg version="1.1" xmlns:xlink="http://www.w3.org/1999/xlink" width="22px" height="18px" xmlns="http://www.w3.org/2000/svg">
  <g transform="matrix(1 0 0 1 -1265 -74 )">
    <path d="M 16.671875 16.27734375  C 16.83934294871795 16.12890625  16.923076923076923 15.953125  16.923076923076923 15.75  C 16.923076923076923 15.546875  16.83934294871795 15.37109375  16.671875 15.22265625  C 16.504407051282055 15.07421875  16.306089743589748 15  16.076923076923077 15  C 15.84775641025641 15  15.649439102564104 15.07421875  15.481971153846155 15.22265625  C 15.314503205128208 15.37109375  15.23076923076923 15.546875  15.23076923076923 15.75  C 15.23076923076923 15.953125  15.314503205128208 16.12890625  15.481971153846155 16.27734375  C 15.649439102564104 16.42578125  15.84775641025641 16.5  16.076923076923077 16.5  C 16.306089743589748 16.5  16.504407051282055 16.42578125  16.671875 16.27734375  Z M 20.056490384615383 16.27734375  C 20.223958333333332 16.12890625  20.30769230769231 15.953125  20.30769230769231 15.75  C 20.30769230769231 15.546875  20.223958333333332 15.37109375  20.056490384615383 15.22265625  C 19.889022435897438 15.07421875  19.690705128205128 15  19.46153846153846 15  C 19.232371794871796 15  19.03405448717949 15.07421875  18.86658653846154 15.22265625  C 18.69911858974359 15.37109375  18.615384615384617 15.546875  18.615384615384617 15.75  C 18.615384615384617 15.953125  18.69911858974359 16.12890625  18.86658653846154 16.27734375  C 19.03405448717949 16.42578125  19.232371794871796 16.5  19.46153846153846 16.5  C 19.690705128205128 16.5  19.889022435897438 16.42578125  20.056490384615383 16.27734375  Z M 21.62980769230769 12.328124999999998  C 21.876602564102566 12.546874999999996  22 12.8125  22 13.125000000000002  L 22 16.875  C 22 17.1875  21.876602564102566 17.453125  21.62980769230769 17.671875  C 21.38301282051282 17.890625  21.083333333333336 18  20.73076923076923 18  L 1.2692307692307694 18  C 0.9166666666666667 18  0.6169871794871796 17.890625  0.37019230769230765 17.671875  C 0.12339743589743588 17.453125  0 17.1875  0 16.875  L 0 13.125000000000002  C 0 12.8125  0.12339743589743588 12.546874999999996  0.37019230769230765 12.328124999999998  C 0.6169871794871796 12.109375  0.9166666666666667 12.000000000000002  1.2692307692307694 12.000000000000002  L 7.4170673076923075 12.000000000000002  L 9.201923076923077 13.59375  C 9.713141025641027 14.03125  10.3125 14.25  11 14.25  C 11.6875 14.25  12.286858974358974 14.03125  12.798076923076923 13.59375  L 14.596153846153845 12.000000000000002  L 20.73076923076923 12.000000000000002  C 21.083333333333336 12.000000000000002  21.38301282051282 12.109375  21.62980769230769 12.328124999999998  Z M 16.923076923076923 6.000000000000001  C 17.29326923076923 6.000000000000001  17.55328525641026 6.15234375  17.703125 6.457031250000001  C 17.852964743589748 6.77734375  17.79126602564103 7.05078125  17.518028846153847 7.27734375  L 11.594951923076923 12.527343750000002  C 11.436298076923077 12.67578125  11.23798076923077 12.749999999999998  11 12.749999999999998  C 10.76201923076923 12.749999999999998  10.563701923076923 12.67578125  10.405048076923077 12.527343750000002  L 4.481971153846154 7.27734375  C 4.2087339743589745 7.05078125  4.147035256410257 6.77734375  4.296875 6.457031250000001  C 4.4467147435897445 6.15234375  4.706730769230769 6.000000000000001  5.0769230769230775 6.000000000000001  L 8.461538461538462 6.000000000000001  L 8.461538461538462 0.7499999999999993  C 8.461538461538462 0.5468749999999976  8.545272435897436 0.37109374999999756  8.712740384615385 0.22265624999999933  C 8.880208333333334 0.07421875000000111  9.078525641025642 0  9.307692307692308 0  L 12.692307692307692 0  C 12.92147435897436 0  13.119791666666668 0.07421875000000111  13.287259615384615 0.22265624999999933  C 13.454727564102564 0.37109374999999756  13.53846153846154 0.5468749999999976  13.53846153846154 0.7499999999999993  L 13.53846153846154 6.000000000000001  L 16.923076923076923 6.000000000000001  Z " fill-rule="nonzero" fill="#7f7f7f" stroke="none" transform="matrix(1 0 0 1 1265 74 )" />
  </g>
</svg>