<?xml version="1.0" encoding="utf-8"?>
<svg version="1.1" xmlns:xlink="http://www.w3.org/1999/xlink" width="19px" height="17px" xmlns="http://www.w3.org/2000/svg">
  <g transform="matrix(1 0 0 1 -1267 -42 )">
    <path d="M 4.749999547004743 11.559999221801833  L 6.079999057769864 12.749998784065362  L 9.499999094009485 9.68999875164044  L 12.919999130249108 12.749998784065362  L 14.249998641014228 11.559999221801833  L 10.829998604774609 8.499999189376908  L 14.249998641014228 5.439999156951984  L 12.919999130249108 4.249999594688454  L 9.499999094009485 7.309999627113378  L 6.079999057769864 4.249999594688454  L 4.749999547004743 5.439999156951984  L 8.169999583244364 8.499999189376908  L 4.749999547004743 11.559999221801833  Z M 13.20499837827698 16.331047884841166  C 12.04916512497281 16.777581185452348  10.814165627797543 17.00056504536037  9.499999094009485 16.999998378753816  C 8.185832560221428 16.999998378753816  6.950833063046162 16.776731652452312  5.7949998097419915 16.33019835184113  C 4.639166556437821 15.883665051229949  3.6337498120069682 15.278182545596833  2.7787499161958773 14.513749264359545  C 1.9237500203847864 13.748749357581199  1.247033316179913 12.849165144046292  0.748600030078885 11.814998548984667  C 0.25016674397785726 10.78083195392304  0.0006333332661508336 9.675832403818854  0 8.499999189376908  C 0 7.324165974934961  0.24953339998403548 6.219166424830776  0.748600030078885 5.18499982976915  C 1.2476666601737347 4.150833234707524  1.924383307754201 3.2512498317957084  2.7787499161958773 2.486249925017364  C 3.6337498120069682 1.7212500182390194  4.639166556437821 1.1157666513188695  5.7949998097419915 0.6698000269126866  C 6.950833063046162 0.22383340250650385  8.185832560221428 0.000566666606556009  9.499999094009485 0  C 10.814165627797543 0  12.04916512497281 0.22326672630150543  13.20499837827698 0.6698000269126866  C 14.360831631581151 1.116333327523868  15.366249282002517 1.7218166437800746  16.221249177813608 2.486249925017364  C 17.076249073624698 3.2512498317957084  17.7532810059041 4.150833234707524  18.25234763599895 5.18499982976915  C 18.7514142660938 6.219166424830776  19.000631521285122 7.324165974934961  18.99999818801897 8.499999189376908  C 18.99999818801897 9.675832403818854  18.750464788034936 10.78083195392304  18.251398157940084 11.814998548984667  C 17.752331527845236 12.849165144046292  17.075615786255284 13.748749357581199  16.221249177813608 14.513749264359545  C 15.366249282002517 15.278749171137887  14.360831631581151 15.884514584229985  13.20499837827698 16.331047884841166  Z " fill-rule="nonzero" fill="#767676" stroke="none" transform="matrix(1 0 0 1 1267 42 )" />
  </g>
</svg>