<?xml version="1.0" encoding="utf-8"?>
<svg version="1.1" xmlns:xlink="http://www.w3.org/1999/xlink" width="112px" height="112px" xmlns="http://www.w3.org/2000/svg">
  <g transform="matrix(1 0 0 1 -155 -158 )">
    <path d="M 86.77083333333334 46.666666666666664  C 86.77083333333334 47.93055555555555  86.30902777777779 49.02430555555555  85.38541666666666 49.947916666666664  L 54.61458333333333 80.71875  C 53.69097222222223 81.6423611111111  52.59722222222223 82.10416666666667  51.33333333333333 82.10416666666667  C 50.06944444444445 82.10416666666667  48.97569444444445 81.6423611111111  48.05208333333333 80.71875  L 26.614583333333336 59.28125  C 25.690972222222225 58.35763888888887  25.229166666666664 57.26388888888887  25.229166666666664 56  C 25.229166666666664 54.736111111111114  25.690972222222225 53.642361111111114  26.614583333333336 52.71875  L 34.05208333333333 45.28125  C 34.97569444444445 44.357638888888886  36.06944444444445 43.895833333333336  37.33333333333333 43.895833333333336  C 38.59722222222223 43.895833333333336  39.69097222222223 44.357638888888886  40.61458333333333 45.28125  L 51.33333333333333 56  L 71.38541666666666 35.947916666666664  C 72.30902777777779 35.02430555555555  73.40277777777779 34.5625  74.66666666666666 34.5625  C 75.93055555555556 34.5625  77.02430555555556 35.02430555555555  77.94791666666666 35.947916666666664  L 85.38541666666666 43.385416666666664  C 86.30902777777779 44.30902777777777  86.77083333333334 45.40277777777777  86.77083333333334 46.666666666666664  Z M 90.34375 75.90625  C 93.89236111111111 69.8298611111111  95.66666666666666 63.19444444444445  95.66666666666666 56  C 95.66666666666666 48.80555555555555  93.89236111111111 42.170138888888886  90.34375 36.09375  C 86.7951388888889 30.0173611111111  81.9826388888889 25.2048611111111  75.90625 21.65625  C 69.82986111111111 18.107638888888886  63.19444444444445 16.333333333333336  56 16.333333333333336  C 48.80555555555556 16.333333333333336  42.17013888888889 18.107638888888886  36.09375 21.65625  C 30.017361111111114 25.2048611111111  25.204861111111114 30.0173611111111  21.65625 36.09375  C 18.10763888888889 42.170138888888886  16.333333333333336 48.80555555555555  16.333333333333336 56  C 16.333333333333336 63.19444444444445  18.10763888888889 69.8298611111111  21.65625 75.90625  C 25.204861111111114 81.98263888888887  30.017361111111114 86.79513888888889  36.09375 90.34375  C 42.17013888888889 93.89236111111111  48.80555555555556 95.66666666666666  56 95.66666666666666  C 63.19444444444445 95.66666666666666  69.82986111111111 93.89236111111111  75.90625 90.34375  C 81.9826388888889 86.79513888888889  86.7951388888889 81.98263888888887  90.34375 75.90625  Z M 104.48958333333334 27.890625  C 109.49652777777776 36.4704861111111  112 45.840277777777764  112 56  C 112 66.15972222222223  109.49652777777776 75.52951388888887  104.48958333333334 84.109375  C 99.4826388888889 92.68923611111111  92.68923611111111 99.48263888888889  84.109375 104.48958333333334  C 75.5295138888889 109.49652777777779  66.15972222222223 112  56 112  C 45.84027777777778 112  36.470486111111114 109.49652777777779  27.890625 104.48958333333334  C 19.31076388888889 99.48263888888889  12.517361111111112 92.68923611111111  7.510416666666667 84.109375  C 2.503472222222222 75.52951388888887  0 66.15972222222223  0 56  C 0 45.840277777777764  2.503472222222222 36.4704861111111  7.510416666666667 27.890625  C 12.517361111111112 19.310763888888886  19.31076388888889 12.5173611111111  27.890625 7.5104166666666625  C 36.470486111111114 2.5034722222222126  45.84027777777778 0  56 0  C 66.15972222222223 0  75.5295138888889 2.5034722222222126  84.109375 7.5104166666666625  C 92.68923611111111 12.5173611111111  99.4826388888889 19.310763888888886  104.48958333333334 27.890625  Z " fill-rule="nonzero" fill="#63a103" stroke="none" transform="matrix(1 0 0 1 155 158 )" />
  </g>
</svg>