<?xml version="1.0" encoding="utf-8"?>
<svg version="1.1" xmlns:xlink="http://www.w3.org/1999/xlink" width="30px" height="30px" xmlns="http://www.w3.org/2000/svg">
  <g transform="matrix(1 0 0 1 -1602 -1554 )">
    <path d="M 29.326171875 17.685546875000004  C 29.449869791666668 17.809244791666668  29.51171875 17.955729166666668  29.51171875 18.125000000000004  C 29.51171875 18.190104166666668  29.505208333333336 18.23567708333333  29.4921875 18.261718749999996  C 28.658854166666668 21.75130208333333  26.9140625 24.580078125  24.2578125 26.748046875  C 21.6015625 28.916015625  18.489583333333336 30  14.921875 30  C 13.020833333333336 30  11.181640625 29.641927083333336  9.404296875 28.92578125  C 7.626953124999999 28.209635416666664  6.041666666666668 27.1875  4.6484375 25.859375  L 2.12890625 28.37890625  C 1.881510416666667 28.626302083333336  1.588541666666667 28.75  1.25 28.75  C 0.9114583333333335 28.75  0.6184895833333334 28.626302083333336  0.37109375 28.37890625  C 0.12369791666666667 28.131510416666664  0 27.838541666666664  0 27.5  L 0 18.75  C 0 18.41145833333333  0.12369791666666667 18.11848958333333  0.37109375 17.87109375  C 0.6184895833333334 17.623697916666664  0.9114583333333335 17.499999999999996  1.25 17.499999999999996  L 10 17.499999999999996  C 10.338541666666668 17.499999999999996  10.631510416666668 17.623697916666664  10.87890625 17.87109375  C 11.126302083333336 18.11848958333333  11.25 18.41145833333333  11.25 18.75  C 11.25 19.088541666666664  11.126302083333336 19.381510416666664  10.87890625 19.62890625  L 8.203125 22.304687499999996  C 9.127604166666668 23.1640625  10.17578125 23.828125  11.34765625 24.296875  C 12.51953125 24.765625  13.736979166666668 25  15 25  C 16.744791666666668 25  18.372395833333336 24.576822916666664  19.8828125 23.73046875  C 21.393229166666668 22.88411458333333  22.60416666666667 21.718749999999996  23.515625 20.234375000000004  C 23.65885416666667 20.013020833333332  24.00390625 19.251302083333332  24.55078125 17.949218750000004  C 24.65494791666667 17.64973958333333  24.850260416666668 17.499999999999996  25.13671875 17.499999999999996  L 28.88671875 17.499999999999996  C 29.055989583333336 17.499999999999996  29.202473958333336 17.56184895833333  29.326171875 17.685546875000004  Z M 29.62890625 1.621093750000001  C 29.876302083333332 1.8684895833333315  30 2.1614583333333313  30 2.500000000000001  L 30 11.25  C 30 11.588541666666666  29.876302083333332 11.881510416666666  29.62890625 12.12890625  C 29.38151041666667 12.376302083333334  29.08854166666667 12.499999999999998  28.75 12.499999999999998  L 20 12.499999999999998  C 19.661458333333336 12.499999999999998  19.368489583333336 12.376302083333334  19.12109375 12.12890625  C 18.873697916666668 11.881510416666666  18.750000000000004 11.588541666666666  18.75 11.25  C 18.750000000000004 10.91145833333333  18.873697916666668 10.61848958333333  19.12109375 10.37109375  L 21.81640625 7.67578125  C 19.88932291666667 5.8919270833333295  17.6171875 4.999999999999999  15 4.999999999999999  C 13.255208333333336 4.999999999999999  11.627604166666668 5.4231770833333295  10.1171875 6.26953125  C 8.606770833333336 7.115885416666664  7.395833333333335 8.281249999999998  6.484375 9.765625000000002  C 6.341145833333334 9.986979166666664  5.99609375 10.748697916666664  5.44921875 12.050781250000002  C 5.345052083333334 12.350260416666666  5.149739583333334 12.499999999999998  4.86328125 12.499999999999998  L 0.9765625000000001 12.499999999999998  C 0.8072916666666666 12.499999999999998  0.6608072916666667 12.438151041666666  0.537109375 12.314453125000002  C 0.41341145833333337 12.190755208333332  0.3515625 12.044270833333332  0.3515625 11.875000000000002  L 0.3515625 11.738281249999998  C 1.1979166666666667 8.248697916666666  2.955729166666667 5.419921875  5.625 3.251953125  C 8.294270833333334 1.083984375  11.419270833333336 0  15 0  C 16.901041666666668 0  18.75 0.3613281250000011  20.546875 1.083984375  C 22.34375 1.806640624999999  23.938802083333336 2.8255208333333304  25.33203125 4.140625000000001  L 27.87109375 1.621093750000001  C 28.118489583333336 1.373697916666664  28.411458333333336 1.249999999999999  28.75 1.249999999999999  C 29.08854166666667 1.249999999999999  29.38151041666667 1.373697916666664  29.62890625 1.621093750000001  Z " fill-rule="nonzero" fill="#aaaaaa" stroke="none" transform="matrix(1 0 0 1 1602 1554 )" />
  </g>
</svg>