<?xml version="1.0" encoding="utf-8"?>
<svg version="1.1" xmlns:xlink="http://www.w3.org/1999/xlink" width="31px" height="31px" xmlns="http://www.w3.org/2000/svg">
  <g transform="matrix(1 0 0 1 -1601 -805 )">
    <path d="M 30.3037109375 18.275065104166668  C 30.431532118055557 18.40288628472222  30.495442708333336 18.55425347222222  30.495442708333336 18.729166666666668  C 30.495442708333336 18.79644097222222  30.488715277777782 18.843532986111107  30.475260416666664 18.870442708333332  C 29.614149305555557 22.476345486111107  27.811197916666664 25.3994140625  25.06640625 27.6396484375  C 22.321614583333336 29.8798828125  19.105902777777782 31  15.419270833333332 31  C 13.454861111111112 31  11.554361979166668 30.629991319444446  9.7177734375 29.889973958333336  C 7.881184895833333 29.149956597222218  6.243055555555556 28.09375  4.803385416666666 26.721354166666664  L 2.199869791666667 29.324869791666664  C 1.9442274305555558 29.580512152777782  1.6414930555555558 29.708333333333336  1.2916666666666665 29.708333333333336  C 0.9418402777777779 29.708333333333336  0.6391059027777778 29.580512152777782  0.38346354166666663 29.324869791666664  C 0.12782118055555555 29.069227430555554  0 28.766493055555554  0 28.416666666666664  L 0 19.375  C 0 19.025173611111107  0.12782118055555555 18.722439236111107  0.38346354166666663 18.466796875  C 0.6391059027777778 18.211154513888886  0.9418402777777779 18.083333333333332  1.2916666666666665 18.083333333333332  L 10.333333333333332 18.083333333333332  C 10.683159722222223 18.083333333333332  10.985894097222223 18.211154513888886  11.241536458333332 18.466796875  C 11.497178819444446 18.722439236111107  11.625 19.025173611111107  11.625 19.375  C 11.625 19.724826388888886  11.497178819444446 20.027560763888886  11.241536458333332 20.283203125  L 8.4765625 23.048177083333332  C 9.431857638888891 23.936197916666664  10.514973958333332 24.622395833333336  11.725911458333332 25.106770833333336  C 12.936848958333332 25.591145833333336  14.194878472222223 25.833333333333336  15.5 25.833333333333336  C 17.30295138888889 25.833333333333336  18.984809027777782 25.396050347222218  20.545572916666664 24.521484375  C 22.106336805555557 23.646918402777775  23.357638888888893 22.442708333333332  24.299479166666664 20.908854166666668  C 24.447482638888893 20.68012152777778  24.804036458333336 19.89301215277778  25.369140625 18.547526041666668  C 25.476779513888893 18.238064236111107  25.678602430555557 18.083333333333332  25.974609375 18.083333333333332  L 29.849609375 18.083333333333332  C 30.024522569444446 18.083333333333332  30.175889756944446 18.147243923611107  30.3037109375 18.275065104166668  Z M 30.616536458333336 1.6751302083333344  C 30.872178819444443 1.9307725694444424  31 2.2335069444444424  31 2.5833333333333344  L 31 11.625  C 31 11.97482638888889  30.872178819444443 12.27756076388889  30.616536458333336 12.533203125  C 30.360894097222225 12.78884548611111  30.058159722222225 12.916666666666666  29.708333333333336 12.916666666666666  L 20.666666666666664 12.916666666666666  C 20.316840277777782 12.916666666666666  20.014105902777782 12.78884548611111  19.758463541666664 12.533203125  C 19.502821180555557 12.27756076388889  19.375000000000004 11.97482638888889  19.375 11.625  C 19.375000000000004 11.275173611111107  19.502821180555557 10.972439236111107  19.758463541666664 10.716796875  L 22.543619791666664 7.931640625  C 20.552300347222225 6.088324652777773  18.204427083333336 5.166666666666665  15.5 5.166666666666665  C 13.697048611111112 5.166666666666665  12.015190972222223 5.603949652777773  10.454427083333332 6.478515625  C 8.893663194444446 7.35308159722222  7.6423611111111125 8.557291666666666  6.700520833333334 10.091145833333334  C 6.552517361111112 10.31987847222222  6.195963541666666 11.10698784722222  5.630859375 12.452473958333334  C 5.523220486111112 12.76193576388889  5.3213975694444455 12.916666666666666  5.025390625 12.916666666666666  L 1.0091145833333335 12.916666666666666  C 0.8342013888888888 12.916666666666666  0.682834201388889 12.85275607638889  0.5550130208333333 12.724934895833334  C 0.42719184027777785 12.597113715277777  0.36328125 12.445746527777777  0.36328125 12.270833333333334  L 0.36328125 12.129557291666666  C 1.2378472222222223 8.52365451388889  3.0542534722222228 5.6005859375  5.8125 3.3603515625  C 8.570746527777779 1.1201171875  11.799913194444446 0  15.5 0  C 17.46440972222222 0  19.375 0.3733723958333345  21.231770833333336 1.1201171875  C 23.088541666666664 1.8668619791666656  24.736762152777782 2.919704861111108  26.176432291666664 4.278645833333335  L 28.800130208333336 1.6751302083333344  C 29.055772569444446 1.4194878472222197  29.358506944444446 1.2916666666666656  29.708333333333336 1.2916666666666656  C 30.058159722222225 1.2916666666666656  30.360894097222225 1.4194878472222197  30.616536458333336 1.6751302083333344  Z " fill-rule="nonzero" fill="#aaaaaa" stroke="none" transform="matrix(1 0 0 1 1601 805 )" />
  </g>
</svg>