<?xml version="1.0" encoding="utf-8"?>
<svg version="1.1" xmlns:xlink="http://www.w3.org/1999/xlink" width="25px" height="25px" xmlns="http://www.w3.org/2000/svg">
  <g transform="matrix(1 0 0 1 -1698 -1555 )">
    <path d="M 18.017578125 15.104166666666668  C 18.017578125 15.245225694444443  17.96332465277778 15.370008680555552  17.854817708333336 15.478515625  L 15.478515625 17.854817708333332  C 15.370008680555555 17.963324652777775  15.245225694444445 18.017578125  15.104166666666666 18.017578125  C 14.963107638888893 18.017578125  14.838324652777779 17.963324652777775  14.729817708333334 17.854817708333332  L 12.5 15.625  L 10.270182291666668 17.854817708333332  C 10.161675347222223 17.963324652777775  10.036892361111112 18.017578125  9.895833333333332 18.017578125  C 9.754774305555557 18.017578125  9.629991319444446 17.963324652777775  9.521484375 17.854817708333332  L 7.145182291666667 15.478515625  C 7.036675347222222 15.370008680555552  6.982421875000002 15.245225694444443  6.982421875 15.104166666666668  C 6.982421875000002 14.96310763888889  7.036675347222222 14.838324652777779  7.145182291666667 14.729817708333332  L 9.375 12.5  L 7.145182291666667 10.270182291666666  C 7.036675347222222 10.161675347222221  6.982421875000002 10.03689236111111  6.982421875 9.895833333333334  C 6.982421875000002 9.754774305555555  7.036675347222222 9.629991319444443  7.145182291666667 9.521484375  L 9.521484375 7.145182291666666  C 9.629991319444446 7.036675347222221  9.754774305555557 6.982421875  9.895833333333332 6.982421875  C 10.036892361111112 6.982421875  10.161675347222223 7.036675347222221  10.270182291666668 7.145182291666666  L 12.5 9.375  L 14.729817708333334 7.145182291666666  C 14.838324652777779 7.036675347222221  14.963107638888893 6.982421875  15.104166666666666 6.982421875  C 15.245225694444445 6.982421875  15.370008680555555 7.036675347222221  15.478515625 7.145182291666666  L 17.854817708333336 9.521484375  C 17.96332465277778 9.629991319444443  18.017578125 9.754774305555555  18.017578125 9.895833333333334  C 18.017578125 10.03689236111111  17.96332465277778 10.161675347222221  17.854817708333336 10.270182291666666  L 15.625 12.5  L 17.854817708333336 14.729817708333332  C 17.96332465277778 14.838324652777779  18.017578125 14.96310763888889  18.017578125 15.104166666666668  Z M 20.166015625 16.943359375  C 20.958116319444446 15.587022569444443  21.354166666666664 14.105902777777779  21.354166666666664 12.5  C 21.354166666666664 10.894097222222221  20.958116319444446 9.412977430555555  20.166015625 8.056640625  C 19.373914930555557 6.700303819444442  18.299696180555557 5.626085069444442  16.943359375 4.833984375  C 15.587022569444445 4.041883680555555  14.105902777777779 3.6458333333333344  12.5 3.6458333333333344  C 10.894097222222223 3.6458333333333344  9.412977430555557 4.041883680555555  8.056640625 4.833984375  C 6.700303819444445 5.626085069444442  5.626085069444445 6.700303819444442  4.833984375 8.056640625  C 4.041883680555556 9.412977430555555  3.6458333333333335 10.894097222222221  3.6458333333333335 12.5  C 3.6458333333333335 14.105902777777779  4.041883680555556 15.587022569444443  4.833984375 16.943359375  C 5.626085069444445 18.299696180555554  6.700303819444445 19.373914930555554  8.056640625 20.166015625  C 9.412977430555557 20.958116319444446  10.894097222222223 21.354166666666664  12.5 21.354166666666664  C 14.105902777777779 21.354166666666664  15.587022569444445 20.958116319444446  16.943359375 20.166015625  C 18.299696180555557 19.373914930555554  19.373914930555557 18.299696180555554  20.166015625 16.943359375  Z M 23.323567708333336 6.2255859375  C 24.441189236111107 8.140733506944443  25 10.232204861111107  25 12.5  C 25 14.76779513888889  24.441189236111107 16.859266493055554  23.323567708333336 18.7744140625  C 22.205946180555557 20.689561631944446  20.689561631944446 22.205946180555554  18.7744140625 23.323567708333336  C 16.859266493055557 24.441189236111114  14.76779513888889 25  12.5 25  C 10.232204861111112 25  8.140733506944445 24.441189236111114  6.2255859375 23.323567708333336  C 4.310438368055556 22.205946180555554  2.7940538194444446 20.689561631944446  1.6764322916666667 18.7744140625  C 0.5588107638888888 16.859266493055554  0 14.76779513888889  0 12.5  C 0 10.232204861111107  0.5588107638888888 8.140733506944443  1.6764322916666667 6.2255859375  C 2.7940538194444446 4.310438368055555  4.310438368055556 2.794053819444442  6.2255859375 1.6764322916666656  C 8.140733506944445 0.5588107638888867  10.232204861111112 0  12.5 0  C 14.76779513888889 0  16.859266493055557 0.5588107638888867  18.7744140625 1.6764322916666656  C 20.689561631944446 2.794053819444442  22.205946180555557 4.310438368055555  23.323567708333336 6.2255859375  Z " fill-rule="nonzero" fill="#d7d7d7" stroke="none" transform="matrix(1 0 0 1 1698 1555 )" />
  </g>
</svg>