<?xml version="1.0" encoding="utf-8"?>
<svg version="1.1" xmlns:xlink="http://www.w3.org/1999/xlink" width="85px" height="80px" xmlns="http://www.w3.org/2000/svg">
  <g transform="matrix(1 0 0 1 -215 -555 )">
    <path d="M 22.666666666666668 28.57142857142857  C 22.666666666666668 32.70833333333333  23.861979166666664 36.517857142857146  26.252604166666664 40  C 21.471354166666668 40.148809523809526  17.56076388888889 42.05357142857142  14.520833333333334 45.71428571428571  L 8.588541666666666 45.71428571428571  C 6.168402777777777 45.71428571428571  4.1319444444444455 45.111607142857146  2.4791666666666665 43.90625  C 0.8263888888888887 42.700892857142854  0 40.9375  0 38.61607142857143  C 0 28.110119047619044  1.8298611111111107 22.857142857142854  5.489583333333334 22.857142857142854  C 5.666666666666667 22.857142857142854  6.30859375 23.169642857142854  7.415364583333333 23.794642857142854  C 8.522135416666668 24.419642857142854  9.9609375 25.05208333333333  11.731770833333334 25.69196428571429  C 13.502604166666666 26.331845238095237  15.258680555555555 26.65178571428571  17 26.65178571428571  C 18.977430555555557 26.65178571428571  20.940104166666668 26.309523809523803  22.888020833333336 25.625  C 22.74045138888889 26.726190476190467  22.666666666666668 27.70833333333333  22.666666666666668 28.57142857142857  Z M 73.51171875 63.81696428571429  C 73.61501736111111 65.31994047619048  73.66666666666667 66.86011904761905  73.66666666666667 68.4375  C 73.66666666666667 72.00892857142857  72.58940972222223 74.82886904761905  70.43489583333333 76.89732142857143  C 68.28038194444446 78.96577380952381  65.41753472222223 80  61.84635416666667 80  L 23.153645833333332 80  C 19.58246527777778 80  16.71961805555556 78.96577380952381  14.565104166666666 76.89732142857143  C 12.410590277777779 74.82886904761905  11.333333333333334 72.00892857142857  11.333333333333334 68.4375  C 11.333333333333334 66.86011904761905  11.38498263888889 65.31994047619048  11.48828125 63.81696428571429  C 11.591579861111114 62.313988095238095  11.798177083333332 60.69196428571429  12.108072916666668 58.950892857142854  C 12.41796875 57.20982142857142  12.809027777777779 55.595238095238095  13.28125 54.107142857142854  C 13.753472222222223 52.619047619047606  14.388020833333334 51.16815476190475  15.184895833333334 49.75446428571429  C 15.981770833333334 48.3407738095238  16.89670138888889 47.13541666666666  17.9296875 46.138392857142854  C 18.96267361111111 45.14136904761905  20.224392361111114 44.345238095238095  21.714843750000004 43.75  C 23.205295138888893 43.1547619047619  24.850694444444446 42.857142857142854  26.651041666666668 42.857142857142854  C 26.946180555555557 42.857142857142854  27.580729166666664 43.17708333333333  28.5546875 43.81696428571429  C 29.528645833333336 44.45684523809524  30.60590277777778 45.17113095238095  31.786458333333332 45.95982142857142  C 32.96701388888889 46.7485119047619  34.54600694444445 47.462797619047606  36.5234375 48.10267857142858  C 38.50086805555556 48.742559523809526  40.49305555555556 49.0625  42.5 49.0625  C 44.50694444444445 49.0625  46.49913194444445 48.742559523809526  48.4765625 48.10267857142858  C 50.453993055555564 47.462797619047606  52.03298611111112 46.7485119047619  53.21354166666667 45.95982142857142  C 54.39409722222222 45.17113095238095  55.471354166666664 44.45684523809524  56.4453125 43.81696428571429  C 57.419270833333336 43.17708333333333  58.05381944444445 42.857142857142854  58.34895833333333 42.857142857142854  C 60.14930555555556 42.857142857142854  61.79470486111112 43.1547619047619  63.28515625 43.75  C 64.7756076388889 44.345238095238095  66.03732638888889 45.14136904761905  67.0703125 46.138392857142854  C 68.10329861111113 47.13541666666666  69.01822916666667 48.3407738095238  69.81510416666667 49.75446428571429  C 70.61197916666666 51.16815476190475  71.24652777777779 52.619047619047606  71.71875 54.107142857142854  C 72.19097222222223 55.595238095238095  72.58203125 57.20982142857142  72.89192708333333 58.950892857142854  C 73.20182291666667 60.69196428571429  73.4084201388889 62.313988095238095  73.51171875 63.81696428571429  Z M 25.013020833333332 3.3482142857142883  C 27.2265625 5.580357142857144  28.333333333333332 8.273809523809517  28.333333333333332 11.428571428571432  C 28.333333333333332 14.58333333333333  27.2265625 17.27678571428571  25.013020833333332 19.50892857142857  C 22.799479166666668 21.74107142857143  20.128472222222225 22.857142857142854  17 22.857142857142854  C 13.87152777777778 22.857142857142854  11.200520833333334 21.74107142857143  8.986979166666666 19.50892857142857  C 6.773437499999999 17.27678571428571  5.666666666666667 14.58333333333333  5.666666666666667 11.428571428571432  C 5.666666666666667 8.273809523809517  6.773437499999999 5.580357142857144  8.986979166666666 3.3482142857142883  C 11.200520833333334 1.1160714285714324  13.87152777777778 0  17 0  C 20.128472222222225 0  22.799479166666668 1.1160714285714324  25.013020833333332 3.3482142857142883  Z M 54.51953124999999 16.450892857142854  C 57.83984374999999 19.799107142857146  59.49999999999999 23.83928571428571  59.49999999999999 28.57142857142857  C 59.49999999999999 33.30357142857143  57.83984374999999 37.34375  54.51953124999999 40.69196428571429  C 51.19921874999999 44.04017857142858  47.19270833333333 45.71428571428571  42.5 45.71428571428571  C 37.80729166666667 45.71428571428571  33.80078125000001 44.04017857142858  30.48046875 40.69196428571429  C 27.16015625 37.34375  25.5 33.30357142857143  25.5 28.57142857142857  C 25.5 23.83928571428571  27.16015625 19.799107142857146  30.48046875 16.450892857142854  C 33.80078125000001 13.102678571428568  37.80729166666667 11.428571428571432  42.5 11.428571428571432  C 47.19270833333333 11.428571428571432  51.19921874999999 13.102678571428568  54.51953124999999 16.450892857142854  Z M 79.51041666666667 22.857142857142854  C 83.1701388888889 22.857142857142854  85.00000000000001 28.110119047619044  85 38.61607142857143  C 85.00000000000001 40.9375  84.17361111111111 42.700892857142854  82.52083333333333 43.90625  C 80.86805555555556 45.111607142857146  78.83159722222223 45.71428571428571  76.41145833333333 45.71428571428571  L 70.47916666666667 45.71428571428571  C 67.43923611111113 42.05357142857142  63.528645833333336 40.148809523809526  58.747395833333336 40  C 61.13802083333333 36.517857142857146  62.33333333333333 32.70833333333333  62.33333333333333 28.57142857142857  C 62.33333333333333 27.70833333333333  62.259548611111114 26.726190476190467  62.111979166666664 25.625  C 64.05989583333333 26.309523809523803  66.02256944444446 26.65178571428571  68 26.65178571428571  C 69.74131944444444 26.65178571428571  71.49739583333334 26.331845238095237  73.26822916666666 25.69196428571429  C 75.0390625 25.05208333333333  76.47786458333334 24.419642857142854  77.58463541666666 23.794642857142854  C 78.69140625 23.169642857142854  79.33333333333333 22.857142857142854  79.51041666666667 22.857142857142854  Z M 76.01302083333333 3.3482142857142883  C 78.2265625 5.580357142857144  79.33333333333333 8.273809523809517  79.33333333333333 11.428571428571432  C 79.33333333333333 14.58333333333333  78.2265625 17.27678571428571  76.01302083333333 19.50892857142857  C 73.79947916666667 21.74107142857143  71.12847222222223 22.857142857142854  68 22.857142857142854  C 64.87152777777779 22.857142857142854  62.200520833333336 21.74107142857143  59.986979166666664 19.50892857142857  C 57.7734375 17.27678571428571  56.666666666666664 14.58333333333333  56.666666666666664 11.428571428571432  C 56.666666666666664 8.273809523809517  57.7734375 5.580357142857144  59.986979166666664 3.3482142857142883  C 62.200520833333336 1.1160714285714324  64.87152777777779 0  68 0  C 71.12847222222223 0  73.79947916666667 1.1160714285714324  76.01302083333333 3.3482142857142883  Z " fill-rule="nonzero" fill="#6b6c7e" stroke="none" transform="matrix(1 0 0 1 215 555 )" />
  </g>
</svg>