<?xml version="1.0" encoding="utf-8"?>
<svg version="1.1" xmlns:xlink="http://www.w3.org/1999/xlink" width="19px" height="19px" viewBox="263 1605.5  19 19" xmlns="http://www.w3.org/2000/svg">
  <path d="M 272.5 1605.5  C 277.82 1605.5  282 1609.68  282 1615  C 282 1620.32  277.82 1624.5  272.5 1624.5  C 267.18 1624.5  263 1620.32  263 1615  C 263 1609.68  267.18 1605.5  272.5 1605.5  Z " fill-rule="nonzero" fill="#ffffff" stroke="none" />
  <path d="M 272.5 1606  C 277.54 1606  281.5 1609.96  281.5 1615  C 281.5 1620.04  277.54 1624  272.5 1624  C 267.46 1624  263.5 1620.04  263.5 1615  C 263.5 1609.96  267.46 1606  272.5 1606  Z " stroke-width="1" stroke="#f59a23" fill="none" />
  <path d="M 272.5 1619.75  C 269.84 1619.75  267.75 1617.66  267.75 1615  C 267.75 1612.34  269.84 1610.25  272.5 1610.25  C 275.16 1610.25  277.25 1612.34  277.25 1615  C 277.25 1617.66  275.16 1619.75  272.5 1619.75  " fill-rule="nonzero" fill="#f59a23" stroke="none" />
</svg>