<?xml version="1.0" encoding="utf-8"?>
<svg version="1.1" xmlns:xlink="http://www.w3.org/1999/xlink" width="25px" height="23px" xmlns="http://www.w3.org/2000/svg">
  <g transform="matrix(1 0 0 1 -1211 -2607 )">
    <path d="M 18.9453125 20.798828125  C 19.13561698717949 20.60915798611111  19.230769230769234 20.38454861111111  19.230769230769234 20.125  C 19.230769230769234 19.86545138888889  19.13561698717949 19.64084201388889  18.9453125 19.451171875  C 18.755008012820515 19.26150173611111  18.529647435897438 19.166666666666668  18.269230769230766 19.166666666666668  C 18.008814102564102 19.166666666666668  17.783453525641026 19.26150173611111  17.59314903846154 19.451171875  C 17.402844551282055 19.64084201388889  17.307692307692307 19.86545138888889  17.307692307692307 20.125  C 17.307692307692307 20.38454861111111  17.402844551282055 20.60915798611111  17.59314903846154 20.798828125  C 17.783453525641026 20.98849826388889  18.008814102564102 21.083333333333332  18.269230769230766 21.083333333333332  C 18.529647435897438 21.083333333333332  18.755008012820515 20.98849826388889  18.9453125 20.798828125  Z M 22.791466346153847 20.798828125  C 22.981770833333332 20.60915798611111  23.076923076923077 20.38454861111111  23.076923076923077 20.125  C 23.076923076923077 19.86545138888889  22.981770833333332 19.64084201388889  22.791466346153847 19.451171875  C 22.60116185897436 19.26150173611111  22.375801282051285 19.166666666666668  22.115384615384613 19.166666666666668  C 21.85496794871795 19.166666666666668  21.629607371794872 19.26150173611111  21.439302884615387 19.451171875  C 21.2489983974359 19.64084201388889  21.153846153846153 19.86545138888889  21.153846153846153 20.125  C 21.153846153846153 20.38454861111111  21.2489983974359 20.60915798611111  21.439302884615387 20.798828125  C 21.629607371794872 20.98849826388889  21.85496794871795 21.083333333333332  22.115384615384613 21.083333333333332  C 22.375801282051285 21.083333333333332  22.60116185897436 20.98849826388889  22.791466346153847 20.798828125  Z M 24.579326923076923 15.752604166666664  C 24.859775641025642 16.03211805555555  25 16.37152777777778  25 16.770833333333336  L 25 21.5625  C 25 21.961805555555557  24.859775641025642 22.301215277777775  24.579326923076923 22.580729166666668  C 24.298878205128208 22.860243055555557  23.958333333333336 23  23.557692307692307 23  L 1.4423076923076923 23  C 1.0416666666666667 23  0.7011217948717949 22.860243055555557  0.4206730769230769 22.580729166666668  C 0.14022435897435895 22.301215277777775  0 21.961805555555557  0 21.5625  L 0 16.770833333333336  C 0 16.37152777777778  0.14022435897435895 16.03211805555555  0.4206730769230769 15.752604166666664  C 0.7011217948717949 15.473090277777779  1.0416666666666667 15.333333333333336  1.4423076923076923 15.333333333333336  L 8.428485576923077 15.333333333333336  L 10.45673076923077 17.369791666666668  C 11.037660256410257 17.928819444444443  11.71875 18.208333333333332  12.5 18.208333333333332  C 13.28125 18.208333333333332  13.962339743589745 17.928819444444443  14.543269230769232 17.369791666666668  L 16.58653846153846 15.333333333333336  L 23.557692307692307 15.333333333333336  C 23.958333333333336 15.333333333333336  24.298878205128208 15.473090277777779  24.579326923076923 15.752604166666664  Z M 19.230769230769234 7.666666666666668  C 19.651442307692307 7.666666666666668  19.946915064102566 7.861328125  20.1171875 8.250651041666668  C 20.287459935897438 8.65993923611111  20.21734775641026 9.009331597222221  19.90685096153846 9.298828125  L 13.176081730769232 16.007161458333336  C 12.995793269230768 16.19683159722222  12.770432692307693 16.291666666666664  12.5 16.291666666666664  C 12.229567307692307 16.291666666666664  12.00420673076923 16.19683159722222  11.82391826923077 16.007161458333336  L 5.093149038461538 9.298828125  C 4.782652243589744 9.009331597222221  4.712540064102565 8.65993923611111  4.8828125 8.250651041666668  C 5.053084935897437 7.861328125  5.348557692307692 7.666666666666668  5.769230769230769 7.666666666666668  L 9.615384615384617 7.666666666666668  L 9.615384615384617 0.9583333333333325  C 9.615384615384617 0.6987847222222191  9.71053685897436 0.4741753472222191  9.900841346153847 0.2845052083333325  C 10.091145833333334 0.09483506944444586  10.31650641025641 0  10.576923076923077 0  L 14.423076923076922 0  C 14.683493589743591 0  14.908854166666668 0.09483506944444586  15.099158653846153 0.2845052083333325  C 15.289463141025642 0.4741753472222191  15.384615384615385 0.6987847222222191  15.384615384615385 0.9583333333333325  L 15.384615384615385 7.666666666666668  L 19.230769230769234 7.666666666666668  Z " fill-rule="nonzero" fill="#63a103" stroke="none" transform="matrix(1 0 0 1 1211 2607 )" />
  </g>
</svg>