<?xml version="1.0" encoding="utf-8"?>
<svg version="1.1" xmlns:xlink="http://www.w3.org/1999/xlink" width="19px" height="19px" viewBox="385 307  19 19" xmlns="http://www.w3.org/2000/svg">
  <path d="M 394.5 307  C 399.82 307  404 311.18  404 316.5  C 404 321.82  399.82 326  394.5 326  C 389.18 326  385 321.82  385 316.5  C 385 311.18  389.18 307  394.5 307  Z " fill-rule="nonzero" fill="#ffffff" stroke="none" />
  <path d="M 394.5 307.5  C 399.54 307.5  403.5 311.46  403.5 316.5  C 403.5 321.54  399.54 325.5  394.5 325.5  C 389.46 325.5  385.5 321.54  385.5 316.5  C 385.5 311.46  389.46 307.5  394.5 307.5  Z " stroke-width="1" stroke="#f59a23" fill="none" />
  <path d="M 394.5 321.25  C 391.84 321.25  389.75 319.16  389.75 316.5  C 389.75 313.84  391.84 311.75  394.5 311.75  C 397.16 311.75  399.25 313.84  399.25 316.5  C 399.25 319.16  397.16 321.25  394.5 321.25  " fill-rule="nonzero" fill="#f59a23" stroke="none" />
</svg>