<?xml version="1.0" encoding="utf-8"?>
<svg version="1.1" xmlns:xlink="http://www.w3.org/1999/xlink" width="19px" height="19px" viewBox="237 307  19 19" xmlns="http://www.w3.org/2000/svg">
  <path d="M 246.5 307  C 251.82 307  256 311.18  256 316.5  C 256 321.82  251.82 326  246.5 326  C 241.18 326  237 321.82  237 316.5  C 237 311.18  241.18 307  246.5 307  Z " fill-rule="nonzero" fill="#f0f0f0" stroke="none" />
  <path d="M 246.5 307.5  C 251.54 307.5  255.5 311.46  255.5 316.5  C 255.5 321.54  251.54 325.5  246.5 325.5  C 241.46 325.5  237.5 321.54  237.5 316.5  C 237.5 311.46  241.46 307.5  246.5 307.5  Z " stroke-width="1" stroke="#f59a23" fill="none" />
  <path d="M 246.5 321.25  C 243.84 321.25  241.75 319.16  241.75 316.5  C 241.75 313.84  243.84 311.75  246.5 311.75  C 249.16 311.75  251.25 313.84  251.25 316.5  C 251.25 319.16  249.16 321.25  246.5 321.25  " fill-rule="nonzero" fill="#f59a23" stroke="none" />
</svg>