<?xml version="1.0" encoding="utf-8"?>
<svg version="1.1" xmlns:xlink="http://www.w3.org/1999/xlink" width="19px" height="19px" viewBox="181 411.5  19 19" xmlns="http://www.w3.org/2000/svg">
  <path d="M 190.5 411.5  C 195.82 411.5  200 415.68  200 421  C 200 426.32  195.82 430.5  190.5 430.5  C 185.18 430.5  181 426.32  181 421  C 181 415.68  185.18 411.5  190.5 411.5  Z " fill-rule="nonzero" fill="#ffffff" stroke="none" />
  <path d="M 190.5 412  C 195.54 412  199.5 415.96  199.5 421  C 199.5 426.04  195.54 430  190.5 430  C 185.46 430  181.5 426.04  181.5 421  C 181.5 415.96  185.46 412  190.5 412  Z " stroke-width="1" stroke="#f59a23" fill="none" />
  <path d="M 190.5 425.75  C 187.84 425.75  185.75 423.66  185.75 421  C 185.75 418.34  187.84 416.25  190.5 416.25  C 193.16 416.25  195.25 418.34  195.25 421  C 195.25 423.66  193.16 425.75  190.5 425.75  " fill-rule="nonzero" fill="#f59a23" stroke="none" />
</svg>