<?xml version="1.0" encoding="utf-8"?>
<svg version="1.1" xmlns:xlink="http://www.w3.org/1999/xlink" width="19px" height="19px" viewBox="387 411.5  19 19" xmlns="http://www.w3.org/2000/svg">
  <path d="M 396.5 411.5  C 401.82 411.5  406 415.68  406 421  C 406 426.32  401.82 430.5  396.5 430.5  C 391.18 430.5  387 426.32  387 421  C 387 415.68  391.18 411.5  396.5 411.5  Z " fill-rule="nonzero" fill="#f0f0f0" stroke="none" />
  <path d="M 396.5 412  C 401.54 412  405.5 415.96  405.5 421  C 405.5 426.04  401.54 430  396.5 430  C 391.46 430  387.5 426.04  387.5 421  C 387.5 415.96  391.46 412  396.5 412  Z " stroke-width="1" stroke="#f59a23" fill="none" />
  <path d="M 396.5 425.75  C 393.84 425.75  391.75 423.66  391.75 421  C 391.75 418.34  393.84 416.25  396.5 416.25  C 399.16 416.25  401.25 418.34  401.25 421  C 401.25 423.66  399.16 425.75  396.5 425.75  " fill-rule="nonzero" fill="#f59a23" stroke="none" />
</svg>