<?xml version="1.0" encoding="utf-8"?>
<svg version="1.1" xmlns:xlink="http://www.w3.org/1999/xlink" width="19px" height="19px" viewBox="586 267  19 19" xmlns="http://www.w3.org/2000/svg">
  <path d="M 595.5 267  C 600.82 267  605 271.18  605 276.5  C 605 281.82  600.82 286  595.5 286  C 590.18 286  586 281.82  586 276.5  C 586 271.18  590.18 267  595.5 267  Z " fill-rule="nonzero" fill="#ffffff" stroke="none" />
  <path d="M 595.5 267.5  C 600.54 267.5  604.5 271.46  604.5 276.5  C 604.5 281.54  600.54 285.5  595.5 285.5  C 590.46 285.5  586.5 281.54  586.5 276.5  C 586.5 271.46  590.46 267.5  595.5 267.5  Z " stroke-width="1" stroke="#f59a23" fill="none" />
  <path d="M 595.5 281.25  C 592.84 281.25  590.75 279.16  590.75 276.5  C 590.75 273.84  592.84 271.75  595.5 271.75  C 598.16 271.75  600.25 273.84  600.25 276.5  C 600.25 279.16  598.16 281.25  595.5 281.25  " fill-rule="nonzero" fill="#f59a23" stroke="none" />
</svg>