<?xml version="1.0" encoding="utf-8"?>
<svg version="1.1" xmlns:xlink="http://www.w3.org/1999/xlink" width="19px" height="19px" viewBox="683 267  19 19" xmlns="http://www.w3.org/2000/svg">
  <path d="M 692.5 267  C 697.82 267  702 271.18  702 276.5  C 702 281.82  697.82 286  692.5 286  C 687.18 286  683 281.82  683 276.5  C 683 271.18  687.18 267  692.5 267  Z " fill-rule="nonzero" fill="#f0f0f0" stroke="none" />
  <path d="M 692.5 267.5  C 697.54 267.5  701.5 271.46  701.5 276.5  C 701.5 281.54  697.54 285.5  692.5 285.5  C 687.46 285.5  683.5 281.54  683.5 276.5  C 683.5 271.46  687.46 267.5  692.5 267.5  Z " stroke-width="1" stroke="#f59a23" fill="none" />
  <path d="M 692.5 281.25  C 689.84 281.25  687.75 279.16  687.75 276.5  C 687.75 273.84  689.84 271.75  692.5 271.75  C 695.16 271.75  697.25 273.84  697.25 276.5  C 697.25 279.16  695.16 281.25  692.5 281.25  " fill-rule="nonzero" fill="#f59a23" stroke="none" />
</svg>