<?xml version="1.0" encoding="utf-8"?>
<svg version="1.1" xmlns:xlink="http://www.w3.org/1999/xlink" width="19px" height="19px" viewBox="448 267  19 19" xmlns="http://www.w3.org/2000/svg">
  <path d="M 457.5 267  C 462.82 267  467 271.18  467 276.5  C 467 281.82  462.82 286  457.5 286  C 452.18 286  448 281.82  448 276.5  C 448 271.18  452.18 267  457.5 267  Z " fill-rule="nonzero" fill="#f0f0f0" stroke="none" />
  <path d="M 457.5 267.5  C 462.54 267.5  466.5 271.46  466.5 276.5  C 466.5 281.54  462.54 285.5  457.5 285.5  C 452.46 285.5  448.5 281.54  448.5 276.5  C 448.5 271.46  452.46 267.5  457.5 267.5  Z " stroke-width="1" stroke="#f59a23" fill="none" />
  <path d="M 457.5 281.25  C 454.84 281.25  452.75 279.16  452.75 276.5  C 452.75 273.84  454.84 271.75  457.5 271.75  C 460.16 271.75  462.25 273.84  462.25 276.5  C 462.25 279.16  460.16 281.25  457.5 281.25  " fill-rule="nonzero" fill="#f59a23" stroke="none" />
</svg>