<?xml version="1.0" encoding="utf-8"?>
<svg version="1.1" xmlns:xlink="http://www.w3.org/1999/xlink" width="19px" height="19px" viewBox="802 267  19 19" xmlns="http://www.w3.org/2000/svg">
  <path d="M 811.5 267  C 816.82 267  821 271.18  821 276.5  C 821 281.82  816.82 286  811.5 286  C 806.18 286  802 281.82  802 276.5  C 802 271.18  806.18 267  811.5 267  Z " fill-rule="nonzero" fill="#ffffff" stroke="none" />
  <path d="M 811.5 267.5  C 816.54 267.5  820.5 271.46  820.5 276.5  C 820.5 281.54  816.54 285.5  811.5 285.5  C 806.46 285.5  802.5 281.54  802.5 276.5  C 802.5 271.46  806.46 267.5  811.5 267.5  Z " stroke-width="1" stroke="#f59a23" fill="none" />
  <path d="M 811.5 281.25  C 808.84 281.25  806.75 279.16  806.75 276.5  C 806.75 273.84  808.84 271.75  811.5 271.75  C 814.16 271.75  816.25 273.84  816.25 276.5  C 816.25 279.16  814.16 281.25  811.5 281.25  " fill-rule="nonzero" fill="#f59a23" stroke="none" />
</svg>