<?xml version="1.0" encoding="utf-8"?>
<svg version="1.1" xmlns:xlink="http://www.w3.org/1999/xlink" width="19px" height="19px" viewBox="309 267  19 19" xmlns="http://www.w3.org/2000/svg">
  <path d="M 318.5 267  C 323.82 267  328 271.18  328 276.5  C 328 281.82  323.82 286  318.5 286  C 313.18 286  309 281.82  309 276.5  C 309 271.18  313.18 267  318.5 267  Z " fill-rule="nonzero" fill="#ffffff" stroke="none" />
  <path d="M 318.5 267.5  C 323.54 267.5  327.5 271.46  327.5 276.5  C 327.5 281.54  323.54 285.5  318.5 285.5  C 313.46 285.5  309.5 281.54  309.5 276.5  C 309.5 271.46  313.46 267.5  318.5 267.5  Z " stroke-width="1" stroke="#f59a23" fill="none" />
  <path d="M 318.5 281.25  C 315.84 281.25  313.75 279.16  313.75 276.5  C 313.75 273.84  315.84 271.75  318.5 271.75  C 321.16 271.75  323.25 273.84  323.25 276.5  C 323.25 279.16  321.16 281.25  318.5 281.25  " fill-rule="nonzero" fill="#f59a23" stroke="none" />
</svg>