<?xml version="1.0" encoding="utf-8"?>
<svg version="1.1" xmlns:xlink="http://www.w3.org/1999/xlink" width="7px" height="10px" xmlns="http://www.w3.org/2000/svg">
  <defs>
    <mask fill="white" id="clip64">
      <path d="M 1.8097664250267878 0.2541353926062584  C 1.405811177359687 -0.08619006723165512  0.7254655824767219 -0.08618984371423721  0.3108799457550049 0.2630915492773056  C 0.21233234968450335 0.3459461685270071  0.13414836012654835 0.4443617258220911  0.08080345061090258 0.5527046322822571  C 0.0274585410952568 0.6610475387424231  0 0.7771903090178967  0 0.894484743475914  C 0 1.0117791779339314  0.0274585410952568 1.127921948209405  0.08080345061090258 1.236264854669571  C 0.13414836012654835 1.344607761129737  0.21233234968450335 1.4430233929306269  0.3108799457550049 1.5258780121803284  C 0.3108799457550049 1.5258780121803284  4.435474978552925 5.00078022480011  4.435474978552925 5.00078022480011  C 4.435474978552925 5.00078022480011  0.3108799457550049 8.475682139396667  0.3108799457550049 8.475682139396667  C 0.11211522089110479 8.64313805475831  0.00045012461487203847 8.87025572359562  0.00045012461487203847 9.10707414150238  C 0.00045012461487203847 9.343892559409142  0.11211522089110479 9.57101320847869  0.3108799457550049 9.738469123840332  C 0.5096446706189051 9.905925039201975  0.7792274289660984 9.999999999999996  1.0603231853908963 10  C 1.3414189418156943 10  1.6110017001628878 9.905925039201975  1.8097664250267878 9.738469123840332  C 1.8097664250267878 9.738469123840332  4.2494437959459095 7.683082222938538  4.2494437959459095 7.683082222938538  C 4.2494437959459095 7.683082222938538  6.689121352301704 5.627695322036743  6.689121352301704 5.627695322036743  C 6.787668948372206 5.544840702787042  6.865852173003885 5.446425219997764  6.919197082519531 5.338082313537598  C 6.972541992035177 5.229739407077432  7 5.113596264272928  7 4.996301829814911  C 7 4.8790073953568935  6.972541992035177 4.762864848598838  6.919197082519531 4.654521942138672  C 6.865852173003885 4.546179035678506  6.787668948372206 4.447763552889228  6.689121352301704 4.364908933639526  C 6.689121352301704 4.364908933639526  1.8097664250267878 0.2541353926062584  1.8097664250267878 0.2541353926062584  Z " fill-rule="evenodd" />
    </mask>
  </defs>
  <g transform="matrix(1 0 0 1 -22 -77 )">
    <path d="M 1.8097664250267878 0.2541353926062584  C 1.405811177359687 -0.08619006723165512  0.7254655824767219 -0.08618984371423721  0.3108799457550049 0.2630915492773056  C 0.21233234968450335 0.3459461685270071  0.13414836012654835 0.4443617258220911  0.08080345061090258 0.5527046322822571  C 0.0274585410952568 0.6610475387424231  0 0.7771903090178967  0 0.894484743475914  C 0 1.0117791779339314  0.0274585410952568 1.127921948209405  0.08080345061090258 1.236264854669571  C 0.13414836012654835 1.344607761129737  0.21233234968450335 1.4430233929306269  0.3108799457550049 1.5258780121803284  C 0.3108799457550049 1.5258780121803284  4.435474978552925 5.00078022480011  4.435474978552925 5.00078022480011  C 4.435474978552925 5.00078022480011  0.3108799457550049 8.475682139396667  0.3108799457550049 8.475682139396667  C 0.11211522089110479 8.64313805475831  0.00045012461487203847 8.87025572359562  0.00045012461487203847 9.10707414150238  C 0.00045012461487203847 9.343892559409142  0.11211522089110479 9.57101320847869  0.3108799457550049 9.738469123840332  C 0.5096446706189051 9.905925039201975  0.7792274289660984 9.999999999999996  1.0603231853908963 10  C 1.3414189418156943 10  1.6110017001628878 9.905925039201975  1.8097664250267878 9.738469123840332  C 1.8097664250267878 9.738469123840332  4.2494437959459095 7.683082222938538  4.2494437959459095 7.683082222938538  C 4.2494437959459095 7.683082222938538  6.689121352301704 5.627695322036743  6.689121352301704 5.627695322036743  C 6.787668948372206 5.544840702787042  6.865852173003885 5.446425219997764  6.919197082519531 5.338082313537598  C 6.972541992035177 5.229739407077432  7 5.113596264272928  7 4.996301829814911  C 7 4.8790073953568935  6.972541992035177 4.762864848598838  6.919197082519531 4.654521942138672  C 6.865852173003885 4.546179035678506  6.787668948372206 4.447763552889228  6.689121352301704 4.364908933639526  C 6.689121352301704 4.364908933639526  1.8097664250267878 0.2541353926062584  1.8097664250267878 0.2541353926062584  Z " fill-rule="nonzero" fill="#727272" stroke="none" transform="matrix(1 0 0 1 22 77 )" />
    <path d="M 1.8097664250267878 0.2541353926062584  C 1.405811177359687 -0.08619006723165512  0.7254655824767219 -0.08618984371423721  0.3108799457550049 0.2630915492773056  C 0.21233234968450335 0.3459461685270071  0.13414836012654835 0.4443617258220911  0.08080345061090258 0.5527046322822571  C 0.0274585410952568 0.6610475387424231  0 0.7771903090178967  0 0.894484743475914  C 0 1.0117791779339314  0.0274585410952568 1.127921948209405  0.08080345061090258 1.236264854669571  C 0.13414836012654835 1.344607761129737  0.21233234968450335 1.4430233929306269  0.3108799457550049 1.5258780121803284  C 0.3108799457550049 1.5258780121803284  4.435474978552925 5.00078022480011  4.435474978552925 5.00078022480011  C 4.435474978552925 5.00078022480011  0.3108799457550049 8.475682139396667  0.3108799457550049 8.475682139396667  C 0.11211522089110479 8.64313805475831  0.00045012461487203847 8.87025572359562  0.00045012461487203847 9.10707414150238  C 0.00045012461487203847 9.343892559409142  0.11211522089110479 9.57101320847869  0.3108799457550049 9.738469123840332  C 0.5096446706189051 9.905925039201975  0.7792274289660984 9.999999999999996  1.0603231853908963 10  C 1.3414189418156943 10  1.6110017001628878 9.905925039201975  1.8097664250267878 9.738469123840332  C 1.8097664250267878 9.738469123840332  4.2494437959459095 7.683082222938538  4.2494437959459095 7.683082222938538  C 4.2494437959459095 7.683082222938538  6.689121352301704 5.627695322036743  6.689121352301704 5.627695322036743  C 6.787668948372206 5.544840702787042  6.865852173003885 5.446425219997764  6.919197082519531 5.338082313537598  C 6.972541992035177 5.229739407077432  7 5.113596264272928  7 4.996301829814911  C 7 4.8790073953568935  6.972541992035177 4.762864848598838  6.919197082519531 4.654521942138672  C 6.865852173003885 4.546179035678506  6.787668948372206 4.447763552889228  6.689121352301704 4.364908933639526  C 6.689121352301704 4.364908933639526  1.8097664250267878 0.2541353926062584  1.8097664250267878 0.2541353926062584  Z " stroke-width="4" stroke="#d9d9d9" fill="none" transform="matrix(1 0 0 1 22 77 )" mask="url(#clip64)" />
  </g>
</svg>