<?xml version="1.0" encoding="utf-8"?>
<svg version="1.1" xmlns:xlink="http://www.w3.org/1999/xlink" width="19px" height="19px" viewBox="637 568  19 19" xmlns="http://www.w3.org/2000/svg">
  <path d="M 646.5 568  C 651.82 568  656 572.18  656 577.5  C 656 582.82  651.82 587  646.5 587  C 641.18 587  637 582.82  637 577.5  C 637 572.18  641.18 568  646.5 568  Z " fill-rule="nonzero" fill="#f0f0f0" stroke="none" />
  <path d="M 646.5 568.5  C 651.54 568.5  655.5 572.46  655.5 577.5  C 655.5 582.54  651.54 586.5  646.5 586.5  C 641.46 586.5  637.5 582.54  637.5 577.5  C 637.5 572.46  641.46 568.5  646.5 568.5  Z " stroke-width="1" stroke="#f59a23" fill="none" />
  <path d="M 646.5 582.25  C 643.84 582.25  641.75 580.16  641.75 577.5  C 641.75 574.84  643.84 572.75  646.5 572.75  C 649.16 572.75  651.25 574.84  651.25 577.5  C 651.25 580.16  649.16 582.25  646.5 582.25  " fill-rule="nonzero" fill="#f59a23" stroke="none" />
</svg>