<?xml version="1.0" encoding="utf-8"?>
<svg version="1.1" xmlns:xlink="http://www.w3.org/1999/xlink" width="19px" height="19px" viewBox="512 568  19 19" xmlns="http://www.w3.org/2000/svg">
  <path d="M 521.5 568  C 526.82 568  531 572.18  531 577.5  C 531 582.82  526.82 587  521.5 587  C 516.18 587  512 582.82  512 577.5  C 512 572.18  516.18 568  521.5 568  Z " fill-rule="nonzero" fill="#f0f0f0" stroke="none" />
  <path d="M 521.5 568.5  C 526.54 568.5  530.5 572.46  530.5 577.5  C 530.5 582.54  526.54 586.5  521.5 586.5  C 516.46 586.5  512.5 582.54  512.5 577.5  C 512.5 572.46  516.46 568.5  521.5 568.5  Z " stroke-width="1" stroke="#f59a23" fill="none" />
  <path d="M 521.5 582.25  C 518.84 582.25  516.75 580.16  516.75 577.5  C 516.75 574.84  518.84 572.75  521.5 572.75  C 524.16 572.75  526.25 574.84  526.25 577.5  C 526.25 580.16  524.16 582.25  521.5 582.25  " fill-rule="nonzero" fill="#f59a23" stroke="none" />
</svg>