<?xml version="1.0" encoding="utf-8"?>
<svg version="1.1" xmlns:xlink="http://www.w3.org/1999/xlink" width="19px" height="19px" viewBox="356 1999.5  19 19" xmlns="http://www.w3.org/2000/svg">
  <path d="M 365.5 1999.5  C 370.82 1999.5  375 2003.68  375 2009  C 375 2014.32  370.82 2018.5  365.5 2018.5  C 360.18 2018.5  356 2014.32  356 2009  C 356 2003.68  360.18 1999.5  365.5 1999.5  Z " fill-rule="nonzero" fill="#ffffff" stroke="none" />
  <path d="M 365.5 2000  C 370.54 2000  374.5 2003.96  374.5 2009  C 374.5 2014.04  370.54 2018  365.5 2018  C 360.46 2018  356.5 2014.04  356.5 2009  C 356.5 2003.96  360.46 2000  365.5 2000  Z " stroke-width="1" stroke="#f59a23" fill="none" />
  <path d="M 365.5 2013.75  C 362.84 2013.75  360.75 2011.66  360.75 2009  C 360.75 2006.34  362.84 2004.25  365.5 2004.25  C 368.16 2004.25  370.25 2006.34  370.25 2009  C 370.25 2011.66  368.16 2013.75  365.5 2013.75  " fill-rule="nonzero" fill="#f59a23" stroke="none" />
</svg>