<?xml version="1.0" encoding="utf-8"?>
<svg version="1.1" xmlns:xlink="http://www.w3.org/1999/xlink" width="19px" height="19px" viewBox="836 1471.5  19 19" xmlns="http://www.w3.org/2000/svg">
  <path d="M 845.5 1471.5  C 850.82 1471.5  855 1475.68  855 1481  C 855 1486.32  850.82 1490.5  845.5 1490.5  C 840.18 1490.5  836 1486.32  836 1481  C 836 1475.68  840.18 1471.5  845.5 1471.5  Z " fill-rule="nonzero" fill="#ffffff" stroke="none" />
  <path d="M 845.5 1472  C 850.54 1472  854.5 1475.96  854.5 1481  C 854.5 1486.04  850.54 1490  845.5 1490  C 840.46 1490  836.5 1486.04  836.5 1481  C 836.5 1475.96  840.46 1472  845.5 1472  Z " stroke-width="1" stroke="#f59a23" fill="none" />
  <path d="M 845.5 1485.75  C 842.84 1485.75  840.75 1483.66  840.75 1481  C 840.75 1478.34  842.84 1476.25  845.5 1476.25  C 848.16 1476.25  850.25 1478.34  850.25 1481  C 850.25 1483.66  848.16 1485.75  845.5 1485.75  " fill-rule="nonzero" fill="#f59a23" stroke="none" />
</svg>