<?xml version="1.0" encoding="utf-8"?>
<svg version="1.1" xmlns:xlink="http://www.w3.org/1999/xlink" width="19px" height="19px" viewBox="238 345.5  19 19" xmlns="http://www.w3.org/2000/svg">
  <path d="M 247.5 345.5  C 252.82 345.5  257 349.68  257 355  C 257 360.32  252.82 364.5  247.5 364.5  C 242.18 364.5  238 360.32  238 355  C 238 349.68  242.18 345.5  247.5 345.5  Z " fill-rule="nonzero" fill="#ffffff" stroke="none" />
  <path d="M 247.5 346  C 252.54 346  256.5 349.96  256.5 355  C 256.5 360.04  252.54 364  247.5 364  C 242.46 364  238.5 360.04  238.5 355  C 238.5 349.96  242.46 346  247.5 346  Z " stroke-width="1" stroke="#f59a23" fill="none" />
  <path d="M 247.5 359.75  C 244.84 359.75  242.75 357.66  242.75 355  C 242.75 352.34  244.84 350.25  247.5 350.25  C 250.16 350.25  252.25 352.34  252.25 355  C 252.25 357.66  250.16 359.75  247.5 359.75  " fill-rule="nonzero" fill="#f59a23" stroke="none" />
</svg>