<?xml version="1.0" encoding="utf-8"?>
<svg version="1.1" xmlns:xlink="http://www.w3.org/1999/xlink" width="19px" height="19px" viewBox="386 307  19 19" xmlns="http://www.w3.org/2000/svg">
  <path d="M 395.5 307  C 400.82 307  405 311.18  405 316.5  C 405 321.82  400.82 326  395.5 326  C 390.18 326  386 321.82  386 316.5  C 386 311.18  390.18 307  395.5 307  Z " fill-rule="nonzero" fill="#f0f0f0" stroke="none" />
  <path d="M 395.5 307.5  C 400.54 307.5  404.5 311.46  404.5 316.5  C 404.5 321.54  400.54 325.5  395.5 325.5  C 390.46 325.5  386.5 321.54  386.5 316.5  C 386.5 311.46  390.46 307.5  395.5 307.5  Z " stroke-width="1" stroke="#f59a23" fill="none" />
  <path d="M 395.5 321.25  C 392.84 321.25  390.75 319.16  390.75 316.5  C 390.75 313.84  392.84 311.75  395.5 311.75  C 398.16 311.75  400.25 313.84  400.25 316.5  C 400.25 319.16  398.16 321.25  395.5 321.25  " fill-rule="nonzero" fill="#f59a23" stroke="none" />
</svg>