<?xml version="1.0" encoding="utf-8"?>
<svg version="1.1" xmlns:xlink="http://www.w3.org/1999/xlink" width="19px" height="19px" viewBox="238 307  19 19" xmlns="http://www.w3.org/2000/svg">
  <path d="M 247.5 307  C 252.82 307  257 311.18  257 316.5  C 257 321.82  252.82 326  247.5 326  C 242.18 326  238 321.82  238 316.5  C 238 311.18  242.18 307  247.5 307  Z " fill-rule="nonzero" fill="#ffffff" stroke="none" />
  <path d="M 247.5 307.5  C 252.54 307.5  256.5 311.46  256.5 316.5  C 256.5 321.54  252.54 325.5  247.5 325.5  C 242.46 325.5  238.5 321.54  238.5 316.5  C 238.5 311.46  242.46 307.5  247.5 307.5  Z " stroke-width="1" stroke="#f59a23" fill="none" />
  <path d="M 247.5 321.25  C 244.84 321.25  242.75 319.16  242.75 316.5  C 242.75 313.84  244.84 311.75  247.5 311.75  C 250.16 311.75  252.25 313.84  252.25 316.5  C 252.25 319.16  250.16 321.25  247.5 321.25  " fill-rule="nonzero" fill="#f59a23" stroke="none" />
</svg>