<?xml version="1.0" encoding="utf-8"?>
<svg version="1.1" xmlns:xlink="http://www.w3.org/1999/xlink" width="13px" height="13px" viewBox="363 1882  13 13" xmlns="http://www.w3.org/2000/svg">
  <path d="M 369.5 1882  C 373.14 1882  376 1884.86  376 1888.5  C 376 1892.14  373.14 1895  369.5 1895  C 365.86 1895  363 1892.14  363 1888.5  C 363 1884.86  365.86 1882  369.5 1882  Z " fill-rule="nonzero" fill="#f0f0f0" stroke="none" />
  <path d="M 369.5 1882.5  C 372.86 1882.5  375.5 1885.14  375.5 1888.5  C 375.5 1891.86  372.86 1894.5  369.5 1894.5  C 366.14 1894.5  363.5 1891.86  363.5 1888.5  C 363.5 1885.14  366.14 1882.5  369.5 1882.5  Z " stroke-width="1" stroke="#797979" fill="none" />
  <path d="M 369.5 1891.75  C 367.68 1891.75  366.25 1890.32  366.25 1888.5  C 366.25 1886.68  367.68 1885.25  369.5 1885.25  C 371.32 1885.25  372.75 1886.68  372.75 1888.5  C 372.75 1890.32  371.32 1891.75  369.5 1891.75  " fill-rule="nonzero" fill="#797979" stroke="none" />
</svg>