<?xml version="1.0" encoding="utf-8"?>
<svg version="1.1" xmlns:xlink="http://www.w3.org/1999/xlink" width="13px" height="13px" viewBox="553 2155  13 13" xmlns="http://www.w3.org/2000/svg">
  <path d="M 559.5 2155  C 563.14 2155  566 2157.86  566 2161.5  C 566 2165.14  563.14 2168  559.5 2168  C 555.86 2168  553 2165.14  553 2161.5  C 553 2157.86  555.86 2155  559.5 2155  Z " fill-rule="nonzero" fill="#ffffff" stroke="none" />
  <path d="M 559.5 2155.5  C 562.86 2155.5  565.5 2158.14  565.5 2161.5  C 565.5 2164.86  562.86 2167.5  559.5 2167.5  C 556.14 2167.5  553.5 2164.86  553.5 2161.5  C 553.5 2158.14  556.14 2155.5  559.5 2155.5  Z " stroke-width="1" stroke="#797979" fill="none" />
  <path d="M 559.5 2164.75  C 557.68 2164.75  556.25 2163.32  556.25 2161.5  C 556.25 2159.68  557.68 2158.25  559.5 2158.25  C 561.32 2158.25  562.75 2159.68  562.75 2161.5  C 562.75 2163.32  561.32 2164.75  559.5 2164.75  " fill-rule="nonzero" fill="#797979" stroke="none" />
</svg>