<?xml version="1.0" encoding="utf-8"?>
<svg version="1.1" xmlns:xlink="http://www.w3.org/1999/xlink" width="19px" height="19px" viewBox="473 629.5  19 19" xmlns="http://www.w3.org/2000/svg">
  <path d="M 482.5 629.5  C 487.82 629.5  492 633.68  492 639  C 492 644.32  487.82 648.5  482.5 648.5  C 477.18 648.5  473 644.32  473 639  C 473 633.68  477.18 629.5  482.5 629.5  Z " fill-rule="nonzero" fill="#ffffff" stroke="none" />
  <path d="M 482.5 630  C 487.54 630  491.5 633.96  491.5 639  C 491.5 644.04  487.54 648  482.5 648  C 477.46 648  473.5 644.04  473.5 639  C 473.5 633.96  477.46 630  482.5 630  Z " stroke-width="1" stroke="#f59a23" fill="none" />
  <path d="M 482.5 643.75  C 479.84 643.75  477.75 641.66  477.75 639  C 477.75 636.34  479.84 634.25  482.5 634.25  C 485.16 634.25  487.25 636.34  487.25 639  C 487.25 641.66  485.16 643.75  482.5 643.75  " fill-rule="nonzero" fill="#f59a23" stroke="none" />
</svg>