<?xml version="1.0" encoding="utf-8"?>
<svg version="1.1" xmlns:xlink="http://www.w3.org/1999/xlink" width="13px" height="13px" viewBox="553 3254  13 13" xmlns="http://www.w3.org/2000/svg">
  <path d="M 559.5 3254  C 563.14 3254  566 3256.86  566 3260.5  C 566 3264.14  563.14 3267  559.5 3267  C 555.86 3267  553 3264.14  553 3260.5  C 553 3256.86  555.86 3254  559.5 3254  Z " fill-rule="nonzero" fill="#ffffff" stroke="none" />
  <path d="M 559.5 3254.5  C 562.86 3254.5  565.5 3257.14  565.5 3260.5  C 565.5 3263.86  562.86 3266.5  559.5 3266.5  C 556.14 3266.5  553.5 3263.86  553.5 3260.5  C 553.5 3257.14  556.14 3254.5  559.5 3254.5  Z " stroke-width="1" stroke="#797979" fill="none" />
  <path d="M 559.5 3263.75  C 557.68 3263.75  556.25 3262.32  556.25 3260.5  C 556.25 3258.68  557.68 3257.25  559.5 3257.25  C 561.32 3257.25  562.75 3258.68  562.75 3260.5  C 562.75 3262.32  561.32 3263.75  559.5 3263.75  " fill-rule="nonzero" fill="#797979" stroke="none" />
</svg>