<?xml version="1.0" encoding="utf-8"?>
<svg version="1.1" xmlns:xlink="http://www.w3.org/1999/xlink" width="13px" height="13px" viewBox="687 3254  13 13" xmlns="http://www.w3.org/2000/svg">
  <path d="M 693.5 3254  C 697.14 3254  700 3256.86  700 3260.5  C 700 3264.14  697.14 3267  693.5 3267  C 689.86 3267  687 3264.14  687 3260.5  C 687 3256.86  689.86 3254  693.5 3254  Z " fill-rule="nonzero" fill="#f0f0f0" stroke="none" />
  <path d="M 693.5 3254.5  C 696.86 3254.5  699.5 3257.14  699.5 3260.5  C 699.5 3263.86  696.86 3266.5  693.5 3266.5  C 690.14 3266.5  687.5 3263.86  687.5 3260.5  C 687.5 3257.14  690.14 3254.5  693.5 3254.5  Z " stroke-width="1" stroke="#797979" fill="none" />
  <path d="M 693.5 3263.75  C 691.68 3263.75  690.25 3262.32  690.25 3260.5  C 690.25 3258.68  691.68 3257.25  693.5 3257.25  C 695.32 3257.25  696.75 3258.68  696.75 3260.5  C 696.75 3262.32  695.32 3263.75  693.5 3263.75  " fill-rule="nonzero" fill="#797979" stroke="none" />
</svg>