<?xml version="1.0" encoding="utf-8"?>
<svg version="1.1" xmlns:xlink="http://www.w3.org/1999/xlink" width="13px" height="13px" viewBox="553 2125  13 13" xmlns="http://www.w3.org/2000/svg">
  <path d="M 559.5 2125  C 563.14 2125  566 2127.86  566 2131.5  C 566 2135.14  563.14 2138  559.5 2138  C 555.86 2138  553 2135.14  553 2131.5  C 553 2127.86  555.86 2125  559.5 2125  Z " fill-rule="nonzero" fill="#f0f0f0" stroke="none" />
  <path d="M 559.5 2125.5  C 562.86 2125.5  565.5 2128.14  565.5 2131.5  C 565.5 2134.86  562.86 2137.5  559.5 2137.5  C 556.14 2137.5  553.5 2134.86  553.5 2131.5  C 553.5 2128.14  556.14 2125.5  559.5 2125.5  Z " stroke-width="1" stroke="#797979" fill="none" />
  <path d="M 559.5 2134.75  C 557.68 2134.75  556.25 2133.32  556.25 2131.5  C 556.25 2129.68  557.68 2128.25  559.5 2128.25  C 561.32 2128.25  562.75 2129.68  562.75 2131.5  C 562.75 2133.32  561.32 2134.75  559.5 2134.75  " fill-rule="nonzero" fill="#797979" stroke="none" />
</svg>