<?xml version="1.0" encoding="utf-8"?>
<svg version="1.1" xmlns:xlink="http://www.w3.org/1999/xlink" width="13px" height="13px" viewBox="511 1882  13 13" xmlns="http://www.w3.org/2000/svg">
  <path d="M 517.5 1882  C 521.14 1882  524 1884.86  524 1888.5  C 524 1892.14  521.14 1895  517.5 1895  C 513.86 1895  511 1892.14  511 1888.5  C 511 1884.86  513.86 1882  517.5 1882  Z " fill-rule="nonzero" fill="#f0f0f0" stroke="none" />
  <path d="M 517.5 1882.5  C 520.86 1882.5  523.5 1885.14  523.5 1888.5  C 523.5 1891.86  520.86 1894.5  517.5 1894.5  C 514.14 1894.5  511.5 1891.86  511.5 1888.5  C 511.5 1885.14  514.14 1882.5  517.5 1882.5  Z " stroke-width="1" stroke="#797979" fill="none" />
  <path d="M 517.5 1891.75  C 515.68 1891.75  514.25 1890.32  514.25 1888.5  C 514.25 1886.68  515.68 1885.25  517.5 1885.25  C 519.32 1885.25  520.75 1886.68  520.75 1888.5  C 520.75 1890.32  519.32 1891.75  517.5 1891.75  " fill-rule="nonzero" fill="#797979" stroke="none" />
</svg>