<?xml version="1.0" encoding="utf-8"?>
<svg version="1.1" xmlns:xlink="http://www.w3.org/1999/xlink" width="19px" height="19px" viewBox="151 321.5  19 19" xmlns="http://www.w3.org/2000/svg">
  <path d="M 160.5 321.5  C 165.82 321.5  170 325.68  170 331  C 170 336.32  165.82 340.5  160.5 340.5  C 155.18 340.5  151 336.32  151 331  C 151 325.68  155.18 321.5  160.5 321.5  Z " fill-rule="nonzero" fill="#f0f0f0" stroke="none" />
  <path d="M 160.5 322  C 165.54 322  169.5 325.96  169.5 331  C 169.5 336.04  165.54 340  160.5 340  C 155.46 340  151.5 336.04  151.5 331  C 151.5 325.96  155.46 322  160.5 322  Z " stroke-width="1" stroke="#f59a23" fill="none" />
  <path d="M 160.5 335.75  C 157.84 335.75  155.75 333.66  155.75 331  C 155.75 328.34  157.84 326.25  160.5 326.25  C 163.16 326.25  165.25 328.34  165.25 331  C 165.25 333.66  163.16 335.75  160.5 335.75  " fill-rule="nonzero" fill="#f59a23" stroke="none" />
</svg>