<?xml version="1.0" encoding="utf-8"?>
<svg version="1.1" xmlns:xlink="http://www.w3.org/1999/xlink" width="19px" height="19px" viewBox="324 541.5  19 19" xmlns="http://www.w3.org/2000/svg">
  <path d="M 333.5 541.5  C 338.82 541.5  343 545.68  343 551  C 343 556.32  338.82 560.5  333.5 560.5  C 328.18 560.5  324 556.32  324 551  C 324 545.68  328.18 541.5  333.5 541.5  Z " fill-rule="nonzero" fill="#f0f0f0" stroke="none" />
  <path d="M 333.5 542  C 338.54 542  342.5 545.96  342.5 551  C 342.5 556.04  338.54 560  333.5 560  C 328.46 560  324.5 556.04  324.5 551  C 324.5 545.96  328.46 542  333.5 542  Z " stroke-width="1" stroke="#f59a23" fill="none" />
  <path d="M 333.5 555.75  C 330.84 555.75  328.75 553.66  328.75 551  C 328.75 548.34  330.84 546.25  333.5 546.25  C 336.16 546.25  338.25 548.34  338.25 551  C 338.25 553.66  336.16 555.75  333.5 555.75  " fill-rule="nonzero" fill="#f59a23" stroke="none" />
</svg>