<?xml version="1.0" encoding="utf-8"?>
<svg version="1.1" xmlns:xlink="http://www.w3.org/1999/xlink" width="19px" height="19px" viewBox="388 629.5  19 19" xmlns="http://www.w3.org/2000/svg">
  <path d="M 397.5 629.5  C 402.82 629.5  407 633.68  407 639  C 407 644.32  402.82 648.5  397.5 648.5  C 392.18 648.5  388 644.32  388 639  C 388 633.68  392.18 629.5  397.5 629.5  Z " fill-rule="nonzero" fill="#ffffff" stroke="none" />
  <path d="M 397.5 630  C 402.54 630  406.5 633.96  406.5 639  C 406.5 644.04  402.54 648  397.5 648  C 392.46 648  388.5 644.04  388.5 639  C 388.5 633.96  392.46 630  397.5 630  Z " stroke-width="1" stroke="#f59a23" fill="none" />
  <path d="M 397.5 643.75  C 394.84 643.75  392.75 641.66  392.75 639  C 392.75 636.34  394.84 634.25  397.5 634.25  C 400.16 634.25  402.25 636.34  402.25 639  C 402.25 641.66  400.16 643.75  397.5 643.75  " fill-rule="nonzero" fill="#f59a23" stroke="none" />
</svg>