<?xml version="1.0" encoding="utf-8"?>
<svg version="1.1" xmlns:xlink="http://www.w3.org/1999/xlink" width="19px" height="19px" viewBox="306 331.5  19 19" xmlns="http://www.w3.org/2000/svg">
  <path d="M 315.5 331.5  C 320.82 331.5  325 335.68  325 341  C 325 346.32  320.82 350.5  315.5 350.5  C 310.18 350.5  306 346.32  306 341  C 306 335.68  310.18 331.5  315.5 331.5  Z " fill-rule="nonzero" fill="#f0f0f0" stroke="none" />
  <path d="M 315.5 332  C 320.54 332  324.5 335.96  324.5 341  C 324.5 346.04  320.54 350  315.5 350  C 310.46 350  306.5 346.04  306.5 341  C 306.5 335.96  310.46 332  315.5 332  Z " stroke-width="1" stroke="#f59a23" fill="none" />
  <path d="M 315.5 345.75  C 312.84 345.75  310.75 343.66  310.75 341  C 310.75 338.34  312.84 336.25  315.5 336.25  C 318.16 336.25  320.25 338.34  320.25 341  C 320.25 343.66  318.16 345.75  315.5 345.75  " fill-rule="nonzero" fill="#f59a23" stroke="none" />
</svg>