<?xml version="1.0" encoding="utf-8"?>
<svg version="1.1" xmlns:xlink="http://www.w3.org/1999/xlink" width="19px" height="19px" viewBox="167 331.5  19 19" xmlns="http://www.w3.org/2000/svg">
  <path d="M 176.5 331.5  C 181.82 331.5  186 335.68  186 341  C 186 346.32  181.82 350.5  176.5 350.5  C 171.18 350.5  167 346.32  167 341  C 167 335.68  171.18 331.5  176.5 331.5  Z " fill-rule="nonzero" fill="#f0f0f0" stroke="none" />
  <path d="M 176.5 332  C 181.54 332  185.5 335.96  185.5 341  C 185.5 346.04  181.54 350  176.5 350  C 171.46 350  167.5 346.04  167.5 341  C 167.5 335.96  171.46 332  176.5 332  Z " stroke-width="1" stroke="#f59a23" fill="none" />
  <path d="M 176.5 345.75  C 173.84 345.75  171.75 343.66  171.75 341  C 171.75 338.34  173.84 336.25  176.5 336.25  C 179.16 336.25  181.25 338.34  181.25 341  C 181.25 343.66  179.16 345.75  176.5 345.75  " fill-rule="nonzero" fill="#f59a23" stroke="none" />
</svg>