<?xml version="1.0" encoding="utf-8"?>
<svg version="1.1" xmlns:xlink="http://www.w3.org/1999/xlink" width="15px" height="10px" xmlns="http://www.w3.org/2000/svg">
  <g transform="matrix(1 0 0 1 -34 -88 )">
    <path d="M 3.878070910771688 0.2541353926062584  C 3.012452522913615 -0.08619006723165512  1.5545691053072612 -0.08618984371423721  0.6661713123321533 0.2630915492773056  C 0.4549978921810786 0.3459461685270071  0.28746077169974643 0.4443617258220911  0.17315025130907694 0.5527046322822571  C 0.058839730918407426 0.6610475387424231  0 0.7771903090178967  0 0.894484743475914  C 0 1.0117791779339314  0.058839730918407426 1.127921948209405  0.17315025130907694 1.236264854669571  C 0.28746077169974643 1.344607761129737  0.4549978921810786 1.4430233929306269  0.6661713123321533 1.5258780121803284  C 0.6661713123321533 1.5258780121803284  9.504589239756267 5.00078022480011  9.504589239756267 5.00078022480011  C 9.504589239756267 5.00078022480011  0.6661713123321533 8.475682139396667  0.6661713123321533 8.475682139396667  C 0.24024690190951026 8.64313805475831  0.0009645527461543681 8.87025572359562  0.0009645527461543681 9.10707414150238  C 0.0009645527461543681 9.343892559409142  0.24024690190951026 9.57101320847869  0.6661713123321533 9.738469123840332  C 1.0920957227547965 9.905925039201975  1.669773062070211 9.999999999999996  2.2721211115519204 10  C 2.874469161033631 10  3.4521465003490452 9.905925039201975  3.878070910771688 9.738469123840332  C 3.878070910771688 9.738469123840332  9.105950991312662 7.683082222938538  9.105950991312662 7.683082222938538  C 9.105950991312662 7.683082222938538  14.333831469217937 5.627695322036743  14.333831469217937 5.627695322036743  C 14.545004889369013 5.544840702787042  14.712540370722612 5.446425219997764  14.826850891113281 5.338082313537598  C 14.94116141150395 5.229739407077432  15 5.113596264272928  15 4.996301829814911  C 15 4.8790073953568935  14.94116141150395 4.762864848598838  14.826850891113281 4.654521942138672  C 14.712540370722612 4.546179035678506  14.545004889369013 4.447763552889228  14.333831469217937 4.364908933639526  C 14.333831469217937 4.364908933639526  3.878070910771688 0.2541353926062584  3.878070910771688 0.2541353926062584  Z " fill-rule="nonzero" fill="#727272" stroke="none" transform="matrix(1 0 0 1 34 88 )" />
  </g>
</svg>