<?xml version="1.0" encoding="utf-8"?>
<svg version="1.1" xmlns:xlink="http://www.w3.org/1999/xlink" width="19px" height="19px" viewBox="312 162.5  19 19" xmlns="http://www.w3.org/2000/svg">
  <path d="M 321.5 162.5  C 326.82 162.5  331 166.68  331 172  C 331 177.32  326.82 181.5  321.5 181.5  C 316.18 181.5  312 177.32  312 172  C 312 166.68  316.18 162.5  321.5 162.5  Z " fill-rule="nonzero" fill="#ffffff" stroke="none" />
  <path d="M 321.5 163  C 326.54 163  330.5 166.96  330.5 172  C 330.5 177.04  326.54 181  321.5 181  C 316.46 181  312.5 177.04  312.5 172  C 312.5 166.96  316.46 163  321.5 163  Z " stroke-width="1" stroke="#f59a23" fill="none" />
  <path d="M 321.5 176.75  C 318.84 176.75  316.75 174.66  316.75 172  C 316.75 169.34  318.84 167.25  321.5 167.25  C 324.16 167.25  326.25 169.34  326.25 172  C 326.25 174.66  324.16 176.75  321.5 176.75  " fill-rule="nonzero" fill="#f59a23" stroke="none" />
</svg>