<?xml version="1.0" encoding="utf-8"?>
<svg version="1.1" xmlns:xlink="http://www.w3.org/1999/xlink" width="19px" height="19px" viewBox="190 162.5  19 19" xmlns="http://www.w3.org/2000/svg">
  <path d="M 199.5 162.5  C 204.82 162.5  209 166.68  209 172  C 209 177.32  204.82 181.5  199.5 181.5  C 194.18 181.5  190 177.32  190 172  C 190 166.68  194.18 162.5  199.5 162.5  Z " fill-rule="nonzero" fill="#f0f0f0" stroke="none" />
  <path d="M 199.5 163  C 204.54 163  208.5 166.96  208.5 172  C 208.5 177.04  204.54 181  199.5 181  C 194.46 181  190.5 177.04  190.5 172  C 190.5 166.96  194.46 163  199.5 163  Z " stroke-width="1" stroke="#f59a23" fill="none" />
  <path d="M 199.5 176.75  C 196.84 176.75  194.75 174.66  194.75 172  C 194.75 169.34  196.84 167.25  199.5 167.25  C 202.16 167.25  204.25 169.34  204.25 172  C 204.25 174.66  202.16 176.75  199.5 176.75  " fill-rule="nonzero" fill="#f59a23" stroke="none" />
</svg>