<?xml version="1.0" encoding="utf-8"?>
<svg version="1.1" xmlns:xlink="http://www.w3.org/1999/xlink" width="19px" height="19px" viewBox="948 682.5  19 19" xmlns="http://www.w3.org/2000/svg">
  <path d="M 957.5 682.5  C 962.82 682.5  967 686.68  967 692  C 967 697.32  962.82 701.5  957.5 701.5  C 952.18 701.5  948 697.32  948 692  C 948 686.68  952.18 682.5  957.5 682.5  Z " fill-rule="nonzero" fill="#f0f0f0" stroke="none" />
  <path d="M 957.5 683  C 962.54 683  966.5 686.96  966.5 692  C 966.5 697.04  962.54 701  957.5 701  C 952.46 701  948.5 697.04  948.5 692  C 948.5 686.96  952.46 683  957.5 683  Z " stroke-width="1" stroke="#f59a23" fill="none" />
  <path d="M 957.5 696.75  C 954.84 696.75  952.75 694.66  952.75 692  C 952.75 689.34  954.84 687.25  957.5 687.25  C 960.16 687.25  962.25 689.34  962.25 692  C 962.25 694.66  960.16 696.75  957.5 696.75  " fill-rule="nonzero" fill="#f59a23" stroke="none" />
</svg>