<?xml version="1.0" encoding="utf-8"?>
<svg version="1.1" xmlns:xlink="http://www.w3.org/1999/xlink" width="19px" height="19px" viewBox="851 630.5  19 19" xmlns="http://www.w3.org/2000/svg">
  <path d="M 860.5 630.5  C 865.82 630.5  870 634.68  870 640  C 870 645.32  865.82 649.5  860.5 649.5  C 855.18 649.5  851 645.32  851 640  C 851 634.68  855.18 630.5  860.5 630.5  Z " fill-rule="nonzero" fill="#f0f0f0" stroke="none" />
  <path d="M 860.5 631  C 865.54 631  869.5 634.96  869.5 640  C 869.5 645.04  865.54 649  860.5 649  C 855.46 649  851.5 645.04  851.5 640  C 851.5 634.96  855.46 631  860.5 631  Z " stroke-width="1" stroke="#f59a23" fill="none" />
  <path d="M 860.5 644.75  C 857.84 644.75  855.75 642.66  855.75 640  C 855.75 637.34  857.84 635.25  860.5 635.25  C 863.16 635.25  865.25 637.34  865.25 640  C 865.25 642.66  863.16 644.75  860.5 644.75  " fill-rule="nonzero" fill="#f59a23" stroke="none" />
</svg>