<?xml version="1.0" encoding="utf-8"?>
<svg version="1.1" xmlns:xlink="http://www.w3.org/1999/xlink" width="19px" height="19px" viewBox="850 3862.5  19 19" xmlns="http://www.w3.org/2000/svg">
  <path d="M 859.5 3862.5  C 864.82 3862.5  869 3866.68  869 3872  C 869 3877.32  864.82 3881.5  859.5 3881.5  C 854.18 3881.5  850 3877.32  850 3872  C 850 3866.68  854.18 3862.5  859.5 3862.5  Z " fill-rule="nonzero" fill="#ffffff" stroke="none" />
  <path d="M 859.5 3863  C 864.54 3863  868.5 3866.96  868.5 3872  C 868.5 3877.04  864.54 3881  859.5 3881  C 854.46 3881  850.5 3877.04  850.5 3872  C 850.5 3866.96  854.46 3863  859.5 3863  Z " stroke-width="1" stroke="#f59a23" fill="none" />
  <path d="M 859.5 3876.75  C 856.84 3876.75  854.75 3874.66  854.75 3872  C 854.75 3869.34  856.84 3867.25  859.5 3867.25  C 862.16 3867.25  864.25 3869.34  864.25 3872  C 864.25 3874.66  862.16 3876.75  859.5 3876.75  " fill-rule="nonzero" fill="#f59a23" stroke="none" />
</svg>