<?xml version="1.0" encoding="utf-8"?>
<svg version="1.1" xmlns:xlink="http://www.w3.org/1999/xlink" width="19px" height="19px" viewBox="947 3914.5  19 19" xmlns="http://www.w3.org/2000/svg">
  <path d="M 956.5 3914.5  C 961.82 3914.5  966 3918.68  966 3924  C 966 3929.32  961.82 3933.5  956.5 3933.5  C 951.18 3933.5  947 3929.32  947 3924  C 947 3918.68  951.18 3914.5  956.5 3914.5  Z " fill-rule="nonzero" fill="#f0f0f0" stroke="none" />
  <path d="M 956.5 3915  C 961.54 3915  965.5 3918.96  965.5 3924  C 965.5 3929.04  961.54 3933  956.5 3933  C 951.46 3933  947.5 3929.04  947.5 3924  C 947.5 3918.96  951.46 3915  956.5 3915  Z " stroke-width="1" stroke="#f59a23" fill="none" />
  <path d="M 956.5 3928.75  C 953.84 3928.75  951.75 3926.66  951.75 3924  C 951.75 3921.34  953.84 3919.25  956.5 3919.25  C 959.16 3919.25  961.25 3921.34  961.25 3924  C 961.25 3926.66  959.16 3928.75  956.5 3928.75  " fill-rule="nonzero" fill="#f59a23" stroke="none" />
</svg>