<?xml version="1.0" encoding="utf-8"?>
<svg version="1.1" xmlns:xlink="http://www.w3.org/1999/xlink" width="19px" height="19px" viewBox="850 3914.5  19 19" xmlns="http://www.w3.org/2000/svg">
  <path d="M 859.5 3914.5  C 864.82 3914.5  869 3918.68  869 3924  C 869 3929.32  864.82 3933.5  859.5 3933.5  C 854.18 3933.5  850 3929.32  850 3924  C 850 3918.68  854.18 3914.5  859.5 3914.5  Z " fill-rule="nonzero" fill="#f0f0f0" stroke="none" />
  <path d="M 859.5 3915  C 864.54 3915  868.5 3918.96  868.5 3924  C 868.5 3929.04  864.54 3933  859.5 3933  C 854.46 3933  850.5 3929.04  850.5 3924  C 850.5 3918.96  854.46 3915  859.5 3915  Z " stroke-width="1" stroke="#f59a23" fill="none" />
  <path d="M 859.5 3928.75  C 856.84 3928.75  854.75 3926.66  854.75 3924  C 854.75 3921.34  856.84 3919.25  859.5 3919.25  C 862.16 3919.25  864.25 3921.34  864.25 3924  C 864.25 3926.66  862.16 3928.75  859.5 3928.75  " fill-rule="nonzero" fill="#f59a23" stroke="none" />
</svg>