<?xml version="1.0" encoding="utf-8"?>
<svg version="1.1" xmlns:xlink="http://www.w3.org/1999/xlink" width="19px" height="19px" viewBox="361 447  19 19" xmlns="http://www.w3.org/2000/svg">
  <path d="M 370.5 447  C 375.82 447  380 451.18  380 456.5  C 380 461.82  375.82 466  370.5 466  C 365.18 466  361 461.82  361 456.5  C 361 451.18  365.18 447  370.5 447  Z " fill-rule="nonzero" fill="#f0f0f0" stroke="none" />
  <path d="M 370.5 447.5  C 375.54 447.5  379.5 451.46  379.5 456.5  C 379.5 461.54  375.54 465.5  370.5 465.5  C 365.46 465.5  361.5 461.54  361.5 456.5  C 361.5 451.46  365.46 447.5  370.5 447.5  Z " stroke-width="1" stroke="#f59a23" fill="none" />
  <path d="M 370.5 461.25  C 367.84 461.25  365.75 459.16  365.75 456.5  C 365.75 453.84  367.84 451.75  370.5 451.75  C 373.16 451.75  375.25 453.84  375.25 456.5  C 375.25 459.16  373.16 461.25  370.5 461.25  " fill-rule="nonzero" fill="#f59a23" stroke="none" />
</svg>