<?xml version="1.0" encoding="utf-8"?>
<svg version="1.1" xmlns:xlink="http://www.w3.org/1999/xlink" width="19px" height="19px" viewBox="362 2147  19 19" xmlns="http://www.w3.org/2000/svg">
  <path d="M 371.5 2147  C 376.82 2147  381 2151.18  381 2156.5  C 381 2161.82  376.82 2166  371.5 2166  C 366.18 2166  362 2161.82  362 2156.5  C 362 2151.18  366.18 2147  371.5 2147  Z " fill-rule="nonzero" fill="#ffffff" stroke="none" />
  <path d="M 371.5 2147.5  C 376.54 2147.5  380.5 2151.46  380.5 2156.5  C 380.5 2161.54  376.54 2165.5  371.5 2165.5  C 366.46 2165.5  362.5 2161.54  362.5 2156.5  C 362.5 2151.46  366.46 2147.5  371.5 2147.5  Z " stroke-width="1" stroke="#f59a23" fill="none" />
  <path d="M 371.5 2161.25  C 368.84 2161.25  366.75 2159.16  366.75 2156.5  C 366.75 2153.84  368.84 2151.75  371.5 2151.75  C 374.16 2151.75  376.25 2153.84  376.25 2156.5  C 376.25 2159.16  374.16 2161.25  371.5 2161.25  " fill-rule="nonzero" fill="#f59a23" stroke="none" />
</svg>