<?xml version="1.0" encoding="utf-8"?>
<svg version="1.1" xmlns:xlink="http://www.w3.org/1999/xlink" width="19px" height="19px" viewBox="302 664  19 19" xmlns="http://www.w3.org/2000/svg">
  <path d="M 311.5 664  C 316.82 664  321 668.18  321 673.5  C 321 678.82  316.82 683  311.5 683  C 306.18 683  302 678.82  302 673.5  C 302 668.18  306.18 664  311.5 664  Z " fill-rule="nonzero" fill="#ffffff" stroke="none" />
  <path d="M 311.5 664.5  C 316.54 664.5  320.5 668.46  320.5 673.5  C 320.5 678.54  316.54 682.5  311.5 682.5  C 306.46 682.5  302.5 678.54  302.5 673.5  C 302.5 668.46  306.46 664.5  311.5 664.5  Z " stroke-width="1" stroke="#f59a23" fill="none" />
  <path d="M 311.5 678.25  C 308.84 678.25  306.75 676.16  306.75 673.5  C 306.75 670.84  308.84 668.75  311.5 668.75  C 314.16 668.75  316.25 670.84  316.25 673.5  C 316.25 676.16  314.16 678.25  311.5 678.25  " fill-rule="nonzero" fill="#f59a23" stroke="none" />
</svg>