<?xml version="1.0" encoding="utf-8"?>
<svg version="1.1" xmlns:xlink="http://www.w3.org/1999/xlink" width="19px" height="19px" viewBox="241 447  19 19" xmlns="http://www.w3.org/2000/svg">
  <path d="M 250.5 447  C 255.82 447  260 451.18  260 456.5  C 260 461.82  255.82 466  250.5 466  C 245.18 466  241 461.82  241 456.5  C 241 451.18  245.18 447  250.5 447  Z " fill-rule="nonzero" fill="#f0f0f0" stroke="none" />
  <path d="M 250.5 447.5  C 255.54 447.5  259.5 451.46  259.5 456.5  C 259.5 461.54  255.54 465.5  250.5 465.5  C 245.46 465.5  241.5 461.54  241.5 456.5  C 241.5 451.46  245.46 447.5  250.5 447.5  Z " stroke-width="1" stroke="#f59a23" fill="none" />
  <path d="M 250.5 461.25  C 247.84 461.25  245.75 459.16  245.75 456.5  C 245.75 453.84  247.84 451.75  250.5 451.75  C 253.16 451.75  255.25 453.84  255.25 456.5  C 255.25 459.16  253.16 461.25  250.5 461.25  " fill-rule="nonzero" fill="#f59a23" stroke="none" />
</svg>