<?xml version="1.0" encoding="utf-8"?>
<svg version="1.1" xmlns:xlink="http://www.w3.org/1999/xlink" width="19px" height="19px" viewBox="241 1398  19 19" xmlns="http://www.w3.org/2000/svg">
  <path d="M 250.5 1398  C 255.82 1398  260 1402.18  260 1407.5  C 260 1412.82  255.82 1417  250.5 1417  C 245.18 1417  241 1412.82  241 1407.5  C 241 1402.18  245.18 1398  250.5 1398  Z " fill-rule="nonzero" fill="#f0f0f0" stroke="none" />
  <path d="M 250.5 1398.5  C 255.54 1398.5  259.5 1402.46  259.5 1407.5  C 259.5 1412.54  255.54 1416.5  250.5 1416.5  C 245.46 1416.5  241.5 1412.54  241.5 1407.5  C 241.5 1402.46  245.46 1398.5  250.5 1398.5  Z " stroke-width="1" stroke="#f59a23" fill="none" />
  <path d="M 250.5 1412.25  C 247.84 1412.25  245.75 1410.16  245.75 1407.5  C 245.75 1404.84  247.84 1402.75  250.5 1402.75  C 253.16 1402.75  255.25 1404.84  255.25 1407.5  C 255.25 1410.16  253.16 1412.25  250.5 1412.25  " fill-rule="nonzero" fill="#f59a23" stroke="none" />
</svg>