<?xml version="1.0" encoding="utf-8"?>
<svg version="1.1" xmlns:xlink="http://www.w3.org/1999/xlink" width="19px" height="19px" viewBox="361 1398  19 19" xmlns="http://www.w3.org/2000/svg">
  <path d="M 370.5 1398  C 375.82 1398  380 1402.18  380 1407.5  C 380 1412.82  375.82 1417  370.5 1417  C 365.18 1417  361 1412.82  361 1407.5  C 361 1402.18  365.18 1398  370.5 1398  Z " fill-rule="nonzero" fill="#f0f0f0" stroke="none" />
  <path d="M 370.5 1398.5  C 375.54 1398.5  379.5 1402.46  379.5 1407.5  C 379.5 1412.54  375.54 1416.5  370.5 1416.5  C 365.46 1416.5  361.5 1412.54  361.5 1407.5  C 361.5 1402.46  365.46 1398.5  370.5 1398.5  Z " stroke-width="1" stroke="#f59a23" fill="none" />
  <path d="M 370.5 1412.25  C 367.84 1412.25  365.75 1410.16  365.75 1407.5  C 365.75 1404.84  367.84 1402.75  370.5 1402.75  C 373.16 1402.75  375.25 1404.84  375.25 1407.5  C 375.25 1410.16  373.16 1412.25  370.5 1412.25  " fill-rule="nonzero" fill="#f59a23" stroke="none" />
</svg>