<?xml version="1.0" encoding="utf-8"?>
<svg version="1.1" xmlns:xlink="http://www.w3.org/1999/xlink" width="19px" height="19px" viewBox="242 2147  19 19" xmlns="http://www.w3.org/2000/svg">
  <path d="M 251.5 2147  C 256.82 2147  261 2151.18  261 2156.5  C 261 2161.82  256.82 2166  251.5 2166  C 246.18 2166  242 2161.82  242 2156.5  C 242 2151.18  246.18 2147  251.5 2147  Z " fill-rule="nonzero" fill="#ffffff" stroke="none" />
  <path d="M 251.5 2147.5  C 256.54 2147.5  260.5 2151.46  260.5 2156.5  C 260.5 2161.54  256.54 2165.5  251.5 2165.5  C 246.46 2165.5  242.5 2161.54  242.5 2156.5  C 242.5 2151.46  246.46 2147.5  251.5 2147.5  Z " stroke-width="1" stroke="#f59a23" fill="none" />
  <path d="M 251.5 2161.25  C 248.84 2161.25  246.75 2159.16  246.75 2156.5  C 246.75 2153.84  248.84 2151.75  251.5 2151.75  C 254.16 2151.75  256.25 2153.84  256.25 2156.5  C 256.25 2159.16  254.16 2161.25  251.5 2161.25  " fill-rule="nonzero" fill="#f59a23" stroke="none" />
</svg>