<?xml version="1.0" encoding="utf-8"?>
<svg version="1.1" xmlns:xlink="http://www.w3.org/1999/xlink" width="14px" height="18px" xmlns="http://www.w3.org/2000/svg">
  <g transform="matrix(1 0 0 1 -63 -476 )">
    <path d="M 12.6875 18  C 12.6875 18  1.3125 18  1.3125 18  C 0.9515624999999999 18  0.642578125 17.874107142857145  0.38554687500000007 17.622321428571432  C 0.12851562499999997 17.37053571428572  0 17.067857142857143  0 16.714285714285715  C 0 16.714285714285715  0 7.414285714285715  0 7.414285714285715  C 0 7.060714285714287  0.12851562499999997 6.758035714285715  0.38554687500000007 6.5062500000000005  C 0.642578125 6.2544642857142865  0.9515624999999999 6.128571428571429  1.3125 6.128571428571429  C 1.3125 6.128571428571429  2.84375 6.128571428571429  2.84375 6.128571428571429  C 2.84375 6.128571428571429  2.84375 4.071428571428571  2.84375 4.071428571428571  C 2.84375 2.94500002179827  3.249210131168365 1.9848216738019673  4.060130977630615 1.1908931187220984  C 4.8710518240928655 0.39696456364222943  5.851780962944032 0  7.002318477630616 0  C 8.1528559923172 0  9.1328125 0.39696456364222943  9.942187500000001 1.1908931187220984  C 10.751562500000002 1.9848216738019673  11.15625 2.94500002179827  11.15625 4.071428571428571  C 11.15625 4.071428571428571  11.15625 6.128571428571429  11.15625 6.128571428571429  C 11.15625 6.128571428571429  12.6875 6.128571428571429  12.6875 6.128571428571429  C 13.048437500000002 6.128571428571429  13.357421875 6.2544642857142865  13.614453124999999 6.5062500000000005  C 13.871484374999998 6.758035714285715  14 7.060714285714287  14 7.414285714285715  C 14 7.414285714285715  14 16.714285714285715  14 16.714285714285715  C 14 17.067857142857143  13.871484374999998 17.37053571428572  13.614453124999999 17.622321428571432  C 13.357421875 17.874107142857145  13.048437500000002 18  12.6875 18  Z M 1.3125 7.414285714285715  L 1.3125 16.714285714285715  L 12.6875 16.714285714285715  L 12.6875 7.414285714285715  L 1.3125 7.414285714285715  Z M 5.811487483978271 13.242857142857144  C 6.142062494158745 13.557142863954818  6.539458334445953 13.714285714285715  7.0036749839782715 13.714285714285715  C 7.46789163351059 13.714285714285715  7.864062500000001 13.556921298163276  8.192187500000001 13.242192731584822  C 8.520312500000001 12.927464165006366  8.684375000000001 12.549114295414517  8.684375000000001 12.107142857142858  C 8.684375000000001 11.678571428571429  8.519086858630178 11.289285727909633  8.188511848449707 10.939285714285715  C 7.857936838269233 10.589285700661797  7.460541665554047 10.414285714285715  6.9963250160217285 10.414285714285715  C 6.53210836648941 10.414285714285715  6.1359375 10.589285700661797  5.8078125 10.939285714285715  C 5.4796875 11.289285727909633  5.315625 11.682142843518939  5.315625 12.117857142857144  C 5.315625 12.553571442195349  5.480912473797799 12.92857142175947  5.811487483978271 13.242857142857144  Z M 4.15625 4.071428571428571  C 4.15625 4.071428571428571  4.15625 6.128571428571429  4.15625 6.128571428571429  L 9.84375 6.128571428571429  C 9.84375 6.128571428571429  9.84375 4.071428571428571  9.84375 4.071428571428571  C 9.84375 3.2976143155779156  9.567526680231095 2.6398784228733607  9.01508083343506 2.098221261160714  C 8.462620425224305 1.556549835205078  7.79178773164749 1.2857142857142856  7.0025815010070795 1.2857142857142856  C 6.213360667228699 1.2857142857142856  5.5416666805744175 1.556549835205078  4.9875 2.098221261160714  C 4.433333319425584 2.6398784228733607  4.15625 3.2976143155779156  4.15625 4.071428571428571  Z " fill-rule="nonzero" fill="#555555" stroke="none" transform="matrix(1 0 0 1 63 476 )" />
  </g>
</svg>