<?xml version="1.0" encoding="utf-8"?>
<svg version="1.1" xmlns:xlink="http://www.w3.org/1999/xlink" width="18px" height="15px" xmlns="http://www.w3.org/2000/svg">
  <g transform="matrix(1 0 0 1 -60 -368 )">
    <path d="M 15.725000000000001 14  C 15.725000000000001 14  1.275 14  1.275 14  C 0.9349999999999998 14  0.6375 13.868750000000002  0.3825 13.606250000000001  C 0.1275 13.34375  0 13.037499999999998  0 12.6875  C 0 12.6875  0 1.3125  0 1.3125  C 0 0.9625000000000001  0.1275 0.65625  0.3825 0.39375  C 0.6375 0.13125000000000003  0.9349999999999998 0  1.275 0  C 1.275 0  15.725000000000001 0  15.725000000000001 0  C 16.065 0  16.3625 0.13125000000000003  16.6175 0.39375  C 16.8725 0.65625  17 0.9625000000000001  17 1.3125  C 17 1.3125  17 12.6875  17 12.6875  C 17 13.037499999999998  16.8725 13.34375  16.6175 13.606250000000001  C 16.3625 13.868750000000002  16.065 14  15.725000000000001 14  Z M 15.725000000000001 12.6875  L 15.725000000000001 2.515625  C 15.725000000000001 2.515625  8.84 7.153125000000001  8.84 7.153125000000001  C 8.783333331644535 7.182291667535902  8.730208331644535 7.207812500000001  8.680625 7.229687500000001  C 8.631041668355465 7.251562500000001  8.570833331644534 7.262500000000001  8.5 7.262500000000001  C 8.429166668355466 7.262500000000001  8.368958331644535 7.251562500000001  8.319375 7.229687500000001  C 8.269791668355465 7.207812500000001  8.216666668355465 7.182291667535902  8.16 7.153125000000001  C 8.16 7.153125000000001  1.275 2.515625  1.275 2.515625  L 1.275 12.6875  L 15.725000000000001 12.6875  Z M 1.38125 1.3125  L 8.5 6.08125  L 15.639999999999999 1.3125  L 1.38125 1.3125  Z M 1.275 1.795675277709961  L 1.275 2.6687499999999997  L 1.275 1.8086902618408205  L 1.275 1.8247026443481447  L 1.275 1.3125  L 1.275 1.8156250000000003  L 1.275 1.795675277709961  Z M 1.275 2.6687499999999997  L 1.275 2.515625  L 1.275 2.6687499999999997  Z " fill-rule="nonzero" fill="#555555" stroke="none" transform="matrix(1 0 0 1 60 368 )" />
  </g>
</svg>