<?xml version="1.0" encoding="utf-8"?>
<svg version="1.1" xmlns:xlink="http://www.w3.org/1999/xlink" width="22px" height="15px" xmlns="http://www.w3.org/2000/svg">
  <g transform="matrix(1 0 0 1 -372 -477 )">
    <path d="M 22 7.500936985015867  C 22 7.395967382937669  21.97845441172817 7.29216743633151  21.936758120288687 7.1962502002716064  C 21.90467476302407 7.122187698259949  21.12825805594741 5.360624849796294  19.402173412709615 3.5953123569488525  C 17.102254977357212 1.2431248426437376  14.197335870617577 0  11 0  C 7.802664129382423 0  4.8977450226427885 1.2431248426437376  2.5978265872903856 3.5953123569488525  C 0.8717419440525901 5.360624849796294  0.09165795633525697 7.125000201165676  0.0632412677698271 7.1962502002716064  C 0.02154497633034172 7.29216743633151  0 7.395967382937669  0 7.500936985015867  C 0 7.605906587094068  0.02154497633034172 7.709707248955965  0.0632412677698271 7.805624485015868  C 0.09532462503444357 7.879686987027527  0.8717419440525901 9.640312850475311  2.5978265872903856 11.405625343322754  C 4.8977450226427885 13.756875336170197  7.802664129382423 15  11 15  C 14.197335870617577 15  17.102254977357212 13.756875336170197  19.402173412709615 11.405625343322754  C 21.12825805594741 9.640312850475311  21.90467476302407 7.879686987027527  21.936758120288687 7.805624485015868  C 21.97845441172817 7.709707248955965  21.999999999999996 7.605906587094068  22 7.500936985015867  Z M 13.592726841781749 10.15165042877197  C 12.905092914016404 10.854911863803864  11.972461218486444 11.25  11 11.25  C 10.274801301009854 11.25  9.565888331932065 11.0300667732954  8.96290763568189 10.618011474609373  C 8.359926939431716 10.205956175923347  7.889960336178082 9.620286270976065  7.612438796314593 8.935063362121582  C 7.334917256451104 8.249840453267096  7.262304979016606 7.495840162038803  7.403784233437272 6.76841139793396  C 7.545263487857937 6.040982633829117  7.894480223418088 5.372796490788459  8.40727315821825 4.848349571228027  C 8.920066093018411 4.323902651667595  9.573403454198292 3.9667494446039195  10.2846676773079 3.8220548629760733  C 10.995931900417506 3.6773602813482276  11.733177891453723 3.7516227811574936  12.403174135722454 4.035451412200927  C 13.073170379991183 4.319280043244362  13.645825835063299 4.799927338957787  14.048724656721488 5.416611671447754  C 14.451623478379679 6.033296003937721  14.66666946411346 6.758320078253746  14.666669464113461 7.5  C 14.666669464113461 8.494561851024628  14.280360769547098 9.448388993740082  13.592726841781749 10.15165042877197  Z " fill-rule="nonzero" fill="#000000" stroke="none" transform="matrix(1 0 0 1 372 477 )" />
  </g>
</svg>