<?xml version="1.0" encoding="utf-8"?>
<svg version="1.1" xmlns:xlink="http://www.w3.org/1999/xlink" width="295px" height="145px" viewBox="243 239  295 145" xmlns="http://www.w3.org/2000/svg">
  <defs>
    <filter x="243px" y="239px" width="295px" height="145px" filterUnits="userSpaceOnUse" id="filter93">
      <feOffset dx="5" dy="5" in="SourceAlpha" result="shadowOffsetInner" />
      <feGaussianBlur stdDeviation="2.5" in="shadowOffsetInner" result="shadowGaussian" />
      <feComposite in2="shadowGaussian" operator="atop" in="SourceAlpha" result="shadowComposite" />
      <feColorMatrix type="matrix" values="0 0 0 0 0  0 0 0 0 0  0 0 0 0 0  0 0 0 0.34901960784313724 0  " in="shadowComposite" />
    </filter>
    <g id="widget94">
      <path d="M 243.5 241  A 1.5 1.5 0 0 1 245 239.5 L 526 239.5  A 1.5 1.5 0 0 1 527.5 241 L 527.5 372  A 1.5 1.5 0 0 1 526 373.5 L 245 373.5  A 1.5 1.5 0 0 1 243.5 372 L 243.5 241  Z " fill-rule="nonzero" fill="#f0f0f0" stroke="none" />
      <path d="M 243.5 241  A 1.5 1.5 0 0 1 245 239.5 L 526 239.5  A 1.5 1.5 0 0 1 527.5 241 L 527.5 372  A 1.5 1.5 0 0 1 526 373.5 L 245 373.5  A 1.5 1.5 0 0 1 243.5 372 L 243.5 241  Z " stroke-width="1" stroke="#797979" fill="none" />
    </g>
  </defs>
  <use xlink:href="#widget94" filter="url(#filter93)" />
  <use xlink:href="#widget94" />
</svg>