<?xml version="1.0" encoding="utf-8"?>
<svg version="1.1" xmlns:xlink="http://www.w3.org/1999/xlink" width="5px" height="10px" xmlns="http://www.w3.org/2000/svg">
  <g transform="matrix(1 0 0 1 -25 -62 )">
    <path d="M 1.2926903035905626 0.2541353926062584  C 1.004150840971205 -0.08619006723165512  0.5181897017690871 -0.08618984371423721  0.22205710411071777 0.2630915492773056  C 0.15166596406035954 0.3459461685270071  0.0958202572332488 0.4443617258220911  0.057716750436358974 0.5527046322822571  C 0.019613243639469143 0.6610475387424231  0 0.7771903090178967  0 0.894484743475914  C 0 1.0117791779339314  0.019613243639469143 1.127921948209405  0.057716750436358974 1.236264854669571  C 0.0958202572332488 1.344607761129737  0.15166596406035954 1.4430233929306269  0.22205710411071777 1.5258780121803284  C 0.22205710411071777 1.5258780121803284  3.1681964132520886 5.00078022480011  3.1681964132520886 5.00078022480011  C 3.1681964132520886 5.00078022480011  0.22205710411071777 8.475682139396667  0.22205710411071777 8.475682139396667  C 0.08008230063650343 8.64313805475831  0.000321517582051456 8.87025572359562  0.000321517582051456 9.10707414150238  C 0.000321517582051456 9.343892559409142  0.08008230063650343 9.57101320847869  0.22205710411071777 9.738469123840332  C 0.36403190758493215 9.905925039201975  0.5565910206900703 9.999999999999996  0.7573737038506402 10  C 0.95815638701121 10  1.1507155001163483 9.905925039201975  1.2926903035905626 9.738469123840332  C 1.2926903035905626 9.738469123840332  3.035316997104221 7.683082222938538  3.035316997104221 7.683082222938538  C 3.035316997104221 7.683082222938538  4.777943823072645 5.627695322036743  4.777943823072645 5.627695322036743  C 4.848334963123005 5.544840702787042  4.904180123574204 5.446425219997764  4.942283630371094 5.338082313537598  C 4.980387137167983 5.229739407077432  5 5.113596264272928  5 4.996301829814911  C 5 4.8790073953568935  4.980387137167983 4.762864848598838  4.942283630371094 4.654521942138672  C 4.904180123574204 4.546179035678506  4.848334963123005 4.447763552889228  4.777943823072645 4.364908933639526  C 4.777943823072645 4.364908933639526  1.2926903035905626 0.2541353926062584  1.2926903035905626 0.2541353926062584  Z " fill-rule="nonzero" fill="#727272" stroke="none" transform="matrix(1 0 0 1 25 62 )" />
  </g>
</svg>