<?xml version="1.0" encoding="utf-8"?>
<svg version="1.1" xmlns:xlink="http://www.w3.org/1999/xlink" width="19px" height="19px" viewBox="543 1168  19 19" xmlns="http://www.w3.org/2000/svg">
  <path d="M 552.5 1168  C 557.82 1168  562 1172.18  562 1177.5  C 562 1182.82  557.82 1187  552.5 1187  C 547.18 1187  543 1182.82  543 1177.5  C 543 1172.18  547.18 1168  552.5 1168  Z " fill-rule="nonzero" fill="#ffffff" stroke="none" />
  <path d="M 552.5 1168.5  C 557.54 1168.5  561.5 1172.46  561.5 1177.5  C 561.5 1182.54  557.54 1186.5  552.5 1186.5  C 547.46 1186.5  543.5 1182.54  543.5 1177.5  C 543.5 1172.46  547.46 1168.5  552.5 1168.5  Z " stroke-width="1" stroke="#f59a23" fill="none" />
  <path d="M 552.5 1182.25  C 549.84 1182.25  547.75 1180.16  547.75 1177.5  C 547.75 1174.84  549.84 1172.75  552.5 1172.75  C 555.16 1172.75  557.25 1174.84  557.25 1177.5  C 557.25 1180.16  555.16 1182.25  552.5 1182.25  " fill-rule="nonzero" fill="#f59a23" stroke="none" />
</svg>