<?xml version="1.0" encoding="utf-8"?>
<svg version="1.1" xmlns:xlink="http://www.w3.org/1999/xlink" width="19px" height="19px" viewBox="377 1168  19 19" xmlns="http://www.w3.org/2000/svg">
  <path d="M 386.5 1168  C 391.82 1168  396 1172.18  396 1177.5  C 396 1182.82  391.82 1187  386.5 1187  C 381.18 1187  377 1182.82  377 1177.5  C 377 1172.18  381.18 1168  386.5 1168  Z " fill-rule="nonzero" fill="#ffffff" stroke="none" />
  <path d="M 386.5 1168.5  C 391.54 1168.5  395.5 1172.46  395.5 1177.5  C 395.5 1182.54  391.54 1186.5  386.5 1186.5  C 381.46 1186.5  377.5 1182.54  377.5 1177.5  C 377.5 1172.46  381.46 1168.5  386.5 1168.5  Z " stroke-width="1" stroke="#f59a23" fill="none" />
  <path d="M 386.5 1182.25  C 383.84 1182.25  381.75 1180.16  381.75 1177.5  C 381.75 1174.84  383.84 1172.75  386.5 1172.75  C 389.16 1172.75  391.25 1174.84  391.25 1177.5  C 391.25 1180.16  389.16 1182.25  386.5 1182.25  " fill-rule="nonzero" fill="#f59a23" stroke="none" />
</svg>