<?xml version="1.0" encoding="utf-8"?>
<svg version="1.1" xmlns:xlink="http://www.w3.org/1999/xlink" width="20px" height="18px" xmlns="http://www.w3.org/2000/svg">
  <g transform="matrix(1 0 0 1 -1211 -2372 )">
    <path d="M 15.15625 16.27734375  C 15.308493589743591 16.12890625  15.384615384615385 15.953125  15.384615384615385 15.75  C 15.384615384615385 15.546875  15.308493589743591 15.37109375  15.15625 15.22265625  C 15.004006410256412 15.07421875  14.823717948717952 15  14.615384615384615 15  C 14.407051282051281 15  14.226762820512821 15.07421875  14.074519230769232 15.22265625  C 13.922275641025642 15.37109375  13.846153846153847 15.546875  13.846153846153847 15.75  C 13.846153846153847 15.953125  13.922275641025642 16.12890625  14.074519230769232 16.27734375  C 14.226762820512821 16.42578125  14.407051282051281 16.5  14.615384615384615 16.5  C 14.823717948717952 16.5  15.004006410256412 16.42578125  15.15625 16.27734375  Z M 18.233173076923077 16.27734375  C 18.385416666666664 16.12890625  18.461538461538463 15.953125  18.461538461538463 15.75  C 18.461538461538463 15.546875  18.385416666666664 15.37109375  18.233173076923077 15.22265625  C 18.08092948717949 15.07421875  17.900641025641026 15  17.692307692307693 15  C 17.483974358974358 15  17.303685897435898 15.07421875  17.151442307692307 15.22265625  C 16.99919871794872 15.37109375  16.923076923076923 15.546875  16.923076923076923 15.75  C 16.923076923076923 15.953125  16.99919871794872 16.12890625  17.151442307692307 16.27734375  C 17.303685897435898 16.42578125  17.483974358974358 16.5  17.692307692307693 16.5  C 17.900641025641026 16.5  18.08092948717949 16.42578125  18.233173076923077 16.27734375  Z M 19.663461538461537 12.328124999999998  C 19.887820512820515 12.546874999999996  20 12.8125  20 13.125000000000002  L 20 16.875  C 20 17.1875  19.887820512820515 17.453125  19.663461538461537 17.671875  C 19.439102564102566 17.890625  19.16666666666667 18  18.846153846153847 18  L 1.153846153846154 18  C 0.8333333333333335 18  0.560897435897436 17.890625  0.3365384615384615 17.671875  C 0.11217948717948717 17.453125  0 17.1875  0 16.875  L 0 13.125000000000002  C 0 12.8125  0.11217948717948717 12.546874999999996  0.3365384615384615 12.328124999999998  C 0.560897435897436 12.109375  0.8333333333333335 12.000000000000002  1.153846153846154 12.000000000000002  L 6.742788461538462 12.000000000000002  L 8.365384615384615 13.59375  C 8.830128205128206 14.03125  9.375 14.25  10 14.25  C 10.625 14.25  11.169871794871796 14.03125  11.634615384615385 13.59375  L 13.269230769230768 12.000000000000002  L 18.846153846153847 12.000000000000002  C 19.16666666666667 12.000000000000002  19.439102564102566 12.109375  19.663461538461537 12.328124999999998  Z M 15.384615384615385 6.000000000000001  C 15.721153846153847 6.000000000000001  15.957532051282053 6.15234375  16.09375 6.457031250000001  C 16.229967948717952 6.77734375  16.173878205128208 7.05078125  15.925480769230768 7.27734375  L 10.540865384615385 12.527343750000002  C 10.396634615384615 12.67578125  10.216346153846153 12.749999999999998  10 12.749999999999998  C 9.783653846153847 12.749999999999998  9.603365384615385 12.67578125  9.459134615384615 12.527343750000002  L 4.074519230769231 7.27734375  C 3.826121794871795 7.05078125  3.770032051282052 6.77734375  3.90625 6.457031250000001  C 4.042467948717949 6.15234375  4.278846153846153 6.000000000000001  4.615384615384616 6.000000000000001  L 7.6923076923076925 6.000000000000001  L 7.6923076923076925 0.7499999999999993  C 7.6923076923076925 0.5468749999999976  7.768429487179488 0.37109374999999756  7.920673076923077 0.22265624999999933  C 8.072916666666668 0.07421875000000111  8.25320512820513 0  8.461538461538462 0  L 11.538461538461537 0  C 11.746794871794872 0  11.927083333333336 0.07421875000000111  12.079326923076923 0.22265624999999933  C 12.231570512820513 0.37109374999999756  12.307692307692308 0.5468749999999976  12.307692307692308 0.7499999999999993  L 12.307692307692308 6.000000000000001  L 15.384615384615385 6.000000000000001  Z " fill-rule="nonzero" fill="#63a103" stroke="none" transform="matrix(1 0 0 1 1211 2372 )" />
  </g>
</svg>