<?xml version="1.0" encoding="utf-8"?>
<svg version="1.1" xmlns:xlink="http://www.w3.org/1999/xlink" width="19px" height="19px" viewBox="546 441.5  19 19" xmlns="http://www.w3.org/2000/svg">
  <path d="M 555.5 441.5  C 560.82 441.5  565 445.68  565 451  C 565 456.32  560.82 460.5  555.5 460.5  C 550.18 460.5  546 456.32  546 451  C 546 445.68  550.18 441.5  555.5 441.5  Z " fill-rule="nonzero" fill="#ffffff" stroke="none" />
  <path d="M 555.5 442  C 560.54 442  564.5 445.96  564.5 451  C 564.5 456.04  560.54 460  555.5 460  C 550.46 460  546.5 456.04  546.5 451  C 546.5 445.96  550.46 442  555.5 442  Z " stroke-width="1" stroke="#f59a23" fill="none" />
  <path d="M 555.5 455.75  C 552.84 455.75  550.75 453.66  550.75 451  C 550.75 448.34  552.84 446.25  555.5 446.25  C 558.16 446.25  560.25 448.34  560.25 451  C 560.25 453.66  558.16 455.75  555.5 455.75  " fill-rule="nonzero" fill="#f59a23" stroke="none" />
</svg>