<?xml version="1.0" encoding="utf-8"?>
<svg version="1.1" xmlns:xlink="http://www.w3.org/1999/xlink" width="19px" height="19px" viewBox="404 441.5  19 19" xmlns="http://www.w3.org/2000/svg">
  <path d="M 413.5 441.5  C 418.82 441.5  423 445.68  423 451  C 423 456.32  418.82 460.5  413.5 460.5  C 408.18 460.5  404 456.32  404 451  C 404 445.68  408.18 441.5  413.5 441.5  Z " fill-rule="nonzero" fill="#ffffff" stroke="none" />
  <path d="M 413.5 442  C 418.54 442  422.5 445.96  422.5 451  C 422.5 456.04  418.54 460  413.5 460  C 408.46 460  404.5 456.04  404.5 451  C 404.5 445.96  408.46 442  413.5 442  Z " stroke-width="1" stroke="#f59a23" fill="none" />
  <path d="M 413.5 455.75  C 410.84 455.75  408.75 453.66  408.75 451  C 408.75 448.34  410.84 446.25  413.5 446.25  C 416.16 446.25  418.25 448.34  418.25 451  C 418.25 453.66  416.16 455.75  413.5 455.75  " fill-rule="nonzero" fill="#f59a23" stroke="none" />
</svg>