<?xml version="1.0" encoding="utf-8"?>
<svg version="1.1" xmlns:xlink="http://www.w3.org/1999/xlink" width="19px" height="19px" viewBox="430 330.5  19 19" xmlns="http://www.w3.org/2000/svg">
  <path d="M 439.5 330.5  C 444.82 330.5  449 334.68  449 340  C 449 345.32  444.82 349.5  439.5 349.5  C 434.18 349.5  430 345.32  430 340  C 430 334.68  434.18 330.5  439.5 330.5  Z " fill-rule="nonzero" fill="#f0f0f0" stroke="none" />
  <path d="M 439.5 331  C 444.54 331  448.5 334.96  448.5 340  C 448.5 345.04  444.54 349  439.5 349  C 434.46 349  430.5 345.04  430.5 340  C 430.5 334.96  434.46 331  439.5 331  Z " stroke-width="1" stroke="#f59a23" fill="none" />
  <path d="M 439.5 344.75  C 436.84 344.75  434.75 342.66  434.75 340  C 434.75 337.34  436.84 335.25  439.5 335.25  C 442.16 335.25  444.25 337.34  444.25 340  C 444.25 342.66  442.16 344.75  439.5 344.75  " fill-rule="nonzero" fill="#f59a23" stroke="none" />
</svg>