<?xml version="1.0" encoding="utf-8"?>
<svg version="1.1" xmlns:xlink="http://www.w3.org/1999/xlink" width="19px" height="19px" viewBox="324 330.5  19 19" xmlns="http://www.w3.org/2000/svg">
  <path d="M 333.5 330.5  C 338.82 330.5  343 334.68  343 340  C 343 345.32  338.82 349.5  333.5 349.5  C 328.18 349.5  324 345.32  324 340  C 324 334.68  328.18 330.5  333.5 330.5  Z " fill-rule="nonzero" fill="#ffffff" stroke="none" />
  <path d="M 333.5 331  C 338.54 331  342.5 334.96  342.5 340  C 342.5 345.04  338.54 349  333.5 349  C 328.46 349  324.5 345.04  324.5 340  C 324.5 334.96  328.46 331  333.5 331  Z " stroke-width="1" stroke="#f59a23" fill="none" />
  <path d="M 333.5 344.75  C 330.84 344.75  328.75 342.66  328.75 340  C 328.75 337.34  330.84 335.25  333.5 335.25  C 336.16 335.25  338.25 337.34  338.25 340  C 338.25 342.66  336.16 344.75  333.5 344.75  " fill-rule="nonzero" fill="#f59a23" stroke="none" />
</svg>