<?xml version="1.0" encoding="utf-8"?>
<svg version="1.1" xmlns:xlink="http://www.w3.org/1999/xlink" width="19px" height="19px" viewBox="431 335.5  19 19" xmlns="http://www.w3.org/2000/svg">
  <path d="M 440.5 335.5  C 445.82 335.5  450 339.68  450 345  C 450 350.32  445.82 354.5  440.5 354.5  C 435.18 354.5  431 350.32  431 345  C 431 339.68  435.18 335.5  440.5 335.5  Z " fill-rule="nonzero" fill="#f0f0f0" stroke="none" />
  <path d="M 440.5 336  C 445.54 336  449.5 339.96  449.5 345  C 449.5 350.04  445.54 354  440.5 354  C 435.46 354  431.5 350.04  431.5 345  C 431.5 339.96  435.46 336  440.5 336  Z " stroke-width="1" stroke="#f59a23" fill="none" />
  <path d="M 440.5 349.75  C 437.84 349.75  435.75 347.66  435.75 345  C 435.75 342.34  437.84 340.25  440.5 340.25  C 443.16 340.25  445.25 342.34  445.25 345  C 445.25 347.66  443.16 349.75  440.5 349.75  " fill-rule="nonzero" fill="#f59a23" stroke="none" />
</svg>