<?xml version="1.0" encoding="utf-8"?>
<svg version="1.1" xmlns:xlink="http://www.w3.org/1999/xlink" width="19px" height="19px" viewBox="238 288.5  19 19" xmlns="http://www.w3.org/2000/svg">
  <path d="M 247.5 288.5  C 252.82 288.5  257 292.68  257 298  C 257 303.32  252.82 307.5  247.5 307.5  C 242.18 307.5  238 303.32  238 298  C 238 292.68  242.18 288.5  247.5 288.5  Z " fill-rule="nonzero" fill="#f0f0f0" stroke="none" />
  <path d="M 247.5 289  C 252.54 289  256.5 292.96  256.5 298  C 256.5 303.04  252.54 307  247.5 307  C 242.46 307  238.5 303.04  238.5 298  C 238.5 292.96  242.46 289  247.5 289  Z " stroke-width="1" stroke="#f59a23" fill="none" />
  <path d="M 247.5 302.75  C 244.84 302.75  242.75 300.66  242.75 298  C 242.75 295.34  244.84 293.25  247.5 293.25  C 250.16 293.25  252.25 295.34  252.25 298  C 252.25 300.66  250.16 302.75  247.5 302.75  " fill-rule="nonzero" fill="#f59a23" stroke="none" />
</svg>