<?xml version="1.0" encoding="utf-8"?>
<svg version="1.1" xmlns:xlink="http://www.w3.org/1999/xlink" width="19px" height="19px" viewBox="324 378.5  19 19" xmlns="http://www.w3.org/2000/svg">
  <path d="M 333.5 378.5  C 338.82 378.5  343 382.68  343 388  C 343 393.32  338.82 397.5  333.5 397.5  C 328.18 397.5  324 393.32  324 388  C 324 382.68  328.18 378.5  333.5 378.5  Z " fill-rule="nonzero" fill="#f0f0f0" stroke="none" />
  <path d="M 333.5 379  C 338.54 379  342.5 382.96  342.5 388  C 342.5 393.04  338.54 397  333.5 397  C 328.46 397  324.5 393.04  324.5 388  C 324.5 382.96  328.46 379  333.5 379  Z " stroke-width="1" stroke="#f59a23" fill="none" />
  <path d="M 333.5 392.75  C 330.84 392.75  328.75 390.66  328.75 388  C 328.75 385.34  330.84 383.25  333.5 383.25  C 336.16 383.25  338.25 385.34  338.25 388  C 338.25 390.66  336.16 392.75  333.5 392.75  " fill-rule="nonzero" fill="#f59a23" stroke="none" />
</svg>