<?xml version="1.0" encoding="utf-8"?>
<svg version="1.1" xmlns:xlink="http://www.w3.org/1999/xlink" width="19px" height="19px" viewBox="385 285.5  19 19" xmlns="http://www.w3.org/2000/svg">
  <path d="M 394.5 285.5  C 399.82 285.5  404 289.68  404 295  C 404 300.32  399.82 304.5  394.5 304.5  C 389.18 304.5  385 300.32  385 295  C 385 289.68  389.18 285.5  394.5 285.5  Z " fill-rule="nonzero" fill="#ffffff" stroke="none" />
  <path d="M 394.5 286  C 399.54 286  403.5 289.96  403.5 295  C 403.5 300.04  399.54 304  394.5 304  C 389.46 304  385.5 300.04  385.5 295  C 385.5 289.96  389.46 286  394.5 286  Z " stroke-width="1" stroke="#f59a23" fill="none" />
  <path d="M 394.5 299.75  C 391.84 299.75  389.75 297.66  389.75 295  C 389.75 292.34  391.84 290.25  394.5 290.25  C 397.16 290.25  399.25 292.34  399.25 295  C 399.25 297.66  397.16 299.75  394.5 299.75  " fill-rule="nonzero" fill="#f59a23" stroke="none" />
</svg>