<?xml version="1.0" encoding="utf-8"?>
<svg version="1.1" xmlns:xlink="http://www.w3.org/1999/xlink" width="19px" height="19px" viewBox="237 285.5  19 19" xmlns="http://www.w3.org/2000/svg">
  <path d="M 246.5 285.5  C 251.82 285.5  256 289.68  256 295  C 256 300.32  251.82 304.5  246.5 304.5  C 241.18 304.5  237 300.32  237 295  C 237 289.68  241.18 285.5  246.5 285.5  Z " fill-rule="nonzero" fill="#ffffff" stroke="none" />
  <path d="M 246.5 286  C 251.54 286  255.5 289.96  255.5 295  C 255.5 300.04  251.54 304  246.5 304  C 241.46 304  237.5 300.04  237.5 295  C 237.5 289.96  241.46 286  246.5 286  Z " stroke-width="1" stroke="#f59a23" fill="none" />
  <path d="M 246.5 299.75  C 243.84 299.75  241.75 297.66  241.75 295  C 241.75 292.34  243.84 290.25  246.5 290.25  C 249.16 290.25  251.25 292.34  251.25 295  C 251.25 297.66  249.16 299.75  246.5 299.75  " fill-rule="nonzero" fill="#f59a23" stroke="none" />
</svg>