<?xml version="1.0" encoding="utf-8"?>
<svg version="1.1" xmlns:xlink="http://www.w3.org/1999/xlink" width="19px" height="19px" viewBox="238 335.5  19 19" xmlns="http://www.w3.org/2000/svg">
  <path d="M 247.5 335.5  C 252.82 335.5  257 339.68  257 345  C 257 350.32  252.82 354.5  247.5 354.5  C 242.18 354.5  238 350.32  238 345  C 238 339.68  242.18 335.5  247.5 335.5  Z " fill-rule="nonzero" fill="#f0f0f0" stroke="none" />
  <path d="M 247.5 336  C 252.54 336  256.5 339.96  256.5 345  C 256.5 350.04  252.54 354  247.5 354  C 242.46 354  238.5 350.04  238.5 345  C 238.5 339.96  242.46 336  247.5 336  Z " stroke-width="1" stroke="#f59a23" fill="none" />
  <path d="M 247.5 349.75  C 244.84 349.75  242.75 347.66  242.75 345  C 242.75 342.34  244.84 340.25  247.5 340.25  C 250.16 340.25  252.25 342.34  252.25 345  C 252.25 347.66  250.16 349.75  247.5 349.75  " fill-rule="nonzero" fill="#f59a23" stroke="none" />
</svg>