<?xml version="1.0" encoding="utf-8"?>
<svg version="1.1" xmlns:xlink="http://www.w3.org/1999/xlink" width="19px" height="19px" viewBox="325 379.5  19 19" xmlns="http://www.w3.org/2000/svg">
  <path d="M 334.5 379.5  C 339.82 379.5  344 383.68  344 389  C 344 394.32  339.82 398.5  334.5 398.5  C 329.18 398.5  325 394.32  325 389  C 325 383.68  329.18 379.5  334.5 379.5  Z " fill-rule="nonzero" fill="#f0f0f0" stroke="none" />
  <path d="M 334.5 380  C 339.54 380  343.5 383.96  343.5 389  C 343.5 394.04  339.54 398  334.5 398  C 329.46 398  325.5 394.04  325.5 389  C 325.5 383.96  329.46 380  334.5 380  Z " stroke-width="1" stroke="#f59a23" fill="none" />
  <path d="M 334.5 393.75  C 331.84 393.75  329.75 391.66  329.75 389  C 329.75 386.34  331.84 384.25  334.5 384.25  C 337.16 384.25  339.25 386.34  339.25 389  C 339.25 391.66  337.16 393.75  334.5 393.75  " fill-rule="nonzero" fill="#f59a23" stroke="none" />
</svg>