<?xml version="1.0" encoding="utf-8"?>
<svg version="1.1" xmlns:xlink="http://www.w3.org/1999/xlink" width="19px" height="19px" viewBox="238 379.5  19 19" xmlns="http://www.w3.org/2000/svg">
  <path d="M 247.5 379.5  C 252.82 379.5  257 383.68  257 389  C 257 394.32  252.82 398.5  247.5 398.5  C 242.18 398.5  238 394.32  238 389  C 238 383.68  242.18 379.5  247.5 379.5  Z " fill-rule="nonzero" fill="#ffffff" stroke="none" />
  <path d="M 247.5 380  C 252.54 380  256.5 383.96  256.5 389  C 256.5 394.04  252.54 398  247.5 398  C 242.46 398  238.5 394.04  238.5 389  C 238.5 383.96  242.46 380  247.5 380  Z " stroke-width="1" stroke="#f59a23" fill="none" />
  <path d="M 247.5 393.75  C 244.84 393.75  242.75 391.66  242.75 389  C 242.75 386.34  244.84 384.25  247.5 384.25  C 250.16 384.25  252.25 386.34  252.25 389  C 252.25 391.66  250.16 393.75  247.5 393.75  " fill-rule="nonzero" fill="#f59a23" stroke="none" />
</svg>