<?xml version="1.0" encoding="utf-8"?>
<svg version="1.1" xmlns:xlink="http://www.w3.org/1999/xlink" width="19px" height="19px" viewBox="325 335.5  19 19" xmlns="http://www.w3.org/2000/svg">
  <path d="M 334.5 335.5  C 339.82 335.5  344 339.68  344 345  C 344 350.32  339.82 354.5  334.5 354.5  C 329.18 354.5  325 350.32  325 345  C 325 339.68  329.18 335.5  334.5 335.5  Z " fill-rule="nonzero" fill="#ffffff" stroke="none" />
  <path d="M 334.5 336  C 339.54 336  343.5 339.96  343.5 345  C 343.5 350.04  339.54 354  334.5 354  C 329.46 354  325.5 350.04  325.5 345  C 325.5 339.96  329.46 336  334.5 336  Z " stroke-width="1" stroke="#f59a23" fill="none" />
  <path d="M 334.5 349.75  C 331.84 349.75  329.75 347.66  329.75 345  C 329.75 342.34  331.84 340.25  334.5 340.25  C 337.16 340.25  339.25 342.34  339.25 345  C 339.25 347.66  337.16 349.75  334.5 349.75  " fill-rule="nonzero" fill="#f59a23" stroke="none" />
</svg>