<?xml version="1.0" encoding="utf-8"?>
<svg version="1.1" xmlns:xlink="http://www.w3.org/1999/xlink" width="19px" height="19px" viewBox="237 330.5  19 19" xmlns="http://www.w3.org/2000/svg">
  <path d="M 246.5 330.5  C 251.82 330.5  256 334.68  256 340  C 256 345.32  251.82 349.5  246.5 349.5  C 241.18 349.5  237 345.32  237 340  C 237 334.68  241.18 330.5  246.5 330.5  Z " fill-rule="nonzero" fill="#ffffff" stroke="none" />
  <path d="M 246.5 331  C 251.54 331  255.5 334.96  255.5 340  C 255.5 345.04  251.54 349  246.5 349  C 241.46 349  237.5 345.04  237.5 340  C 237.5 334.96  241.46 331  246.5 331  Z " stroke-width="1" stroke="#f59a23" fill="none" />
  <path d="M 246.5 344.75  C 243.84 344.75  241.75 342.66  241.75 340  C 241.75 337.34  243.84 335.25  246.5 335.25  C 249.16 335.25  251.25 337.34  251.25 340  C 251.25 342.66  249.16 344.75  246.5 344.75  " fill-rule="nonzero" fill="#f59a23" stroke="none" />
</svg>