<?xml version="1.0" encoding="utf-8"?>
<svg version="1.1" xmlns:xlink="http://www.w3.org/1999/xlink" width="19px" height="19px" viewBox="237 378.5  19 19" xmlns="http://www.w3.org/2000/svg">
  <path d="M 246.5 378.5  C 251.82 378.5  256 382.68  256 388  C 256 393.32  251.82 397.5  246.5 397.5  C 241.18 397.5  237 393.32  237 388  C 237 382.68  241.18 378.5  246.5 378.5  Z " fill-rule="nonzero" fill="#f0f0f0" stroke="none" />
  <path d="M 246.5 379  C 251.54 379  255.5 382.96  255.5 388  C 255.5 393.04  251.54 397  246.5 397  C 241.46 397  237.5 393.04  237.5 388  C 237.5 382.96  241.46 379  246.5 379  Z " stroke-width="1" stroke="#f59a23" fill="none" />
  <path d="M 246.5 392.75  C 243.84 392.75  241.75 390.66  241.75 388  C 241.75 385.34  243.84 383.25  246.5 383.25  C 249.16 383.25  251.25 385.34  251.25 388  C 251.25 390.66  249.16 392.75  246.5 392.75  " fill-rule="nonzero" fill="#f59a23" stroke="none" />
</svg>