<?xml version="1.0" encoding="utf-8"?>
<svg version="1.1" xmlns:xlink="http://www.w3.org/1999/xlink" width="19px" height="19px" viewBox="1050 373.5  19 19" xmlns="http://www.w3.org/2000/svg">
  <path d="M 1059.5 373.5  C 1064.82 373.5  1069 377.68  1069 383  C 1069 388.32  1064.82 392.5  1059.5 392.5  C 1054.18 392.5  1050 388.32  1050 383  C 1050 377.68  1054.18 373.5  1059.5 373.5  Z " fill-rule="nonzero" fill="#f0f0f0" stroke="none" />
  <path d="M 1059.5 374  C 1064.54 374  1068.5 377.96  1068.5 383  C 1068.5 388.04  1064.54 392  1059.5 392  C 1054.46 392  1050.5 388.04  1050.5 383  C 1050.5 377.96  1054.46 374  1059.5 374  Z " stroke-width="1" stroke="#f59a23" fill="none" />
  <path d="M 1059.5 387.75  C 1056.84 387.75  1054.75 385.66  1054.75 383  C 1054.75 380.34  1056.84 378.25  1059.5 378.25  C 1062.16 378.25  1064.25 380.34  1064.25 383  C 1064.25 385.66  1062.16 387.75  1059.5 387.75  " fill-rule="nonzero" fill="#f59a23" stroke="none" />
</svg>