<?xml version="1.0" encoding="utf-8"?>
<svg version="1.1" xmlns:xlink="http://www.w3.org/1999/xlink" width="19px" height="19px" viewBox="670 373.5  19 19" xmlns="http://www.w3.org/2000/svg">
  <path d="M 679.5 373.5  C 684.82 373.5  689 377.68  689 383  C 689 388.32  684.82 392.5  679.5 392.5  C 674.18 392.5  670 388.32  670 383  C 670 377.68  674.18 373.5  679.5 373.5  Z " fill-rule="nonzero" fill="#ffffff" stroke="none" />
  <path d="M 679.5 374  C 684.54 374  688.5 377.96  688.5 383  C 688.5 388.04  684.54 392  679.5 392  C 674.46 392  670.5 388.04  670.5 383  C 670.5 377.96  674.46 374  679.5 374  Z " stroke-width="1" stroke="#f59a23" fill="none" />
  <path d="M 679.5 387.75  C 676.84 387.75  674.75 385.66  674.75 383  C 674.75 380.34  676.84 378.25  679.5 378.25  C 682.16 378.25  684.25 380.34  684.25 383  C 684.25 385.66  682.16 387.75  679.5 387.75  " fill-rule="nonzero" fill="#f59a23" stroke="none" />
</svg>