<?xml version="1.0" encoding="utf-8"?>
<svg version="1.1" xmlns:xlink="http://www.w3.org/1999/xlink" width="19px" height="19px" viewBox="644 389.5  19 19" xmlns="http://www.w3.org/2000/svg">
  <path d="M 653.5 389.5  C 658.82 389.5  663 393.68  663 399  C 663 404.32  658.82 408.5  653.5 408.5  C 648.18 408.5  644 404.32  644 399  C 644 393.68  648.18 389.5  653.5 389.5  Z " fill-rule="nonzero" fill="#f0f0f0" stroke="none" />
  <path d="M 653.5 390  C 658.54 390  662.5 393.96  662.5 399  C 662.5 404.04  658.54 408  653.5 408  C 648.46 408  644.5 404.04  644.5 399  C 644.5 393.96  648.46 390  653.5 390  Z " stroke-width="1" stroke="#f59a23" fill="none" />
  <path d="M 653.5 403.75  C 650.84 403.75  648.75 401.66  648.75 399  C 648.75 396.34  650.84 394.25  653.5 394.25  C 656.16 394.25  658.25 396.34  658.25 399  C 658.25 401.66  656.16 403.75  653.5 403.75  " fill-rule="nonzero" fill="#f59a23" stroke="none" />
</svg>