<?xml version="1.0" encoding="utf-8"?>
<svg version="1.1" xmlns:xlink="http://www.w3.org/1999/xlink" width="19px" height="19px" viewBox="465 389.5  19 19" xmlns="http://www.w3.org/2000/svg">
  <path d="M 474.5 389.5  C 479.82 389.5  484 393.68  484 399  C 484 404.32  479.82 408.5  474.5 408.5  C 469.18 408.5  465 404.32  465 399  C 465 393.68  469.18 389.5  474.5 389.5  Z " fill-rule="nonzero" fill="#ffffff" stroke="none" />
  <path d="M 474.5 390  C 479.54 390  483.5 393.96  483.5 399  C 483.5 404.04  479.54 408  474.5 408  C 469.46 408  465.5 404.04  465.5 399  C 465.5 393.96  469.46 390  474.5 390  Z " stroke-width="1" stroke="#f59a23" fill="none" />
  <path d="M 474.5 403.75  C 471.84 403.75  469.75 401.66  469.75 399  C 469.75 396.34  471.84 394.25  474.5 394.25  C 477.16 394.25  479.25 396.34  479.25 399  C 479.25 401.66  477.16 403.75  474.5 403.75  " fill-rule="nonzero" fill="#f59a23" stroke="none" />
</svg>