<?xml version="1.0" encoding="utf-8"?>
<svg version="1.1" xmlns:xlink="http://www.w3.org/1999/xlink" width="19px" height="19px" viewBox="653 181  19 19" xmlns="http://www.w3.org/2000/svg">
  <path d="M 662.5 181  C 667.82 181  672 185.18  672 190.5  C 672 195.82  667.82 200  662.5 200  C 657.18 200  653 195.82  653 190.5  C 653 185.18  657.18 181  662.5 181  Z " fill-rule="nonzero" fill="#f0f0f0" stroke="none" />
  <path d="M 662.5 181.5  C 667.54 181.5  671.5 185.46  671.5 190.5  C 671.5 195.54  667.54 199.5  662.5 199.5  C 657.46 199.5  653.5 195.54  653.5 190.5  C 653.5 185.46  657.46 181.5  662.5 181.5  Z " stroke-width="1" stroke="#f59a23" fill="none" />
  <path d="M 662.5 195.25  C 659.84 195.25  657.75 193.16  657.75 190.5  C 657.75 187.84  659.84 185.75  662.5 185.75  C 665.16 185.75  667.25 187.84  667.25 190.5  C 667.25 193.16  665.16 195.25  662.5 195.25  " fill-rule="nonzero" fill="#f59a23" stroke="none" />
</svg>