<?xml version="1.0" encoding="utf-8"?>
<svg version="1.1" xmlns:xlink="http://www.w3.org/1999/xlink" width="19px" height="19px" viewBox="798 181  19 19" xmlns="http://www.w3.org/2000/svg">
  <path d="M 807.5 181  C 812.82 181  817 185.18  817 190.5  C 817 195.82  812.82 200  807.5 200  C 802.18 200  798 195.82  798 190.5  C 798 185.18  802.18 181  807.5 181  Z " fill-rule="nonzero" fill="#ffffff" stroke="none" />
  <path d="M 807.5 181.5  C 812.54 181.5  816.5 185.46  816.5 190.5  C 816.5 195.54  812.54 199.5  807.5 199.5  C 802.46 199.5  798.5 195.54  798.5 190.5  C 798.5 185.46  802.46 181.5  807.5 181.5  Z " stroke-width="1" stroke="#f59a23" fill="none" />
  <path d="M 807.5 195.25  C 804.84 195.25  802.75 193.16  802.75 190.5  C 802.75 187.84  804.84 185.75  807.5 185.75  C 810.16 185.75  812.25 187.84  812.25 190.5  C 812.25 193.16  810.16 195.25  807.5 195.25  " fill-rule="nonzero" fill="#f59a23" stroke="none" />
</svg>