<?xml version="1.0" encoding="utf-8"?>
<svg version="1.1" xmlns:xlink="http://www.w3.org/1999/xlink" width="19px" height="19px" viewBox="406 2285  19 19" xmlns="http://www.w3.org/2000/svg">
  <path d="M 415.5 2285  C 420.82 2285  425 2289.18  425 2294.5  C 425 2299.82  420.82 2304  415.5 2304  C 410.18 2304  406 2299.82  406 2294.5  C 406 2289.18  410.18 2285  415.5 2285  Z " fill-rule="nonzero" fill="#ffffff" stroke="none" />
  <path d="M 415.5 2285.5  C 420.54 2285.5  424.5 2289.46  424.5 2294.5  C 424.5 2299.54  420.54 2303.5  415.5 2303.5  C 410.46 2303.5  406.5 2299.54  406.5 2294.5  C 406.5 2289.46  410.46 2285.5  415.5 2285.5  Z " stroke-width="1" stroke="#f59a23" fill="none" />
  <path d="M 415.5 2299.25  C 412.84 2299.25  410.75 2297.16  410.75 2294.5  C 410.75 2291.84  412.84 2289.75  415.5 2289.75  C 418.16 2289.75  420.25 2291.84  420.25 2294.5  C 420.25 2297.16  418.16 2299.25  415.5 2299.25  " fill-rule="nonzero" fill="#f59a23" stroke="none" />
</svg>