<?xml version="1.0" encoding="utf-8"?>
<svg version="1.1" xmlns:xlink="http://www.w3.org/1999/xlink" width="19px" height="19px" viewBox="232 2285  19 19" xmlns="http://www.w3.org/2000/svg">
  <path d="M 241.5 2285  C 246.82 2285  251 2289.18  251 2294.5  C 251 2299.82  246.82 2304  241.5 2304  C 236.18 2304  232 2299.82  232 2294.5  C 232 2289.18  236.18 2285  241.5 2285  Z " fill-rule="nonzero" fill="#ffffff" stroke="none" />
  <path d="M 241.5 2285.5  C 246.54 2285.5  250.5 2289.46  250.5 2294.5  C 250.5 2299.54  246.54 2303.5  241.5 2303.5  C 236.46 2303.5  232.5 2299.54  232.5 2294.5  C 232.5 2289.46  236.46 2285.5  241.5 2285.5  Z " stroke-width="1" stroke="#f59a23" fill="none" />
  <path d="M 241.5 2299.25  C 238.84 2299.25  236.75 2297.16  236.75 2294.5  C 236.75 2291.84  238.84 2289.75  241.5 2289.75  C 244.16 2289.75  246.25 2291.84  246.25 2294.5  C 246.25 2297.16  244.16 2299.25  241.5 2299.25  " fill-rule="nonzero" fill="#f59a23" stroke="none" />
</svg>