<?xml version="1.0" encoding="utf-8"?>
<svg version="1.1" xmlns:xlink="http://www.w3.org/1999/xlink" width="19px" height="19px" viewBox="210 2678.5  19 19" xmlns="http://www.w3.org/2000/svg">
  <path d="M 219.5 2678.5  C 224.82 2678.5  229 2682.68  229 2688  C 229 2693.32  224.82 2697.5  219.5 2697.5  C 214.18 2697.5  210 2693.32  210 2688  C 210 2682.68  214.18 2678.5  219.5 2678.5  Z " fill-rule="nonzero" fill="#ffffff" stroke="none" />
  <path d="M 219.5 2679  C 224.54 2679  228.5 2682.96  228.5 2688  C 228.5 2693.04  224.54 2697  219.5 2697  C 214.46 2697  210.5 2693.04  210.5 2688  C 210.5 2682.96  214.46 2679  219.5 2679  Z " stroke-width="1" stroke="#333333" fill="none" />
  <path d="M 219.5 2692.75  C 216.84 2692.75  214.75 2690.66  214.75 2688  C 214.75 2685.34  216.84 2683.25  219.5 2683.25  C 222.16 2683.25  224.25 2685.34  224.25 2688  C 224.25 2690.66  222.16 2692.75  219.5 2692.75  " fill-rule="nonzero" fill="#333333" stroke="none" />
</svg>