<?xml version="1.0" encoding="utf-8"?>
<svg version="1.1" xmlns:xlink="http://www.w3.org/1999/xlink" width="19px" height="19px" viewBox="210 2724.5  19 19" xmlns="http://www.w3.org/2000/svg">
  <path d="M 219.5 2724.5  C 224.82 2724.5  229 2728.68  229 2734  C 229 2739.32  224.82 2743.5  219.5 2743.5  C 214.18 2743.5  210 2739.32  210 2734  C 210 2728.68  214.18 2724.5  219.5 2724.5  Z " fill-rule="nonzero" fill="#ffffff" stroke="none" />
  <path d="M 219.5 2725  C 224.54 2725  228.5 2728.96  228.5 2734  C 228.5 2739.04  224.54 2743  219.5 2743  C 214.46 2743  210.5 2739.04  210.5 2734  C 210.5 2728.96  214.46 2725  219.5 2725  Z " stroke-width="1" stroke="#f59a23" fill="none" />
  <path d="M 219.5 2738.75  C 216.84 2738.75  214.75 2736.66  214.75 2734  C 214.75 2731.34  216.84 2729.25  219.5 2729.25  C 222.16 2729.25  224.25 2731.34  224.25 2734  C 224.25 2736.66  222.16 2738.75  219.5 2738.75  " fill-rule="nonzero" fill="#f59a23" stroke="none" />
</svg>