<?xml version="1.0" encoding="utf-8"?>
<svg version="1.1" xmlns:xlink="http://www.w3.org/1999/xlink" width="19px" height="19px" viewBox="553 2678.5  19 19" xmlns="http://www.w3.org/2000/svg">
  <path d="M 562.5 2678.5  C 567.82 2678.5  572 2682.68  572 2688  C 572 2693.32  567.82 2697.5  562.5 2697.5  C 557.18 2697.5  553 2693.32  553 2688  C 553 2682.68  557.18 2678.5  562.5 2678.5  Z " fill-rule="nonzero" fill="#ffffff" stroke="none" />
  <path d="M 562.5 2679  C 567.54 2679  571.5 2682.96  571.5 2688  C 571.5 2693.04  567.54 2697  562.5 2697  C 557.46 2697  553.5 2693.04  553.5 2688  C 553.5 2682.96  557.46 2679  562.5 2679  Z " stroke-width="1" stroke="#f59a23" fill="none" />
  <path d="M 562.5 2692.75  C 559.84 2692.75  557.75 2690.66  557.75 2688  C 557.75 2685.34  559.84 2683.25  562.5 2683.25  C 565.16 2683.25  567.25 2685.34  567.25 2688  C 567.25 2690.66  565.16 2692.75  562.5 2692.75  " fill-rule="nonzero" fill="#f59a23" stroke="none" />
</svg>