<?xml version="1.0" encoding="utf-8"?>
<svg version="1.1" xmlns:xlink="http://www.w3.org/1999/xlink" width="19px" height="19px" viewBox="384 2724.5  19 19" xmlns="http://www.w3.org/2000/svg">
  <path d="M 393.5 2724.5  C 398.82 2724.5  403 2728.68  403 2734  C 403 2739.32  398.82 2743.5  393.5 2743.5  C 388.18 2743.5  384 2739.32  384 2734  C 384 2728.68  388.18 2724.5  393.5 2724.5  Z " fill-rule="nonzero" fill="#ffffff" stroke="none" />
  <path d="M 393.5 2725  C 398.54 2725  402.5 2728.96  402.5 2734  C 402.5 2739.04  398.54 2743  393.5 2743  C 388.46 2743  384.5 2739.04  384.5 2734  C 384.5 2728.96  388.46 2725  393.5 2725  Z " stroke-width="1" stroke="#f59a23" fill="none" />
  <path d="M 393.5 2738.75  C 390.84 2738.75  388.75 2736.66  388.75 2734  C 388.75 2731.34  390.84 2729.25  393.5 2729.25  C 396.16 2729.25  398.25 2731.34  398.25 2734  C 398.25 2736.66  396.16 2738.75  393.5 2738.75  " fill-rule="nonzero" fill="#f59a23" stroke="none" />
</svg>