<?xml version="1.0" encoding="utf-8"?>
<svg version="1.1" xmlns:xlink="http://www.w3.org/1999/xlink" width="19px" height="19px" viewBox="384 2678.5  19 19" xmlns="http://www.w3.org/2000/svg">
  <path d="M 393.5 2678.5  C 398.82 2678.5  403 2682.68  403 2688  C 403 2693.32  398.82 2697.5  393.5 2697.5  C 388.18 2697.5  384 2693.32  384 2688  C 384 2682.68  388.18 2678.5  393.5 2678.5  Z " fill-rule="nonzero" fill="#ffffff" stroke="none" />
  <path d="M 393.5 2679  C 398.54 2679  402.5 2682.96  402.5 2688  C 402.5 2693.04  398.54 2697  393.5 2697  C 388.46 2697  384.5 2693.04  384.5 2688  C 384.5 2682.96  388.46 2679  393.5 2679  Z " stroke-width="1" stroke="#f59a23" fill="none" />
  <path d="M 393.5 2692.75  C 390.84 2692.75  388.75 2690.66  388.75 2688  C 388.75 2685.34  390.84 2683.25  393.5 2683.25  C 396.16 2683.25  398.25 2685.34  398.25 2688  C 398.25 2690.66  396.16 2692.75  393.5 2692.75  " fill-rule="nonzero" fill="#f59a23" stroke="none" />
</svg>