<?xml version="1.0" encoding="utf-8"?>
<svg version="1.1" xmlns:xlink="http://www.w3.org/1999/xlink" width="19px" height="19px" viewBox="370 4271  19 19" xmlns="http://www.w3.org/2000/svg">
  <path d="M 379.5 4271  C 384.82 4271  389 4275.18  389 4280.5  C 389 4285.82  384.82 4290  379.5 4290  C 374.18 4290  370 4285.82  370 4280.5  C 370 4275.18  374.18 4271  379.5 4271  Z " fill-rule="nonzero" fill="#ffffff" stroke="none" />
  <path d="M 379.5 4271.5  C 384.54 4271.5  388.5 4275.46  388.5 4280.5  C 388.5 4285.54  384.54 4289.5  379.5 4289.5  C 374.46 4289.5  370.5 4285.54  370.5 4280.5  C 370.5 4275.46  374.46 4271.5  379.5 4271.5  Z " stroke-width="1" stroke="#f59a23" fill="none" />
  <path d="M 379.5 4285.25  C 376.84 4285.25  374.75 4283.16  374.75 4280.5  C 374.75 4277.84  376.84 4275.75  379.5 4275.75  C 382.16 4275.75  384.25 4277.84  384.25 4280.5  C 384.25 4283.16  382.16 4285.25  379.5 4285.25  " fill-rule="nonzero" fill="#f59a23" stroke="none" />
</svg>