<?xml version="1.0" encoding="utf-8"?>
<svg version="1.1" xmlns:xlink="http://www.w3.org/1999/xlink" width="19px" height="19px" viewBox="370 4307  19 19" xmlns="http://www.w3.org/2000/svg">
  <path d="M 379.5 4307  C 384.82 4307  389 4311.18  389 4316.5  C 389 4321.82  384.82 4326  379.5 4326  C 374.18 4326  370 4321.82  370 4316.5  C 370 4311.18  374.18 4307  379.5 4307  Z " fill-rule="nonzero" fill="#ffffff" stroke="none" />
  <path d="M 379.5 4307.5  C 384.54 4307.5  388.5 4311.46  388.5 4316.5  C 388.5 4321.54  384.54 4325.5  379.5 4325.5  C 374.46 4325.5  370.5 4321.54  370.5 4316.5  C 370.5 4311.46  374.46 4307.5  379.5 4307.5  Z " stroke-width="1" stroke="#f59a23" fill="none" />
  <path d="M 379.5 4321.25  C 376.84 4321.25  374.75 4319.16  374.75 4316.5  C 374.75 4313.84  376.84 4311.75  379.5 4311.75  C 382.16 4311.75  384.25 4313.84  384.25 4316.5  C 384.25 4319.16  382.16 4321.25  379.5 4321.25  " fill-rule="nonzero" fill="#f59a23" stroke="none" />
</svg>