<?xml version="1.0" encoding="utf-8"?>
<svg version="1.1" xmlns:xlink="http://www.w3.org/1999/xlink" width="19px" height="19px" viewBox="377 4524  19 19" xmlns="http://www.w3.org/2000/svg">
  <path d="M 386.5 4524  C 391.82 4524  396 4528.18  396 4533.5  C 396 4538.82  391.82 4543  386.5 4543  C 381.18 4543  377 4538.82  377 4533.5  C 377 4528.18  381.18 4524  386.5 4524  Z " fill-rule="nonzero" fill="#ffffff" stroke="none" />
  <path d="M 386.5 4524.5  C 391.54 4524.5  395.5 4528.46  395.5 4533.5  C 395.5 4538.54  391.54 4542.5  386.5 4542.5  C 381.46 4542.5  377.5 4538.54  377.5 4533.5  C 377.5 4528.46  381.46 4524.5  386.5 4524.5  Z " stroke-width="1" stroke="#f59a23" fill="none" />
  <path d="M 386.5 4538.25  C 383.84 4538.25  381.75 4536.16  381.75 4533.5  C 381.75 4530.84  383.84 4528.75  386.5 4528.75  C 389.16 4528.75  391.25 4530.84  391.25 4533.5  C 391.25 4536.16  389.16 4538.25  386.5 4538.25  " fill-rule="nonzero" fill="#f59a23" stroke="none" />
</svg>