<?xml version="1.0" encoding="utf-8"?>
<svg version="1.1" xmlns:xlink="http://www.w3.org/1999/xlink" width="19px" height="19px" viewBox="961 4526  19 19" xmlns="http://www.w3.org/2000/svg">
  <path d="M 970.5 4526  C 975.82 4526  980 4530.18  980 4535.5  C 980 4540.82  975.82 4545  970.5 4545  C 965.18 4545  961 4540.82  961 4535.5  C 961 4530.18  965.18 4526  970.5 4526  Z " fill-rule="nonzero" fill="#ffffff" stroke="none" />
  <path d="M 970.5 4526.5  C 975.54 4526.5  979.5 4530.46  979.5 4535.5  C 979.5 4540.54  975.54 4544.5  970.5 4544.5  C 965.46 4544.5  961.5 4540.54  961.5 4535.5  C 961.5 4530.46  965.46 4526.5  970.5 4526.5  Z " stroke-width="1" stroke="#f59a23" fill="none" />
  <path d="M 970.5 4540.25  C 967.84 4540.25  965.75 4538.16  965.75 4535.5  C 965.75 4532.84  967.84 4530.75  970.5 4530.75  C 973.16 4530.75  975.25 4532.84  975.25 4535.5  C 975.25 4538.16  973.16 4540.25  970.5 4540.25  " fill-rule="nonzero" fill="#f59a23" stroke="none" />
</svg>