<?xml version="1.0" encoding="utf-8"?>
<svg version="1.1" xmlns:xlink="http://www.w3.org/1999/xlink" width="19px" height="19px" viewBox="967 4271  19 19" xmlns="http://www.w3.org/2000/svg">
  <path d="M 976.5 4271  C 981.82 4271  986 4275.18  986 4280.5  C 986 4285.82  981.82 4290  976.5 4290  C 971.18 4290  967 4285.82  967 4280.5  C 967 4275.18  971.18 4271  976.5 4271  Z " fill-rule="nonzero" fill="#ffffff" stroke="none" />
  <path d="M 976.5 4271.5  C 981.54 4271.5  985.5 4275.46  985.5 4280.5  C 985.5 4285.54  981.54 4289.5  976.5 4289.5  C 971.46 4289.5  967.5 4285.54  967.5 4280.5  C 967.5 4275.46  971.46 4271.5  976.5 4271.5  Z " stroke-width="1" stroke="#f59a23" fill="none" />
  <path d="M 976.5 4285.25  C 973.84 4285.25  971.75 4283.16  971.75 4280.5  C 971.75 4277.84  973.84 4275.75  976.5 4275.75  C 979.16 4275.75  981.25 4277.84  981.25 4280.5  C 981.25 4283.16  979.16 4285.25  976.5 4285.25  " fill-rule="nonzero" fill="#f59a23" stroke="none" />
</svg>