<?xml version="1.0" encoding="utf-8"?>
<svg version="1.1" xmlns:xlink="http://www.w3.org/1999/xlink" width="19px" height="19px" viewBox="1060 4271  19 19" xmlns="http://www.w3.org/2000/svg">
  <path d="M 1069.5 4271  C 1074.82 4271  1079 4275.18  1079 4280.5  C 1079 4285.82  1074.82 4290  1069.5 4290  C 1064.18 4290  1060 4285.82  1060 4280.5  C 1060 4275.18  1064.18 4271  1069.5 4271  Z " fill-rule="nonzero" fill="#ffffff" stroke="none" />
  <path d="M 1069.5 4271.5  C 1074.54 4271.5  1078.5 4275.46  1078.5 4280.5  C 1078.5 4285.54  1074.54 4289.5  1069.5 4289.5  C 1064.46 4289.5  1060.5 4285.54  1060.5 4280.5  C 1060.5 4275.46  1064.46 4271.5  1069.5 4271.5  Z " stroke-width="1" stroke="#f59a23" fill="none" />
  <path d="M 1069.5 4285.25  C 1066.84 4285.25  1064.75 4283.16  1064.75 4280.5  C 1064.75 4277.84  1066.84 4275.75  1069.5 4275.75  C 1072.16 4275.75  1074.25 4277.84  1074.25 4280.5  C 1074.25 4283.16  1072.16 4285.25  1069.5 4285.25  " fill-rule="nonzero" fill="#f59a23" stroke="none" />
</svg>