<?xml version="1.0" encoding="utf-8"?>
<svg version="1.1" xmlns:xlink="http://www.w3.org/1999/xlink" width="19px" height="19px" viewBox="967 4307  19 19" xmlns="http://www.w3.org/2000/svg">
  <path d="M 976.5 4307  C 981.82 4307  986 4311.18  986 4316.5  C 986 4321.82  981.82 4326  976.5 4326  C 971.18 4326  967 4321.82  967 4316.5  C 967 4311.18  971.18 4307  976.5 4307  Z " fill-rule="nonzero" fill="#ffffff" stroke="none" />
  <path d="M 976.5 4307.5  C 981.54 4307.5  985.5 4311.46  985.5 4316.5  C 985.5 4321.54  981.54 4325.5  976.5 4325.5  C 971.46 4325.5  967.5 4321.54  967.5 4316.5  C 967.5 4311.46  971.46 4307.5  976.5 4307.5  Z " stroke-width="1" stroke="#f59a23" fill="none" />
  <path d="M 976.5 4321.25  C 973.84 4321.25  971.75 4319.16  971.75 4316.5  C 971.75 4313.84  973.84 4311.75  976.5 4311.75  C 979.16 4311.75  981.25 4313.84  981.25 4316.5  C 981.25 4319.16  979.16 4321.25  976.5 4321.25  " fill-rule="nonzero" fill="#f59a23" stroke="none" />
</svg>