<?xml version="1.0" encoding="utf-8"?>
<svg version="1.1" xmlns:xlink="http://www.w3.org/1999/xlink" width="19px" height="19px" viewBox="1060 4307  19 19" xmlns="http://www.w3.org/2000/svg">
  <path d="M 1069.5 4307  C 1074.82 4307  1079 4311.18  1079 4316.5  C 1079 4321.82  1074.82 4326  1069.5 4326  C 1064.18 4326  1060 4321.82  1060 4316.5  C 1060 4311.18  1064.18 4307  1069.5 4307  Z " fill-rule="nonzero" fill="#ffffff" stroke="none" />
  <path d="M 1069.5 4307.5  C 1074.54 4307.5  1078.5 4311.46  1078.5 4316.5  C 1078.5 4321.54  1074.54 4325.5  1069.5 4325.5  C 1064.46 4325.5  1060.5 4321.54  1060.5 4316.5  C 1060.5 4311.46  1064.46 4307.5  1069.5 4307.5  Z " stroke-width="1" stroke="#f59a23" fill="none" />
  <path d="M 1069.5 4321.25  C 1066.84 4321.25  1064.75 4319.16  1064.75 4316.5  C 1064.75 4313.84  1066.84 4311.75  1069.5 4311.75  C 1072.16 4311.75  1074.25 4313.84  1074.25 4316.5  C 1074.25 4319.16  1072.16 4321.25  1069.5 4321.25  " fill-rule="nonzero" fill="#f59a23" stroke="none" />
</svg>