<?xml version="1.0" encoding="utf-8"?>
<svg version="1.1" xmlns:xlink="http://www.w3.org/1999/xlink" width="19px" height="19px" viewBox="364 4393  19 19" xmlns="http://www.w3.org/2000/svg">
  <path d="M 373.5 4393  C 378.82 4393  383 4397.18  383 4402.5  C 383 4407.82  378.82 4412  373.5 4412  C 368.18 4412  364 4407.82  364 4402.5  C 364 4397.18  368.18 4393  373.5 4393  Z " fill-rule="nonzero" fill="#ffffff" stroke="none" />
  <path d="M 373.5 4393.5  C 378.54 4393.5  382.5 4397.46  382.5 4402.5  C 382.5 4407.54  378.54 4411.5  373.5 4411.5  C 368.46 4411.5  364.5 4407.54  364.5 4402.5  C 364.5 4397.46  368.46 4393.5  373.5 4393.5  Z " stroke-width="1" stroke="#333333" fill="none" />
  <path d="M 373.5 4407.25  C 370.84 4407.25  368.75 4405.16  368.75 4402.5  C 368.75 4399.84  370.84 4397.75  373.5 4397.75  C 376.16 4397.75  378.25 4399.84  378.25 4402.5  C 378.25 4405.16  376.16 4407.25  373.5 4407.25  " fill-rule="nonzero" fill="#333333" stroke="none" />
</svg>