<?xml version="1.0" encoding="utf-8"?>
<svg version="1.1" xmlns:xlink="http://www.w3.org/1999/xlink" width="19px" height="19px" viewBox="371 4758  19 19" xmlns="http://www.w3.org/2000/svg">
  <path d="M 380.5 4758  C 385.82 4758  390 4762.18  390 4767.5  C 390 4772.82  385.82 4777  380.5 4777  C 375.18 4777  371 4772.82  371 4767.5  C 371 4762.18  375.18 4758  380.5 4758  Z " fill-rule="nonzero" fill="#ffffff" stroke="none" />
  <path d="M 380.5 4758.5  C 385.54 4758.5  389.5 4762.46  389.5 4767.5  C 389.5 4772.54  385.54 4776.5  380.5 4776.5  C 375.46 4776.5  371.5 4772.54  371.5 4767.5  C 371.5 4762.46  375.46 4758.5  380.5 4758.5  Z " stroke-width="1" stroke="#f59a23" fill="none" />
  <path d="M 380.5 4772.25  C 377.84 4772.25  375.75 4770.16  375.75 4767.5  C 375.75 4764.84  377.84 4762.75  380.5 4762.75  C 383.16 4762.75  385.25 4764.84  385.25 4767.5  C 385.25 4770.16  383.16 4772.25  380.5 4772.25  " fill-rule="nonzero" fill="#f59a23" stroke="none" />
</svg>