<?xml version="1.0" encoding="utf-8"?>
<svg version="1.1" xmlns:xlink="http://www.w3.org/1999/xlink" width="19px" height="19px" viewBox="460 4816  19 19" xmlns="http://www.w3.org/2000/svg">
  <path d="M 469.5 4816  C 474.82 4816  479 4820.18  479 4825.5  C 479 4830.82  474.82 4835  469.5 4835  C 464.18 4835  460 4830.82  460 4825.5  C 460 4820.18  464.18 4816  469.5 4816  Z " fill-rule="nonzero" fill="#ffffff" stroke="none" />
  <path d="M 469.5 4816.5  C 474.54 4816.5  478.5 4820.46  478.5 4825.5  C 478.5 4830.54  474.54 4834.5  469.5 4834.5  C 464.46 4834.5  460.5 4830.54  460.5 4825.5  C 460.5 4820.46  464.46 4816.5  469.5 4816.5  Z " stroke-width="1" stroke="#f59a23" fill="none" />
  <path d="M 469.5 4830.25  C 466.84 4830.25  464.75 4828.16  464.75 4825.5  C 464.75 4822.84  466.84 4820.75  469.5 4820.75  C 472.16 4820.75  474.25 4822.84  474.25 4825.5  C 474.25 4828.16  472.16 4830.25  469.5 4830.25  " fill-rule="nonzero" fill="#f59a23" stroke="none" />
</svg>