<?xml version="1.0" encoding="utf-8"?>
<svg version="1.1" xmlns:xlink="http://www.w3.org/1999/xlink" width="19px" height="19px" viewBox="371 4816  19 19" xmlns="http://www.w3.org/2000/svg">
  <path d="M 380.5 4816  C 385.82 4816  390 4820.18  390 4825.5  C 390 4830.82  385.82 4835  380.5 4835  C 375.18 4835  371 4830.82  371 4825.5  C 371 4820.18  375.18 4816  380.5 4816  Z " fill-rule="nonzero" fill="#ffffff" stroke="none" />
  <path d="M 380.5 4816.5  C 385.54 4816.5  389.5 4820.46  389.5 4825.5  C 389.5 4830.54  385.54 4834.5  380.5 4834.5  C 375.46 4834.5  371.5 4830.54  371.5 4825.5  C 371.5 4820.46  375.46 4816.5  380.5 4816.5  Z " stroke-width="1" stroke="#333333" fill="none" />
  <path d="M 380.5 4830.25  C 377.84 4830.25  375.75 4828.16  375.75 4825.5  C 375.75 4822.84  377.84 4820.75  380.5 4820.75  C 383.16 4820.75  385.25 4822.84  385.25 4825.5  C 385.25 4828.16  383.16 4830.25  380.5 4830.25  " fill-rule="nonzero" fill="#333333" stroke="none" />
</svg>