<?xml version="1.0" encoding="utf-8"?>
<svg version="1.1" xmlns:xlink="http://www.w3.org/1999/xlink" width="19px" height="19px" viewBox="460 4758  19 19" xmlns="http://www.w3.org/2000/svg">
  <path d="M 469.5 4758  C 474.82 4758  479 4762.18  479 4767.5  C 479 4772.82  474.82 4777  469.5 4777  C 464.18 4777  460 4772.82  460 4767.5  C 460 4762.18  464.18 4758  469.5 4758  Z " fill-rule="nonzero" fill="#ffffff" stroke="none" />
  <path d="M 469.5 4758.5  C 474.54 4758.5  478.5 4762.46  478.5 4767.5  C 478.5 4772.54  474.54 4776.5  469.5 4776.5  C 464.46 4776.5  460.5 4772.54  460.5 4767.5  C 460.5 4762.46  464.46 4758.5  469.5 4758.5  Z " stroke-width="1" stroke="#f59a23" fill="none" />
  <path d="M 469.5 4772.25  C 466.84 4772.25  464.75 4770.16  464.75 4767.5  C 464.75 4764.84  466.84 4762.75  469.5 4762.75  C 472.16 4762.75  474.25 4764.84  474.25 4767.5  C 474.25 4770.16  472.16 4772.25  469.5 4772.25  " fill-rule="nonzero" fill="#f59a23" stroke="none" />
</svg>