<?xml version="1.0" encoding="utf-8"?>
<svg version="1.1" xmlns:xlink="http://www.w3.org/1999/xlink" width="19px" height="19px" viewBox="1048 4574  19 19" xmlns="http://www.w3.org/2000/svg">
  <path d="M 1057.5 4574  C 1062.82 4574  1067 4578.18  1067 4583.5  C 1067 4588.82  1062.82 4593  1057.5 4593  C 1052.18 4593  1048 4588.82  1048 4583.5  C 1048 4578.18  1052.18 4574  1057.5 4574  Z " fill-rule="nonzero" fill="#ffffff" stroke="none" />
  <path d="M 1057.5 4574.5  C 1062.54 4574.5  1066.5 4578.46  1066.5 4583.5  C 1066.5 4588.54  1062.54 4592.5  1057.5 4592.5  C 1052.46 4592.5  1048.5 4588.54  1048.5 4583.5  C 1048.5 4578.46  1052.46 4574.5  1057.5 4574.5  Z " stroke-width="1" stroke="#f59a23" fill="none" />
  <path d="M 1057.5 4588.25  C 1054.84 4588.25  1052.75 4586.16  1052.75 4583.5  C 1052.75 4580.84  1054.84 4578.75  1057.5 4578.75  C 1060.16 4578.75  1062.25 4580.84  1062.25 4583.5  C 1062.25 4586.16  1060.16 4588.25  1057.5 4588.25  " fill-rule="nonzero" fill="#f59a23" stroke="none" />
</svg>