<?xml version="1.0" encoding="utf-8"?>
<svg version="1.1" xmlns:xlink="http://www.w3.org/1999/xlink" width="19px" height="19px" viewBox="460 4572  19 19" xmlns="http://www.w3.org/2000/svg">
  <path d="M 469.5 4572  C 474.82 4572  479 4576.18  479 4581.5  C 479 4586.82  474.82 4591  469.5 4591  C 464.18 4591  460 4586.82  460 4581.5  C 460 4576.18  464.18 4572  469.5 4572  Z " fill-rule="nonzero" fill="#ffffff" stroke="none" />
  <path d="M 469.5 4572.5  C 474.54 4572.5  478.5 4576.46  478.5 4581.5  C 478.5 4586.54  474.54 4590.5  469.5 4590.5  C 464.46 4590.5  460.5 4586.54  460.5 4581.5  C 460.5 4576.46  464.46 4572.5  469.5 4572.5  Z " stroke-width="1" stroke="#f59a23" fill="none" />
  <path d="M 469.5 4586.25  C 466.84 4586.25  464.75 4584.16  464.75 4581.5  C 464.75 4578.84  466.84 4576.75  469.5 4576.75  C 472.16 4576.75  474.25 4578.84  474.25 4581.5  C 474.25 4584.16  472.16 4586.25  469.5 4586.25  " fill-rule="nonzero" fill="#f59a23" stroke="none" />
</svg>