<?xml version="1.0" encoding="utf-8"?>
<svg version="1.1" xmlns:xlink="http://www.w3.org/1999/xlink" width="19px" height="19px" viewBox="371 4698  19 19" xmlns="http://www.w3.org/2000/svg">
  <path d="M 380.5 4698  C 385.82 4698  390 4702.18  390 4707.5  C 390 4712.82  385.82 4717  380.5 4717  C 375.18 4717  371 4712.82  371 4707.5  C 371 4702.18  375.18 4698  380.5 4698  Z " fill-rule="nonzero" fill="#ffffff" stroke="none" />
  <path d="M 380.5 4698.5  C 385.54 4698.5  389.5 4702.46  389.5 4707.5  C 389.5 4712.54  385.54 4716.5  380.5 4716.5  C 375.46 4716.5  371.5 4712.54  371.5 4707.5  C 371.5 4702.46  375.46 4698.5  380.5 4698.5  Z " stroke-width="1" stroke="#f59a23" fill="none" />
  <path d="M 380.5 4712.25  C 377.84 4712.25  375.75 4710.16  375.75 4707.5  C 375.75 4704.84  377.84 4702.75  380.5 4702.75  C 383.16 4702.75  385.25 4704.84  385.25 4707.5  C 385.25 4710.16  383.16 4712.25  380.5 4712.25  " fill-rule="nonzero" fill="#f59a23" stroke="none" />
</svg>