<?xml version="1.0" encoding="utf-8"?>
<svg version="1.1" xmlns:xlink="http://www.w3.org/1999/xlink" width="19px" height="19px" viewBox="1048 4760  19 19" xmlns="http://www.w3.org/2000/svg">
  <path d="M 1057.5 4760  C 1062.82 4760  1067 4764.18  1067 4769.5  C 1067 4774.82  1062.82 4779  1057.5 4779  C 1052.18 4779  1048 4774.82  1048 4769.5  C 1048 4764.18  1052.18 4760  1057.5 4760  Z " fill-rule="nonzero" fill="#ffffff" stroke="none" />
  <path d="M 1057.5 4760.5  C 1062.54 4760.5  1066.5 4764.46  1066.5 4769.5  C 1066.5 4774.54  1062.54 4778.5  1057.5 4778.5  C 1052.46 4778.5  1048.5 4774.54  1048.5 4769.5  C 1048.5 4764.46  1052.46 4760.5  1057.5 4760.5  Z " stroke-width="1" stroke="#f59a23" fill="none" />
  <path d="M 1057.5 4774.25  C 1054.84 4774.25  1052.75 4772.16  1052.75 4769.5  C 1052.75 4766.84  1054.84 4764.75  1057.5 4764.75  C 1060.16 4764.75  1062.25 4766.84  1062.25 4769.5  C 1062.25 4772.16  1060.16 4774.25  1057.5 4774.25  " fill-rule="nonzero" fill="#f59a23" stroke="none" />
</svg>