<?xml version="1.0" encoding="utf-8"?>
<svg version="1.1" xmlns:xlink="http://www.w3.org/1999/xlink" width="19px" height="19px" viewBox="460 4698  19 19" xmlns="http://www.w3.org/2000/svg">
  <path d="M 469.5 4698  C 474.82 4698  479 4702.18  479 4707.5  C 479 4712.82  474.82 4717  469.5 4717  C 464.18 4717  460 4712.82  460 4707.5  C 460 4702.18  464.18 4698  469.5 4698  Z " fill-rule="nonzero" fill="#ffffff" stroke="none" />
  <path d="M 469.5 4698.5  C 474.54 4698.5  478.5 4702.46  478.5 4707.5  C 478.5 4712.54  474.54 4716.5  469.5 4716.5  C 464.46 4716.5  460.5 4712.54  460.5 4707.5  C 460.5 4702.46  464.46 4698.5  469.5 4698.5  Z " stroke-width="1" stroke="#f59a23" fill="none" />
  <path d="M 469.5 4712.25  C 466.84 4712.25  464.75 4710.16  464.75 4707.5  C 464.75 4704.84  466.84 4702.75  469.5 4702.75  C 472.16 4702.75  474.25 4704.84  474.25 4707.5  C 474.25 4710.16  472.16 4712.25  469.5 4712.25  " fill-rule="nonzero" fill="#f59a23" stroke="none" />
</svg>