<?xml version="1.0" encoding="utf-8"?>
<svg version="1.1" xmlns:xlink="http://www.w3.org/1999/xlink" width="19px" height="19px" viewBox="371 4572  19 19" xmlns="http://www.w3.org/2000/svg">
  <path d="M 380.5 4572  C 385.82 4572  390 4576.18  390 4581.5  C 390 4586.82  385.82 4591  380.5 4591  C 375.18 4591  371 4586.82  371 4581.5  C 371 4576.18  375.18 4572  380.5 4572  Z " fill-rule="nonzero" fill="#ffffff" stroke="none" />
  <path d="M 380.5 4572.5  C 385.54 4572.5  389.5 4576.46  389.5 4581.5  C 389.5 4586.54  385.54 4590.5  380.5 4590.5  C 375.46 4590.5  371.5 4586.54  371.5 4581.5  C 371.5 4576.46  375.46 4572.5  380.5 4572.5  Z " stroke-width="1" stroke="#333333" fill="none" />
  <path d="M 380.5 4586.25  C 377.84 4586.25  375.75 4584.16  375.75 4581.5  C 375.75 4578.84  377.84 4576.75  380.5 4576.75  C 383.16 4576.75  385.25 4578.84  385.25 4581.5  C 385.25 4584.16  383.16 4586.25  380.5 4586.25  " fill-rule="nonzero" fill="#333333" stroke="none" />
</svg>