<?xml version="1.0" encoding="utf-8"?>
<svg version="1.1" xmlns:xlink="http://www.w3.org/1999/xlink" width="19px" height="19px" viewBox="1048 4700  19 19" xmlns="http://www.w3.org/2000/svg">
  <path d="M 1057.5 4700  C 1062.82 4700  1067 4704.18  1067 4709.5  C 1067 4714.82  1062.82 4719  1057.5 4719  C 1052.18 4719  1048 4714.82  1048 4709.5  C 1048 4704.18  1052.18 4700  1057.5 4700  Z " fill-rule="nonzero" fill="#ffffff" stroke="none" />
  <path d="M 1057.5 4700.5  C 1062.54 4700.5  1066.5 4704.46  1066.5 4709.5  C 1066.5 4714.54  1062.54 4718.5  1057.5 4718.5  C 1052.46 4718.5  1048.5 4714.54  1048.5 4709.5  C 1048.5 4704.46  1052.46 4700.5  1057.5 4700.5  Z " stroke-width="1" stroke="#f59a23" fill="none" />
  <path d="M 1057.5 4714.25  C 1054.84 4714.25  1052.75 4712.16  1052.75 4709.5  C 1052.75 4706.84  1054.84 4704.75  1057.5 4704.75  C 1060.16 4704.75  1062.25 4706.84  1062.25 4709.5  C 1062.25 4712.16  1060.16 4714.25  1057.5 4714.25  " fill-rule="nonzero" fill="#f59a23" stroke="none" />
</svg>