<?xml version="1.0" encoding="utf-8"?>
<svg version="1.1" xmlns:xlink="http://www.w3.org/1999/xlink" width="19px" height="19px" viewBox="955 4760  19 19" xmlns="http://www.w3.org/2000/svg">
  <path d="M 964.5 4760  C 969.82 4760  974 4764.18  974 4769.5  C 974 4774.82  969.82 4779  964.5 4779  C 959.18 4779  955 4774.82  955 4769.5  C 955 4764.18  959.18 4760  964.5 4760  Z " fill-rule="nonzero" fill="#ffffff" stroke="none" />
  <path d="M 964.5 4760.5  C 969.54 4760.5  973.5 4764.46  973.5 4769.5  C 973.5 4774.54  969.54 4778.5  964.5 4778.5  C 959.46 4778.5  955.5 4774.54  955.5 4769.5  C 955.5 4764.46  959.46 4760.5  964.5 4760.5  Z " stroke-width="1" stroke="#333333" fill="none" />
  <path d="M 964.5 4774.25  C 961.84 4774.25  959.75 4772.16  959.75 4769.5  C 959.75 4766.84  961.84 4764.75  964.5 4764.75  C 967.16 4764.75  969.25 4766.84  969.25 4769.5  C 969.25 4772.16  967.16 4774.25  964.5 4774.25  " fill-rule="nonzero" fill="#333333" stroke="none" />
</svg>