<?xml version="1.0" encoding="utf-8"?>
<svg version="1.1" xmlns:xlink="http://www.w3.org/1999/xlink" width="19px" height="19px" viewBox="955 4574  19 19" xmlns="http://www.w3.org/2000/svg">
  <path d="M 964.5 4574  C 969.82 4574  974 4578.18  974 4583.5  C 974 4588.82  969.82 4593  964.5 4593  C 959.18 4593  955 4588.82  955 4583.5  C 955 4578.18  959.18 4574  964.5 4574  Z " fill-rule="nonzero" fill="#ffffff" stroke="none" />
  <path d="M 964.5 4574.5  C 969.54 4574.5  973.5 4578.46  973.5 4583.5  C 973.5 4588.54  969.54 4592.5  964.5 4592.5  C 959.46 4592.5  955.5 4588.54  955.5 4583.5  C 955.5 4578.46  959.46 4574.5  964.5 4574.5  Z " stroke-width="1" stroke="#f59a23" fill="none" />
  <path d="M 964.5 4588.25  C 961.84 4588.25  959.75 4586.16  959.75 4583.5  C 959.75 4580.84  961.84 4578.75  964.5 4578.75  C 967.16 4578.75  969.25 4580.84  969.25 4583.5  C 969.25 4586.16  967.16 4588.25  964.5 4588.25  " fill-rule="nonzero" fill="#f59a23" stroke="none" />
</svg>