<?xml version="1.0" encoding="utf-8"?>
<svg version="1.1" xmlns:xlink="http://www.w3.org/1999/xlink" width="19px" height="19px" viewBox="364 4267  19 19" xmlns="http://www.w3.org/2000/svg">
  <path d="M 373.5 4267  C 378.82 4267  383 4271.18  383 4276.5  C 383 4281.82  378.82 4286  373.5 4286  C 368.18 4286  364 4281.82  364 4276.5  C 364 4271.18  368.18 4267  373.5 4267  Z " fill-rule="nonzero" fill="#ffffff" stroke="none" />
  <path d="M 373.5 4267.5  C 378.54 4267.5  382.5 4271.46  382.5 4276.5  C 382.5 4281.54  378.54 4285.5  373.5 4285.5  C 368.46 4285.5  364.5 4281.54  364.5 4276.5  C 364.5 4271.46  368.46 4267.5  373.5 4267.5  Z " stroke-width="1" stroke="#f59a23" fill="none" />
  <path d="M 373.5 4281.25  C 370.84 4281.25  368.75 4279.16  368.75 4276.5  C 368.75 4273.84  370.84 4271.75  373.5 4271.75  C 376.16 4271.75  378.25 4273.84  378.25 4276.5  C 378.25 4279.16  376.16 4281.25  373.5 4281.25  " fill-rule="nonzero" fill="#f59a23" stroke="none" />
</svg>