<?xml version="1.0" encoding="utf-8"?>
<svg version="1.1" xmlns:xlink="http://www.w3.org/1999/xlink" width="19px" height="19px" viewBox="1054 4267  19 19" xmlns="http://www.w3.org/2000/svg">
  <path d="M 1063.5 4267  C 1068.82 4267  1073 4271.18  1073 4276.5  C 1073 4281.82  1068.82 4286  1063.5 4286  C 1058.18 4286  1054 4281.82  1054 4276.5  C 1054 4271.18  1058.18 4267  1063.5 4267  Z " fill-rule="nonzero" fill="#ffffff" stroke="none" />
  <path d="M 1063.5 4267.5  C 1068.54 4267.5  1072.5 4271.46  1072.5 4276.5  C 1072.5 4281.54  1068.54 4285.5  1063.5 4285.5  C 1058.46 4285.5  1054.5 4281.54  1054.5 4276.5  C 1054.5 4271.46  1058.46 4267.5  1063.5 4267.5  Z " stroke-width="1" stroke="#f59a23" fill="none" />
  <path d="M 1063.5 4281.25  C 1060.84 4281.25  1058.75 4279.16  1058.75 4276.5  C 1058.75 4273.84  1060.84 4271.75  1063.5 4271.75  C 1066.16 4271.75  1068.25 4273.84  1068.25 4276.5  C 1068.25 4279.16  1066.16 4281.25  1063.5 4281.25  " fill-rule="nonzero" fill="#f59a23" stroke="none" />
</svg>