<?xml version="1.0" encoding="utf-8"?>
<svg version="1.1" xmlns:xlink="http://www.w3.org/1999/xlink" width="19px" height="19px" viewBox="955 4818  19 19" xmlns="http://www.w3.org/2000/svg">
  <path d="M 964.5 4818  C 969.82 4818  974 4822.18  974 4827.5  C 974 4832.82  969.82 4837  964.5 4837  C 959.18 4837  955 4832.82  955 4827.5  C 955 4822.18  959.18 4818  964.5 4818  Z " fill-rule="nonzero" fill="#ffffff" stroke="none" />
  <path d="M 964.5 4818.5  C 969.54 4818.5  973.5 4822.46  973.5 4827.5  C 973.5 4832.54  969.54 4836.5  964.5 4836.5  C 959.46 4836.5  955.5 4832.54  955.5 4827.5  C 955.5 4822.46  959.46 4818.5  964.5 4818.5  Z " stroke-width="1" stroke="#333333" fill="none" />
  <path d="M 964.5 4832.25  C 961.84 4832.25  959.75 4830.16  959.75 4827.5  C 959.75 4824.84  961.84 4822.75  964.5 4822.75  C 967.16 4822.75  969.25 4824.84  969.25 4827.5  C 969.25 4830.16  967.16 4832.25  964.5 4832.25  " fill-rule="nonzero" fill="#333333" stroke="none" />
</svg>