<?xml version="1.0" encoding="utf-8"?>
<svg version="1.1" xmlns:xlink="http://www.w3.org/1999/xlink" width="19px" height="19px" viewBox="457 4267  19 19" xmlns="http://www.w3.org/2000/svg">
  <path d="M 466.5 4267  C 471.82 4267  476 4271.18  476 4276.5  C 476 4281.82  471.82 4286  466.5 4286  C 461.18 4286  457 4281.82  457 4276.5  C 457 4271.18  461.18 4267  466.5 4267  Z " fill-rule="nonzero" fill="#ffffff" stroke="none" />
  <path d="M 466.5 4267.5  C 471.54 4267.5  475.5 4271.46  475.5 4276.5  C 475.5 4281.54  471.54 4285.5  466.5 4285.5  C 461.46 4285.5  457.5 4281.54  457.5 4276.5  C 457.5 4271.46  461.46 4267.5  466.5 4267.5  Z " stroke-width="1" stroke="#f59a23" fill="none" />
  <path d="M 466.5 4281.25  C 463.84 4281.25  461.75 4279.16  461.75 4276.5  C 461.75 4273.84  463.84 4271.75  466.5 4271.75  C 469.16 4271.75  471.25 4273.84  471.25 4276.5  C 471.25 4279.16  469.16 4281.25  466.5 4281.25  " fill-rule="nonzero" fill="#f59a23" stroke="none" />
</svg>