<?xml version="1.0" encoding="utf-8"?>
<svg version="1.1" xmlns:xlink="http://www.w3.org/1999/xlink" width="19px" height="19px" viewBox="1048 4818  19 19" xmlns="http://www.w3.org/2000/svg">
  <path d="M 1057.5 4818  C 1062.82 4818  1067 4822.18  1067 4827.5  C 1067 4832.82  1062.82 4837  1057.5 4837  C 1052.18 4837  1048 4832.82  1048 4827.5  C 1048 4822.18  1052.18 4818  1057.5 4818  Z " fill-rule="nonzero" fill="#ffffff" stroke="none" />
  <path d="M 1057.5 4818.5  C 1062.54 4818.5  1066.5 4822.46  1066.5 4827.5  C 1066.5 4832.54  1062.54 4836.5  1057.5 4836.5  C 1052.46 4836.5  1048.5 4832.54  1048.5 4827.5  C 1048.5 4822.46  1052.46 4818.5  1057.5 4818.5  Z " stroke-width="1" stroke="#f59a23" fill="none" />
  <path d="M 1057.5 4832.25  C 1054.84 4832.25  1052.75 4830.16  1052.75 4827.5  C 1052.75 4824.84  1054.84 4822.75  1057.5 4822.75  C 1060.16 4822.75  1062.25 4824.84  1062.25 4827.5  C 1062.25 4830.16  1060.16 4832.25  1057.5 4832.25  " fill-rule="nonzero" fill="#f59a23" stroke="none" />
</svg>