<?xml version="1.0" encoding="utf-8"?>
<svg version="1.1" xmlns:xlink="http://www.w3.org/1999/xlink" width="19px" height="19px" viewBox="961 4267  19 19" xmlns="http://www.w3.org/2000/svg">
  <path d="M 970.5 4267  C 975.82 4267  980 4271.18  980 4276.5  C 980 4281.82  975.82 4286  970.5 4286  C 965.18 4286  961 4281.82  961 4276.5  C 961 4271.18  965.18 4267  970.5 4267  Z " fill-rule="nonzero" fill="#ffffff" stroke="none" />
  <path d="M 970.5 4267.5  C 975.54 4267.5  979.5 4271.46  979.5 4276.5  C 979.5 4281.54  975.54 4285.5  970.5 4285.5  C 965.46 4285.5  961.5 4281.54  961.5 4276.5  C 961.5 4271.46  965.46 4267.5  970.5 4267.5  Z " stroke-width="1" stroke="#f59a23" fill="none" />
  <path d="M 970.5 4281.25  C 967.84 4281.25  965.75 4279.16  965.75 4276.5  C 965.75 4273.84  967.84 4271.75  970.5 4271.75  C 973.16 4271.75  975.25 4273.84  975.25 4276.5  C 975.25 4279.16  973.16 4281.25  970.5 4281.25  " fill-rule="nonzero" fill="#f59a23" stroke="none" />
</svg>