<?xml version="1.0" encoding="utf-8"?>
<svg version="1.1" xmlns:xlink="http://www.w3.org/1999/xlink" width="14px" height="14px" xmlns="http://www.w3.org/2000/svg">
  <g transform="matrix(1 0 0 1 -1279 -5235 )">
    <path d="M 0.11665090668874653 10.96707939267667  C 0.038883683847161586 11.044846615518255  0 11.138166271276631  0 11.24704038209603  C 0 11.24704038209603  0 13.611163891586184  0 13.611163891586184  C 0 13.828912113224979  0.17108788677502115 14  0.38883610841381516 14  C 0.38883610841381516 14  2.752959617903971 14  2.752959617903971 14  C 2.8540570023833323 14  2.95515431733338 13.96111668697585  3.0251448196290394 13.883349464134263  C 3.0251448196290394 13.883349464134263  11.517325115895433 5.3989456972081795  11.517325115895433 5.3989456972081795  L 8.601055044437839 2.4826750695160706  C 8.601055044437839 2.4826750695160706  0.11665090668874653 10.96707939267667  0.11665090668874653 10.96707939267667  Z M 12.349434150574272 4.566836662529342  C 12.349434150574272 4.566836662529342  13.772574248037154 3.1436965650664592  13.772574248037154 3.1436965650664592  C 13.844667224093113 3.071751257685969  13.90186311868177 2.9862936812951046  13.940887845640155 2.892216080686849  C 13.979912572598538 2.7981384800785936  14 2.697288028959158  14 2.595437526123157  C 14 2.493587023287155  13.979912572598538 2.39273657216772  13.940887845640155 2.298658971559464  C 13.90186311868177 2.204581370951209  13.844667224093113 2.119123979971849  13.772574248037154 2.047178672591359  C 13.772574248037154 2.047178672591359  11.952822625289176 0.22742556655134072  11.952822625289176 0.22742556655134072  C 11.880877317908684 0.15533259049538245  11.795419926929327 0.09813669590672318  11.70134232632107 0.05911196894834065  C 11.607264725712815 0.020087241989958114  11.506414274593379 0  11.404563771757378 0  C 11.302713268921377 0  11.201861334509902 0.020087241989958114  11.107783733901645 0.05911196894834065  C 11.01370613329339 0.09813669590672318  10.92824874231403 0.15533259049538245  10.85630343493354 0.22742556655134072  C 10.85630343493354 0.22742556655134072  9.433164079116677 1.6505656640142226  9.433164079116677 1.6505656640142226  L 12.349434150574272 4.566836662529342  Z " fill-rule="nonzero" fill="#767676" stroke="none" transform="matrix(1 0 0 1 1279 5235 )" />
  </g>
</svg>