<?xml version="1.0" encoding="utf-8"?>
<svg version="1.1" xmlns:xlink="http://www.w3.org/1999/xlink" width="19px" height="19px" viewBox="430 340.5  19 19" xmlns="http://www.w3.org/2000/svg">
  <path d="M 439.5 340.5  C 444.82 340.5  449 344.68  449 350  C 449 355.32  444.82 359.5  439.5 359.5  C 434.18 359.5  430 355.32  430 350  C 430 344.68  434.18 340.5  439.5 340.5  Z " fill-rule="nonzero" fill="#ffffff" stroke="none" />
  <path d="M 439.5 341  C 444.54 341  448.5 344.96  448.5 350  C 448.5 355.04  444.54 359  439.5 359  C 434.46 359  430.5 355.04  430.5 350  C 430.5 344.96  434.46 341  439.5 341  Z " stroke-width="1" stroke="#f59a23" fill="none" />
  <path d="M 439.5 354.75  C 436.84 354.75  434.75 352.66  434.75 350  C 434.75 347.34  436.84 345.25  439.5 345.25  C 442.16 345.25  444.25 347.34  444.25 350  C 444.25 352.66  442.16 354.75  439.5 354.75  " fill-rule="nonzero" fill="#f59a23" stroke="none" />
</svg>