<?xml version="1.0" encoding="utf-8"?>
<svg version="1.1" xmlns:xlink="http://www.w3.org/1999/xlink" width="19px" height="19px" viewBox="324 382.5  19 19" xmlns="http://www.w3.org/2000/svg">
  <path d="M 333.5 382.5  C 338.82 382.5  343 386.68  343 392  C 343 397.32  338.82 401.5  333.5 401.5  C 328.18 401.5  324 397.32  324 392  C 324 386.68  328.18 382.5  333.5 382.5  Z " fill-rule="nonzero" fill="#f0f0f0" stroke="none" />
  <path d="M 333.5 383  C 338.54 383  342.5 386.96  342.5 392  C 342.5 397.04  338.54 401  333.5 401  C 328.46 401  324.5 397.04  324.5 392  C 324.5 386.96  328.46 383  333.5 383  Z " stroke-width="1" stroke="#f59a23" fill="none" />
  <path d="M 333.5 396.75  C 330.84 396.75  328.75 394.66  328.75 392  C 328.75 389.34  330.84 387.25  333.5 387.25  C 336.16 387.25  338.25 389.34  338.25 392  C 338.25 394.66  336.16 396.75  333.5 396.75  " fill-rule="nonzero" fill="#f59a23" stroke="none" />
</svg>