<?xml version="1.0" encoding="utf-8"?>
<svg version="1.1" xmlns:xlink="http://www.w3.org/1999/xlink" width="19px" height="19px" viewBox="723 276.5  19 19" xmlns="http://www.w3.org/2000/svg">
  <path d="M 732.5 276.5  C 737.82 276.5  742 280.68  742 286  C 742 291.32  737.82 295.5  732.5 295.5  C 727.18 295.5  723 291.32  723 286  C 723 280.68  727.18 276.5  732.5 276.5  Z " fill-rule="nonzero" fill="#ffffff" stroke="none" />
  <path d="M 732.5 277  C 737.54 277  741.5 280.96  741.5 286  C 741.5 291.04  737.54 295  732.5 295  C 727.46 295  723.5 291.04  723.5 286  C 723.5 280.96  727.46 277  732.5 277  Z " stroke-width="1" stroke="#f59a23" fill="none" />
  <path d="M 732.5 290.75  C 729.84 290.75  727.75 288.66  727.75 286  C 727.75 283.34  729.84 281.25  732.5 281.25  C 735.16 281.25  737.25 283.34  737.25 286  C 737.25 288.66  735.16 290.75  732.5 290.75  " fill-rule="nonzero" fill="#f59a23" stroke="none" />
</svg>