<?xml version="1.0" encoding="utf-8"?>
<svg version="1.1" xmlns:xlink="http://www.w3.org/1999/xlink" width="19px" height="19px" viewBox="324 340.5  19 19" xmlns="http://www.w3.org/2000/svg">
  <path d="M 333.5 340.5  C 338.82 340.5  343 344.68  343 350  C 343 355.32  338.82 359.5  333.5 359.5  C 328.18 359.5  324 355.32  324 350  C 324 344.68  328.18 340.5  333.5 340.5  Z " fill-rule="nonzero" fill="#ffffff" stroke="none" />
  <path d="M 333.5 341  C 338.54 341  342.5 344.96  342.5 350  C 342.5 355.04  338.54 359  333.5 359  C 328.46 359  324.5 355.04  324.5 350  C 324.5 344.96  328.46 341  333.5 341  Z " stroke-width="1" stroke="#f59a23" fill="none" />
  <path d="M 333.5 354.75  C 330.84 354.75  328.75 352.66  328.75 350  C 328.75 347.34  330.84 345.25  333.5 345.25  C 336.16 345.25  338.25 347.34  338.25 350  C 338.25 352.66  336.16 354.75  333.5 354.75  " fill-rule="nonzero" fill="#f59a23" stroke="none" />
</svg>