<?xml version="1.0" encoding="utf-8"?>
<svg version="1.1" xmlns:xlink="http://www.w3.org/1999/xlink" width="19px" height="19px" viewBox="334 314.5  19 19" xmlns="http://www.w3.org/2000/svg">
  <path d="M 343.5 314.5  C 348.82 314.5  353 318.68  353 324  C 353 329.32  348.82 333.5  343.5 333.5  C 338.18 333.5  334 329.32  334 324  C 334 318.68  338.18 314.5  343.5 314.5  Z " fill-rule="nonzero" fill="#f0f0f0" stroke="none" />
  <path d="M 343.5 315  C 348.54 315  352.5 318.96  352.5 324  C 352.5 329.04  348.54 333  343.5 333  C 338.46 333  334.5 329.04  334.5 324  C 334.5 318.96  338.46 315  343.5 315  Z " stroke-width="1" stroke="#f59a23" fill="none" />
  <path d="M 343.5 328.75  C 340.84 328.75  338.75 326.66  338.75 324  C 338.75 321.34  340.84 319.25  343.5 319.25  C 346.16 319.25  348.25 321.34  348.25 324  C 348.25 326.66  346.16 328.75  343.5 328.75  " fill-rule="nonzero" fill="#f59a23" stroke="none" />
</svg>