<?xml version="1.0" encoding="utf-8"?>
<svg version="1.1" xmlns:xlink="http://www.w3.org/1999/xlink" width="19px" height="19px" viewBox="237 340.5  19 19" xmlns="http://www.w3.org/2000/svg">
  <path d="M 246.5 340.5  C 251.82 340.5  256 344.68  256 350  C 256 355.32  251.82 359.5  246.5 359.5  C 241.18 359.5  237 355.32  237 350  C 237 344.68  241.18 340.5  246.5 340.5  Z " fill-rule="nonzero" fill="#ffffff" stroke="none" />
  <path d="M 246.5 341  C 251.54 341  255.5 344.96  255.5 350  C 255.5 355.04  251.54 359  246.5 359  C 241.46 359  237.5 355.04  237.5 350  C 237.5 344.96  241.46 341  246.5 341  Z " stroke-width="1" stroke="#f59a23" fill="none" />
  <path d="M 246.5 354.75  C 243.84 354.75  241.75 352.66  241.75 350  C 241.75 347.34  243.84 345.25  246.5 345.25  C 249.16 345.25  251.25 347.34  251.25 350  C 251.25 352.66  249.16 354.75  246.5 354.75  " fill-rule="nonzero" fill="#f59a23" stroke="none" />
</svg>