<?xml version="1.0" encoding="utf-8"?>
<svg version="1.1" xmlns:xlink="http://www.w3.org/1999/xlink" width="19px" height="19px" viewBox="810 276.5  19 19" xmlns="http://www.w3.org/2000/svg">
  <path d="M 819.5 276.5  C 824.82 276.5  829 280.68  829 286  C 829 291.32  824.82 295.5  819.5 295.5  C 814.18 295.5  810 291.32  810 286  C 810 280.68  814.18 276.5  819.5 276.5  Z " fill-rule="nonzero" fill="#f0f0f0" stroke="none" />
  <path d="M 819.5 277  C 824.54 277  828.5 280.96  828.5 286  C 828.5 291.04  824.54 295  819.5 295  C 814.46 295  810.5 291.04  810.5 286  C 810.5 280.96  814.46 277  819.5 277  Z " stroke-width="1" stroke="#f59a23" fill="none" />
  <path d="M 819.5 290.75  C 816.84 290.75  814.75 288.66  814.75 286  C 814.75 283.34  816.84 281.25  819.5 281.25  C 822.16 281.25  824.25 283.34  824.25 286  C 824.25 288.66  822.16 290.75  819.5 290.75  " fill-rule="nonzero" fill="#f59a23" stroke="none" />
</svg>