<?xml version="1.0" encoding="utf-8"?>
<svg version="1.1" xmlns:xlink="http://www.w3.org/1999/xlink" width="16px" height="20px" xmlns="http://www.w3.org/2000/svg">
  <g transform="matrix(1 0 0 1 -1187 -34 )">
    <path d="M 11.041666666666666 0.7589285714285721  L 15.291666666666666 5.3125  C 15.388888888888891 5.416666666666665  15.486111111111112 5.550595238095237  15.583333333333334 5.7142857142857135  L 10.666666666666666 5.7142857142857135  L 10.666666666666666 0.44642857142857206  C 10.819444444444445 0.5505952380952372  10.944444444444445 0.6547619047619024  11.041666666666666 0.7589285714285721  Z M 9.625 6.830357142857142  C 9.819444444444445 7.0386904761904745  10.055555555555555 7.142857142857142  10.333333333333334 7.142857142857142  L 16 7.142857142857142  L 16 18.928571428571427  C 16 19.226190476190478  15.902777777777777 19.479166666666664  15.708333333333334 19.6875  C 15.513888888888891 19.895833333333336  15.277777777777779 20  15 20  L 1 20  C 0.7222222222222223 20  0.48611111111111116 19.895833333333336  0.2916666666666667 19.6875  C 0.09722222222222221 19.479166666666664  0 19.226190476190478  0 18.928571428571427  L 0 1.071428571428572  C 0 0.7738095238095233  0.09722222222222221 0.5208333333333326  0.2916666666666667 0.3125  C 0.48611111111111116 0.1041666666666674  0.7222222222222223 0  1 0  L 9.333333333333334 0  L 9.333333333333334 6.071428571428572  C 9.333333333333334 6.369047619047617  9.430555555555555 6.622023809523809  9.625 6.830357142857142  Z M 11.90625 15.613839285714286  C 11.96875 15.546875  12 15.461309523809524  12 15.357142857142856  L 12 14.642857142857144  C 12 14.538690476190476  11.96875 14.453125  11.90625 14.386160714285714  C 11.84375 14.319196428571427  11.763888888888891 14.285714285714286  11.666666666666666 14.285714285714286  L 4.333333333333333 14.285714285714286  C 4.236111111111112 14.285714285714286  4.156250000000001 14.319196428571427  4.09375 14.386160714285714  C 4.03125 14.453125  4 14.538690476190476  4 14.642857142857144  L 4 15.357142857142856  C 4 15.461309523809524  4.03125 15.546875  4.09375 15.613839285714286  C 4.156250000000001 15.680803571428573  4.236111111111112 15.714285714285714  4.333333333333333 15.714285714285714  L 11.666666666666666 15.714285714285714  C 11.763888888888891 15.714285714285714  11.84375 15.680803571428573  11.90625 15.613839285714286  Z M 11.90625 12.756696428571427  C 11.96875 12.689732142857144  12 12.604166666666664  12 12.5  L 12 11.785714285714286  C 12 11.681547619047619  11.96875 11.595982142857144  11.90625 11.529017857142856  C 11.84375 11.462053571428573  11.763888888888891 11.428571428571427  11.666666666666666 11.428571428571427  L 4.333333333333333 11.428571428571427  C 4.236111111111112 11.428571428571427  4.156250000000001 11.462053571428573  4.09375 11.529017857142856  C 4.03125 11.595982142857144  4 11.681547619047619  4 11.785714285714286  L 4 12.5  C 4 12.604166666666664  4.03125 12.689732142857144  4.09375 12.756696428571427  C 4.156250000000001 12.823660714285714  4.236111111111112 12.857142857142856  4.333333333333333 12.857142857142856  L 11.666666666666666 12.857142857142856  C 11.763888888888891 12.857142857142856  11.84375 12.823660714285714  11.90625 12.756696428571427  Z M 11.90625 9.899553571428573  C 11.96875 9.832589285714286  12 9.74702380952381  12 9.642857142857142  L 12 8.928571428571427  C 12 8.824404761904761  11.96875 8.738839285714286  11.90625 8.671875  C 11.84375 8.604910714285714  11.763888888888891 8.571428571428573  11.666666666666666 8.571428571428573  L 4.333333333333333 8.571428571428573  C 4.236111111111112 8.571428571428573  4.156250000000001 8.604910714285714  4.09375 8.671875  C 4.03125 8.738839285714286  4 8.824404761904761  4 8.928571428571427  L 4 9.642857142857142  C 4 9.74702380952381  4.03125 9.832589285714286  4.09375 9.899553571428573  C 4.156250000000001 9.966517857142858  4.236111111111112 10  4.333333333333333 10  L 11.666666666666666 10  C 11.763888888888891 10  11.84375 9.966517857142858  11.90625 9.899553571428573  Z " fill-rule="nonzero" fill="#767676" stroke="none" transform="matrix(1 0 0 1 1187 34 )" />
  </g>
</svg>