<?xml version="1.0" encoding="utf-8"?>
<svg version="1.1" xmlns:xlink="http://www.w3.org/1999/xlink" width="19px" height="19px" viewBox="500 712  19 19" xmlns="http://www.w3.org/2000/svg">
  <path d="M 509.5 712  C 514.82 712  519 716.18  519 721.5  C 519 726.82  514.82 731  509.5 731  C 504.18 731  500 726.82  500 721.5  C 500 716.18  504.18 712  509.5 712  Z " fill-rule="nonzero" fill="#ffffff" stroke="none" />
  <path d="M 509.5 712.5  C 514.54 712.5  518.5 716.46  518.5 721.5  C 518.5 726.54  514.54 730.5  509.5 730.5  C 504.46 730.5  500.5 726.54  500.5 721.5  C 500.5 716.46  504.46 712.5  509.5 712.5  Z " stroke-width="1" stroke="#f59a23" fill="none" />
  <path d="M 509.5 726.25  C 506.84 726.25  504.75 724.16  504.75 721.5  C 504.75 718.84  506.84 716.75  509.5 716.75  C 512.16 716.75  514.25 718.84  514.25 721.5  C 514.25 724.16  512.16 726.25  509.5 726.25  " fill-rule="nonzero" fill="#f59a23" stroke="none" />
</svg>