<?xml version="1.0" encoding="utf-8"?>
<svg version="1.1" xmlns:xlink="http://www.w3.org/1999/xlink" width="19px" height="19px" viewBox="1204 575  19 19" xmlns="http://www.w3.org/2000/svg">
  <path d="M 1213.5 575  C 1218.82 575  1223 579.18  1223 584.5  C 1223 589.82  1218.82 594  1213.5 594  C 1208.18 594  1204 589.82  1204 584.5  C 1204 579.18  1208.18 575  1213.5 575  Z " fill-rule="nonzero" fill="#ffffff" stroke="none" />
  <path d="M 1213.5 575.5  C 1218.54 575.5  1222.5 579.46  1222.5 584.5  C 1222.5 589.54  1218.54 593.5  1213.5 593.5  C 1208.46 593.5  1204.5 589.54  1204.5 584.5  C 1204.5 579.46  1208.46 575.5  1213.5 575.5  Z " stroke-width="1" stroke="#f59a23" fill="none" />
  <path d="M 1213.5 589.25  C 1210.84 589.25  1208.75 587.16  1208.75 584.5  C 1208.75 581.84  1210.84 579.75  1213.5 579.75  C 1216.16 579.75  1218.25 581.84  1218.25 584.5  C 1218.25 587.16  1216.16 589.25  1213.5 589.25  " fill-rule="nonzero" fill="#f59a23" stroke="none" />
</svg>