<?xml version="1.0" encoding="utf-8"?>
<svg version="1.1" xmlns:xlink="http://www.w3.org/1999/xlink" width="19px" height="19px" viewBox="248 822  19 19" xmlns="http://www.w3.org/2000/svg">
  <path d="M 257.5 822  C 262.82 822  267 826.18  267 831.5  C 267 836.82  262.82 841  257.5 841  C 252.18 841  248 836.82  248 831.5  C 248 826.18  252.18 822  257.5 822  Z " fill-rule="nonzero" fill="#ffffff" stroke="none" />
  <path d="M 257.5 822.5  C 262.54 822.5  266.5 826.46  266.5 831.5  C 266.5 836.54  262.54 840.5  257.5 840.5  C 252.46 840.5  248.5 836.54  248.5 831.5  C 248.5 826.46  252.46 822.5  257.5 822.5  Z " stroke-width="1" stroke="#f59a23" fill="none" />
  <path d="M 257.5 836.25  C 254.84 836.25  252.75 834.16  252.75 831.5  C 252.75 828.84  254.84 826.75  257.5 826.75  C 260.16 826.75  262.25 828.84  262.25 831.5  C 262.25 834.16  260.16 836.25  257.5 836.25  " fill-rule="nonzero" fill="#f59a23" stroke="none" />
</svg>