<?xml version="1.0" encoding="utf-8"?>
<svg version="1.1" xmlns:xlink="http://www.w3.org/1999/xlink" width="19px" height="19px" viewBox="335 822  19 19" xmlns="http://www.w3.org/2000/svg">
  <path d="M 344.5 822  C 349.82 822  354 826.18  354 831.5  C 354 836.82  349.82 841  344.5 841  C 339.18 841  335 836.82  335 831.5  C 335 826.18  339.18 822  344.5 822  Z " fill-rule="nonzero" fill="#ffffff" stroke="none" />
  <path d="M 344.5 822.5  C 349.54 822.5  353.5 826.46  353.5 831.5  C 353.5 836.54  349.54 840.5  344.5 840.5  C 339.46 840.5  335.5 836.54  335.5 831.5  C 335.5 826.46  339.46 822.5  344.5 822.5  Z " stroke-width="1" stroke="#f59a23" fill="none" />
  <path d="M 344.5 836.25  C 341.84 836.25  339.75 834.16  339.75 831.5  C 339.75 828.84  341.84 826.75  344.5 826.75  C 347.16 826.75  349.25 828.84  349.25 831.5  C 349.25 834.16  347.16 836.25  344.5 836.25  " fill-rule="nonzero" fill="#f59a23" stroke="none" />
</svg>