<?xml version="1.0" encoding="utf-8"?>
<svg version="1.1" xmlns:xlink="http://www.w3.org/1999/xlink" width="19px" height="19px" viewBox="219 1718  19 19" xmlns="http://www.w3.org/2000/svg">
  <path d="M 228.5 1718  C 233.82 1718  238 1722.18  238 1727.5  C 238 1732.82  233.82 1737  228.5 1737  C 223.18 1737  219 1732.82  219 1727.5  C 219 1722.18  223.18 1718  228.5 1718  Z " fill-rule="nonzero" fill="#ffffff" stroke="none" />
  <path d="M 228.5 1718.5  C 233.54 1718.5  237.5 1722.46  237.5 1727.5  C 237.5 1732.54  233.54 1736.5  228.5 1736.5  C 223.46 1736.5  219.5 1732.54  219.5 1727.5  C 219.5 1722.46  223.46 1718.5  228.5 1718.5  Z " stroke-width="1" stroke="#f59a23" fill="none" />
  <path d="M 228.5 1732.25  C 225.84 1732.25  223.75 1730.16  223.75 1727.5  C 223.75 1724.84  225.84 1722.75  228.5 1722.75  C 231.16 1722.75  233.25 1724.84  233.25 1727.5  C 233.25 1730.16  231.16 1732.25  228.5 1732.25  " fill-rule="nonzero" fill="#f59a23" stroke="none" />
</svg>