<?xml version="1.0" encoding="utf-8"?>
<svg version="1.1" xmlns:xlink="http://www.w3.org/1999/xlink" width="23px" height="18px" xmlns="http://www.w3.org/2000/svg">
  <g transform="matrix(1 0 0 1 -168 -827 )">
    <path d="M 19.69392812887237 10.283710054559625  C 19.703428335398595 10.302416212003116  19.70817843866171 10.330475448168356  19.70817843866171 10.36788776305534  L 19.70817843866171 17.102104442712392  C 19.70817843866171 17.345284489477784  19.61792647666254 17.55572876071707  19.437422552664188 17.733437256430243  C 19.256918628665844 17.911145752143415  19.043163981825696 18  18.796158612143742 18  L 13.324039653035936 18  L 13.324039653035936 12.612626656274358  L 9.675960346964064 12.612626656274358  L 9.675960346964064 18  L 4.203841387856258 18  C 3.9568360181743087 18  3.74308137133416 17.911145752143415  3.5625774473358116 17.733437256430243  C 3.382073523337464 17.55572876071707  3.2918215613382897 17.345284489477784  3.2918215613382897 17.102104442712392  L 3.2918215613382897 10.36788776305534  C 3.2918215613382897 10.358534684333591  3.2941966129698472 10.344505066250974  3.2989467162329618 10.325798908807482  C 3.3036968194960763 10.30709275136399  3.3060718711276333 10.293063133281372  3.3060718711276333 10.283710054559625  L 11.5 3.6336710833982853  L 19.69392812887237 10.283710054559625  Z M 22.985749690210657 9.070148090413095  C 22.995249896736887 9.196414653156664  22.961999173895087 9.306313328137179  22.88599752168525 9.39984411535464  L 22.00247831474597 10.438035853468435  C 21.926476662536142 10.522213561964147  21.82672449401074 10.57365549493375  21.703221809169765 10.59236165237724  L 21.660470879801736 10.59236165237724  C 21.53696819496076 10.59236165237724  21.43721602643536 10.559625876851129  21.361214374225526 10.494154325798908  L 11.5 2.3990646921278254  L 1.6387856257744733 10.494154325798908  C 1.5247831474597273 10.568978955572874  1.4107806691449816 10.601714731098987  1.2967781908302354 10.59236165237724  C 1.1732755059892608 10.57365549493375  1.073523337463858 10.522213561964147  0.9975216852540272 10.438035853468435  L 0.11400247831474597 9.39984411535464  C 0.03800082610491534 9.306313328137179  0.00475010326311445 9.196414653156664  0.014250309789343246 9.070148090413095  C 0.023750516315572148 8.943881527669525  0.07600165220983068 8.843335931410756  0.17100371747211895 8.768511301636789  L 10.416976456009913 0.36477007014809093  C 10.720983064849236 0.12159002338269498  11.081990912845932 0  11.5 0  C 11.91800908715407 0  12.279016935150766 0.12159002338269498  12.583023543990087 0.36477007014809093  L 16.06009913258984 3.2268121590023373  L 16.06009913258984 0.49103663289165933  C 16.06009913258984 0.3600935307872155  16.102850061957867 0.2525331254871388  16.18835192069393 0.1683554169914272  C 16.273853779429988 0.0841777084957136  16.38310615448162 0.0420888542478568  16.516109045848822 0.0420888542478568  L 19.252168525402727 0.0420888542478568  C 19.385171416769932 0.0420888542478568  19.49442379182156 0.0841777084957136  19.57992565055762 0.1683554169914272  C 19.66542750929368 0.2525331254871388  19.70817843866171 0.3600935307872155  19.70817843866171 0.49103663289165933  L 19.70817843866171 6.2151208106001565  L 22.828996282527882 8.768511301636789  C 22.92399834779017 8.843335931410756  22.97624948368443 8.943881527669525  22.985749690210657 9.070148090413095  Z " fill-rule="nonzero" fill="#333333" stroke="none" transform="matrix(1 0 0 1 168 827 )" />
  </g>
</svg>