<?xml version="1.0" encoding="utf-8"?>
<svg version="1.1" xmlns:xlink="http://www.w3.org/1999/xlink" width="25px" height="22px" xmlns="http://www.w3.org/2000/svg">
  <g transform="matrix(1 0 0 1 -10 -42 )">
    <path d="M 21.256218905472636 20.109375  L 22.28855721393035 19.090401785714285  C 22.44610281923715 18.934895833333332  22.632669983416257 18.857142857142858  22.84825870646766 18.857142857142858  C 23.063847429519075 18.857142857142858  23.250414593698178 18.934895833333332  23.407960199004975 19.090401785714285  L 25 20.661830357142858  L 23.88059701492537 21.76674107142857  L 22.84825870646766 20.747767857142858  L 21.81592039800995 21.76674107142857  C 21.66666666666667 21.922247023809526  21.480099502487565 22  21.256218905472636 22  C 21.032338308457714 22  20.84577114427861 21.922247023809526  20.69651741293532 21.76674107142857  L 19.66417910447761 20.747767857142858  L 18.6318407960199 21.76674107142857  C 18.474295190713104 21.922247023809526  18.287728026533998 22  18.072139303482587 22  C 17.85655058043118 22  17.669983416252073 21.922247023809526  17.512437810945276 21.76674107142857  L 16.480099502487562 20.747767857142858  L 15.447761194029852 21.76674107142857  C 15.290215588723052 21.922247023809526  15.10364842454395 22  14.888059701492537 22  C 14.67247097844113 22  14.485903814262024 21.922247023809526  14.328358208955224 21.76674107142857  L 13.296019900497512 20.747767857142858  L 12.2636815920398 21.76674107142857  C 12.106135986733001 21.922247023809526  11.919568822553897 22  11.703980099502488 22  C 11.48839137645108 22  11.301824212271974 21.922247023809526  11.144278606965175 21.76674107142857  L 10.111940298507463 20.747767857142858  L 9.07960199004975 21.76674107142857  C 8.922056384742952 21.922247023809526  8.735489220563847 22  8.519900497512438 22  C 8.304311774461029 22  8.117744610281925 21.922247023809526  7.960199004975125 21.76674107142857  L 6.9278606965174125 20.747767857142858  L 5.895522388059701 21.76674107142857  C 5.737976782752903 21.922247023809526  5.551409618573798 22  5.335820895522389 22  C 5.1202321724709785 22  4.933665008291874 21.922247023809526  4.776119402985075 21.76674107142857  L 3.743781094527363 20.747767857142858  L 2.711442786069652 21.76674107142857  C 2.5538971807628523 21.922247023809526  2.367330016583748 22  2.1517412935323383 22  C 1.9361525704809288 22  1.7495854063018246 21.922247023809526  1.5920398009950247 21.76674107142857  L 0 20.1953125  L 1.1194029850746268 19.090401785714285  L 2.1517412935323383 20.109375  L 3.1840796019900495 19.090401785714285  C 3.341625207296849 18.934895833333332  3.5281923714759538 18.857142857142858  3.743781094527363 18.857142857142858  C 3.9593698175787737 18.857142857142858  4.1459369817578775 18.934895833333332  4.303482587064677 19.090401785714285  L 5.335820895522389 20.109375  L 6.368159203980099 19.090401785714285  C 6.5257048092869 18.934895833333332  6.712271973466004 18.857142857142858  6.9278606965174125 18.857142857142858  C 7.143449419568823 18.857142857142858  7.330016583747928 18.934895833333332  7.487562189054726 19.090401785714285  L 8.519900497512438 20.109375  L 9.55223880597015 19.090401785714285  C 9.70978441127695 18.934895833333332  9.896351575456054 18.857142857142858  10.111940298507463 18.857142857142858  C 10.327529021558874 18.857142857142858  10.514096185737978 18.934895833333332  10.671641791044777 19.090401785714285  L 11.703980099502488 20.109375  L 12.736318407960198 19.090401785714285  C 12.893864013266999 18.934895833333332  13.080431177446103 18.857142857142858  13.296019900497512 18.857142857142858  C 13.511608623548923 18.857142857142858  13.69817578772803 18.934895833333332  13.855721393034825 19.090401785714285  L 14.888059701492537 20.109375  L 15.92039800995025 19.090401785714285  C 16.07794361525705 18.934895833333332  16.264510779436154 18.857142857142858  16.480099502487562 18.857142857142858  C 16.695688225538973 18.857142857142858  16.88225538971808 18.934895833333332  17.039800995024876 19.090401785714285  L 18.072139303482587 20.109375  L 19.1044776119403 19.090401785714285  C 19.262023217247098 18.934895833333332  19.448590381426204 18.857142857142858  19.66417910447761 18.857142857142858  C 19.879767827529022 18.857142857142858  20.06633499170813 18.934895833333332  20.223880597014926 19.090401785714285  L 21.256218905472636 20.109375  Z M 3.743781094527363 17.604910714285715  L 2.711442786069652 18.62388392857143  C 2.5538971807628523 18.77938988095238  2.367330016583748 18.857142857142858  2.1517412935323383 18.857142857142858  C 1.9361525704809288 18.857142857142858  1.7495854063018246 18.77938988095238  1.5920398009950247 18.62388392857143  L 0 17.052455357142858  L 1.1194029850746268 15.947544642857142  L 2.1517412935323383 16.95424107142857  L 3.1840796019900495 15.947544642857142  C 3.341625207296849 15.79203869047619  3.5281923714759538 15.714285714285715  3.743781094527363 15.714285714285715  C 3.9593698175787737 15.714285714285715  4.1459369817578775 15.79203869047619  4.303482587064677 15.947544642857142  L 5.335820895522389 16.95424107142857  L 6.1318407960199 16.168526785714285  L 6.1318407960199 12.571428571428571  L 3.5199004975124377 8.716517857142856  C 3.3789386401326706 8.503720238095237  3.349917081260365 8.27250744047619  3.4328358208955225 8.022879464285715  C 3.5157545605306804 7.773251488095236  3.681592039800995 7.607514880952378  3.9303482587064673 7.525669642857144  L 6.1318407960199 6.813616071428571  L 6.1318407960199 3.142857142857144  L 7.723880597014926 3.142857142857144  L 7.723880597014926 1.5714285714285707  L 10.907960199004975 1.5714285714285707  L 10.907960199004975 0  L 14.092039800995023 0  L 14.092039800995023 1.5714285714285707  L 17.276119402985074 1.5714285714285707  L 17.276119402985074 3.142857142857144  L 18.8681592039801 3.142857142857144  L 18.8681592039801 6.813616071428571  L 21.069651741293534 7.525669642857144  C 21.318407960199007 7.607514880952378  21.484245439469323 7.773251488095236  21.567164179104477 8.022879464285715  C 21.650082918739635 8.27250744047619  21.621061359867333 8.503720238095237  21.480099502487562 8.716517857142856  L 18.8681592039801 12.571428571428571  L 18.8681592039801 16.168526785714285  L 19.1044776119403 15.947544642857142  C 19.262023217247098 15.79203869047619  19.448590381426204 15.714285714285715  19.66417910447761 15.714285714285715  C 19.879767827529022 15.714285714285715  20.06633499170813 15.79203869047619  20.223880597014926 15.947544642857142  L 21.256218905472636 16.95424107142857  L 22.28855721393035 15.947544642857142  C 22.44610281923715 15.79203869047619  22.632669983416257 15.714285714285715  22.84825870646766 15.714285714285715  C 23.063847429519075 15.714285714285715  23.250414593698178 15.79203869047619  23.407960199004975 15.947544642857142  L 25 17.518973214285715  L 23.88059701492537 18.62388392857143  L 22.84825870646766 17.604910714285715  L 21.81592039800995 18.62388392857143  C 21.66666666666667 18.77938988095238  21.480099502487565 18.857142857142858  21.256218905472636 18.857142857142858  C 21.032338308457714 18.857142857142858  20.84577114427861 18.77938988095238  20.69651741293532 18.62388392857143  L 19.66417910447761 17.604910714285715  L 18.6318407960199 18.62388392857143  C 18.474295190713104 18.77938988095238  18.287728026533998 18.857142857142858  18.072139303482587 18.857142857142858  C 17.85655058043118 18.857142857142858  17.669983416252073 18.77938988095238  17.512437810945276 18.62388392857143  L 16.480099502487562 17.604910714285715  L 15.447761194029852 18.62388392857143  C 15.290215588723052 18.77938988095238  15.10364842454395 18.857142857142858  14.888059701492537 18.857142857142858  C 14.67247097844113 18.857142857142858  14.485903814262024 18.77938988095238  14.328358208955224 18.62388392857143  L 13.296019900497512 17.604910714285715  L 12.2636815920398 18.62388392857143  C 12.106135986733001 18.77938988095238  11.919568822553897 18.857142857142858  11.703980099502488 18.857142857142858  C 11.48839137645108 18.857142857142858  11.301824212271974 18.77938988095238  11.144278606965175 18.62388392857143  L 10.111940298507463 17.604910714285715  L 9.07960199004975 18.62388392857143  C 8.922056384742952 18.77938988095238  8.735489220563847 18.857142857142858  8.519900497512438 18.857142857142858  C 8.304311774461029 18.857142857142858  8.117744610281925 18.77938988095238  7.960199004975125 18.62388392857143  L 6.9278606965174125 17.604910714285715  L 5.895522388059701 18.62388392857143  C 5.737976782752903 18.77938988095238  5.551409618573798 18.857142857142858  5.335820895522389 18.857142857142858  C 5.1202321724709785 18.857142857142858  4.933665008291874 18.77938988095238  4.776119402985075 18.62388392857143  L 3.743781094527363 17.604910714285715  Z M 9.31592039800995 4.714285714285714  L 7.723880597014926 4.714285714285714  L 7.723880597014926 6.285714285714286  L 12.5 4.714285714285714  L 17.276119402985074 6.285714285714286  L 17.276119402985074 4.714285714285714  L 15.68407960199005 4.714285714285714  L 15.68407960199005 3.142857142857144  L 9.31592039800995 3.142857142857144  L 9.31592039800995 4.714285714285714  Z " fill-rule="nonzero" fill="#333333" stroke="none" transform="matrix(1 0 0 1 10 42 )" />
  </g>
</svg>