<?xml version="1.0" encoding="utf-8"?>
<svg version="1.1" xmlns:xlink="http://www.w3.org/1999/xlink" width="31px" height="25px" xmlns="http://www.w3.org/2000/svg">
  <g transform="matrix(1 0 0 1 -7 -40 )">
    <path d="M 9.65162037037037 22.052556818181817  C 10.106095679012347 21.60274621212121  10.333333333333332 21.07007575757576  10.333333333333332 20.454545454545453  C 10.333333333333332 19.83901515151515  10.106095679012347 19.306344696969695  9.65162037037037 18.85653409090909  C 9.197145061728397 18.406723484848484  8.658950617283951 18.181818181818183  8.037037037037036 18.181818181818183  C 7.415123456790124 18.181818181818183  6.87692901234568 18.406723484848484  6.422453703703704 18.85653409090909  C 5.967978395061728 19.306344696969695  5.7407407407407405 19.83901515151515  5.7407407407407405 20.454545454545453  C 5.7407407407407405 21.07007575757576  5.967978395061728 21.60274621212121  6.422453703703704 22.052556818181817  C 6.87692901234568 22.502367424242422  7.415123456790124 22.727272727272727  8.037037037037036 22.727272727272727  C 8.658950617283951 22.727272727272727  9.197145061728397 22.502367424242422  9.65162037037037 22.052556818181817  Z M 3.444444444444444 10.830965909090908  L 3.444444444444444 11.363636363636365  L 10.333333333333332 11.363636363636365  L 10.333333333333332 6.8181818181818175  L 7.498842592592593 6.8181818181818175  C 7.343364197530865 6.8181818181818175  7.211805555555555 6.871448863636365  7.104166666666666 6.977982954545456  L 3.6059027777777777 10.440340909090908  C 3.498263888888889 10.546875  3.444444444444444 10.677083333333332  3.444444444444444 10.830965909090908  Z M 25.725694444444446 22.052556818181817  C 26.180169753086417 21.60274621212121  26.40740740740741 21.07007575757576  26.40740740740741 20.454545454545453  C 26.40740740740741 19.83901515151515  26.180169753086417 19.306344696969695  25.725694444444446 18.85653409090909  C 25.271219135802472 18.406723484848484  24.733024691358025 18.181818181818183  24.11111111111111 18.181818181818183  C 23.4891975308642 18.181818181818183  22.951003086419757 18.406723484848484  22.49652777777778 18.85653409090909  C 22.042052469135804 19.306344696969695  21.814814814814817 19.83901515151515  21.814814814814817 20.454545454545453  C 21.814814814814817 21.07007575757576  22.042052469135804 21.60274621212121  22.49652777777778 22.052556818181817  C 22.951003086419757 22.502367424242422  23.4891975308642 22.727272727272727  24.11111111111111 22.727272727272727  C 24.733024691358025 22.727272727272727  25.271219135802472 22.502367424242422  25.725694444444446 22.052556818181817  Z M 30.65914351851852 0.3373579545454558  C 30.88638117283951 0.5622632575757541  31 0.8285984848484834  31 1.1363636363636354  L 31 19.318181818181817  C 31 19.495738636363637  30.976080246913583 19.65258049242424  30.92824074074074 19.788707386363637  C 30.880401234567902 19.924834280303035  30.799672067901238 20.03432765151515  30.68605324074074 20.1171875  C 30.572434413580247 20.20004734848485  30.473765432098766 20.268110795454547  30.390046296296298 20.32137784090909  C 30.30632716049383 20.374644886363637  30.16579861111111 20.41015625  29.96846064814815 20.427911931818183  C 29.771122685185183 20.445667613636363  29.636574074074073 20.457504734848484  29.564814814814817 20.463423295454547  C 29.493055555555554 20.469341856060606  29.34056712962963 20.469341856060606  29.107349537037038 20.463423295454547  C 28.874131944444446 20.457504734848484  28.739583333333336 20.454545454545453  28.703703703703702 20.454545454545453  C 28.703703703703702 21.709280303030305  28.255208333333336 22.780539772727273  27.35821759259259 23.668323863636363  C 26.46122685185185 24.556107954545457  25.378858024691358 25  24.11111111111111 25  C 22.843364197530867 25  21.76099537037037 24.556107954545457  20.86400462962963 23.668323863636363  C 19.96701388888889 22.780539772727273  19.51851851851852 21.709280303030305  19.51851851851852 20.454545454545453  L 12.62962962962963 20.454545454545453  C 12.62962962962963 21.709280303030305  12.18113425925926 22.780539772727273  11.284143518518519 23.668323863636363  C 10.387152777777777 24.556107954545457  9.304783950617285 25  8.037037037037036 25  C 6.769290123456791 25  5.686921296296296 24.556107954545457  4.789930555555555 23.668323863636363  C 3.8929398148148144 22.780539772727273  3.444444444444444 21.709280303030305  3.444444444444444 20.454545454545453  L 2.2962962962962963 20.454545454545453  C 2.260416666666667 20.454545454545453  2.125868055555556 20.457504734848484  1.892650462962963 20.463423295454547  C 1.6594328703703705 20.469341856060606  1.5069444444444444 20.469341856060606  1.4351851851851851 20.463423295454547  C 1.363425925925926 20.457504734848484  1.2288773148148149 20.445667613636363  1.0315393518518519 20.427911931818183  C 0.8342013888888892 20.41015625  0.6936728395061732 20.374644886363637  0.6099537037037037 20.32137784090909  C 0.5262345679012348 20.268110795454547  0.4275655864197533 20.20004734848485  0.31394675925925924 20.1171875  C 0.2003279320987655 20.03432765151515  0.11959876543209885 19.924834280303035  0.07175925925925926 19.788707386363637  C 0.023919753086419922 19.65258049242424  0 19.495738636363637  0 19.318181818181817  C 0 19.010416666666668  0.113618827160494 18.744081439393938  0.3408564814814815 18.519176136363637  C 0.5680941358024695 18.294270833333332  0.8371913580246917 18.181818181818183  1.1481481481481481 18.181818181818183  L 1.1481481481481481 12.5  C 1.1481481481481481 12.405303030303031  1.1451581790123457 12.198153409090908  1.1391782407407407 11.878551136363635  C 1.1331983024691359 11.558948863636365  1.1331983024691359 11.334043560606059  1.1391782407407407 11.203835227272727  C 1.1451581790123457 11.073626893939393  1.1601080246913584 10.869436553030301  1.184027777777778 10.591264204545455  C 1.2079475308641978 10.313091856060606  1.2468171296296295 10.094105113636365  1.300636574074074 9.934303977272727  C 1.3544560185185186 9.774502840909092  1.438175154320988 9.59398674242424  1.5517939814814814 9.392755681818182  C 1.6654128086419755 9.191524621212121  1.7999614197530867 9.013967803030305  1.9554398148148149 8.860085227272727  L 5.507523148148148 5.344460227272727  C 5.734760802469137 5.119554924242423  6.036747685185186 4.9301609848484835  6.413483796296296 4.776278409090909  C 6.790219907407408 4.622395833333331  7.140046296296297 4.545454545454544  7.462962962962963 4.545454545454544  L 10.333333333333332 4.545454545454544  L 10.333333333333332 1.1363636363636354  C 10.333333333333332 0.8285984848484834  10.446952160493828 0.5622632575757541  10.674189814814815 0.3373579545454558  C 10.901427469135804 0.11245265151514916  11.170524691358025 0  11.481481481481481 0  L 29.85185185185185 0  C 30.16280864197531 0  30.43190586419753 0.11245265151514916  30.65914351851852 0.3373579545454558  Z " fill-rule="nonzero" fill="#555555" stroke="none" transform="matrix(1 0 0 1 7 40 )" />
  </g>
</svg>