<?xml version="1.0" encoding="utf-8"?>
<svg version="1.1" xmlns:xlink="http://www.w3.org/1999/xlink" width="22px" height="22px" xmlns="http://www.w3.org/2000/svg">
  <g transform="matrix(1 0 0 1 -247 -826 )">
    <path d="M 6.727678571428572 0.8716517857142854  C 8.086309523809524 0.2905505952380951  9.510416666666668 0  11 0  C 12.489583333333334 0  13.913690476190478 0.2905505952380951  15.272321428571429 0.8716517857142854  C 16.630952380952383 1.4527529761904756  17.801339285714285 2.234375  18.783482142857142 3.216517857142856  C 19.765625000000004 4.198660714285714  20.547247023809526 5.369047619047617  21.128348214285715 6.727678571428571  C 21.70944940476191 8.086309523809522  22 9.510416666666666  22 11  C 22 12.48139880952381  21.711495535714285 13.90141369047619  21.134486607142858 15.260044642857142  C 20.55747767857143 16.6186755952381  19.777901785714285 17.7890625  18.79575892857143 18.771205357142858  C 17.81361607142857 19.753348214285715  16.643229166666668 20.537016369047617  15.284598214285715 21.12220982142857  C 13.925967261904763 21.707403273809526  12.497767857142856 22  11 22  C 9.502232142857142 22  8.074032738095239 21.709449404761905  6.715401785714286 21.128348214285715  C 5.356770833333334 20.547247023809526  4.18843005952381 19.763578869047617  3.210379464285714 18.77734375  C 2.232328869047619 17.79110863095238  1.4527529761904763 16.620721726190474  0.8716517857142857 15.266183035714285  C 0.2905505952380952 13.911644345238093  0 12.489583333333332  0 11  C 0 9.510416666666666  0.2905505952380952 8.086309523809522  0.8716517857142857 6.727678571428571  C 1.4527529761904763 5.369047619047617  2.234375 4.198660714285714  3.216517857142857 3.216517857142856  C 4.198660714285714 2.234375  5.3690476190476195 1.4527529761904756  6.727678571428572 0.8716517857142854  Z M 14.842633928571429 12.571428571428571  C 16.806919642857142 12.571428571428571  18.059151785714285 13.909598214285715  18.599330357142858 16.5859375  C 19.81882440476191 14.90811011904762  20.42857142857143 13.04613095238095  20.42857142857143 11  C 20.42857142857143 9.723214285714285  20.178943452380953 8.503720238095237  19.6796875 7.341517857142856  C 19.180431547619047 6.179315476190475  18.5093005952381 5.1767113095238075  17.666294642857142 4.333705357142856  C 16.823288690476193 3.490699404761905  15.820684523809524 2.819568452380951  14.658482142857144 2.3203125  C 13.496279761904763 1.8210565476190463  12.276785714285715 1.5714285714285707  11 1.5714285714285707  C 9.723214285714285 1.5714285714285707  8.503720238095239 1.8210565476190463  7.341517857142858 2.3203125  C 6.179315476190477 2.819568452380951  5.17671130952381 3.490699404761905  4.333705357142858 4.333705357142856  C 3.4906994047619055 5.1767113095238075  2.8195684523809526 6.179315476190475  2.3203125 7.341517857142856  C 1.821056547619048 8.503720238095237  1.5714285714285714 9.723214285714285  1.5714285714285714 11  C 1.5714285714285714 13.04613095238095  2.1811755952380953 14.90811011904762  3.400669642857143 16.5859375  C 3.940848214285714 13.909598214285715  5.193080357142858 12.571428571428571  7.157366071428572 12.571428571428571  C 8.229538690476192 13.61904761904762  9.510416666666668 14.142857142857142  11 14.142857142857142  C 12.489583333333334 14.142857142857142  13.77046130952381 13.61904761904762  14.842633928571429 12.571428571428571  Z M 14.333147321428571 11.976004464285715  C 15.25390625 11.055245535714285  15.714285714285715 9.944196428571429  15.714285714285715 8.642857142857144  C 15.714285714285715 7.341517857142856  15.25390625 6.23046875  14.333147321428571 5.309709821428571  C 13.412388392857144 4.388950892857144  12.301339285714285 3.9285714285714293  11 3.9285714285714293  C 9.698660714285715 3.9285714285714293  8.587611607142858 4.388950892857144  7.666852678571428 5.309709821428571  C 6.74609375 6.23046875  6.285714285714286 7.341517857142856  6.285714285714286 8.642857142857144  C 6.285714285714286 9.944196428571429  6.74609375 11.055245535714285  7.666852678571428 11.976004464285715  C 8.587611607142858 12.896763392857142  9.698660714285715 13.357142857142858  11 13.357142857142858  C 12.301339285714285 13.357142857142858  13.412388392857144 12.896763392857142  14.333147321428571 11.976004464285715  Z " fill-rule="nonzero" fill="#333333" stroke="none" transform="matrix(1 0 0 1 247 826 )" />
  </g>
</svg>