<?xml version="1.0" encoding="utf-8"?>
<svg version="1.1" xmlns:xlink="http://www.w3.org/1999/xlink" width="25px" height="23px" xmlns="http://www.w3.org/2000/svg">
  <g transform="matrix(1 0 0 1 -10 -39 )">
    <path d="M 6.666666666666667 8.214285714285714  C 6.666666666666667 9.403645833333332  7.018229166666666 10.498883928571429  7.721354166666666 11.5  C 6.315104166666667 11.542782738095239  5.164930555555556 12.090401785714285  4.270833333333333 13.142857142857142  L 2.5260416666666665 13.142857142857142  C 1.814236111111111 13.142857142857142  1.215277777777778 12.969587053571429  0.7291666666666666 12.623046875  C 0.24305555555555552 12.276506696428571  0 11.76953125  0 11.102120535714286  C 0 8.081659226190474  0.5381944444444443 6.571428571428571  1.6145833333333335 6.571428571428571  C 1.6666666666666667 6.571428571428571  1.85546875 6.661272321428571  2.180989583333333 6.840959821428571  C 2.506510416666667 7.020647321428571  2.9296875 7.202473958333332  3.4505208333333335 7.386439732142858  C 3.9713541666666665 7.5704055059523805  4.487847222222222 7.662388392857142  5 7.662388392857142  C 5.581597222222222 7.662388392857142  6.158854166666667 7.563988095238094  6.731770833333334 7.3671875  C 6.688368055555556 7.683779761904759  6.666666666666667 7.966145833333332  6.666666666666667 8.214285714285714  Z M 21.62109375 18.347377232142858  C 21.651475694444446 18.779482886904763  21.666666666666668 19.222284226190478  21.666666666666668 19.67578125  C 21.666666666666668 20.70256696428571  21.34982638888889 21.513299851190478  20.716145833333332 22.10797991071429  C 20.082465277777782 22.702659970238095  19.24045138888889 23  18.190104166666668 23  L 6.809895833333333 23  C 5.759548611111112 23  4.917534722222223 22.702659970238095  4.283854166666667 22.10797991071429  C 3.650173611111111 21.513299851190478  3.3333333333333335 20.70256696428571  3.3333333333333335 19.67578125  C 3.3333333333333335 19.222284226190478  3.348524305555556 18.779482886904763  3.37890625 18.347377232142858  C 3.409288194444445 17.915271577380953  3.470052083333333 17.448939732142858  3.561197916666667 16.94838169642857  C 3.65234375 16.447823660714285  3.7673611111111116 15.983630952380953  3.90625 15.555803571428571  C 4.045138888888889 15.127976190476188  4.231770833333334 14.710844494047617  4.466145833333333 14.304408482142858  C 4.700520833333333 13.897972470238093  4.969618055555556 13.551432291666664  5.2734375 13.264787946428571  C 5.577256944444445 12.978143601190478  5.9483506944444455 12.749255952380953  6.386718750000001 12.578125  C 6.825086805555556 12.406994047619046  7.309027777777779 12.321428571428571  7.838541666666667 12.321428571428571  C 7.925347222222223 12.321428571428571  8.111979166666666 12.413411458333332  8.3984375 12.597377232142858  C 8.684895833333334 12.781343005952381  9.00173611111111 12.986700148809522  9.348958333333334 13.213448660714285  C 9.696180555555557 13.440197172619046  10.160590277777779 13.645554315476188  10.7421875 13.829520089285715  C 11.323784722222223 14.013485863095239  11.909722222222223 14.10546875  12.5 14.10546875  C 13.090277777777779 14.10546875  13.676215277777779 14.013485863095239  14.2578125 13.829520089285715  C 14.839409722222225 13.645554315476188  15.303819444444446 13.440197172619046  15.651041666666668 13.213448660714285  C 15.99826388888889 12.986700148809522  16.315104166666668 12.781343005952381  16.6015625 12.597377232142858  C 16.888020833333332 12.413411458333332  17.07465277777778 12.321428571428571  17.161458333333332 12.321428571428571  C 17.69097222222222 12.321428571428571  18.174913194444446 12.406994047619046  18.61328125 12.578125  C 19.051649305555557 12.749255952380953  19.422743055555554 12.978143601190478  19.7265625 13.264787946428571  C 20.030381944444446 13.551432291666664  20.299479166666668 13.897972470238093  20.533854166666668 14.304408482142858  C 20.768229166666664 14.710844494047617  20.954861111111114 15.127976190476188  21.09375 15.555803571428571  C 21.232638888888893 15.983630952380953  21.34765625 16.447823660714285  21.438802083333332 16.94838169642857  C 21.529947916666668 17.448939732142858  21.590711805555557 17.915271577380953  21.62109375 18.347377232142858  Z M 7.356770833333333 0.9626116071428579  C 8.0078125 1.6043526785714288  8.333333333333332 2.378720238095236  8.333333333333332 3.285714285714287  C 8.333333333333332 4.192708333333332  8.0078125 4.967075892857142  7.356770833333333 5.6088169642857135  C 6.705729166666667 6.2505580357142865  5.920138888888889 6.571428571428571  5 6.571428571428571  C 4.079861111111112 6.571428571428571  3.2942708333333335 6.2505580357142865  2.6432291666666665 5.6088169642857135  C 1.9921874999999998 4.967075892857142  1.6666666666666667 4.192708333333332  1.6666666666666667 3.285714285714287  C 1.6666666666666667 2.378720238095236  1.9921874999999998 1.6043526785714288  2.6432291666666665 0.9626116071428579  C 3.2942708333333335 0.3208705357142868  4.079861111111112 0  5 0  C 5.920138888888889 0  6.705729166666667 0.3208705357142868  7.356770833333333 0.9626116071428579  Z M 16.03515625 4.729631696428571  C 17.01171875 5.692243303571429  17.5 6.853794642857142  17.5 8.214285714285714  C 17.5 9.574776785714286  17.01171875 10.736328125  16.03515625 11.698939732142858  C 15.058593749999998 12.661551339285715  13.880208333333332 13.142857142857142  12.5 13.142857142857142  C 11.11979166666667 13.142857142857142  9.941406250000002 12.661551339285715  8.96484375 11.698939732142858  C 7.98828125 10.736328125  7.5 9.574776785714286  7.5 8.214285714285714  C 7.5 6.853794642857142  7.98828125 5.692243303571429  8.96484375 4.729631696428571  C 9.941406250000002 3.767020089285713  11.11979166666667 3.285714285714287  12.5 3.285714285714287  C 13.880208333333332 3.285714285714287  15.058593749999998 3.767020089285713  16.03515625 4.729631696428571  Z M 23.385416666666668 6.571428571428571  C 24.46180555555556 6.571428571428571  25.000000000000007 8.081659226190474  25 11.102120535714286  C 25.000000000000007 11.76953125  24.756944444444446 12.276506696428571  24.270833333333332 12.623046875  C 23.784722222222225 12.969587053571429  23.185763888888893 13.142857142857142  22.473958333333332 13.142857142857142  L 20.729166666666668 13.142857142857142  C 19.835069444444446 12.090401785714285  18.684895833333336 11.542782738095239  17.278645833333332 11.5  C 17.981770833333332 10.498883928571429  18.333333333333332 9.403645833333332  18.333333333333332 8.214285714285714  C 18.333333333333332 7.966145833333332  18.311631944444446 7.683779761904759  18.268229166666668 7.3671875  C 18.841145833333332 7.563988095238094  19.41840277777778 7.662388392857142  20 7.662388392857142  C 20.51215277777778 7.662388392857142  21.028645833333336 7.5704055059523805  21.549479166666664 7.386439732142858  C 22.0703125 7.202473958333332  22.493489583333336 7.020647321428571  22.819010416666664 6.840959821428571  C 23.14453125 6.661272321428571  23.333333333333332 6.571428571428571  23.385416666666668 6.571428571428571  Z M 22.356770833333332 0.9626116071428579  C 23.0078125 1.6043526785714288  23.333333333333332 2.378720238095236  23.333333333333332 3.285714285714287  C 23.333333333333332 4.192708333333332  23.0078125 4.967075892857142  22.356770833333332 5.6088169642857135  C 21.705729166666668 6.2505580357142865  20.92013888888889 6.571428571428571  20 6.571428571428571  C 19.079861111111114 6.571428571428571  18.294270833333336 6.2505580357142865  17.643229166666664 5.6088169642857135  C 16.9921875 4.967075892857142  16.666666666666664 4.192708333333332  16.666666666666664 3.285714285714287  C 16.666666666666664 2.378720238095236  16.9921875 1.6043526785714288  17.643229166666664 0.9626116071428579  C 18.294270833333336 0.3208705357142868  19.079861111111114 0  20 0  C 20.92013888888889 0  21.705729166666668 0.3208705357142868  22.356770833333332 0.9626116071428579  Z " fill-rule="nonzero" fill="#333333" stroke="none" transform="matrix(1 0 0 1 10 39 )" />
  </g>
</svg>