<?xml version="1.0" encoding="utf-8"?>
<svg version="1.1" xmlns:xlink="http://www.w3.org/1999/xlink" width="16px" height="2px" xmlns="http://www.w3.org/2000/svg">
  <defs>
    <mask fill="white" id="clip110">
      <path d="M 7 1  C 7 1.5522847175598145  7.447715222835541 2  8 2  C 8.552284717559814 2  9 1.5522847175598145  9 1  C 9 0.44771522283554077  8.552284717559814 0  8 0  C 7.447715222835541 0  7 0.44771522283554077  7 1  Z M 14 1  C 14 1.5522847175598145  14.44771522283554 2  15 2  C 15.552284717559814 2  16 1.5522847175598145  16 1  C 16 0.44771522283554077  15.552284717559814 0  15 0  C 14.44771522283554 0  14 0.44771522283554077  14 1  Z M 0 1  C 0 1.5522847175598145  0.44771522283554077 2  1 2  C 1.5522847175598145 2  2 1.5522847175598145  2 1  C 2 0.44771522283554077  1.5522847175598145 0  1 0  C 0.44771522283554077 0  0 0.44771522283554077  0 1  Z " fill-rule="evenodd" />
    </mask>
  </defs>
  <g transform="matrix(1 0 0 1 -385 -107 )">
    <path d="M 7 1  C 7 1.5522847175598145  7.447715222835541 2  8 2  C 8.552284717559814 2  9 1.5522847175598145  9 1  C 9 0.44771522283554077  8.552284717559814 0  8 0  C 7.447715222835541 0  7 0.44771522283554077  7 1  Z M 14 1  C 14 1.5522847175598145  14.44771522283554 2  15 2  C 15.552284717559814 2  16 1.5522847175598145  16 1  C 16 0.44771522283554077  15.552284717559814 0  15 0  C 14.44771522283554 0  14 0.44771522283554077  14 1  Z M 0 1  C 0 1.5522847175598145  0.44771522283554077 2  1 2  C 1.5522847175598145 2  2 1.5522847175598145  2 1  C 2 0.44771522283554077  1.5522847175598145 0  1 0  C 0.44771522283554077 0  0 0.44771522283554077  0 1  Z " fill-rule="nonzero" fill="#ffffff" stroke="none" fill-opacity="0" transform="matrix(1 0 0 1 385 107 )" />
    <path d="M 7 1  C 7 1.5522847175598145  7.447715222835541 2  8 2  C 8.552284717559814 2  9 1.5522847175598145  9 1  C 9 0.44771522283554077  8.552284717559814 0  8 0  C 7.447715222835541 0  7 0.44771522283554077  7 1  Z " stroke-width="3" stroke="#1a1a1a" fill="none" transform="matrix(1 0 0 1 385 107 )" mask="url(#clip110)" />
    <path d="M 14 1  C 14 1.5522847175598145  14.44771522283554 2  15 2  C 15.552284717559814 2  16 1.5522847175598145  16 1  C 16 0.44771522283554077  15.552284717559814 0  15 0  C 14.44771522283554 0  14 0.44771522283554077  14 1  Z " stroke-width="3" stroke="#1a1a1a" fill="none" transform="matrix(1 0 0 1 385 107 )" mask="url(#clip110)" />
    <path d="M 0 1  C 0 1.5522847175598145  0.44771522283554077 2  1 2  C 1.5522847175598145 2  2 1.5522847175598145  2 1  C 2 0.44771522283554077  1.5522847175598145 0  1 0  C 0.44771522283554077 0  0 0.44771522283554077  0 1  Z " stroke-width="3" stroke="#1a1a1a" fill="none" transform="matrix(1 0 0 1 385 107 )" mask="url(#clip110)" />
  </g>
</svg>