<?xml version="1.0" encoding="utf-8"?>
<svg version="1.1" xmlns:xlink="http://www.w3.org/1999/xlink" width="18px" height="18px" xmlns="http://www.w3.org/2000/svg">
  <g transform="matrix(1 0 0 1 -1399 -16 )">
    <path d="M 14.8359375 9.515624999999998  C 14.9765625 9.374999999999998  15.046875 9.199218749999998  15.046875 8.98828125  C 15.046875 8.77734375  14.9765625 8.6015625  14.8359375 8.4609375  L 10.59375 4.21875  L 9.52734375 3.152343750000001  C 9.386718750000002 3.011718750000001  9.210937500000002 2.941406250000001  9 2.941406250000001  C 8.7890625 2.941406250000001  8.61328125 3.011718750000001  8.47265625 3.152343750000001  L 7.40625 4.21875  L 3.1640625 8.4609375  C 3.0234375 8.6015625  2.9531250000000004 8.77734375  2.953125 8.98828125  C 2.9531250000000004 9.199218749999998  3.0234375 9.374999999999998  3.1640625 9.515624999999998  L 4.23046875 10.58203125  C 4.37109375 10.72265625  4.546875 10.79296875  4.7578125 10.79296875  C 4.96875 10.79296875  5.14453125 10.72265625  5.28515625 10.58203125  L 7.5 8.3671875  L 7.5 14.25  C 7.5 14.453125  7.57421875 14.62890625  7.72265625 14.77734375  C 7.871093750000001 14.925781250000002  8.046875 15  8.25 15  L 9.75 15  C 9.953125000000002 15  10.128906250000002 14.925781250000002  10.27734375 14.77734375  C 10.425781250000002 14.62890625  10.5 14.453125  10.5 14.25  L 10.5 8.3671875  L 12.71484375 10.58203125  C 12.86328125 10.730468749999998  13.0390625 10.804687500000002  13.2421875 10.804687500000002  C 13.445312500000002 10.804687500000002  13.621093750000002 10.730468749999998  13.76953125 10.58203125  L 14.8359375 9.515624999999998  Z M 16.79296875 4.482421875  C 17.597656249999996 5.861328124999998  18 7.367187499999997  18 9  C 18 10.6328125  17.597656249999996 12.138671874999998  16.79296875 13.517578125  C 15.988281250000002 14.896484375  14.896484375 15.98828125  13.517578125 16.79296875  C 12.138671875000002 17.59765625  10.6328125 18  9 18  C 7.367187500000001 18  5.861328125 17.59765625  4.482421875 16.79296875  C 3.1035156250000004 15.98828125  2.01171875 14.896484375  1.20703125 13.517578125  C 0.40234374999999994 12.138671874999998  0 10.6328125  0 9  C 0 7.367187499999997  0.40234374999999994 5.861328124999998  1.20703125 4.482421875  C 2.01171875 3.103515625  3.1035156250000004 2.0117187499999982  4.482421875 1.2070312499999993  C 5.861328125 0.40234374999999845  7.367187500000001 0  9 0  C 10.6328125 0  12.138671875000002 0.40234374999999845  13.517578125 1.2070312499999993  C 14.896484375 2.0117187499999982  15.988281250000002 3.103515625  16.79296875 4.482421875  Z " fill-rule="nonzero" fill="#7f7f7f" stroke="none" transform="matrix(1 0 0 1 1399 16 )" />
  </g>
</svg>