<?xml version="1.0" encoding="utf-8"?>
<svg version="1.1" xmlns:xlink="http://www.w3.org/1999/xlink" width="14px" height="14px" xmlns="http://www.w3.org/2000/svg">
  <g transform="matrix(1 0 0 1 -775 -16 )">
    <path d="M 13.747096774193547 1.9326599326599332  C 13.915698924731185 2.1526374859708186  14.000000000000004 2.419753086419753  14 2.734006734006734  C 14.000000000000004 3.0482603815937135  13.915698924731185 3.3153759820426476  13.747096774193547 3.5353535353535346  L 7.207741935483872 12.067340067340067  L 5.9793548387096775 13.67003367003367  C 5.810752688172044 13.890011223344557  5.606021505376345 14  5.365161290322581 14  C 5.124301075268817 14  4.919569892473119 13.890011223344557  4.750967741935484 13.67003367003367  L 3.52258064516129 12.067340067340067  L 0.25290322580645164 7.801346801346803  C 0.08430107526881729 7.581369248035914  0 7.3142536475869795  0 7  C 0 6.685746352413019  0.08430107526881729 6.418630751964085  0.25290322580645164 6.198653198653199  L 1.481290322580645 4.595959595959596  C 1.6498924731182796 4.375982042648709  1.8546236559139788 4.265993265993265  2.095483870967742 4.2659932659932664  C 2.336344086021506 4.265993265993265  2.5410752688172042 4.375982042648709  2.7096774193548385 4.595959595959596  L 5.365161290322581 8.072390572390571  L 11.29032258064516 0.32996632996633  C 11.458924731182798 0.10998877665544282  11.663655913978497 0  11.904516129032258 0  C 12.145376344086023 0  12.350107526881722 0.10998877665544282  12.518709677419354 0.32996632996633  L 13.747096774193547 1.9326599326599332  Z " fill-rule="nonzero" fill="#aaaaaa" stroke="none" transform="matrix(1 0 0 1 775 16 )" />
  </g>
</svg>