<?xml version="1.0" encoding="utf-8"?>
<svg version="1.1" xmlns:xlink="http://www.w3.org/1999/xlink" width="27px" height="27px" xmlns="http://www.w3.org/2000/svg">
  <g transform="matrix(1 0 0 1 -121 -911 )">
    <path d="M 134.5 911  C 142.06 911  148 916.94  148 924.5  C 148 932.06  142.06 938  134.5 938  C 126.94 938  121 932.06  121 924.5  C 121 916.94  126.94 911  134.5 911  Z " fill-rule="nonzero" fill="#63a103" stroke="none" />
    <path d="M 134.5 911.5  C 141.78 911.5  147.5 917.22  147.5 924.5  C 147.5 931.78  141.78 937.5  134.5 937.5  C 127.22 937.5  121.5 931.78  121.5 924.5  C 121.5 917.22  127.22 911.5  134.5 911.5  Z " stroke-width="1" stroke="#797979" fill="none" />
  </g>
</svg>