<?xml version="1.0" encoding="utf-8"?>
<svg version="1.1" xmlns:xlink="http://www.w3.org/1999/xlink" width="19px" height="19px" viewBox="235 1416.5  19 19" xmlns="http://www.w3.org/2000/svg">
  <path d="M 244.5 1416.5  C 249.82 1416.5  254 1420.68  254 1426  C 254 1431.32  249.82 1435.5  244.5 1435.5  C 239.18 1435.5  235 1431.32  235 1426  C 235 1420.68  239.18 1416.5  244.5 1416.5  Z " fill-rule="nonzero" fill="#ffffff" stroke="none" />
  <path d="M 244.5 1417  C 249.54 1417  253.5 1420.96  253.5 1426  C 253.5 1431.04  249.54 1435  244.5 1435  C 239.46 1435  235.5 1431.04  235.5 1426  C 235.5 1420.96  239.46 1417  244.5 1417  Z " stroke-width="1" stroke="#f59a23" fill="none" />
  <path d="M 244.5 1430.75  C 241.84 1430.75  239.75 1428.66  239.75 1426  C 239.75 1423.34  241.84 1421.25  244.5 1421.25  C 247.16 1421.25  249.25 1423.34  249.25 1426  C 249.25 1428.66  247.16 1430.75  244.5 1430.75  " fill-rule="nonzero" fill="#f59a23" stroke="none" />
</svg>