<?xml version="1.0" encoding="utf-8"?>
<svg version="1.1" xmlns:xlink="http://www.w3.org/1999/xlink" width="13px" height="13px" xmlns="http://www.w3.org/2000/svg">
  <g transform="matrix(1 0 0 1 -1237 -16 )">
    <path d="M 12.693602693602694 9.717171717171716  C 12.897867564534232 9.921436588103253  13 10.169472502805835  13 10.461279461279462  C 13 10.753086419753089  12.897867564534232 11.001122334455667  12.693602693602694 11.205387205387204  L 11.205387205387204 12.693602693602694  C 11.001122334455669 12.897867564534232  10.753086419753087 13  10.461279461279462 13  C 10.169472502805837 13  9.921436588103255 12.897867564534232  9.717171717171718 12.693602693602694  L 6.5 9.476430976430978  L 3.282828282828283 12.693602693602694  C 3.0785634118967455 12.897867564534232  2.830527497194164 13  2.538720538720539 13  C 2.246913580246914 13  1.9988776655443325 12.897867564534232  1.7946127946127948 12.693602693602694  L 0.3063973063973064 11.205387205387204  C 0.1021324354657689 11.001122334455667  0 10.753086419753089  0 10.461279461279462  C 0 10.169472502805835  0.1021324354657689 9.921436588103253  0.3063973063973064 9.717171717171716  L 3.5235690235690234 6.5  L 0.3063973063973064 3.2828282828282824  C 0.1021324354657689 3.078563411896744  0 2.830527497194164  0 2.538720538720539  C 0 2.2469135802469133  0.1021324354657689 1.9988776655443303  0.3063973063973064 1.794612794612795  L 1.7946127946127948 0.30639730639730645  C 1.9988776655443325 0.10213243546576833  2.246913580246914 0  2.538720538720539 0  C 2.830527497194164 0  3.0785634118967455 0.10213243546576833  3.282828282828283 0.30639730639730645  L 6.5 3.5235690235690242  L 9.717171717171718 0.30639730639730645  C 9.921436588103255 0.10213243546576833  10.169472502805837 0  10.461279461279462 0  C 10.753086419753087 0  11.001122334455669 0.10213243546576833  11.205387205387204 0.30639730639730645  L 12.693602693602694 1.794612794612795  C 12.897867564534232 1.9988776655443303  13 2.2469135802469133  13 2.538720538720539  C 13 2.830527497194164  12.897867564534232 3.078563411896744  12.693602693602694 3.2828282828282824  L 9.476430976430976 6.5  L 12.693602693602694 9.717171717171716  Z " fill-rule="nonzero" fill="#ffffff" stroke="none" transform="matrix(1 0 0 1 1237 16 )" />
  </g>
</svg>