<?xml version="1.0" encoding="utf-8"?>
<svg version="1.1" xmlns:xlink="http://www.w3.org/1999/xlink" width="19px" height="19px" viewBox="228 370.5  19 19" xmlns="http://www.w3.org/2000/svg">
  <path d="M 237.5 370.5  C 242.82 370.5  247 374.68  247 380  C 247 385.32  242.82 389.5  237.5 389.5  C 232.18 389.5  228 385.32  228 380  C 228 374.68  232.18 370.5  237.5 370.5  Z " fill-rule="nonzero" fill="#ffffff" stroke="none" />
  <path d="M 237.5 371  C 242.54 371  246.5 374.96  246.5 380  C 246.5 385.04  242.54 389  237.5 389  C 232.46 389  228.5 385.04  228.5 380  C 228.5 374.96  232.46 371  237.5 371  Z " stroke-width="1" stroke="#f59a23" fill="none" />
  <path d="M 237.5 384.75  C 234.84 384.75  232.75 382.66  232.75 380  C 232.75 377.34  234.84 375.25  237.5 375.25  C 240.16 375.25  242.25 377.34  242.25 380  C 242.25 382.66  240.16 384.75  237.5 384.75  " fill-rule="nonzero" fill="#f59a23" stroke="none" />
</svg>