<?xml version="1.0" encoding="utf-8"?>
<svg version="1.1" xmlns:xlink="http://www.w3.org/1999/xlink" width="19px" height="19px" viewBox="319 268.5  19 19" xmlns="http://www.w3.org/2000/svg">
  <path d="M 328.5 268.5  C 333.82 268.5  338 272.68  338 278  C 338 283.32  333.82 287.5  328.5 287.5  C 323.18 287.5  319 283.32  319 278  C 319 272.68  323.18 268.5  328.5 268.5  Z " fill-rule="nonzero" fill="#ffffff" stroke="none" />
  <path d="M 328.5 269  C 333.54 269  337.5 272.96  337.5 278  C 337.5 283.04  333.54 287  328.5 287  C 323.46 287  319.5 283.04  319.5 278  C 319.5 272.96  323.46 269  328.5 269  Z " stroke-width="1" stroke="#f59a23" fill="none" />
  <path d="M 328.5 282.75  C 325.84 282.75  323.75 280.66  323.75 278  C 323.75 275.34  325.84 273.25  328.5 273.25  C 331.16 273.25  333.25 275.34  333.25 278  C 333.25 280.66  331.16 282.75  328.5 282.75  " fill-rule="nonzero" fill="#f59a23" stroke="none" />
</svg>