<?xml version="1.0" encoding="utf-8"?>
<svg version="1.1" xmlns:xlink="http://www.w3.org/1999/xlink" width="19px" height="19px" viewBox="434 370.5  19 19" xmlns="http://www.w3.org/2000/svg">
  <path d="M 443.5 370.5  C 448.82 370.5  453 374.68  453 380  C 453 385.32  448.82 389.5  443.5 389.5  C 438.18 389.5  434 385.32  434 380  C 434 374.68  438.18 370.5  443.5 370.5  Z " fill-rule="nonzero" fill="#ffffff" stroke="none" />
  <path d="M 443.5 371  C 448.54 371  452.5 374.96  452.5 380  C 452.5 385.04  448.54 389  443.5 389  C 438.46 389  434.5 385.04  434.5 380  C 434.5 374.96  438.46 371  443.5 371  Z " stroke-width="1" stroke="#f59a23" fill="none" />
  <path d="M 443.5 384.75  C 440.84 384.75  438.75 382.66  438.75 380  C 438.75 377.34  440.84 375.25  443.5 375.25  C 446.16 375.25  448.25 377.34  448.25 380  C 448.25 382.66  446.16 384.75  443.5 384.75  " fill-rule="nonzero" fill="#f59a23" stroke="none" />
</svg>