<?xml version="1.0" encoding="utf-8"?>
<svg version="1.1" xmlns:xlink="http://www.w3.org/1999/xlink" width="19px" height="19px" viewBox="219 268.5  19 19" xmlns="http://www.w3.org/2000/svg">
  <path d="M 228.5 268.5  C 233.82 268.5  238 272.68  238 278  C 238 283.32  233.82 287.5  228.5 287.5  C 223.18 287.5  219 283.32  219 278  C 219 272.68  223.18 268.5  228.5 268.5  Z " fill-rule="nonzero" fill="#ffffff" stroke="none" />
  <path d="M 228.5 269  C 233.54 269  237.5 272.96  237.5 278  C 237.5 283.04  233.54 287  228.5 287  C 223.46 287  219.5 283.04  219.5 278  C 219.5 272.96  223.46 269  228.5 269  Z " stroke-width="1" stroke="#f59a23" fill="none" />
  <path d="M 228.5 282.75  C 225.84 282.75  223.75 280.66  223.75 278  C 223.75 275.34  225.84 273.25  228.5 273.25  C 231.16 273.25  233.25 275.34  233.25 278  C 233.25 280.66  231.16 282.75  228.5 282.75  " fill-rule="nonzero" fill="#f59a23" stroke="none" />
</svg>