<?xml version="1.0" encoding="utf-8"?>
<svg version="1.1" xmlns:xlink="http://www.w3.org/1999/xlink" width="19px" height="19px" viewBox="520 397  19 19" xmlns="http://www.w3.org/2000/svg">
  <path d="M 529.5 397  C 534.82 397  539 401.18  539 406.5  C 539 411.82  534.82 416  529.5 416  C 524.18 416  520 411.82  520 406.5  C 520 401.18  524.18 397  529.5 397  Z " fill-rule="nonzero" fill="#ffffff" stroke="none" />
  <path d="M 529.5 397.5  C 534.54 397.5  538.5 401.46  538.5 406.5  C 538.5 411.54  534.54 415.5  529.5 415.5  C 524.46 415.5  520.5 411.54  520.5 406.5  C 520.5 401.46  524.46 397.5  529.5 397.5  Z " stroke-width="1" stroke="#f59a23" fill="none" />
  <path d="M 529.5 411.25  C 526.84 411.25  524.75 409.16  524.75 406.5  C 524.75 403.84  526.84 401.75  529.5 401.75  C 532.16 401.75  534.25 403.84  534.25 406.5  C 534.25 409.16  532.16 411.25  529.5 411.25  " fill-rule="nonzero" fill="#f59a23" stroke="none" />
</svg>