<?xml version="1.0" encoding="utf-8"?>
<svg version="1.1" xmlns:xlink="http://www.w3.org/1999/xlink" width="19px" height="19px" viewBox="337 397  19 19" xmlns="http://www.w3.org/2000/svg">
  <path d="M 346.5 397  C 351.82 397  356 401.18  356 406.5  C 356 411.82  351.82 416  346.5 416  C 341.18 416  337 411.82  337 406.5  C 337 401.18  341.18 397  346.5 397  Z " fill-rule="nonzero" fill="#ffffff" stroke="none" />
  <path d="M 346.5 397.5  C 351.54 397.5  355.5 401.46  355.5 406.5  C 355.5 411.54  351.54 415.5  346.5 415.5  C 341.46 415.5  337.5 411.54  337.5 406.5  C 337.5 401.46  341.46 397.5  346.5 397.5  Z " stroke-width="1" stroke="#f59a23" fill="none" />
  <path d="M 346.5 411.25  C 343.84 411.25  341.75 409.16  341.75 406.5  C 341.75 403.84  343.84 401.75  346.5 401.75  C 349.16 401.75  351.25 403.84  351.25 406.5  C 351.25 409.16  349.16 411.25  346.5 411.25  " fill-rule="nonzero" fill="#f59a23" stroke="none" />
</svg>