<?xml version="1.0" encoding="utf-8"?>
<svg version="1.1" xmlns:xlink="http://www.w3.org/1999/xlink" width="19px" height="19px" viewBox="758 2015  19 19" xmlns="http://www.w3.org/2000/svg">
  <path d="M 767.5 2015  C 772.82 2015  777 2019.18  777 2024.5  C 777 2029.82  772.82 2034  767.5 2034  C 762.18 2034  758 2029.82  758 2024.5  C 758 2019.18  762.18 2015  767.5 2015  Z " fill-rule="nonzero" fill="#ffffff" stroke="none" />
  <path d="M 767.5 2015.5  C 772.54 2015.5  776.5 2019.46  776.5 2024.5  C 776.5 2029.54  772.54 2033.5  767.5 2033.5  C 762.46 2033.5  758.5 2029.54  758.5 2024.5  C 758.5 2019.46  762.46 2015.5  767.5 2015.5  Z " stroke-width="1" stroke="#f59a23" fill="none" />
  <path d="M 767.5 2029.25  C 764.84 2029.25  762.75 2027.16  762.75 2024.5  C 762.75 2021.84  764.84 2019.75  767.5 2019.75  C 770.16 2019.75  772.25 2021.84  772.25 2024.5  C 772.25 2027.16  770.16 2029.25  767.5 2029.25  " fill-rule="nonzero" fill="#f59a23" stroke="none" />
</svg>