<?xml version="1.0" encoding="utf-8"?>
<svg version="1.1" xmlns:xlink="http://www.w3.org/1999/xlink" width="19px" height="19px" viewBox="630 1406  19 19" xmlns="http://www.w3.org/2000/svg">
  <path d="M 639.5 1406  C 644.82 1406  649 1410.18  649 1415.5  C 649 1420.82  644.82 1425  639.5 1425  C 634.18 1425  630 1420.82  630 1415.5  C 630 1410.18  634.18 1406  639.5 1406  Z " fill-rule="nonzero" fill="#f0f0f0" stroke="none" />
  <path d="M 639.5 1406.5  C 644.54 1406.5  648.5 1410.46  648.5 1415.5  C 648.5 1420.54  644.54 1424.5  639.5 1424.5  C 634.46 1424.5  630.5 1420.54  630.5 1415.5  C 630.5 1410.46  634.46 1406.5  639.5 1406.5  Z " stroke-width="1" stroke="#f59a23" fill="none" />
  <path d="M 639.5 1420.25  C 636.84 1420.25  634.75 1418.16  634.75 1415.5  C 634.75 1412.84  636.84 1410.75  639.5 1410.75  C 642.16 1410.75  644.25 1412.84  644.25 1415.5  C 644.25 1418.16  642.16 1420.25  639.5 1420.25  " fill-rule="nonzero" fill="#f59a23" stroke="none" />
</svg>