<?xml version="1.0" encoding="utf-8"?>
<svg version="1.1" xmlns:xlink="http://www.w3.org/1999/xlink" width="19px" height="19px" viewBox="526 819  19 19" xmlns="http://www.w3.org/2000/svg">
  <path d="M 535.5 819  C 540.82 819  545 823.18  545 828.5  C 545 833.82  540.82 838  535.5 838  C 530.18 838  526 833.82  526 828.5  C 526 823.18  530.18 819  535.5 819  Z " fill-rule="nonzero" fill="#ffffff" stroke="none" />
  <path d="M 535.5 819.5  C 540.54 819.5  544.5 823.46  544.5 828.5  C 544.5 833.54  540.54 837.5  535.5 837.5  C 530.46 837.5  526.5 833.54  526.5 828.5  C 526.5 823.46  530.46 819.5  535.5 819.5  Z " stroke-width="1" stroke="#f59a23" fill="none" />
  <path d="M 535.5 833.25  C 532.84 833.25  530.75 831.16  530.75 828.5  C 530.75 825.84  532.84 823.75  535.5 823.75  C 538.16 823.75  540.25 825.84  540.25 828.5  C 540.25 831.16  538.16 833.25  535.5 833.25  " fill-rule="nonzero" fill="#f59a23" stroke="none" />
</svg>