<?xml version="1.0" encoding="utf-8"?>
<svg version="1.1" xmlns:xlink="http://www.w3.org/1999/xlink" width="19px" height="19px" viewBox="691 397  19 19" xmlns="http://www.w3.org/2000/svg">
  <path d="M 700.5 397  C 705.82 397  710 401.18  710 406.5  C 710 411.82  705.82 416  700.5 416  C 695.18 416  691 411.82  691 406.5  C 691 401.18  695.18 397  700.5 397  Z " fill-rule="nonzero" fill="#ffffff" stroke="none" />
  <path d="M 700.5 397.5  C 705.54 397.5  709.5 401.46  709.5 406.5  C 709.5 411.54  705.54 415.5  700.5 415.5  C 695.46 415.5  691.5 411.54  691.5 406.5  C 691.5 401.46  695.46 397.5  700.5 397.5  Z " stroke-width="1" stroke="#f59a23" fill="none" />
  <path d="M 700.5 411.25  C 697.84 411.25  695.75 409.16  695.75 406.5  C 695.75 403.84  697.84 401.75  700.5 401.75  C 703.16 401.75  705.25 403.84  705.25 406.5  C 705.25 409.16  703.16 411.25  700.5 411.25  " fill-rule="nonzero" fill="#f59a23" stroke="none" />
</svg>