<?xml version="1.0" encoding="utf-8"?>
<svg version="1.1" xmlns:xlink="http://www.w3.org/1999/xlink" width="19px" height="19px" viewBox="526 780  19 19" xmlns="http://www.w3.org/2000/svg">
  <path d="M 535.5 780  C 540.82 780  545 784.18  545 789.5  C 545 794.82  540.82 799  535.5 799  C 530.18 799  526 794.82  526 789.5  C 526 784.18  530.18 780  535.5 780  Z " fill-rule="nonzero" fill="#ffffff" stroke="none" />
  <path d="M 535.5 780.5  C 540.54 780.5  544.5 784.46  544.5 789.5  C 544.5 794.54  540.54 798.5  535.5 798.5  C 530.46 798.5  526.5 794.54  526.5 789.5  C 526.5 784.46  530.46 780.5  535.5 780.5  Z " stroke-width="1" stroke="#f59a23" fill="none" />
  <path d="M 535.5 794.25  C 532.84 794.25  530.75 792.16  530.75 789.5  C 530.75 786.84  532.84 784.75  535.5 784.75  C 538.16 784.75  540.25 786.84  540.25 789.5  C 540.25 792.16  538.16 794.25  535.5 794.25  " fill-rule="nonzero" fill="#f59a23" stroke="none" />
</svg>