<?xml version="1.0" encoding="utf-8"?>
<svg version="1.1" xmlns:xlink="http://www.w3.org/1999/xlink" width="19px" height="19px" viewBox="758 1406  19 19" xmlns="http://www.w3.org/2000/svg">
  <path d="M 767.5 1406  C 772.82 1406  777 1410.18  777 1415.5  C 777 1420.82  772.82 1425  767.5 1425  C 762.18 1425  758 1420.82  758 1415.5  C 758 1410.18  762.18 1406  767.5 1406  Z " fill-rule="nonzero" fill="#ffffff" stroke="none" />
  <path d="M 767.5 1406.5  C 772.54 1406.5  776.5 1410.46  776.5 1415.5  C 776.5 1420.54  772.54 1424.5  767.5 1424.5  C 762.46 1424.5  758.5 1420.54  758.5 1415.5  C 758.5 1410.46  762.46 1406.5  767.5 1406.5  Z " stroke-width="1" stroke="#f59a23" fill="none" />
  <path d="M 767.5 1420.25  C 764.84 1420.25  762.75 1418.16  762.75 1415.5  C 762.75 1412.84  764.84 1410.75  767.5 1410.75  C 770.16 1410.75  772.25 1412.84  772.25 1415.5  C 772.25 1418.16  770.16 1420.25  767.5 1420.25  " fill-rule="nonzero" fill="#f59a23" stroke="none" />
</svg>