<?xml version="1.0" encoding="utf-8"?>
<svg version="1.1" xmlns:xlink="http://www.w3.org/1999/xlink" width="19px" height="19px" viewBox="630 2015  19 19" xmlns="http://www.w3.org/2000/svg">
  <path d="M 639.5 2015  C 644.82 2015  649 2019.18  649 2024.5  C 649 2029.82  644.82 2034  639.5 2034  C 634.18 2034  630 2029.82  630 2024.5  C 630 2019.18  634.18 2015  639.5 2015  Z " fill-rule="nonzero" fill="#f0f0f0" stroke="none" />
  <path d="M 639.5 2015.5  C 644.54 2015.5  648.5 2019.46  648.5 2024.5  C 648.5 2029.54  644.54 2033.5  639.5 2033.5  C 634.46 2033.5  630.5 2029.54  630.5 2024.5  C 630.5 2019.46  634.46 2015.5  639.5 2015.5  Z " stroke-width="1" stroke="#f59a23" fill="none" />
  <path d="M 639.5 2029.25  C 636.84 2029.25  634.75 2027.16  634.75 2024.5  C 634.75 2021.84  636.84 2019.75  639.5 2019.75  C 642.16 2019.75  644.25 2021.84  644.25 2024.5  C 644.25 2027.16  642.16 2029.25  639.5 2029.25  " fill-rule="nonzero" fill="#f59a23" stroke="none" />
</svg>