<?xml version="1.0" encoding="utf-8"?>
<svg version="1.1" xmlns:xlink="http://www.w3.org/1999/xlink" width="50px" height="50px" xmlns="http://www.w3.org/2000/svg">
  <g transform="matrix(1 0 0 1 -266 -511 )">
    <path d="M 266 511  L 316 511  L 316 561  L 266 561  L 266 511  " fill-rule="nonzero" fill="#cccccc" stroke="none" />
    <path d="M 270 515  L 312 515  L 312 557  L 270 557  L 270 515  " fill-rule="nonzero" fill="#ffffff" stroke="none" />
    <path d="M 295.75 526  C 293.65 526  292 524.35  292 522.25  C 292 520.15  293.65 518.5  295.75 518.5  C 297.85 518.5  299.5 520.15  299.5 522.25  C 299.5 524.35  297.85 526  295.75 526  " fill-rule="nonzero" fill="#cccccc" stroke="none" />
    <path d="M 272 556  L 272 534.55  L 281.75 524.8  L 295.4 532.6  L 303.2 530.65  L 311 532.6  L 311 556  L 272 556  " fill-rule="nonzero" fill="#169bd5" stroke="none" />
  </g>
</svg>