<?xml version="1.0" encoding="utf-8"?>
<svg version="1.1" xmlns:xlink="http://www.w3.org/1999/xlink" width="19px" height="19px" viewBox="164 138  19 19" xmlns="http://www.w3.org/2000/svg">
  <path d="M 173.5 138  C 178.82 138  183 142.18  183 147.5  C 183 152.82  178.82 157  173.5 157  C 168.18 157  164 152.82  164 147.5  C 164 142.18  168.18 138  173.5 138  Z " fill-rule="nonzero" fill="#ffffff" stroke="none" />
  <path d="M 173.5 138.5  C 178.54 138.5  182.5 142.46  182.5 147.5  C 182.5 152.54  178.54 156.5  173.5 156.5  C 168.46 156.5  164.5 152.54  164.5 147.5  C 164.5 142.46  168.46 138.5  173.5 138.5  Z " stroke-width="1" stroke="#f59a23" fill="none" />
  <path d="M 173.5 152.25  C 170.84 152.25  168.75 150.16  168.75 147.5  C 168.75 144.84  170.84 142.75  173.5 142.75  C 176.16 142.75  178.25 144.84  178.25 147.5  C 178.25 150.16  176.16 152.25  173.5 152.25  " fill-rule="nonzero" fill="#f59a23" stroke="none" />
</svg>