<?xml version="1.0" encoding="utf-8"?>
<svg version="1.1" xmlns:xlink="http://www.w3.org/1999/xlink" width="19px" height="19px" viewBox="286 138  19 19" xmlns="http://www.w3.org/2000/svg">
  <path d="M 295.5 138  C 300.82 138  305 142.18  305 147.5  C 305 152.82  300.82 157  295.5 157  C 290.18 157  286 152.82  286 147.5  C 286 142.18  290.18 138  295.5 138  Z " fill-rule="nonzero" fill="#ffffff" stroke="none" />
  <path d="M 295.5 138.5  C 300.54 138.5  304.5 142.46  304.5 147.5  C 304.5 152.54  300.54 156.5  295.5 156.5  C 290.46 156.5  286.5 152.54  286.5 147.5  C 286.5 142.46  290.46 138.5  295.5 138.5  Z " stroke-width="1" stroke="#f59a23" fill="none" />
  <path d="M 295.5 152.25  C 292.84 152.25  290.75 150.16  290.75 147.5  C 290.75 144.84  292.84 142.75  295.5 142.75  C 298.16 142.75  300.25 144.84  300.25 147.5  C 300.25 150.16  298.16 152.25  295.5 152.25  " fill-rule="nonzero" fill="#f59a23" stroke="none" />
</svg>