<?xml version="1.0" encoding="utf-8"?>
<svg version="1.1" xmlns:xlink="http://www.w3.org/1999/xlink" width="30px" height="30px" xmlns="http://www.w3.org/2000/svg">
  <g transform="matrix(1 0 0 1 -396 -50 )">
    <path d="M 411 50  C 419.4 50  426 56.6  426 65  C 426 73.4  419.4 80  411 80  C 402.6 80  396 73.4  396 65  C 396 56.6  402.6 50  411 50  Z " fill-rule="nonzero" fill="#00c2ff" stroke="none" />
    <path d="M 411 50.5  C 419.12 50.5  425.5 56.879999999999995  425.5 65  C 425.5 73.12  419.12 79.5  411 79.5  C 402.88 79.5  396.5 73.12  396.5 65  C 396.5 56.879999999999995  402.88 50.5  411 50.5  Z " stroke-width="1" stroke="#797979" fill="none" />
  </g>
</svg>