<?xml version="1.0" encoding="utf-8"?>
<svg version="1.1" xmlns:xlink="http://www.w3.org/1999/xlink" width="19px" height="19px" viewBox="312 147  19 19" xmlns="http://www.w3.org/2000/svg">
  <path d="M 321.5 147  C 326.82 147  331 151.18  331 156.5  C 331 161.82  326.82 166  321.5 166  C 316.18 166  312 161.82  312 156.5  C 312 151.18  316.18 147  321.5 147  Z " fill-rule="nonzero" fill="#ffffff" stroke="none" />
  <path d="M 321.5 147.5  C 326.54 147.5  330.5 151.46  330.5 156.5  C 330.5 161.54  326.54 165.5  321.5 165.5  C 316.46 165.5  312.5 161.54  312.5 156.5  C 312.5 151.46  316.46 147.5  321.5 147.5  Z " stroke-width="1" stroke="#f59a23" fill="none" />
  <path d="M 321.5 161.25  C 318.84 161.25  316.75 159.16  316.75 156.5  C 316.75 153.84  318.84 151.75  321.5 151.75  C 324.16 151.75  326.25 153.84  326.25 156.5  C 326.25 159.16  324.16 161.25  321.5 161.25  " fill-rule="nonzero" fill="#f59a23" stroke="none" />
</svg>