<?xml version="1.0" encoding="utf-8"?>
<svg version="1.1" xmlns:xlink="http://www.w3.org/1999/xlink" width="19px" height="19px" viewBox="887 914  19 19" xmlns="http://www.w3.org/2000/svg">
  <path d="M 896.5 914  C 901.82 914  906 918.18  906 923.5  C 906 928.82  901.82 933  896.5 933  C 891.18 933  887 928.82  887 923.5  C 887 918.18  891.18 914  896.5 914  Z " fill-rule="nonzero" fill="#ffffff" stroke="none" />
  <path d="M 896.5 914.5  C 901.54 914.5  905.5 918.46  905.5 923.5  C 905.5 928.54  901.54 932.5  896.5 932.5  C 891.46 932.5  887.5 928.54  887.5 923.5  C 887.5 918.46  891.46 914.5  896.5 914.5  Z " stroke-width="1" stroke="#333333" fill="none" />
  <path d="M 896.5 928.25  C 893.84 928.25  891.75 926.16  891.75 923.5  C 891.75 920.84  893.84 918.75  896.5 918.75  C 899.16 918.75  901.25 920.84  901.25 923.5  C 901.25 926.16  899.16 928.25  896.5 928.25  " fill-rule="nonzero" fill="#333333" stroke="none" />
</svg>