<?xml version="1.0" encoding="utf-8"?>
<svg version="1.1" xmlns:xlink="http://www.w3.org/1999/xlink" width="19px" height="19px" viewBox="887 864  19 19" xmlns="http://www.w3.org/2000/svg">
  <path d="M 896.5 864  C 901.82 864  906 868.18  906 873.5  C 906 878.82  901.82 883  896.5 883  C 891.18 883  887 878.82  887 873.5  C 887 868.18  891.18 864  896.5 864  Z " fill-rule="nonzero" fill="#ffffff" stroke="none" />
  <path d="M 896.5 864.5  C 901.54 864.5  905.5 868.46  905.5 873.5  C 905.5 878.54  901.54 882.5  896.5 882.5  C 891.46 882.5  887.5 878.54  887.5 873.5  C 887.5 868.46  891.46 864.5  896.5 864.5  Z " stroke-width="1" stroke="#333333" fill="none" />
  <path d="M 896.5 878.25  C 893.84 878.25  891.75 876.16  891.75 873.5  C 891.75 870.84  893.84 868.75  896.5 868.75  C 899.16 868.75  901.25 870.84  901.25 873.5  C 901.25 876.16  899.16 878.25  896.5 878.25  " fill-rule="nonzero" fill="#333333" stroke="none" />
</svg>