<?xml version="1.0" encoding="utf-8"?>
<svg version="1.1" xmlns:xlink="http://www.w3.org/1999/xlink" width="24px" height="19px" xmlns="http://www.w3.org/2000/svg">
  <g transform="matrix(1 0 0 1 -1594 -760 )">
    <path d="M 23.872767857142858 12.34858630952381  C 23.95758928571429 12.438120039682538  24 12.544146825396826  24 12.666666666666668  L 24 15.380952380952381  C 24 15.503472222222225  23.95758928571429 15.60949900793651  23.872767857142858 15.699032738095237  C 23.78794642857143 15.788566468253967  23.687500000000004 15.833333333333334  23.57142857142857 15.833333333333334  L 5.142857142857142 15.833333333333334  L 5.142857142857142 18.547619047619047  C 5.142857142857142 18.67013888888889  5.100446428571429 18.776165674603174  5.015625 18.865699404761905  C 4.930803571428571 18.955233134920636  4.830357142857143 19  4.714285714285714 19  C 4.607142857142858 19  4.5 18.952876984126984  4.392857142857142 18.858630952380953  L 0.1205357142857143 14.334821428571429  C 0.040178571428571425 14.25  0 14.146329365079364  0 14.023809523809526  C 0 13.891865079365076  0.040178571428571425 13.783482142857144  0.1205357142857143 13.698660714285714  L 4.40625 9.17485119047619  C 4.486607142857142 9.090029761904763  4.589285714285714 9.047619047619047  4.714285714285714 9.047619047619047  C 4.830357142857143 9.047619047619047  4.930803571428571 9.092385912698413  5.015625 9.181919642857144  C 5.100446428571429 9.271453373015872  5.142857142857142 9.377480158730156  5.142857142857142 9.5  L 5.142857142857142 12  L 23.57142857142857 12  C 23.687500000000004 12.214285714285714  23.78794642857143 12.25905257936508  23.872767857142858 12.34858630952381  Z M 23.879464285714285 4.651041666666666  C 23.95982142857143 4.735863095238094  24 4.844246031746032  24 4.976190476190475  C 24 5.108134920634919  23.95982142857143 5.216517857142857  23.879464285714285 5.301339285714285  L 19.59375 9.82514880952381  C 19.513392857142858 9.909970238095237  19.41071428571429 9.952380952380953  19.285714285714285 9.952380952380953  C 19.16964285714286 9.952380952380953  19.06919642857143 9.907614087301587  18.984375 9.818080357142856  C 18.899553571428573 9.728546626984127  18.857142857142858 9.62251984126984  18.857142857142858 9.5  L 18.857142857142858 7  L 0.42857142857142855 7  C 0.3125 6.785714285714285  0.21205357142857142 6.740947420634922  0.12723214285714285 6.651413690476191  C 0.04241071428571429 6.56187996031746  0 6.455853174603175  0 6.333333333333334  L 0 3.6190476190476186  C 0 3.496527777777776  0.04241071428571429 3.390500992063491  0.12723214285714285 3.3009672619047623  C 0.21205357142857142 3.2114335317460294  0.3125 3.166666666666666  0.42857142857142855 3.166666666666666  L 18.857142857142858 3.166666666666666  L 18.857142857142858 0.4523809523809529  C 18.857142857142858 0.3204365079365068  18.89732142857143 0.21205357142857173  18.97767857142857 0.12723214285714346  C 19.058035714285715 0.04241071428571519  19.160714285714285 0  19.285714285714285 0  C 19.392857142857142 0  19.5 0.047123015873015706  19.607142857142858 0.14136904761904712  L 23.879464285714285 4.651041666666666  Z " fill-rule="nonzero" fill="#7f7f7f" stroke="none" transform="matrix(1 0 0 1 1594 760 )" />
  </g>
</svg>