<?xml version="1.0" encoding="utf-8"?>
<svg version="1.1" xmlns:xlink="http://www.w3.org/1999/xlink" width="19px" height="19px" viewBox="540 323.5  19 19" xmlns="http://www.w3.org/2000/svg">
  <path d="M 549.5 323.5  C 554.82 323.5  559 327.68  559 333  C 559 338.32  554.82 342.5  549.5 342.5  C 544.18 342.5  540 338.32  540 333  C 540 327.68  544.18 323.5  549.5 323.5  Z " fill-rule="nonzero" fill="#ffffff" stroke="none" />
  <path d="M 549.5 324  C 554.54 324  558.5 327.96  558.5 333  C 558.5 338.04  554.54 342  549.5 342  C 544.46 342  540.5 338.04  540.5 333  C 540.5 327.96  544.46 324  549.5 324  Z " stroke-width="1" stroke="#f59a23" fill="none" />
  <path d="M 549.5 337.75  C 546.84 337.75  544.75 335.66  544.75 333  C 544.75 330.34  546.84 328.25  549.5 328.25  C 552.16 328.25  554.25 330.34  554.25 333  C 554.25 335.66  552.16 337.75  549.5 337.75  " fill-rule="nonzero" fill="#f59a23" stroke="none" />
</svg>