<?xml version="1.0" encoding="utf-8"?>
<svg version="1.1" xmlns:xlink="http://www.w3.org/1999/xlink" width="19px" height="19px" viewBox="314 323.5  19 19" xmlns="http://www.w3.org/2000/svg">
  <path d="M 323.5 323.5  C 328.82 323.5  333 327.68  333 333  C 333 338.32  328.82 342.5  323.5 342.5  C 318.18 342.5  314 338.32  314 333  C 314 327.68  318.18 323.5  323.5 323.5  Z " fill-rule="nonzero" fill="#f0f0f0" stroke="none" />
  <path d="M 323.5 324  C 328.54 324  332.5 327.96  332.5 333  C 332.5 338.04  328.54 342  323.5 342  C 318.46 342  314.5 338.04  314.5 333  C 314.5 327.96  318.46 324  323.5 324  Z " stroke-width="1" stroke="#f59a23" fill="none" />
  <path d="M 323.5 337.75  C 320.84 337.75  318.75 335.66  318.75 333  C 318.75 330.34  320.84 328.25  323.5 328.25  C 326.16 328.25  328.25 330.34  328.25 333  C 328.25 335.66  326.16 337.75  323.5 337.75  " fill-rule="nonzero" fill="#f59a23" stroke="none" />
</svg>