<?xml version="1.0" encoding="utf-8"?>
<svg version="1.1" xmlns:xlink="http://www.w3.org/1999/xlink" width="19px" height="19px" viewBox="160 2094  19 19" xmlns="http://www.w3.org/2000/svg">
  <path d="M 169.5 2094  C 174.82 2094  179 2098.18  179 2103.5  C 179 2108.82  174.82 2113  169.5 2113  C 164.18 2113  160 2108.82  160 2103.5  C 160 2098.18  164.18 2094  169.5 2094  Z " fill-rule="nonzero" fill="#f0f0f0" stroke="none" />
  <path d="M 169.5 2094.5  C 174.54 2094.5  178.5 2098.46  178.5 2103.5  C 178.5 2108.54  174.54 2112.5  169.5 2112.5  C 164.46 2112.5  160.5 2108.54  160.5 2103.5  C 160.5 2098.46  164.46 2094.5  169.5 2094.5  Z " stroke-width="1" stroke="#f59a23" fill="none" />
  <path d="M 169.5 2108.25  C 166.84 2108.25  164.75 2106.16  164.75 2103.5  C 164.75 2100.84  166.84 2098.75  169.5 2098.75  C 172.16 2098.75  174.25 2100.84  174.25 2103.5  C 174.25 2106.16  172.16 2108.25  169.5 2108.25  " fill-rule="nonzero" fill="#f59a23" stroke="none" />
</svg>