<?xml version="1.0" encoding="utf-8"?>
<svg version="1.1" xmlns:xlink="http://www.w3.org/1999/xlink" width="19px" height="19px" viewBox="160 2140  19 19" xmlns="http://www.w3.org/2000/svg">
  <path d="M 169.5 2140  C 174.82 2140  179 2144.18  179 2149.5  C 179 2154.82  174.82 2159  169.5 2159  C 164.18 2159  160 2154.82  160 2149.5  C 160 2144.18  164.18 2140  169.5 2140  Z " fill-rule="nonzero" fill="#ffffff" stroke="none" />
  <path d="M 169.5 2140.5  C 174.54 2140.5  178.5 2144.46  178.5 2149.5  C 178.5 2154.54  174.54 2158.5  169.5 2158.5  C 164.46 2158.5  160.5 2154.54  160.5 2149.5  C 160.5 2144.46  164.46 2140.5  169.5 2140.5  Z " stroke-width="1" stroke="#f59a23" fill="none" />
  <path d="M 169.5 2154.25  C 166.84 2154.25  164.75 2152.16  164.75 2149.5  C 164.75 2146.84  166.84 2144.75  169.5 2144.75  C 172.16 2144.75  174.25 2146.84  174.25 2149.5  C 174.25 2152.16  172.16 2154.25  169.5 2154.25  " fill-rule="nonzero" fill="#f59a23" stroke="none" />
</svg>