<?xml version="1.0" encoding="utf-8"?>
<svg version="1.1" xmlns:xlink="http://www.w3.org/1999/xlink" width="19px" height="19px" viewBox="160 2276  19 19" xmlns="http://www.w3.org/2000/svg">
  <path d="M 169.5 2276  C 174.82 2276  179 2280.18  179 2285.5  C 179 2290.82  174.82 2295  169.5 2295  C 164.18 2295  160 2290.82  160 2285.5  C 160 2280.18  164.18 2276  169.5 2276  Z " fill-rule="nonzero" fill="#ffffff" stroke="none" />
  <path d="M 169.5 2276.5  C 174.54 2276.5  178.5 2280.46  178.5 2285.5  C 178.5 2290.54  174.54 2294.5  169.5 2294.5  C 164.46 2294.5  160.5 2290.54  160.5 2285.5  C 160.5 2280.46  164.46 2276.5  169.5 2276.5  Z " stroke-width="1" stroke="#f59a23" fill="none" />
  <path d="M 169.5 2290.25  C 166.84 2290.25  164.75 2288.16  164.75 2285.5  C 164.75 2282.84  166.84 2280.75  169.5 2280.75  C 172.16 2280.75  174.25 2282.84  174.25 2285.5  C 174.25 2288.16  172.16 2290.25  169.5 2290.25  " fill-rule="nonzero" fill="#f59a23" stroke="none" />
</svg>