<?xml version="1.0" encoding="utf-8"?>
<svg version="1.1" xmlns:xlink="http://www.w3.org/1999/xlink" width="19px" height="19px" viewBox="233 459.5  19 19" xmlns="http://www.w3.org/2000/svg">
  <path d="M 242.5 459.5  C 247.82 459.5  252 463.68  252 469  C 252 474.32  247.82 478.5  242.5 478.5  C 237.18 478.5  233 474.32  233 469  C 233 463.68  237.18 459.5  242.5 459.5  Z " fill-rule="nonzero" fill="#ffffff" stroke="none" />
  <path d="M 242.5 460  C 247.54 460  251.5 463.96  251.5 469  C 251.5 474.04  247.54 478  242.5 478  C 237.46 478  233.5 474.04  233.5 469  C 233.5 463.96  237.46 460  242.5 460  Z " stroke-width="1" stroke="#333333" fill="none" />
  <path d="M 242.5 473.75  C 239.84 473.75  237.75 471.66  237.75 469  C 237.75 466.34  239.84 464.25  242.5 464.25  C 245.16 464.25  247.25 466.34  247.25 469  C 247.25 471.66  245.16 473.75  242.5 473.75  " fill-rule="nonzero" fill="#333333" stroke="none" />
</svg>