<?xml version="1.0" encoding="utf-8"?>
<svg version="1.1" xmlns:xlink="http://www.w3.org/1999/xlink" width="19px" height="19px" viewBox="365 459.5  19 19" xmlns="http://www.w3.org/2000/svg">
  <path d="M 374.5 459.5  C 379.82 459.5  384 463.68  384 469  C 384 474.32  379.82 478.5  374.5 478.5  C 369.18 478.5  365 474.32  365 469  C 365 463.68  369.18 459.5  374.5 459.5  Z " fill-rule="nonzero" fill="#ffffff" stroke="none" />
  <path d="M 374.5 460  C 379.54 460  383.5 463.96  383.5 469  C 383.5 474.04  379.54 478  374.5 478  C 369.46 478  365.5 474.04  365.5 469  C 365.5 463.96  369.46 460  374.5 460  Z " stroke-width="1" stroke="#f59a23" fill="none" />
  <path d="M 374.5 473.75  C 371.84 473.75  369.75 471.66  369.75 469  C 369.75 466.34  371.84 464.25  374.5 464.25  C 377.16 464.25  379.25 466.34  379.25 469  C 379.25 471.66  377.16 473.75  374.5 473.75  " fill-rule="nonzero" fill="#f59a23" stroke="none" />
</svg>