<?xml version="1.0" encoding="utf-8"?>
<svg version="1.1" xmlns:xlink="http://www.w3.org/1999/xlink" width="19px" height="19px" viewBox="425 458.5  19 19" xmlns="http://www.w3.org/2000/svg">
  <path d="M 434.5 458.5  C 439.82 458.5  444 462.68  444 468  C 444 473.32  439.82 477.5  434.5 477.5  C 429.18 477.5  425 473.32  425 468  C 425 462.68  429.18 458.5  434.5 458.5  Z " fill-rule="nonzero" fill="#ffffff" stroke="none" />
  <path d="M 434.5 459  C 439.54 459  443.5 462.96  443.5 468  C 443.5 473.04  439.54 477  434.5 477  C 429.46 477  425.5 473.04  425.5 468  C 425.5 462.96  429.46 459  434.5 459  Z " stroke-width="1" stroke="#f59a23" fill="none" />
  <path d="M 434.5 472.75  C 431.84 472.75  429.75 470.66  429.75 468  C 429.75 465.34  431.84 463.25  434.5 463.25  C 437.16 463.25  439.25 465.34  439.25 468  C 439.25 470.66  437.16 472.75  434.5 472.75  " fill-rule="nonzero" fill="#f59a23" stroke="none" />
</svg>