<?xml version="1.0" encoding="utf-8"?>
<svg version="1.1" xmlns:xlink="http://www.w3.org/1999/xlink" width="18px" height="19px" xmlns="http://www.w3.org/2000/svg">
  <g transform="matrix(1 0 0 1 -1259 -48 )">
    <path d="M 0.14997973717124555 14.883893461489766  C 0.049993307803493474 14.98943469248906  0 15.116082796732572  0 15.263840518558897  C 0 15.263840518558897  0 18.472293852866965  0 18.472293852866965  C 0 18.767809296519616  0.2199701401393129 19  0.49993213938919095 19  C 0.49993213938919095 19  3.5395195087336764 19  3.5395195087336764 19  C 3.669501860207142 19  3.7994841222857745 18.947229789467222  3.889471910951622 18.84168855846793  C 3.889471910951622 18.84168855846793  14.807989434722701 7.327140589068244  14.807989434722701 7.327140589068244  L 11.058499342848652 3.3693447372003815  C 11.058499342848652 3.3693447372003815  0.14997973717124555 14.883893461489766  0.14997973717124555 14.883893461489766  Z M 15.877843907881207 6.197849756289821  C 15.877843907881207 6.197849756289821  17.707595461762054 4.2664453383044805  17.707595461762054 4.2664453383044805  C 17.80028643097686 4.168805278288101  17.873824009733706 4.052827138900499  17.923998658680198 3.925150395217867  C 17.974173307626693 3.797473651535234  18 3.6606051821588577  18 3.52237949973857  C 18 3.384153817318282  17.974173307626693 3.2472853479419057  17.923998658680198 3.1196086042592728  C 17.873824009733706 2.9919318605766407  17.80028643097686 2.8759539728189383  17.707595461762054 2.7783139128025587  C 17.707595461762054 2.7783139128025587  15.367914803943226 0.30864898317681955  15.367914803943226 0.30864898317681955  C 15.275413694454024 0.21080851567230477  15.16553990605199 0.13318551587341004  15.044582990984233 0.08022338642989088  C 14.923626075916475 0.027261256986371725  14.793961210191487 0  14.663010563688058 0  C 14.532059917184625 0  14.402393144369873 0.027261256986371725  14.281436229302116 0.08022338642989088  C 14.160479314234358 0.13318551587341004  14.050605525832326 0.21080851567230477  13.958104416343122 0.30864898317681955  C 13.958104416343122 0.30864898317681955  12.128353816007158 2.240053401162159  12.128353816007158 2.240053401162159  L 15.877843907881207 6.197849756289821  Z " fill-rule="nonzero" fill="#767676" stroke="none" transform="matrix(1 0 0 1 1259 48 )" />
  </g>
</svg>