<?xml version="1.0" encoding="utf-8"?>
<svg version="1.1" xmlns:xlink="http://www.w3.org/1999/xlink" width="50px" height="50px" xmlns="http://www.w3.org/2000/svg">
  <g transform="matrix(1 0 0 1 -574 -206 )">
    <path d="M 599 206  C 613 206  624 217  624 231  C 624 245  613 256  599 256  C 585 256  574 245  574 231  C 574 217  585 206  599 206  Z " fill-rule="nonzero" fill="#ffffff" stroke="none" />
    <path d="M 599 206.5  C 612.72 206.5  623.5 217.28  623.5 231  C 623.5 244.72  612.72 255.5  599 255.5  C 585.28 255.5  574.5 244.72  574.5 231  C 574.5 217.28  585.28 206.5  599 206.5  Z " stroke-width="1" stroke="#797979" fill="none" />
  </g>
</svg>