<?xml version="1.0" encoding="utf-8"?>
<svg version="1.1" xmlns:xlink="http://www.w3.org/1999/xlink" width="50px" height="50px" xmlns="http://www.w3.org/2000/svg">
  <g transform="matrix(1 0 0 1 -1149 -206 )">
    <path d="M 1174 206  C 1188 206  1199 217  1199 231  C 1199 245  1188 256  1174 256  C 1160 256  1149 245  1149 231  C 1149 217  1160 206  1174 206  Z " fill-rule="nonzero" fill="#d7d7d7" stroke="none" />
    <path d="M 1174 206.5  C 1187.72 206.5  1198.5 217.28  1198.5 231  C 1198.5 244.72  1187.72 255.5  1174 255.5  C 1160.28 255.5  1149.5 244.72  1149.5 231  C 1149.5 217.28  1160.28 206.5  1174 206.5  Z " stroke-width="1" stroke="#797979" fill="none" />
  </g>
</svg>