<?xml version="1.0" encoding="utf-8"?>
<svg version="1.1" xmlns:xlink="http://www.w3.org/1999/xlink" width="124px" height="124px" xmlns="http://www.w3.org/2000/svg">
  <g transform="matrix(1 0 0 1 -544 -880 )">
    <path d="M 84.0390625 23.9765625  C 77.31163194444444 20.047743055555554  69.96527777777779 18.08333333333334  62 18.08333333333334  C 54.03472222222222 18.08333333333334  46.688368055555564 20.047743055555554  39.9609375 23.9765625  C 33.23350694444444 27.905381944444432  27.905381944444446 33.23350694444443  23.9765625 39.9609375  C 20.047743055555557 46.68836805555556  18.083333333333336 54.034722222222214  18.083333333333336 62  C 18.083333333333336 69.96527777777779  20.047743055555557 77.31163194444443  23.9765625 84.0390625  C 27.905381944444446 90.76649305555554  33.23350694444444 96.09461805555556  39.9609375 100.0234375  C 46.688368055555564 103.95225694444444  54.03472222222222 105.91666666666666  62 105.91666666666666  C 69.96527777777779 105.91666666666666  77.31163194444444 103.95225694444444  84.0390625 100.0234375  C 90.76649305555557 96.09461805555556  96.09461805555557 90.76649305555554  100.0234375 84.0390625  C 103.95225694444444 77.31163194444443  105.91666666666666 69.96527777777779  105.91666666666666 62  C 105.91666666666666 54.034722222222214  103.95225694444444 46.68836805555556  100.0234375 39.9609375  C 96.09461805555557 33.23350694444443  90.76649305555557 27.905381944444432  84.0390625 23.9765625  Z M 115.68489583333334 30.87890625  C 121.2282986111111 40.37803819444443  124 50.75173611111109  124 62  C 124 73.24826388888889  121.2282986111111 83.62196180555554  115.68489583333334 93.12109375  C 110.14149305555557 102.62022569444444  102.62022569444444 110.14149305555556  93.12109375 115.68489583333334  C 83.62196180555557 121.22829861111113  73.24826388888889 124  62 124  C 50.751736111111114 124  40.37803819444444 121.22829861111113  30.87890625 115.68489583333334  C 21.379774305555557 110.14149305555556  13.858506944444446 102.62022569444444  8.315104166666668 93.12109375  C 2.7717013888888884 83.62196180555554  0 73.24826388888889  0 62  C 0 50.75173611111109  2.7717013888888884 40.37803819444443  8.315104166666668 30.87890625  C 13.858506944444446 21.379774305555554  21.379774305555557 13.858506944444432  30.87890625 8.315104166666663  C 40.37803819444444 2.771701388888878  50.751736111111114 0  62 0  C 73.24826388888889 0  83.62196180555557 2.771701388888878  93.12109375 8.315104166666663  C 102.62022569444444 13.858506944444432  110.14149305555557 21.379774305555554  115.68489583333334 30.87890625  Z " fill-rule="nonzero" fill="#f59a23" stroke="none" transform="matrix(1 0 0 1 544 880 )" />
  </g>
</svg>