<?xml version="1.0" encoding="utf-8"?>
<svg version="1.1" xmlns:xlink="http://www.w3.org/1999/xlink" width="50px" height="50px" xmlns="http://www.w3.org/2000/svg">
  <g transform="matrix(1 0 0 1 -574 -206 )">
    <path d="M 38.73697916666667 20.833333333333332  C 38.73697916666667 21.397569444444443  38.53081597222223 21.885850694444443  38.11848958333333 22.298177083333332  L 24.381510416666664 36.03515625  C 23.96918402777778 36.447482638888886  23.48090277777778 36.653645833333336  22.916666666666664 36.653645833333336  C 22.352430555555557 36.653645833333336  21.864149305555557 36.447482638888886  21.451822916666664 36.03515625  L 11.881510416666668 26.46484375  C 11.469184027777779 26.052517361111104  11.263020833333332 25.564236111111104  11.263020833333332 25  C 11.263020833333332 24.43576388888889  11.469184027777779 23.94748263888889  11.881510416666668 23.53515625  L 15.201822916666666 20.21484375  C 15.614149305555557 19.80251736111111  16.102430555555557 19.596354166666668  16.666666666666664 19.596354166666668  C 17.23090277777778 19.596354166666668  17.71918402777778 19.80251736111111  18.131510416666664 20.21484375  L 22.916666666666664 25  L 31.868489583333332 16.048177083333332  C 32.28081597222223 15.635850694444443  32.76909722222223 15.4296875  33.33333333333333 15.4296875  C 33.89756944444445 15.4296875  34.38585069444445 15.635850694444443  34.79817708333333 16.048177083333332  L 38.11848958333333 19.368489583333332  C 38.53081597222223 19.78081597222222  38.73697916666667 20.26909722222222  38.73697916666667 20.833333333333332  Z M 40.33203125 33.88671875  C 41.91623263888889 31.174045138888886  42.70833333333333 28.211805555555557  42.70833333333333 25  C 42.70833333333333 21.788194444444443  41.91623263888889 18.82595486111111  40.33203125 16.11328125  C 38.747829861111114 13.400607638888884  36.599392361111114 11.252170138888884  33.88671875 9.66796875  C 31.17404513888889 8.08376736111111  28.211805555555557 7.291666666666669  25 7.291666666666669  C 21.788194444444446 7.291666666666669  18.825954861111114 8.08376736111111  16.11328125 9.66796875  C 13.40060763888889 11.252170138888884  11.25217013888889 13.400607638888884  9.66796875 16.11328125  C 8.083767361111112 18.82595486111111  7.291666666666667 21.788194444444443  7.291666666666667 25  C 7.291666666666667 28.211805555555557  8.083767361111112 31.174045138888886  9.66796875 33.88671875  C 11.25217013888889 36.59939236111111  13.40060763888889 38.74782986111111  16.11328125 40.33203125  C 18.825954861111114 41.91623263888889  21.788194444444446 42.70833333333333  25 42.70833333333333  C 28.211805555555557 42.70833333333333  31.17404513888889 41.91623263888889  33.88671875 40.33203125  C 36.599392361111114 38.74782986111111  38.747829861111114 36.59939236111111  40.33203125 33.88671875  Z M 46.64713541666667 12.451171875  C 48.882378472222214 16.281467013888886  50 20.464409722222214  50 25  C 50 29.53559027777778  48.882378472222214 33.71853298611111  46.64713541666667 37.548828125  C 44.411892361111114 41.37912326388889  41.37912326388889 44.41189236111111  37.548828125 46.64713541666667  C 33.718532986111114 48.88237847222223  29.53559027777778 50  25 50  C 20.464409722222225 50  16.28146701388889 48.88237847222223  12.451171875 46.64713541666667  C 8.620876736111112 44.41189236111111  5.588107638888889 41.37912326388889  3.3528645833333335 37.548828125  C 1.1176215277777777 33.71853298611111  0 29.53559027777778  0 25  C 0 20.464409722222214  1.1176215277777777 16.281467013888886  3.3528645833333335 12.451171875  C 5.588107638888889 8.62087673611111  8.620876736111112 5.588107638888884  12.451171875 3.3528645833333313  C 16.28146701388889 1.1176215277777735  20.464409722222225 0  25 0  C 29.53559027777778 0  33.718532986111114 1.1176215277777735  37.548828125 3.3528645833333313  C 41.37912326388889 5.588107638888884  44.411892361111114 8.62087673611111  46.64713541666667 12.451171875  Z " fill-rule="nonzero" fill="#63a103" stroke="none" transform="matrix(1 0 0 1 574 206 )" />
  </g>
</svg>