<?xml version="1.0" encoding="utf-8"?>
<svg version="1.1" xmlns:xlink="http://www.w3.org/1999/xlink" width="19px" height="19px" viewBox="1206 224.5  19 19" xmlns="http://www.w3.org/2000/svg">
  <path d="M 1215.5 224.5  C 1220.82 224.5  1225 228.68  1225 234  C 1225 239.32  1220.82 243.5  1215.5 243.5  C 1210.18 243.5  1206 239.32  1206 234  C 1206 228.68  1210.18 224.5  1215.5 224.5  Z " fill-rule="nonzero" fill="#ffffff" stroke="none" />
  <path d="M 1215.5 225  C 1220.54 225  1224.5 228.96  1224.5 234  C 1224.5 239.04  1220.54 243  1215.5 243  C 1210.46 243  1206.5 239.04  1206.5 234  C 1206.5 228.96  1210.46 225  1215.5 225  Z " stroke-width="1" stroke="#f59a23" fill="none" />
  <path d="M 1215.5 238.75  C 1212.84 238.75  1210.75 236.66  1210.75 234  C 1210.75 231.34  1212.84 229.25  1215.5 229.25  C 1218.16 229.25  1220.25 231.34  1220.25 234  C 1220.25 236.66  1218.16 238.75  1215.5 238.75  " fill-rule="nonzero" fill="#f59a23" stroke="none" />
</svg>