<?xml version="1.0" encoding="utf-8"?>
<svg version="1.1" xmlns:xlink="http://www.w3.org/1999/xlink" width="19px" height="19px" viewBox="926 460.5  19 19" xmlns="http://www.w3.org/2000/svg">
  <path d="M 935.5 460.5  C 940.82 460.5  945 464.68  945 470  C 945 475.32  940.82 479.5  935.5 479.5  C 930.18 479.5  926 475.32  926 470  C 926 464.68  930.18 460.5  935.5 460.5  Z " fill-rule="nonzero" fill="#f0f0f0" stroke="none" />
  <path d="M 935.5 461  C 940.54 461  944.5 464.96  944.5 470  C 944.5 475.04  940.54 479  935.5 479  C 930.46 479  926.5 475.04  926.5 470  C 926.5 464.96  930.46 461  935.5 461  Z " stroke-width="1" stroke="#f59a23" fill="none" />
  <path d="M 935.5 474.75  C 932.84 474.75  930.75 472.66  930.75 470  C 930.75 467.34  932.84 465.25  935.5 465.25  C 938.16 465.25  940.25 467.34  940.25 470  C 940.25 472.66  938.16 474.75  935.5 474.75  " fill-rule="nonzero" fill="#f59a23" stroke="none" />
</svg>