<?xml version="1.0" encoding="utf-8"?>
<svg version="1.1" xmlns:xlink="http://www.w3.org/1999/xlink" width="19px" height="19px" viewBox="1038 460.5  19 19" xmlns="http://www.w3.org/2000/svg">
  <path d="M 1047.5 460.5  C 1052.82 460.5  1057 464.68  1057 470  C 1057 475.32  1052.82 479.5  1047.5 479.5  C 1042.18 479.5  1038 475.32  1038 470  C 1038 464.68  1042.18 460.5  1047.5 460.5  Z " fill-rule="nonzero" fill="#f0f0f0" stroke="none" />
  <path d="M 1047.5 461  C 1052.54 461  1056.5 464.96  1056.5 470  C 1056.5 475.04  1052.54 479  1047.5 479  C 1042.46 479  1038.5 475.04  1038.5 470  C 1038.5 464.96  1042.46 461  1047.5 461  Z " stroke-width="1" stroke="#f59a23" fill="none" />
  <path d="M 1047.5 474.75  C 1044.84 474.75  1042.75 472.66  1042.75 470  C 1042.75 467.34  1044.84 465.25  1047.5 465.25  C 1050.16 465.25  1052.25 467.34  1052.25 470  C 1052.25 472.66  1050.16 474.75  1047.5 474.75  " fill-rule="nonzero" fill="#f59a23" stroke="none" />
</svg>