<?xml version="1.0" encoding="utf-8"?>
<svg version="1.1" xmlns:xlink="http://www.w3.org/1999/xlink" width="19px" height="19px" viewBox="1018 394.5  19 19" xmlns="http://www.w3.org/2000/svg">
  <path d="M 1027.5 394.5  C 1032.82 394.5  1037 398.68  1037 404  C 1037 409.32  1032.82 413.5  1027.5 413.5  C 1022.18 413.5  1018 409.32  1018 404  C 1018 398.68  1022.18 394.5  1027.5 394.5  Z " fill-rule="nonzero" fill="#ffffff" stroke="none" />
  <path d="M 1027.5 395  C 1032.54 395  1036.5 398.96  1036.5 404  C 1036.5 409.04  1032.54 413  1027.5 413  C 1022.46 413  1018.5 409.04  1018.5 404  C 1018.5 398.96  1022.46 395  1027.5 395  Z " stroke-width="1" stroke="#f59a23" fill="none" />
  <path d="M 1027.5 408.75  C 1024.84 408.75  1022.75 406.66  1022.75 404  C 1022.75 401.34  1024.84 399.25  1027.5 399.25  C 1030.16 399.25  1032.25 401.34  1032.25 404  C 1032.25 406.66  1030.16 408.75  1027.5 408.75  " fill-rule="nonzero" fill="#f59a23" stroke="none" />
</svg>