<?xml version="1.0" encoding="utf-8"?>
<svg version="1.1" xmlns:xlink="http://www.w3.org/1999/xlink" width="19px" height="19px" viewBox="1130 394.5  19 19" xmlns="http://www.w3.org/2000/svg">
  <path d="M 1139.5 394.5  C 1144.82 394.5  1149 398.68  1149 404  C 1149 409.32  1144.82 413.5  1139.5 413.5  C 1134.18 413.5  1130 409.32  1130 404  C 1130 398.68  1134.18 394.5  1139.5 394.5  Z " fill-rule="nonzero" fill="#f0f0f0" stroke="none" />
  <path d="M 1139.5 395  C 1144.54 395  1148.5 398.96  1148.5 404  C 1148.5 409.04  1144.54 413  1139.5 413  C 1134.46 413  1130.5 409.04  1130.5 404  C 1130.5 398.96  1134.46 395  1139.5 395  Z " stroke-width="1" stroke="#f59a23" fill="none" />
  <path d="M 1139.5 408.75  C 1136.84 408.75  1134.75 406.66  1134.75 404  C 1134.75 401.34  1136.84 399.25  1139.5 399.25  C 1142.16 399.25  1144.25 401.34  1144.25 404  C 1144.25 406.66  1142.16 408.75  1139.5 408.75  " fill-rule="nonzero" fill="#f59a23" stroke="none" />
</svg>