<?xml version="1.0" encoding="utf-8"?>
<svg version="1.1" xmlns:xlink="http://www.w3.org/1999/xlink" width="19px" height="19px" viewBox="815 460.5  19 19" xmlns="http://www.w3.org/2000/svg">
  <path d="M 824.5 460.5  C 829.82 460.5  834 464.68  834 470  C 834 475.32  829.82 479.5  824.5 479.5  C 819.18 479.5  815 475.32  815 470  C 815 464.68  819.18 460.5  824.5 460.5  Z " fill-rule="nonzero" fill="#ffffff" stroke="none" />
  <path d="M 824.5 461  C 829.54 461  833.5 464.96  833.5 470  C 833.5 475.04  829.54 479  824.5 479  C 819.46 479  815.5 475.04  815.5 470  C 815.5 464.96  819.46 461  824.5 461  Z " stroke-width="1" stroke="#f59a23" fill="none" />
  <path d="M 824.5 474.75  C 821.84 474.75  819.75 472.66  819.75 470  C 819.75 467.34  821.84 465.25  824.5 465.25  C 827.16 465.25  829.25 467.34  829.25 470  C 829.25 472.66  827.16 474.75  824.5 474.75  " fill-rule="nonzero" fill="#f59a23" stroke="none" />
</svg>