<?xml version="1.0" encoding="utf-8"?>
<svg version="1.1" xmlns:xlink="http://www.w3.org/1999/xlink" width="20px" height="20px" xmlns="http://www.w3.org/2000/svg">
  <g transform="matrix(1 0 0 1 -1823 -83 )">
    <path d="M 4.999999523162887 13.599999084472746  L 6.3999990081788045 14.999998569488662  L 9.999999046325774 11.399998531341692  L 13.599999084472746 14.999998569488662  L 14.999998569488662 13.599999084472746  L 11.399998531341692 9.999999046325774  L 14.999998569488662 6.3999990081788045  L 13.599999084472746 4.999999523162887  L 9.999999046325774 8.599999561309856  L 6.3999990081788045 4.999999523162887  L 4.999999523162887 6.3999990081788045  L 8.599999561309856 9.999999046325774  L 4.999999523162887 13.599999084472746  Z M 13.899998292923136 19.212997511577843  C 12.683331710497693 19.738330806414528  11.383332239786888 20.0006647592475  9.999999046325774 19.99999809265155  C 8.61666585286466 19.99999809265155  7.316666382153855 19.73733135582625  6.099999799728412 19.211998060989565  C 4.883333217302969 18.68666476615288  3.824999802112598 17.97433240658451  2.9249999117851337 17.07499913454064  C 2.0250000214576698 16.174999244213176  1.3126666486104346 15.11666487534858  0.7880000316619842 13.899998292923136  C 0.26333341471353394 12.683331710497693  0.0006666665959482458 11.383332239786888  0 9.999999046325774  C 0 8.61666585286466  0.2626667368253005 7.316666382153855  0.7880000316619842 6.099999799728412  C 1.3133333264986682 4.883333217302969  2.025666639741264 3.824999802112598  2.9249999117851337 2.9249999117851337  C 3.824999802112598 2.0250000214576698  4.883333217302969 1.3126666486104346  6.099999799728412 0.7880000316619842  C 7.316666382153855 0.26333341471353394  8.61666585286466 0.0006666665959482458  9.999999046325774 0  C 11.383332239786888 0  12.683331710497693 0.2626667368253005  13.899998292923136 0.7880000316619842  C 15.11666487534858 1.3133333264986682  16.174999244213176 2.025666639741264  17.07499913454064 2.9249999117851337  C 17.974999024868104 3.824999802112598  18.687664216741158 4.883333217302969  19.212997511577843 6.099999799728412  C 19.738330806414528 7.316666382153855  20.0006647592475 8.61666585286466  19.99999809265155 9.999999046325774  C 19.99999809265155 11.383332239786888  19.73733135582625 12.683331710497693  19.211998060989565 13.899998292923136  C 18.68666476615288 15.11666487534858  17.97433240658451 16.174999244213176  17.07499913454064 17.07499913454064  C 16.174999244213176 17.974999024868104  15.11666487534858 18.687664216741158  13.899998292923136 19.212997511577843  Z " fill-rule="nonzero" fill="#767676" stroke="none" transform="matrix(1 0 0 1 1823 83 )" />
  </g>
</svg>