<?xml version="1.0" encoding="utf-8"?>
<svg version="1.1" xmlns:xlink="http://www.w3.org/1999/xlink" width="19px" height="19px" viewBox="425 412.5  19 19" xmlns="http://www.w3.org/2000/svg">
  <path d="M 434.5 412.5  C 439.82 412.5  444 416.68  444 422  C 444 427.32  439.82 431.5  434.5 431.5  C 429.18 431.5  425 427.32  425 422  C 425 416.68  429.18 412.5  434.5 412.5  Z " fill-rule="nonzero" fill="#f0f0f0" stroke="none" />
  <path d="M 434.5 413  C 439.54 413  443.5 416.96  443.5 422  C 443.5 427.04  439.54 431  434.5 431  C 429.46 431  425.5 427.04  425.5 422  C 425.5 416.96  429.46 413  434.5 413  Z " stroke-width="1" stroke="#f59a23" fill="none" />
  <path d="M 434.5 426.75  C 431.84 426.75  429.75 424.66  429.75 422  C 429.75 419.34  431.84 417.25  434.5 417.25  C 437.16 417.25  439.25 419.34  439.25 422  C 439.25 424.66  437.16 426.75  434.5 426.75  " fill-rule="nonzero" fill="#f59a23" stroke="none" />
</svg>