<?xml version="1.0" encoding="utf-8"?>
<svg version="1.1" xmlns:xlink="http://www.w3.org/1999/xlink" width="19px" height="19px" viewBox="319 412.5  19 19" xmlns="http://www.w3.org/2000/svg">
  <path d="M 328.5 412.5  C 333.82 412.5  338 416.68  338 422  C 338 427.32  333.82 431.5  328.5 431.5  C 323.18 431.5  319 427.32  319 422  C 319 416.68  323.18 412.5  328.5 412.5  Z " fill-rule="nonzero" fill="#ffffff" stroke="none" />
  <path d="M 328.5 413  C 333.54 413  337.5 416.96  337.5 422  C 337.5 427.04  333.54 431  328.5 431  C 323.46 431  319.5 427.04  319.5 422  C 319.5 416.96  323.46 413  328.5 413  Z " stroke-width="1" stroke="#f59a23" fill="none" />
  <path d="M 328.5 426.75  C 325.84 426.75  323.75 424.66  323.75 422  C 323.75 419.34  325.84 417.25  328.5 417.25  C 331.16 417.25  333.25 419.34  333.25 422  C 333.25 424.66  331.16 426.75  328.5 426.75  " fill-rule="nonzero" fill="#f59a23" stroke="none" />
</svg>