<?xml version="1.0" encoding="utf-8"?>
<svg version="1.1" xmlns:xlink="http://www.w3.org/1999/xlink" width="19px" height="19px" viewBox="372 635  19 19" xmlns="http://www.w3.org/2000/svg">
  <path d="M 381.5 635  C 386.82 635  391 639.18  391 644.5  C 391 649.82  386.82 654  381.5 654  C 376.18 654  372 649.82  372 644.5  C 372 639.18  376.18 635  381.5 635  Z " fill-rule="nonzero" fill="#ffffff" stroke="none" />
  <path d="M 381.5 635.5  C 386.54 635.5  390.5 639.46  390.5 644.5  C 390.5 649.54  386.54 653.5  381.5 653.5  C 376.46 653.5  372.5 649.54  372.5 644.5  C 372.5 639.46  376.46 635.5  381.5 635.5  Z " stroke-width="1" stroke="#f59a23" fill="none" />
  <path d="M 381.5 649.25  C 378.84 649.25  376.75 647.16  376.75 644.5  C 376.75 641.84  378.84 639.75  381.5 639.75  C 384.16 639.75  386.25 641.84  386.25 644.5  C 386.25 647.16  384.16 649.25  381.5 649.25  " fill-rule="nonzero" fill="#f59a23" stroke="none" />
</svg>