<?xml version="1.0" encoding="utf-8"?>
<svg version="1.1" xmlns:xlink="http://www.w3.org/1999/xlink" width="19px" height="19px" viewBox="295 139  19 19" xmlns="http://www.w3.org/2000/svg">
  <path d="M 304.5 139  C 309.82 139  314 143.18  314 148.5  C 314 153.82  309.82 158  304.5 158  C 299.18 158  295 153.82  295 148.5  C 295 143.18  299.18 139  304.5 139  Z " fill-rule="nonzero" fill="#f0f0f0" stroke="none" />
  <path d="M 304.5 139.5  C 309.54 139.5  313.5 143.46  313.5 148.5  C 313.5 153.54  309.54 157.5  304.5 157.5  C 299.46 157.5  295.5 153.54  295.5 148.5  C 295.5 143.46  299.46 139.5  304.5 139.5  Z " stroke-width="1" stroke="#f59a23" fill="none" />
  <path d="M 304.5 153.25  C 301.84 153.25  299.75 151.16  299.75 148.5  C 299.75 145.84  301.84 143.75  304.5 143.75  C 307.16 143.75  309.25 145.84  309.25 148.5  C 309.25 151.16  307.16 153.25  304.5 153.25  " fill-rule="nonzero" fill="#f59a23" stroke="none" />
</svg>