<?xml version="1.0" encoding="utf-8"?>
<svg version="1.1" xmlns:xlink="http://www.w3.org/1999/xlink" width="19px" height="19px" viewBox="437 139  19 19" xmlns="http://www.w3.org/2000/svg">
  <path d="M 446.5 139  C 451.82 139  456 143.18  456 148.5  C 456 153.82  451.82 158  446.5 158  C 441.18 158  437 153.82  437 148.5  C 437 143.18  441.18 139  446.5 139  Z " fill-rule="nonzero" fill="#ffffff" stroke="none" />
  <path d="M 446.5 139.5  C 451.54 139.5  455.5 143.46  455.5 148.5  C 455.5 153.54  451.54 157.5  446.5 157.5  C 441.46 157.5  437.5 153.54  437.5 148.5  C 437.5 143.46  441.46 139.5  446.5 139.5  Z " stroke-width="1" stroke="#f59a23" fill="none" />
  <path d="M 446.5 153.25  C 443.84 153.25  441.75 151.16  441.75 148.5  C 441.75 145.84  443.84 143.75  446.5 143.75  C 449.16 143.75  451.25 145.84  451.25 148.5  C 451.25 151.16  449.16 153.25  446.5 153.25  " fill-rule="nonzero" fill="#f59a23" stroke="none" />
</svg>