<?xml version="1.0" encoding="utf-8"?>
<svg version="1.1" xmlns:xlink="http://www.w3.org/1999/xlink" width="19px" height="19px" viewBox="1371 450  19 19" xmlns="http://www.w3.org/2000/svg">
  <path d="M 1380.5 450  C 1385.82 450  1390 454.18  1390 459.5  C 1390 464.82  1385.82 469  1380.5 469  C 1375.18 469  1371 464.82  1371 459.5  C 1371 454.18  1375.18 450  1380.5 450  Z " fill-rule="nonzero" fill="#ffffff" stroke="none" />
  <path d="M 1380.5 450.5  C 1385.54 450.5  1389.5 454.46  1389.5 459.5  C 1389.5 464.54  1385.54 468.5  1380.5 468.5  C 1375.46 468.5  1371.5 464.54  1371.5 459.5  C 1371.5 454.46  1375.46 450.5  1380.5 450.5  Z " stroke-width="1" stroke="#f59a23" fill="none" />
  <path d="M 1380.5 464.25  C 1377.84 464.25  1375.75 462.16  1375.75 459.5  C 1375.75 456.84  1377.84 454.75  1380.5 454.75  C 1383.16 454.75  1385.25 456.84  1385.25 459.5  C 1385.25 462.16  1383.16 464.25  1380.5 464.25  " fill-rule="nonzero" fill="#f59a23" stroke="none" />
</svg>