<?xml version="1.0" encoding="utf-8"?>
<svg version="1.1" xmlns:xlink="http://www.w3.org/1999/xlink" width="83px" height="86px" xmlns="http://www.w3.org/2000/svg">
  <g transform="matrix(1 0 0 1 -216 -549 )">
    <path d="M 82.448828125 62.17643229166666  C 82.81627604166667 64.99457465277777  83 67.99001736111111  83 71.16276041666667  C 83 75.23133680555556  81.64908854166667 78.72135416666667  78.947265625 81.6328125  C 76.24544270833334 84.54427083333333  72.99244791666668 86  69.18828125 86  L 13.81171875 86  C 10.007552083333334 86  6.754557291666668 84.54427083333333  4.052734375000001 81.6328125  C 1.3509114583333337 78.72135416666667  0 75.23133680555556  0 71.16276041666667  C 0 67.99001736111111  0.18372395833333377 64.99457465277777  0.5511718750000005 62.17643229166666  C 0.9186197916666672 59.35828993055554  1.599479166666667 56.521484375  2.5937500000000004 53.666015625  C 3.5880208333333345 50.810546875  4.852473958333334 48.36566840277778  6.387109375 46.33138020833334  C 7.921744791666668 44.29709201388888  9.953515625 42.63606770833333  12.482421875 41.34830729166667  C 15.011328124999999 40.060546875  17.918489583333336 39.41666666666667  21.203906250000003 39.41666666666667  C 26.866927083333337 44.19444444444444  33.632291666666674 46.58333333333334  41.5 46.58333333333334  C 49.36770833333335 46.58333333333334  56.13307291666667 44.19444444444444  61.79609375 39.41666666666667  C 65.08151041666667 39.41666666666667  67.988671875 40.060546875  70.517578125 41.34830729166667  C 73.046484375 42.63606770833333  75.07825520833335 44.29709201388888  76.612890625 46.33138020833334  C 78.14752604166668 48.36566840277778  79.41197916666667 50.810546875  80.40625 53.666015625  C 81.40052083333335 56.521484375  82.08138020833334 59.35828993055554  82.448828125 62.17643229166666  Z M 59.105078125000006 6.298828125  C 63.968359375000006 10.498046875  66.4 15.56510416666667  66.4 21.5  C 66.4 27.43489583333333  63.968359375000006 32.501953125  59.105078125000006 36.701171875  C 54.241796875000006 40.900390625  48.373437499999994 43  41.5 43  C 34.6265625 43  28.758203125 40.900390625  23.894921875 36.701171875  C 19.031640625 32.501953125  16.6 27.43489583333333  16.6 21.5  C 16.6 15.56510416666667  19.031640625 10.498046875  23.894921875 6.298828125  C 28.758203125 2.099609375  34.6265625 0  41.5 0  C 48.373437499999994 0  54.241796875000006 2.099609375  59.105078125000006 6.298828125  Z " fill-rule="nonzero" fill="#6b6c7e" stroke="none" transform="matrix(1 0 0 1 216 549 )" />
  </g>
</svg>