<?xml version="1.0" encoding="utf-8"?>
<svg version="1.1" xmlns:xlink="http://www.w3.org/1999/xlink" width="18px" height="12px" xmlns="http://www.w3.org/2000/svg">
  <g transform="matrix(1 0 0 1 -870 -1429 )">
    <path d="M 17.666015625 0.3958333333333339  C 17.888671875 0.659722222222221  18 0.9722222222222192  18 1.333333333333334  C 18 1.6944444444444433  17.888671875 2.006944444444443  17.666015625 2.270833333333334  L 9.791015625 11.604166666666666  C 9.568359375 11.868055555555557  9.3046875 12  9 12  C 8.695312500000002 12  8.431640625000002 11.868055555555557  8.208984375 11.604166666666666  L 0.333984375 2.270833333333334  C 0.111328125 2.006944444444443  0 1.6944444444444433  0 1.333333333333334  C 0 0.9722222222222192  0.111328125 0.659722222222221  0.333984375 0.3958333333333339  C 0.556640625 0.13194444444444287  0.8203125000000001 0  1.125 0  L 16.875 0  C 17.1796875 0  17.443359375 0.13194444444444287  17.666015625 0.3958333333333339  Z " fill-rule="nonzero" fill="#797979" stroke="none" transform="matrix(1 0 0 1 870 1429 )" />
  </g>
</svg>