<?xml version="1.0" encoding="utf-8"?>
<svg version="1.1" xmlns:xlink="http://www.w3.org/1999/xlink" width="26px" height="26px" xmlns="http://www.w3.org/2000/svg">
  <g transform="matrix(1 0 0 1 -1696 -807 )">
    <path d="M 18.73828125 15.708333333333336  C 18.73828125 15.85503472222222  18.68185763888889 15.984809027777775  18.569010416666668 16.09765625  L 16.09765625 18.569010416666664  C 15.984809027777777 18.681857638888886  15.855034722222223 18.73828125  15.708333333333332 18.73828125  C 15.561631944444448 18.73828125  15.43185763888889 18.681857638888886  15.319010416666668 18.569010416666664  L 13 16.25  L 10.680989583333334 18.569010416666664  C 10.56814236111111 18.681857638888886  10.438368055555557 18.73828125  10.291666666666666 18.73828125  C 10.144965277777779 18.73828125  10.015190972222223 18.681857638888886  9.90234375 18.569010416666664  L 7.430989583333334 16.09765625  C 7.318142361111112 15.984809027777775  7.261718750000002 15.85503472222222  7.26171875 15.708333333333336  C 7.261718750000002 15.561631944444445  7.318142361111112 15.43185763888889  7.430989583333334 15.319010416666664  L 9.75 13  L 7.430989583333334 10.680989583333332  C 7.318142361111112 10.56814236111111  7.261718750000002 10.438368055555555  7.26171875 10.291666666666668  C 7.261718750000002 10.144965277777777  7.318142361111112 10.01519097222222  7.430989583333334 9.90234375  L 9.90234375 7.430989583333332  C 10.015190972222223 7.31814236111111  10.144965277777779 7.26171875  10.291666666666666 7.26171875  C 10.438368055555557 7.26171875  10.56814236111111 7.31814236111111  10.680989583333334 7.430989583333332  L 13 9.75  L 15.319010416666668 7.430989583333332  C 15.43185763888889 7.31814236111111  15.561631944444448 7.26171875  15.708333333333332 7.26171875  C 15.855034722222223 7.26171875  15.984809027777777 7.31814236111111  16.09765625 7.430989583333332  L 18.569010416666668 9.90234375  C 18.68185763888889 10.01519097222222  18.73828125 10.144965277777777  18.73828125 10.291666666666668  C 18.73828125 10.438368055555555  18.68185763888889 10.56814236111111  18.569010416666668 10.680989583333332  L 16.25 13  L 18.569010416666668 15.319010416666664  C 18.68185763888889 15.43185763888889  18.73828125 15.561631944444445  18.73828125 15.708333333333336  Z M 20.97265625 17.62109375  C 21.79644097222222 16.21050347222222  22.208333333333332 14.67013888888889  22.208333333333332 13  C 22.208333333333332 11.32986111111111  21.79644097222222 9.789496527777777  20.97265625 8.37890625  C 20.14887152777778 6.96831597222222  19.03168402777778 5.85112847222222  17.62109375 5.02734375  C 16.21050347222222 4.203559027777778  14.67013888888889 3.791666666666668  13 3.791666666666668  C 11.32986111111111 3.791666666666668  9.789496527777779 4.203559027777778  8.37890625 5.02734375  C 6.968315972222222 5.85112847222222  5.851128472222222 6.96831597222222  5.02734375 8.37890625  C 4.203559027777779 9.789496527777777  3.791666666666667 11.32986111111111  3.791666666666667 13  C 3.791666666666667 14.67013888888889  4.203559027777779 16.21050347222222  5.02734375 17.62109375  C 5.851128472222222 19.031684027777775  6.968315972222222 20.14887152777778  8.37890625 20.97265625  C 9.789496527777779 21.79644097222222  11.32986111111111 22.208333333333332  13 22.208333333333332  C 14.67013888888889 22.208333333333332  16.21050347222222 21.79644097222222  17.62109375 20.97265625  C 19.03168402777778 20.14887152777778  20.14887152777778 19.031684027777775  20.97265625 17.62109375  Z M 24.256510416666668 6.474609375  C 25.418836805555554 8.46636284722222  26 10.641493055555552  26 13  C 26 15.358506944444445  25.418836805555554 17.533637152777775  24.256510416666668 19.525390625  C 23.09418402777778 21.51714409722222  21.51714409722222 23.09418402777778  19.525390625 24.256510416666668  C 17.53363715277778 25.418836805555557  15.358506944444445 26  13 26  C 10.641493055555557 26  8.466362847222223 25.418836805555557  6.474609375 24.256510416666668  C 4.482855902777779 23.09418402777778  2.9058159722222223 21.51714409722222  1.7434895833333335 19.525390625  C 0.5811631944444444 17.533637152777775  0 15.358506944444445  0 13  C 0 10.641493055555552  0.5811631944444444 8.46636284722222  1.7434895833333335 6.474609375  C 2.9058159722222223 4.482855902777778  4.482855902777779 2.9058159722222197  6.474609375 1.7434895833333324  C 8.466362847222223 0.5811631944444422  10.641493055555557 0  13 0  C 15.358506944444445 0  17.53363715277778 0.5811631944444422  19.525390625 1.7434895833333324  C 21.51714409722222 2.9058159722222197  23.09418402777778 4.482855902777778  24.256510416666668 6.474609375  Z " fill-rule="nonzero" fill="#d7d7d7" stroke="none" transform="matrix(1 0 0 1 1696 807 )" />
  </g>
</svg>