<?xml version="1.0" encoding="utf-8"?>
<svg version="1.1" xmlns:xlink="http://www.w3.org/1999/xlink" width="19px" height="19px" viewBox="296 373.5  19 19" xmlns="http://www.w3.org/2000/svg">
  <path d="M 305.5 373.5  C 310.82 373.5  315 377.68  315 383  C 315 388.32  310.82 392.5  305.5 392.5  C 300.18 392.5  296 388.32  296 383  C 296 377.68  300.18 373.5  305.5 373.5  Z " fill-rule="nonzero" fill="#ffffff" stroke="none" />
  <path d="M 305.5 374  C 310.54 374  314.5 377.96  314.5 383  C 314.5 388.04  310.54 392  305.5 392  C 300.46 392  296.5 388.04  296.5 383  C 296.5 377.96  300.46 374  305.5 374  Z " stroke-width="1" stroke="#f59a23" fill="none" />
  <path d="M 305.5 387.75  C 302.84 387.75  300.75 385.66  300.75 383  C 300.75 380.34  302.84 378.25  305.5 378.25  C 308.16 378.25  310.25 380.34  310.25 383  C 310.25 385.66  308.16 387.75  305.5 387.75  " fill-rule="nonzero" fill="#f59a23" stroke="none" />
</svg>