<?xml version="1.0" encoding="utf-8"?>
<svg version="1.1" xmlns:xlink="http://www.w3.org/1999/xlink" width="19px" height="19px" viewBox="438 373.5  19 19" xmlns="http://www.w3.org/2000/svg">
  <path d="M 447.5 373.5  C 452.82 373.5  457 377.68  457 383  C 457 388.32  452.82 392.5  447.5 392.5  C 442.18 392.5  438 388.32  438 383  C 438 377.68  442.18 373.5  447.5 373.5  Z " fill-rule="nonzero" fill="#ffffff" stroke="none" />
  <path d="M 447.5 374  C 452.54 374  456.5 377.96  456.5 383  C 456.5 388.04  452.54 392  447.5 392  C 442.46 392  438.5 388.04  438.5 383  C 438.5 377.96  442.46 374  447.5 374  Z " stroke-width="1" stroke="#f59a23" fill="none" />
  <path d="M 447.5 387.75  C 444.84 387.75  442.75 385.66  442.75 383  C 442.75 380.34  444.84 378.25  447.5 378.25  C 450.16 378.25  452.25 380.34  452.25 383  C 452.25 385.66  450.16 387.75  447.5 387.75  " fill-rule="nonzero" fill="#f59a23" stroke="none" />
</svg>