<?xml version="1.0" encoding="utf-8"?>
<svg version="1.1" xmlns:xlink="http://www.w3.org/1999/xlink" width="19px" height="19px" viewBox="252 147  19 19" xmlns="http://www.w3.org/2000/svg">
  <path d="M 261.5 147  C 266.82 147  271 151.18  271 156.5  C 271 161.82  266.82 166  261.5 166  C 256.18 166  252 161.82  252 156.5  C 252 151.18  256.18 147  261.5 147  Z " fill-rule="nonzero" fill="#ffffff" stroke="none" />
  <path d="M 261.5 147.5  C 266.54 147.5  270.5 151.46  270.5 156.5  C 270.5 161.54  266.54 165.5  261.5 165.5  C 256.46 165.5  252.5 161.54  252.5 156.5  C 252.5 151.46  256.46 147.5  261.5 147.5  Z " stroke-width="1" stroke="#f59a23" fill="none" />
  <path d="M 261.5 161.25  C 258.84 161.25  256.75 159.16  256.75 156.5  C 256.75 153.84  258.84 151.75  261.5 151.75  C 264.16 151.75  266.25 153.84  266.25 156.5  C 266.25 159.16  264.16 161.25  261.5 161.25  " fill-rule="nonzero" fill="#f59a23" stroke="none" />
</svg>