<?xml version="1.0" encoding="utf-8"?>
<svg version="1.1" xmlns:xlink="http://www.w3.org/1999/xlink" width="19px" height="19px" viewBox="394 146  19 19" xmlns="http://www.w3.org/2000/svg">
  <path d="M 403.5 146  C 408.82 146  413 150.18  413 155.5  C 413 160.82  408.82 165  403.5 165  C 398.18 165  394 160.82  394 155.5  C 394 150.18  398.18 146  403.5 146  Z " fill-rule="nonzero" fill="#f0f0f0" stroke="none" />
  <path d="M 403.5 146.5  C 408.54 146.5  412.5 150.46  412.5 155.5  C 412.5 160.54  408.54 164.5  403.5 164.5  C 398.46 164.5  394.5 160.54  394.5 155.5  C 394.5 150.46  398.46 146.5  403.5 146.5  Z " stroke-width="1" stroke="#f59a23" fill="none" />
  <path d="M 403.5 160.25  C 400.84 160.25  398.75 158.16  398.75 155.5  C 398.75 152.84  400.84 150.75  403.5 150.75  C 406.16 150.75  408.25 152.84  408.25 155.5  C 408.25 158.16  406.16 160.25  403.5 160.25  " fill-rule="nonzero" fill="#f59a23" stroke="none" />
</svg>