<?xml version="1.0" encoding="utf-8"?>
<svg version="1.1" xmlns:xlink="http://www.w3.org/1999/xlink" width="19px" height="19px" viewBox="260 148  19 19" xmlns="http://www.w3.org/2000/svg">
  <path d="M 269.5 148  C 274.82 148  279 152.18  279 157.5  C 279 162.82  274.82 167  269.5 167  C 264.18 167  260 162.82  260 157.5  C 260 152.18  264.18 148  269.5 148  Z " fill-rule="nonzero" fill="#ffffff" stroke="none" />
  <path d="M 269.5 148.5  C 274.54 148.5  278.5 152.46  278.5 157.5  C 278.5 162.54  274.54 166.5  269.5 166.5  C 264.46 166.5  260.5 162.54  260.5 157.5  C 260.5 152.46  264.46 148.5  269.5 148.5  Z " stroke-width="1" stroke="#f59a23" fill="none" />
  <path d="M 269.5 162.25  C 266.84 162.25  264.75 160.16  264.75 157.5  C 264.75 154.84  266.84 152.75  269.5 152.75  C 272.16 152.75  274.25 154.84  274.25 157.5  C 274.25 160.16  272.16 162.25  269.5 162.25  " fill-rule="nonzero" fill="#f59a23" stroke="none" />
</svg>