<?xml version="1.0" encoding="utf-8"?>
<svg version="1.1" xmlns:xlink="http://www.w3.org/1999/xlink" width="19px" height="19px" viewBox="287 257  19 19" xmlns="http://www.w3.org/2000/svg">
  <path d="M 296.5 257  C 301.82 257  306 261.18  306 266.5  C 306 271.82  301.82 276  296.5 276  C 291.18 276  287 271.82  287 266.5  C 287 261.18  291.18 257  296.5 257  Z " fill-rule="nonzero" fill="#ffffff" stroke="none" />
  <path d="M 296.5 257.5  C 301.54 257.5  305.5 261.46  305.5 266.5  C 305.5 271.54  301.54 275.5  296.5 275.5  C 291.46 275.5  287.5 271.54  287.5 266.5  C 287.5 261.46  291.46 257.5  296.5 257.5  Z " stroke-width="1" stroke="#f59a23" fill="none" />
  <path d="M 296.5 271.25  C 293.84 271.25  291.75 269.16  291.75 266.5  C 291.75 263.84  293.84 261.75  296.5 261.75  C 299.16 261.75  301.25 263.84  301.25 266.5  C 301.25 269.16  299.16 271.25  296.5 271.25  " fill-rule="nonzero" fill="#f59a23" stroke="none" />
</svg>