<?xml version="1.0" encoding="utf-8"?>
<svg version="1.1" xmlns:xlink="http://www.w3.org/1999/xlink" width="29px" height="29px" xmlns="http://www.w3.org/2000/svg">
  <defs>
    <mask fill="white" id="clip55">
      <path d="M 14.5 0  C 22.508129119873047 0  29 6.491870880126953  29 14.5  C 29 22.508129119873047  22.508129119873047 29  14.5 29  C 6.491870880126953 29  0 22.508129119873047  0 14.5  C 0 6.491870880126953  6.491870880126953 0  14.5 0  Z " fill-rule="evenodd" />
    </mask>
  </defs>
  <g transform="matrix(1 0 0 1 -48 -5 )">
    <path d="M 14.5 0  C 22.508129119873047 0  29 6.491870880126953  29 14.5  C 29 22.508129119873047  22.508129119873047 29  14.5 29  C 6.491870880126953 29  0 22.508129119873047  0 14.5  C 0 6.491870880126953  6.491870880126953 0  14.5 0  Z " fill-rule="nonzero" fill="#f4a820" stroke="none" transform="matrix(1 0 0 1 48 5 )" />
    <path d="M 14.5 0  C 22.508129119873047 0  29 6.491870880126953  29 14.5  C 29 22.508129119873047  22.508129119873047 29  14.5 29  C 6.491870880126953 29  0 22.508129119873047  0 14.5  C 0 6.491870880126953  6.491870880126953 0  14.5 0  Z " stroke-width="10" stroke="#f4a820" fill="none" transform="matrix(1 0 0 1 48 5 )" mask="url(#clip55)" />
  </g>
</svg>