<?xml version="1.0" encoding="utf-8"?>
<svg version="1.1" xmlns:xlink="http://www.w3.org/1999/xlink" width="19px" height="19px" xmlns="http://www.w3.org/2000/svg">
  <defs>
    <mask fill="white" id="clip56">
      <path d="M 9.5 0  C 14.746705055236816 0  19 4.253294944763184  19 9.5  C 19 14.746705055236816  14.746705055236816 19  9.5 19  C 4.253294944763184 19  0 14.746705055236816  0 9.5  C 0 4.253294944763184  4.253294944763184 0  9.5 0  Z " fill-rule="evenodd" />
    </mask>
  </defs>
  <g transform="matrix(1 0 0 1 -53 -81 )">
    <path d="M 9.5 0  C 14.746705055236816 0  19 4.253294944763184  19 9.5  C 19 14.746705055236816  14.746705055236816 19  9.5 19  C 4.253294944763184 19  0 14.746705055236816  0 9.5  C 0 4.253294944763184  4.253294944763184 0  9.5 0  Z " fill-rule="nonzero" fill="#f4a820" stroke="none" transform="matrix(1 0 0 1 53 81 )" />
    <path d="M 9.5 0  C 14.746705055236816 0  19 4.253294944763184  19 9.5  C 19 14.746705055236816  14.746705055236816 19  9.5 19  C 4.253294944763184 19  0 14.746705055236816  0 9.5  C 0 4.253294944763184  4.253294944763184 0  9.5 0  Z " stroke-width="4" stroke="#6c757d" fill="none" stroke-opacity="0.6" transform="matrix(1 0 0 1 53 81 )" mask="url(#clip56)" />
  </g>
</svg>