<?xml version="1.0" encoding="utf-8"?>
<svg version="1.1" xmlns:xlink="http://www.w3.org/1999/xlink" width="9px" height="10px" xmlns="http://www.w3.org/2000/svg">
  <g transform="matrix(1 0 0 1 -882 -480 )">
    <path d="M 2.3268425464630127 0.2541353926062584  C 1.807471513748169 -0.08619006723165512  0.9327414631843568 -0.08618984371423721  0.399702787399292 0.2630915492773056  C 0.27299873530864716 0.3459461685270071  0.17247646301984787 0.4443617258220911  0.10389015078544617 0.5527046322822571  C 0.035303838551044464 0.6610475387424231  0 0.7771903090178967  0 0.894484743475914  C 0 1.0117791779339314  0.035303838551044464 1.127921948209405  0.10389015078544617 1.236264854669571  C 0.17247646301984787 1.344607761129737  0.27299873530864716 1.4430233929306269  0.399702787399292 1.5258780121803284  C 0.399702787399292 1.5258780121803284  5.70275354385376 5.00078022480011  5.70275354385376 5.00078022480011  C 5.70275354385376 5.00078022480011  0.399702787399292 8.475682139396667  0.399702787399292 8.475682139396667  C 0.14414814114570618 8.64313805475831  0.0005787316476926208 8.87025572359562  0.0005787316476926208 9.10707414150238  C 0.0005787316476926208 9.343892559409142  0.14414814114570618 9.57101320847869  0.399702787399292 9.738469123840332  C 0.6552574336528777 9.905925039201975  1.0018638372421265 9.999999999999996  1.3632726669311523 10  C 1.724681496620178 10  2.071287900209427 9.905925039201975  2.3268425464630127 9.738469123840332  C 2.3268425464630127 9.738469123840332  5.463570594787598 7.683082222938538  5.463570594787598 7.683082222938538  C 5.463570594787598 7.683082222938538  8.600298881530762 5.627695322036743  8.600298881530762 5.627695322036743  C 8.727002933621405 5.544840702787042  8.827524222433565 5.446425219997764  8.896110534667969 5.338082313537598  C 8.964696846902372 5.229739407077432  9 5.113596264272928  9 4.996301829814911  C 9 4.8790073953568935  8.964696846902372 4.762864848598838  8.896110534667969 4.654521942138672  C 8.827524222433565 4.546179035678506  8.727002933621405 4.447763552889228  8.600298881530762 4.364908933639526  C 8.600298881530762 4.364908933639526  2.3268425464630127 0.2541353926062584  2.3268425464630127 0.2541353926062584  Z " fill-rule="nonzero" fill="#727272" stroke="none" transform="matrix(1 0 0 1 882 480 )" />
  </g>
</svg>