<?xml version="1.0" encoding="utf-8"?>
<svg version="1.1" xmlns:xlink="http://www.w3.org/1999/xlink" width="19px" height="19px" viewBox="235 267  19 19" xmlns="http://www.w3.org/2000/svg">
  <path d="M 244.5 267  C 249.82 267  254 271.18  254 276.5  C 254 281.82  249.82 286  244.5 286  C 239.18 286  235 281.82  235 276.5  C 235 271.18  239.18 267  244.5 267  Z " fill-rule="nonzero" fill="#ffffff" stroke="none" />
  <path d="M 244.5 267.5  C 249.54 267.5  253.5 271.46  253.5 276.5  C 253.5 281.54  249.54 285.5  244.5 285.5  C 239.46 285.5  235.5 281.54  235.5 276.5  C 235.5 271.46  239.46 267.5  244.5 267.5  Z " stroke-width="1" stroke="#f59a23" fill="none" />
  <path d="M 244.5 281.25  C 241.84 281.25  239.75 279.16  239.75 276.5  C 239.75 273.84  241.84 271.75  244.5 271.75  C 247.16 271.75  249.25 273.84  249.25 276.5  C 249.25 279.16  247.16 281.25  244.5 281.25  " fill-rule="nonzero" fill="#f59a23" stroke="none" />
</svg>