<?xml version="1.0" encoding="utf-8"?>
<svg version="1.1" xmlns:xlink="http://www.w3.org/1999/xlink" width="19px" height="19px" viewBox="728 267  19 19" xmlns="http://www.w3.org/2000/svg">
  <path d="M 737.5 267  C 742.82 267  747 271.18  747 276.5  C 747 281.82  742.82 286  737.5 286  C 732.18 286  728 281.82  728 276.5  C 728 271.18  732.18 267  737.5 267  Z " fill-rule="nonzero" fill="#ffffff" stroke="none" />
  <path d="M 737.5 267.5  C 742.54 267.5  746.5 271.46  746.5 276.5  C 746.5 281.54  742.54 285.5  737.5 285.5  C 732.46 285.5  728.5 281.54  728.5 276.5  C 728.5 271.46  732.46 267.5  737.5 267.5  Z " stroke-width="1" stroke="#f59a23" fill="none" />
  <path d="M 737.5 281.25  C 734.84 281.25  732.75 279.16  732.75 276.5  C 732.75 273.84  734.84 271.75  737.5 271.75  C 740.16 271.75  742.25 273.84  742.25 276.5  C 742.25 279.16  740.16 281.25  737.5 281.25  " fill-rule="nonzero" fill="#f59a23" stroke="none" />
</svg>