<?xml version="1.0" encoding="utf-8"?>
<svg version="1.1" xmlns:xlink="http://www.w3.org/1999/xlink" width="19px" height="19px" viewBox="609 267  19 19" xmlns="http://www.w3.org/2000/svg">
  <path d="M 618.5 267  C 623.82 267  628 271.18  628 276.5  C 628 281.82  623.82 286  618.5 286  C 613.18 286  609 281.82  609 276.5  C 609 271.18  613.18 267  618.5 267  Z " fill-rule="nonzero" fill="#ffffff" stroke="none" />
  <path d="M 618.5 267.5  C 623.54 267.5  627.5 271.46  627.5 276.5  C 627.5 281.54  623.54 285.5  618.5 285.5  C 613.46 285.5  609.5 281.54  609.5 276.5  C 609.5 271.46  613.46 267.5  618.5 267.5  Z " stroke-width="1" stroke="#f59a23" fill="none" />
  <path d="M 618.5 281.25  C 615.84 281.25  613.75 279.16  613.75 276.5  C 613.75 273.84  615.84 271.75  618.5 271.75  C 621.16 271.75  623.25 273.84  623.25 276.5  C 623.25 279.16  621.16 281.25  618.5 281.25  " fill-rule="nonzero" fill="#f59a23" stroke="none" />
</svg>