<?xml version="1.0" encoding="utf-8"?>
<svg version="1.1" xmlns:xlink="http://www.w3.org/1999/xlink" width="19px" height="19px" viewBox="374 267  19 19" xmlns="http://www.w3.org/2000/svg">
  <path d="M 383.5 267  C 388.82 267  393 271.18  393 276.5  C 393 281.82  388.82 286  383.5 286  C 378.18 286  374 281.82  374 276.5  C 374 271.18  378.18 267  383.5 267  Z " fill-rule="nonzero" fill="#f0f0f0" stroke="none" />
  <path d="M 383.5 267.5  C 388.54 267.5  392.5 271.46  392.5 276.5  C 392.5 281.54  388.54 285.5  383.5 285.5  C 378.46 285.5  374.5 281.54  374.5 276.5  C 374.5 271.46  378.46 267.5  383.5 267.5  Z " stroke-width="1" stroke="#f59a23" fill="none" />
  <path d="M 383.5 281.25  C 380.84 281.25  378.75 279.16  378.75 276.5  C 378.75 273.84  380.84 271.75  383.5 271.75  C 386.16 271.75  388.25 273.84  388.25 276.5  C 388.25 279.16  386.16 281.25  383.5 281.25  " fill-rule="nonzero" fill="#f59a23" stroke="none" />
</svg>