<?xml version="1.0" encoding="utf-8"?>
<svg version="1.1" xmlns:xlink="http://www.w3.org/1999/xlink" width="19px" height="19px" viewBox="383 199  19 19" xmlns="http://www.w3.org/2000/svg">
  <path d="M 392.5 199  C 397.82 199  402 203.18  402 208.5  C 402 213.82  397.82 218  392.5 218  C 387.18 218  383 213.82  383 208.5  C 383 203.18  387.18 199  392.5 199  Z " fill-rule="nonzero" fill="#ffffff" stroke="none" />
  <path d="M 392.5 199.5  C 397.54 199.5  401.5 203.46  401.5 208.5  C 401.5 213.54  397.54 217.5  392.5 217.5  C 387.46 217.5  383.5 213.54  383.5 208.5  C 383.5 203.46  387.46 199.5  392.5 199.5  Z " stroke-width="1" stroke="#f59a23" fill="none" />
  <path d="M 392.5 213.25  C 389.84 213.25  387.75 211.16  387.75 208.5  C 387.75 205.84  389.84 203.75  392.5 203.75  C 395.16 203.75  397.25 205.84  397.25 208.5  C 397.25 211.16  395.16 213.25  392.5 213.25  " fill-rule="nonzero" fill="#f59a23" stroke="none" />
</svg>