<?xml version="1.0" encoding="utf-8"?>
<svg version="1.1" xmlns:xlink="http://www.w3.org/1999/xlink" width="19px" height="19px" viewBox="241 200  19 19" xmlns="http://www.w3.org/2000/svg">
  <path d="M 250.5 200  C 255.82 200  260 204.18  260 209.5  C 260 214.82  255.82 219  250.5 219  C 245.18 219  241 214.82  241 209.5  C 241 204.18  245.18 200  250.5 200  Z " fill-rule="nonzero" fill="#f0f0f0" stroke="none" />
  <path d="M 250.5 200.5  C 255.54 200.5  259.5 204.46  259.5 209.5  C 259.5 214.54  255.54 218.5  250.5 218.5  C 245.46 218.5  241.5 214.54  241.5 209.5  C 241.5 204.46  245.46 200.5  250.5 200.5  Z " stroke-width="1" stroke="#f59a23" fill="none" />
  <path d="M 250.5 214.25  C 247.84 214.25  245.75 212.16  245.75 209.5  C 245.75 206.84  247.84 204.75  250.5 204.75  C 253.16 204.75  255.25 206.84  255.25 209.5  C 255.25 212.16  253.16 214.25  250.5 214.25  " fill-rule="nonzero" fill="#f59a23" stroke="none" />
</svg>