<?xml version="1.0" encoding="utf-8"?>
<svg version="1.1" xmlns:xlink="http://www.w3.org/1999/xlink" width="19px" height="19px" viewBox="392 211  19 19" xmlns="http://www.w3.org/2000/svg">
  <path d="M 401.5 211  C 406.82 211  411 215.18  411 220.5  C 411 225.82  406.82 230  401.5 230  C 396.18 230  392 225.82  392 220.5  C 392 215.18  396.18 211  401.5 211  Z " fill-rule="nonzero" fill="#f0f0f0" stroke="none" />
  <path d="M 401.5 211.5  C 406.54 211.5  410.5 215.46  410.5 220.5  C 410.5 225.54  406.54 229.5  401.5 229.5  C 396.46 229.5  392.5 225.54  392.5 220.5  C 392.5 215.46  396.46 211.5  401.5 211.5  Z " stroke-width="1" stroke="#f59a23" fill="none" />
  <path d="M 401.5 225.25  C 398.84 225.25  396.75 223.16  396.75 220.5  C 396.75 217.84  398.84 215.75  401.5 215.75  C 404.16 215.75  406.25 217.84  406.25 220.5  C 406.25 223.16  404.16 225.25  401.5 225.25  " fill-rule="nonzero" fill="#f59a23" stroke="none" />
</svg>