<?xml version="1.0" encoding="utf-8"?>
<svg version="1.1" xmlns:xlink="http://www.w3.org/1999/xlink" width="19px" height="19px" viewBox="250 212  19 19" xmlns="http://www.w3.org/2000/svg">
  <path d="M 259.5 212  C 264.82 212  269 216.18  269 221.5  C 269 226.82  264.82 231  259.5 231  C 254.18 231  250 226.82  250 221.5  C 250 216.18  254.18 212  259.5 212  Z " fill-rule="nonzero" fill="#ffffff" stroke="none" />
  <path d="M 259.5 212.5  C 264.54 212.5  268.5 216.46  268.5 221.5  C 268.5 226.54  264.54 230.5  259.5 230.5  C 254.46 230.5  250.5 226.54  250.5 221.5  C 250.5 216.46  254.46 212.5  259.5 212.5  Z " stroke-width="1" stroke="#f59a23" fill="none" />
  <path d="M 259.5 226.25  C 256.84 226.25  254.75 224.16  254.75 221.5  C 254.75 218.84  256.84 216.75  259.5 216.75  C 262.16 216.75  264.25 218.84  264.25 221.5  C 264.25 224.16  262.16 226.25  259.5 226.25  " fill-rule="nonzero" fill="#f59a23" stroke="none" />
</svg>