<?xml version="1.0" encoding="utf-8"?>
<svg version="1.1" xmlns:xlink="http://www.w3.org/1999/xlink" width="19px" height="19px" viewBox="1198 2566  19 19" xmlns="http://www.w3.org/2000/svg">
  <path d="M 1207.5 2566  C 1212.82 2566  1217 2570.18  1217 2575.5  C 1217 2580.82  1212.82 2585  1207.5 2585  C 1202.18 2585  1198 2580.82  1198 2575.5  C 1198 2570.18  1202.18 2566  1207.5 2566  Z " fill-rule="nonzero" fill="#ffffff" stroke="none" />
  <path d="M 1207.5 2566.5  C 1212.54 2566.5  1216.5 2570.46  1216.5 2575.5  C 1216.5 2580.54  1212.54 2584.5  1207.5 2584.5  C 1202.46 2584.5  1198.5 2580.54  1198.5 2575.5  C 1198.5 2570.46  1202.46 2566.5  1207.5 2566.5  Z " stroke-width="1" stroke="#f59a23" fill="none" />
  <path d="M 1207.5 2580.25  C 1204.84 2580.25  1202.75 2578.16  1202.75 2575.5  C 1202.75 2572.84  1204.84 2570.75  1207.5 2570.75  C 1210.16 2570.75  1212.25 2572.84  1212.25 2575.5  C 1212.25 2578.16  1210.16 2580.25  1207.5 2580.25  " fill-rule="nonzero" fill="#f59a23" stroke="none" />
</svg>