<?xml version="1.0" encoding="utf-8"?>
<svg version="1.1" xmlns:xlink="http://www.w3.org/1999/xlink" width="19px" height="19px" viewBox="1112 2566  19 19" xmlns="http://www.w3.org/2000/svg">
  <path d="M 1121.5 2566  C 1126.82 2566  1131 2570.18  1131 2575.5  C 1131 2580.82  1126.82 2585  1121.5 2585  C 1116.18 2585  1112 2580.82  1112 2575.5  C 1112 2570.18  1116.18 2566  1121.5 2566  Z " fill-rule="nonzero" fill="#f0f0f0" stroke="none" />
  <path d="M 1121.5 2566.5  C 1126.54 2566.5  1130.5 2570.46  1130.5 2575.5  C 1130.5 2580.54  1126.54 2584.5  1121.5 2584.5  C 1116.46 2584.5  1112.5 2580.54  1112.5 2575.5  C 1112.5 2570.46  1116.46 2566.5  1121.5 2566.5  Z " stroke-width="1" stroke="#f59a23" fill="none" />
  <path d="M 1121.5 2580.25  C 1118.84 2580.25  1116.75 2578.16  1116.75 2575.5  C 1116.75 2572.84  1118.84 2570.75  1121.5 2570.75  C 1124.16 2570.75  1126.25 2572.84  1126.25 2575.5  C 1126.25 2578.16  1124.16 2580.25  1121.5 2580.25  " fill-rule="nonzero" fill="#f59a23" stroke="none" />
</svg>