<?xml version="1.0" encoding="utf-8"?>
<svg version="1.1" xmlns:xlink="http://www.w3.org/1999/xlink" width="19px" height="19px" viewBox="300 2502  19 19" xmlns="http://www.w3.org/2000/svg">
  <path d="M 309.5 2502  C 314.82 2502  319 2506.18  319 2511.5  C 319 2516.82  314.82 2521  309.5 2521  C 304.18 2521  300 2516.82  300 2511.5  C 300 2506.18  304.18 2502  309.5 2502  Z " fill-rule="nonzero" fill="#ffffff" stroke="none" />
  <path d="M 309.5 2502.5  C 314.54 2502.5  318.5 2506.46  318.5 2511.5  C 318.5 2516.54  314.54 2520.5  309.5 2520.5  C 304.46 2520.5  300.5 2516.54  300.5 2511.5  C 300.5 2506.46  304.46 2502.5  309.5 2502.5  Z " stroke-width="1" stroke="#f59a23" fill="none" />
  <path d="M 309.5 2516.25  C 306.84 2516.25  304.75 2514.16  304.75 2511.5  C 304.75 2508.84  306.84 2506.75  309.5 2506.75  C 312.16 2506.75  314.25 2508.84  314.25 2511.5  C 314.25 2514.16  312.16 2516.25  309.5 2516.25  " fill-rule="nonzero" fill="#f59a23" stroke="none" />
</svg>