<?xml version="1.0" encoding="utf-8"?>
<svg version="1.1" xmlns:xlink="http://www.w3.org/1999/xlink" width="19px" height="19px" viewBox="437 2502  19 19" xmlns="http://www.w3.org/2000/svg">
  <path d="M 446.5 2502  C 451.82 2502  456 2506.18  456 2511.5  C 456 2516.82  451.82 2521  446.5 2521  C 441.18 2521  437 2516.82  437 2511.5  C 437 2506.18  441.18 2502  446.5 2502  Z " fill-rule="nonzero" fill="#f0f0f0" stroke="none" />
  <path d="M 446.5 2502.5  C 451.54 2502.5  455.5 2506.46  455.5 2511.5  C 455.5 2516.54  451.54 2520.5  446.5 2520.5  C 441.46 2520.5  437.5 2516.54  437.5 2511.5  C 437.5 2506.46  441.46 2502.5  446.5 2502.5  Z " stroke-width="1" stroke="#f59a23" fill="none" />
  <path d="M 446.5 2516.25  C 443.84 2516.25  441.75 2514.16  441.75 2511.5  C 441.75 2508.84  443.84 2506.75  446.5 2506.75  C 449.16 2506.75  451.25 2508.84  451.25 2511.5  C 451.25 2514.16  449.16 2516.25  446.5 2516.25  " fill-rule="nonzero" fill="#f59a23" stroke="none" />
</svg>