<?xml version="1.0" encoding="utf-8"?>
<svg version="1.1" xmlns:xlink="http://www.w3.org/1999/xlink" width="20px" height="18px" xmlns="http://www.w3.org/2000/svg">
  <g transform="matrix(1 0 0 1 -14 -12 )">
    <path d="M 14 12  L 34 12  L 34 30  L 14 30  L 14 12  " fill-rule="nonzero" fill="#cccccc" stroke="none" />
    <path d="M 15 13  L 33 13  L 33 29  L 15 29  L 15 13  " fill-rule="nonzero" fill="#ffffff" stroke="none" />
    <path d="M 25.75 17.4  C 24.994 17.4  24.4 16.805999999999997  24.4 16.049999999999997  C 24.4 15.293999999999999  24.994 14.7  25.75 14.7  C 26.506 14.7  27.099999999999998 15.293999999999999  27.099999999999998 16.049999999999997  C 27.099999999999998 16.805999999999997  26.506 17.4  25.75 17.4  " fill-rule="nonzero" fill="#cccccc" stroke="none" />
    <path d="M 16 29  L 16 20.75  L 20.25 17  L 26.2 20.9  L 29.6 19.25  L 33 20.9  L 33 29  L 16 29  " fill-rule="nonzero" fill="#169bd5" stroke="none" />
  </g>
</svg>