<?xml version="1.0" encoding="utf-8"?>
<svg version="1.1" xmlns:xlink="http://www.w3.org/1999/xlink" width="34px" height="35px" xmlns="http://www.w3.org/2000/svg">
  <g transform="matrix(1 0 0 1 -332 -29 )">
    <path d="M 349 30  C 357.96 30  365 37.26  365 46.5  C 365 55.74  357.96 63  349 63  C 340.04 63  333 55.74  333 46.5  C 333 37.26  340.04 30  349 30  Z " fill-rule="nonzero" fill="#9b9b9b" stroke="none" />
    <path d="M 349 30  C 357.96 30  365 37.26  365 46.5  C 365 55.74  357.96 63  349 63  C 340.04 63  333 55.74  333 46.5  C 333 37.26  340.04 30  349 30  Z " stroke-width="2" stroke="#7f7f7f" fill="none" />
  </g>
</svg>