<?xml version="1.0" encoding="utf-8"?>
<svg version="1.1" xmlns:xlink="http://www.w3.org/1999/xlink" width="14px" height="17px" xmlns="http://www.w3.org/2000/svg">
  <g transform="matrix(1 0 0 1 -342 -38 )">
    <path d="M 14 2.4255583126550864  C 14 2.6083540115798174  13.914414414414415 2.766542597187757  13.743243243243242 2.9001240694789088  L 6.5675675675675675 8.5  L 13.743243243243242 14.099875930521092  C 13.914414414414415 14.233457402812242  14 14.391645988420183  14 14.574441687344914  C 14 14.757237386269644  13.914414414414415 14.915425971877584  13.743243243243242 15.049007444168735  L 11.5 16.799627791563275  C 11.32882882882883 16.933209263854426  11.126126126126126 17  10.891891891891891 17  C 10.657657657657658 17  10.454954954954957 16.933209263854426  10.283783783783784 16.799627791563275  L 0.2567567567567568 8.974565756823822  C 0.08558558558558571 8.84098428453267  0 8.682795698924732  0 8.5  C 0 8.317204301075268  0.08558558558558571 8.159015715467328  0.2567567567567568 8.025434243176178  L 10.283783783783784 0.2003722084367241  C 10.454954954954957 0.06679073614557407  10.657657657657658 0  10.891891891891891 0  C 11.126126126126126 0  11.32882882882883 0.06679073614557407  11.5 0.2003722084367241  L 13.743243243243242 1.9509925558312655  C 13.914414414414415 2.0845740281224137  14 2.242762613730353  14 2.4255583126550864  Z " fill-rule="nonzero" fill="#ffffff" stroke="none" transform="matrix(1 0 0 1 342 38 )" />
  </g>
</svg>