<?xml version="1.0" encoding="utf-8"?>
<svg version="1.1" xmlns:xlink="http://www.w3.org/1999/xlink" width="17px" height="12px" xmlns="http://www.w3.org/2000/svg">
  <g transform="matrix(1 0 0 1 -298 -16 )">
    <path d="M 16.829659318637276 1.2371134020618553  C 16.943219772879093 1.3745704467353916  17 1.5326460481099642  17 1.7113402061855676  C 17 1.890034364261167  16.943219772879093 2.048109965635737  16.829659318637276 2.1855670103092786  L 8.891783567134269 11.79381443298969  C 8.778223112892451 11.931271477663227  8.647628590514362 12  8.5 12  C 8.35237140948564 12  8.22177688710755 11.931271477663227  8.108216432865731 11.79381443298969  L 0.17034068136272545 2.1855670103092786  C 0.05678022712090865 2.048109965635737  0 1.890034364261167  0 1.7113402061855676  C 0 1.5326460481099642  0.05678022712090865 1.3745704467353916  0.17034068136272545 1.2371134020618553  L 1.0220440881763526 0.20618556701030988  C 1.13560454241817 0.06872852233676818  1.2661990647962593 0  1.4138276553106213 0  C 1.5614562458249837 0  1.692050768203073 0.06872852233676818  1.8056112224448897 0.20618556701030988  L 8.5 8.309278350515463  L 15.19438877755511 0.20618556701030988  C 15.307949231796927 0.06872852233676818  15.438543754175017 0  15.586172344689379 0  C 15.733800935203742 0  15.864395457581832 0.06872852233676818  15.977955911823647 0.20618556701030988  L 16.829659318637276 1.2371134020618553  Z " fill-rule="nonzero" fill="#7e7e7e" stroke="none" transform="matrix(1 0 0 1 298 16 )" />
  </g>
</svg>