<?xml version="1.0" encoding="utf-8"?>
<svg version="1.1" xmlns:xlink="http://www.w3.org/1999/xlink" width="19px" height="24px" xmlns="http://www.w3.org/2000/svg">
  <defs>
    <filter x="1844px" y="40px" width="19px" height="24px" filterUnits="userSpaceOnUse" id="filter21">
      <feOffset dx="5" dy="5" in="SourceAlpha" result="shadowOffsetInner" />
      <feGaussianBlur stdDeviation="2.5" in="shadowOffsetInner" result="shadowGaussian" />
      <feComposite in2="shadowGaussian" operator="atop" in="SourceAlpha" result="shadowComposite" />
      <feColorMatrix type="matrix" values="0 0 0 0 0  0 0 0 0 0  0 0 0 0 0  0 0 0 0.34901960784313724 0  " in="shadowComposite" />
    </filter>
    <g id="widget22">
      <path d="M 2.3268424950336017 0.3557895596276651  C 1.8074714575204238 -0.12066610029782375  0.9327414888318393 -0.12066578000866596  0.39970280454307905 0.3683281755187513  C 0.27299874703989147 0.48432465206958286  0.1724764589332609 0.6221064177625802  0.10389014792466286 0.7737864908792873  C 0.0353038369160648 0.9254665639959944  0 1.0880664582188222  0 1.2522786773856283  C 0 1.4164908965524343  0.0353038369160648 1.579090790775262  0.10389014792466286 1.7307708638919692  C 0.1724764589332609 1.8824509370086764  0.27299874703989147 2.0202327881121156  0.39970280454307905 2.1362292646629473  C 0.39970280454307905 2.1362292646629473  5.702753376292306 7.001092570375031  5.702753376292306 7.001092570375031  C 5.702753376292306 7.001092570375031  0.39970280454307905 11.865955192803579  0.39970280454307905 11.865955192803579  C 0.1441481667977954 12.10039346821448  0.0005787316280054992 12.41835828758018  0.0005787316280054992 12.749904071872058  C 0.0005787316280054992 13.081449856163935  0.1441481667977954 13.399418775230854  0.39970280454307905 13.633857050641755  C 0.6552574422883627 13.868295326052655  1.0018638914145712 13.999999999999995  1.3632727360460353 14  C 1.7246815806774993 14  2.0712878572883175 13.868295326052655  2.3268424950336017 13.633857050641755  C 2.3268424950336017 13.633857050641755  8.60029886310569 7.8787736895622285  8.60029886310569 7.8787736895622285  C 8.727002920608879 7.762777213011397  8.827524461148819 7.624995361907957  8.896110772157417 7.473315288791252  C 8.964697083166016 7.321635215674544  9 7.159034979809947  9 6.9948227606431415  C 9 6.830610541476336  8.964697083166016 6.668010988895276  8.896110772157417 6.5163309157785685  C 8.827524461148819 6.364650842661861  8.727002920608879 6.2268689915584226  8.60029886310569 6.110872515007591  C 8.60029886310569 6.110872515007591  2.3268424950336017 0.3557895596276651  2.3268424950336017 0.3557895596276651  Z " fill-rule="nonzero" fill="#ffffff" stroke="none" transform="matrix(1 0 0 1 1844 40 )" />
    </g>
  </defs>
  <g transform="matrix(1 0 0 1 -1844 -40 )">
    <use xlink:href="#widget22" filter="url(#filter21)" />
    <use xlink:href="#widget22" />
  </g>
</svg>