<?xml version="1.0" encoding="utf-8"?>
<svg version="1.1" xmlns:xlink="http://www.w3.org/1999/xlink" width="41px" height="41px" xmlns="http://www.w3.org/2000/svg">
  <defs>
    <filter x="1681px" y="30px" width="41px" height="41px" filterUnits="userSpaceOnUse" id="filter7">
      <feOffset dx="5" dy="5" in="SourceAlpha" result="shadowOffsetInner" />
      <feGaussianBlur stdDeviation="2.5" in="shadowOffsetInner" result="shadowGaussian" />
      <feComposite in2="shadowGaussian" operator="atop" in="SourceAlpha" result="shadowComposite" />
      <feColorMatrix type="matrix" values="0 0 0 0 0  0 0 0 0 0  0 0 0 0 0  0 0 0 0.34901960784313724 0  " in="shadowComposite" />
    </filter>
    <g id="widget8">
      <path d="M 25.574999630451202 27.314874172210693  C 28.86099959164858 24.43381169438362  31 20.19262532889843  31 15.48450019955635  C 31 6.936249852180481  24.055999785661697 0  15.5 0  C 6.944000214338303 0  0 6.936249852180481  0 15.48450019955635  C 0 20.19262532889843  2.1389999464154243 24.435749515891075  5.487000033259392 27.283874571323395  C 5.518000034731813 27.314874572795816  5.549000158905983 27.31487561936956  5.549000158905983 27.34587562084198  C 5.828000146895647 27.562875627540052  6.1070000771433115 27.77987462375313  6.4170000702142715 27.996874630451202  C 6.572000066749752 28.08987463125959  6.696000029332936 28.211937494110316  6.851000025868416 28.3359375  C 9.412506498396397 30.07264720275998  12.436249919235706 31.00069362960494  15.530999600887299 31  C 18.62574928253889 31.00069362960494  21.64949408918619 30.07264720275998  24.211000561714172 28.3359375  C 24.366000558249652 28.242937499191612  24.490000520832837 28.120875293156132  24.645000517368317 28.025937795639038  C 24.92400050535798 27.810875292867422  25.23400044068694 27.59387522842735  25.513000428676605 27.37687522172928  C 25.544000430149026 27.345875220256858  25.574999630451202 27.345874173683114  25.574999630451202 27.314874172210693  Z M 23.311999201774597 26.570874512195587  C 21.02415493130684 28.179306898266077  18.29665268212557 29.044504913777928  15.5 29.048937559127808  C 12.586000099778175 29.048937559127808  9.92000000923872 28.11893706023693  7.718999937176704 26.570874512195587  C 7.749999938649125 26.32287450041622  7.81200024834834 26.0768131474033  7.874000251293182 25.828813135623932  C 8.058717514388263 25.156703939661384  8.329633622430265 24.511323630809784  8.68000003695488 23.908750295639038  C 9.021000035107136 23.319750314578414  9.423999754711986 22.792750314809382  9.919999778270721 22.327750325202942  C 10.384999767877162 21.862750335596502  10.94299977272749 21.430687941610813  11.500999748706818 21.089687943458557  C 12.089999729767442 20.7486879453063  12.710000351071358 20.50068683642894  13.39200034737587 20.314686834812164  C 14.079305101186037 20.12942949635908  14.788166964426637 20.036261697525333  15.5 20.037625014781952  C 17.613135688006878 20.022659099573502  19.648629404604435 20.83324198052287  21.173000872135162 22.296750724315643  C 21.88600087352097 23.00975072570145  22.443999636918306 23.846750862896442  22.846999645233154 24.805813372135162  C 23.063999651931226 25.36381334811449  23.21899920096621 25.952812001109123  23.311999201774597 26.570874512195587  Z M 11.841999977827072 16.352499186992645  C 11.372765911743045 15.883988657034934  11.003630546852946 15.32695028744638  10.757000088691711 14.711437374353409  C 10.483854908496141 14.086050925776362  10.346497255464783 13.409830095246434  10.353999733924866 12.727437049150467  C 10.353999733924867 12.047374527901411  10.478000100702047 11.365374993532896  10.757000088691711 10.745375007390976  C 11.036000076681376 10.125375021249056  11.40799958910793 9.569312260486186  11.87299957871437 9.104312270879745  C 12.33799956832081 8.639312281273305  12.895999688655138 8.269250128418207  13.515999674797058 7.990250140428543  C 14.135999660938978 7.711250152438879  14.818000003695488 7.587249785661697  15.5 7.587249785661697  C 16.213000001385808 7.587249785661697  16.864000339061022 7.711250152438879  17.484000325202942 7.990250140428543  C 18.104000311344862 8.269250128418207  18.661999507807195 8.641249785199761  19.126999497413635 9.104312270879745  C 19.591999487020075 9.569312260486186  19.963999923318624 10.127312496304512  20.24299991130829 10.745375007390976  C 20.521999899297953 11.365374993532896  20.646000266075134 12.047374527901411  20.646000266075134 12.727437049150467  C 20.646000266075134 13.440437050536275  20.521999899297953 14.091437503695488  20.24299991130829 14.709500014781952  C 19.97374050784856 15.320326991379261  19.59558081906289 15.877060685306787  19.126999497413635 16.352499186992645  C 18.651400790549815 16.820387951098382  18.094677172601223 17.197885339148343  17.484000325202942 17.466563165187836  C 16.202977780252695 17.993007658049464  14.766022618860006 17.993007658049464  13.48500007390976 17.466563165187836  C 12.874323226511478 17.197885339148343  12.317598684690893 16.820387951098382  11.841999977827072 16.352499186992645  Z M 29.078000724315643 15.48450019955635  C 29.07394295310951 19.04941827058792  27.65842890739441 22.467687599360943  25.140999674797058 24.991812825202942  C 25.140999674797058 24.9298128222581  25.11000007390976 24.898812975967303  25.11000007390976 24.83681297302246  C 24.805112037807703 23.866933539509773  24.35572799667716 22.948568919673562  23.777000606060028 22.112687706947327  C 23.197732288390398 21.270612625405192  22.485839085653424 20.52796684205532  21.669000029563904 19.91362476348877  C 21.045171922072768 19.444320973940194  20.368981001898646 19.049009688198566  19.654000103473663 18.73562514781952  C 19.97927158512175 18.52103738533333  20.280652574263513 18.27226702310145  20.55299961566925 17.993561923503876  C 21.015171286650002 17.53728778939694  21.421060184948146 17.02732722274959  21.762000679969788 16.474563002586365  C 22.448571763932705 15.346567496657372  22.80314003129024 14.047825086861849  22.785000443458557 12.727437049150467  C 22.794588264310732 11.749997224658728  22.60471854545176 10.780871959403157  22.22700023651123 9.879312455654144  C 21.854072896763682 9.010614616796374  21.31729293242097 8.22189037129283  20.646000266075134 7.556250184774399  C 19.975703187286854 6.8975599985569715  19.18682887032628 6.3716432098299265  18.321000635623932 6.006249815225601  C 17.41794249601662 5.629199985414743  16.447558917105198 5.440001720300643  15.469000399112701 5.4501874297857285  C 14.490307919681072 5.440615086496109  13.519919259473681 5.630473889410496  12.617000162601471 6.008187636733055  C 11.743678864091635 6.372800734825432  10.95290044695139 6.90987036190927  10.291999608278275 7.587249785661697  C 9.633330382406712 8.256824454292655  9.107400861568749 9.045061992481351  8.742000162601471 9.910312056541443  C 8.364281853660941 10.811871560290456  8.174412134801969 11.78099774941802  8.183999955654144 12.75843757390976  C 8.183999955654144 13.440437570214272  8.277000057511032 14.091437503695488  8.463000059127808 14.709500014781952  C 8.649000060744584 15.360500006005168  8.89700024574995 15.949500102549791  9.238000243902206 16.505562603473663  C 9.548000236973166 17.06356257945299  9.98200039472431 17.559563382528722  10.44700038433075 18.024563372135162  C 10.726000372320414 18.303563360124826  11.036000423133373 18.549624742008746  11.37700042128563 18.766624748706818  C 10.65980563685298 19.088367414660752  9.98339356482029 19.494215171784163  9.361999571323395 19.975625813007355  C 8.555999554693699 20.595625799149275  7.842999899759889 21.33768729120493  7.2539999186992645 22.143687307834625  C 6.669376607984304 22.97609811089933  6.219529937952757 23.895407274365425  5.920999988913536 24.86781257390976  C 5.889999987441115 24.9298125768546  5.8899999260902405 24.99181242461782  5.8899999260902405 25.02281242609024  C 3.440999813377857 22.544749841094017  1.9219999685883522 19.20062516629696  1.9219999685883522 15.48450019955635  C 1.9219999685883522 8.021250203251839  8.029000103473663 1.920062493532896  15.5 1.920062493532896  C 22.970999896526337 1.920062493532896  29.078000724315643 8.021250203251839  29.078000724315643 15.48450019955635  Z " fill-rule="nonzero" fill="#ffffff" stroke="none" transform="matrix(1 0 0 1 1681 30 )" />
    </g>
  </defs>
  <g transform="matrix(1 0 0 1 -1681 -30 )">
    <use xlink:href="#widget8" filter="url(#filter7)" />
    <use xlink:href="#widget8" />
  </g>
</svg>