<?xml version="1.0" encoding="utf-8"?>
<svg version="1.1" xmlns:xlink="http://www.w3.org/1999/xlink" width="37px" height="39px" xmlns="http://www.w3.org/2000/svg">
  <defs>
    <filter x="1539px" y="31px" width="37px" height="39px" filterUnits="userSpaceOnUse" id="filter11">
      <feOffset dx="5" dy="5" in="SourceAlpha" result="shadowOffsetInner" />
      <feGaussianBlur stdDeviation="2.5" in="shadowOffsetInner" result="shadowGaussian" />
      <feComposite in2="shadowGaussian" operator="atop" in="SourceAlpha" result="shadowComposite" />
      <feColorMatrix type="matrix" values="0 0 0 0 0  0 0 0 0 0  0 0 0 0 0  0 0 0 0.34901960784313724 0  " in="shadowComposite" />
    </filter>
    <g id="widget12">
      <path d="M 26.999984977033936 22.300650382634338  C 26.998564908269962 21.908489147524314  26.892888331054184 21.523628295261375  26.69360660717996 21.184858020002935  C 25.913002962346084 19.851915751301508  24.752645830475128 16.080358529543798  24.752645830475128 11.154328118783656  C 24.752645830475124 8.196016326582715  23.567176603630088 5.3588694149960325  21.45702771967749 3.2670270684274016  C 19.346878835724898 1.1751847218587712  16.484904005631464 0  13.500702860197864 0  C 10.516501714764267 0  7.654525811601831 1.1751847218587712  5.544376927649236 3.2670270684274016  C 3.434228043696642 5.3588694149960325  2.2487586827179777 8.196016326582715  2.248758682717977 11.154328118783656  C 2.248758682717979 16.08175258653153  1.0869952939167797 19.851915751301508  0.3063916490829075 21.184858020002935  C 0.10705021897860839 21.523730349700337  0.001371745449108254 21.908719850392846  1.3264584671200135E-05 22.30099929579113  C -0.0013452162797658535 22.69327874118941  0.10166458624585456 23.078976739034232  0.2986542850268402 23.419197882692846  C 0.49564398380782587 23.759419026351456  0.7796477750848161 24.042131247061366  1.1220244243620685 24.238824673266233  C 1.4644010736393207 24.435518099471103  1.853043998442301 24.53923771800668  2.248758682717977 24.539521861324044  C 2.248758682717977 24.539521861324044  7.988656428581534 24.539521861324044  7.988656428581534 24.539521861324044  C 8.24825574682602 25.798786409832548  8.938635766538496 26.930517814250553  9.94302520249607 27.74329352744819  C 10.947414638453642 28.556069240645833  12.204163077515801 29  13.500702860197864 29  C 14.797242642879931 29  16.053990008873086 28.556069240645833  17.058379444830656 27.74329352744819  C 18.06276888078823 26.930517814250553  18.753148900500708 25.798786409832548  19.012748218745198 24.539521861324044  C 19.012748218745198 24.539521861324044  24.752645830475128 24.539521861324044  24.752645830475128 24.539521861324044  C 25.148241236424287 24.53899284919589  25.536706903641104 24.435096701068655  25.878887550158026 24.238303431050294  C 26.22106819667495 24.041510161031933  26.504872246216795 23.758773490471906  26.701695401334963 23.418593667226205  C 26.898518556453126 23.078413843980503  27.00140504579791 22.69281161774436  26.999984977033936 22.300650382634338  Z M 15.448979821374548 26.15603226170189  C 14.879230346025805 26.555541815327075  14.19857684173615 26.77017367236667  13.500702860197864 26.770387485080768  C 12.802828878659582 26.77017367236667  12.12217537436993 26.555541815327075  11.552425899021186 26.15603226170189  C 10.98267642367244 25.7565227080767  10.551839939382928 25.191775715325164  10.31921529563687 24.539521861324044  C 10.31921529563687 24.539521861324044  16.68218935168986 24.539521861324044  16.68218935168986 24.539521861324044  C 16.4495647079438 25.191775715325164  16.01872929672329 25.7565227080767  15.448979821374548 26.15603226170189  Z " fill-rule="nonzero" fill="#ffffff" stroke="none" transform="matrix(1 0 0 1 1539 31 )" />
    </g>
  </defs>
  <g transform="matrix(1 0 0 1 -1539 -31 )">
    <use xlink:href="#widget12" filter="url(#filter11)" />
    <use xlink:href="#widget12" />
  </g>
</svg>