<?xml version="1.0" encoding="utf-8"?>
<svg version="1.1" xmlns:xlink="http://www.w3.org/1999/xlink" width="25px" height="25px" viewBox="1032 604  25 25" xmlns="http://www.w3.org/2000/svg">
  <path d="M 1044.5 604  C 1051.5 604  1057 609.5  1057 616.5  C 1057 623.5  1051.5 629  1044.5 629  C 1037.5 629  1032 623.5  1032 616.5  C 1032 609.5  1037.5 604  1044.5 604  Z " fill-rule="nonzero" fill="#ffffff" stroke="none" />
  <path d="M 1044.5 604.5  C 1051.22 604.5  1056.5 609.78  1056.5 616.5  C 1056.5 623.22  1051.22 628.5  1044.5 628.5  C 1037.78 628.5  1032.5 623.22  1032.5 616.5  C 1032.5 609.78  1037.78 604.5  1044.5 604.5  Z " stroke-width="1" stroke="#f4a820" fill="none" />
  <path d="M 1044.5 622.75  C 1041 622.75  1038.25 620  1038.25 616.5  C 1038.25 613  1041 610.25  1044.5 610.25  C 1048 610.25  1050.75 613  1050.75 616.5  C 1050.75 620  1048 622.75  1044.5 622.75  " fill-rule="nonzero" fill="#f4a820" stroke="none" />
</svg>