<?xml version="1.0" encoding="utf-8"?>
<svg version="1.1" xmlns:xlink="http://www.w3.org/1999/xlink" width="25px" height="25px" viewBox="872 604  25 25" xmlns="http://www.w3.org/2000/svg">
  <path d="M 884.5 604  C 891.5 604  897 609.5  897 616.5  C 897 623.5  891.5 629  884.5 629  C 877.5 629  872 623.5  872 616.5  C 872 609.5  877.5 604  884.5 604  Z " fill-rule="nonzero" fill="#ffffff" stroke="none" />
  <path d="M 884.5 604.5  C 891.22 604.5  896.5 609.78  896.5 616.5  C 896.5 623.22  891.22 628.5  884.5 628.5  C 877.78 628.5  872.5 623.22  872.5 616.5  C 872.5 609.78  877.78 604.5  884.5 604.5  Z " stroke-width="1" stroke="#f59a23" fill="none" />
  <path d="M 884.5 622.75  C 881 622.75  878.25 620  878.25 616.5  C 878.25 613  881 610.25  884.5 610.25  C 888 610.25  890.75 613  890.75 616.5  C 890.75 620  888 622.75  884.5 622.75  " fill-rule="nonzero" fill="#f59a23" stroke="none" />
</svg>