<?xml version="1.0" encoding="utf-8"?>
<svg version="1.1" xmlns:xlink="http://www.w3.org/1999/xlink" width="13px" height="13px" viewBox="468 615  13 13" xmlns="http://www.w3.org/2000/svg">
  <path d="M 474.5 615  C 478.14 615  481 617.86  481 621.5  C 481 625.14  478.14 628  474.5 628  C 470.86 628  468 625.14  468 621.5  C 468 617.86  470.86 615  474.5 615  Z " fill-rule="nonzero" fill="#ffffff" stroke="none" />
  <path d="M 474.5 615.5  C 477.86 615.5  480.5 618.14  480.5 621.5  C 480.5 624.86  477.86 627.5  474.5 627.5  C 471.14 627.5  468.5 624.86  468.5 621.5  C 468.5 618.14  471.14 615.5  474.5 615.5  Z " stroke-width="1" stroke="#797979" fill="none" />
  <path d="M 474.5 624.75  C 472.68 624.75  471.25 623.32  471.25 621.5  C 471.25 619.68  472.68 618.25  474.5 618.25  C 476.32 618.25  477.75 619.68  477.75 621.5  C 477.75 623.32  476.32 624.75  474.5 624.75  " fill-rule="nonzero" fill="#797979" stroke="none" />
</svg>