<?xml version="1.0" encoding="utf-8"?>
<svg version="1.1" xmlns:xlink="http://www.w3.org/1999/xlink" width="13px" height="13px" viewBox="339 615  13 13" xmlns="http://www.w3.org/2000/svg">
  <path d="M 345.5 615  C 349.14 615  352 617.86  352 621.5  C 352 625.14  349.14 628  345.5 628  C 341.86 628  339 625.14  339 621.5  C 339 617.86  341.86 615  345.5 615  Z " fill-rule="nonzero" fill="#f0f0f0" stroke="none" />
  <path d="M 345.5 615.5  C 348.86 615.5  351.5 618.14  351.5 621.5  C 351.5 624.86  348.86 627.5  345.5 627.5  C 342.14 627.5  339.5 624.86  339.5 621.5  C 339.5 618.14  342.14 615.5  345.5 615.5  Z " stroke-width="1" stroke="#797979" fill="none" />
  <path d="M 345.5 624.75  C 343.68 624.75  342.25 623.32  342.25 621.5  C 342.25 619.68  343.68 618.25  345.5 618.25  C 347.32 618.25  348.75 619.68  348.75 621.5  C 348.75 623.32  347.32 624.75  345.5 624.75  " fill-rule="nonzero" fill="#797979" stroke="none" />
</svg>