<?xml version="1.0" encoding="utf-8"?>
<svg version="1.1" xmlns:xlink="http://www.w3.org/1999/xlink" width="19px" height="19px" viewBox="347 1370.5  19 19" xmlns="http://www.w3.org/2000/svg">
  <path d="M 356.5 1370.5  C 361.82 1370.5  366 1374.68  366 1380  C 366 1385.32  361.82 1389.5  356.5 1389.5  C 351.18 1389.5  347 1385.32  347 1380  C 347 1374.68  351.18 1370.5  356.5 1370.5  Z " fill-rule="nonzero" fill="#ffffff" stroke="none" />
  <path d="M 356.5 1371  C 361.54 1371  365.5 1374.96  365.5 1380  C 365.5 1385.04  361.54 1389  356.5 1389  C 351.46 1389  347.5 1385.04  347.5 1380  C 347.5 1374.96  351.46 1371  356.5 1371  Z " stroke-width="1" stroke="#f59a23" fill="none" />
  <path d="M 356.5 1384.75  C 353.84 1384.75  351.75 1382.66  351.75 1380  C 351.75 1377.34  353.84 1375.25  356.5 1375.25  C 359.16 1375.25  361.25 1377.34  361.25 1380  C 361.25 1382.66  359.16 1384.75  356.5 1384.75  " fill-rule="nonzero" fill="#f59a23" stroke="none" />
</svg>