<?xml version="1.0" encoding="utf-8"?>
<svg version="1.1" xmlns:xlink="http://www.w3.org/1999/xlink" width="19px" height="19px" viewBox="235 1370.5  19 19" xmlns="http://www.w3.org/2000/svg">
  <path d="M 244.5 1370.5  C 249.82 1370.5  254 1374.68  254 1380  C 254 1385.32  249.82 1389.5  244.5 1389.5  C 239.18 1389.5  235 1385.32  235 1380  C 235 1374.68  239.18 1370.5  244.5 1370.5  Z " fill-rule="nonzero" fill="#ffffff" stroke="none" />
  <path d="M 244.5 1371  C 249.54 1371  253.5 1374.96  253.5 1380  C 253.5 1385.04  249.54 1389  244.5 1389  C 239.46 1389  235.5 1385.04  235.5 1380  C 235.5 1374.96  239.46 1371  244.5 1371  Z " stroke-width="1" stroke="#f59a23" fill="none" />
  <path d="M 244.5 1384.75  C 241.84 1384.75  239.75 1382.66  239.75 1380  C 239.75 1377.34  241.84 1375.25  244.5 1375.25  C 247.16 1375.25  249.25 1377.34  249.25 1380  C 249.25 1382.66  247.16 1384.75  244.5 1384.75  " fill-rule="nonzero" fill="#f59a23" stroke="none" />
</svg>