<?xml version="1.0" encoding="utf-8"?>
<svg version="1.1" xmlns:xlink="http://www.w3.org/1999/xlink" width="19px" height="19px" viewBox="1085 286.5  19 19" xmlns="http://www.w3.org/2000/svg">
  <path d="M 1094.5 286.5  C 1099.82 286.5  1104 290.68  1104 296  C 1104 301.32  1099.82 305.5  1094.5 305.5  C 1089.18 305.5  1085 301.32  1085 296  C 1085 290.68  1089.18 286.5  1094.5 286.5  Z " fill-rule="nonzero" fill="#f0f0f0" stroke="none" />
  <path d="M 1094.5 287  C 1099.54 287  1103.5 290.96  1103.5 296  C 1103.5 301.04  1099.54 305  1094.5 305  C 1089.46 305  1085.5 301.04  1085.5 296  C 1085.5 290.96  1089.46 287  1094.5 287  Z " stroke-width="1" stroke="#f59a23" fill="none" />
  <path d="M 1094.5 300.75  C 1091.84 300.75  1089.75 298.66  1089.75 296  C 1089.75 293.34  1091.84 291.25  1094.5 291.25  C 1097.16 291.25  1099.25 293.34  1099.25 296  C 1099.25 298.66  1097.16 300.75  1094.5 300.75  " fill-rule="nonzero" fill="#f59a23" stroke="none" />
</svg>