<?xml version="1.0" encoding="utf-8"?>
<svg version="1.1" xmlns:xlink="http://www.w3.org/1999/xlink" width="40px" height="40px" xmlns="http://www.w3.org/2000/svg">
  <defs>
    <filter x="502px" y="165px" width="40px" height="40px" filterUnits="userSpaceOnUse" id="filter84">
      <feOffset dx="1" dy="1" in="SourceAlpha" result="shadowOffsetInner" />
      <feGaussianBlur stdDeviation="2.5" in="shadowOffsetInner" result="shadowGaussian" />
      <feComposite in2="shadowGaussian" operator="atop" in="SourceAlpha" result="shadowComposite" />
      <feColorMatrix type="matrix" values="0 0 0 0 0  0 0 0 0 0  0 0 0 0 0  0 0 0 0.6980392156862745 0  " in="shadowComposite" />
    </filter>
    <g id="widget85">
      <path d="M 521 169  C 529.4 169  536 175.6  536 184  C 536 192.4  529.4 199  521 199  C 512.6 199  506 192.4  506 184  C 506 175.6  512.6 169  521 169  Z " fill-rule="nonzero" fill="#d9001b" stroke="none" />
      <path d="M 521 169.5  C 529.12 169.5  535.5 175.88  535.5 184  C 535.5 192.12  529.12 198.5  521 198.5  C 512.88 198.5  506.5 192.12  506.5 184  C 506.5 175.88  512.88 169.5  521 169.5  Z " stroke-width="1" stroke="#ffffff" fill="none" />
    </g>
  </defs>
  <g transform="matrix(1 0 0 1 -502 -165 )">
    <use xlink:href="#widget85" filter="url(#filter84)" />
    <use xlink:href="#widget85" />
  </g>
</svg>