<?xml version="1.0" encoding="utf-8"?>
<svg version="1.1" xmlns:xlink="http://www.w3.org/1999/xlink" width="40px" height="40px" xmlns="http://www.w3.org/2000/svg">
  <defs>
    <filter x="251px" y="213px" width="40px" height="40px" filterUnits="userSpaceOnUse" id="filter81">
      <feOffset dx="1" dy="1" in="SourceAlpha" result="shadowOffsetInner" />
      <feGaussianBlur stdDeviation="2.5" in="shadowOffsetInner" result="shadowGaussian" />
      <feComposite in2="shadowGaussian" operator="atop" in="SourceAlpha" result="shadowComposite" />
      <feColorMatrix type="matrix" values="0 0 0 0 0  0 0 0 0 0  0 0 0 0 0  0 0 0 0.6980392156862745 0  " in="shadowComposite" />
    </filter>
    <g id="widget82">
      <path d="M 270 217  C 278.4 217  285 223.6  285 232  C 285 240.4  278.4 247  270 247  C 261.6 247  255 240.4  255 232  C 255 223.6  261.6 217  270 217  Z " fill-rule="nonzero" fill="#abbdc2" stroke="none" />
      <path d="M 270 217.5  C 278.12 217.5  284.5 223.88  284.5 232  C 284.5 240.12  278.12 246.5  270 246.5  C 261.88 246.5  255.5 240.12  255.5 232  C 255.5 223.88  261.88 217.5  270 217.5  Z " stroke-width="1" stroke="#ffffff" fill="none" />
    </g>
  </defs>
  <g transform="matrix(1 0 0 1 -251 -213 )">
    <use xlink:href="#widget82" filter="url(#filter81)" />
    <use xlink:href="#widget82" />
  </g>
</svg>