<?xml version="1.0" encoding="utf-8"?>
<svg version="1.1" xmlns:xlink="http://www.w3.org/1999/xlink" width="64px" height="63px" xmlns="http://www.w3.org/2000/svg">
  <g transform="matrix(1 0 0 1 -190 -198 )">
    <path d="M 222 198  C 239.92000000000002 198  254 211.85999999999999  254 229.5  C 254 247.14  239.92000000000002 261  222 261  C 204.07999999999998 261  190 247.14  190 229.5  C 190 211.85999999999999  204.07999999999998 198  222 198  Z " fill-rule="nonzero" fill="#ffffff" stroke="none" />
    <path d="M 222 198.5  C 239.64 198.5  253.5 212.14  253.5 229.5  C 253.5 246.86  239.64 260.5  222 260.5  C 204.35999999999999 260.5  190.5 246.86  190.5 229.5  C 190.5 212.14  204.35999999999999 198.5  222 198.5  Z " stroke-width="1" stroke="#797979" fill="none" />
  </g>
</svg>