<?xml version="1.0" encoding="utf-8"?>
<svg version="1.1" xmlns:xlink="http://www.w3.org/1999/xlink" width="40px" height="40px" xmlns="http://www.w3.org/2000/svg">
  <defs>
    <filter x="1177px" y="215px" width="40px" height="40px" filterUnits="userSpaceOnUse" id="filter83">
      <feOffset dx="1" dy="1" in="SourceAlpha" result="shadowOffsetInner" />
      <feGaussianBlur stdDeviation="2.5" in="shadowOffsetInner" result="shadowGaussian" />
      <feComposite in2="shadowGaussian" operator="atop" in="SourceAlpha" result="shadowComposite" />
      <feColorMatrix type="matrix" values="0 0 0 0 0  0 0 0 0 0  0 0 0 0 0  0 0 0 0.6980392156862745 0  " in="shadowComposite" />
    </filter>
    <g id="widget84">
      <path d="M 1196 219  C 1204.4 219  1211 225.6  1211 234  C 1211 242.4  1204.4 249  1196 249  C 1187.6 249  1181 242.4  1181 234  C 1181 225.6  1187.6 219  1196 219  Z " fill-rule="nonzero" fill="#00c2ff" stroke="none" />
      <path d="M 1196 219.5  C 1204.12 219.5  1210.5 225.88  1210.5 234  C 1210.5 242.12  1204.12 248.5  1196 248.5  C 1187.88 248.5  1181.5 242.12  1181.5 234  C 1181.5 225.88  1187.88 219.5  1196 219.5  Z " stroke-width="1" stroke="#ffffff" fill="none" />
    </g>
  </defs>
  <g transform="matrix(1 0 0 1 -1177 -215 )">
    <use xlink:href="#widget84" filter="url(#filter83)" />
    <use xlink:href="#widget84" />
  </g>
</svg>