<?xml version="1.0" encoding="utf-8"?>
<svg version="1.1" xmlns:xlink="http://www.w3.org/1999/xlink" width="18px" height="18px" xmlns="http://www.w3.org/2000/svg">
  <g transform="matrix(1 0 0 1 -208 -668 )">
    <path d="M 10.20703125 12.292968749999998  C 10.27734375 12.363281249999998  10.3125 12.453124999999998  10.3125 12.562500000000002  L 10.3125 14.4375  C 10.3125 14.546875  10.27734375 14.63671875  10.20703125 14.70703125  C 10.13671875 14.77734375  10.046875 14.8125  9.9375 14.8125  L 8.0625 14.8125  C 7.953125000000001 14.8125  7.86328125 14.77734375  7.79296875 14.70703125  C 7.72265625 14.63671875  7.6875 14.546875  7.6875 14.4375  L 7.6875 12.562500000000002  C 7.6875 12.453124999999998  7.72265625 12.363281249999998  7.79296875 12.292968749999998  C 7.86328125 12.222656249999998  7.953125000000001 12.187499999999998  8.0625 12.187499999999998  L 9.9375 12.187499999999998  C 10.046875 12.187499999999998  10.13671875 12.222656249999998  10.20703125 12.292968749999998  Z M 12.029296875 4.236328125  C 12.884765625 4.935546874999999  13.3125 5.773437499999998  13.3125 6.75  C 13.3125 7.140624999999999  13.25390625 7.492187499999999  13.13671875 7.8046875  C 13.01953125 8.117187499999998  12.841796875000002 8.38671875  12.603515625 8.61328125  C 12.365234375 8.839843749999998  12.162109375000002 9.011718750000002  11.994140625 9.128906249999998  C 11.826171875 9.24609375  11.593750000000002 9.38671875  11.296875 9.550781249999998  C 11.046875 9.691406249999998  10.865234375000002 9.800781249999998  10.751953125 9.87890625  C 10.638671875000002 9.957031249999998  10.537109375 10.05078125  10.447265625 10.16015625  C 10.357421875000002 10.26953125  10.3125 10.382812500000002  10.3125 10.499999999999998  L 10.3125 10.875000000000002  C 10.3125 10.984375  10.27734375 11.07421875  10.20703125 11.14453125  C 10.13671875 11.21484375  10.046875 11.25  9.9375 11.25  L 8.0625 11.25  C 7.953125000000001 11.25  7.86328125 11.21484375  7.79296875 11.14453125  C 7.72265625 11.07421875  7.6875 10.984375  7.6875 10.875000000000002  L 7.6875 10.078124999999998  C 7.6875 9.8046875  7.728515625 9.552734374999998  7.810546875 9.322265624999998  C 7.892578125 9.091796875  7.986328125 8.90625  8.091796875 8.765625  C 8.197265625 8.625  8.349609375 8.486328124999998  8.548828125 8.349609375  C 8.748046875 8.212890625  8.908203125 8.11328125  9.029296875 8.05078125  C 9.150390625000002 7.98828125  9.32421875 7.906249999999999  9.55078125 7.8046875  C 9.96484375 7.609374999999998  10.2578125 7.441406250000001  10.4296875 7.300781250000001  C 10.601562500000002 7.160156250000001  10.687500000000002 6.96875  10.6875 6.726562499999999  C 10.687500000000002 6.398437499999998  10.517578125 6.119140624999997  10.177734375 5.888671875  C 9.837890625000002 5.658203124999998  9.46484375 5.542968750000001  9.05859375 5.542968750000001  C 8.621093750000002 5.542968750000001  8.25 5.648437500000001  7.9453125 5.859375000000001  C 7.718750000000001 6.015624999999999  7.40625 6.339843749999999  7.0078125 6.832031249999999  C 6.9375 6.925781249999998  6.839843750000001 6.972656249999999  6.71484375 6.972656249999999  C 6.628906250000001 6.972656249999999  6.5546875 6.949218749999998  6.4921875 6.902343749999999  L 5.2265625 5.94140625  C 5.1484375 5.886718749999998  5.1015625 5.808593749999998  5.0859375 5.707031249999999  C 5.070312500000001 5.605468749999998  5.089843750000001 5.515624999999999  5.14453125 5.437500000000001  C 6.09765625 3.9375  7.460937500000001 3.187500000000001  9.234375 3.187500000000001  C 10.2421875 3.187500000000001  11.173828125 3.537109374999999  12.029296875 4.236328125  Z M 11.912109375 2.097656250000001  C 10.986328125 1.6992187499999993  10.015625 1.5000000000000007  9 1.5000000000000007  C 7.984375 1.5000000000000007  7.013671875 1.6992187499999993  6.087890625 2.097656250000001  C 5.162109375 2.49609375  4.365234375 3.029296875000001  3.697265625 3.697265625000001  C 3.029296875 4.365234375000001  2.49609375 5.162109374999999  2.09765625 6.087890625000001  C 1.69921875 7.013671875  1.5 7.984374999999999  1.5 9  C 1.5 10.015625  1.69921875 10.986328125  2.09765625 11.912109375000002  C 2.49609375 12.837890624999998  3.029296875 13.634765625  3.697265625 14.302734375  C 4.365234375 14.970703125  5.162109375 15.50390625  6.087890625 15.90234375  C 7.013671875 16.30078125  7.984375 16.5  9 16.5  C 10.015625 16.5  10.986328125 16.30078125  11.912109375 15.90234375  C 12.837890625 15.50390625  13.634765625 14.970703125  14.302734375 14.302734375  C 14.970703125 13.634765625  15.50390625 12.837890624999998  15.90234375 11.912109375000002  C 16.30078125 10.986328125  16.5 10.015625  16.5 9  C 16.5 7.984374999999999  16.30078125 7.013671875  15.90234375 6.087890625000001  C 15.50390625 5.162109374999999  14.970703125 4.365234375000001  14.302734375 3.697265625000001  C 13.634765625 3.029296875000001  12.837890625 2.49609375  11.912109375 2.097656250000001  Z M 16.79296875 4.482421875  C 17.597656249999996 5.861328124999998  18 7.367187499999997  18 9  C 18 10.6328125  17.597656249999996 12.138671874999998  16.79296875 13.517578125  C 15.988281250000002 14.896484375  14.896484375 15.98828125  13.517578125 16.79296875  C 12.138671875000002 17.59765625  10.6328125 18  9 18  C 7.367187500000001 18  5.861328125 17.59765625  4.482421875 16.79296875  C 3.1035156250000004 15.98828125  2.01171875 14.896484375  1.20703125 13.517578125  C 0.40234374999999994 12.138671874999998  0 10.6328125  0 9  C 0 7.367187499999997  0.40234374999999994 5.861328124999998  1.20703125 4.482421875  C 2.01171875 3.103515625  3.1035156250000004 2.0117187499999982  4.482421875 1.2070312499999993  C 5.861328125 0.40234374999999845  7.367187500000001 0  9 0  C 10.6328125 0  12.138671875000002 0.40234374999999845  13.517578125 1.2070312499999993  C 14.896484375 2.0117187499999982  15.988281250000002 3.103515625  16.79296875 4.482421875  Z " fill-rule="nonzero" fill="#000000" stroke="none" transform="matrix(1 0 0 1 208 668 )" />
  </g>
</svg>