<?xml version="1.0" encoding="utf-8"?>
<svg version="1.1" xmlns:xlink="http://www.w3.org/1999/xlink" width="19px" height="19px" viewBox="181 412.5  19 19" xmlns="http://www.w3.org/2000/svg">
  <path d="M 190.5 412.5  C 195.82 412.5  200 416.68  200 422  C 200 427.32  195.82 431.5  190.5 431.5  C 185.18 431.5  181 427.32  181 422  C 181 416.68  185.18 412.5  190.5 412.5  Z " fill-rule="nonzero" fill="#ffffff" stroke="none" />
  <path d="M 190.5 413  C 195.54 413  199.5 416.96  199.5 422  C 199.5 427.04  195.54 431  190.5 431  C 185.46 431  181.5 427.04  181.5 422  C 181.5 416.96  185.46 413  190.5 413  Z " stroke-width="1" stroke="#f59a23" fill="none" />
  <path d="M 190.5 426.75  C 187.84 426.75  185.75 424.66  185.75 422  C 185.75 419.34  187.84 417.25  190.5 417.25  C 193.16 417.25  195.25 419.34  195.25 422  C 195.25 424.66  193.16 426.75  190.5 426.75  " fill-rule="nonzero" fill="#f59a23" stroke="none" />
</svg>