<?xml version="1.0" encoding="utf-8"?>
<svg version="1.1" xmlns:xlink="http://www.w3.org/1999/xlink" width="19px" height="19px" viewBox="387 412.5  19 19" xmlns="http://www.w3.org/2000/svg">
  <path d="M 396.5 412.5  C 401.82 412.5  406 416.68  406 422  C 406 427.32  401.82 431.5  396.5 431.5  C 391.18 431.5  387 427.32  387 422  C 387 416.68  391.18 412.5  396.5 412.5  Z " fill-rule="nonzero" fill="#ffffff" stroke="none" />
  <path d="M 396.5 413  C 401.54 413  405.5 416.96  405.5 422  C 405.5 427.04  401.54 431  396.5 431  C 391.46 431  387.5 427.04  387.5 422  C 387.5 416.96  391.46 413  396.5 413  Z " stroke-width="1" stroke="#f59a23" fill="none" />
  <path d="M 396.5 426.75  C 393.84 426.75  391.75 424.66  391.75 422  C 391.75 419.34  393.84 417.25  396.5 417.25  C 399.16 417.25  401.25 419.34  401.25 422  C 401.25 424.66  399.16 426.75  396.5 426.75  " fill-rule="nonzero" fill="#f59a23" stroke="none" />
</svg>