<?xml version="1.0" encoding="utf-8"?>
<svg version="1.1" xmlns:xlink="http://www.w3.org/1999/xlink" width="18px" height="18px" xmlns="http://www.w3.org/2000/svg">
  <g transform="matrix(1 0 0 1 -807 -75 )">
    <path d="M 11.89453125 14.89453125  C 11.96484375 14.82421875  12 14.734375  12 14.625  L 12 12.749999999999998  C 12 12.640625  11.96484375 12.55078125  11.89453125 12.48046875  C 11.82421875 12.41015625  11.734375 12.375  11.625 12.375  L 10.5 12.375  L 10.5 6.374999999999999  C 10.5 6.265625  10.46484375 6.175781250000001  10.39453125 6.105468750000001  C 10.32421875 6.035156250000001  10.234375000000002 6.000000000000001  10.125 6.000000000000001  L 6.375 6.000000000000001  C 6.265625000000001 6.000000000000001  6.17578125 6.035156250000001  6.10546875 6.105468750000001  C 6.03515625 6.175781250000001  6 6.265625  6 6.374999999999999  L 6 8.25  C 6 8.359375  6.03515625 8.44921875  6.10546875 8.51953125  C 6.17578125 8.58984375  6.265625000000001 8.625  6.375 8.625  L 7.5 8.625  L 7.5 12.375  L 6.375 12.375  C 6.265625000000001 12.375  6.17578125 12.41015625  6.10546875 12.48046875  C 6.03515625 12.55078125  6 12.640625  6 12.749999999999998  L 6 14.625  C 6 14.734375  6.03515625 14.82421875  6.10546875 14.89453125  C 6.17578125 14.96484375  6.265625000000001 15  6.375 15  L 11.625 15  C 11.734375 15  11.82421875 14.96484375  11.89453125 14.89453125  Z M 10.39453125 4.39453125  C 10.46484375 4.32421875  10.5 4.234374999999998  10.5 4.124999999999999  L 10.5 2.25  C 10.5 2.140624999999999  10.46484375 2.050781249999999  10.39453125 1.9804687499999993  C 10.32421875 1.9101562499999993  10.234375000000002 1.8749999999999993  10.125 1.8749999999999993  L 7.875 1.8749999999999993  C 7.765625000000001 1.8749999999999993  7.67578125 1.9101562499999993  7.60546875 1.9804687499999993  C 7.53515625 2.050781249999999  7.5 2.140624999999999  7.5 2.25  L 7.5 4.124999999999999  C 7.5 4.234374999999998  7.53515625 4.32421875  7.60546875 4.39453125  C 7.67578125 4.46484375  7.765625000000001 4.5  7.875 4.5  L 10.125 4.5  C 10.234375000000002 4.5  10.32421875 4.46484375  10.39453125 4.39453125  Z M 16.79296875 4.482421875  C 17.597656249999996 5.861328124999998  18 7.367187499999997  18 9  C 18 10.6328125  17.597656249999996 12.138671874999998  16.79296875 13.517578125  C 15.988281250000002 14.896484375  14.896484375 15.98828125  13.517578125 16.79296875  C 12.138671875000002 17.59765625  10.6328125 18  9 18  C 7.367187500000001 18  5.861328125 17.59765625  4.482421875 16.79296875  C 3.1035156250000004 15.98828125  2.01171875 14.896484375  1.20703125 13.517578125  C 0.40234374999999994 12.138671874999998  0 10.6328125  0 9  C 0 7.367187499999997  0.40234374999999994 5.861328124999998  1.20703125 4.482421875  C 2.01171875 3.103515625  3.1035156250000004 2.0117187499999982  4.482421875 1.2070312499999993  C 5.861328125 0.40234374999999845  7.367187500000001 0  9 0  C 10.6328125 0  12.138671875000002 0.40234374999999845  13.517578125 1.2070312499999993  C 14.896484375 2.0117187499999982  15.988281250000002 3.103515625  16.79296875 4.482421875  Z " fill-rule="nonzero" fill="#7f7f7f" stroke="none" transform="matrix(1 0 0 1 807 75 )" />
  </g>
</svg>