<?xml version="1.0" encoding="utf-8"?>
<svg version="1.1" xmlns:xlink="http://www.w3.org/1999/xlink" width="18px" height="18px" xmlns="http://www.w3.org/2000/svg">
  <g transform="matrix(1 0 0 1 -807 -41 )">
    <path d="M 4.499999570846598 12.23999917602547  L 5.759999107360924 13.499998712539796  L 8.999999141693197 10.259998678207523  L 12.23999917602547 13.499998712539796  L 13.499998712539796 12.23999917602547  L 10.259998678207523 8.999999141693197  L 13.499998712539796 5.759999107360924  L 12.23999917602547 4.499999570846598  L 8.999999141693197 7.73999960517887  L 5.759999107360924 4.499999570846598  L 4.499999570846598 5.759999107360924  L 7.73999960517887 8.999999141693197  L 4.499999570846598 12.23999917602547  Z M 12.509998463630824 17.291697760420057  C 11.414998539447925 17.764497725773076  10.2449990158082 18.00059828332275  8.999999141693197 17.999998283386393  C 7.754999267578194 17.999998283386393  6.584999743938469 17.763598220243622  5.48999981975557 17.290798254890607  C 4.394999895572672 16.81799828953759  3.4424998219013383 16.17689916592606  2.6324999206066204 15.367499221086577  C 1.822500019311903 14.557499319791857  1.1813999837493911 13.604998387813723  0.7092000284957858 12.509998463630824  C 0.23700007324218053 11.414998539447925  0.0005999999363534213 10.2449990158082  0 8.999999141693197  C 0 7.754999267578194  0.23640006314277046 6.584999743938469  0.7092000284957858 5.48999981975557  C 1.1819999938488015 4.394999895572672  1.8230999757671378 3.4424998219013383  2.6324999206066204 2.6324999206066204  C 3.4424998219013383 1.822500019311903  4.394999895572672 1.1813999837493911  5.48999981975557 0.7092000284957858  C 6.584999743938469 0.23700007324218053  7.754999267578194 0.0005999999363534213  8.999999141693197 0  C 10.2449990158082 0  11.414998539447925 0.23640006314277046  12.509998463630824 0.7092000284957858  C 13.604998387813723 1.1819999938488015  14.557499319791857 1.8230999757671378  15.367499221086577 2.6324999206066204  C 16.177499122381292 3.4424998219013383  16.81889779506704 4.394999895572672  17.291697760420057 5.48999981975557  C 17.764497725773076 6.584999743938469  18.00059828332275 7.754999267578194  17.999998283386393 8.999999141693197  C 17.999998283386393 10.2449990158082  17.763598220243622 11.414998539447925  17.290798254890607 12.509998463630824  C 16.81799828953759 13.604998387813723  16.17689916592606 14.557499319791857  15.367499221086577 15.367499221086577  C 14.557499319791857 16.177499122381292  13.604998387813723 16.81889779506704  12.509998463630824 17.291697760420057  Z " fill-rule="nonzero" fill="#767676" stroke="none" transform="matrix(1 0 0 1 807 41 )" />
  </g>
</svg>