<?xml version="1.0" encoding="utf-8"?>
<svg version="1.1" xmlns:xlink="http://www.w3.org/1999/xlink" width="25px" height="16px" xmlns="http://www.w3.org/2000/svg">
  <g transform="matrix(1 0 0 1 -277 -8 )">
    <path d="M 18.126623971121603 12.240939670138857  C 19.947687784830805 11.142306857638857  21.46221342540923 9.666160300925924  22.67020089285711 7.8125  C 21.289643787202408 5.678530092592609  19.559406098865338 4.0825737847222285  17.479487827846015 3.0246310763888573  C 18.033527192615338 3.9650245949073906  18.310546875 4.982277199074076  18.310546875 6.076388888888857  C 18.310546875 7.749204282407391  17.71336510067897 9.180139612268533  16.519001552036798 10.369194878472229  C 15.324638003394625 11.558250144675924  13.887314569382397 12.152777777777771  12.20703125 12.152777777777771  C 10.526747930617603 12.152777777777771  9.089424496605375 11.558250144675924  7.895060947963202 10.369194878472229  C 6.700697399321029 9.180139612268533  6.103515625 7.749204282407391  6.103515625 6.076388888888857  C 6.103515625 4.982277199074076  6.380535307384662 3.9650245949073906  6.934574672153985 3.0246310763888573  C 4.854656401134662 4.0825737847222285  3.124418712797592 5.678530092592609  1.7438616071428894 7.8125  C 2.9518490745907684 9.666160300925924  4.466374715169195 11.142306857638857  6.287438528878397 12.240939670138857  C 8.108502342587485 13.339572482638857  10.08169991629461 13.888888888888857  12.20703125 13.888888888888857  C 14.332362583705391 13.888888888888857  16.305560157412515 13.339572482638857  18.126623971121603 12.240939670138857  Z M 12.670244489397305 3.065321180555543  C 12.797401064918063 2.938729745370381  12.860979352678555 2.785011574074076  12.860979352678555 2.6041666666666288  C 12.860979352678555 2.423321759259238  12.797401064918063 2.2696035879629903  12.670244489397305 2.1430121527777715  C 12.543087913876546 2.0164207175926094  12.388683500744037 1.953125  12.20703125 1.953125  C 11.071704682849713 1.953125  10.09759448823479 2.357765480324076  9.284700666155118 3.1670464409722285  C 8.471806844075445 3.976327401620381  8.065359933035666 4.946108217592609  8.065359933035666 6.076388888888857  C 8.065359933035666 6.257233796296305  8.128938220796158 6.410951967592609  8.256094796316916 6.5375434027777715  C 8.383251371837787 6.66413483796299  8.537655784970298 6.727430555555543  8.719308035714334 6.727430555555543  C 8.900960286458258 6.727430555555543  9.055364699590768 6.66413483796299  9.18252127511164 6.5375434027777715  C 9.309677850632397 6.410951967592609  9.37325613839289 6.257233796296305  9.37325613839289 6.076388888888857  C 9.37325613839289 5.29875578703701  9.650275820777438 4.634150752314838  10.204315185546875 4.0825737847222285  C 10.758354550316312 3.530996817129619  11.425926571800687 3.2552083333333712  12.20703125 3.2552083333333712  C 12.388683500744037 3.2552083333333712  12.543087913876546 3.191912615740762  12.670244489397305 3.065321180555543  Z M 24.141584123883945 6.876627604166629  C 24.32323637462798 7.193106192129619  24.4140625 7.505063657407391  24.4140625 7.8125  C 24.4140625 8.11993634259261  24.32323637462798 8.431893807870381  24.141584123883945 8.748372395833371  C 22.870018368675687 10.828088831018533  21.16021655854729 12.494122540509238  19.012178693498868 13.746473524305543  C 16.864140828450445 14.998824508101848  14.595758347284232 15.625  12.20703125 15.625  C 9.818304152715768 15.625  7.549921671549555 14.996563946759238  5.401883806501132 13.739691840277771  C 3.2538459414527097 12.482819733796305  1.5440441313243127 10.819046585648152  0.2724783761160552 8.748372395833371  C 0.0908261253720184 8.431893807870381  0 8.11993634259261  0 7.8125  C 0 7.505063657407391  0.0908261253720184 7.193106192129619  0.2724783761160552 6.876627604166629  C 1.5440441313243127 4.805953414351848  3.2538459414527097 3.1421802662036953  5.401883806501132 1.8853081597222285  C 7.549921671549555 0.6284360532407618  9.818304152715768 0  12.20703125 0  C 14.595758347284232 0  16.864140828450445 0.6284360532407618  19.012178693498868 1.8853081597222285  C 21.16021655854729 3.1421802662036953  22.870018368675687 4.805953414351848  24.141584123883945 6.876627604166629  Z " fill-rule="nonzero" fill="#c4c4c4" stroke="none" transform="matrix(1 0 0 1 277 8 )" />
  </g>
</svg>