<?xml version="1.0" encoding="utf-8"?>
<svg version="1.1" xmlns:xlink="http://www.w3.org/1999/xlink" width="25px" height="19px" xmlns="http://www.w3.org/2000/svg">
  <g transform="matrix(1 0 0 1 -277 -7 )">
    <path d="M 1.7857142857143344 9.500000000000085  C 3.3389136904762613 11.931547619047613  5.324590773809405 13.698660714285682  7.742745535714334 14.801339285714235  L 8.830915178571445 12.808035714285683  C 8.02176339285711 12.214285714285742  7.389322916666628 11.465029761904724  6.93359375 10.56026785714286  C 6.477864583333372 9.655505952380935  6.25 8.698908730158708  6.25 7.690476190476181  C 6.25 6.550099206349197  6.533668154761813 5.489831349206367  7.101004464285666 4.5096726190476355  C 4.971168154761813 5.612351190476187  3.199404761904703 7.275793650793651  1.7857142857143344 9.500000000000085  Z M 12.974330357142891 4.552083333333358  C 13.104538690476147 4.420138888888958  13.169642857142891 4.259920634920591  13.169642857142891 4.071428571428544  C 13.169642857142891 3.8829365079364377  13.104538690476147 3.722718253968242  12.974330357142891 3.5907738095237853  C 12.844122023809405 3.4588293650793855  12.686011904761813 3.3928571428571  12.5 3.3928571428571  C 11.337425595238187 3.3928571428571  10.339936755952408 3.8146081349207064  9.50753348214289 4.658110119047635  C 8.675130208333371 5.50161210317462  8.258928571428555 6.512400793650821  8.258928571428555 7.690476190476181  C 8.258928571428555 7.878968253968286  8.324032738095298 8.039186507936483  8.454241071428555 8.171130952380938  C 8.584449404761813 8.303075396825395  8.742559523809405 8.369047619047624  8.928571428571445 8.369047619047624  C 9.114583333333371 8.369047619047624  9.272693452380963 8.303075396825395  9.402901785714334 8.171130952380938  C 9.533110119047592 8.039186507936483  9.598214285714334 7.878968253968286  9.598214285714334 7.690476190476181  C 9.598214285714334 6.879960317460282  9.881882440476147 6.187251984126912  10.44921875 5.612351190476187  C 11.016555059523853 5.037450396825405  11.700148809523853 4.750000000000043  12.5 4.750000000000043  C 12.686011904761813 4.750000000000043  12.844122023809405 4.684027777777814  12.974330357142891 4.552083333333358  Z M 18.010602678571445 0.9895833333333114  C 18.159412202380963 1.0838293650793924  18.233816964285666 1.2110615079365026  18.233816964285666 1.3712797619048118  C 18.233816964285666 1.4372519841269835  18.22916666666663 1.4796626984127057  18.219866071428555 1.4985119047618651  C 17.234002976190595 3.27976190476186  15.764508928571445 5.951636904761909  13.811383928571445 9.514136904761898  C 11.858258928571445 13.076636904761944  10.393415178571445 15.743799603174645  9.416852678571445 17.515625000000004  L 8.733258928571445 18.773809523809575  C 8.640252976190595 18.92460317460319  8.51004464285711 19  8.342633928571445 19  C 8.231026785714334 19  7.607886904761813 18.670138888888857  6.473214285714334 18.01041666666669  C 6.324404761904702 17.916170634920608  6.25 17.78422619047615  6.25 17.614583333333318  C 6.25 17.501488095238077  6.454613095238187 17.091517857142836  6.863839285714334 16.384672619047542  C 5.533854166666629 15.772073412698441  4.308500744047592 14.956845238095195  3.1877790178571104 13.938988095238088  C 2.0670572916666288 12.921130952380983  1.0974702380952976 11.766617063492129  0.2790178571428896 10.47544642857147  C 0.09300595238096321 10.183283730158703  0 9.858134920634908  0 9.500000000000085  C 0 9.141865079365092  0.09300595238096321 8.816716269841296  0.2790178571428896 8.524553571428587  C 1.7020089285714448 6.30977182539679  3.4691220238094047 4.561507936507937  5.58035714285711 3.27976190476186  C 7.691592261904702 1.9980158730159527  9.998139880952408 1.3571428571428856  12.5 1.3571428571428856  C 13.327752976190595 1.3571428571428856  14.164806547619035 1.4372519841269835  15.011160714285666 1.5974702380952361  L 15.764508928571445 0.22619047619048094  C 15.857514880952408 0.07539682539680802  15.987723214285666 0  16.155133928571445 0  C 16.201636904761813 0  16.285342261904702 0.028273809523795906  16.40625 0.08482142857144455  C 16.527157738095298 0.14136904761903638  16.671316964285666 0.21440972222228474  16.838727678571445 0.3039434523809623  C 17.00613839285711 0.39347718253963987  17.159598214285666 0.48065476190475775  17.29910714285711 0.5654761904762023  C 17.438616071428555 0.6502976190476469  17.585100446428555 0.7374751984126511  17.73856026785711 0.8270089285714424  C 17.892020089285666 0.9165426587301767  17.98270089285711 0.9707341269840952  18.010602678571445 0.9895833333333114  Z M 18.63839285714289 6.502976190476241  C 18.712797619047592 6.927083333333294  18.75 7.322916666666664  18.75 7.690476190476181  C 18.75 9.000496031746055  18.382626488095298 10.195064484126958  17.647879464285666 11.274181547619003  C 16.913132440476147 12.353298611111105  15.941220238095296 13.128472222222245  14.732142857142891 13.599702380952367  L 18.63839285714289 6.502976190476241  Z M 24.72098214285711 8.524553571428587  C 24.906994047619037 8.844990079365092  25 9.170138888888888  25 9.500000000000085  C 25 9.829861111111171  24.906994047619037 10.155009920634908  24.72098214285711 10.47544642857147  C 24.358258928571445 11.078621031746048  23.851376488095298 11.76190476190478  23.200334821428555 12.525297619047667  C 21.805245535714334 14.14632936507941  20.189267113095298 15.40451388888887  18.352399553571445 16.29985119047621  C 16.515531994047592 17.1951884920635  14.564732142857109 17.642857142857114  12.5 17.642857142857114  L 13.532366071428555 15.776785714285731  C 15.504092261904704 15.607142857142843  17.329334077380963 14.9615575396826  19.00809151785711 13.840029761904718  C 20.68684895833337 12.71850198412695  22.088913690476147 11.271825396825443  23.214285714285666 9.500000000000085  C 22.144717261904702 7.812996031746057  20.83333333333337 6.42757936507932  19.280133928571445 5.343749999999984  L 20.159040178571445 3.7604166666666745  C 21.042596726190595 4.363591269841309  21.89127604166663 5.0845734126984174  22.705078125 5.9233630952381136  C 23.51888020833337 6.762152777777809  24.190848214285666 7.629216269841243  24.72098214285711 8.524553571428587  Z " fill-rule="nonzero" fill="#c4c4c4" stroke="none" transform="matrix(1 0 0 1 277 7 )" />
  </g>
</svg>