<?xml version="1.0" encoding="utf-8"?>
<svg version="1.1" xmlns:xlink="http://www.w3.org/1999/xlink" width="424px" height="61px" xmlns="http://www.w3.org/2000/svg">
  <defs>
    <filter x="90px" y="396px" width="424px" height="61px" filterUnits="userSpaceOnUse" id="filter1">
      <feOffset dx="5" dy="5" in="SourceAlpha" result="shadowOffsetInner" />
      <feGaussianBlur stdDeviation="2.5" in="shadowOffsetInner" result="shadowGaussian" />
      <feComposite in2="shadowGaussian" operator="atop" in="SourceAlpha" result="shadowComposite" />
      <feColorMatrix type="matrix" values="0 0 0 0 0  0 0 0 0 0  0 0 0 0 0  0 0 0 0.34901960784313724 0  " in="shadowComposite" />
    </filter>
    <g id="widget2">
      <path d="M 91 401  A 4 4 0 0 1 95 397 L 499 397  A 4 4 0 0 1 503 401 L 503 442  A 4 4 0 0 1 499 446 L 95 446  A 4 4 0 0 1 91 442 L 91 401  Z " fill-rule="nonzero" fill="#f4a820" stroke="none" />
      <path d="M 90.5 401  A 4.5 4.5 0 0 1 95 396.5 L 499 396.5  A 4.5 4.5 0 0 1 503.5 401 L 503.5 442  A 4.5 4.5 0 0 1 499 446.5 L 95 446.5  A 4.5 4.5 0 0 1 90.5 442 L 90.5 401  Z " stroke-width="1" stroke="#000000" fill="none" stroke-opacity="0.34901960784313724" />
    </g>
  </defs>
  <g transform="matrix(1 0 0 1 -90 -396 )">
    <use xlink:href="#widget2" filter="url(#filter1)" />
    <use xlink:href="#widget2" />
  </g>
</svg>