<?xml version="1.0" encoding="utf-8"?>
<svg version="1.1" xmlns:xlink="http://www.w3.org/1999/xlink" width="420px" height="51px" xmlns="http://www.w3.org/2000/svg">
  <g transform="matrix(1 0 0 1 -91 -396 )">
    <path d="M 92 399  A 2 2 0 0 1 94 397 L 508 397  A 2 2 0 0 1 510 399 L 510 444  A 2 2 0 0 1 508 446 L 94 446  A 2 2 0 0 1 92 444 L 92 399  Z " fill-rule="nonzero" fill="#f4a820" stroke="none" />
    <path d="M 91.5 399  A 2.5 2.5 0 0 1 94 396.5 L 508 396.5  A 2.5 2.5 0 0 1 510.5 399 L 510.5 444  A 2.5 2.5 0 0 1 508 446.5 L 94 446.5  A 2.5 2.5 0 0 1 91.5 444 L 91.5 399  Z " stroke-width="1" stroke="#000000" fill="none" stroke-opacity="0.34901960784313724" />
  </g>
</svg>