<?xml version="1.0" encoding="utf-8"?>
<svg version="1.1" xmlns:xlink="http://www.w3.org/1999/xlink" width="54px" height="49px" xmlns="http://www.w3.org/2000/svg">
  <g transform="matrix(1 0 0 1 -99 -273 )">
    <path d="M 39.7265625 33.17708333333333  C 40.171875 32.77300347222222  40.39453125 32.28385416666667  40.39453125 31.70963541666667  C 40.39453125 31.156684027777775  40.171875 30.678168402777775  39.7265625 30.27408854166667  L 33.36328125 24.5  L 39.7265625 18.725911458333336  C 40.171875 18.321831597222218  40.39453125 17.843315972222218  40.39453125 17.290364583333336  C 40.39453125 16.716145833333336  40.171875 16.22699652777777  39.7265625 15.822916666666664  L 36.5625 12.951822916666664  C 36.11718750000001 12.547743055555554  35.578125 12.345703125  34.9453125 12.345703125  C 34.33593750000001 12.345703125  33.80859375000001 12.547743055555554  33.36328125 12.951822916666664  L 27 18.725911458333336  L 20.63671875 12.951822916666664  C 20.19140625 12.547743055555554  19.6640625 12.345703125  19.0546875 12.345703125  C 18.421875 12.345703125  17.8828125 12.547743055555554  17.4375 12.951822916666664  L 14.273437500000002 15.822916666666664  C 13.828125 16.22699652777777  13.605468750000004 16.716145833333336  13.60546875 17.290364583333336  C 13.605468750000004 17.843315972222218  13.828125 18.321831597222218  14.273437500000002 18.725911458333336  L 20.63671875 24.5  L 14.273437500000002 30.27408854166667  C 13.828125 30.678168402777775  13.605468750000004 31.156684027777775  13.60546875 31.70963541666667  C 13.605468750000004 32.28385416666667  13.828125 32.77300347222222  14.273437500000002 33.17708333333333  L 17.4375 36.04817708333333  C 17.8828125 36.452256944444436  18.421875 36.654296875  19.0546875 36.654296875  C 19.6640625 36.654296875  20.19140625 36.452256944444436  20.63671875 36.04817708333333  L 27 30.27408854166667  L 33.36328125 36.04817708333333  C 33.80859375000001 36.452256944444436  34.33593750000001 36.654296875  34.9453125 36.654296875  C 35.578125 36.654296875  36.11718750000001 36.452256944444436  36.5625 36.04817708333333  L 39.7265625 33.17708333333333  Z M 50.37890625 12.2021484375  C 52.79296874999999 15.955837673611107  54 20.05512152777777  54 24.5  C 54 28.944878472222225  52.79296874999999 33.044162326388886  50.37890625 36.7978515625  C 47.96484375000001 40.551540798611114  44.689453125 43.523654513888886  40.552734375 45.714192708333336  C 36.41601562500001 47.90473090277778  31.8984375 49  27 49  C 22.1015625 49  17.583984375 47.90473090277778  13.447265625 45.714192708333336  C 9.310546875 43.523654513888886  6.035156250000001 40.551540798611114  3.6210937500000004 36.7978515625  C 1.2070312499999998 33.044162326388886  0 28.944878472222225  0 24.5  C 0 20.05512152777777  1.2070312499999998 15.955837673611107  3.6210937500000004 12.2021484375  C 6.035156250000001 8.448459201388888  9.310546875 5.476345486111106  13.447265625 3.2858072916666647  C 17.583984375 1.0952690972222179  22.1015625 0  27 0  C 31.8984375 0  36.41601562500001 1.0952690972222179  40.552734375 3.2858072916666647  C 44.689453125 5.476345486111106  47.96484375000001 8.448459201388888  50.37890625 12.2021484375  Z " fill-rule="nonzero" fill="#d9001b" stroke="none" transform="matrix(1 0 0 1 99 273 )" />
  </g>
</svg>