<?xml version="1.0" encoding="utf-8"?>
<svg version="1.1" xmlns:xlink="http://www.w3.org/1999/xlink" width="12px" height="13px" xmlns="http://www.w3.org/2000/svg">
  <g transform="matrix(1 0 0 1 -99 -346 )">
    <path d="M 4.3921051921270235 13  C 4.3921051921270235 13  4.384624083068896 13  4.384624083068896 13  C 4.282047764692271 12.999523887034801  4.180635854882228 12.968615743803417  4.0866888791570695 12.909195877581716  C 3.9927419034319103 12.849776011360017  3.908267687639797 12.763114440364273  3.8385159637064663 12.65459599087743  C 3.8385159637064663 12.65459599087743  0.2027800769632947 7.0741570642189044  0.2027800769632947 7.0741570642189044  C 0.0668714193595873 6.865178771190091  -0.005934419654380172 6.586860837442032  0.00037884602418897587 6.300430013766838  C 0.006692111702758125 6.013999190091645  0.09160739013978983 5.742918364690253  0.23644435428704197 5.546822295975468  C 0.3812813184342941 5.350726227260683  0.5741756329947397 5.245677652140799  0.7726927628747882 5.254786759699856  C 0.9712098927548367 5.263895867258914  1.159088371522273 5.386416570402659  1.2949970291259802 5.595394863431472  C 1.2949970291259802 5.595394863431472  4.377143687448596 10.333909973776016  4.377143687448596 10.333909973776016  C 4.377143687448596 10.333909973776016  10.668612290892858 0.4035356722138384  10.668612290892858 0.4035356722138384  C 10.732459307958768 0.2888208308040813  10.811885410469912 0.1941500000138571  10.902013476127122 0.1253376457510386  C 10.99214154178433 0.05652529148822011  11.091069093867372 0.015024320768285018  11.19271798765824 0.003383813395952333  C 11.294366881449108 -0.008256693976380352  11.39659108481551 0.010209124207135888  11.493113838636773 0.05764682268793366  C 11.589636592458035 0.10508452116873142  11.678418936013308 0.18049241546550618  11.754008063987763 0.27923947471505434  C 11.829597191962218 0.37798653396460247  11.89039797720905 0.4979876299875888  11.932674299103814 0.6318723088507009  C 11.97495062099858 0.7657569877138132  11.997810231133013 0.9106987427762898  11.999850178056246 1.0577948240218584  C 12.00189012497948 1.204890905267427  11.983066424970776 1.3510356898816507  11.944535916422186 1.4872533415029563  C 11.906005407873593 1.6234709931242617  11.848581594189906 1.7468856026669943  11.775790747733975 1.8499165366606014  C 11.775790747733975 1.8499165366606014  4.93821402492728 12.643801858246064  4.93821402492728 12.643801858246064  C 4.869120937878234 12.7542828626803  4.784940892567797 12.842956913802968  4.690961444274025 12.904254828885305  C 4.5969819959802525 12.965552743967644  4.495233120566356 12.998150171019383  4.3921051921270235 13  Z " fill-rule="nonzero" fill="#ffffff" stroke="none" transform="matrix(1 0 0 1 99 346 )" />
  </g>
</svg>