<?xml version="1.0" encoding="utf-8"?>
<svg version="1.1" xmlns:xlink="http://www.w3.org/1999/xlink" width="19px" height="19px" viewBox="455 428.5  19 19" xmlns="http://www.w3.org/2000/svg">
  <path d="M 464.5 428.5  C 469.82 428.5  474 432.68  474 438  C 474 443.32  469.82 447.5  464.5 447.5  C 459.18 447.5  455 443.32  455 438  C 455 432.68  459.18 428.5  464.5 428.5  Z " fill-rule="nonzero" fill="#ffffff" stroke="none" />
  <path d="M 464.5 429  C 469.54 429  473.5 432.96  473.5 438  C 473.5 443.04  469.54 447  464.5 447  C 459.46 447  455.5 443.04  455.5 438  C 455.5 432.96  459.46 429  464.5 429  Z " stroke-width="1" stroke="#f59a23" fill="none" />
  <path d="M 464.5 442.75  C 461.84 442.75  459.75 440.66  459.75 438  C 459.75 435.34  461.84 433.25  464.5 433.25  C 467.16 433.25  469.25 435.34  469.25 438  C 469.25 440.66  467.16 442.75  464.5 442.75  " fill-rule="nonzero" fill="#f59a23" stroke="none" />
</svg>