<?xml version="1.0" encoding="utf-8"?>
<svg version="1.1" xmlns:xlink="http://www.w3.org/1999/xlink" width="19px" height="19px" viewBox="347 1124  19 19" xmlns="http://www.w3.org/2000/svg">
  <path d="M 356.5 1124  C 361.82 1124  366 1128.18  366 1133.5  C 366 1138.82  361.82 1143  356.5 1143  C 351.18 1143  347 1138.82  347 1133.5  C 347 1128.18  351.18 1124  356.5 1124  Z " fill-rule="nonzero" fill="#ffffff" stroke="none" />
  <path d="M 356.5 1124.5  C 361.54 1124.5  365.5 1128.46  365.5 1133.5  C 365.5 1138.54  361.54 1142.5  356.5 1142.5  C 351.46 1142.5  347.5 1138.54  347.5 1133.5  C 347.5 1128.46  351.46 1124.5  356.5 1124.5  Z " stroke-width="1" stroke="#f59a23" fill="none" />
  <path d="M 356.5 1138.25  C 353.84 1138.25  351.75 1136.16  351.75 1133.5  C 351.75 1130.84  353.84 1128.75  356.5 1128.75  C 359.16 1128.75  361.25 1130.84  361.25 1133.5  C 361.25 1136.16  359.16 1138.25  356.5 1138.25  " fill-rule="nonzero" fill="#f59a23" stroke="none" />
</svg>