<?xml version="1.0" encoding="utf-8"?>
<svg version="1.1" xmlns:xlink="http://www.w3.org/1999/xlink" width="19px" height="19px" viewBox="1206 208  19 19" xmlns="http://www.w3.org/2000/svg">
  <path d="M 1215.5 208  C 1220.82 208  1225 212.18  1225 217.5  C 1225 222.82  1220.82 227  1215.5 227  C 1210.18 227  1206 222.82  1206 217.5  C 1206 212.18  1210.18 208  1215.5 208  Z " fill-rule="nonzero" fill="#f0f0f0" stroke="none" />
  <path d="M 1215.5 208.5  C 1220.54 208.5  1224.5 212.46  1224.5 217.5  C 1224.5 222.54  1220.54 226.5  1215.5 226.5  C 1210.46 226.5  1206.5 222.54  1206.5 217.5  C 1206.5 212.46  1210.46 208.5  1215.5 208.5  Z " stroke-width="1" stroke="#f59a23" fill="none" />
  <path d="M 1215.5 222.25  C 1212.84 222.25  1210.75 220.16  1210.75 217.5  C 1210.75 214.84  1212.84 212.75  1215.5 212.75  C 1218.16 212.75  1220.25 214.84  1220.25 217.5  C 1220.25 220.16  1218.16 222.25  1215.5 222.25  " fill-rule="nonzero" fill="#f59a23" stroke="none" />
</svg>