<?xml version="1.0" encoding="utf-8"?>
<svg version="1.1" xmlns:xlink="http://www.w3.org/1999/xlink" width="19px" height="19px" viewBox="1085 208  19 19" xmlns="http://www.w3.org/2000/svg">
  <path d="M 1094.5 208  C 1099.82 208  1104 212.18  1104 217.5  C 1104 222.82  1099.82 227  1094.5 227  C 1089.18 227  1085 222.82  1085 217.5  C 1085 212.18  1089.18 208  1094.5 208  Z " fill-rule="nonzero" fill="#ffffff" stroke="none" />
  <path d="M 1094.5 208.5  C 1099.54 208.5  1103.5 212.46  1103.5 217.5  C 1103.5 222.54  1099.54 226.5  1094.5 226.5  C 1089.46 226.5  1085.5 222.54  1085.5 217.5  C 1085.5 212.46  1089.46 208.5  1094.5 208.5  Z " stroke-width="1" stroke="#f59a23" fill="none" />
  <path d="M 1094.5 222.25  C 1091.84 222.25  1089.75 220.16  1089.75 217.5  C 1089.75 214.84  1091.84 212.75  1094.5 212.75  C 1097.16 212.75  1099.25 214.84  1099.25 217.5  C 1099.25 220.16  1097.16 222.25  1094.5 222.25  " fill-rule="nonzero" fill="#f59a23" stroke="none" />
</svg>