<?xml version="1.0" encoding="utf-8"?>
<svg version="1.1" xmlns:xlink="http://www.w3.org/1999/xlink" width="19px" height="19px" viewBox="1206 256  19 19" xmlns="http://www.w3.org/2000/svg">
  <path d="M 1215.5 256  C 1220.82 256  1225 260.18  1225 265.5  C 1225 270.82  1220.82 275  1215.5 275  C 1210.18 275  1206 270.82  1206 265.5  C 1206 260.18  1210.18 256  1215.5 256  Z " fill-rule="nonzero" fill="#ffffff" stroke="none" />
  <path d="M 1215.5 256.5  C 1220.54 256.5  1224.5 260.46  1224.5 265.5  C 1224.5 270.54  1220.54 274.5  1215.5 274.5  C 1210.46 274.5  1206.5 270.54  1206.5 265.5  C 1206.5 260.46  1210.46 256.5  1215.5 256.5  Z " stroke-width="1" stroke="#f59a23" fill="none" />
  <path d="M 1215.5 270.25  C 1212.84 270.25  1210.75 268.16  1210.75 265.5  C 1210.75 262.84  1212.84 260.75  1215.5 260.75  C 1218.16 260.75  1220.25 262.84  1220.25 265.5  C 1220.25 268.16  1218.16 270.25  1215.5 270.25  " fill-rule="nonzero" fill="#f59a23" stroke="none" />
</svg>