<?xml version="1.0" encoding="utf-8"?>
<svg version="1.1" xmlns:xlink="http://www.w3.org/1999/xlink" width="19px" height="19px" viewBox="235 1124  19 19" xmlns="http://www.w3.org/2000/svg">
  <path d="M 244.5 1124  C 249.82 1124  254 1128.18  254 1133.5  C 254 1138.82  249.82 1143  244.5 1143  C 239.18 1143  235 1138.82  235 1133.5  C 235 1128.18  239.18 1124  244.5 1124  Z " fill-rule="nonzero" fill="#ffffff" stroke="none" />
  <path d="M 244.5 1124.5  C 249.54 1124.5  253.5 1128.46  253.5 1133.5  C 253.5 1138.54  249.54 1142.5  244.5 1142.5  C 239.46 1142.5  235.5 1138.54  235.5 1133.5  C 235.5 1128.46  239.46 1124.5  244.5 1124.5  Z " stroke-width="1" stroke="#f59a23" fill="none" />
  <path d="M 244.5 1138.25  C 241.84 1138.25  239.75 1136.16  239.75 1133.5  C 239.75 1130.84  241.84 1128.75  244.5 1128.75  C 247.16 1128.75  249.25 1130.84  249.25 1133.5  C 249.25 1136.16  247.16 1138.25  244.5 1138.25  " fill-rule="nonzero" fill="#f59a23" stroke="none" />
</svg>