<?xml version="1.0" encoding="utf-8"?>
<svg version="1.1" xmlns:xlink="http://www.w3.org/1999/xlink" width="19px" height="19px" viewBox="1085 256  19 19" xmlns="http://www.w3.org/2000/svg">
  <path d="M 1094.5 256  C 1099.82 256  1104 260.18  1104 265.5  C 1104 270.82  1099.82 275  1094.5 275  C 1089.18 275  1085 270.82  1085 265.5  C 1085 260.18  1089.18 256  1094.5 256  Z " fill-rule="nonzero" fill="#f0f0f0" stroke="none" />
  <path d="M 1094.5 256.5  C 1099.54 256.5  1103.5 260.46  1103.5 265.5  C 1103.5 270.54  1099.54 274.5  1094.5 274.5  C 1089.46 274.5  1085.5 270.54  1085.5 265.5  C 1085.5 260.46  1089.46 256.5  1094.5 256.5  Z " stroke-width="1" stroke="#f59a23" fill="none" />
  <path d="M 1094.5 270.25  C 1091.84 270.25  1089.75 268.16  1089.75 265.5  C 1089.75 262.84  1091.84 260.75  1094.5 260.75  C 1097.16 260.75  1099.25 262.84  1099.25 265.5  C 1099.25 268.16  1097.16 270.25  1094.5 270.25  " fill-rule="nonzero" fill="#f59a23" stroke="none" />
</svg>