<?xml version="1.0" encoding="utf-8"?>
<svg version="1.1" xmlns:xlink="http://www.w3.org/1999/xlink" width="22px" height="20px" xmlns="http://www.w3.org/2000/svg">
  <g transform="matrix(1 0 0 1 -1254 -43 )">
    <path d="M 16.671875 18.0859375  C 16.83934294871795 17.921006944444443  16.923076923076923 17.725694444444443  16.923076923076923 17.5  C 16.923076923076923 17.274305555555557  16.83934294871795 17.078993055555557  16.671875 16.9140625  C 16.504407051282055 16.749131944444443  16.306089743589748 16.666666666666668  16.076923076923077 16.666666666666668  C 15.84775641025641 16.666666666666668  15.649439102564104 16.749131944444443  15.481971153846155 16.9140625  C 15.314503205128208 17.078993055555557  15.23076923076923 17.274305555555557  15.23076923076923 17.5  C 15.23076923076923 17.725694444444443  15.314503205128208 17.921006944444443  15.481971153846155 18.0859375  C 15.649439102564104 18.250868055555557  15.84775641025641 18.333333333333332  16.076923076923077 18.333333333333332  C 16.306089743589748 18.333333333333332  16.504407051282055 18.250868055555557  16.671875 18.0859375  Z M 20.056490384615383 18.0859375  C 20.223958333333332 17.921006944444443  20.30769230769231 17.725694444444443  20.30769230769231 17.5  C 20.30769230769231 17.274305555555557  20.223958333333332 17.078993055555557  20.056490384615383 16.9140625  C 19.889022435897438 16.749131944444443  19.690705128205128 16.666666666666668  19.46153846153846 16.666666666666668  C 19.232371794871796 16.666666666666668  19.03405448717949 16.749131944444443  18.86658653846154 16.9140625  C 18.69911858974359 17.078993055555557  18.615384615384617 17.274305555555557  18.615384615384617 17.5  C 18.615384615384617 17.725694444444443  18.69911858974359 17.921006944444443  18.86658653846154 18.0859375  C 19.03405448717949 18.250868055555557  19.232371794871796 18.333333333333332  19.46153846153846 18.333333333333332  C 19.690705128205128 18.333333333333332  19.889022435897438 18.250868055555557  20.056490384615383 18.0859375  Z M 21.62980769230769 13.697916666666664  C 21.876602564102566 13.940972222222218  22 14.23611111111111  22 14.583333333333336  L 22 18.75  C 22 19.09722222222222  21.876602564102566 19.39236111111111  21.62980769230769 19.635416666666668  C 21.38301282051282 19.87847222222222  21.083333333333336 20  20.73076923076923 20  L 1.2692307692307694 20  C 0.9166666666666667 20  0.6169871794871796 19.87847222222222  0.37019230769230765 19.635416666666668  C 0.12339743589743588 19.39236111111111  0 19.09722222222222  0 18.75  L 0 14.583333333333336  C 0 14.23611111111111  0.12339743589743588 13.940972222222218  0.37019230769230765 13.697916666666664  C 0.6169871794871796 13.45486111111111  0.9166666666666667 13.333333333333336  1.2692307692307694 13.333333333333336  L 7.4170673076923075 13.333333333333336  L 9.201923076923077 15.104166666666668  C 9.713141025641027 15.590277777777777  10.3125 15.833333333333332  11 15.833333333333332  C 11.6875 15.833333333333332  12.286858974358974 15.590277777777777  12.798076923076923 15.104166666666668  L 14.596153846153845 13.333333333333336  L 20.73076923076923 13.333333333333336  C 21.083333333333336 13.333333333333336  21.38301282051282 13.45486111111111  21.62980769230769 13.697916666666664  Z M 16.923076923076923 6.666666666666668  C 17.29326923076923 6.666666666666668  17.55328525641026 6.8359375  17.703125 7.174479166666668  C 17.852964743589748 7.530381944444445  17.79126602564103 7.834201388888888  17.518028846153847 8.0859375  L 11.594951923076923 13.919270833333336  C 11.436298076923077 14.08420138888889  11.23798076923077 14.166666666666664  11 14.166666666666664  C 10.76201923076923 14.166666666666664  10.563701923076923 14.08420138888889  10.405048076923077 13.919270833333336  L 4.481971153846154 8.0859375  C 4.2087339743589745 7.834201388888888  4.147035256410257 7.530381944444445  4.296875 7.174479166666668  C 4.4467147435897445 6.8359375  4.706730769230769 6.666666666666668  5.0769230769230775 6.666666666666668  L 8.461538461538462 6.666666666666668  L 8.461538461538462 0.8333333333333326  C 8.461538461538462 0.6076388888888862  8.545272435897436 0.4123263888888862  8.712740384615385 0.2473958333333326  C 8.880208333333334 0.08246527777777901  9.078525641025642 0  9.307692307692308 0  L 12.692307692307692 0  C 12.92147435897436 0  13.119791666666668 0.08246527777777901  13.287259615384615 0.2473958333333326  C 13.454727564102564 0.4123263888888862  13.53846153846154 0.6076388888888862  13.53846153846154 0.8333333333333326  L 13.53846153846154 6.666666666666668  L 16.923076923076923 6.666666666666668  Z " fill-rule="nonzero" fill="#7f7f7f" stroke="none" transform="matrix(1 0 0 1 1254 43 )" />
  </g>
</svg>