<?xml version="1.0" encoding="utf-8"?>
<svg version="1.1" xmlns:xlink="http://www.w3.org/1999/xlink" width="50px" height="50px" xmlns="http://www.w3.org/2000/svg">
  <g transform="matrix(1 0 0 1 -715 -328 )">
    <path d="M 34.53776041666667 23.307291666666668  C 35.12369791666667 23.719618055555554  35.41666666666667 24.283854166666668  35.41666666666667 25  C 35.41666666666667 25.716145833333336  35.12369791666667 26.280381944444443  34.53776041666667 26.692708333333336  L 19.954427083333336 37.109375  C 19.28168402777778 37.60850694444444  18.565538194444446 37.66276041666667  17.805989583333336 37.272135416666664  C 17.046440972222225 36.90321180555555  16.666666666666664 36.28472222222222  17 35.416666666666664  L 17 14.583333333333332  C 16.666666666666664 13.715277777777773  17.046440972222225 13.096788194444443  17.805989583333336 12.727864583333332  C 18.565538194444446 12.337239583333332  19.28168402777778 12.391493055555552  19.954427083333336 12.890625  L 34.53776041666667 23.307291666666668  Z M 41.37369791666667 41.37369791666667  C 41.56901041666667 41.17838541666667  41.66666666666667 40.92881944444444  41 40.625  L 41 9.375  C 41.66666666666667 9.071180555555552  41.56901041666667 8.821614583333332  41.37369791666667 8.626302083333332  C 41.17838541666667 8.430989583333332  40.92881944444445 8.333333333333332  40.625 9  L 9.375 9  C 9.071180555555557 8.333333333333332  8.821614583333332 8.430989583333332  8.626302083333332 8.626302083333332  C 8.430989583333332 8.821614583333332  8.333333333333332 9.071180555555552  9 9.375  L 9 40.625  C 8.333333333333332 40.92881944444444  8.430989583333332 41.17838541666667  8.626302083333332 41.37369791666667  C 8.821614583333332 41.56901041666667  9.071180555555557 41.66666666666667  9.375 41  L 40.625 41  C 40.92881944444445 41.66666666666667  41.17838541666667 41.56901041666667  41.37369791666667 41.37369791666667  Z M 47.24934895833333 2.7506510416666687  C 49.08311631944444 4.584418402777773  50 6.792534722222215  50 9.375  L 50 40.625  C 50 43.20746527777777  49.08311631944444 45.41558159722223  47.24934895833333 47.24934895833333  C 45.41558159722223 49.08311631944444  43.207465277777786 50  40.625 50  L 9.375 50  C 6.792534722222222 50  4.584418402777779 49.08311631944444  2.750651041666667 47.24934895833333  C 0.9168836805555555 45.41558159722223  0 43.20746527777777  0 40.625  L 0 9.375  C 0 6.792534722222215  0.9168836805555555 4.584418402777773  2.750651041666667 2.7506510416666687  C 4.584418402777779 0.9168836805555525  6.792534722222222 0  9.375 0  L 40.625 0  C 43.207465277777786 0  45.41558159722223 0.9168836805555525  47.24934895833333 2.7506510416666687  Z " fill-rule="nonzero" fill="#63a103" stroke="none" transform="matrix(1 0 0 1 715 328 )" />
  </g>
</svg>