<?xml version="1.0" encoding="utf-8"?>
<svg version="1.1" xmlns:xlink="http://www.w3.org/1999/xlink" width="50px" height="50px" xmlns="http://www.w3.org/2000/svg">
  <g transform="matrix(1 0 0 1 -715 -397 )">
    <path d="M 32.71484375 13.118489583333332  C 33.12717013888889 13.530815972222216  33.33333333333333 14.019097222222216  33 14.583333333333332  L 33 35.416666666666664  C 33.33333333333333 35.98090277777778  33.12717013888889 36.46918402777778  32.71484375 36.881510416666664  C 32.30251736111111 37.29383680555555  31.81423611111111 37.5  31.25 37.5  C 30.815972222222225 37.5  30.41449652777778 37.369791666666664  30.045572916666668 37.109375  L 15.462239583333334 26.692708333333336  C 14.876302083333334 26.280381944444443  14.583333333333334 25.716145833333336  14.583333333333334 25  C 14.583333333333334 24.283854166666668  14.876302083333334 23.719618055555554  15.462239583333334 23.307291666666668  L 30.045572916666668 12.890625  C 30.41449652777778 12.630208333333332  30.815972222222225 12.5  31.25 12.5  C 31.81423611111111 12.5  32.30251736111111 12.706163194444443  32.71484375 13.118489583333332  Z M 41.357421875 41.357421875  C 41.56358506944445 41.15125868055556  41.66666666666667 40.90711805555556  41 40.625  L 41 9.375  C 41.66666666666667 9.092881944444443  41.56358506944445 8.848741319444443  41.357421875 8.642578125  C 41.15125868055556 8.436414930555552  40.90711805555556 8.333333333333332  40.625 9  L 9.375 9  C 9.092881944444446 8.333333333333332  8.848741319444446 8.436414930555552  8.642578125 8.642578125  C 8.436414930555557 8.848741319444443  8.333333333333332 9.092881944444443  9 9.375  L 9 40.625  C 8.333333333333332 40.90711805555556  8.436414930555557 41.15125868055556  8.642578125 41.357421875  C 8.848741319444446 41.56358506944444  9.092881944444446 41.66666666666667  9.375 41  L 40.625 41  C 40.90711805555556 41.66666666666667  41.15125868055556 41.56358506944444  41.357421875 41.357421875  Z M 47.24934895833333 2.7506510416666687  C 49.08311631944444 4.584418402777773  50 6.792534722222215  50 9.375  L 50 40.625  C 50 43.20746527777777  49.08311631944444 45.41558159722223  47.24934895833333 47.24934895833333  C 45.41558159722223 49.08311631944444  43.207465277777786 50  40.625 50  L 9.375 50  C 6.792534722222222 50  4.584418402777779 49.08311631944444  2.750651041666667 47.24934895833333  C 0.9168836805555555 45.41558159722223  0 43.20746527777777  0 40.625  L 0 9.375  C 0 6.792534722222215  0.9168836805555555 4.584418402777773  2.750651041666667 2.7506510416666687  C 4.584418402777779 0.9168836805555525  6.792534722222222 0  9.375 0  L 40.625 0  C 43.207465277777786 0  45.41558159722223 0.9168836805555525  47.24934895833333 2.7506510416666687  Z " fill-rule="nonzero" fill="#d9001b" stroke="none" transform="matrix(1 0 0 1 715 397 )" />
  </g>
</svg>