<?xml version="1.0" encoding="utf-8"?>
<svg version="1.1" xmlns:xlink="http://www.w3.org/1999/xlink" width="15px" height="11px" xmlns="http://www.w3.org/2000/svg">
  <g transform="matrix(1 0 0 1 -73 -508 )">
    <path d="M 14.729032258064516 1.518518518518519  C 14.909677419354841 1.6913580246913575  15.000000000000004 1.9012345679012346  15 2.148148148148148  C 15.000000000000004 2.395061728395061  14.909677419354841 2.6049382716049374  14.729032258064516 2.7777777777777772  L 7.722580645161291 9.481481481481481  L 6.4064516129032265 10.74074074074074  C 6.225806451612904 10.91358024691358  6.006451612903227 11  5.748387096774194 11  C 5.490322580645161 11  5.270967741935484 10.91358024691358  5.090322580645161 10.74074074074074  L 3.7741935483870965 9.481481481481481  L 0.2709677419354839 6.129629629629631  C 0.09032258064516138 5.9567901234567895  0 5.746913580246913  0 5.5  C 0 5.253086419753086  0.09032258064516138 5.04320987654321  0.2709677419354839 4.870370370370371  L 1.5870967741935484 3.611111111111111  C 1.767741935483871 3.4382716049382713  1.9870967741935488 3.3518518518518507  2.2451612903225806 3.351851851851852  C 2.5032258064516135 3.3518518518518507  2.7225806451612904 3.4382716049382713  2.903225806451613 3.611111111111111  L 5.748387096774194 6.342592592592592  L 12.096774193548386 0.2592592592592593  C 12.277419354838711 0.08641975308641936  12.496774193548388 0  12.75483870967742 0  C 13.012903225806452 0  13.23225806451613 0.08641975308641936  13.412903225806451 0.2592592592592593  L 14.729032258064516 1.518518518518519  Z " fill-rule="nonzero" fill="#d9001b" stroke="none" transform="matrix(1 0 0 1 73 508 )" />
  </g>
</svg>