<?xml version="1.0" encoding="utf-8"?>
<svg version="1.1" xmlns:xlink="http://www.w3.org/1999/xlink" width="19px" height="19px" viewBox="985 435  19 19" xmlns="http://www.w3.org/2000/svg">
  <path d="M 994.5 435  C 999.82 435  1004 439.18  1004 444.5  C 1004 449.82  999.82 454  994.5 454  C 989.18 454  985 449.82  985 444.5  C 985 439.18  989.18 435  994.5 435  Z " fill-rule="nonzero" fill="#ffffff" stroke="none" />
  <path d="M 994.5 435.5  C 999.54 435.5  1003.5 439.46  1003.5 444.5  C 1003.5 449.54  999.54 453.5  994.5 453.5  C 989.46 453.5  985.5 449.54  985.5 444.5  C 985.5 439.46  989.46 435.5  994.5 435.5  Z " stroke-width="1" stroke="#f59a23" fill="none" />
  <path d="M 994.5 449.25  C 991.84 449.25  989.75 447.16  989.75 444.5  C 989.75 441.84  991.84 439.75  994.5 439.75  C 997.16 439.75  999.25 441.84  999.25 444.5  C 999.25 447.16  997.16 449.25  994.5 449.25  " fill-rule="nonzero" fill="#f59a23" stroke="none" />
</svg>