<?xml version="1.0" encoding="utf-8"?>
<svg version="1.1" xmlns:xlink="http://www.w3.org/1999/xlink" width="19px" height="19px" viewBox="1127 435  19 19" xmlns="http://www.w3.org/2000/svg">
  <path d="M 1136.5 435  C 1141.82 435  1146 439.18  1146 444.5  C 1146 449.82  1141.82 454  1136.5 454  C 1131.18 454  1127 449.82  1127 444.5  C 1127 439.18  1131.18 435  1136.5 435  Z " fill-rule="nonzero" fill="#ffffff" stroke="none" />
  <path d="M 1136.5 435.5  C 1141.54 435.5  1145.5 439.46  1145.5 444.5  C 1145.5 449.54  1141.54 453.5  1136.5 453.5  C 1131.46 453.5  1127.5 449.54  1127.5 444.5  C 1127.5 439.46  1131.46 435.5  1136.5 435.5  Z " stroke-width="1" stroke="#f59a23" fill="none" />
  <path d="M 1136.5 449.25  C 1133.84 449.25  1131.75 447.16  1131.75 444.5  C 1131.75 441.84  1133.84 439.75  1136.5 439.75  C 1139.16 439.75  1141.25 441.84  1141.25 444.5  C 1141.25 447.16  1139.16 449.25  1136.5 449.25  " fill-rule="nonzero" fill="#f59a23" stroke="none" />
</svg>