<?xml version="1.0" encoding="utf-8"?>
<svg version="1.1" xmlns:xlink="http://www.w3.org/1999/xlink" width="19px" height="19px" viewBox="239 1049  19 19" xmlns="http://www.w3.org/2000/svg">
  <path d="M 248.5 1049  C 253.82 1049  258 1053.18  258 1058.5  C 258 1063.82  253.82 1068  248.5 1068  C 243.18 1068  239 1063.82  239 1058.5  C 239 1053.18  243.18 1049  248.5 1049  Z " fill-rule="nonzero" fill="#ffffff" stroke="none" />
  <path d="M 248.5 1049.5  C 253.54 1049.5  257.5 1053.46  257.5 1058.5  C 257.5 1063.54  253.54 1067.5  248.5 1067.5  C 243.46 1067.5  239.5 1063.54  239.5 1058.5  C 239.5 1053.46  243.46 1049.5  248.5 1049.5  Z " stroke-width="1" stroke="#f59a23" fill="none" />
  <path d="M 248.5 1063.25  C 245.84 1063.25  243.75 1061.16  243.75 1058.5  C 243.75 1055.84  245.84 1053.75  248.5 1053.75  C 251.16 1053.75  253.25 1055.84  253.25 1058.5  C 253.25 1061.16  251.16 1063.25  248.5 1063.25  " fill-rule="nonzero" fill="#f59a23" stroke="none" />
</svg>