<?xml version="1.0" encoding="utf-8"?>
<svg version="1.1" xmlns:xlink="http://www.w3.org/1999/xlink" width="19px" height="19px" viewBox="763 938  19 19" xmlns="http://www.w3.org/2000/svg">
  <path d="M 772.5 938  C 777.82 938  782 942.18  782 947.5  C 782 952.82  777.82 957  772.5 957  C 767.18 957  763 952.82  763 947.5  C 763 942.18  767.18 938  772.5 938  Z " fill-rule="nonzero" fill="#ffffff" stroke="none" />
  <path d="M 772.5 938.5  C 777.54 938.5  781.5 942.46  781.5 947.5  C 781.5 952.54  777.54 956.5  772.5 956.5  C 767.46 956.5  763.5 952.54  763.5 947.5  C 763.5 942.46  767.46 938.5  772.5 938.5  Z " stroke-width="1" stroke="#f59a23" fill="none" />
  <path d="M 772.5 952.25  C 769.84 952.25  767.75 950.16  767.75 947.5  C 767.75 944.84  769.84 942.75  772.5 942.75  C 775.16 942.75  777.25 944.84  777.25 947.5  C 777.25 950.16  775.16 952.25  772.5 952.25  " fill-rule="nonzero" fill="#f59a23" stroke="none" />
</svg>