<?xml version="1.0" encoding="utf-8"?>
<svg version="1.1" xmlns:xlink="http://www.w3.org/1999/xlink" width="19px" height="19px" viewBox="690 886  19 19" xmlns="http://www.w3.org/2000/svg">
  <path d="M 699.5 886  C 704.82 886  709 890.18  709 895.5  C 709 900.82  704.82 905  699.5 905  C 694.18 905  690 900.82  690 895.5  C 690 890.18  694.18 886  699.5 886  Z " fill-rule="nonzero" fill="#ffffff" stroke="none" />
  <path d="M 699.5 886.5  C 704.54 886.5  708.5 890.46  708.5 895.5  C 708.5 900.54  704.54 904.5  699.5 904.5  C 694.46 904.5  690.5 900.54  690.5 895.5  C 690.5 890.46  694.46 886.5  699.5 886.5  Z " stroke-width="1" stroke="#333333" fill="none" />
  <path d="M 699.5 900.25  C 696.84 900.25  694.75 898.16  694.75 895.5  C 694.75 892.84  696.84 890.75  699.5 890.75  C 702.16 890.75  704.25 892.84  704.25 895.5  C 704.25 898.16  702.16 900.25  699.5 900.25  " fill-rule="nonzero" fill="#333333" stroke="none" />
</svg>