<?xml version="1.0" encoding="utf-8"?>
<svg version="1.1" xmlns:xlink="http://www.w3.org/1999/xlink" width="19px" height="19px" viewBox="690 937  19 19" xmlns="http://www.w3.org/2000/svg">
  <path d="M 699.5 937  C 704.82 937  709 941.18  709 946.5  C 709 951.82  704.82 956  699.5 956  C 694.18 956  690 951.82  690 946.5  C 690 941.18  694.18 937  699.5 937  Z " fill-rule="nonzero" fill="#ffffff" stroke="none" />
  <path d="M 699.5 937.5  C 704.54 937.5  708.5 941.46  708.5 946.5  C 708.5 951.54  704.54 955.5  699.5 955.5  C 694.46 955.5  690.5 951.54  690.5 946.5  C 690.5 941.46  694.46 937.5  699.5 937.5  Z " stroke-width="1" stroke="#333333" fill="none" />
  <path d="M 699.5 951.25  C 696.84 951.25  694.75 949.16  694.75 946.5  C 694.75 943.84  696.84 941.75  699.5 941.75  C 702.16 941.75  704.25 943.84  704.25 946.5  C 704.25 949.16  702.16 951.25  699.5 951.25  " fill-rule="nonzero" fill="#333333" stroke="none" />
</svg>