<?xml version="1.0" encoding="utf-8"?>
<svg version="1.1" xmlns:xlink="http://www.w3.org/1999/xlink" width="19px" height="19px" viewBox="763 886  19 19" xmlns="http://www.w3.org/2000/svg">
  <path d="M 772.5 886  C 777.82 886  782 890.18  782 895.5  C 782 900.82  777.82 905  772.5 905  C 767.18 905  763 900.82  763 895.5  C 763 890.18  767.18 886  772.5 886  Z " fill-rule="nonzero" fill="#ffffff" stroke="none" />
  <path d="M 772.5 886.5  C 777.54 886.5  781.5 890.46  781.5 895.5  C 781.5 900.54  777.54 904.5  772.5 904.5  C 767.46 904.5  763.5 900.54  763.5 895.5  C 763.5 890.46  767.46 886.5  772.5 886.5  Z " stroke-width="1" stroke="#f59a23" fill="none" />
  <path d="M 772.5 900.25  C 769.84 900.25  767.75 898.16  767.75 895.5  C 767.75 892.84  769.84 890.75  772.5 890.75  C 775.16 890.75  777.25 892.84  777.25 895.5  C 777.25 898.16  775.16 900.25  772.5 900.25  " fill-rule="nonzero" fill="#f59a23" stroke="none" />
</svg>