<?xml version="1.0" encoding="utf-8"?>
<svg version="1.1" xmlns:xlink="http://www.w3.org/1999/xlink" width="19px" height="19px" viewBox="236 232  19 19" xmlns="http://www.w3.org/2000/svg">
  <path d="M 245.5 232  C 250.82 232  255 236.18  255 241.5  C 255 246.82  250.82 251  245.5 251  C 240.18 251  236 246.82  236 241.5  C 236 236.18  240.18 232  245.5 232  Z " fill-rule="nonzero" fill="#ffffff" stroke="none" />
  <path d="M 245.5 232.5  C 250.54 232.5  254.5 236.46  254.5 241.5  C 254.5 246.54  250.54 250.5  245.5 250.5  C 240.46 250.5  236.5 246.54  236.5 241.5  C 236.5 236.46  240.46 232.5  245.5 232.5  Z " stroke-width="1" stroke="#f4a820" fill="none" />
  <path d="M 245.5 246.25  C 242.84 246.25  240.75 244.16  240.75 241.5  C 240.75 238.84  242.84 236.75  245.5 236.75  C 248.16 236.75  250.25 238.84  250.25 241.5  C 250.25 244.16  248.16 246.25  245.5 246.25  " fill-rule="nonzero" fill="#f4a820" stroke="none" />
</svg>