<?xml version="1.0" encoding="utf-8"?>
<svg version="1.1" xmlns:xlink="http://www.w3.org/1999/xlink" width="19px" height="19px" viewBox="334 232  19 19" xmlns="http://www.w3.org/2000/svg">
  <path d="M 343.5 232  C 348.82 232  353 236.18  353 241.5  C 353 246.82  348.82 251  343.5 251  C 338.18 251  334 246.82  334 241.5  C 334 236.18  338.18 232  343.5 232  Z " fill-rule="nonzero" fill="#ffffff" stroke="none" />
  <path d="M 343.5 232.5  C 348.54 232.5  352.5 236.46  352.5 241.5  C 352.5 246.54  348.54 250.5  343.5 250.5  C 338.46 250.5  334.5 246.54  334.5 241.5  C 334.5 236.46  338.46 232.5  343.5 232.5  Z " stroke-width="1" stroke="#333333" fill="none" />
  <path d="M 343.5 246.25  C 340.84 246.25  338.75 244.16  338.75 241.5  C 338.75 238.84  340.84 236.75  343.5 236.75  C 346.16 236.75  348.25 238.84  348.25 241.5  C 348.25 244.16  346.16 246.25  343.5 246.25  " fill-rule="nonzero" fill="#333333" stroke="none" />
</svg>