<?xml version="1.0" encoding="utf-8"?>
<svg version="1.1" xmlns:xlink="http://www.w3.org/1999/xlink" width="34px" height="34px" xmlns="http://www.w3.org/2000/svg">
  <g transform="matrix(1 0 0 1 -1395 -801 )">
    <path d="M 26.49609375 19.412760416666668  C 26.776475694444446 19.13237847222222  26.916666666666664 18.80034722222222  26.916666666666664 18.416666666666668  L 26.916666666666664 15.583333333333334  C 26.916666666666664 15.199652777777775  26.776475694444446 14.867621527777775  26.49609375 14.587239583333334  C 26.215711805555557 14.30685763888889  25.883680555555557 14.166666666666666  25.5 14.166666666666666  L 19.833333333333336 14.166666666666666  L 19.833333333333336 8.5  C 19.833333333333336 8.116319444444441  19.693142361111114 7.784288194444441  19.412760416666664 7.50390625  C 19.132378472222225 7.223524305555555  18.800347222222225 7.083333333333335  18.416666666666664 7.083333333333335  L 15.583333333333332 7.083333333333335  C 15.199652777777779 7.083333333333335  14.867621527777779 7.223524305555555  14.587239583333332 7.50390625  C 14.30685763888889 7.784288194444441  14.166666666666668 8.116319444444441  14.166666666666668 8.5  L 14.166666666666668 14.166666666666666  L 8.5 14.166666666666666  C 8.116319444444445 14.166666666666666  7.784288194444445 14.30685763888889  7.50390625 14.587239583333334  C 7.223524305555556 14.867621527777775  7.083333333333334 15.199652777777775  7.083333333333334 15.583333333333334  L 7.083333333333334 18.416666666666668  C 7.083333333333334 18.80034722222222  7.223524305555556 19.13237847222222  7.50390625 19.412760416666668  C 7.784288194444445 19.69314236111111  8.116319444444445 19.833333333333332  8.5 19.833333333333332  L 14.166666666666668 19.833333333333332  L 14.166666666666668 25.5  C 14.166666666666668 25.883680555555554  14.30685763888889 26.215711805555554  14.587239583333332 26.49609375  C 14.867621527777779 26.776475694444446  15.199652777777779 26.916666666666664  15.583333333333332 26.916666666666664  L 18.416666666666664 26.916666666666664  C 18.800347222222225 26.916666666666664  19.132378472222225 26.776475694444446  19.412760416666664 26.49609375  C 19.693142361111114 26.215711805555554  19.833333333333336 25.883680555555554  19.833333333333336 25.5  L 19.833333333333336 19.833333333333332  L 25.5 19.833333333333332  C 25.883680555555557 19.833333333333332  26.215711805555557 19.69314236111111  26.49609375 19.412760416666668  Z M 31.720052083333336 8.466796875  C 33.24001736111111 11.071397569444441  34 13.915798611111107  34 17  C 34 20.08420138888889  33.24001736111111 22.92860243055555  31.720052083333336 25.533203125  C 30.200086805555557 28.137803819444446  28.137803819444446 30.200086805555554  25.533203125 31.720052083333336  C 22.928602430555557 33.240017361111114  20.08420138888889 34  17 34  C 13.915798611111112 34  11.071397569444445 33.240017361111114  8.466796875 31.720052083333336  C 5.862196180555556 30.200086805555554  3.7999131944444446 28.137803819444446  2.279947916666667 25.533203125  C 0.7599826388888888 22.92860243055555  0 20.08420138888889  0 17  C 0 13.915798611111107  0.7599826388888888 11.071397569444441  2.279947916666667 8.466796875  C 3.7999131944444446 5.862196180555555  5.862196180555556 3.799913194444441  8.466796875 2.279947916666665  C 11.071397569444445 0.759982638888886  13.915798611111112 0  17 0  C 20.08420138888889 0  22.928602430555557 0.759982638888886  25.533203125 2.279947916666665  C 28.137803819444446 3.799913194444441  30.200086805555557 5.862196180555555  31.720052083333336 8.466796875  Z " fill-rule="nonzero" fill="#63a103" stroke="none" transform="matrix(1 0 0 1 1395 801 )" />
  </g>
</svg>