<?xml version="1.0" encoding="utf-8"?>
<svg version="1.1" xmlns:xlink="http://www.w3.org/1999/xlink" width="21px" height="21px" xmlns="http://www.w3.org/2000/svg">
  <g transform="matrix(1 0 0 1 -1402 -623 )">
    <path d="M 16.365234375 11.990234375000002  C 16.538411458333332 11.817057291666666  16.625 11.611979166666666  16.625 11.375000000000002  L 16.625 9.625  C 16.625 9.388020833333332  16.538411458333332 9.182942708333332  16.365234375 9.009765625  C 16.192057291666668 8.836588541666668  15.986979166666668 8.75  15.75 8.75  L 12.25 8.75  L 12.25 5.25  C 12.25 5.013020833333331  12.163411458333336 4.807942708333331  11.990234375 4.634765625  C 11.817057291666668 4.461588541666666  11.611979166666668 4.375000000000001  11.375 4.375000000000001  L 9.625 4.375000000000001  C 9.388020833333334 4.375000000000001  9.182942708333334 4.461588541666666  9.009765625 4.634765625  C 8.836588541666668 4.807942708333331  8.75 5.013020833333331  8.75 5.25  L 8.75 8.75  L 5.25 8.75  C 5.013020833333334 8.75  4.807942708333334 8.836588541666668  4.634765625 9.009765625  C 4.461588541666667 9.182942708333332  4.375 9.388020833333332  4.375 9.625  L 4.375 11.375000000000002  C 4.375 11.611979166666666  4.461588541666667 11.817057291666666  4.634765625 11.990234375000002  C 4.807942708333334 12.163411458333332  5.013020833333334 12.249999999999998  5.25 12.249999999999998  L 8.75 12.249999999999998  L 8.75 15.75  C 8.75 15.986979166666666  8.836588541666668 16.192057291666668  9.009765625 16.365234375  C 9.182942708333334 16.538411458333332  9.388020833333334 16.625  9.625 16.625  L 11.375 16.625  C 11.611979166666668 16.625  11.817057291666668 16.538411458333332  11.990234375 16.365234375  C 12.163411458333336 16.192057291666668  12.25 15.986979166666666  12.25 15.75  L 12.25 12.249999999999998  L 15.75 12.249999999999998  C 15.986979166666668 12.249999999999998  16.192057291666668 12.163411458333332  16.365234375 11.990234375000002  Z M 19.591796875 5.2294921875  C 20.530598958333332 6.838216145833331  21 8.59505208333333  21 10.5  C 21 12.404947916666668  20.530598958333332 14.161783854166664  19.591796875 15.7705078125  C 18.652994791666668 17.379231770833332  17.379231770833332 18.652994791666668  15.7705078125 19.591796875  C 14.161783854166668 20.530598958333336  12.404947916666668 21  10.5 21  C 8.595052083333334 21  6.838216145833334 20.530598958333336  5.2294921875 19.591796875  C 3.620768229166667 18.652994791666668  2.3470052083333335 17.379231770833332  1.408203125 15.7705078125  C 0.46940104166666663 14.161783854166664  0 12.404947916666668  0 10.5  C 0 8.59505208333333  0.46940104166666663 6.838216145833331  1.408203125 5.2294921875  C 2.3470052083333335 3.6207682291666665  3.620768229166667 2.3470052083333313  5.2294921875 1.4082031249999991  C 6.838216145833334 0.46940104166666485  8.595052083333334 0  10.5 0  C 12.404947916666668 0  14.161783854166668 0.46940104166666485  15.7705078125 1.4082031249999991  C 17.379231770833332 2.3470052083333313  18.652994791666668 3.6207682291666665  19.591796875 5.2294921875  Z " fill-rule="nonzero" fill="#63a103" stroke="none" transform="matrix(1 0 0 1 1402 623 )" />
  </g>
</svg>