<?xml version="1.0" encoding="utf-8"?>
<svg version="1.1" xmlns:xlink="http://www.w3.org/1999/xlink" width="19px" height="19px" viewBox="409 261  19 19" xmlns="http://www.w3.org/2000/svg">
  <path d="M 418.5 261  C 423.82 261  428 265.18  428 270.5  C 428 275.82  423.82 280  418.5 280  C 413.18 280  409 275.82  409 270.5  C 409 265.18  413.18 261  418.5 261  Z " fill-rule="nonzero" fill="#f0f0f0" stroke="none" />
  <path d="M 418.5 261.5  C 423.54 261.5  427.5 265.46  427.5 270.5  C 427.5 275.54  423.54 279.5  418.5 279.5  C 413.46 279.5  409.5 275.54  409.5 270.5  C 409.5 265.46  413.46 261.5  418.5 261.5  Z " stroke-width="1" stroke="#f59a23" fill="none" />
  <path d="M 418.5 275.25  C 415.84 275.25  413.75 273.16  413.75 270.5  C 413.75 267.84  415.84 265.75  418.5 265.75  C 421.16 265.75  423.25 267.84  423.25 270.5  C 423.25 273.16  421.16 275.25  418.5 275.25  " fill-rule="nonzero" fill="#f59a23" stroke="none" />
</svg>