<?xml version="1.0" encoding="utf-8"?>
<svg version="1.1" xmlns:xlink="http://www.w3.org/1999/xlink" width="19px" height="19px" viewBox="410 110  19 19" xmlns="http://www.w3.org/2000/svg">
  <path d="M 419.5 110  C 424.82 110  429 114.18  429 119.5  C 429 124.82  424.82 129  419.5 129  C 414.18 129  410 124.82  410 119.5  C 410 114.18  414.18 110  419.5 110  Z " fill-rule="nonzero" fill="#ffffff" stroke="none" />
  <path d="M 419.5 110.5  C 424.54 110.5  428.5 114.46  428.5 119.5  C 428.5 124.54  424.54 128.5  419.5 128.5  C 414.46 128.5  410.5 124.54  410.5 119.5  C 410.5 114.46  414.46 110.5  419.5 110.5  Z " stroke-width="1" stroke="#f59a23" fill="none" />
  <path d="M 419.5 124.25  C 416.84 124.25  414.75 122.16  414.75 119.5  C 414.75 116.84  416.84 114.75  419.5 114.75  C 422.16 114.75  424.25 116.84  424.25 119.5  C 424.25 122.16  422.16 124.25  419.5 124.25  " fill-rule="nonzero" fill="#f59a23" stroke="none" />
</svg>