<?xml version="1.0" encoding="utf-8"?>
<svg version="1.1" xmlns:xlink="http://www.w3.org/1999/xlink" width="19px" height="19px" viewBox="236 431.5  19 19" xmlns="http://www.w3.org/2000/svg">
  <path d="M 245.5 431.5  C 250.82 431.5  255 435.68  255 441  C 255 446.32  250.82 450.5  245.5 450.5  C 240.18 450.5  236 446.32  236 441  C 236 435.68  240.18 431.5  245.5 431.5  Z " fill-rule="nonzero" fill="#ffffff" stroke="none" />
  <path d="M 245.5 432  C 250.54 432  254.5 435.96  254.5 441  C 254.5 446.04  250.54 450  245.5 450  C 240.46 450  236.5 446.04  236.5 441  C 236.5 435.96  240.46 432  245.5 432  Z " stroke-width="1" stroke="#f59a23" fill="none" />
  <path d="M 245.5 445.75  C 242.84 445.75  240.75 443.66  240.75 441  C 240.75 438.34  242.84 436.25  245.5 436.25  C 248.16 436.25  250.25 438.34  250.25 441  C 250.25 443.66  248.16 445.75  245.5 445.75  " fill-rule="nonzero" fill="#f59a23" stroke="none" />
</svg>