<?xml version="1.0" encoding="utf-8"?>
<svg version="1.1" xmlns:xlink="http://www.w3.org/1999/xlink" width="19px" height="19px" viewBox="904 389.5  19 19" xmlns="http://www.w3.org/2000/svg">
  <path d="M 913.5 389.5  C 918.82 389.5  923 393.68  923 399  C 923 404.32  918.82 408.5  913.5 408.5  C 908.18 408.5  904 404.32  904 399  C 904 393.68  908.18 389.5  913.5 389.5  Z " fill-rule="nonzero" fill="#f0f0f0" stroke="none" />
  <path d="M 913.5 390  C 918.54 390  922.5 393.96  922.5 399  C 922.5 404.04  918.54 408  913.5 408  C 908.46 408  904.5 404.04  904.5 399  C 904.5 393.96  908.46 390  913.5 390  Z " stroke-width="1" stroke="#f59a23" fill="none" />
  <path d="M 913.5 403.75  C 910.84 403.75  908.75 401.66  908.75 399  C 908.75 396.34  910.84 394.25  913.5 394.25  C 916.16 394.25  918.25 396.34  918.25 399  C 918.25 401.66  916.16 403.75  913.5 403.75  " fill-rule="nonzero" fill="#f59a23" stroke="none" />
</svg>