<?xml version="1.0" encoding="utf-8"?>
<svg version="1.1" xmlns:xlink="http://www.w3.org/1999/xlink" width="26px" height="26px" xmlns="http://www.w3.org/2000/svg">
  <g transform="matrix(1 0 0 1 -1245 -1095 )">
    <path d="M 20.26171875 14.845052083333336  C 20.47612847222222 14.63064236111111  20.583333333333332 14.37673611111111  20.583333333333332 14.083333333333336  L 20.583333333333332 11.916666666666668  C 20.583333333333332 11.623263888888888  20.47612847222222 11.369357638888888  20.26171875 11.154947916666668  C 20.04730902777778 10.940538194444445  19.79340277777778 10.833333333333332  19.5 10.833333333333332  L 15.166666666666668 10.833333333333332  L 15.166666666666668 6.5  C 15.166666666666668 6.20659722222222  15.059461805555557 5.95269097222222  14.845052083333332 5.73828125  C 14.630642361111112 5.523871527777778  14.376736111111112 5.416666666666668  14.083333333333332 5.416666666666668  L 11.916666666666666 5.416666666666668  C 11.62326388888889 5.416666666666668  11.36935763888889 5.523871527777778  11.154947916666666 5.73828125  C 10.940538194444445 5.95269097222222  10.833333333333334 6.20659722222222  10.833333333333334 6.5  L 10.833333333333334 10.833333333333332  L 6.5 10.833333333333332  C 6.206597222222222 10.833333333333332  5.952690972222222 10.940538194444445  5.73828125 11.154947916666668  C 5.523871527777779 11.369357638888888  5.416666666666667 11.623263888888888  5.416666666666667 11.916666666666668  L 5.416666666666667 14.083333333333336  C 5.416666666666667 14.37673611111111  5.523871527777779 14.63064236111111  5.73828125 14.845052083333336  C 5.952690972222222 15.059461805555555  6.206597222222222 15.166666666666664  6.5 15.166666666666664  L 10.833333333333334 15.166666666666664  L 10.833333333333334 19.5  C 10.833333333333334 19.79340277777778  10.940538194444445 20.04730902777778  11.154947916666666 20.26171875  C 11.36935763888889 20.47612847222222  11.62326388888889 20.583333333333332  11.916666666666666 20.583333333333332  L 14.083333333333332 20.583333333333332  C 14.376736111111112 20.583333333333332  14.630642361111112 20.47612847222222  14.845052083333332 20.26171875  C 15.059461805555557 20.04730902777778  15.166666666666668 19.79340277777778  15.166666666666668 19.5  L 15.166666666666668 15.166666666666664  L 19.5 15.166666666666664  C 19.79340277777778 15.166666666666664  20.04730902777778 15.059461805555555  20.26171875 14.845052083333336  Z M 24.256510416666668 6.474609375  C 25.418836805555554 8.46636284722222  26 10.641493055555552  26 13  C 26 15.358506944444445  25.418836805555554 17.533637152777775  24.256510416666668 19.525390625  C 23.09418402777778 21.51714409722222  21.51714409722222 23.09418402777778  19.525390625 24.256510416666668  C 17.53363715277778 25.418836805555557  15.358506944444445 26  13 26  C 10.641493055555557 26  8.466362847222223 25.418836805555557  6.474609375 24.256510416666668  C 4.482855902777779 23.09418402777778  2.9058159722222223 21.51714409722222  1.7434895833333335 19.525390625  C 0.5811631944444444 17.533637152777775  0 15.358506944444445  0 13  C 0 10.641493055555552  0.5811631944444444 8.46636284722222  1.7434895833333335 6.474609375  C 2.9058159722222223 4.482855902777778  4.482855902777779 2.9058159722222197  6.474609375 1.7434895833333324  C 8.466362847222223 0.5811631944444422  10.641493055555557 0  13 0  C 15.358506944444445 0  17.53363715277778 0.5811631944444422  19.525390625 1.7434895833333324  C 21.51714409722222 2.9058159722222197  23.09418402777778 4.482855902777778  24.256510416666668 6.474609375  Z " fill-rule="nonzero" fill="#63a103" stroke="none" transform="matrix(1 0 0 1 1245 1095 )" />
  </g>
</svg>