<?xml version="1.0" encoding="utf-8"?>
<svg version="1.1" xmlns:xlink="http://www.w3.org/1999/xlink" width="19px" height="19px" viewBox="244 827  19 19" xmlns="http://www.w3.org/2000/svg">
  <path d="M 253.5 827  C 258.82 827  263 831.18  263 836.5  C 263 841.82  258.82 846  253.5 846  C 248.18 846  244 841.82  244 836.5  C 244 831.18  248.18 827  253.5 827  Z " fill-rule="nonzero" fill="#ffffff" stroke="none" />
  <path d="M 253.5 827.5  C 258.54 827.5  262.5 831.46  262.5 836.5  C 262.5 841.54  258.54 845.5  253.5 845.5  C 248.46 845.5  244.5 841.54  244.5 836.5  C 244.5 831.46  248.46 827.5  253.5 827.5  Z " stroke-width="1" stroke="#f59a23" fill="none" />
  <path d="M 253.5 841.25  C 250.84 841.25  248.75 839.16  248.75 836.5  C 248.75 833.84  250.84 831.75  253.5 831.75  C 256.16 831.75  258.25 833.84  258.25 836.5  C 258.25 839.16  256.16 841.25  253.5 841.25  " fill-rule="nonzero" fill="#f59a23" stroke="none" />
</svg>