<?xml version="1.0" encoding="utf-8"?>
<svg version="1.1" xmlns:xlink="http://www.w3.org/1999/xlink" width="19px" height="19px" viewBox="371 4330  19 19" xmlns="http://www.w3.org/2000/svg">
  <path d="M 380.5 4330  C 385.82 4330  390 4334.18  390 4339.5  C 390 4344.82  385.82 4349  380.5 4349  C 375.18 4349  371 4344.82  371 4339.5  C 371 4334.18  375.18 4330  380.5 4330  Z " fill-rule="nonzero" fill="#ffffff" stroke="none" />
  <path d="M 380.5 4330.5  C 385.54 4330.5  389.5 4334.46  389.5 4339.5  C 389.5 4344.54  385.54 4348.5  380.5 4348.5  C 375.46 4348.5  371.5 4344.54  371.5 4339.5  C 371.5 4334.46  375.46 4330.5  380.5 4330.5  Z " stroke-width="1" stroke="#f59a23" fill="none" />
  <path d="M 380.5 4344.25  C 377.84 4344.25  375.75 4342.16  375.75 4339.5  C 375.75 4336.84  377.84 4334.75  380.5 4334.75  C 383.16 4334.75  385.25 4336.84  385.25 4339.5  C 385.25 4342.16  383.16 4344.25  380.5 4344.25  " fill-rule="nonzero" fill="#f59a23" stroke="none" />
</svg>