<?xml version="1.0" encoding="utf-8"?>
<svg version="1.1" xmlns:xlink="http://www.w3.org/1999/xlink" width="19px" height="19px" viewBox="251 4330  19 19" xmlns="http://www.w3.org/2000/svg">
  <path d="M 260.5 4330  C 265.82 4330  270 4334.18  270 4339.5  C 270 4344.82  265.82 4349  260.5 4349  C 255.18 4349  251 4344.82  251 4339.5  C 251 4334.18  255.18 4330  260.5 4330  Z " fill-rule="nonzero" fill="#f0f0f0" stroke="none" />
  <path d="M 260.5 4330.5  C 265.54 4330.5  269.5 4334.46  269.5 4339.5  C 269.5 4344.54  265.54 4348.5  260.5 4348.5  C 255.46 4348.5  251.5 4344.54  251.5 4339.5  C 251.5 4334.46  255.46 4330.5  260.5 4330.5  Z " stroke-width="1" stroke="#f59a23" fill="none" />
  <path d="M 260.5 4344.25  C 257.84 4344.25  255.75 4342.16  255.75 4339.5  C 255.75 4336.84  257.84 4334.75  260.5 4334.75  C 263.16 4334.75  265.25 4336.84  265.25 4339.5  C 265.25 4342.16  263.16 4344.25  260.5 4344.25  " fill-rule="nonzero" fill="#f59a23" stroke="none" />
</svg>