<?xml version="1.0" encoding="utf-8"?>
<svg version="1.1" xmlns:xlink="http://www.w3.org/1999/xlink" width="19px" height="19px" viewBox="517 4330  19 19" xmlns="http://www.w3.org/2000/svg">
  <path d="M 526.5 4330  C 531.82 4330  536 4334.18  536 4339.5  C 536 4344.82  531.82 4349  526.5 4349  C 521.18 4349  517 4344.82  517 4339.5  C 517 4334.18  521.18 4330  526.5 4330  Z " fill-rule="nonzero" fill="#f0f0f0" stroke="none" />
  <path d="M 526.5 4330.5  C 531.54 4330.5  535.5 4334.46  535.5 4339.5  C 535.5 4344.54  531.54 4348.5  526.5 4348.5  C 521.46 4348.5  517.5 4344.54  517.5 4339.5  C 517.5 4334.46  521.46 4330.5  526.5 4330.5  Z " stroke-width="1" stroke="#f59a23" fill="none" />
  <path d="M 526.5 4344.25  C 523.84 4344.25  521.75 4342.16  521.75 4339.5  C 521.75 4336.84  523.84 4334.75  526.5 4334.75  C 529.16 4334.75  531.25 4336.84  531.25 4339.5  C 531.25 4342.16  529.16 4344.25  526.5 4344.25  " fill-rule="nonzero" fill="#f59a23" stroke="none" />
</svg>