<?xml version="1.0" encoding="utf-8"?>
<svg version="1.1" xmlns:xlink="http://www.w3.org/1999/xlink" width="19px" height="19px" viewBox="314 721.5  19 19" xmlns="http://www.w3.org/2000/svg">
  <path d="M 323.5 721.5  C 328.82 721.5  333 725.68  333 731  C 333 736.32  328.82 740.5  323.5 740.5  C 318.18 740.5  314 736.32  314 731  C 314 725.68  318.18 721.5  323.5 721.5  Z " fill-rule="nonzero" fill="#f0f0f0" stroke="none" />
  <path d="M 323.5 722  C 328.54 722  332.5 725.96  332.5 731  C 332.5 736.04  328.54 740  323.5 740  C 318.46 740  314.5 736.04  314.5 731  C 314.5 725.96  318.46 722  323.5 722  Z " stroke-width="1" stroke="#f59a23" fill="none" />
  <path d="M 323.5 735.75  C 320.84 735.75  318.75 733.66  318.75 731  C 318.75 728.34  320.84 726.25  323.5 726.25  C 326.16 726.25  328.25 728.34  328.25 731  C 328.25 733.66  326.16 735.75  323.5 735.75  " fill-rule="nonzero" fill="#f59a23" stroke="none" />
</svg>