<?xml version="1.0" encoding="utf-8"?>
<svg version="1.1" xmlns:xlink="http://www.w3.org/1999/xlink" width="19px" height="19px" viewBox="280 1454.5  19 19" xmlns="http://www.w3.org/2000/svg">
  <path d="M 289.5 1454.5  C 294.82 1454.5  299 1458.68  299 1464  C 299 1469.32  294.82 1473.5  289.5 1473.5  C 284.18 1473.5  280 1469.32  280 1464  C 280 1458.68  284.18 1454.5  289.5 1454.5  Z " fill-rule="nonzero" fill="#ffffff" stroke="none" />
  <path d="M 289.5 1455  C 294.54 1455  298.5 1458.96  298.5 1464  C 298.5 1469.04  294.54 1473  289.5 1473  C 284.46 1473  280.5 1469.04  280.5 1464  C 280.5 1458.96  284.46 1455  289.5 1455  Z " stroke-width="1" stroke="#f59a23" fill="none" />
  <path d="M 289.5 1468.75  C 286.84 1468.75  284.75 1466.66  284.75 1464  C 284.75 1461.34  286.84 1459.25  289.5 1459.25  C 292.16 1459.25  294.25 1461.34  294.25 1464  C 294.25 1466.66  292.16 1468.75  289.5 1468.75  " fill-rule="nonzero" fill="#f59a23" stroke="none" />
</svg>