<?xml version="1.0" encoding="utf-8"?>
<svg version="1.1" xmlns:xlink="http://www.w3.org/1999/xlink" width="19px" height="19px" viewBox="280 2147.5  19 19" xmlns="http://www.w3.org/2000/svg">
  <path d="M 289.5 2147.5  C 294.82 2147.5  299 2151.68  299 2157  C 299 2162.32  294.82 2166.5  289.5 2166.5  C 284.18 2166.5  280 2162.32  280 2157  C 280 2151.68  284.18 2147.5  289.5 2147.5  Z " fill-rule="nonzero" fill="#ffffff" stroke="none" />
  <path d="M 289.5 2148  C 294.54 2148  298.5 2151.96  298.5 2157  C 298.5 2162.04  294.54 2166  289.5 2166  C 284.46 2166  280.5 2162.04  280.5 2157  C 280.5 2151.96  284.46 2148  289.5 2148  Z " stroke-width="1" stroke="#f59a23" fill="none" />
  <path d="M 289.5 2161.75  C 286.84 2161.75  284.75 2159.66  284.75 2157  C 284.75 2154.34  286.84 2152.25  289.5 2152.25  C 292.16 2152.25  294.25 2154.34  294.25 2157  C 294.25 2159.66  292.16 2161.75  289.5 2161.75  " fill-rule="nonzero" fill="#f59a23" stroke="none" />
</svg>