<?xml version="1.0" encoding="utf-8"?>
<svg version="1.1" xmlns:xlink="http://www.w3.org/1999/xlink" width="19px" height="19px" viewBox="372 4330  19 19" xmlns="http://www.w3.org/2000/svg">
  <path d="M 381.5 4330  C 386.82 4330  391 4334.18  391 4339.5  C 391 4344.82  386.82 4349  381.5 4349  C 376.18 4349  372 4344.82  372 4339.5  C 372 4334.18  376.18 4330  381.5 4330  Z " fill-rule="nonzero" fill="#ffffff" stroke="none" />
  <path d="M 381.5 4330.5  C 386.54 4330.5  390.5 4334.46  390.5 4339.5  C 390.5 4344.54  386.54 4348.5  381.5 4348.5  C 376.46 4348.5  372.5 4344.54  372.5 4339.5  C 372.5 4334.46  376.46 4330.5  381.5 4330.5  Z " stroke-width="1" stroke="#f59a23" fill="none" />
  <path d="M 381.5 4344.25  C 378.84 4344.25  376.75 4342.16  376.75 4339.5  C 376.75 4336.84  378.84 4334.75  381.5 4334.75  C 384.16 4334.75  386.25 4336.84  386.25 4339.5  C 386.25 4342.16  384.16 4344.25  381.5 4344.25  " fill-rule="nonzero" fill="#f59a23" stroke="none" />
</svg>