<?xml version="1.0" encoding="utf-8"?>
<svg version="1.1" xmlns:xlink="http://www.w3.org/1999/xlink" width="19px" height="19px" viewBox="193 952.5  19 19" xmlns="http://www.w3.org/2000/svg">
  <path d="M 202.5 952.5  C 207.82 952.5  212 956.68  212 962  C 212 967.32  207.82 971.5  202.5 971.5  C 197.18 971.5  193 967.32  193 962  C 193 956.68  197.18 952.5  202.5 952.5  Z " fill-rule="nonzero" fill="#f0f0f0" stroke="none" />
  <path d="M 202.5 953  C 207.54 953  211.5 956.96  211.5 962  C 211.5 967.04  207.54 971  202.5 971  C 197.46 971  193.5 967.04  193.5 962  C 193.5 956.96  197.46 953  202.5 953  Z " stroke-width="1" stroke="#f59a23" fill="none" />
  <path d="M 202.5 966.75  C 199.84 966.75  197.75 964.66  197.75 962  C 197.75 959.34  199.84 957.25  202.5 957.25  C 205.16 957.25  207.25 959.34  207.25 962  C 207.25 964.66  205.16 966.75  202.5 966.75  " fill-rule="nonzero" fill="#f59a23" stroke="none" />
</svg>