<?xml version="1.0" encoding="utf-8"?>
<svg version="1.1" xmlns:xlink="http://www.w3.org/1999/xlink" width="19px" height="19px" viewBox="606 1709.5  19 19" xmlns="http://www.w3.org/2000/svg">
  <path d="M 615.5 1709.5  C 620.82 1709.5  625 1713.68  625 1719  C 625 1724.32  620.82 1728.5  615.5 1728.5  C 610.18 1728.5  606 1724.32  606 1719  C 606 1713.68  610.18 1709.5  615.5 1709.5  Z " fill-rule="nonzero" fill="#f0f0f0" stroke="none" />
  <path d="M 615.5 1710  C 620.54 1710  624.5 1713.96  624.5 1719  C 624.5 1724.04  620.54 1728  615.5 1728  C 610.46 1728  606.5 1724.04  606.5 1719  C 606.5 1713.96  610.46 1710  615.5 1710  Z " stroke-width="1" stroke="#f59a23" fill="none" />
  <path d="M 615.5 1723.75  C 612.84 1723.75  610.75 1721.66  610.75 1719  C 610.75 1716.34  612.84 1714.25  615.5 1714.25  C 618.16 1714.25  620.25 1716.34  620.25 1719  C 620.25 1721.66  618.16 1723.75  615.5 1723.75  " fill-rule="nonzero" fill="#f59a23" stroke="none" />
</svg>