<?xml version="1.0" encoding="utf-8"?>
<svg version="1.1" xmlns:xlink="http://www.w3.org/1999/xlink" width="19px" height="19px" viewBox="280 512.5  19 19" xmlns="http://www.w3.org/2000/svg">
  <path d="M 289.5 512.5  C 294.82 512.5  299 516.68  299 522  C 299 527.32  294.82 531.5  289.5 531.5  C 284.18 531.5  280 527.32  280 522  C 280 516.68  284.18 512.5  289.5 512.5  Z " fill-rule="nonzero" fill="#f0f0f0" stroke="none" />
  <path d="M 289.5 513  C 294.54 513  298.5 516.96  298.5 522  C 298.5 527.04  294.54 531  289.5 531  C 284.46 531  280.5 527.04  280.5 522  C 280.5 516.96  284.46 513  289.5 513  Z " stroke-width="1" stroke="#f59a23" fill="none" />
  <path d="M 289.5 526.75  C 286.84 526.75  284.75 524.66  284.75 522  C 284.75 519.34  286.84 517.25  289.5 517.25  C 292.16 517.25  294.25 519.34  294.25 522  C 294.25 524.66  292.16 526.75  289.5 526.75  " fill-rule="nonzero" fill="#f59a23" stroke="none" />
</svg>