<?xml version="1.0" encoding="utf-8"?>
<svg version="1.1" xmlns:xlink="http://www.w3.org/1999/xlink" width="19px" height="19px" viewBox="429 1454.5  19 19" xmlns="http://www.w3.org/2000/svg">
  <path d="M 438.5 1454.5  C 443.82 1454.5  448 1458.68  448 1464  C 448 1469.32  443.82 1473.5  438.5 1473.5  C 433.18 1473.5  429 1469.32  429 1464  C 429 1458.68  433.18 1454.5  438.5 1454.5  Z " fill-rule="nonzero" fill="#ffffff" stroke="none" />
  <path d="M 438.5 1455  C 443.54 1455  447.5 1458.96  447.5 1464  C 447.5 1469.04  443.54 1473  438.5 1473  C 433.46 1473  429.5 1469.04  429.5 1464  C 429.5 1458.96  433.46 1455  438.5 1455  Z " stroke-width="1" stroke="#f59a23" fill="none" />
  <path d="M 438.5 1468.75  C 435.84 1468.75  433.75 1466.66  433.75 1464  C 433.75 1461.34  435.84 1459.25  438.5 1459.25  C 441.16 1459.25  443.25 1461.34  443.25 1464  C 443.25 1466.66  441.16 1468.75  438.5 1468.75  " fill-rule="nonzero" fill="#f59a23" stroke="none" />
</svg>