<?xml version="1.0" encoding="utf-8"?>
<svg version="1.1" xmlns:xlink="http://www.w3.org/1999/xlink" width="19px" height="19px" viewBox="457 1709.5  19 19" xmlns="http://www.w3.org/2000/svg">
  <path d="M 466.5 1709.5  C 471.82 1709.5  476 1713.68  476 1719  C 476 1724.32  471.82 1728.5  466.5 1728.5  C 461.18 1728.5  457 1724.32  457 1719  C 457 1713.68  461.18 1709.5  466.5 1709.5  Z " fill-rule="nonzero" fill="#f0f0f0" stroke="none" />
  <path d="M 466.5 1710  C 471.54 1710  475.5 1713.96  475.5 1719  C 475.5 1724.04  471.54 1728  466.5 1728  C 461.46 1728  457.5 1724.04  457.5 1719  C 457.5 1713.96  461.46 1710  466.5 1710  Z " stroke-width="1" stroke="#f59a23" fill="none" />
  <path d="M 466.5 1723.75  C 463.84 1723.75  461.75 1721.66  461.75 1719  C 461.75 1716.34  463.84 1714.25  466.5 1714.25  C 469.16 1714.25  471.25 1716.34  471.25 1719  C 471.25 1721.66  469.16 1723.75  466.5 1723.75  " fill-rule="nonzero" fill="#f59a23" stroke="none" />
</svg>