<?xml version="1.0" encoding="utf-8"?>
<svg version="1.1" xmlns:xlink="http://www.w3.org/1999/xlink" width="19px" height="19px" viewBox="342 952.5  19 19" xmlns="http://www.w3.org/2000/svg">
  <path d="M 351.5 952.5  C 356.82 952.5  361 956.68  361 962  C 361 967.32  356.82 971.5  351.5 971.5  C 346.18 971.5  342 967.32  342 962  C 342 956.68  346.18 952.5  351.5 952.5  Z " fill-rule="nonzero" fill="#f0f0f0" stroke="none" />
  <path d="M 351.5 953  C 356.54 953  360.5 956.96  360.5 962  C 360.5 967.04  356.54 971  351.5 971  C 346.46 971  342.5 967.04  342.5 962  C 342.5 956.96  346.46 953  351.5 953  Z " stroke-width="1" stroke="#f59a23" fill="none" />
  <path d="M 351.5 966.75  C 348.84 966.75  346.75 964.66  346.75 962  C 346.75 959.34  348.84 957.25  351.5 957.25  C 354.16 957.25  356.25 959.34  356.25 962  C 356.25 964.66  354.16 966.75  351.5 966.75  " fill-rule="nonzero" fill="#f59a23" stroke="none" />
</svg>