<?xml version="1.0" encoding="utf-8"?>
<svg version="1.1" xmlns:xlink="http://www.w3.org/1999/xlink" width="25px" height="25px" xmlns="http://www.w3.org/2000/svg">
  <g transform="matrix(1 0 0 1 -10 -37 )">
    <path d="M 13.127790178571427 4.237049549549549  C 13.304501488095239 4.058746246246245  13.392857142857146 3.8475975975975962  13.392857142857142 3.6036036036036028  C 13.392857142857146 3.3596096096096066  13.304501488095239 3.148460960960958  13.127790178571427 2.970157657657657  C 12.951078869047619 2.7918543543543533  12.741815476190476 2.7027027027027026  12.5 2.7027027027027026  C 12.258184523809526 2.7027027027027026  12.048921130952381 2.7918543543543533  11.872209821428571 2.970157657657657  C 11.695498511904763 3.148460960960958  11.607142857142858 3.3596096096096066  11.607142857142858 3.6036036036036028  C 11.607142857142858 3.8475975975975962  11.695498511904763 4.058746246246245  11.872209821428571 4.237049549549549  C 12.048921130952381 4.41535285285285  12.258184523809526 4.504504504504506  12.5 4.504504504504506  C 12.741815476190476 4.504504504504506  12.951078869047619 4.41535285285285  13.127790178571427 4.237049549549549  Z M 24.874441964285715 16.342905405405407  C 24.958147321428573 16.427364864864863  25 16.535285285285283  25 16.666666666666668  L 25 21.62162162162162  C 25 21.82807807807808  24.90699404761905 21.968843843843842  24.720982142857142 22.04391891891892  C 24.646577380952387 22.06268768768769  24.590773809523814 22.07207207207207  24.553571428571427 22.07207207207207  C 24.441964285714285 22.07207207207207  24.335007440476193 22.02984234234234  24.232700892857142 21.945382882882882  L 22.935267857142858 20.636261261261264  C 21.828497023809526 21.97822822822823  20.347377232142858 23.04100975975976  18.491908482142858 23.824605855855857  C 16.636439732142858 24.60820195195195  14.639136904761907 25  12.5 25  C 10.360863095238097 25  8.363560267857142 24.60820195195195  6.508091517857142 23.824605855855857  C 4.652622767857143 23.04100975975976  3.1715029761904767 21.97822822822823  2.064732142857143 20.636261261261264  L 0.7672991071428571 21.945382882882882  C 0.68359375 22.02984234234234  0.5766369047619048 22.07207207207207  0.4464285714285714 22.07207207207207  C 0.4092261904761905 22.07207207207207  0.35342261904761907 22.06268768768769  0.27901785714285715 22.04391891891892  C 0.09300595238095237 21.968843843843842  0 21.82807807807808  0 21.62162162162162  L 0 16.666666666666668  C 0 16.535285285285283  0.04185267857142857 16.427364864864863  0.12555803571428573 16.342905405405407  C 0.2092633928571429 16.258445945945947  0.3162202380952381 16.216216216216218  0.4464285714285714 16.216216216216218  L 5.357142857142857 16.216216216216218  C 5.5617559523809526 16.216216216216218  5.701264880952381 16.31006006006006  5.775669642857143 16.49774774774775  C 5.850074404761905 16.67605105105105  5.817522321428571 16.840277777777775  5.678013392857143 16.99042792792793  L 4.282924107142857 18.398085585585587  C 4.906063988095238 19.252064564564566  5.787295386904763 19.972316066066064  6.926618303571429 20.55884009009009  C 8.065941220238097 21.145364114114116  9.328497023809526 21.53246996996997  10.714285714285714 21.72015765765766  L 10.714285714285714 12.612612612612612  L 8.035714285714286 12.612612612612612  C 7.793898809523811 12.612612612612612  7.584635416666667 12.52346096096096  7.407924107142858 12.345157657657657  C 7.231212797619048 12.166854354354353  7.142857142857142 11.955705705705705  7.142857142857142 11.711711711711711  L 7.142857142857142 9.909909909909908  C 7.142857142857142 9.665915915915912  7.231212797619048 9.454767267267265  7.407924107142858 9.276463963963963  C 7.584635416666667 9.098160660660659  7.793898809523811 9.00900900900901  8.035714285714286 9.00900900900901  L 10.714285714285714 9.00900900900901  L 10.714285714285714 6.714527027027025  C 10.17485119047619 6.395457957957956  9.742373511904763 5.96143018018018  9.416852678571429 5.412443693693694  C 9.091331845238097 4.863457207207208  8.928571428571429 4.260510510510509  8.928571428571429 3.6036036036036028  C 8.928571428571429 2.6088588588588593  9.27734375 1.7595720720720713  9.974888392857142 1.055743243243243  C 10.672433035714286 0.3519144144144143  11.514136904761905 0  12.5 0  C 13.485863095238097 0  14.327566964285715 0.3519144144144143  15.025111607142858 1.055743243243243  C 15.72265625 1.7595720720720713  16.071428571428573 2.6088588588588593  16.071428571428573 3.6036036036036028  C 16.071428571428573 4.260510510510509  15.908668154761907 4.863457207207208  15.583147321428573 5.412443693693694  C 15.257626488095239 5.96143018018018  14.82514880952381 6.395457957957956  14.285714285714285 6.714527027027025  L 14.285714285714285 9.00900900900901  L 16.964285714285715 9.00900900900901  C 17.206101190476193 9.00900900900901  17.415364583333336 9.098160660660659  17.592075892857142 9.276463963963963  C 17.768787202380953 9.454767267267265  17.857142857142858 9.665915915915912  17.857142857142858 9.909909909909908  L 17.857142857142858 11.711711711711711  C 17.857142857142858 11.955705705705705  17.768787202380953 12.166854354354353  17.592075892857142 12.345157657657657  C 17.415364583333336 12.52346096096096  17.206101190476193 12.612612612612612  16.964285714285715 12.612612612612612  L 14.285714285714285 12.612612612612612  L 14.285714285714285 21.72015765765766  C 15.67150297619048 21.53246996996997  16.934058779761905 21.145364114114116  18.073381696428573 20.55884009009009  C 19.212704613095237 19.972316066066064  20.093936011904763 19.252064564564566  20.717075892857142 18.398085585585587  L 19.321986607142858 16.99042792792793  C 19.182477678571427 16.840277777777775  19.149925595238095 16.67605105105105  19.224330357142858 16.49774774774775  C 19.29873511904762 16.31006006006006  19.43824404761905 16.216216216216218  19.642857142857142 16.216216216216218  L 24.553571428571427 16.216216216216218  C 24.683779761904763 16.216216216216218  24.790736607142858 16.258445945945947  24.874441964285715 16.342905405405407  Z " fill-rule="nonzero" fill="#333333" stroke="none" transform="matrix(1 0 0 1 10 37 )" />
  </g>
</svg>