<?xml version="1.0" encoding="utf-8"?>
<svg version="1.1" xmlns:xlink="http://www.w3.org/1999/xlink" width="19px" height="19px" viewBox="181 382.5  19 19" xmlns="http://www.w3.org/2000/svg">
  <path d="M 190.5 382.5  C 195.82 382.5  200 386.68  200 392  C 200 397.32  195.82 401.5  190.5 401.5  C 185.18 401.5  181 397.32  181 392  C 181 386.68  185.18 382.5  190.5 382.5  Z " fill-rule="nonzero" fill="#f0f0f0" stroke="none" />
  <path d="M 190.5 383  C 195.54 383  199.5 386.96  199.5 392  C 199.5 397.04  195.54 401  190.5 401  C 185.46 401  181.5 397.04  181.5 392  C 181.5 386.96  185.46 383  190.5 383  Z " stroke-width="1" stroke="#f59a23" fill="none" />
  <path d="M 190.5 396.75  C 187.84 396.75  185.75 394.66  185.75 392  C 185.75 389.34  187.84 387.25  190.5 387.25  C 193.16 387.25  195.25 389.34  195.25 392  C 195.25 394.66  193.16 396.75  190.5 396.75  " fill-rule="nonzero" fill="#f59a23" stroke="none" />
</svg>