<?xml version="1.0" encoding="utf-8"?>
<svg version="1.1" xmlns:xlink="http://www.w3.org/1999/xlink" width="19px" height="19px" viewBox="281 382.5  19 19" xmlns="http://www.w3.org/2000/svg">
  <path d="M 290.5 382.5  C 295.82 382.5  300 386.68  300 392  C 300 397.32  295.82 401.5  290.5 401.5  C 285.18 401.5  281 397.32  281 392  C 281 386.68  285.18 382.5  290.5 382.5  Z " fill-rule="nonzero" fill="#f0f0f0" stroke="none" />
  <path d="M 290.5 383  C 295.54 383  299.5 386.96  299.5 392  C 299.5 397.04  295.54 401  290.5 401  C 285.46 401  281.5 397.04  281.5 392  C 281.5 386.96  285.46 383  290.5 383  Z " stroke-width="1" stroke="#f59a23" fill="none" />
  <path d="M 290.5 396.75  C 287.84 396.75  285.75 394.66  285.75 392  C 285.75 389.34  287.84 387.25  290.5 387.25  C 293.16 387.25  295.25 389.34  295.25 392  C 295.25 394.66  293.16 396.75  290.5 396.75  " fill-rule="nonzero" fill="#f59a23" stroke="none" />
</svg>