<?xml version="1.0" encoding="utf-8"?>
<svg version="1.1" xmlns:xlink="http://www.w3.org/1999/xlink" width="19px" height="19px" viewBox="387 380  19 19" xmlns="http://www.w3.org/2000/svg">
  <path d="M 396.5 380  C 401.82 380  406 384.18  406 389.5  C 406 394.82  401.82 399  396.5 399  C 391.18 399  387 394.82  387 389.5  C 387 384.18  391.18 380  396.5 380  Z " fill-rule="nonzero" fill="#ffffff" stroke="none" />
  <path d="M 396.5 380.5  C 401.54 380.5  405.5 384.46  405.5 389.5  C 405.5 394.54  401.54 398.5  396.5 398.5  C 391.46 398.5  387.5 394.54  387.5 389.5  C 387.5 384.46  391.46 380.5  396.5 380.5  Z " stroke-width="1" stroke="#f59a23" fill="none" />
  <path d="M 396.5 394.25  C 393.84 394.25  391.75 392.16  391.75 389.5  C 391.75 386.84  393.84 384.75  396.5 384.75  C 399.16 384.75  401.25 386.84  401.25 389.5  C 401.25 392.16  399.16 394.25  396.5 394.25  " fill-rule="nonzero" fill="#f59a23" stroke="none" />
</svg>