<?xml version="1.0" encoding="utf-8"?>
<svg version="1.1" xmlns:xlink="http://www.w3.org/1999/xlink" width="19px" height="19px" viewBox="181 380  19 19" xmlns="http://www.w3.org/2000/svg">
  <path d="M 190.5 380  C 195.82 380  200 384.18  200 389.5  C 200 394.82  195.82 399  190.5 399  C 185.18 399  181 394.82  181 389.5  C 181 384.18  185.18 380  190.5 380  Z " fill-rule="nonzero" fill="#f0f0f0" stroke="none" />
  <path d="M 190.5 380.5  C 195.54 380.5  199.5 384.46  199.5 389.5  C 199.5 394.54  195.54 398.5  190.5 398.5  C 185.46 398.5  181.5 394.54  181.5 389.5  C 181.5 384.46  185.46 380.5  190.5 380.5  Z " stroke-width="1" stroke="#f59a23" fill="none" />
  <path d="M 190.5 394.25  C 187.84 394.25  185.75 392.16  185.75 389.5  C 185.75 386.84  187.84 384.75  190.5 384.75  C 193.16 384.75  195.25 386.84  195.25 389.5  C 195.25 392.16  193.16 394.25  190.5 394.25  " fill-rule="nonzero" fill="#f59a23" stroke="none" />
</svg>