<?xml version="1.0" encoding="utf-8"?>
<svg version="1.1" xmlns:xlink="http://www.w3.org/1999/xlink" width="19px" height="19px" viewBox="281 380  19 19" xmlns="http://www.w3.org/2000/svg">
  <path d="M 290.5 380  C 295.82 380  300 384.18  300 389.5  C 300 394.82  295.82 399  290.5 399  C 285.18 399  281 394.82  281 389.5  C 281 384.18  285.18 380  290.5 380  Z " fill-rule="nonzero" fill="#ffffff" stroke="none" />
  <path d="M 290.5 380.5  C 295.54 380.5  299.5 384.46  299.5 389.5  C 299.5 394.54  295.54 398.5  290.5 398.5  C 285.46 398.5  281.5 394.54  281.5 389.5  C 281.5 384.46  285.46 380.5  290.5 380.5  Z " stroke-width="1" stroke="#f59a23" fill="none" />
  <path d="M 290.5 394.25  C 287.84 394.25  285.75 392.16  285.75 389.5  C 285.75 386.84  287.84 384.75  290.5 384.75  C 293.16 384.75  295.25 386.84  295.25 389.5  C 295.25 392.16  293.16 394.25  290.5 394.25  " fill-rule="nonzero" fill="#f59a23" stroke="none" />
</svg>