<?xml version="1.0" encoding="utf-8"?>
<svg version="1.1" xmlns:xlink="http://www.w3.org/1999/xlink" width="19px" height="19px" viewBox="729 90  19 19" xmlns="http://www.w3.org/2000/svg">
  <path d="M 738.5 90  C 743.82 90  748 94.18  748 99.5  C 748 104.82  743.82 109  738.5 109  C 733.18 109  729 104.82  729 99.5  C 729 94.18  733.18 90  738.5 90  Z " fill-rule="nonzero" fill="#ffffff" stroke="none" />
  <path d="M 738.5 90.5  C 743.54 90.5  747.5 94.46  747.5 99.5  C 747.5 104.54  743.54 108.5  738.5 108.5  C 733.46 108.5  729.5 104.54  729.5 99.5  C 729.5 94.46  733.46 90.5  738.5 90.5  Z " stroke-width="1" stroke="#f59a23" fill="none" />
  <path d="M 738.5 104.25  C 735.84 104.25  733.75 102.16  733.75 99.5  C 733.75 96.84  735.84 94.75  738.5 94.75  C 741.16 94.75  743.25 96.84  743.25 99.5  C 743.25 102.16  741.16 104.25  738.5 104.25  " fill-rule="nonzero" fill="#f59a23" stroke="none" />
</svg>