<?xml version="1.0" encoding="utf-8"?>
<svg version="1.1" xmlns:xlink="http://www.w3.org/1999/xlink" width="19px" height="19px" viewBox="274 507.5  19 19" xmlns="http://www.w3.org/2000/svg">
  <path d="M 283.5 507.5  C 288.82 507.5  293 511.68  293 517  C 293 522.32  288.82 526.5  283.5 526.5  C 278.18 526.5  274 522.32  274 517  C 274 511.68  278.18 507.5  283.5 507.5  Z " fill-rule="nonzero" fill="#ffffff" stroke="none" />
  <path d="M 283.5 508  C 288.54 508  292.5 511.96  292.5 517  C 292.5 522.04  288.54 526  283.5 526  C 278.46 526  274.5 522.04  274.5 517  C 274.5 511.96  278.46 508  283.5 508  Z " stroke-width="1" stroke="#f59a23" fill="none" />
  <path d="M 283.5 521.75  C 280.84 521.75  278.75 519.66  278.75 517  C 278.75 514.34  280.84 512.25  283.5 512.25  C 286.16 512.25  288.25 514.34  288.25 517  C 288.25 519.66  286.16 521.75  283.5 521.75  " fill-rule="nonzero" fill="#f59a23" stroke="none" />
</svg>