<?xml version="1.0" encoding="utf-8"?>
<svg version="1.1" xmlns:xlink="http://www.w3.org/1999/xlink" width="19px" height="19px" viewBox="459 1509.5  19 19" xmlns="http://www.w3.org/2000/svg">
  <path d="M 468.5 1509.5  C 473.82 1509.5  478 1513.68  478 1519  C 478 1524.32  473.82 1528.5  468.5 1528.5  C 463.18 1528.5  459 1524.32  459 1519  C 459 1513.68  463.18 1509.5  468.5 1509.5  Z " fill-rule="nonzero" fill="#ffffff" stroke="none" />
  <path d="M 468.5 1510  C 473.54 1510  477.5 1513.96  477.5 1519  C 477.5 1524.04  473.54 1528  468.5 1528  C 463.46 1528  459.5 1524.04  459.5 1519  C 459.5 1513.96  463.46 1510  468.5 1510  Z " stroke-width="1" stroke="#f59a23" fill="none" />
  <path d="M 468.5 1523.75  C 465.84 1523.75  463.75 1521.66  463.75 1519  C 463.75 1516.34  465.84 1514.25  468.5 1514.25  C 471.16 1514.25  473.25 1516.34  473.25 1519  C 473.25 1521.66  471.16 1523.75  468.5 1523.75  " fill-rule="nonzero" fill="#f59a23" stroke="none" />
</svg>