<?xml version="1.0" encoding="utf-8"?>
<svg version="1.1" xmlns:xlink="http://www.w3.org/1999/xlink" width="19px" height="19px" viewBox="459 507.5  19 19" xmlns="http://www.w3.org/2000/svg">
  <path d="M 468.5 507.5  C 473.82 507.5  478 511.68  478 517  C 478 522.32  473.82 526.5  468.5 526.5  C 463.18 526.5  459 522.32  459 517  C 459 511.68  463.18 507.5  468.5 507.5  Z " fill-rule="nonzero" fill="#f0f0f0" stroke="none" />
  <path d="M 468.5 508  C 473.54 508  477.5 511.96  477.5 517  C 477.5 522.04  473.54 526  468.5 526  C 463.46 526  459.5 522.04  459.5 517  C 459.5 511.96  463.46 508  468.5 508  Z " stroke-width="1" stroke="#f59a23" fill="none" />
  <path d="M 468.5 521.75  C 465.84 521.75  463.75 519.66  463.75 517  C 463.75 514.34  465.84 512.25  468.5 512.25  C 471.16 512.25  473.25 514.34  473.25 517  C 473.25 519.66  471.16 521.75  468.5 521.75  " fill-rule="nonzero" fill="#f59a23" stroke="none" />
</svg>