<?xml version="1.0" encoding="utf-8"?>
<svg version="1.1" xmlns:xlink="http://www.w3.org/1999/xlink" width="19px" height="19px" viewBox="459 831.5  19 19" xmlns="http://www.w3.org/2000/svg">
  <path d="M 468.5 831.5  C 473.82 831.5  478 835.68  478 841  C 478 846.32  473.82 850.5  468.5 850.5  C 463.18 850.5  459 846.32  459 841  C 459 835.68  463.18 831.5  468.5 831.5  Z " fill-rule="nonzero" fill="#f0f0f0" stroke="none" />
  <path d="M 468.5 832  C 473.54 832  477.5 835.96  477.5 841  C 477.5 846.04  473.54 850  468.5 850  C 463.46 850  459.5 846.04  459.5 841  C 459.5 835.96  463.46 832  468.5 832  Z " stroke-width="1" stroke="#f59a23" fill="none" />
  <path d="M 468.5 845.75  C 465.84 845.75  463.75 843.66  463.75 841  C 463.75 838.34  465.84 836.25  468.5 836.25  C 471.16 836.25  473.25 838.34  473.25 841  C 473.25 843.66  471.16 845.75  468.5 845.75  " fill-rule="nonzero" fill="#f59a23" stroke="none" />
</svg>