<?xml version="1.0" encoding="utf-8"?>
<svg version="1.1" xmlns:xlink="http://www.w3.org/1999/xlink" width="19px" height="19px" viewBox="274 831.5  19 19" xmlns="http://www.w3.org/2000/svg">
  <path d="M 283.5 831.5  C 288.82 831.5  293 835.68  293 841  C 293 846.32  288.82 850.5  283.5 850.5  C 278.18 850.5  274 846.32  274 841  C 274 835.68  278.18 831.5  283.5 831.5  Z " fill-rule="nonzero" fill="#ffffff" stroke="none" />
  <path d="M 283.5 832  C 288.54 832  292.5 835.96  292.5 841  C 292.5 846.04  288.54 850  283.5 850  C 278.46 850  274.5 846.04  274.5 841  C 274.5 835.96  278.46 832  283.5 832  Z " stroke-width="1" stroke="#f59a23" fill="none" />
  <path d="M 283.5 845.75  C 280.84 845.75  278.75 843.66  278.75 841  C 278.75 838.34  280.84 836.25  283.5 836.25  C 286.16 836.25  288.25 838.34  288.25 841  C 288.25 843.66  286.16 845.75  283.5 845.75  " fill-rule="nonzero" fill="#f59a23" stroke="none" />
</svg>