<?xml version="1.0" encoding="utf-8"?>
<svg version="1.1" xmlns:xlink="http://www.w3.org/1999/xlink" width="19px" height="19px" viewBox="274 1509.5  19 19" xmlns="http://www.w3.org/2000/svg">
  <path d="M 283.5 1509.5  C 288.82 1509.5  293 1513.68  293 1519  C 293 1524.32  288.82 1528.5  283.5 1528.5  C 278.18 1528.5  274 1524.32  274 1519  C 274 1513.68  278.18 1509.5  283.5 1509.5  Z " fill-rule="nonzero" fill="#ffffff" stroke="none" />
  <path d="M 283.5 1510  C 288.54 1510  292.5 1513.96  292.5 1519  C 292.5 1524.04  288.54 1528  283.5 1528  C 278.46 1528  274.5 1524.04  274.5 1519  C 274.5 1513.96  278.46 1510  283.5 1510  Z " stroke-width="1" stroke="#f59a23" fill="none" />
  <path d="M 283.5 1523.75  C 280.84 1523.75  278.75 1521.66  278.75 1519  C 278.75 1516.34  280.84 1514.25  283.5 1514.25  C 286.16 1514.25  288.25 1516.34  288.25 1519  C 288.25 1521.66  286.16 1523.75  283.5 1523.75  " fill-rule="nonzero" fill="#f59a23" stroke="none" />
</svg>