<?xml version="1.0" encoding="utf-8"?>
<svg version="1.1" xmlns:xlink="http://www.w3.org/1999/xlink" width="50px" height="50px" xmlns="http://www.w3.org/2000/svg">
  <g transform="matrix(1 0 0 1 -80 -276 )">
    <path d="M 105 276  C 119 276  130 287  130 301  C 130 315  119 326  105 326  C 91 326  80 315  80 301  C 80 287  91 276  105 276  Z " fill-rule="nonzero" fill="#6fd95e" stroke="none" />
    <path d="M 105 276.5  C 118.72 276.5  129.5 287.28  129.5 301  C 129.5 314.72  118.72 325.5  105 325.5  C 91.28 325.5  80.5 314.72  80.5 301  C 80.5 287.28  91.28 276.5  105 276.5  Z " stroke-width="1" stroke="#797979" fill="none" />
  </g>
</svg>