<?xml version="1.0" encoding="utf-8"?>
<svg version="1.1" xmlns:xlink="http://www.w3.org/1999/xlink" width="50px" height="50px" xmlns="http://www.w3.org/2000/svg">
  <g transform="matrix(1 0 0 1 -622 -276 )">
    <path d="M 647 276  C 661 276  672 287  672 301  C 672 315  661 326  647 326  C 633 326  622 315  622 301  C 622 287  633 276  647 276  Z " fill-rule="nonzero" fill="#d1d1d1" stroke="none" />
    <path d="M 647 276.5  C 660.72 276.5  671.5 287.28  671.5 301  C 671.5 314.72  660.72 325.5  647 325.5  C 633.28 325.5  622.5 314.72  622.5 301  C 622.5 287.28  633.28 276.5  647 276.5  Z " stroke-width="1" stroke="#797979" fill="none" />
  </g>
</svg>