<?xml version="1.0" encoding="utf-8"?>
<svg version="1.1" xmlns:xlink="http://www.w3.org/1999/xlink" width="25px" height="25px" viewBox="243 199  25 25" xmlns="http://www.w3.org/2000/svg">
  <path d="M 255.5 199  C 262.5 199  268 204.5  268 211.5  C 268 218.5  262.5 224  255.5 224  C 248.5 224  243 218.5  243 211.5  C 243 204.5  248.5 199  255.5 199  Z " fill-rule="nonzero" fill="#ffffff" stroke="none" />
  <path d="M 255.5 199.5  C 262.22 199.5  267.5 204.78  267.5 211.5  C 267.5 218.22  262.22 223.5  255.5 223.5  C 248.78 223.5  243.5 218.22  243.5 211.5  C 243.5 204.78  248.78 199.5  255.5 199.5  Z " stroke-width="1" stroke="#f4a820" fill="none" />
  <path d="M 255.5 217.75  C 252 217.75  249.25 215  249.25 211.5  C 249.25 208  252 205.25  255.5 205.25  C 259 205.25  261.75 208  261.75 211.5  C 261.75 215  259 217.75  255.5 217.75  " fill-rule="nonzero" fill="#f4a820" stroke="none" />
</svg>