<?xml version="1.0" encoding="utf-8"?>
<svg version="1.1" xmlns:xlink="http://www.w3.org/1999/xlink" width="25px" height="25px" viewBox="249 215  25 25" xmlns="http://www.w3.org/2000/svg">
  <path d="M 261.5 215  C 268.5 215  274 220.5  274 227.5  C 274 234.5  268.5 240  261.5 240  C 254.5 240  249 234.5  249 227.5  C 249 220.5  254.5 215  261.5 215  Z " fill-rule="nonzero" fill="#ffffff" stroke="none" />
  <path d="M 261.5 215.5  C 268.22 215.5  273.5 220.78  273.5 227.5  C 273.5 234.22  268.22 239.5  261.5 239.5  C 254.78 239.5  249.5 234.22  249.5 227.5  C 249.5 220.78  254.78 215.5  261.5 215.5  Z " stroke-width="1" stroke="#f59a23" fill="none" />
  <path d="M 261.5 233.75  C 258 233.75  255.25 231  255.25 227.5  C 255.25 224  258 221.25  261.5 221.25  C 265 221.25  267.75 224  267.75 227.5  C 267.75 231  265 233.75  261.5 233.75  " fill-rule="nonzero" fill="#f59a23" stroke="none" />
</svg>