<?xml version="1.0" encoding="utf-8"?>
<svg version="1.1" xmlns:xlink="http://www.w3.org/1999/xlink" width="25px" height="25px" viewBox="402 214  25 25" xmlns="http://www.w3.org/2000/svg">
  <path d="M 414.5 214  C 421.5 214  427 219.5  427 226.5  C 427 233.5  421.5 239  414.5 239  C 407.5 239  402 233.5  402 226.5  C 402 219.5  407.5 214  414.5 214  Z " fill-rule="nonzero" fill="#ffffff" stroke="none" />
  <path d="M 414.5 214.5  C 421.22 214.5  426.5 219.78  426.5 226.5  C 426.5 233.22  421.22 238.5  414.5 238.5  C 407.78 238.5  402.5 233.22  402.5 226.5  C 402.5 219.78  407.78 214.5  414.5 214.5  Z " stroke-width="1" stroke="#f59a23" fill="none" />
  <path d="M 414.5 232.75  C 411 232.75  408.25 230  408.25 226.5  C 408.25 223  411 220.25  414.5 220.25  C 418 220.25  420.75 223  420.75 226.5  C 420.75 230  418 232.75  414.5 232.75  " fill-rule="nonzero" fill="#f59a23" stroke="none" />
</svg>