<?xml version="1.0" encoding="utf-8"?>
<svg version="1.1" xmlns:xlink="http://www.w3.org/1999/xlink" width="19px" height="19px" viewBox="409 201.5  19 19" xmlns="http://www.w3.org/2000/svg">
  <path d="M 418.5 201.5  C 423.82 201.5  428 205.68  428 211  C 428 216.32  423.82 220.5  418.5 220.5  C 413.18 220.5  409 216.32  409 211  C 409 205.68  413.18 201.5  418.5 201.5  Z " fill-rule="nonzero" fill="#ffffff" stroke="none" />
  <path d="M 418.5 202  C 423.54 202  427.5 205.96  427.5 211  C 427.5 216.04  423.54 220  418.5 220  C 413.46 220  409.5 216.04  409.5 211  C 409.5 205.96  413.46 202  418.5 202  Z " stroke-width="1" stroke="#f4a820" fill="none" />
  <path d="M 418.5 215.75  C 415.84 215.75  413.75 213.66  413.75 211  C 413.75 208.34  415.84 206.25  418.5 206.25  C 421.16 206.25  423.25 208.34  423.25 211  C 423.25 213.66  421.16 215.75  418.5 215.75  " fill-rule="nonzero" fill="#f4a820" stroke="none" />
</svg>