<?xml version="1.0" encoding="utf-8"?>
<svg version="1.1" xmlns:xlink="http://www.w3.org/1999/xlink" width="19px" height="19px" viewBox="267 201.5  19 19" xmlns="http://www.w3.org/2000/svg">
  <path d="M 276.5 201.5  C 281.82 201.5  286 205.68  286 211  C 286 216.32  281.82 220.5  276.5 220.5  C 271.18 220.5  267 216.32  267 211  C 267 205.68  271.18 201.5  276.5 201.5  Z " fill-rule="nonzero" fill="#ffffff" stroke="none" />
  <path d="M 276.5 202  C 281.54 202  285.5 205.96  285.5 211  C 285.5 216.04  281.54 220  276.5 220  C 271.46 220  267.5 216.04  267.5 211  C 267.5 205.96  271.46 202  276.5 202  Z " stroke-width="1" stroke="#f59a23" fill="none" />
  <path d="M 276.5 215.75  C 273.84 215.75  271.75 213.66  271.75 211  C 271.75 208.34  273.84 206.25  276.5 206.25  C 279.16 206.25  281.25 208.34  281.25 211  C 281.25 213.66  279.16 215.75  276.5 215.75  " fill-rule="nonzero" fill="#f59a23" stroke="none" />
</svg>