<?xml version="1.0" encoding="utf-8"?>
<svg version="1.1" xmlns:xlink="http://www.w3.org/1999/xlink" width="29px" height="29px" xmlns="http://www.w3.org/2000/svg">
  <defs>
    <mask fill="white" id="clip42">
      <path d="M 24.65721393034826 26.5078125  L 25.854726368159206 25.164620535714285  C 26.037479270315096 24.959635416666664  26.25389718076286 24.857142857142858  26.50398009950249 24.857142857142858  C 26.754063018242125 24.857142857142858  26.970480928689884 24.959635416666664  27.15323383084577 25.164620535714285  L 29 27.236049107142854  L 27.70149253731343 28.69252232142857  L 26.50398009950249 27.349330357142854  L 25.306467661691542 28.69252232142857  C 25.133333333333336 28.89750744047619  24.916915422885577 29  24.65721393034826 29  C 24.39751243781095 29  24.18109452736319 28.89750744047619  24.007960199004973 28.69252232142857  L 22.81044776119403 27.349330357142854  L 21.612935323383084 28.69252232142857  C 21.430182421227197 28.89750744047619  21.213764510779438 29  20.9636815920398 29  C 20.71359867330017 29  20.497180762852405 28.89750744047619  20.31442786069652 28.69252232142857  L 19.116915422885572 27.349330357142854  L 17.91940298507463 28.69252232142857  C 17.73665008291874 28.89750744047619  17.520232172470983 29  17.270149253731343 29  C 17.02006633499171 29  16.803648424543947 28.89750744047619  16.62089552238806 28.69252232142857  L 15.423383084577114 27.349330357142854  L 14.225870646766168 28.69252232142857  C 14.043117744610282 28.89750744047619  13.82669983416252 29  13.576616915422886 29  C 13.326533996683253 29  13.11011608623549 28.89750744047619  12.927363184079603 28.69252232142857  L 11.729850746268657 27.349330357142854  L 10.532338308457712 28.69252232142857  C 10.349585406301824 28.89750744047619  10.133167495854064 29  9.883084577114428 29  C 9.633001658374793 29  9.416583747927033 28.89750744047619  9.233830845771145 28.69252232142857  L 8.036318407960199 27.349330357142854  L 6.838805970149253 28.69252232142857  C 6.656053067993367 28.89750744047619  6.439635157545606 29  6.1895522388059705 29  C 5.939469320066335 29  5.7230514096185745 28.89750744047619  5.540298507462687 28.69252232142857  L 4.3427860696517415 27.349330357142854  L 3.145273631840796 28.69252232142857  C 2.9625207296849085 28.89750744047619  2.746102819237148 29  2.4960199004975125 29  C 2.2459369817578776 29  2.0295190713101166 28.89750744047619  1.8467661691542288 28.69252232142857  L 0 26.62109375  L 1.2985074626865671 25.164620535714285  L 2.4960199004975125 26.5078125  L 3.6935323383084575 25.164620535714285  C 3.876285240464345 24.959635416666664  4.092703150912106 24.857142857142858  4.3427860696517415 24.857142857142858  C 4.592868988391377 24.857142857142858  4.809286898839138 24.959635416666664  4.992039800995025 25.164620535714285  L 6.1895522388059705 26.5078125  L 7.387064676616915 25.164620535714285  C 7.569817578772804 24.959635416666664  7.786235489220564 24.857142857142858  8.036318407960199 24.857142857142858  C 8.286401326699835 24.857142857142858  8.502819237147596 24.959635416666664  8.685572139303483 25.164620535714285  L 9.883084577114428 26.5078125  L 11.080597014925374 25.164620535714285  C 11.26334991708126 24.959635416666664  11.479767827529022 24.857142857142858  11.729850746268657 24.857142857142858  C 11.979933665008295 24.857142857142858  12.196351575456054 24.959635416666664  12.379104477611941 25.164620535714285  L 13.576616915422886 26.5078125  L 14.77412935323383 25.164620535714285  C 14.956882255389718 24.959635416666664  15.17330016583748 24.857142857142858  15.423383084577114 24.857142857142858  C 15.67346600331675 24.857142857142858  15.889883913764514 24.959635416666664  16.072636815920397 25.164620535714285  L 17.270149253731343 26.5078125  L 18.46766169154229 25.164620535714285  C 18.650414593698176 24.959635416666664  18.866832504145936 24.857142857142858  19.116915422885572 24.857142857142858  C 19.36699834162521 24.857142857142858  19.583416252072972 24.959635416666664  19.766169154228855 25.164620535714285  L 20.9636815920398 26.5078125  L 22.161194029850748 25.164620535714285  C 22.343946932006634 24.959635416666664  22.560364842454398 24.857142857142858  22.81044776119403 24.857142857142858  C 23.060530679933667 24.857142857142858  23.27694859038143 24.959635416666664  23.459701492537313 25.164620535714285  L 24.65721393034826 26.5078125  Z M 4.3427860696517415 23.206473214285715  L 3.145273631840796 24.54966517857143  C 2.9625207296849085 24.754650297619047  2.746102819237148 24.857142857142858  2.4960199004975125 24.857142857142858  C 2.2459369817578776 24.857142857142858  2.0295190713101166 24.754650297619047  1.8467661691542288 24.54966517857143  L 0 22.478236607142858  L 1.2985074626865671 21.021763392857142  L 2.4960199004975125 22.34877232142857  L 3.6935323383084575 21.021763392857142  C 3.876285240464345 20.816778273809522  4.092703150912106 20.714285714285715  4.3427860696517415 20.714285714285715  C 4.592868988391377 20.714285714285715  4.809286898839138 20.816778273809522  4.992039800995025 21.021763392857142  L 6.1895522388059705 22.34877232142857  L 7.112935323383084 21.313058035714285  L 7.112935323383084 16.57142857142857  L 4.083084577114428 11.489955357142856  C 3.919568822553898 11.209449404761903  3.885903814262024 10.904668898809524  3.982089552238806 10.575613839285715  C 4.078275290215589 10.246558779761903  4.270646766169155 10.028087797619044  4.559203980099502 9.920200892857144  L 7.112935323383084 8.981584821428571  L 7.112935323383084 4.142857142857144  L 8.959701492537315 4.142857142857144  L 8.959701492537315 2.0714285714285703  L 12.653233830845771 2.0714285714285703  L 12.653233830845771 0  L 16.34676616915423 0  L 16.34676616915423 2.0714285714285703  L 20.040298507462687 2.0714285714285703  L 20.040298507462687 4.142857142857144  L 21.887064676616916 4.142857142857144  L 21.887064676616916 8.981584821428571  L 24.440796019900496 9.920200892857144  C 24.72935323383085 10.028087797619044  24.921724709784414 10.246558779761903  25.017910447761196 10.575613839285715  C 25.114096185737978 10.904668898809524  25.080431177446105 11.209449404761903  24.916915422885573 11.489955357142856  L 21.887064676616916 16.57142857142857  L 21.887064676616916 21.313058035714285  L 22.161194029850748 21.021763392857142  C 22.343946932006634 20.816778273809522  22.560364842454398 20.714285714285715  22.81044776119403 20.714285714285715  C 23.060530679933667 20.714285714285715  23.27694859038143 20.816778273809522  23.459701492537313 21.021763392857142  L 24.65721393034826 22.34877232142857  L 25.854726368159206 21.021763392857142  C 26.037479270315096 20.816778273809522  26.25389718076286 20.714285714285715  26.50398009950249 20.714285714285715  C 26.754063018242125 20.714285714285715  26.970480928689884 20.816778273809522  27.15323383084577 21.021763392857142  L 29 23.093191964285715  L 27.70149253731343 24.54966517857143  L 26.50398009950249 23.206473214285715  L 25.306467661691542 24.54966517857143  C 25.133333333333336 24.754650297619047  24.916915422885577 24.857142857142858  24.65721393034826 24.857142857142858  C 24.39751243781095 24.857142857142858  24.18109452736319 24.754650297619047  24.007960199004973 24.54966517857143  L 22.81044776119403 23.206473214285715  L 21.612935323383084 24.54966517857143  C 21.430182421227197 24.754650297619047  21.213764510779438 24.857142857142858  20.9636815920398 24.857142857142858  C 20.71359867330017 24.857142857142858  20.497180762852405 24.754650297619047  20.31442786069652 24.54966517857143  L 19.116915422885572 23.206473214285715  L 17.91940298507463 24.54966517857143  C 17.73665008291874 24.754650297619047  17.520232172470983 24.857142857142858  17.270149253731343 24.857142857142858  C 17.02006633499171 24.857142857142858  16.803648424543947 24.754650297619047  16.62089552238806 24.54966517857143  L 15.423383084577114 23.206473214285715  L 14.225870646766168 24.54966517857143  C 14.043117744610282 24.754650297619047  13.82669983416252 24.857142857142858  13.576616915422886 24.857142857142858  C 13.326533996683253 24.857142857142858  13.11011608623549 24.754650297619047  12.927363184079603 24.54966517857143  L 11.729850746268657 23.206473214285715  L 10.532338308457712 24.54966517857143  C 10.349585406301824 24.754650297619047  10.133167495854064 24.857142857142858  9.883084577114428 24.857142857142858  C 9.633001658374793 24.857142857142858  9.416583747927033 24.754650297619047  9.233830845771145 24.54966517857143  L 8.036318407960199 23.206473214285715  L 6.838805970149253 24.54966517857143  C 6.656053067993367 24.754650297619047  6.439635157545606 24.857142857142858  6.1895522388059705 24.857142857142858  C 5.939469320066335 24.857142857142858  5.7230514096185745 24.754650297619047  5.540298507462687 24.54966517857143  L 4.3427860696517415 23.206473214285715  Z M 10.806467661691542 6.214285714285714  L 8.959701492537315 6.214285714285714  L 8.959701492537315 8.285714285714285  L 14.5 6.214285714285714  L 20.040298507462687 8.285714285714285  L 20.040298507462687 6.214285714285714  L 18.193532338308458 6.214285714285714  L 18.193532338308458 4.142857142857144  L 10.806467661691542 4.142857142857144  L 10.806467661691542 6.214285714285714  Z " fill-rule="evenodd" />
    </mask>
  </defs>
  <g transform="matrix(1 0 0 1 -671 -611 )">
    <path d="M 24.65721393034826 26.5078125  L 25.854726368159206 25.164620535714285  C 26.037479270315096 24.959635416666664  26.25389718076286 24.857142857142858  26.50398009950249 24.857142857142858  C 26.754063018242125 24.857142857142858  26.970480928689884 24.959635416666664  27.15323383084577 25.164620535714285  L 29 27.236049107142854  L 27.70149253731343 28.69252232142857  L 26.50398009950249 27.349330357142854  L 25.306467661691542 28.69252232142857  C 25.133333333333336 28.89750744047619  24.916915422885577 29  24.65721393034826 29  C 24.39751243781095 29  24.18109452736319 28.89750744047619  24.007960199004973 28.69252232142857  L 22.81044776119403 27.349330357142854  L 21.612935323383084 28.69252232142857  C 21.430182421227197 28.89750744047619  21.213764510779438 29  20.9636815920398 29  C 20.71359867330017 29  20.497180762852405 28.89750744047619  20.31442786069652 28.69252232142857  L 19.116915422885572 27.349330357142854  L 17.91940298507463 28.69252232142857  C 17.73665008291874 28.89750744047619  17.520232172470983 29  17.270149253731343 29  C 17.02006633499171 29  16.803648424543947 28.89750744047619  16.62089552238806 28.69252232142857  L 15.423383084577114 27.349330357142854  L 14.225870646766168 28.69252232142857  C 14.043117744610282 28.89750744047619  13.82669983416252 29  13.576616915422886 29  C 13.326533996683253 29  13.11011608623549 28.89750744047619  12.927363184079603 28.69252232142857  L 11.729850746268657 27.349330357142854  L 10.532338308457712 28.69252232142857  C 10.349585406301824 28.89750744047619  10.133167495854064 29  9.883084577114428 29  C 9.633001658374793 29  9.416583747927033 28.89750744047619  9.233830845771145 28.69252232142857  L 8.036318407960199 27.349330357142854  L 6.838805970149253 28.69252232142857  C 6.656053067993367 28.89750744047619  6.439635157545606 29  6.1895522388059705 29  C 5.939469320066335 29  5.7230514096185745 28.89750744047619  5.540298507462687 28.69252232142857  L 4.3427860696517415 27.349330357142854  L 3.145273631840796 28.69252232142857  C 2.9625207296849085 28.89750744047619  2.746102819237148 29  2.4960199004975125 29  C 2.2459369817578776 29  2.0295190713101166 28.89750744047619  1.8467661691542288 28.69252232142857  L 0 26.62109375  L 1.2985074626865671 25.164620535714285  L 2.4960199004975125 26.5078125  L 3.6935323383084575 25.164620535714285  C 3.876285240464345 24.959635416666664  4.092703150912106 24.857142857142858  4.3427860696517415 24.857142857142858  C 4.592868988391377 24.857142857142858  4.809286898839138 24.959635416666664  4.992039800995025 25.164620535714285  L 6.1895522388059705 26.5078125  L 7.387064676616915 25.164620535714285  C 7.569817578772804 24.959635416666664  7.786235489220564 24.857142857142858  8.036318407960199 24.857142857142858  C 8.286401326699835 24.857142857142858  8.502819237147596 24.959635416666664  8.685572139303483 25.164620535714285  L 9.883084577114428 26.5078125  L 11.080597014925374 25.164620535714285  C 11.26334991708126 24.959635416666664  11.479767827529022 24.857142857142858  11.729850746268657 24.857142857142858  C 11.979933665008295 24.857142857142858  12.196351575456054 24.959635416666664  12.379104477611941 25.164620535714285  L 13.576616915422886 26.5078125  L 14.77412935323383 25.164620535714285  C 14.956882255389718 24.959635416666664  15.17330016583748 24.857142857142858  15.423383084577114 24.857142857142858  C 15.67346600331675 24.857142857142858  15.889883913764514 24.959635416666664  16.072636815920397 25.164620535714285  L 17.270149253731343 26.5078125  L 18.46766169154229 25.164620535714285  C 18.650414593698176 24.959635416666664  18.866832504145936 24.857142857142858  19.116915422885572 24.857142857142858  C 19.36699834162521 24.857142857142858  19.583416252072972 24.959635416666664  19.766169154228855 25.164620535714285  L 20.9636815920398 26.5078125  L 22.161194029850748 25.164620535714285  C 22.343946932006634 24.959635416666664  22.560364842454398 24.857142857142858  22.81044776119403 24.857142857142858  C 23.060530679933667 24.857142857142858  23.27694859038143 24.959635416666664  23.459701492537313 25.164620535714285  L 24.65721393034826 26.5078125  Z M 4.3427860696517415 23.206473214285715  L 3.145273631840796 24.54966517857143  C 2.9625207296849085 24.754650297619047  2.746102819237148 24.857142857142858  2.4960199004975125 24.857142857142858  C 2.2459369817578776 24.857142857142858  2.0295190713101166 24.754650297619047  1.8467661691542288 24.54966517857143  L 0 22.478236607142858  L 1.2985074626865671 21.021763392857142  L 2.4960199004975125 22.34877232142857  L 3.6935323383084575 21.021763392857142  C 3.876285240464345 20.816778273809522  4.092703150912106 20.714285714285715  4.3427860696517415 20.714285714285715  C 4.592868988391377 20.714285714285715  4.809286898839138 20.816778273809522  4.992039800995025 21.021763392857142  L 6.1895522388059705 22.34877232142857  L 7.112935323383084 21.313058035714285  L 7.112935323383084 16.57142857142857  L 4.083084577114428 11.489955357142856  C 3.919568822553898 11.209449404761903  3.885903814262024 10.904668898809524  3.982089552238806 10.575613839285715  C 4.078275290215589 10.246558779761903  4.270646766169155 10.028087797619044  4.559203980099502 9.920200892857144  L 7.112935323383084 8.981584821428571  L 7.112935323383084 4.142857142857144  L 8.959701492537315 4.142857142857144  L 8.959701492537315 2.0714285714285703  L 12.653233830845771 2.0714285714285703  L 12.653233830845771 0  L 16.34676616915423 0  L 16.34676616915423 2.0714285714285703  L 20.040298507462687 2.0714285714285703  L 20.040298507462687 4.142857142857144  L 21.887064676616916 4.142857142857144  L 21.887064676616916 8.981584821428571  L 24.440796019900496 9.920200892857144  C 24.72935323383085 10.028087797619044  24.921724709784414 10.246558779761903  25.017910447761196 10.575613839285715  C 25.114096185737978 10.904668898809524  25.080431177446105 11.209449404761903  24.916915422885573 11.489955357142856  L 21.887064676616916 16.57142857142857  L 21.887064676616916 21.313058035714285  L 22.161194029850748 21.021763392857142  C 22.343946932006634 20.816778273809522  22.560364842454398 20.714285714285715  22.81044776119403 20.714285714285715  C 23.060530679933667 20.714285714285715  23.27694859038143 20.816778273809522  23.459701492537313 21.021763392857142  L 24.65721393034826 22.34877232142857  L 25.854726368159206 21.021763392857142  C 26.037479270315096 20.816778273809522  26.25389718076286 20.714285714285715  26.50398009950249 20.714285714285715  C 26.754063018242125 20.714285714285715  26.970480928689884 20.816778273809522  27.15323383084577 21.021763392857142  L 29 23.093191964285715  L 27.70149253731343 24.54966517857143  L 26.50398009950249 23.206473214285715  L 25.306467661691542 24.54966517857143  C 25.133333333333336 24.754650297619047  24.916915422885577 24.857142857142858  24.65721393034826 24.857142857142858  C 24.39751243781095 24.857142857142858  24.18109452736319 24.754650297619047  24.007960199004973 24.54966517857143  L 22.81044776119403 23.206473214285715  L 21.612935323383084 24.54966517857143  C 21.430182421227197 24.754650297619047  21.213764510779438 24.857142857142858  20.9636815920398 24.857142857142858  C 20.71359867330017 24.857142857142858  20.497180762852405 24.754650297619047  20.31442786069652 24.54966517857143  L 19.116915422885572 23.206473214285715  L 17.91940298507463 24.54966517857143  C 17.73665008291874 24.754650297619047  17.520232172470983 24.857142857142858  17.270149253731343 24.857142857142858  C 17.02006633499171 24.857142857142858  16.803648424543947 24.754650297619047  16.62089552238806 24.54966517857143  L 15.423383084577114 23.206473214285715  L 14.225870646766168 24.54966517857143  C 14.043117744610282 24.754650297619047  13.82669983416252 24.857142857142858  13.576616915422886 24.857142857142858  C 13.326533996683253 24.857142857142858  13.11011608623549 24.754650297619047  12.927363184079603 24.54966517857143  L 11.729850746268657 23.206473214285715  L 10.532338308457712 24.54966517857143  C 10.349585406301824 24.754650297619047  10.133167495854064 24.857142857142858  9.883084577114428 24.857142857142858  C 9.633001658374793 24.857142857142858  9.416583747927033 24.754650297619047  9.233830845771145 24.54966517857143  L 8.036318407960199 23.206473214285715  L 6.838805970149253 24.54966517857143  C 6.656053067993367 24.754650297619047  6.439635157545606 24.857142857142858  6.1895522388059705 24.857142857142858  C 5.939469320066335 24.857142857142858  5.7230514096185745 24.754650297619047  5.540298507462687 24.54966517857143  L 4.3427860696517415 23.206473214285715  Z M 10.806467661691542 6.214285714285714  L 8.959701492537315 6.214285714285714  L 8.959701492537315 8.285714285714285  L 14.5 6.214285714285714  L 20.040298507462687 8.285714285714285  L 20.040298507462687 6.214285714285714  L 18.193532338308458 6.214285714285714  L 18.193532338308458 4.142857142857144  L 10.806467661691542 4.142857142857144  L 10.806467661691542 6.214285714285714  Z " fill-rule="nonzero" fill="#555555" stroke="none" transform="matrix(1 0 0 1 671 611 )" />
    <path d="M 24.65721393034826 26.5078125  L 25.854726368159206 25.164620535714285  C 26.037479270315096 24.959635416666664  26.25389718076286 24.857142857142858  26.50398009950249 24.857142857142858  C 26.754063018242125 24.857142857142858  26.970480928689884 24.959635416666664  27.15323383084577 25.164620535714285  L 29 27.236049107142854  L 27.70149253731343 28.69252232142857  L 26.50398009950249 27.349330357142854  L 25.306467661691542 28.69252232142857  C 25.133333333333336 28.89750744047619  24.916915422885577 29  24.65721393034826 29  C 24.39751243781095 29  24.18109452736319 28.89750744047619  24.007960199004973 28.69252232142857  L 22.81044776119403 27.349330357142854  L 21.612935323383084 28.69252232142857  C 21.430182421227197 28.89750744047619  21.213764510779438 29  20.9636815920398 29  C 20.71359867330017 29  20.497180762852405 28.89750744047619  20.31442786069652 28.69252232142857  L 19.116915422885572 27.349330357142854  L 17.91940298507463 28.69252232142857  C 17.73665008291874 28.89750744047619  17.520232172470983 29  17.270149253731343 29  C 17.02006633499171 29  16.803648424543947 28.89750744047619  16.62089552238806 28.69252232142857  L 15.423383084577114 27.349330357142854  L 14.225870646766168 28.69252232142857  C 14.043117744610282 28.89750744047619  13.82669983416252 29  13.576616915422886 29  C 13.326533996683253 29  13.11011608623549 28.89750744047619  12.927363184079603 28.69252232142857  L 11.729850746268657 27.349330357142854  L 10.532338308457712 28.69252232142857  C 10.349585406301824 28.89750744047619  10.133167495854064 29  9.883084577114428 29  C 9.633001658374793 29  9.416583747927033 28.89750744047619  9.233830845771145 28.69252232142857  L 8.036318407960199 27.349330357142854  L 6.838805970149253 28.69252232142857  C 6.656053067993367 28.89750744047619  6.439635157545606 29  6.1895522388059705 29  C 5.939469320066335 29  5.7230514096185745 28.89750744047619  5.540298507462687 28.69252232142857  L 4.3427860696517415 27.349330357142854  L 3.145273631840796 28.69252232142857  C 2.9625207296849085 28.89750744047619  2.746102819237148 29  2.4960199004975125 29  C 2.2459369817578776 29  2.0295190713101166 28.89750744047619  1.8467661691542288 28.69252232142857  L 0 26.62109375  L 1.2985074626865671 25.164620535714285  L 2.4960199004975125 26.5078125  L 3.6935323383084575 25.164620535714285  C 3.876285240464345 24.959635416666664  4.092703150912106 24.857142857142858  4.3427860696517415 24.857142857142858  C 4.592868988391377 24.857142857142858  4.809286898839138 24.959635416666664  4.992039800995025 25.164620535714285  L 6.1895522388059705 26.5078125  L 7.387064676616915 25.164620535714285  C 7.569817578772804 24.959635416666664  7.786235489220564 24.857142857142858  8.036318407960199 24.857142857142858  C 8.286401326699835 24.857142857142858  8.502819237147596 24.959635416666664  8.685572139303483 25.164620535714285  L 9.883084577114428 26.5078125  L 11.080597014925374 25.164620535714285  C 11.26334991708126 24.959635416666664  11.479767827529022 24.857142857142858  11.729850746268657 24.857142857142858  C 11.979933665008295 24.857142857142858  12.196351575456054 24.959635416666664  12.379104477611941 25.164620535714285  L 13.576616915422886 26.5078125  L 14.77412935323383 25.164620535714285  C 14.956882255389718 24.959635416666664  15.17330016583748 24.857142857142858  15.423383084577114 24.857142857142858  C 15.67346600331675 24.857142857142858  15.889883913764514 24.959635416666664  16.072636815920397 25.164620535714285  L 17.270149253731343 26.5078125  L 18.46766169154229 25.164620535714285  C 18.650414593698176 24.959635416666664  18.866832504145936 24.857142857142858  19.116915422885572 24.857142857142858  C 19.36699834162521 24.857142857142858  19.583416252072972 24.959635416666664  19.766169154228855 25.164620535714285  L 20.9636815920398 26.5078125  L 22.161194029850748 25.164620535714285  C 22.343946932006634 24.959635416666664  22.560364842454398 24.857142857142858  22.81044776119403 24.857142857142858  C 23.060530679933667 24.857142857142858  23.27694859038143 24.959635416666664  23.459701492537313 25.164620535714285  L 24.65721393034826 26.5078125  Z " stroke-width="2" stroke="#555555" fill="none" transform="matrix(1 0 0 1 671 611 )" mask="url(#clip42)" />
    <path d="M 4.3427860696517415 23.206473214285715  L 3.145273631840796 24.54966517857143  C 2.9625207296849085 24.754650297619047  2.746102819237148 24.857142857142858  2.4960199004975125 24.857142857142858  C 2.2459369817578776 24.857142857142858  2.0295190713101166 24.754650297619047  1.8467661691542288 24.54966517857143  L 0 22.478236607142858  L 1.2985074626865671 21.021763392857142  L 2.4960199004975125 22.34877232142857  L 3.6935323383084575 21.021763392857142  C 3.876285240464345 20.816778273809522  4.092703150912106 20.714285714285715  4.3427860696517415 20.714285714285715  C 4.592868988391377 20.714285714285715  4.809286898839138 20.816778273809522  4.992039800995025 21.021763392857142  L 6.1895522388059705 22.34877232142857  L 7.112935323383084 21.313058035714285  L 7.112935323383084 16.57142857142857  L 4.083084577114428 11.489955357142856  C 3.919568822553898 11.209449404761903  3.885903814262024 10.904668898809524  3.982089552238806 10.575613839285715  C 4.078275290215589 10.246558779761903  4.270646766169155 10.028087797619044  4.559203980099502 9.920200892857144  L 7.112935323383084 8.981584821428571  L 7.112935323383084 4.142857142857144  L 8.959701492537315 4.142857142857144  L 8.959701492537315 2.0714285714285703  L 12.653233830845771 2.0714285714285703  L 12.653233830845771 0  L 16.34676616915423 0  L 16.34676616915423 2.0714285714285703  L 20.040298507462687 2.0714285714285703  L 20.040298507462687 4.142857142857144  L 21.887064676616916 4.142857142857144  L 21.887064676616916 8.981584821428571  L 24.440796019900496 9.920200892857144  C 24.72935323383085 10.028087797619044  24.921724709784414 10.246558779761903  25.017910447761196 10.575613839285715  C 25.114096185737978 10.904668898809524  25.080431177446105 11.209449404761903  24.916915422885573 11.489955357142856  L 21.887064676616916 16.57142857142857  L 21.887064676616916 21.313058035714285  L 22.161194029850748 21.021763392857142  C 22.343946932006634 20.816778273809522  22.560364842454398 20.714285714285715  22.81044776119403 20.714285714285715  C 23.060530679933667 20.714285714285715  23.27694859038143 20.816778273809522  23.459701492537313 21.021763392857142  L 24.65721393034826 22.34877232142857  L 25.854726368159206 21.021763392857142  C 26.037479270315096 20.816778273809522  26.25389718076286 20.714285714285715  26.50398009950249 20.714285714285715  C 26.754063018242125 20.714285714285715  26.970480928689884 20.816778273809522  27.15323383084577 21.021763392857142  L 29 23.093191964285715  L 27.70149253731343 24.54966517857143  L 26.50398009950249 23.206473214285715  L 25.306467661691542 24.54966517857143  C 25.133333333333336 24.754650297619047  24.916915422885577 24.857142857142858  24.65721393034826 24.857142857142858  C 24.39751243781095 24.857142857142858  24.18109452736319 24.754650297619047  24.007960199004973 24.54966517857143  L 22.81044776119403 23.206473214285715  L 21.612935323383084 24.54966517857143  C 21.430182421227197 24.754650297619047  21.213764510779438 24.857142857142858  20.9636815920398 24.857142857142858  C 20.71359867330017 24.857142857142858  20.497180762852405 24.754650297619047  20.31442786069652 24.54966517857143  L 19.116915422885572 23.206473214285715  L 17.91940298507463 24.54966517857143  C 17.73665008291874 24.754650297619047  17.520232172470983 24.857142857142858  17.270149253731343 24.857142857142858  C 17.02006633499171 24.857142857142858  16.803648424543947 24.754650297619047  16.62089552238806 24.54966517857143  L 15.423383084577114 23.206473214285715  L 14.225870646766168 24.54966517857143  C 14.043117744610282 24.754650297619047  13.82669983416252 24.857142857142858  13.576616915422886 24.857142857142858  C 13.326533996683253 24.857142857142858  13.11011608623549 24.754650297619047  12.927363184079603 24.54966517857143  L 11.729850746268657 23.206473214285715  L 10.532338308457712 24.54966517857143  C 10.349585406301824 24.754650297619047  10.133167495854064 24.857142857142858  9.883084577114428 24.857142857142858  C 9.633001658374793 24.857142857142858  9.416583747927033 24.754650297619047  9.233830845771145 24.54966517857143  L 8.036318407960199 23.206473214285715  L 6.838805970149253 24.54966517857143  C 6.656053067993367 24.754650297619047  6.439635157545606 24.857142857142858  6.1895522388059705 24.857142857142858  C 5.939469320066335 24.857142857142858  5.7230514096185745 24.754650297619047  5.540298507462687 24.54966517857143  L 4.3427860696517415 23.206473214285715  Z " stroke-width="2" stroke="#555555" fill="none" transform="matrix(1 0 0 1 671 611 )" mask="url(#clip42)" />
    <path d="M 10.806467661691542 6.214285714285714  L 8.959701492537315 6.214285714285714  L 8.959701492537315 8.285714285714285  L 14.5 6.214285714285714  L 20.040298507462687 8.285714285714285  L 20.040298507462687 6.214285714285714  L 18.193532338308458 6.214285714285714  L 18.193532338308458 4.142857142857144  L 10.806467661691542 4.142857142857144  L 10.806467661691542 6.214285714285714  Z " stroke-width="2" stroke="#555555" fill="none" transform="matrix(1 0 0 1 671 611 )" mask="url(#clip42)" />
  </g>
</svg>