<?xml version="1.0" encoding="utf-8"?>
<svg version="1.1" xmlns:xlink="http://www.w3.org/1999/xlink" width="6px" height="9px" xmlns="http://www.w3.org/2000/svg">
  <g transform="matrix(1 0 0 1 -760 -182 )">
    <path d="M 1.5512283643086753 0.22872185334563255  C 1.2049810091654458 -0.07757106050848961  0.6218276421229044 -0.07757085934281349  0.26646852493286133 0.23678239434957504  C 0.18199915687243143 0.3113515516743064  0.11498430867989856 0.399925553239882  0.06926010052363077 0.49743416905403137  C 0.02353589236736297 0.5949427848681808  0 0.699471278116107  0 0.8050362691283226  C 0 0.9106012601405382  0.02353589236736297 1.0151297533884645  0.06926010052363077 1.1126383692026138  C 0.11498430867989856 1.2101469850167632  0.18199915687243143 1.2987210536375642  0.26646852493286133 1.3732902109622955  C 0.26646852493286133 1.3732902109622955  3.801835695902506 4.500702202320099  3.801835695902506 4.500702202320099  C 3.801835695902506 4.500702202320099  0.26646852493286133 7.628113925457001  0.26646852493286133 7.628113925457001  C 0.09609876076380412 7.778824249282479  0.00038582109846174717 7.983230151236057  0.00038582109846174717 8.196366727352142  C 0.00038582109846174717 8.409503303468227  0.09609876076380412 8.61391188763082  0.26646852493286133 8.764622211456299  C 0.4368382891019186 8.915332535281777  0.6679092248280842 8.999999999999996  0.9088484446207683 9  C 1.1497876644134521 9  1.380858600139618 8.915332535281777  1.5512283643086753 8.764622211456299  C 1.5512283643086753 8.764622211456299  3.6423803965250654 6.914774000644684  3.6423803965250654 6.914774000644684  C 3.6423803965250654 6.914774000644684  5.733532587687175 5.064925789833069  5.733532587687175 5.064925789833069  C 5.818001955747605 4.9903566325083375  5.885016148289045 4.901782697997987  5.9307403564453125 4.804274082183838  C 5.97646456460158 4.7067654663696885  6 4.602236637845635  6 4.49667164683342  C 6 4.391106655821204  5.97646456460158 4.286578363738954  5.9307403564453125 4.189069747924805  C 5.885016148289045 4.091561132110655  5.818001955747605 4.002987197600305  5.733532587687175 3.9284180402755737  C 5.733532587687175 3.9284180402755737  1.5512283643086753 0.22872185334563255  1.5512283643086753 0.22872185334563255  Z " fill-rule="nonzero" fill="#727272" stroke="none" transform="matrix(1 0 0 1 760 182 )" />
  </g>
</svg>