<?xml version="1.0" encoding="utf-8"?>
<svg version="1.1" xmlns:xlink="http://www.w3.org/1999/xlink" width="19px" height="19px" viewBox="819 217  19 19" xmlns="http://www.w3.org/2000/svg">
  <path d="M 828.5 217  C 833.82 217  838 221.18  838 226.5  C 838 231.82  833.82 236  828.5 236  C 823.18 236  819 231.82  819 226.5  C 819 221.18  823.18 217  828.5 217  Z " fill-rule="nonzero" fill="#ffffff" stroke="none" />
  <path d="M 828.5 217.5  C 833.54 217.5  837.5 221.46  837.5 226.5  C 837.5 231.54  833.54 235.5  828.5 235.5  C 823.46 235.5  819.5 231.54  819.5 226.5  C 819.5 221.46  823.46 217.5  828.5 217.5  Z " stroke-width="1" stroke="#f59a23" fill="none" />
  <path d="M 828.5 231.25  C 825.84 231.25  823.75 229.16  823.75 226.5  C 823.75 223.84  825.84 221.75  828.5 221.75  C 831.16 221.75  833.25 223.84  833.25 226.5  C 833.25 229.16  831.16 231.25  828.5 231.25  " fill-rule="nonzero" fill="#f59a23" stroke="none" />
</svg>