<?xml version="1.0" encoding="utf-8"?>
<svg version="1.1" xmlns:xlink="http://www.w3.org/1999/xlink" width="19px" height="19px" viewBox="970 207  19 19" xmlns="http://www.w3.org/2000/svg">
  <path d="M 979.5 207  C 984.82 207  989 211.18  989 216.5  C 989 221.82  984.82 226  979.5 226  C 974.18 226  970 221.82  970 216.5  C 970 211.18  974.18 207  979.5 207  Z " fill-rule="nonzero" fill="#ffffff" stroke="none" />
  <path d="M 979.5 207.5  C 984.54 207.5  988.5 211.46  988.5 216.5  C 988.5 221.54  984.54 225.5  979.5 225.5  C 974.46 225.5  970.5 221.54  970.5 216.5  C 970.5 211.46  974.46 207.5  979.5 207.5  Z " stroke-width="1" stroke="#f59a23" fill="none" />
  <path d="M 979.5 221.25  C 976.84 221.25  974.75 219.16  974.75 216.5  C 974.75 213.84  976.84 211.75  979.5 211.75  C 982.16 211.75  984.25 213.84  984.25 216.5  C 984.25 219.16  982.16 221.25  979.5 221.25  " fill-rule="nonzero" fill="#f59a23" stroke="none" />
</svg>