<?xml version="1.0" encoding="utf-8"?>
<svg version="1.1" xmlns:xlink="http://www.w3.org/1999/xlink" width="19px" height="19px" viewBox="569 262.5  19 19" xmlns="http://www.w3.org/2000/svg">
  <path d="M 578.5 262.5  C 583.82 262.5  588 266.68  588 272  C 588 277.32  583.82 281.5  578.5 281.5  C 573.18 281.5  569 277.32  569 272  C 569 266.68  573.18 262.5  578.5 262.5  Z " fill-rule="nonzero" fill="#f0f0f0" stroke="none" />
  <path d="M 578.5 263  C 583.54 263  587.5 266.96  587.5 272  C 587.5 277.04  583.54 281  578.5 281  C 573.46 281  569.5 277.04  569.5 272  C 569.5 266.96  573.46 263  578.5 263  Z " stroke-width="1" stroke="#f59a23" fill="none" />
  <path d="M 578.5 276.75  C 575.84 276.75  573.75 274.66  573.75 272  C 573.75 269.34  575.84 267.25  578.5 267.25  C 581.16 267.25  583.25 269.34  583.25 272  C 583.25 274.66  581.16 276.75  578.5 276.75  " fill-rule="nonzero" fill="#f59a23" stroke="none" />
</svg>