<?xml version="1.0" encoding="utf-8"?>
<svg version="1.1" xmlns:xlink="http://www.w3.org/1999/xlink" width="19px" height="19px" viewBox="704 262.5  19 19" xmlns="http://www.w3.org/2000/svg">
  <path d="M 713.5 262.5  C 718.82 262.5  723 266.68  723 272  C 723 277.32  718.82 281.5  713.5 281.5  C 708.18 281.5  704 277.32  704 272  C 704 266.68  708.18 262.5  713.5 262.5  Z " fill-rule="nonzero" fill="#f0f0f0" stroke="none" />
  <path d="M 713.5 263  C 718.54 263  722.5 266.96  722.5 272  C 722.5 277.04  718.54 281  713.5 281  C 708.46 281  704.5 277.04  704.5 272  C 704.5 266.96  708.46 263  713.5 263  Z " stroke-width="1" stroke="#f59a23" fill="none" />
  <path d="M 713.5 276.75  C 710.84 276.75  708.75 274.66  708.75 272  C 708.75 269.34  710.84 267.25  713.5 267.25  C 716.16 267.25  718.25 269.34  718.25 272  C 718.25 274.66  716.16 276.75  713.5 276.75  " fill-rule="nonzero" fill="#f59a23" stroke="none" />
</svg>