<?xml version="1.0" encoding="utf-8"?>
<svg version="1.1" xmlns:xlink="http://www.w3.org/1999/xlink" width="19px" height="19px" viewBox="980 217  19 19" xmlns="http://www.w3.org/2000/svg">
  <path d="M 989.5 217  C 994.82 217  999 221.18  999 226.5  C 999 231.82  994.82 236  989.5 236  C 984.18 236  980 231.82  980 226.5  C 980 221.18  984.18 217  989.5 217  Z " fill-rule="nonzero" fill="#f0f0f0" stroke="none" />
  <path d="M 989.5 217.5  C 994.54 217.5  998.5 221.46  998.5 226.5  C 998.5 231.54  994.54 235.5  989.5 235.5  C 984.46 235.5  980.5 231.54  980.5 226.5  C 980.5 221.46  984.46 217.5  989.5 217.5  Z " stroke-width="1" stroke="#f59a23" fill="none" />
  <path d="M 989.5 231.25  C 986.84 231.25  984.75 229.16  984.75 226.5  C 984.75 223.84  986.84 221.75  989.5 221.75  C 992.16 221.75  994.25 223.84  994.25 226.5  C 994.25 229.16  992.16 231.25  989.5 231.25  " fill-rule="nonzero" fill="#f59a23" stroke="none" />
</svg>