<?xml version="1.0" encoding="utf-8"?>
<svg version="1.1" xmlns:xlink="http://www.w3.org/1999/xlink" width="20px" height="20px" xmlns="http://www.w3.org/2000/svg">
  <g transform="matrix(1 0 0 1 -1718 -21 )">
    <path d="M 5.4017857142857135 14.943181818181817  C 5.6101190476190474 15.20833333333333  5.7142857142857135 15.53030303030303  5.7142857142857135 15.909090909090908  L 5.7142857142857135 18.636363636363637  C 5.7142857142857135 19.015151515151516  5.6101190476190474 19.33712121212121  5.4017857142857135 19.602272727272727  C 5.193452380952381 19.867424242424242  4.940476190476192 20  4.642857142857143 20  L 1.0714285714285714 20  C 0.773809523809524 20  0.5208333333333334 19.867424242424242  0.3125 19.602272727272727  C 0.10416666666666666 19.33712121212121  0 19.015151515151516  0 18.636363636363637  L 0 15.909090909090908  C 0 15.53030303030303  0.10416666666666666 15.20833333333333  0.3125 14.943181818181817  C 0.5208333333333334 14.678030303030305  0.773809523809524 14.545454545454547  1.0714285714285714 14.545454545454547  L 4.642857142857143 14.545454545454547  C 4.940476190476192 14.545454545454547  5.193452380952381 14.678030303030305  5.4017857142857135 14.943181818181817  Z M 5.4017857142857135 7.670454545454546  C 5.6101190476190474 7.935606060606057  5.7142857142857135 8.257575757575758  5.7142857142857135 8.636363636363635  L 5.7142857142857135 11.363636363636363  C 5.7142857142857135 11.742424242424242  5.6101190476190474 12.064393939393938  5.4017857142857135 12.329545454545453  C 5.193452380952381 12.594696969696969  4.940476190476192 12.727272727272727  4.642857142857143 12.727272727272727  L 1.0714285714285714 12.727272727272727  C 0.773809523809524 12.727272727272727  0.5208333333333334 12.594696969696969  0.3125 12.329545454545453  C 0.10416666666666666 12.064393939393938  0 11.742424242424242  0 11.363636363636363  L 0 8.636363636363635  C 0 8.257575757575758  0.10416666666666666 7.935606060606057  0.3125 7.670454545454546  C 0.5208333333333334 7.405303030303029  0.773809523809524 7.272727272727273  1.0714285714285714 7.272727272727273  L 4.642857142857143 7.272727272727273  C 4.940476190476192 7.272727272727273  5.193452380952381 7.405303030303029  5.4017857142857135 7.670454545454546  Z M 12.544642857142858 14.943181818181817  C 12.75297619047619 15.20833333333333  12.857142857142858 15.53030303030303  12.857142857142858 15.909090909090908  L 12.857142857142858 18.636363636363637  C 12.857142857142858 19.015151515151516  12.75297619047619 19.33712121212121  12.544642857142858 19.602272727272727  C 12.336309523809526 19.867424242424242  12.083333333333336 20  11.785714285714286 20  L 8.214285714285714 20  C 7.916666666666668 20  7.663690476190476 19.867424242424242  7.455357142857143 19.602272727272727  C 7.24702380952381 19.33712121212121  7.142857142857143 19.015151515151516  7.142857142857143 18.636363636363637  L 7.142857142857143 15.909090909090908  C 7.142857142857143 15.53030303030303  7.24702380952381 15.20833333333333  7.455357142857143 14.943181818181817  C 7.663690476190476 14.678030303030305  7.916666666666668 14.545454545454547  8.214285714285714 14.545454545454547  L 11.785714285714286 14.545454545454547  C 12.083333333333336 14.545454545454547  12.336309523809526 14.678030303030305  12.544642857142858 14.943181818181817  Z M 5.4017857142857135 0.39772727272727293  C 5.6101190476190474 0.6628787878787867  5.7142857142857135 0.984848484848484  5.7142857142857135 1.3636363636363646  L 5.7142857142857135 4.090909090909092  C 5.7142857142857135 4.469696969696968  5.6101190476190474 4.791666666666665  5.4017857142857135 5.056818181818182  C 5.193452380952381 5.3219696969696955  4.940476190476192 5.454545454545454  4.642857142857143 5.454545454545454  L 1.0714285714285714 5.454545454545454  C 0.773809523809524 5.454545454545454  0.5208333333333334 5.3219696969696955  0.3125 5.056818181818182  C 0.10416666666666666 4.791666666666665  0 4.469696969696968  0 4.090909090909092  L 0 1.3636363636363646  C 0 0.984848484848484  0.10416666666666666 0.6628787878787867  0.3125 0.39772727272727293  C 0.5208333333333334 0.1325757575757569  0.773809523809524 0  1.0714285714285714 0  L 4.642857142857143 0  C 4.940476190476192 0  5.193452380952381 0.1325757575757569  5.4017857142857135 0.39772727272727293  Z M 12.544642857142858 7.670454545454546  C 12.75297619047619 7.935606060606057  12.857142857142858 8.257575757575758  12.857142857142858 8.636363636363635  L 12.857142857142858 11.363636363636363  C 12.857142857142858 11.742424242424242  12.75297619047619 12.064393939393938  12.544642857142858 12.329545454545453  C 12.336309523809526 12.594696969696969  12.083333333333336 12.727272727272727  11.785714285714286 12.727272727272727  L 8.214285714285714 12.727272727272727  C 7.916666666666668 12.727272727272727  7.663690476190476 12.594696969696969  7.455357142857143 12.329545454545453  C 7.24702380952381 12.064393939393938  7.142857142857143 11.742424242424242  7.142857142857143 11.363636363636363  L 7.142857142857143 8.636363636363635  C 7.142857142857143 8.257575757575758  7.24702380952381 7.935606060606057  7.455357142857143 7.670454545454546  C 7.663690476190476 7.405303030303029  7.916666666666668 7.272727272727273  8.214285714285714 7.272727272727273  L 11.785714285714286 7.272727272727273  C 12.083333333333336 7.272727272727273  12.336309523809526 7.405303030303029  12.544642857142858 7.670454545454546  Z M 19.6875 14.943181818181817  C 19.895833333333336 15.20833333333333  20 15.53030303030303  20 15.909090909090908  L 20 18.636363636363637  C 20 19.015151515151516  19.895833333333336 19.33712121212121  19.6875 19.602272727272727  C 19.479166666666668 19.867424242424242  19.226190476190478 20  18.928571428571427 20  L 15.357142857142858 20  C 15.059523809523812 20  14.80654761904762 19.867424242424242  14.598214285714286 19.602272727272727  C 14.389880952380953 19.33712121212121  14.285714285714286 19.015151515151516  14.285714285714286 18.636363636363637  L 14.285714285714286 15.909090909090908  C 14.285714285714286 15.53030303030303  14.389880952380953 15.20833333333333  14.598214285714286 14.943181818181817  C 14.80654761904762 14.678030303030305  15.059523809523812 14.545454545454547  15.357142857142858 14.545454545454547  L 18.928571428571427 14.545454545454547  C 19.226190476190478 14.545454545454547  19.479166666666668 14.678030303030305  19.6875 14.943181818181817  Z M 12.544642857142858 0.39772727272727293  C 12.75297619047619 0.6628787878787867  12.857142857142858 0.984848484848484  12.857142857142858 1.3636363636363646  L 12.857142857142858 4.090909090909092  C 12.857142857142858 4.469696969696968  12.75297619047619 4.791666666666665  12.544642857142858 5.056818181818182  C 12.336309523809526 5.3219696969696955  12.083333333333336 5.454545454545454  11.785714285714286 5.454545454545454  L 8.214285714285714 5.454545454545454  C 7.916666666666668 5.454545454545454  7.663690476190476 5.3219696969696955  7.455357142857143 5.056818181818182  C 7.24702380952381 4.791666666666665  7.142857142857143 4.469696969696968  7.142857142857143 4.090909090909092  L 7.142857142857143 1.3636363636363646  C 7.142857142857143 0.984848484848484  7.24702380952381 0.6628787878787867  7.455357142857143 0.39772727272727293  C 7.663690476190476 0.1325757575757569  7.916666666666668 0  8.214285714285714 0  L 11.785714285714286 0  C 12.083333333333336 0  12.336309523809526 0.1325757575757569  12.544642857142858 0.39772727272727293  Z M 19.6875 7.670454545454546  C 19.895833333333336 7.935606060606057  20 8.257575757575758  20 8.636363636363635  L 20 11.363636363636363  C 20 11.742424242424242  19.895833333333336 12.064393939393938  19.6875 12.329545454545453  C 19.479166666666668 12.594696969696969  19.226190476190478 12.727272727272727  18.928571428571427 12.727272727272727  L 15.357142857142858 12.727272727272727  C 15.059523809523812 12.727272727272727  14.80654761904762 12.594696969696969  14.598214285714286 12.329545454545453  C 14.389880952380953 12.064393939393938  14.285714285714286 11.742424242424242  14.285714285714286 11.363636363636363  L 14.285714285714286 8.636363636363635  C 14.285714285714286 8.257575757575758  14.389880952380953 7.935606060606057  14.598214285714286 7.670454545454546  C 14.80654761904762 7.405303030303029  15.059523809523812 7.272727272727273  15.357142857142858 7.272727272727273  L 18.928571428571427 7.272727272727273  C 19.226190476190478 7.272727272727273  19.479166666666668 7.405303030303029  19.6875 7.670454545454546  Z M 19.6875 0.39772727272727293  C 19.895833333333336 0.6628787878787867  20 0.984848484848484  20 1.3636363636363646  L 20 4.090909090909092  C 20 4.469696969696968  19.895833333333336 4.791666666666665  19.6875 5.056818181818182  C 19.479166666666668 5.3219696969696955  19.226190476190478 5.454545454545454  18.928571428571427 5.454545454545454  L 15.357142857142858 5.454545454545454  C 15.059523809523812 5.454545454545454  14.80654761904762 5.3219696969696955  14.598214285714286 5.056818181818182  C 14.389880952380953 4.791666666666665  14.285714285714286 4.469696969696968  14.285714285714286 4.090909090909092  L 14.285714285714286 1.3636363636363646  C 14.285714285714286 0.984848484848484  14.389880952380953 0.6628787878787867  14.598214285714286 0.39772727272727293  C 14.80654761904762 0.1325757575757569  15.059523809523812 0  15.357142857142858 0  L 18.928571428571427 0  C 19.226190476190478 0  19.479166666666668 0.1325757575757569  19.6875 0.39772727272727293  Z " fill-rule="nonzero" fill="#f2f2f2" stroke="none" transform="matrix(1 0 0 1 1718 21 )" />
  </g>
</svg>