<?xml version="1.0" encoding="utf-8"?>
<svg version="1.1" xmlns:xlink="http://www.w3.org/1999/xlink" width="20px" height="20px" viewBox="109 175  20 20" xmlns="http://www.w3.org/2000/svg">
  <path d="M 109.5 177  A 1.5 1.5 0 0 1 111 175.5 L 127 175.5  A 1.5 1.5 0 0 1 128.5 177 L 128.5 193  A 1.5 1.5 0 0 1 127 194.5 L 111 194.5  A 1.5 1.5 0 0 1 109.5 193 L 109.5 177  Z " fill-rule="nonzero" fill="#f0f0f0" stroke="none" />
  <path d="M 109.5 177  A 1.5 1.5 0 0 1 111 175.5 L 127 175.5  A 1.5 1.5 0 0 1 128.5 177 L 128.5 193  A 1.5 1.5 0 0 1 127 194.5 L 111 194.5  A 1.5 1.5 0 0 1 109.5 193 L 109.5 177  Z " stroke-width="1" stroke="#797979" fill="none" />
</svg>