<?xml version="1.0" encoding="utf-8"?>
<svg version="1.1" xmlns:xlink="http://www.w3.org/1999/xlink" width="19px" height="19px" viewBox="402 754  19 19" xmlns="http://www.w3.org/2000/svg">
  <path d="M 411.5 754  C 416.82 754  421 758.18  421 763.5  C 421 768.82  416.82 773  411.5 773  C 406.18 773  402 768.82  402 763.5  C 402 758.18  406.18 754  411.5 754  Z " fill-rule="nonzero" fill="#ffffff" stroke="none" />
  <path d="M 411.5 754.5  C 416.54 754.5  420.5 758.46  420.5 763.5  C 420.5 768.54  416.54 772.5  411.5 772.5  C 406.46 772.5  402.5 768.54  402.5 763.5  C 402.5 758.46  406.46 754.5  411.5 754.5  Z " stroke-width="1" stroke="#f59a23" fill="none" />
  <path d="M 411.5 768.25  C 408.84 768.25  406.75 766.16  406.75 763.5  C 406.75 760.84  408.84 758.75  411.5 758.75  C 414.16 758.75  416.25 760.84  416.25 763.5  C 416.25 766.16  414.16 768.25  411.5 768.25  " fill-rule="nonzero" fill="#f59a23" stroke="none" />
</svg>