<?xml version="1.0" encoding="utf-8"?>
<svg version="1.1" xmlns:xlink="http://www.w3.org/1999/xlink" width="19px" height="19px" viewBox="294 254.5  19 19" xmlns="http://www.w3.org/2000/svg">
  <path d="M 303.5 254.5  C 308.82 254.5  313 258.68  313 264  C 313 269.32  308.82 273.5  303.5 273.5  C 298.18 273.5  294 269.32  294 264  C 294 258.68  298.18 254.5  303.5 254.5  Z " fill-rule="nonzero" fill="#ffffff" stroke="none" />
  <path d="M 303.5 255  C 308.54 255  312.5 258.96  312.5 264  C 312.5 269.04  308.54 273  303.5 273  C 298.46 273  294.5 269.04  294.5 264  C 294.5 258.96  298.46 255  303.5 255  Z " stroke-width="1" stroke="#f59a23" fill="none" />
  <path d="M 303.5 268.75  C 300.84 268.75  298.75 266.66  298.75 264  C 298.75 261.34  300.84 259.25  303.5 259.25  C 306.16 259.25  308.25 261.34  308.25 264  C 308.25 266.66  306.16 268.75  303.5 268.75  " fill-rule="nonzero" fill="#f59a23" stroke="none" />
</svg>