<?xml version="1.0" encoding="utf-8"?>
<svg version="1.1" xmlns:xlink="http://www.w3.org/1999/xlink" width="19px" height="19px" viewBox="468 254.5  19 19" xmlns="http://www.w3.org/2000/svg">
  <path d="M 477.5 254.5  C 482.82 254.5  487 258.68  487 264  C 487 269.32  482.82 273.5  477.5 273.5  C 472.18 273.5  468 269.32  468 264  C 468 258.68  472.18 254.5  477.5 254.5  Z " fill-rule="nonzero" fill="#ffffff" stroke="none" />
  <path d="M 477.5 255  C 482.54 255  486.5 258.96  486.5 264  C 486.5 269.04  482.54 273  477.5 273  C 472.46 273  468.5 269.04  468.5 264  C 468.5 258.96  472.46 255  477.5 255  Z " stroke-width="1" stroke="#f59a23" fill="none" />
  <path d="M 477.5 268.75  C 474.84 268.75  472.75 266.66  472.75 264  C 472.75 261.34  474.84 259.25  477.5 259.25  C 480.16 259.25  482.25 261.34  482.25 264  C 482.25 266.66  480.16 268.75  477.5 268.75  " fill-rule="nonzero" fill="#f59a23" stroke="none" />
</svg>