<?xml version="1.0" encoding="utf-8"?>
<svg version="1.1" xmlns:xlink="http://www.w3.org/1999/xlink" width="25px" height="25px" viewBox="272 326  25 25" xmlns="http://www.w3.org/2000/svg">
  <path d="M 284.5 326  C 291.5 326  297 331.5  297 338.5  C 297 345.5  291.5 351  284.5 351  C 277.5 351  272 345.5  272 338.5  C 272 331.5  277.5 326  284.5 326  Z " fill-rule="nonzero" fill="#ffffff" stroke="none" />
  <path d="M 284.5 326.5  C 291.22 326.5  296.5 331.78  296.5 338.5  C 296.5 345.22  291.22 350.5  284.5 350.5  C 277.78 350.5  272.5 345.22  272.5 338.5  C 272.5 331.78  277.78 326.5  284.5 326.5  Z " stroke-width="1" stroke="#f59a23" fill="none" />
  <path d="M 284.5 344.75  C 281 344.75  278.25 342  278.25 338.5  C 278.25 335  281 332.25  284.5 332.25  C 288 332.25  290.75 335  290.75 338.5  C 290.75 342  288 344.75  284.5 344.75  " fill-rule="nonzero" fill="#f59a23" stroke="none" />
</svg>