<?xml version="1.0" encoding="utf-8"?>
<svg version="1.1" xmlns:xlink="http://www.w3.org/1999/xlink" width="25px" height="25px" viewBox="1064 218  25 25" xmlns="http://www.w3.org/2000/svg">
  <path d="M 1076.5 218  C 1083.5 218  1089 223.5  1089 230.5  C 1089 237.5  1083.5 243  1076.5 243  C 1069.5 243  1064 237.5  1064 230.5  C 1064 223.5  1069.5 218  1076.5 218  Z " fill-rule="nonzero" fill="#ffffff" stroke="none" />
  <path d="M 1076.5 218.5  C 1083.22 218.5  1088.5 223.78  1088.5 230.5  C 1088.5 237.22  1083.22 242.5  1076.5 242.5  C 1069.78 242.5  1064.5 237.22  1064.5 230.5  C 1064.5 223.78  1069.78 218.5  1076.5 218.5  Z " stroke-width="1" stroke="#f4a820" fill="none" />
  <path d="M 1076.5 236.75  C 1073 236.75  1070.25 234  1070.25 230.5  C 1070.25 227  1073 224.25  1076.5 224.25  C 1080 224.25  1082.75 227  1082.75 230.5  C 1082.75 234  1080 236.75  1076.5 236.75  " fill-rule="nonzero" fill="#f4a820" stroke="none" />
</svg>