<?xml version="1.0" encoding="utf-8"?>
<svg version="1.1" xmlns:xlink="http://www.w3.org/1999/xlink" width="25px" height="25px" viewBox="408 383  25 25" xmlns="http://www.w3.org/2000/svg">
  <path d="M 420.5 383  C 427.5 383  433 388.5  433 395.5  C 433 402.5  427.5 408  420.5 408  C 413.5 408  408 402.5  408 395.5  C 408 388.5  413.5 383  420.5 383  Z " fill-rule="nonzero" fill="#ffffff" stroke="none" />
  <path d="M 420.5 383.5  C 427.22 383.5  432.5 388.78  432.5 395.5  C 432.5 402.22  427.22 407.5  420.5 407.5  C 413.78 407.5  408.5 402.22  408.5 395.5  C 408.5 388.78  413.78 383.5  420.5 383.5  Z " stroke-width="1" stroke="#f4a820" fill="none" />
  <path d="M 420.5 401.75  C 417 401.75  414.25 399  414.25 395.5  C 414.25 392  417 389.25  420.5 389.25  C 424 389.25  426.75 392  426.75 395.5  C 426.75 399  424 401.75  420.5 401.75  " fill-rule="nonzero" fill="#f4a820" stroke="none" />
</svg>