<?xml version="1.0" encoding="utf-8"?>
<svg version="1.1" xmlns:xlink="http://www.w3.org/1999/xlink" width="25px" height="25px" viewBox="178 383  25 25" xmlns="http://www.w3.org/2000/svg">
  <path d="M 190.5 383  C 197.5 383  203 388.5  203 395.5  C 203 402.5  197.5 408  190.5 408  C 183.5 408  178 402.5  178 395.5  C 178 388.5  183.5 383  190.5 383  Z " fill-rule="nonzero" fill="#ffffff" stroke="none" />
  <path d="M 190.5 383.5  C 197.22 383.5  202.5 388.78  202.5 395.5  C 202.5 402.22  197.22 407.5  190.5 407.5  C 183.78 407.5  178.5 402.22  178.5 395.5  C 178.5 388.78  183.78 383.5  190.5 383.5  Z " stroke-width="1" stroke="#f59a23" fill="none" />
  <path d="M 190.5 401.75  C 187 401.75  184.25 399  184.25 395.5  C 184.25 392  187 389.25  190.5 389.25  C 194 389.25  196.75 392  196.75 395.5  C 196.75 399  194 401.75  190.5 401.75  " fill-rule="nonzero" fill="#f59a23" stroke="none" />
</svg>