<?xml version="1.0" encoding="utf-8"?>
<svg version="1.1" xmlns:xlink="http://www.w3.org/1999/xlink" width="25px" height="25px" viewBox="387 326  25 25" xmlns="http://www.w3.org/2000/svg">
  <path d="M 399.5 326  C 406.5 326  412 331.5  412 338.5  C 412 345.5  406.5 351  399.5 351  C 392.5 351  387 345.5  387 338.5  C 387 331.5  392.5 326  399.5 326  Z " fill-rule="nonzero" fill="#ffffff" stroke="none" />
  <path d="M 399.5 326.5  C 406.22 326.5  411.5 331.78  411.5 338.5  C 411.5 345.22  406.22 350.5  399.5 350.5  C 392.78 350.5  387.5 345.22  387.5 338.5  C 387.5 331.78  392.78 326.5  399.5 326.5  Z " stroke-width="1" stroke="#f4a820" fill="none" />
  <path d="M 399.5 344.75  C 396 344.75  393.25 342  393.25 338.5  C 393.25 335  396 332.25  399.5 332.25  C 403 332.25  405.75 335  405.75 338.5  C 405.75 342  403 344.75  399.5 344.75  " fill-rule="nonzero" fill="#f4a820" stroke="none" />
</svg>