<?xml version="1.0" encoding="utf-8"?>
<svg version="1.1" xmlns:xlink="http://www.w3.org/1999/xlink" width="25px" height="25px" viewBox="508 326  25 25" xmlns="http://www.w3.org/2000/svg">
  <path d="M 520.5 326  C 527.5 326  533 331.5  533 338.5  C 533 345.5  527.5 351  520.5 351  C 513.5 351  508 345.5  508 338.5  C 508 331.5  513.5 326  520.5 326  Z " fill-rule="nonzero" fill="#ffffff" stroke="none" />
  <path d="M 520.5 326.5  C 527.22 326.5  532.5 331.78  532.5 338.5  C 532.5 345.22  527.22 350.5  520.5 350.5  C 513.78 350.5  508.5 345.22  508.5 338.5  C 508.5 331.78  513.78 326.5  520.5 326.5  Z " stroke-width="1" stroke="#f4a820" fill="none" />
  <path d="M 520.5 344.75  C 517 344.75  514.25 342  514.25 338.5  C 514.25 335  517 332.25  520.5 332.25  C 524 332.25  526.75 335  526.75 338.5  C 526.75 342  524 344.75  520.5 344.75  " fill-rule="nonzero" fill="#f4a820" stroke="none" />
</svg>