<?xml version="1.0" encoding="utf-8"?>
<svg version="1.1" xmlns:xlink="http://www.w3.org/1999/xlink" width="25px" height="25px" viewBox="1185 218  25 25" xmlns="http://www.w3.org/2000/svg">
  <path d="M 1197.5 218  C 1204.5 218  1210 223.5  1210 230.5  C 1210 237.5  1204.5 243  1197.5 243  C 1190.5 243  1185 237.5  1185 230.5  C 1185 223.5  1190.5 218  1197.5 218  Z " fill-rule="nonzero" fill="#ffffff" stroke="none" />
  <path d="M 1197.5 218.5  C 1204.22 218.5  1209.5 223.78  1209.5 230.5  C 1209.5 237.22  1204.22 242.5  1197.5 242.5  C 1190.78 242.5  1185.5 237.22  1185.5 230.5  C 1185.5 223.78  1190.78 218.5  1197.5 218.5  Z " stroke-width="1" stroke="#f4a820" fill="none" />
  <path d="M 1197.5 236.75  C 1194 236.75  1191.25 234  1191.25 230.5  C 1191.25 227  1194 224.25  1197.5 224.25  C 1201 224.25  1203.75 227  1203.75 230.5  C 1203.75 234  1201 236.75  1197.5 236.75  " fill-rule="nonzero" fill="#f4a820" stroke="none" />
</svg>