<?xml version="1.0" encoding="utf-8"?>
<svg version="1.1" xmlns:xlink="http://www.w3.org/1999/xlink" width="25px" height="25px" viewBox="434 369  25 25" xmlns="http://www.w3.org/2000/svg">
  <path d="M 446.5 369  C 453.5 369  459 374.5  459 381.5  C 459 388.5  453.5 394  446.5 394  C 439.5 394  434 388.5  434 381.5  C 434 374.5  439.5 369  446.5 369  Z " fill-rule="nonzero" fill="#ffffff" stroke="none" />
  <path d="M 446.5 369.5  C 453.22 369.5  458.5 374.78  458.5 381.5  C 458.5 388.22  453.22 393.5  446.5 393.5  C 439.78 393.5  434.5 388.22  434.5 381.5  C 434.5 374.78  439.78 369.5  446.5 369.5  Z " stroke-width="1" stroke="#f4a820" fill="none" />
  <path d="M 446.5 387.75  C 443 387.75  440.25 385  440.25 381.5  C 440.25 378  443 375.25  446.5 375.25  C 450 375.25  452.75 378  452.75 381.5  C 452.75 385  450 387.75  446.5 387.75  " fill-rule="nonzero" fill="#f4a820" stroke="none" />
</svg>