<?xml version="1.0" encoding="utf-8"?>
<svg version="1.1" xmlns:xlink="http://www.w3.org/1999/xlink" width="25px" height="25px" viewBox="313 369  25 25" xmlns="http://www.w3.org/2000/svg">
  <path d="M 325.5 369  C 332.5 369  338 374.5  338 381.5  C 338 388.5  332.5 394  325.5 394  C 318.5 394  313 388.5  313 381.5  C 313 374.5  318.5 369  325.5 369  Z " fill-rule="nonzero" fill="#ffffff" stroke="none" />
  <path d="M 325.5 369.5  C 332.22 369.5  337.5 374.78  337.5 381.5  C 337.5 388.22  332.22 393.5  325.5 393.5  C 318.78 393.5  313.5 388.22  313.5 381.5  C 313.5 374.78  318.78 369.5  325.5 369.5  Z " stroke-width="1" stroke="#f4a820" fill="none" />
  <path d="M 325.5 387.75  C 322 387.75  319.25 385  319.25 381.5  C 319.25 378  322 375.25  325.5 375.25  C 329 375.25  331.75 378  331.75 381.5  C 331.75 385  329 387.75  325.5 387.75  " fill-rule="nonzero" fill="#f4a820" stroke="none" />
</svg>