<?xml version="1.0" encoding="utf-8"?>
<svg version="1.1" xmlns:xlink="http://www.w3.org/1999/xlink" width="25px" height="25px" viewBox="351 270  25 25" xmlns="http://www.w3.org/2000/svg">
  <path d="M 363.5 270  C 370.5 270  376 275.5  376 282.5  C 376 289.5  370.5 295  363.5 295  C 356.5 295  351 289.5  351 282.5  C 351 275.5  356.5 270  363.5 270  Z " fill-rule="nonzero" fill="#ffffff" stroke="none" />
  <path d="M 363.5 270.5  C 370.22 270.5  375.5 275.78  375.5 282.5  C 375.5 289.22  370.22 294.5  363.5 294.5  C 356.78 294.5  351.5 289.22  351.5 282.5  C 351.5 275.78  356.78 270.5  363.5 270.5  Z " stroke-width="1" stroke="#f4a820" fill="none" />
  <path d="M 363.5 288.75  C 360 288.75  357.25 286  357.25 282.5  C 357.25 279  360 276.25  363.5 276.25  C 367 276.25  369.75 279  369.75 282.5  C 369.75 286  367 288.75  363.5 288.75  " fill-rule="nonzero" fill="#f4a820" stroke="none" />
</svg>