<?xml version="1.0" encoding="utf-8"?>
<svg version="1.1" xmlns:xlink="http://www.w3.org/1999/xlink" width="25px" height="25px" viewBox="243 270  25 25" xmlns="http://www.w3.org/2000/svg">
  <path d="M 255.5 270  C 262.5 270  268 275.5  268 282.5  C 268 289.5  262.5 295  255.5 295  C 248.5 295  243 289.5  243 282.5  C 243 275.5  248.5 270  255.5 270  Z " fill-rule="nonzero" fill="#ffffff" stroke="none" />
  <path d="M 255.5 270.5  C 262.22 270.5  267.5 275.78  267.5 282.5  C 267.5 289.22  262.22 294.5  255.5 294.5  C 248.78 294.5  243.5 289.22  243.5 282.5  C 243.5 275.78  248.78 270.5  255.5 270.5  Z " stroke-width="1" stroke="#f4a820" fill="none" />
  <path d="M 255.5 288.75  C 252 288.75  249.25 286  249.25 282.5  C 249.25 279  252 276.25  255.5 276.25  C 259 276.25  261.75 279  261.75 282.5  C 261.75 286  259 288.75  255.5 288.75  " fill-rule="nonzero" fill="#f4a820" stroke="none" />
</svg>