<?xml version="1.0" encoding="utf-8"?>
<svg version="1.1" xmlns:xlink="http://www.w3.org/1999/xlink" width="25px" height="25px" viewBox="361 280  25 25" xmlns="http://www.w3.org/2000/svg">
  <path d="M 373.5 280  C 380.5 280  386 285.5  386 292.5  C 386 299.5  380.5 305  373.5 305  C 366.5 305  361 299.5  361 292.5  C 361 285.5  366.5 280  373.5 280  Z " fill-rule="nonzero" fill="#ffffff" stroke="none" />
  <path d="M 373.5 280.5  C 380.22 280.5  385.5 285.78  385.5 292.5  C 385.5 299.22  380.22 304.5  373.5 304.5  C 366.78 304.5  361.5 299.22  361.5 292.5  C 361.5 285.78  366.78 280.5  373.5 280.5  Z " stroke-width="1" stroke="#f4a820" fill="none" />
  <path d="M 373.5 298.75  C 370 298.75  367.25 296  367.25 292.5  C 367.25 289  370 286.25  373.5 286.25  C 377 286.25  379.75 289  379.75 292.5  C 379.75 296  377 298.75  373.5 298.75  " fill-rule="nonzero" fill="#f4a820" stroke="none" />
</svg>