<?xml version="1.0" encoding="utf-8"?>
<svg version="1.1" xmlns:xlink="http://www.w3.org/1999/xlink" width="25px" height="25px" viewBox="253 280  25 25" xmlns="http://www.w3.org/2000/svg">
  <path d="M 265.5 280  C 272.5 280  278 285.5  278 292.5  C 278 299.5  272.5 305  265.5 305  C 258.5 305  253 299.5  253 292.5  C 253 285.5  258.5 280  265.5 280  Z " fill-rule="nonzero" fill="#ffffff" stroke="none" />
  <path d="M 265.5 280.5  C 272.22 280.5  277.5 285.78  277.5 292.5  C 277.5 299.22  272.22 304.5  265.5 304.5  C 258.78 304.5  253.5 299.22  253.5 292.5  C 253.5 285.78  258.78 280.5  265.5 280.5  Z " stroke-width="1" stroke="#f4a820" fill="none" />
  <path d="M 265.5 298.75  C 262 298.75  259.25 296  259.25 292.5  C 259.25 289  262 286.25  265.5 286.25  C 269 286.25  271.75 289  271.75 292.5  C 271.75 296  269 298.75  265.5 298.75  " fill-rule="nonzero" fill="#f4a820" stroke="none" />
</svg>