<?xml version="1.0" encoding="utf-8"?>
<svg version="1.1" xmlns:xlink="http://www.w3.org/1999/xlink" width="25px" height="25px" viewBox="1164 269  25 25" xmlns="http://www.w3.org/2000/svg">
  <path d="M 1176.5 269  C 1183.5 269  1189 274.5  1189 281.5  C 1189 288.5  1183.5 294  1176.5 294  C 1169.5 294  1164 288.5  1164 281.5  C 1164 274.5  1169.5 269  1176.5 269  Z " fill-rule="nonzero" fill="#ffffff" stroke="none" />
  <path d="M 1176.5 269.5  C 1183.22 269.5  1188.5 274.78  1188.5 281.5  C 1188.5 288.22  1183.22 293.5  1176.5 293.5  C 1169.78 293.5  1164.5 288.22  1164.5 281.5  C 1164.5 274.78  1169.78 269.5  1176.5 269.5  Z " stroke-width="1" stroke="#f4a820" fill="none" />
  <path d="M 1176.5 287.75  C 1173 287.75  1170.25 285  1170.25 281.5  C 1170.25 278  1173 275.25  1176.5 275.25  C 1180 275.25  1182.75 278  1182.75 281.5  C 1182.75 285  1180 287.75  1176.5 287.75  " fill-rule="nonzero" fill="#f4a820" stroke="none" />
</svg>