<?xml version="1.0" encoding="utf-8"?>
<svg version="1.1" xmlns:xlink="http://www.w3.org/1999/xlink" width="25px" height="25px" viewBox="929 269  25 25" xmlns="http://www.w3.org/2000/svg">
  <path d="M 941.5 269  C 948.5 269  954 274.5  954 281.5  C 954 288.5  948.5 294  941.5 294  C 934.5 294  929 288.5  929 281.5  C 929 274.5  934.5 269  941.5 269  Z " fill-rule="nonzero" fill="#ffffff" stroke="none" />
  <path d="M 941.5 269.5  C 948.22 269.5  953.5 274.78  953.5 281.5  C 953.5 288.22  948.22 293.5  941.5 293.5  C 934.78 293.5  929.5 288.22  929.5 281.5  C 929.5 274.78  934.78 269.5  941.5 269.5  Z " stroke-width="1" stroke="#f59a23" fill="none" />
  <path d="M 941.5 287.75  C 938 287.75  935.25 285  935.25 281.5  C 935.25 278  938 275.25  941.5 275.25  C 945 275.25  947.75 278  947.75 281.5  C 947.75 285  945 287.75  941.5 287.75  " fill-rule="nonzero" fill="#f59a23" stroke="none" />
</svg>