<?xml version="1.0" encoding="utf-8"?>
<svg version="1.1" xmlns:xlink="http://www.w3.org/1999/xlink" width="25px" height="25px" viewBox="1043 269  25 25" xmlns="http://www.w3.org/2000/svg">
  <path d="M 1055.5 269  C 1062.5 269  1068 274.5  1068 281.5  C 1068 288.5  1062.5 294  1055.5 294  C 1048.5 294  1043 288.5  1043 281.5  C 1043 274.5  1048.5 269  1055.5 269  Z " fill-rule="nonzero" fill="#ffffff" stroke="none" />
  <path d="M 1055.5 269.5  C 1062.22 269.5  1067.5 274.78  1067.5 281.5  C 1067.5 288.22  1062.22 293.5  1055.5 293.5  C 1048.78 293.5  1043.5 288.22  1043.5 281.5  C 1043.5 274.78  1048.78 269.5  1055.5 269.5  Z " stroke-width="1" stroke="#f4a820" fill="none" />
  <path d="M 1055.5 287.75  C 1052 287.75  1049.25 285  1049.25 281.5  C 1049.25 278  1052 275.25  1055.5 275.25  C 1059 275.25  1061.75 278  1061.75 281.5  C 1061.75 285  1059 287.75  1055.5 287.75  " fill-rule="nonzero" fill="#f4a820" stroke="none" />
</svg>