<?xml version="1.0" encoding="utf-8"?>
<svg version="1.1" xmlns:xlink="http://www.w3.org/1999/xlink" width="3px" height="16px" xmlns="http://www.w3.org/2000/svg">
  <g transform="matrix(1 0 0 1 -1343 -7 )">
    <path d="M 2.78125 11.954545454545453  C 2.927083333333333 12.166666666666664  3 12.424242424242424  3 12.727272727272727  L 3 14.90909090909091  C 3 15.212121212121213  2.927083333333333 15.469696969696969  2.78125 15.681818181818182  C 2.635416666666667 15.893939393939394  2.4583333333333335 16  2.25 16  L 0.75 16  C 0.5416666666666667 16  0.36458333333333337 15.893939393939394  0.21875 15.681818181818182  C 0.07291666666666666 15.469696969696969  0 15.212121212121213  0 14.90909090909091  L 0 12.727272727272727  C 0 12.424242424242424  0.07291666666666666 12.166666666666664  0.21875 11.954545454545453  C 0.36458333333333337 11.742424242424244  0.5416666666666667 11.636363636363637  0.75 11.636363636363637  L 2.25 11.636363636363637  C 2.4583333333333335 11.636363636363637  2.635416666666667 11.742424242424244  2.78125 11.954545454545453  Z M 2.78125 6.136363636363637  C 2.927083333333333 6.348484848484846  3 6.6060606060606055  3 6.909090909090908  L 3 9.09090909090909  C 3 9.393939393939394  2.927083333333333 9.65151515151515  2.78125 9.863636363636363  C 2.635416666666667 10.075757575757574  2.4583333333333335 10.181818181818182  2.25 10.181818181818182  L 0.75 10.181818181818182  C 0.5416666666666667 10.181818181818182  0.36458333333333337 10.075757575757574  0.21875 9.863636363636363  C 0.07291666666666666 9.65151515151515  0 9.393939393939394  0 9.09090909090909  L 0 6.909090909090908  C 0 6.6060606060606055  0.07291666666666666 6.348484848484846  0.21875 6.136363636363637  C 0.36458333333333337 5.924242424242424  0.5416666666666667 5.818181818181818  0.75 5.818181818181818  L 2.25 5.818181818181818  C 2.4583333333333335 5.818181818181818  2.635416666666667 5.924242424242424  2.78125 6.136363636363637  Z M 2.78125 0.31818181818181834  C 2.927083333333333 0.5303030303030294  3 0.7878787878787872  3 1.0909090909090917  L 3 3.2727272727272734  C 3 3.5757575757575744  2.927083333333333 3.833333333333332  2.78125 4.045454545454545  C 2.635416666666667 4.257575757575756  2.4583333333333335 4.363636363636363  2.25 4.363636363636363  L 0.75 4.363636363636363  C 0.5416666666666667 4.363636363636363  0.36458333333333337 4.257575757575756  0.21875 4.045454545454545  C 0.07291666666666666 3.833333333333332  0 3.5757575757575744  0 3.2727272727272734  L 0 1.0909090909090917  C 0 0.7878787878787872  0.07291666666666666 0.5303030303030294  0.21875 0.31818181818181834  C 0.36458333333333337 0.10606060606060552  0.5416666666666667 0  0.75 0  L 2.25 0  C 2.4583333333333335 0  2.635416666666667 0.10606060606060552  2.78125 0.31818181818181834  Z " fill-rule="nonzero" fill="#f59a23" stroke="none" transform="matrix(1 0 0 1 1343 7 )" />
  </g>
</svg>