<?xml version="1.0" encoding="utf-8"?>
<svg version="1.1" xmlns:xlink="http://www.w3.org/1999/xlink" width="13px" height="13px" viewBox="183 631  13 13" xmlns="http://www.w3.org/2000/svg">
  <path d="M 189.5 631  C 193.14 631  196 633.86  196 637.5  C 196 641.14  193.14 644  189.5 644  C 185.86 644  183 641.14  183 637.5  C 183 633.86  185.86 631  189.5 631  Z " fill-rule="nonzero" fill="#f0f0f0" stroke="none" />
  <path d="M 189.5 631.5  C 192.86 631.5  195.5 634.14  195.5 637.5  C 195.5 640.86  192.86 643.5  189.5 643.5  C 186.14 643.5  183.5 640.86  183.5 637.5  C 183.5 634.14  186.14 631.5  189.5 631.5  Z " stroke-width="1" stroke="#797979" fill="none" />
  <path d="M 189.5 640.75  C 187.68 640.75  186.25 639.32  186.25 637.5  C 186.25 635.68  187.68 634.25  189.5 634.25  C 191.32 634.25  192.75 635.68  192.75 637.5  C 192.75 639.32  191.32 640.75  189.5 640.75  " fill-rule="nonzero" fill="#797979" stroke="none" />
</svg>