<?xml version="1.0" encoding="utf-8"?>
<svg version="1.1" xmlns:xlink="http://www.w3.org/1999/xlink" width="12px" height="12px" xmlns="http://www.w3.org/2000/svg">
  <g transform="matrix(1 0 0 1 -1361 -20 )">
    <path d="M 9.890625 6.359375000000001  C 9.984375 6.265625000000001  10.03125 6.148437500000001  10.03125 6.007812500000001  C 10.03125 5.8671875  9.984375 5.75  9.890625 5.65625  L 9.1796875 4.9453125  C 9.0859375 4.8515625  8.96875 4.8046875  8.828125 4.8046875  C 8.6875 4.8046875  8.5703125 4.8515625  8.4765625 4.9453125  L 7 6.421875  L 7 2.5000000000000004  C 7 2.3645833333333326  6.950520833333334 2.2473958333333326  6.8515625 2.1484375000000004  C 6.752604166666668 2.0494791666666656  6.635416666666668 1.9999999999999996  6.5 1.9999999999999996  L 5.5 1.9999999999999996  C 5.364583333333334 1.9999999999999996  5.247395833333334 2.0494791666666656  5.1484375 2.1484375000000004  C 5.049479166666667 2.2473958333333326  5 2.3645833333333326  5 2.5000000000000004  L 5 6.421875  L 3.5234375 4.9453125  C 3.424479166666667 4.846354166666666  3.307291666666667 4.796875  3.171875 4.796875  C 3.036458333333334 4.796875  2.9192708333333335 4.846354166666666  2.8203125 4.9453125  L 2.109375 5.65625  C 2.015625 5.75  1.9687500000000004 5.8671875  1.96875 6.007812500000001  C 1.9687500000000004 6.148437500000001  2.015625 6.265625000000001  2.109375 6.359375000000001  L 4.9375 9.1875  L 5.6484375 9.8984375  C 5.7421875 9.9921875  5.859375 10.0390625  6 10.0390625  C 6.140625000000002 10.0390625  6.257812500000002 9.9921875  6.3515625 9.8984375  L 7.0625 9.1875  L 9.890625 6.359375000000001  Z M 11.1953125 2.98828125  C 11.731770833333332 3.907552083333332  12 4.911458333333332  12 6  C 12 7.088541666666667  11.731770833333332 8.092447916666664  11.1953125 9.01171875  C 10.658854166666668 9.930989583333334  9.930989583333334 10.658854166666666  9.01171875 11.1953125  C 8.092447916666668 11.731770833333334  7.088541666666667 12  6 12  C 4.911458333333334 12  3.9075520833333335 11.731770833333334  2.98828125 11.1953125  C 2.069010416666667 10.658854166666666  1.3411458333333335 9.930989583333334  0.8046875 9.01171875  C 0.26822916666666663 8.092447916666664  0 7.088541666666667  0 6  C 0 4.911458333333332  0.26822916666666663 3.907552083333332  0.8046875 2.98828125  C 1.3411458333333335 2.0690104166666665  2.069010416666667 1.3411458333333321  2.98828125 0.8046874999999996  C 3.9075520833333335 0.26822916666666563  4.911458333333334 0  6 0  C 7.088541666666667 0  8.092447916666668 0.26822916666666563  9.01171875 0.8046874999999996  C 9.930989583333334 1.3411458333333321  10.658854166666668 2.0690104166666665  11.1953125 2.98828125  Z " fill-rule="nonzero" fill="#63a103" stroke="none" transform="matrix(1 0 0 1 1361 20 )" />
  </g>
</svg>