<?xml version="1.0" encoding="utf-8"?>
<svg version="1.1" xmlns:xlink="http://www.w3.org/1999/xlink" width="20px" height="23px" xmlns="http://www.w3.org/2000/svg">
  <g transform="matrix(1 0 0 1 -1357 -11 )">
    <path d="M 15.052083333333332 0.8727678571428579  L 19.114583333333332 4.877232142857142  C 19.35763888888889 5.1168154761904745  19.56597222222222 5.4419642857142865  19.739583333333332 5.852678571428571  C 19.913194444444443 6.263392857142858  20 6.639880952380952  20 6.982142857142858  L 20 21.767857142857142  C 20 22.110119047619047  19.87847222222222 22.401041666666664  19.635416666666668 22.640625  C 19.392361111111114 22.880208333333336  19.09722222222222 23  18.75 23  L 1.25 23  C 0.9027777777777779 23  0.607638888888889 22.880208333333336  0.36458333333333337 22.640625  C 0.12152777777777776 22.401041666666664  0 22.110119047619047  0 21.767857142857142  L 0 1.2321428571428579  C 0 0.8898809523809518  0.12152777777777776 0.5989583333333325  0.36458333333333337 0.359375  C 0.607638888888889 0.11979166666666752  0.9027777777777779 0  1.25 0  L 12.916666666666668 0  C 13.263888888888891 0  13.645833333333332 0.08556547619047716  14.0625 0.25669642857142894  C 14.479166666666668 0.4278273809523807  14.809027777777779 0.6331845238095228  15.052083333333332 0.8727678571428579  Z M 13.8671875 2.027901785714287  C 13.763020833333332 1.925223214285713  13.585069444444446 1.8311011904761878  13.333333333333332 1.745535714285713  L 13.333333333333332 6.571428571428571  L 18.229166666666668 6.571428571428571  C 18.142361111111114 6.323288690476188  18.046875 6.1478794642857135  17.942708333333332 6.045200892857142  L 13.8671875 2.027901785714287  Z M 2 21  L 18 21  L 18 8.214285714285714  L 12.916666666666668 8.214285714285714  C 12.569444444444445 8.214285714285714  12.274305555555555 8.094494047619046  12.03125 7.8549107142857135  C 11.788194444444445 7.6153273809523805  11.666666666666668 7.324404761904759  11.666666666666668 6.982142857142858  L 11.666666666666668 2  L 2 2  L 2 21  Z " fill-rule="nonzero" fill="#000000" stroke="none" transform="matrix(1 0 0 1 1357 11 )" />
  </g>
</svg>