<?xml version="1.0" encoding="utf-8"?>
<svg version="1.1" xmlns:xlink="http://www.w3.org/1999/xlink" width="19px" height="19px" viewBox="720 166  19 19" xmlns="http://www.w3.org/2000/svg">
  <path d="M 729.5 166  C 734.82 166  739 170.18  739 175.5  C 739 180.82  734.82 185  729.5 185  C 724.18 185  720 180.82  720 175.5  C 720 170.18  724.18 166  729.5 166  Z " fill-rule="nonzero" fill="#ffffff" stroke="none" />
  <path d="M 729.5 166.5  C 734.54 166.5  738.5 170.46  738.5 175.5  C 738.5 180.54  734.54 184.5  729.5 184.5  C 724.46 184.5  720.5 180.54  720.5 175.5  C 720.5 170.46  724.46 166.5  729.5 166.5  Z " stroke-width="1" stroke="#f59a23" fill="none" />
  <path d="M 729.5 180.25  C 726.84 180.25  724.75 178.16  724.75 175.5  C 724.75 172.84  726.84 170.75  729.5 170.75  C 732.16 170.75  734.25 172.84  734.25 175.5  C 734.25 178.16  732.16 180.25  729.5 180.25  " fill-rule="nonzero" fill="#f59a23" stroke="none" />
</svg>