<?xml version="1.0" encoding="utf-8"?>
<svg version="1.1" xmlns:xlink="http://www.w3.org/1999/xlink" width="19px" height="19px" viewBox="555 166  19 19" xmlns="http://www.w3.org/2000/svg">
  <path d="M 564.5 166  C 569.82 166  574 170.18  574 175.5  C 574 180.82  569.82 185  564.5 185  C 559.18 185  555 180.82  555 175.5  C 555 170.18  559.18 166  564.5 166  Z " fill-rule="nonzero" fill="#ffffff" stroke="none" />
  <path d="M 564.5 166.5  C 569.54 166.5  573.5 170.46  573.5 175.5  C 573.5 180.54  569.54 184.5  564.5 184.5  C 559.46 184.5  555.5 180.54  555.5 175.5  C 555.5 170.46  559.46 166.5  564.5 166.5  Z " stroke-width="1" stroke="#f59a23" fill="none" />
  <path d="M 564.5 180.25  C 561.84 180.25  559.75 178.16  559.75 175.5  C 559.75 172.84  561.84 170.75  564.5 170.75  C 567.16 170.75  569.25 172.84  569.25 175.5  C 569.25 178.16  567.16 180.25  564.5 180.25  " fill-rule="nonzero" fill="#f59a23" stroke="none" />
</svg>